{"meta": {"style": "Jazz", "mood": "Vivid, Energetic, Bright", "tempo": 132, "key": "Bb", "scale": "Mixolydian", "meter": "4/4", "bars": 32, "length_seconds": 58.18, "dynamic_profile": "Evolving, Punchy", "arrangement_density": "Medium-High", "harmonic_color": "Extended Jazz Harmony", "instruments": ["Sax", "Trombone", "Piano", "Bass", "Kick", "Snare", "Hat", "Ride"], "instrument_configs": [{"name": "Sax", "register": "High", "role": "Lead", "articulation": "Legato/Staccato", "dynamic_range": "Expressive"}, {"name": "Trombone", "register": "Mid-Low", "role": "Counter-Melody", "articulation": "Swells/Stabs", "dynamic_range": "Moderate"}, {"name": "Piano", "register": "Mid", "role": "Harmonic Support", "articulation": "Staccato/Chordal", "dynamic_range": "Moderate-Intense"}, {"name": "Bass", "register": "Low", "role": "Bass", "articulation": "Pizzicato", "dynamic_range": "Consistent"}, {"name": "Kick", "register": "Low", "role": "Percussion", "articulation": "Percussive", "dynamic_range": "Soft-Moderate"}, {"name": "Snare", "register": "Mid", "role": "Percussion", "articulation": "Percussive", "dynamic_range": "Dynamic"}, {"name": "Hat", "register": "High", "role": "Percussion", "articulation": "Percussive", "dynamic_range": "Crisp"}, {"name": "Ride", "register": "High", "role": "Percussion", "articulation": "Sustain", "dynamic_range": "Shimmering"}], "seed": null, "instrument": "Hat"}, "layers": {"Hat": [{"bar": 0, "events": [{"step": 2, "note": 42, "vel": 80, "len": 1}, {"step": 6, "note": 42, "vel": 80, "len": 1}]}, {"bar": 1, "events": [{"step": 2, "note": 42, "vel": 80, "len": 1}, {"step": 6, "note": 42, "vel": 80, "len": 1}]}, {"bar": 2, "events": [{"step": 2, "note": 42, "vel": 80, "len": 1}, {"step": 6, "note": 42, "vel": 80, "len": 1}]}, {"bar": 3, "events": [{"step": 2, "note": 42, "vel": 80, "len": 1}, {"step": 6, "note": 42, "vel": 80, "len": 1}]}, {"bar": 4, "events": [{"step": 2, "note": 42, "vel": 80, "len": 1}, {"step": 6, "note": 42, "vel": 80, "len": 1}]}, {"bar": 5, "events": [{"step": 2, "note": 42, "vel": 80, "len": 1}, {"step": 6, "note": 42, "vel": 80, "len": 1}]}, {"bar": 6, "events": [{"step": 2, "note": 42, "vel": 80, "len": 1}, {"step": 6, "note": 42, "vel": 80, "len": 1}]}, {"bar": 7, "events": [{"step": 2, "note": 42, "vel": 80, "len": 1}, {"step": 6, "note": 42, "vel": 80, "len": 1}]}, {"bar": 8, "events": [{"step": 2, "note": 42, "vel": 85, "len": 1}, {"step": 6, "note": 42, "vel": 85, "len": 1}]}, {"bar": 9, "events": [{"step": 2, "note": 42, "vel": 85, "len": 1}, {"step": 6, "note": 42, "vel": 85, "len": 1}]}, {"bar": 10, "events": [{"step": 2, "note": 42, "vel": 85, "len": 1}, {"step": 6, "note": 42, "vel": 85, "len": 1}]}, {"bar": 11, "events": [{"step": 2, "note": 42, "vel": 85, "len": 1}, {"step": 6, "note": 42, "vel": 85, "len": 1}]}, {"bar": 12, "events": [{"step": 2, "note": 42, "vel": 85, "len": 1}, {"step": 6, "note": 42, "vel": 85, "len": 1}]}, {"bar": 13, "events": [{"step": 2, "note": 42, "vel": 85, "len": 1}, {"step": 6, "note": 42, "vel": 85, "len": 1}]}, {"bar": 14, "events": [{"step": 2, "note": 42, "vel": 85, "len": 1}, {"step": 6, "note": 42, "vel": 85, "len": 1}]}, {"bar": 15, "events": [{"step": 2, "note": 42, "vel": 85, "len": 1}, {"step": 6, "note": 42, "vel": 85, "len": 1}]}, {"bar": 16, "events": [{"step": 2, "note": 42, "vel": 90, "len": 1}, {"step": 6, "note": 42, "vel": 90, "len": 1}]}, {"bar": 17, "events": [{"step": 2, "note": 42, "vel": 90, "len": 1}, {"step": 6, "note": 42, "vel": 90, "len": 1}]}, {"bar": 18, "events": [{"step": 2, "note": 42, "vel": 90, "len": 1}, {"step": 6, "note": 42, "vel": 90, "len": 1}]}, {"bar": 19, "events": [{"step": 2, "note": 42, "vel": 90, "len": 1}, {"step": 6, "note": 42, "vel": 90, "len": 1}]}, {"bar": 20, "events": [{"step": 2, "note": 42, "vel": 90, "len": 1}, {"step": 6, "note": 42, "vel": 90, "len": 1}]}, {"bar": 21, "events": [{"step": 2, "note": 42, "vel": 90, "len": 1}, {"step": 6, "note": 42, "vel": 90, "len": 1}]}, {"bar": 22, "events": [{"step": 2, "note": 42, "vel": 90, "len": 1}, {"step": 6, "note": 42, "vel": 90, "len": 1}]}, {"bar": 23, "events": []}, {"bar": 24, "events": [{"step": 2, "note": 42, "vel": 95, "len": 1}, {"step": 6, "note": 42, "vel": 95, "len": 1}]}, {"bar": 25, "events": [{"step": 2, "note": 42, "vel": 95, "len": 1}, {"step": 6, "note": 42, "vel": 95, "len": 1}]}, {"bar": 26, "events": [{"step": 2, "note": 42, "vel": 95, "len": 1}, {"step": 6, "note": 42, "vel": 95, "len": 1}]}, {"bar": 27, "events": [{"step": 2, "note": 42, "vel": 95, "len": 1}, {"step": 6, "note": 42, "vel": 95, "len": 1}]}, {"bar": 28, "events": [{"step": 2, "note": 42, "vel": 95, "len": 1}, {"step": 6, "note": 42, "vel": 95, "len": 1}]}, {"bar": 29, "events": [{"step": 2, "note": 42, "vel": 95, "len": 1}, {"step": 6, "note": 42, "vel": 95, "len": 1}]}, {"bar": 30, "events": [{"step": 2, "note": 42, "vel": 95, "len": 1}, {"step": 6, "note": 42, "vel": 95, "len": 1}]}, {"bar": 31, "events": []}]}, "pattern": [{"bar": 0, "events": [{"step": 2, "note": 42, "vel": 80, "len": 1}, {"step": 6, "note": 42, "vel": 80, "len": 1}]}, {"bar": 1, "events": [{"step": 2, "note": 42, "vel": 80, "len": 1}, {"step": 6, "note": 42, "vel": 80, "len": 1}]}, {"bar": 2, "events": [{"step": 2, "note": 42, "vel": 80, "len": 1}, {"step": 6, "note": 42, "vel": 80, "len": 1}]}, {"bar": 3, "events": [{"step": 2, "note": 42, "vel": 80, "len": 1}, {"step": 6, "note": 42, "vel": 80, "len": 1}]}, {"bar": 4, "events": [{"step": 2, "note": 42, "vel": 80, "len": 1}, {"step": 6, "note": 42, "vel": 80, "len": 1}]}, {"bar": 5, "events": [{"step": 2, "note": 42, "vel": 80, "len": 1}, {"step": 6, "note": 42, "vel": 80, "len": 1}]}, {"bar": 6, "events": [{"step": 2, "note": 42, "vel": 80, "len": 1}, {"step": 6, "note": 42, "vel": 80, "len": 1}]}, {"bar": 7, "events": [{"step": 2, "note": 42, "vel": 80, "len": 1}, {"step": 6, "note": 42, "vel": 80, "len": 1}]}, {"bar": 8, "events": [{"step": 2, "note": 42, "vel": 85, "len": 1}, {"step": 6, "note": 42, "vel": 85, "len": 1}]}, {"bar": 9, "events": [{"step": 2, "note": 42, "vel": 85, "len": 1}, {"step": 6, "note": 42, "vel": 85, "len": 1}]}, {"bar": 10, "events": [{"step": 2, "note": 42, "vel": 85, "len": 1}, {"step": 6, "note": 42, "vel": 85, "len": 1}]}, {"bar": 11, "events": [{"step": 2, "note": 42, "vel": 85, "len": 1}, {"step": 6, "note": 42, "vel": 85, "len": 1}]}, {"bar": 12, "events": [{"step": 2, "note": 42, "vel": 85, "len": 1}, {"step": 6, "note": 42, "vel": 85, "len": 1}]}, {"bar": 13, "events": [{"step": 2, "note": 42, "vel": 85, "len": 1}, {"step": 6, "note": 42, "vel": 85, "len": 1}]}, {"bar": 14, "events": [{"step": 2, "note": 42, "vel": 85, "len": 1}, {"step": 6, "note": 42, "vel": 85, "len": 1}]}, {"bar": 15, "events": [{"step": 2, "note": 42, "vel": 85, "len": 1}, {"step": 6, "note": 42, "vel": 85, "len": 1}]}, {"bar": 16, "events": [{"step": 2, "note": 42, "vel": 90, "len": 1}, {"step": 6, "note": 42, "vel": 90, "len": 1}]}, {"bar": 17, "events": [{"step": 2, "note": 42, "vel": 90, "len": 1}, {"step": 6, "note": 42, "vel": 90, "len": 1}]}, {"bar": 18, "events": [{"step": 2, "note": 42, "vel": 90, "len": 1}, {"step": 6, "note": 42, "vel": 90, "len": 1}]}, {"bar": 19, "events": [{"step": 2, "note": 42, "vel": 90, "len": 1}, {"step": 6, "note": 42, "vel": 90, "len": 1}]}, {"bar": 20, "events": [{"step": 2, "note": 42, "vel": 90, "len": 1}, {"step": 6, "note": 42, "vel": 90, "len": 1}]}, {"bar": 21, "events": [{"step": 2, "note": 42, "vel": 90, "len": 1}, {"step": 6, "note": 42, "vel": 90, "len": 1}]}, {"bar": 22, "events": [{"step": 2, "note": 42, "vel": 90, "len": 1}, {"step": 6, "note": 42, "vel": 90, "len": 1}]}, {"bar": 23, "events": []}, {"bar": 24, "events": [{"step": 2, "note": 42, "vel": 95, "len": 1}, {"step": 6, "note": 42, "vel": 95, "len": 1}]}, {"bar": 25, "events": [{"step": 2, "note": 42, "vel": 95, "len": 1}, {"step": 6, "note": 42, "vel": 95, "len": 1}]}, {"bar": 26, "events": [{"step": 2, "note": 42, "vel": 95, "len": 1}, {"step": 6, "note": 42, "vel": 95, "len": 1}]}, {"bar": 27, "events": [{"step": 2, "note": 42, "vel": 95, "len": 1}, {"step": 6, "note": 42, "vel": 95, "len": 1}]}, {"bar": 28, "events": [{"step": 2, "note": 42, "vel": 95, "len": 1}, {"step": 6, "note": 42, "vel": 95, "len": 1}]}, {"bar": 29, "events": [{"step": 2, "note": 42, "vel": 95, "len": 1}, {"step": 6, "note": 42, "vel": 95, "len": 1}]}, {"bar": 30, "events": [{"step": 2, "note": 42, "vel": 95, "len": 1}, {"step": 6, "note": 42, "vel": 95, "len": 1}]}, {"bar": 31, "events": []}]}