{"request": {"project_name": "vivid jazz 2", "run_id": "7223a27b584f", "user_id": 2, "midi": {"pattern": [], "layers": {"Sax": [{"bar": 9, "events": [{"step": 0, "note": 70, "vel": 90, "len": 2}, {"step": 2, "note": 67, "vel": 85, "len": 1}, {"step": 3, "note": 65, "vel": 80, "len": 1}, {"step": 5, "note": 62, "vel": 85, "len": 2}]}, {"bar": 10, "events": [{"step": 0, "note": 60, "vel": 80, "len": 2}, {"step": 2, "note": 62, "vel": 85, "len": 1}, {"step": 4, "note": 65, "vel": 90, "len": 2}]}, {"bar": 11, "events": [{"step": 0, "note": 67, "vel": 95, "len": 1}, {"step": 1, "note": 70, "vel": 90, "len": 1}, {"step": 2, "note": 72, "vel": 100, "len": 2}, {"step": 5, "note": 67, "vel": 85, "len": 1}]}, {"bar": 13, "events": [{"step": 0, "note": 74, "vel": 105, "len": 2}, {"step": 3, "note": 70, "vel": 95, "len": 1}, {"step": 5, "note": 67, "vel": 90, "len": 2}]}, {"bar": 17, "events": [{"step": 0, "note": 72, "vel": 95, "len": 2}, {"step": 2, "note": 74, "vel": 90, "len": 1}, {"step": 4, "note": 76, "vel": 95, "len": 2}]}, {"bar": 25, "events": [{"step": 0, "note": 82, "vel": 110, "len": 1}, {"step": 1, "note": 79, "vel": 100, "len": 1}, {"step": 2, "note": 77, "vel": 95, "len": 1}, {"step": 4, "note": 74, "vel": 90, "len": 2}]}], "Trombone": [{"bar": 9, "events": [{"step": 0, "note": 58, "vel": 70, "len": 4}, {"step": 4, "note": 57, "vel": 75, "len": 4}]}, {"bar": 10, "events": [{"step": 0, "note": 55, "vel": 70, "len": 4}, {"step": 4, "note": 53, "vel": 75, "len": 4}]}, {"bar": 17, "events": [{"step": 0, "note": 60, "vel": 80, "len": 2}, {"step": 2, "note": 62, "vel": 80, "len": 2}, {"step": 6, "note": 58, "vel": 75, "len": 2}]}, {"bar": 25, "events": [{"step": 1, "note": 65, "vel": 90, "len": 1}, {"step": 3, "note": 65, "vel": 85, "len": 1}, {"step": 5, "note": 65, "vel": 80, "len": 1}]}], "Piano": [{"bar": 1, "events": [{"step": 2, "note": 58, "vel": 80, "len": 1}, {"step": 2, "note": 62, "vel": 80, "len": 1}, {"step": 2, "note": 65, "vel": 80, "len": 1}, {"step": 5, "note": 58, "vel": 70, "len": 1}, {"step": 5, "note": 62, "vel": 70, "len": 1}]}, {"bar": 2, "events": [{"step": 1, "note": 55, "vel": 80, "len": 1}, {"step": 1, "note": 59, "vel": 80, "len": 1}, {"step": 1, "note": 65, "vel": 80, "len": 1}, {"step": 6, "note": 55, "vel": 75, "len": 1}]}, {"bar": 5, "events": [{"step": 2, "note": 58, "vel": 85, "len": 1}, {"step": 2, "note": 62, "vel": 85, "len": 1}, {"step": 5, "note": 58, "vel": 75, "len": 1}]}, {"bar": 9, "events": [{"step": 1, "note": 62, "vel": 90, "len": 1}, {"step": 1, "note": 65, "vel": 90, "len": 1}, {"step": 1, "note": 69, "vel": 90, "len": 1}, {"step": 4, "note": 60, "vel": 85, "len": 1}, {"step": 4, "note": 64, "vel": 85, "len": 1}]}], "Bass": [{"bar": 1, "events": [{"step": 0, "note": 34, "vel": 90, "len": 1}, {"step": 2, "note": 38, "vel": 85, "len": 1}, {"step": 4, "note": 41, "vel": 88, "len": 1}, {"step": 6, "note": 43, "vel": 85, "len": 1}]}, {"bar": 2, "events": [{"step": 0, "note": 31, "vel": 90, "len": 1}, {"step": 2, "note": 35, "vel": 85, "len": 1}, {"step": 4, "note": 38, "vel": 88, "len": 1}, {"step": 6, "note": 40, "vel": 85, "len": 1}]}, {"bar": 3, "events": [{"step": 0, "note": 36, "vel": 90, "len": 1}, {"step": 2, "note": 39, "vel": 85, "len": 1}, {"step": 4, "note": 43, "vel": 88, "len": 1}, {"step": 6, "note": 45, "vel": 85, "len": 1}]}, {"bar": 4, "events": [{"step": 0, "note": 29, "vel": 90, "len": 1}, {"step": 2, "note": 33, "vel": 85, "len": 1}, {"step": 4, "note": 36, "vel": 88, "len": 1}, {"step": 6, "note": 41, "vel": 85, "len": 1}]}, {"bar": 9, "events": [{"step": 0, "note": 34, "vel": 95, "len": 1}, {"step": 2, "note": 38, "vel": 90, "len": 1}, {"step": 4, "note": 41, "vel": 92, "len": 1}, {"step": 6, "note": 34, "vel": 90, "len": 1}]}, {"bar": 17, "events": [{"step": 0, "note": 38, "vel": 95, "len": 1}, {"step": 2, "note": 42, "vel": 90, "len": 1}, {"step": 4, "note": 45, "vel": 92, "len": 1}, {"step": 6, "note": 47, "vel": 90, "len": 1}]}, {"bar": 32, "events": [{"step": 0, "note": 34, "vel": 80, "len": 4}]}], "Kick": [{"bar": 1, "events": [{"step": 0, "note": 36, "vel": 80, "len": 1}, {"step": 5, "note": 36, "vel": 70, "len": 1}]}, {"bar": 2, "events": [{"step": 0, "note": 36, "vel": 75, "len": 1}, {"step": 4, "note": 36, "vel": 70, "len": 1}, {"step": 7, "note": 36, "vel": 65, "len": 1}]}, {"bar": 5, "events": [{"step": 0, "note": 36, "vel": 80, "len": 1}, {"step": 2, "note": 36, "vel": 75, "len": 1}, {"step": 5, "note": 36, "vel": 70, "len": 1}]}, {"bar": 9, "events": [{"step": 0, "note": 36, "vel": 85, "len": 1}, {"step": 3, "note": 36, "vel": 75, "len": 1}, {"step": 5, "note": 36, "vel": 80, "len": 1}]}, {"bar": 17, "events": [{"step": 0, "note": 36, "vel": 90, "len": 1}, {"step": 2, "note": 36, "vel": 80, "len": 1}, {"step": 4, "note": 36, "vel": 85, "len": 1}, {"step": 6, "note": 36, "vel": 80, "len": 1}]}, {"bar": 25, "events": [{"step": 0, "note": 36, "vel": 100, "len": 1}, {"step": 1, "note": 36, "vel": 80, "len": 1}, {"step": 4, "note": 36, "vel": 90, "len": 1}]}], "Snare": [{"bar": 1, "events": [{"step": 2, "note": 38, "vel": 40, "len": 1}, {"step": 4, "note": 38, "vel": 50, "len": 1}, {"step": 7, "note": 38, "vel": 60, "len": 1}]}, {"bar": 3, "events": [{"step": 1, "note": 38, "vel": 55, "len": 1}, {"step": 3, "note": 38, "vel": 45, "len": 1}, {"step": 6, "note": 38, "vel": 70, "len": 1}]}, {"bar": 9, "events": [{"step": 2, "note": 38, "vel": 60, "len": 1}, {"step": 5, "note": 38, "vel": 80, "len": 1}, {"step": 7, "note": 38, "vel": 50, "len": 1}]}, {"bar": 17, "events": [{"step": 1, "note": 38, "vel": 70, "len": 1}, {"step": 4, "note": 38, "vel": 85, "len": 1}, {"step": 6, "note": 38, "vel": 60, "len": 1}]}, {"bar": 25, "events": [{"step": 0, "note": 38, "vel": 90, "len": 1}, {"step": 2, "note": 38, "vel": 85, "len": 1}, {"step": 4, "note": 38, "vel": 95, "len": 1}, {"step": 6, "note": 38, "vel": 90, "len": 1}]}], "Hat": [{"bar": 1, "events": [{"step": 2, "note": 44, "vel": 80, "len": 1}, {"step": 6, "note": 44, "vel": 80, "len": 1}]}, {"bar": 2, "events": [{"step": 2, "note": 44, "vel": 80, "len": 1}, {"step": 6, "note": 44, "vel": 80, "len": 1}]}, {"bar": 3, "events": [{"step": 2, "note": 44, "vel": 80, "len": 1}, {"step": 6, "note": 44, "vel": 80, "len": 1}]}, {"bar": 4, "events": [{"step": 2, "note": 44, "vel": 80, "len": 1}, {"step": 6, "note": 44, "vel": 80, "len": 1}]}, {"bar": 9, "events": [{"step": 2, "note": 44, "vel": 85, "len": 1}, {"step": 6, "note": 44, "vel": 85, "len": 1}]}, {"bar": 17, "events": [{"step": 2, "note": 44, "vel": 90, "len": 1}, {"step": 6, "note": 44, "vel": 90, "len": 1}]}, {"bar": 25, "events": [{"step": 2, "note": 46, "vel": 100, "len": 1}, {"step": 6, "note": 46, "vel": 100, "len": 1}]}], "Ride": [{"bar": 1, "events": [{"step": 0, "note": 51, "vel": 85, "len": 1}, {"step": 2, "note": 51, "vel": 90, "len": 1}, {"step": 3, "note": 51, "vel": 70, "len": 1}, {"step": 4, "note": 51, "vel": 85, "len": 1}, {"step": 6, "note": 51, "vel": 90, "len": 1}, {"step": 7, "note": 51, "vel": 70, "len": 1}]}, {"bar": 2, "events": [{"step": 0, "note": 51, "vel": 85, "len": 1}, {"step": 2, "note": 51, "vel": 90, "len": 1}, {"step": 3, "note": 51, "vel": 70, "len": 1}, {"step": 4, "note": 51, "vel": 85, "len": 1}, {"step": 6, "note": 51, "vel": 90, "len": 1}, {"step": 7, "note": 51, "vel": 70, "len": 1}]}, {"bar": 9, "events": [{"step": 0, "note": 51, "vel": 90, "len": 1}, {"step": 2, "note": 51, "vel": 95, "len": 1}, {"step": 3, "note": 51, "vel": 75, "len": 1}, {"step": 4, "note": 51, "vel": 90, "len": 1}, {"step": 6, "note": 51, "vel": 95, "len": 1}, {"step": 7, "note": 51, "vel": 75, "len": 1}]}, {"bar": 17, "events": [{"step": 0, "note": 51, "vel": 95, "len": 1}, {"step": 2, "note": 51, "vel": 100, "len": 1}, {"step": 3, "note": 51, "vel": 80, "len": 1}, {"step": 4, "note": 51, "vel": 95, "len": 1}, {"step": 6, "note": 51, "vel": 100, "len": 1}, {"step": 7, "note": 51, "vel": 80, "len": 1}]}, {"bar": 25, "events": [{"step": 0, "note": 51, "vel": 100, "len": 1}, {"step": 2, "note": 51, "vel": 105, "len": 1}, {"step": 3, "note": 51, "vel": 85, "len": 1}, {"step": 4, "note": 51, "vel": 100, "len": 1}, {"step": 6, "note": 51, "vel": 105, "len": 1}, {"step": 7, "note": 51, "vel": 85, "len": 1}]}]}, "meta": {"style": "Jazz", "mood": "Vivid, Energetic, Bright", "tempo": 132, "key": "Bb", "scale": "Mixolydian", "meter": "4/4", "bars": 32, "length_seconds": 58.18, "dynamic_profile": "Evolving, Punchy", "arrangement_density": "Medium-High", "harmonic_color": "Extended Jazz Harmony", "instrument_configs": [{"name": "Sax", "register": "High", "role": "Lead", "articulation": "Legato/Staccato", "dynamic_range": "Expressive"}, {"name": "Trombone", "register": "Mid-Low", "role": "Counter-Melody", "articulation": "Swells/Stabs", "dynamic_range": "Moderate"}, {"name": "Piano", "register": "Mid", "role": "Harmonic Support", "articulation": "Staccato/Chordal", "dynamic_range": "Moderate-Intense"}, {"name": "Bass", "register": "Low", "role": "Bass", "articulation": "Pizzicato", "dynamic_range": "Consistent"}, {"name": "Kick", "register": "Low", "role": "Percussion", "articulation": "Percussive", "dynamic_range": "Soft-Moderate"}, {"name": "Snare", "register": "Mid", "role": "Percussion", "articulation": "Percussive", "dynamic_range": "Dynamic"}, {"name": "Hat", "register": "High", "role": "Percussion", "articulation": "Percussive", "dynamic_range": "Crisp"}, {"name": "Ride", "register": "High", "role": "Percussion", "articulation": "Sustain", "dynamic_range": "Shimmering"}], "instruments": ["Sax", "Trombone", "Piano", "Bass", "Kick", "Snare", "Hat", "Ride"]}}, "midi_per_instrument": null, "tracks": [{"instrument": "Sax", "enabled": true, "volume_db": 0.0, "pan": 0.0}, {"instrument": "Trombone", "enabled": true, "volume_db": -3.0, "pan": 0.0}, {"instrument": "Piano", "enabled": true, "volume_db": -3.0, "pan": 0.0}, {"instrument": "Bass", "enabled": true, "volume_db": -3.0, "pan": 0.0}, {"instrument": "Kick", "enabled": true, "volume_db": -3.0, "pan": 0.0}, {"instrument": "Snare", "enabled": true, "volume_db": -3.0, "pan": 0.0}, {"instrument": "Hat", "enabled": true, "volume_db": -3.0, "pan": 0.0}, {"instrument": "Ride", "enabled": true, "volume_db": -3.0, "pan": 0.0}], "selected_samples": {"Sax": "Instruments/Orchestral/Tenor Sax/15_TSAX_LONG A#2ogg.wav", "Piano": "Instruments/Piano/Piano 1/CHANGPIANOHARD_D4OGG.WAV", "Kick": "Drums/Kits/Drum Kit 01/FLS_Kick 01.wav", "Ride": "Drums/Dance/DNC_Ride.wav", "Hat": "Drums/RealDrumkits/RD_Hat_1.wav", "Snare": "Drums/Kits/Drum Kit 07/FLS_Snare 07a.wav", "Bass": "Instruments/Bass/BASS_EfEm_C2.wav", "Trombone": "Instruments/Orchestral/Trombone/24 TRO MLON C#3ogg.wav"}, "fadeout_seconds": 0.01}, "response": {"project_name": "vivid jazz 2", "run_id": "7223a27b584f", "mix_wav_rel": "output\\7223a27b584f\\vivid jazz 2_mix_1764953417.wav", "stems": [{"instrument": "Sax", "audio_rel": "output\\7223a27b584f\\vivid jazz 2_Sax_1764953417.wav"}, {"instrument": "Trombone", "audio_rel": "output\\7223a27b584f\\vivid jazz 2_Trombone_1764953417.wav"}, {"instrument": "Piano", "audio_rel": "output\\7223a27b584f\\vivid jazz 2_Piano_1764953417.wav"}, {"instrument": "Bass", "audio_rel": "output\\7223a27b584f\\vivid jazz 2_Bass_1764953417.wav"}, {"instrument": "Kick", "audio_rel": "output\\7223a27b584f\\vivid jazz 2_Kick_1764953417.wav"}, {"instrument": "Snare", "audio_rel": "output\\7223a27b584f\\vivid jazz 2_Snare_1764953417.wav"}, {"instrument": "Hat", "audio_rel": "output\\7223a27b584f\\vivid jazz 2_Hat_1764953417.wav"}, {"instrument": "Ride", "audio_rel": "output\\7223a27b584f\\vivid jazz 2_Ride_1764953417.wav"}], "sample_rate": 44100, "duration_seconds": 58.18}}