{"Electric Guitar": {"meta": {"status": "success", "tempo": 130, "key": "E", "scale": "Minor", "style": "Modern Rock", "mood": "Energetic", "meter": "4/4", "dynamic_profile": "High-Energy/Sustain", "arrangement_density": "High", "harmonic_color": "Distorted", "length_seconds": 30.0, "bars": 8, "instrument_configs": [{"name": "Electric Guitar", "register": "High", "role": "Lead", "articulation": "Legato", "dynamic_range": "Intense"}, {"name": "Bass Guitar", "register": "Low", "role": "Bass", "articulation": "Percussive", "dynamic_range": "Intense"}, {"name": "Kick", "register": "Low", "role": "Percussion", "articulation": "Percussive", "dynamic_range": "Fortissimo"}, {"name": "Snare", "register": "Mid", "role": "Percussion", "articulation": "Percussive", "dynamic_range": "Fortissimo"}, {"name": "Crash", "register": "High", "role": "Percussion", "articulation": "Percussive", "dynamic_range": "Fortissimo"}, {"name": "Hat", "register": "High", "role": "Percussion", "articulation": "Percussive", "dynamic_range": "Intense"}], "instruments": ["Electric Guitar", "Bass Guitar", "Kick", "Snare", "Crash", "Hat"], "instrument": "Electric Guitar"}, "layers": {"Electric Guitar": [{"bar": 0, "events": [{"step": 0, "note": 64, "vel": 120, "len": 1}, {"step": 0, "note": 71, "vel": 120, "len": 1}, {"step": 1, "note": 64, "vel": 110, "len": 1}, {"step": 1, "note": 71, "vel": 110, "len": 1}, {"step": 2, "note": 64, "vel": 120, "len": 1}, {"step": 2, "note": 71, "vel": 120, "len": 1}, {"step": 3, "note": 64, "vel": 110, "len": 1}, {"step": 3, "note": 71, "vel": 110, "len": 1}, {"step": 4, "note": 62, "vel": 120, "len": 1}, {"step": 4, "note": 69, "vel": 120, "len": 1}, {"step": 5, "note": 62, "vel": 110, "len": 1}, {"step": 5, "note": 69, "vel": 110, "len": 1}, {"step": 6, "note": 62, "vel": 120, "len": 1}, {"step": 6, "note": 69, "vel": 120, "len": 1}, {"step": 7, "note": 62, "vel": 110, "len": 1}, {"step": 7, "note": 69, "vel": 110, "len": 1}]}, {"bar": 1, "events": [{"step": 0, "note": 60, "vel": 120, "len": 1}, {"step": 0, "note": 67, "vel": 120, "len": 1}, {"step": 1, "note": 60, "vel": 110, "len": 1}, {"step": 1, "note": 67, "vel": 110, "len": 1}, {"step": 2, "note": 60, "vel": 120, "len": 1}, {"step": 2, "note": 67, "vel": 120, "len": 1}, {"step": 3, "note": 60, "vel": 110, "len": 1}, {"step": 3, "note": 67, "vel": 110, "len": 1}, {"step": 4, "note": 67, "vel": 120, "len": 1}, {"step": 4, "note": 74, "vel": 120, "len": 1}, {"step": 5, "note": 67, "vel": 110, "len": 1}, {"step": 5, "note": 74, "vel": 110, "len": 1}, {"step": 6, "note": 67, "vel": 120, "len": 1}, {"step": 6, "note": 74, "vel": 120, "len": 1}, {"step": 7, "note": 67, "vel": 110, "len": 1}, {"step": 7, "note": 74, "vel": 110, "len": 1}]}, {"bar": 2, "events": [{"step": 0, "note": 64, "vel": 120, "len": 1}, {"step": 0, "note": 71, "vel": 120, "len": 1}, {"step": 1, "note": 64, "vel": 110, "len": 1}, {"step": 1, "note": 71, "vel": 110, "len": 1}, {"step": 2, "note": 64, "vel": 120, "len": 1}, {"step": 2, "note": 71, "vel": 120, "len": 1}, {"step": 3, "note": 64, "vel": 110, "len": 1}, {"step": 3, "note": 71, "vel": 110, "len": 1}, {"step": 4, "note": 62, "vel": 120, "len": 1}, {"step": 4, "note": 69, "vel": 120, "len": 1}, {"step": 5, "note": 62, "vel": 110, "len": 1}, {"step": 5, "note": 69, "vel": 110, "len": 1}, {"step": 6, "note": 62, "vel": 120, "len": 1}, {"step": 6, "note": 69, "vel": 120, "len": 1}, {"step": 7, "note": 62, "vel": 110, "len": 1}, {"step": 7, "note": 69, "vel": 110, "len": 1}]}, {"bar": 3, "events": [{"step": 0, "note": 60, "vel": 120, "len": 1}, {"step": 0, "note": 67, "vel": 120, "len": 1}, {"step": 1, "note": 60, "vel": 110, "len": 1}, {"step": 1, "note": 67, "vel": 110, "len": 1}, {"step": 2, "note": 60, "vel": 120, "len": 1}, {"step": 2, "note": 67, "vel": 120, "len": 1}, {"step": 3, "note": 60, "vel": 110, "len": 1}, {"step": 3, "note": 67, "vel": 110, "len": 1}, {"step": 4, "note": 67, "vel": 120, "len": 1}, {"step": 4, "note": 74, "vel": 120, "len": 1}, {"step": 5, "note": 67, "vel": 110, "len": 1}, {"step": 5, "note": 74, "vel": 110, "len": 1}, {"step": 6, "note": 67, "vel": 120, "len": 1}, {"step": 6, "note": 74, "vel": 120, "len": 1}, {"step": 7, "note": 67, "vel": 110, "len": 1}, {"step": 7, "note": 74, "vel": 110, "len": 1}]}, {"bar": 4, "events": [{"step": 0, "note": 64, "vel": 120, "len": 1}, {"step": 0, "note": 71, "vel": 120, "len": 1}, {"step": 1, "note": 64, "vel": 110, "len": 1}, {"step": 1, "note": 71, "vel": 110, "len": 1}, {"step": 2, "note": 64, "vel": 120, "len": 1}, {"step": 2, "note": 71, "vel": 120, "len": 1}, {"step": 3, "note": 64, "vel": 110, "len": 1}, {"step": 3, "note": 71, "vel": 110, "len": 1}, {"step": 4, "note": 62, "vel": 120, "len": 1}, {"step": 4, "note": 69, "vel": 120, "len": 1}, {"step": 5, "note": 62, "vel": 110, "len": 1}, {"step": 5, "note": 69, "vel": 110, "len": 1}, {"step": 6, "note": 62, "vel": 120, "len": 1}, {"step": 6, "note": 69, "vel": 120, "len": 1}, {"step": 7, "note": 62, "vel": 110, "len": 1}, {"step": 7, "note": 69, "vel": 110, "len": 1}]}, {"bar": 5, "events": [{"step": 0, "note": 60, "vel": 120, "len": 1}, {"step": 0, "note": 67, "vel": 120, "len": 1}, {"step": 1, "note": 60, "vel": 110, "len": 1}, {"step": 1, "note": 67, "vel": 110, "len": 1}, {"step": 2, "note": 60, "vel": 120, "len": 1}, {"step": 2, "note": 67, "vel": 120, "len": 1}, {"step": 3, "note": 60, "vel": 110, "len": 1}, {"step": 3, "note": 67, "vel": 110, "len": 1}, {"step": 4, "note": 67, "vel": 120, "len": 1}, {"step": 4, "note": 74, "vel": 120, "len": 1}, {"step": 5, "note": 67, "vel": 110, "len": 1}, {"step": 5, "note": 74, "vel": 110, "len": 1}, {"step": 6, "note": 67, "vel": 120, "len": 1}, {"step": 6, "note": 74, "vel": 120, "len": 1}, {"step": 7, "note": 67, "vel": 110, "len": 1}, {"step": 7, "note": 74, "vel": 110, "len": 1}]}, {"bar": 6, "events": [{"step": 0, "note": 64, "vel": 120, "len": 1}, {"step": 0, "note": 71, "vel": 120, "len": 1}, {"step": 1, "note": 64, "vel": 110, "len": 1}, {"step": 1, "note": 71, "vel": 110, "len": 1}, {"step": 2, "note": 64, "vel": 120, "len": 1}, {"step": 2, "note": 71, "vel": 120, "len": 1}, {"step": 3, "note": 64, "vel": 110, "len": 1}, {"step": 3, "note": 71, "vel": 110, "len": 1}, {"step": 4, "note": 62, "vel": 120, "len": 1}, {"step": 4, "note": 69, "vel": 120, "len": 1}, {"step": 5, "note": 62, "vel": 110, "len": 1}, {"step": 5, "note": 69, "vel": 110, "len": 1}, {"step": 6, "note": 62, "vel": 120, "len": 1}, {"step": 6, "note": 69, "vel": 120, "len": 1}, {"step": 7, "note": 62, "vel": 110, "len": 1}, {"step": 7, "note": 69, "vel": 110, "len": 1}, {"step": 0, "note": 76, "vel": 120, "len": 1}, {"step": 1, "note": 79, "vel": 110, "len": 1}, {"step": 2, "note": 83, "vel": 120, "len": 1}, {"step": 3, "note": 79, "vel": 110, "len": 1}, {"step": 4, "note": 81, "vel": 120, "len": 1}, {"step": 5, "note": 79, "vel": 110, "len": 1}, {"step": 6, "note": 86, "vel": 120, "len": 1}, {"step": 7, "note": 84, "vel": 110, "len": 1}]}, {"bar": 7, "events": [{"step": 0, "note": 60, "vel": 120, "len": 1}, {"step": 0, "note": 67, "vel": 120, "len": 1}, {"step": 1, "note": 60, "vel": 110, "len": 1}, {"step": 1, "note": 67, "vel": 110, "len": 1}, {"step": 2, "note": 60, "vel": 120, "len": 1}, {"step": 2, "note": 67, "vel": 120, "len": 1}, {"step": 3, "note": 60, "vel": 110, "len": 1}, {"step": 3, "note": 67, "vel": 110, "len": 1}, {"step": 4, "note": 67, "vel": 120, "len": 1}, {"step": 4, "note": 74, "vel": 120, "len": 1}, {"step": 5, "note": 67, "vel": 110, "len": 1}, {"step": 5, "note": 74, "vel": 110, "len": 1}, {"step": 6, "note": 67, "vel": 120, "len": 1}, {"step": 6, "note": 74, "vel": 120, "len": 1}, {"step": 7, "note": 67, "vel": 110, "len": 1}, {"step": 7, "note": 74, "vel": 110, "len": 1}, {"step": 0, "note": 83, "vel": 120, "len": 1}, {"step": 1, "note": 81, "vel": 110, "len": 1}, {"step": 2, "note": 79, "vel": 120, "len": 1}, {"step": 3, "note": 78, "vel": 110, "len": 1}, {"step": 4, "note": 76, "vel": 120, "len": 2}, {"step": 6, "note": 74, "vel": 110, "len": 2}]}]}, "pattern": [{"bar": 0, "events": [{"step": 0, "note": 64, "vel": 120, "len": 1}, {"step": 0, "note": 71, "vel": 120, "len": 1}, {"step": 1, "note": 64, "vel": 110, "len": 1}, {"step": 1, "note": 71, "vel": 110, "len": 1}, {"step": 2, "note": 64, "vel": 120, "len": 1}, {"step": 2, "note": 71, "vel": 120, "len": 1}, {"step": 3, "note": 64, "vel": 110, "len": 1}, {"step": 3, "note": 71, "vel": 110, "len": 1}, {"step": 4, "note": 62, "vel": 120, "len": 1}, {"step": 4, "note": 69, "vel": 120, "len": 1}, {"step": 5, "note": 62, "vel": 110, "len": 1}, {"step": 5, "note": 69, "vel": 110, "len": 1}, {"step": 6, "note": 62, "vel": 120, "len": 1}, {"step": 6, "note": 69, "vel": 120, "len": 1}, {"step": 7, "note": 62, "vel": 110, "len": 1}, {"step": 7, "note": 69, "vel": 110, "len": 1}]}, {"bar": 1, "events": [{"step": 0, "note": 60, "vel": 120, "len": 1}, {"step": 0, "note": 67, "vel": 120, "len": 1}, {"step": 1, "note": 60, "vel": 110, "len": 1}, {"step": 1, "note": 67, "vel": 110, "len": 1}, {"step": 2, "note": 60, "vel": 120, "len": 1}, {"step": 2, "note": 67, "vel": 120, "len": 1}, {"step": 3, "note": 60, "vel": 110, "len": 1}, {"step": 3, "note": 67, "vel": 110, "len": 1}, {"step": 4, "note": 67, "vel": 120, "len": 1}, {"step": 4, "note": 74, "vel": 120, "len": 1}, {"step": 5, "note": 67, "vel": 110, "len": 1}, {"step": 5, "note": 74, "vel": 110, "len": 1}, {"step": 6, "note": 67, "vel": 120, "len": 1}, {"step": 6, "note": 74, "vel": 120, "len": 1}, {"step": 7, "note": 67, "vel": 110, "len": 1}, {"step": 7, "note": 74, "vel": 110, "len": 1}]}, {"bar": 2, "events": [{"step": 0, "note": 64, "vel": 120, "len": 1}, {"step": 0, "note": 71, "vel": 120, "len": 1}, {"step": 1, "note": 64, "vel": 110, "len": 1}, {"step": 1, "note": 71, "vel": 110, "len": 1}, {"step": 2, "note": 64, "vel": 120, "len": 1}, {"step": 2, "note": 71, "vel": 120, "len": 1}, {"step": 3, "note": 64, "vel": 110, "len": 1}, {"step": 3, "note": 71, "vel": 110, "len": 1}, {"step": 4, "note": 62, "vel": 120, "len": 1}, {"step": 4, "note": 69, "vel": 120, "len": 1}, {"step": 5, "note": 62, "vel": 110, "len": 1}, {"step": 5, "note": 69, "vel": 110, "len": 1}, {"step": 6, "note": 62, "vel": 120, "len": 1}, {"step": 6, "note": 69, "vel": 120, "len": 1}, {"step": 7, "note": 62, "vel": 110, "len": 1}, {"step": 7, "note": 69, "vel": 110, "len": 1}]}, {"bar": 3, "events": [{"step": 0, "note": 60, "vel": 120, "len": 1}, {"step": 0, "note": 67, "vel": 120, "len": 1}, {"step": 1, "note": 60, "vel": 110, "len": 1}, {"step": 1, "note": 67, "vel": 110, "len": 1}, {"step": 2, "note": 60, "vel": 120, "len": 1}, {"step": 2, "note": 67, "vel": 120, "len": 1}, {"step": 3, "note": 60, "vel": 110, "len": 1}, {"step": 3, "note": 67, "vel": 110, "len": 1}, {"step": 4, "note": 67, "vel": 120, "len": 1}, {"step": 4, "note": 74, "vel": 120, "len": 1}, {"step": 5, "note": 67, "vel": 110, "len": 1}, {"step": 5, "note": 74, "vel": 110, "len": 1}, {"step": 6, "note": 67, "vel": 120, "len": 1}, {"step": 6, "note": 74, "vel": 120, "len": 1}, {"step": 7, "note": 67, "vel": 110, "len": 1}, {"step": 7, "note": 74, "vel": 110, "len": 1}]}, {"bar": 4, "events": [{"step": 0, "note": 64, "vel": 120, "len": 1}, {"step": 0, "note": 71, "vel": 120, "len": 1}, {"step": 1, "note": 64, "vel": 110, "len": 1}, {"step": 1, "note": 71, "vel": 110, "len": 1}, {"step": 2, "note": 64, "vel": 120, "len": 1}, {"step": 2, "note": 71, "vel": 120, "len": 1}, {"step": 3, "note": 64, "vel": 110, "len": 1}, {"step": 3, "note": 71, "vel": 110, "len": 1}, {"step": 4, "note": 62, "vel": 120, "len": 1}, {"step": 4, "note": 69, "vel": 120, "len": 1}, {"step": 5, "note": 62, "vel": 110, "len": 1}, {"step": 5, "note": 69, "vel": 110, "len": 1}, {"step": 6, "note": 62, "vel": 120, "len": 1}, {"step": 6, "note": 69, "vel": 120, "len": 1}, {"step": 7, "note": 62, "vel": 110, "len": 1}, {"step": 7, "note": 69, "vel": 110, "len": 1}]}, {"bar": 5, "events": [{"step": 0, "note": 60, "vel": 120, "len": 1}, {"step": 0, "note": 67, "vel": 120, "len": 1}, {"step": 1, "note": 60, "vel": 110, "len": 1}, {"step": 1, "note": 67, "vel": 110, "len": 1}, {"step": 2, "note": 60, "vel": 120, "len": 1}, {"step": 2, "note": 67, "vel": 120, "len": 1}, {"step": 3, "note": 60, "vel": 110, "len": 1}, {"step": 3, "note": 67, "vel": 110, "len": 1}, {"step": 4, "note": 67, "vel": 120, "len": 1}, {"step": 4, "note": 74, "vel": 120, "len": 1}, {"step": 5, "note": 67, "vel": 110, "len": 1}, {"step": 5, "note": 74, "vel": 110, "len": 1}, {"step": 6, "note": 67, "vel": 120, "len": 1}, {"step": 6, "note": 74, "vel": 120, "len": 1}, {"step": 7, "note": 67, "vel": 110, "len": 1}, {"step": 7, "note": 74, "vel": 110, "len": 1}]}, {"bar": 6, "events": [{"step": 0, "note": 64, "vel": 120, "len": 1}, {"step": 0, "note": 71, "vel": 120, "len": 1}, {"step": 1, "note": 64, "vel": 110, "len": 1}, {"step": 1, "note": 71, "vel": 110, "len": 1}, {"step": 2, "note": 64, "vel": 120, "len": 1}, {"step": 2, "note": 71, "vel": 120, "len": 1}, {"step": 3, "note": 64, "vel": 110, "len": 1}, {"step": 3, "note": 71, "vel": 110, "len": 1}, {"step": 4, "note": 62, "vel": 120, "len": 1}, {"step": 4, "note": 69, "vel": 120, "len": 1}, {"step": 5, "note": 62, "vel": 110, "len": 1}, {"step": 5, "note": 69, "vel": 110, "len": 1}, {"step": 6, "note": 62, "vel": 120, "len": 1}, {"step": 6, "note": 69, "vel": 120, "len": 1}, {"step": 7, "note": 62, "vel": 110, "len": 1}, {"step": 7, "note": 69, "vel": 110, "len": 1}, {"step": 0, "note": 76, "vel": 120, "len": 1}, {"step": 1, "note": 79, "vel": 110, "len": 1}, {"step": 2, "note": 83, "vel": 120, "len": 1}, {"step": 3, "note": 79, "vel": 110, "len": 1}, {"step": 4, "note": 81, "vel": 120, "len": 1}, {"step": 5, "note": 79, "vel": 110, "len": 1}, {"step": 6, "note": 86, "vel": 120, "len": 1}, {"step": 7, "note": 84, "vel": 110, "len": 1}]}, {"bar": 7, "events": [{"step": 0, "note": 60, "vel": 120, "len": 1}, {"step": 0, "note": 67, "vel": 120, "len": 1}, {"step": 1, "note": 60, "vel": 110, "len": 1}, {"step": 1, "note": 67, "vel": 110, "len": 1}, {"step": 2, "note": 60, "vel": 120, "len": 1}, {"step": 2, "note": 67, "vel": 120, "len": 1}, {"step": 3, "note": 60, "vel": 110, "len": 1}, {"step": 3, "note": 67, "vel": 110, "len": 1}, {"step": 4, "note": 67, "vel": 120, "len": 1}, {"step": 4, "note": 74, "vel": 120, "len": 1}, {"step": 5, "note": 67, "vel": 110, "len": 1}, {"step": 5, "note": 74, "vel": 110, "len": 1}, {"step": 6, "note": 67, "vel": 120, "len": 1}, {"step": 6, "note": 74, "vel": 120, "len": 1}, {"step": 7, "note": 67, "vel": 110, "len": 1}, {"step": 7, "note": 74, "vel": 110, "len": 1}, {"step": 0, "note": 83, "vel": 120, "len": 1}, {"step": 1, "note": 81, "vel": 110, "len": 1}, {"step": 2, "note": 79, "vel": 120, "len": 1}, {"step": 3, "note": 78, "vel": 110, "len": 1}, {"step": 4, "note": 76, "vel": 120, "len": 2}, {"step": 6, "note": 74, "vel": 110, "len": 2}]}]}, "Bass Guitar": {"meta": {"status": "success", "tempo": 130, "key": "E", "scale": "Minor", "style": "Modern Rock", "mood": "Energetic", "meter": "4/4", "dynamic_profile": "High-Energy/Sustain", "arrangement_density": "High", "harmonic_color": "Distorted", "length_seconds": 30.0, "bars": 8, "instrument_configs": [{"name": "Electric Guitar", "register": "High", "role": "Lead", "articulation": "Legato", "dynamic_range": "Intense"}, {"name": "Bass Guitar", "register": "Low", "role": "Bass", "articulation": "Percussive", "dynamic_range": "Intense"}, {"name": "Kick", "register": "Low", "role": "Percussion", "articulation": "Percussive", "dynamic_range": "Fortissimo"}, {"name": "Snare", "register": "Mid", "role": "Percussion", "articulation": "Percussive", "dynamic_range": "Fortissimo"}, {"name": "Crash", "register": "High", "role": "Percussion", "articulation": "Percussive", "dynamic_range": "Fortissimo"}, {"name": "Hat", "register": "High", "role": "Percussion", "articulation": "Percussive", "dynamic_range": "Intense"}], "instruments": ["Electric Guitar", "Bass Guitar", "Kick", "Snare", "Crash", "Hat"], "instrument": "Bass Guitar"}, "layers": {"Bass Guitar": [{"bar": 0, "events": [{"step": 0, "note": 40, "vel": 120, "len": 1}, {"step": 1, "note": 40, "vel": 110, "len": 1}, {"step": 2, "note": 40, "vel": 120, "len": 1}, {"step": 3, "note": 40, "vel": 110, "len": 1}, {"step": 4, "note": 38, "vel": 120, "len": 1}, {"step": 5, "note": 38, "vel": 110, "len": 1}, {"step": 6, "note": 38, "vel": 120, "len": 1}, {"step": 7, "note": 38, "vel": 110, "len": 1}]}, {"bar": 1, "events": [{"step": 0, "note": 36, "vel": 120, "len": 1}, {"step": 1, "note": 36, "vel": 110, "len": 1}, {"step": 2, "note": 36, "vel": 120, "len": 1}, {"step": 3, "note": 36, "vel": 110, "len": 1}, {"step": 4, "note": 43, "vel": 120, "len": 1}, {"step": 5, "note": 43, "vel": 110, "len": 1}, {"step": 6, "note": 43, "vel": 120, "len": 1}, {"step": 7, "note": 43, "vel": 110, "len": 1}]}, {"bar": 2, "events": [{"step": 0, "note": 40, "vel": 120, "len": 1}, {"step": 1, "note": 40, "vel": 110, "len": 1}, {"step": 2, "note": 40, "vel": 120, "len": 1}, {"step": 3, "note": 40, "vel": 110, "len": 1}, {"step": 4, "note": 38, "vel": 120, "len": 1}, {"step": 5, "note": 38, "vel": 110, "len": 1}, {"step": 6, "note": 38, "vel": 120, "len": 1}, {"step": 7, "note": 38, "vel": 110, "len": 1}]}, {"bar": 3, "events": [{"step": 0, "note": 36, "vel": 120, "len": 1}, {"step": 1, "note": 36, "vel": 110, "len": 1}, {"step": 2, "note": 36, "vel": 120, "len": 1}, {"step": 3, "note": 36, "vel": 110, "len": 1}, {"step": 4, "note": 43, "vel": 120, "len": 1}, {"step": 5, "note": 43, "vel": 110, "len": 1}, {"step": 6, "note": 43, "vel": 120, "len": 1}, {"step": 7, "note": 43, "vel": 110, "len": 1}]}, {"bar": 4, "events": [{"step": 0, "note": 40, "vel": 120, "len": 1}, {"step": 1, "note": 40, "vel": 110, "len": 1}, {"step": 2, "note": 40, "vel": 120, "len": 1}, {"step": 3, "note": 40, "vel": 110, "len": 1}, {"step": 4, "note": 38, "vel": 120, "len": 1}, {"step": 5, "note": 38, "vel": 110, "len": 1}, {"step": 6, "note": 38, "vel": 120, "len": 1}, {"step": 7, "note": 38, "vel": 110, "len": 1}]}, {"bar": 5, "events": [{"step": 0, "note": 36, "vel": 120, "len": 1}, {"step": 1, "note": 36, "vel": 110, "len": 1}, {"step": 2, "note": 36, "vel": 120, "len": 1}, {"step": 3, "note": 36, "vel": 110, "len": 1}, {"step": 4, "note": 43, "vel": 120, "len": 1}, {"step": 5, "note": 43, "vel": 110, "len": 1}, {"step": 6, "note": 43, "vel": 120, "len": 1}, {"step": 7, "note": 43, "vel": 110, "len": 1}]}, {"bar": 6, "events": [{"step": 0, "note": 40, "vel": 120, "len": 1}, {"step": 1, "note": 40, "vel": 110, "len": 1}, {"step": 2, "note": 40, "vel": 120, "len": 1}, {"step": 3, "note": 40, "vel": 110, "len": 1}, {"step": 4, "note": 38, "vel": 120, "len": 1}, {"step": 5, "note": 38, "vel": 110, "len": 1}, {"step": 6, "note": 38, "vel": 120, "len": 1}, {"step": 7, "note": 38, "vel": 110, "len": 1}]}, {"bar": 7, "events": [{"step": 0, "note": 36, "vel": 120, "len": 1}, {"step": 1, "note": 36, "vel": 110, "len": 1}, {"step": 2, "note": 36, "vel": 120, "len": 1}, {"step": 3, "note": 36, "vel": 110, "len": 1}, {"step": 4, "note": 43, "vel": 120, "len": 1}, {"step": 5, "note": 43, "vel": 110, "len": 1}, {"step": 6, "note": 43, "vel": 120, "len": 1}, {"step": 7, "note": 43, "vel": 110, "len": 1}]}]}, "pattern": [{"bar": 0, "events": [{"step": 0, "note": 40, "vel": 120, "len": 1}, {"step": 1, "note": 40, "vel": 110, "len": 1}, {"step": 2, "note": 40, "vel": 120, "len": 1}, {"step": 3, "note": 40, "vel": 110, "len": 1}, {"step": 4, "note": 38, "vel": 120, "len": 1}, {"step": 5, "note": 38, "vel": 110, "len": 1}, {"step": 6, "note": 38, "vel": 120, "len": 1}, {"step": 7, "note": 38, "vel": 110, "len": 1}]}, {"bar": 1, "events": [{"step": 0, "note": 36, "vel": 120, "len": 1}, {"step": 1, "note": 36, "vel": 110, "len": 1}, {"step": 2, "note": 36, "vel": 120, "len": 1}, {"step": 3, "note": 36, "vel": 110, "len": 1}, {"step": 4, "note": 43, "vel": 120, "len": 1}, {"step": 5, "note": 43, "vel": 110, "len": 1}, {"step": 6, "note": 43, "vel": 120, "len": 1}, {"step": 7, "note": 43, "vel": 110, "len": 1}]}, {"bar": 2, "events": [{"step": 0, "note": 40, "vel": 120, "len": 1}, {"step": 1, "note": 40, "vel": 110, "len": 1}, {"step": 2, "note": 40, "vel": 120, "len": 1}, {"step": 3, "note": 40, "vel": 110, "len": 1}, {"step": 4, "note": 38, "vel": 120, "len": 1}, {"step": 5, "note": 38, "vel": 110, "len": 1}, {"step": 6, "note": 38, "vel": 120, "len": 1}, {"step": 7, "note": 38, "vel": 110, "len": 1}]}, {"bar": 3, "events": [{"step": 0, "note": 36, "vel": 120, "len": 1}, {"step": 1, "note": 36, "vel": 110, "len": 1}, {"step": 2, "note": 36, "vel": 120, "len": 1}, {"step": 3, "note": 36, "vel": 110, "len": 1}, {"step": 4, "note": 43, "vel": 120, "len": 1}, {"step": 5, "note": 43, "vel": 110, "len": 1}, {"step": 6, "note": 43, "vel": 120, "len": 1}, {"step": 7, "note": 43, "vel": 110, "len": 1}]}, {"bar": 4, "events": [{"step": 0, "note": 40, "vel": 120, "len": 1}, {"step": 1, "note": 40, "vel": 110, "len": 1}, {"step": 2, "note": 40, "vel": 120, "len": 1}, {"step": 3, "note": 40, "vel": 110, "len": 1}, {"step": 4, "note": 38, "vel": 120, "len": 1}, {"step": 5, "note": 38, "vel": 110, "len": 1}, {"step": 6, "note": 38, "vel": 120, "len": 1}, {"step": 7, "note": 38, "vel": 110, "len": 1}]}, {"bar": 5, "events": [{"step": 0, "note": 36, "vel": 120, "len": 1}, {"step": 1, "note": 36, "vel": 110, "len": 1}, {"step": 2, "note": 36, "vel": 120, "len": 1}, {"step": 3, "note": 36, "vel": 110, "len": 1}, {"step": 4, "note": 43, "vel": 120, "len": 1}, {"step": 5, "note": 43, "vel": 110, "len": 1}, {"step": 6, "note": 43, "vel": 120, "len": 1}, {"step": 7, "note": 43, "vel": 110, "len": 1}]}, {"bar": 6, "events": [{"step": 0, "note": 40, "vel": 120, "len": 1}, {"step": 1, "note": 40, "vel": 110, "len": 1}, {"step": 2, "note": 40, "vel": 120, "len": 1}, {"step": 3, "note": 40, "vel": 110, "len": 1}, {"step": 4, "note": 38, "vel": 120, "len": 1}, {"step": 5, "note": 38, "vel": 110, "len": 1}, {"step": 6, "note": 38, "vel": 120, "len": 1}, {"step": 7, "note": 38, "vel": 110, "len": 1}]}, {"bar": 7, "events": [{"step": 0, "note": 36, "vel": 120, "len": 1}, {"step": 1, "note": 36, "vel": 110, "len": 1}, {"step": 2, "note": 36, "vel": 120, "len": 1}, {"step": 3, "note": 36, "vel": 110, "len": 1}, {"step": 4, "note": 43, "vel": 120, "len": 1}, {"step": 5, "note": 43, "vel": 110, "len": 1}, {"step": 6, "note": 43, "vel": 120, "len": 1}, {"step": 7, "note": 43, "vel": 110, "len": 1}]}]}, "Kick": {"meta": {"status": "success", "tempo": 130, "key": "E", "scale": "Minor", "style": "Modern Rock", "mood": "Energetic", "meter": "4/4", "dynamic_profile": "High-Energy/Sustain", "arrangement_density": "High", "harmonic_color": "Distorted", "length_seconds": 30.0, "bars": 8, "instrument_configs": [{"name": "Electric Guitar", "register": "High", "role": "Lead", "articulation": "Legato", "dynamic_range": "Intense"}, {"name": "Bass Guitar", "register": "Low", "role": "Bass", "articulation": "Percussive", "dynamic_range": "Intense"}, {"name": "Kick", "register": "Low", "role": "Percussion", "articulation": "Percussive", "dynamic_range": "Fortissimo"}, {"name": "Snare", "register": "Mid", "role": "Percussion", "articulation": "Percussive", "dynamic_range": "Fortissimo"}, {"name": "Crash", "register": "High", "role": "Percussion", "articulation": "Percussive", "dynamic_range": "Fortissimo"}, {"name": "Hat", "register": "High", "role": "Percussion", "articulation": "Percussive", "dynamic_range": "Intense"}], "instruments": ["Electric Guitar", "Bass Guitar", "Kick", "Snare", "Crash", "Hat"], "instrument": "Kick"}, "layers": {}, "pattern": [{"bar": 1, "events": [{"step": 0, "note": 36, "vel": 120, "len": 1}, {"step": 3, "note": 36, "vel": 100, "len": 1}, {"step": 4, "note": 36, "vel": 110, "len": 1}, {"step": 6, "note": 36, "vel": 90, "len": 1}]}, {"bar": 2, "events": [{"step": 0, "note": 36, "vel": 120, "len": 1}, {"step": 3, "note": 36, "vel": 100, "len": 1}, {"step": 4, "note": 36, "vel": 110, "len": 1}, {"step": 6, "note": 36, "vel": 90, "len": 1}]}, {"bar": 3, "events": [{"step": 0, "note": 36, "vel": 120, "len": 1}, {"step": 3, "note": 36, "vel": 100, "len": 1}, {"step": 4, "note": 36, "vel": 110, "len": 1}, {"step": 6, "note": 36, "vel": 90, "len": 1}]}, {"bar": 4, "events": [{"step": 0, "note": 36, "vel": 120, "len": 1}, {"step": 3, "note": 36, "vel": 100, "len": 1}, {"step": 4, "note": 36, "vel": 110, "len": 1}, {"step": 6, "note": 36, "vel": 90, "len": 1}]}, {"bar": 5, "events": [{"step": 0, "note": 36, "vel": 120, "len": 1}, {"step": 3, "note": 36, "vel": 100, "len": 1}, {"step": 4, "note": 36, "vel": 110, "len": 1}, {"step": 6, "note": 36, "vel": 90, "len": 1}]}, {"bar": 6, "events": [{"step": 0, "note": 36, "vel": 120, "len": 1}, {"step": 3, "note": 36, "vel": 100, "len": 1}, {"step": 4, "note": 36, "vel": 110, "len": 1}, {"step": 6, "note": 36, "vel": 90, "len": 1}]}, {"bar": 7, "events": [{"step": 0, "note": 36, "vel": 120, "len": 1}, {"step": 3, "note": 36, "vel": 100, "len": 1}, {"step": 4, "note": 36, "vel": 110, "len": 1}, {"step": 6, "note": 36, "vel": 90, "len": 1}]}, {"bar": 8, "events": []}]}, "Snare": {"meta": {"status": "success", "tempo": 130, "key": "E", "scale": "Minor", "style": "Modern Rock", "mood": "Energetic", "meter": "4/4", "dynamic_profile": "High-Energy/Sustain", "arrangement_density": "High", "harmonic_color": "Distorted", "length_seconds": 30.0, "bars": 8, "instrument_configs": [{"name": "Electric Guitar", "register": "High", "role": "Lead", "articulation": "Legato", "dynamic_range": "Intense"}, {"name": "Bass Guitar", "register": "Low", "role": "Bass", "articulation": "Percussive", "dynamic_range": "Intense"}, {"name": "Kick", "register": "Low", "role": "Percussion", "articulation": "Percussive", "dynamic_range": "Fortissimo"}, {"name": "Snare", "register": "Mid", "role": "Percussion", "articulation": "Percussive", "dynamic_range": "Fortissimo"}, {"name": "Crash", "register": "High", "role": "Percussion", "articulation": "Percussive", "dynamic_range": "Fortissimo"}, {"name": "Hat", "register": "High", "role": "Percussion", "articulation": "Percussive", "dynamic_range": "Intense"}], "instruments": ["Electric Guitar", "Bass Guitar", "Kick", "Snare", "Crash", "Hat"], "instrument": "Snare"}, "layers": {}, "pattern": [{"bar": 1, "events": [{"step": 2, "note": 38, "vel": 127, "len": 1}, {"step": 6, "note": 38, "vel": 127, "len": 1}]}, {"bar": 2, "events": [{"step": 2, "note": 38, "vel": 127, "len": 1}, {"step": 6, "note": 38, "vel": 127, "len": 1}]}, {"bar": 3, "events": [{"step": 2, "note": 38, "vel": 127, "len": 1}, {"step": 6, "note": 38, "vel": 127, "len": 1}]}, {"bar": 4, "events": [{"step": 2, "note": 38, "vel": 127, "len": 1}, {"step": 6, "note": 38, "vel": 127, "len": 1}]}, {"bar": 5, "events": [{"step": 2, "note": 38, "vel": 127, "len": 1}, {"step": 6, "note": 38, "vel": 127, "len": 1}]}, {"bar": 6, "events": [{"step": 2, "note": 38, "vel": 127, "len": 1}, {"step": 6, "note": 38, "vel": 127, "len": 1}]}, {"bar": 7, "events": [{"step": 2, "note": 38, "vel": 127, "len": 1}, {"step": 6, "note": 38, "vel": 127, "len": 1}]}, {"bar": 8, "events": []}]}, "Crash": {"meta": {"status": "success", "tempo": 130, "key": "E", "scale": "Minor", "style": "Modern Rock", "mood": "Energetic", "meter": "4/4", "dynamic_profile": "High-Energy/Sustain", "arrangement_density": "High", "harmonic_color": "Distorted", "length_seconds": 30.0, "bars": 8, "instrument_configs": [{"name": "Electric Guitar", "register": "High", "role": "Lead", "articulation": "Legato", "dynamic_range": "Intense"}, {"name": "Bass Guitar", "register": "Low", "role": "Bass", "articulation": "Percussive", "dynamic_range": "Intense"}, {"name": "Kick", "register": "Low", "role": "Percussion", "articulation": "Percussive", "dynamic_range": "Fortissimo"}, {"name": "Snare", "register": "Mid", "role": "Percussion", "articulation": "Percussive", "dynamic_range": "Fortissimo"}, {"name": "Crash", "register": "High", "role": "Percussion", "articulation": "Percussive", "dynamic_range": "Fortissimo"}, {"name": "Hat", "register": "High", "role": "Percussion", "articulation": "Percussive", "dynamic_range": "Intense"}], "instruments": ["Electric Guitar", "Bass Guitar", "Kick", "Snare", "Crash", "Hat"], "instrument": "Crash"}, "layers": {}, "pattern": [{"bar": 1, "events": []}, {"bar": 2, "events": []}, {"bar": 3, "events": []}, {"bar": 4, "events": [{"step": 0, "note": 49, "vel": 127, "len": 2}]}, {"bar": 5, "events": []}, {"bar": 6, "events": []}, {"bar": 7, "events": []}, {"bar": 8, "events": []}]}, "Hat": {"meta": {"status": "success", "tempo": 130, "key": "E", "scale": "Minor", "style": "Modern Rock", "mood": "Energetic", "meter": "4/4", "dynamic_profile": "High-Energy/Sustain", "arrangement_density": "High", "harmonic_color": "Distorted", "length_seconds": 30.0, "bars": 8, "instrument_configs": [{"name": "Electric Guitar", "register": "High", "role": "Lead", "articulation": "Legato", "dynamic_range": "Intense"}, {"name": "Bass Guitar", "register": "Low", "role": "Bass", "articulation": "Percussive", "dynamic_range": "Intense"}, {"name": "Kick", "register": "Low", "role": "Percussion", "articulation": "Percussive", "dynamic_range": "Fortissimo"}, {"name": "Snare", "register": "Mid", "role": "Percussion", "articulation": "Percussive", "dynamic_range": "Fortissimo"}, {"name": "Crash", "register": "High", "role": "Percussion", "articulation": "Percussive", "dynamic_range": "Fortissimo"}, {"name": "Hat", "register": "High", "role": "Percussion", "articulation": "Percussive", "dynamic_range": "Intense"}], "instruments": ["Electric Guitar", "Bass Guitar", "Kick", "Snare", "Crash", "Hat"], "instrument": "Hat"}, "layers": {}, "pattern": [{"bar": 1, "events": [{"step": 0, "note": 46, "vel": 100, "len": 1}, {"step": 1, "note": 46, "vel": 90, "len": 1}, {"step": 2, "note": 46, "vel": 100, "len": 1}, {"step": 3, "note": 46, "vel": 90, "len": 1}, {"step": 4, "note": 46, "vel": 100, "len": 1}, {"step": 5, "note": 46, "vel": 90, "len": 1}, {"step": 6, "note": 46, "vel": 100, "len": 1}, {"step": 7, "note": 46, "vel": 90, "len": 1}]}, {"bar": 2, "events": [{"step": 0, "note": 46, "vel": 100, "len": 1}, {"step": 1, "note": 46, "vel": 90, "len": 1}, {"step": 2, "note": 46, "vel": 100, "len": 1}, {"step": 3, "note": 46, "vel": 90, "len": 1}, {"step": 4, "note": 46, "vel": 100, "len": 1}, {"step": 5, "note": 46, "vel": 90, "len": 1}, {"step": 6, "note": 46, "vel": 100, "len": 1}, {"step": 7, "note": 46, "vel": 90, "len": 1}]}, {"bar": 3, "events": [{"step": 0, "note": 46, "vel": 100, "len": 1}, {"step": 1, "note": 46, "vel": 90, "len": 1}, {"step": 2, "note": 46, "vel": 100, "len": 1}, {"step": 3, "note": 46, "vel": 90, "len": 1}, {"step": 4, "note": 46, "vel": 100, "len": 1}, {"step": 5, "note": 46, "vel": 90, "len": 1}, {"step": 6, "note": 46, "vel": 100, "len": 1}, {"step": 7, "note": 46, "vel": 90, "len": 1}]}, {"bar": 4, "events": [{"step": 0, "note": 46, "vel": 100, "len": 1}, {"step": 1, "note": 46, "vel": 90, "len": 1}, {"step": 2, "note": 46, "vel": 100, "len": 1}, {"step": 3, "note": 46, "vel": 90, "len": 1}, {"step": 4, "note": 46, "vel": 100, "len": 1}, {"step": 5, "note": 46, "vel": 90, "len": 1}, {"step": 6, "note": 46, "vel": 100, "len": 1}, {"step": 7, "note": 46, "vel": 90, "len": 1}]}, {"bar": 5, "events": [{"step": 0, "note": 46, "vel": 100, "len": 1}, {"step": 1, "note": 46, "vel": 90, "len": 1}, {"step": 2, "note": 46, "vel": 100, "len": 1}, {"step": 3, "note": 46, "vel": 90, "len": 1}, {"step": 4, "note": 46, "vel": 100, "len": 1}, {"step": 5, "note": 46, "vel": 90, "len": 1}, {"step": 6, "note": 46, "vel": 100, "len": 1}, {"step": 7, "note": 46, "vel": 90, "len": 1}]}, {"bar": 6, "events": [{"step": 0, "note": 46, "vel": 100, "len": 1}, {"step": 1, "note": 46, "vel": 90, "len": 1}, {"step": 2, "note": 46, "vel": 100, "len": 1}, {"step": 3, "note": 46, "vel": 90, "len": 1}, {"step": 4, "note": 46, "vel": 100, "len": 1}, {"step": 5, "note": 46, "vel": 90, "len": 1}, {"step": 6, "note": 46, "vel": 100, "len": 1}, {"step": 7, "note": 46, "vel": 90, "len": 1}]}, {"bar": 7, "events": [{"step": 0, "note": 46, "vel": 100, "len": 1}, {"step": 1, "note": 46, "vel": 90, "len": 1}, {"step": 2, "note": 46, "vel": 100, "len": 1}, {"step": 3, "note": 46, "vel": 90, "len": 1}, {"step": 4, "note": 46, "vel": 100, "len": 1}, {"step": 5, "note": 46, "vel": 90, "len": 1}, {"step": 6, "note": 46, "vel": 100, "len": 1}, {"step": 7, "note": 46, "vel": 90, "len": 1}]}, {"bar": 8, "events": []}]}}