{"meta": {"tempo": 80, "key": "C Minor", "time_signature": "4/4", "style": "Ambient Lofi Hip Hop", "scale": "Minor", "mood": "Relaxed, Nostalgic, Dreamy", "meter": "4/4", "dynamic_profile": "Consistent, Mellow", "arrangement_density": "Sparse", "harmonic_color": "Jazzy, Melancholic", "length_seconds": 48.0, "bars": 16, "instrument_configs": [{"name": "Piano", "register": "Mid", "role": "Accompaniment", "articulation": "Legato", "dynamic_range": "Delicate"}, {"name": "Electric Guitar", "register": "Mid-High", "role": "Lead", "articulation": "Legato", "dynamic_range": "Delicate"}, {"name": "Bass Guitar", "register": "Low", "role": "Bass", "articulation": "Sustain", "dynamic_range": "Moderate"}, {"name": "Pads", "register": "Mid-High", "role": "Pad", "articulation": "Sustain", "dynamic_range": "Delicate"}, {"name": "Kick", "register": "Low", "role": "Percussion", "articulation": "Percussive", "dynamic_range": "Moderate"}, {"name": "Snare", "register": "Mid", "role": "Percussion", "articulation": "Percussive", "dynamic_range": "Moderate"}, {"name": "Hat", "register": "High", "role": "Percussion", "articulation": "Percussive", "dynamic_range": "Delicate"}, {"name": "FX", "register": "Full", "role": "Atmosphere", "articulation": "Sustain", "dynamic_range": "Delicate"}], "instruments": ["Piano", "Electric Guitar", "Bass Guitar", "Pads", "Kick", "Snare", "Hat", "FX"], "instrument": "Piano"}, "layers": {"Piano": [{"bar": 1, "events": [{"step": 0, "note": 60, "vel": 55, "len": 4}, {"step": 0, "note": 63, "vel": 52, "len": 4}, {"step": 0, "note": 67, "vel": 50, "len": 4}, {"step": 0, "note": 70, "vel": 48, "len": 4}]}, {"bar": 2, "events": [{"step": 0, "note": 65, "vel": 56, "len": 4}, {"step": 0, "note": 68, "vel": 53, "len": 4}, {"step": 0, "note": 72, "vel": 51, "len": 4}, {"step": 0, "note": 75, "vel": 49, "len": 4}]}, {"bar": 3, "events": [{"step": 0, "note": 58, "vel": 54, "len": 4}, {"step": 0, "note": 62, "vel": 51, "len": 4}, {"step": 0, "note": 65, "vel": 50, "len": 4}, {"step": 0, "note": 68, "vel": 48, "len": 4}]}, {"bar": 4, "events": [{"step": 0, "note": 63, "vel": 55, "len": 4}, {"step": 0, "note": 67, "vel": 52, "len": 4}, {"step": 0, "note": 70, "vel": 50, "len": 4}, {"step": 0, "note": 74, "vel": 48, "len": 4}]}, {"bar": 5, "events": [{"step": 2, "note": 60, "vel": 58, "len": 2}, {"step": 2, "note": 63, "vel": 55, "len": 2}, {"step": 2, "note": 67, "vel": 53, "len": 2}, {"step": 2, "note": 70, "vel": 51, "len": 2}]}, {"bar": 9, "events": [{"step": 0, "note": 60, "vel": 60, "len": 3}, {"step": 0, "note": 63, "vel": 58, "len": 3}, {"step": 0, "note": 67, "vel": 56, "len": 3}, {"step": 4, "note": 60, "vel": 50, "len": 1}]}, {"bar": 13, "events": [{"step": 0, "note": 48, "vel": 45, "len": 8}, {"step": 0, "note": 55, "vel": 42, "len": 8}, {"step": 0, "note": 58, "vel": 40, "len": 8}]}]}, "pattern": [{"bar": 1, "events": [{"step": 0, "note": 60, "vel": 55, "len": 4}, {"step": 0, "note": 63, "vel": 52, "len": 4}, {"step": 0, "note": 67, "vel": 50, "len": 4}, {"step": 0, "note": 70, "vel": 48, "len": 4}]}, {"bar": 2, "events": [{"step": 0, "note": 65, "vel": 56, "len": 4}, {"step": 0, "note": 68, "vel": 53, "len": 4}, {"step": 0, "note": 72, "vel": 51, "len": 4}, {"step": 0, "note": 75, "vel": 49, "len": 4}]}, {"bar": 3, "events": [{"step": 0, "note": 58, "vel": 54, "len": 4}, {"step": 0, "note": 62, "vel": 51, "len": 4}, {"step": 0, "note": 65, "vel": 50, "len": 4}, {"step": 0, "note": 68, "vel": 48, "len": 4}]}, {"bar": 4, "events": [{"step": 0, "note": 63, "vel": 55, "len": 4}, {"step": 0, "note": 67, "vel": 52, "len": 4}, {"step": 0, "note": 70, "vel": 50, "len": 4}, {"step": 0, "note": 74, "vel": 48, "len": 4}]}, {"bar": 5, "events": [{"step": 2, "note": 60, "vel": 58, "len": 2}, {"step": 2, "note": 63, "vel": 55, "len": 2}, {"step": 2, "note": 67, "vel": 53, "len": 2}, {"step": 2, "note": 70, "vel": 51, "len": 2}]}, {"bar": 9, "events": [{"step": 0, "note": 60, "vel": 60, "len": 3}, {"step": 0, "note": 63, "vel": 58, "len": 3}, {"step": 0, "note": 67, "vel": 56, "len": 3}, {"step": 4, "note": 60, "vel": 50, "len": 1}]}, {"bar": 13, "events": [{"step": 0, "note": 48, "vel": 45, "len": 8}, {"step": 0, "note": 55, "vel": 42, "len": 8}, {"step": 0, "note": 58, "vel": 40, "len": 8}]}]}