{"meta": {"tempo": 80, "key": "C Minor", "time_signature": "4/4", "style": "Ambient Lofi Hip Hop", "scale": "Minor", "mood": "Relaxed, Nostalgic, Dreamy", "meter": "4/4", "dynamic_profile": "Consistent, Mellow", "arrangement_density": "Sparse", "harmonic_color": "Jazzy, Melancholic", "length_seconds": 48.0, "bars": 16, "instrument_configs": [{"name": "Piano", "register": "Mid", "role": "Accompaniment", "articulation": "Legato", "dynamic_range": "Delicate"}, {"name": "Electric Guitar", "register": "Mid-High", "role": "Lead", "articulation": "Legato", "dynamic_range": "Delicate"}, {"name": "Bass Guitar", "register": "Low", "role": "Bass", "articulation": "Sustain", "dynamic_range": "Moderate"}, {"name": "Pads", "register": "Mid-High", "role": "Pad", "articulation": "Sustain", "dynamic_range": "Delicate"}, {"name": "Kick", "register": "Low", "role": "Percussion", "articulation": "Percussive", "dynamic_range": "Moderate"}, {"name": "Snare", "register": "Mid", "role": "Percussion", "articulation": "Percussive", "dynamic_range": "Moderate"}, {"name": "Hat", "register": "High", "role": "Percussion", "articulation": "Percussive", "dynamic_range": "Delicate"}, {"name": "FX", "register": "Full", "role": "Atmosphere", "articulation": "Sustain", "dynamic_range": "Delicate"}], "instruments": ["Piano", "Electric Guitar", "Bass Guitar", "Pads", "Kick", "Snare", "Hat", "FX"], "instrument": "Snare"}, "layers": {"Snare": [{"bar": 1, "events": [{"step": 2, "note": 38, "vel": 75, "len": 1}, {"step": 6, "note": 38, "vel": 75, "len": 1}]}, {"bar": 2, "events": [{"step": 2, "note": 38, "vel": 75, "len": 1}, {"step": 6, "note": 38, "vel": 75, "len": 1}]}, {"bar": 3, "events": [{"step": 2, "note": 38, "vel": 75, "len": 1}, {"step": 6, "note": 38, "vel": 75, "len": 1}]}, {"bar": 4, "events": [{"step": 2, "note": 38, "vel": 75, "len": 1}, {"step": 6, "note": 38, "vel": 75, "len": 1}]}, {"bar": 5, "events": [{"step": 2, "note": 38, "vel": 80, "len": 1}, {"step": 6, "note": 38, "vel": 80, "len": 1}]}, {"bar": 6, "events": [{"step": 2, "note": 38, "vel": 80, "len": 1}, {"step": 6, "note": 38, "vel": 80, "len": 1}]}, {"bar": 7, "events": [{"step": 2, "note": 38, "vel": 80, "len": 1}, {"step": 6, "note": 38, "vel": 80, "len": 1}]}, {"bar": 8, "events": [{"step": 2, "note": 38, "vel": 80, "len": 1}, {"step": 6, "note": 38, "vel": 80, "len": 1}, {"step": 7, "note": 38, "vel": 40, "len": 1}]}, {"bar": 9, "events": [{"step": 2, "note": 38, "vel": 80, "len": 1}, {"step": 6, "note": 38, "vel": 80, "len": 1}]}, {"bar": 10, "events": [{"step": 2, "note": 38, "vel": 80, "len": 1}, {"step": 6, "note": 38, "vel": 80, "len": 1}]}, {"bar": 11, "events": [{"step": 2, "note": 38, "vel": 80, "len": 1}, {"step": 6, "note": 38, "vel": 80, "len": 1}]}, {"bar": 12, "events": [{"step": 2, "note": 38, "vel": 80, "len": 1}, {"step": 6, "note": 38, "vel": 80, "len": 1}]}]}, "pattern": [{"bar": 1, "events": [{"step": 2, "note": 38, "vel": 75, "len": 1}, {"step": 6, "note": 38, "vel": 75, "len": 1}]}, {"bar": 2, "events": [{"step": 2, "note": 38, "vel": 75, "len": 1}, {"step": 6, "note": 38, "vel": 75, "len": 1}]}, {"bar": 3, "events": [{"step": 2, "note": 38, "vel": 75, "len": 1}, {"step": 6, "note": 38, "vel": 75, "len": 1}]}, {"bar": 4, "events": [{"step": 2, "note": 38, "vel": 75, "len": 1}, {"step": 6, "note": 38, "vel": 75, "len": 1}]}, {"bar": 5, "events": [{"step": 2, "note": 38, "vel": 80, "len": 1}, {"step": 6, "note": 38, "vel": 80, "len": 1}]}, {"bar": 6, "events": [{"step": 2, "note": 38, "vel": 80, "len": 1}, {"step": 6, "note": 38, "vel": 80, "len": 1}]}, {"bar": 7, "events": [{"step": 2, "note": 38, "vel": 80, "len": 1}, {"step": 6, "note": 38, "vel": 80, "len": 1}]}, {"bar": 8, "events": [{"step": 2, "note": 38, "vel": 80, "len": 1}, {"step": 6, "note": 38, "vel": 80, "len": 1}, {"step": 7, "note": 38, "vel": 40, "len": 1}]}, {"bar": 9, "events": [{"step": 2, "note": 38, "vel": 80, "len": 1}, {"step": 6, "note": 38, "vel": 80, "len": 1}]}, {"bar": 10, "events": [{"step": 2, "note": 38, "vel": 80, "len": 1}, {"step": 6, "note": 38, "vel": 80, "len": 1}]}, {"bar": 11, "events": [{"step": 2, "note": 38, "vel": 80, "len": 1}, {"step": 6, "note": 38, "vel": 80, "len": 1}]}, {"bar": 12, "events": [{"step": 2, "note": 38, "vel": 80, "len": 1}, {"step": 6, "note": 38, "vel": 80, "len": 1}]}]}