{"meta": {"style": "Cinematic Lofi", "mood": "Nostalgic, Atmospheric, Relaxed", "tempo": 78, "key": "C", "scale": "Minor", "meter": "4/4", "bars": 16, "instruments": ["Piano", "Bass Guitar", "Kick", "Snare", "Hat", "Strings", "Pads"], "dynamic_profile": "Mellow with Swells", "arrangement_density": "Medium", "harmonic_color": "Melancholic", "length_seconds": 49.2, "instrument_configs": [{"name": "Piano", "register": "Mid", "role": "Lead", "articulation": "Legato", "dynamic_range": "Delicate"}, {"name": "Bass Guitar", "register": "Low", "role": "Bass", "articulation": "Sustain", "dynamic_range": "Moderate"}, {"name": "Kick", "register": "Low", "role": "Percussion", "articulation": "Percussive", "dynamic_range": "Moderate"}, {"name": "Snare", "register": "Mid", "role": "Percussion", "articulation": "Percussive", "dynamic_range": "Moderate"}, {"name": "Hat", "register": "High", "role": "Percussion", "articulation": "Percussive", "dynamic_range": "Soft"}, {"name": "Strings", "register": "Mid-High", "role": "Accompaniment", "articulation": "Legato", "dynamic_range": "Swelling"}, {"name": "Pads", "register": "Full", "role": "Pad", "articulation": "Sustain", "dynamic_range": "Static"}], "instrument": "Hat"}, "layers": {"Hat": [{"bar": 4, "events": [{"step": 0, "note": 42, "vel": 50, "len": 1}, {"step": 1, "note": 42, "vel": 45, "len": 1}, {"step": 2, "note": 42, "vel": 52, "len": 1}, {"step": 3, "note": 42, "vel": 45, "len": 1}, {"step": 4, "note": 42, "vel": 50, "len": 1}, {"step": 5, "note": 42, "vel": 45, "len": 1}, {"step": 6, "note": 42, "vel": 52, "len": 1}, {"step": 7, "note": 42, "vel": 45, "len": 1}]}, {"bar": 5, "events": [{"step": 0, "note": 42, "vel": 50, "len": 1}, {"step": 2, "note": 42, "vel": 52, "len": 1}, {"step": 4, "note": 42, "vel": 50, "len": 1}, {"step": 6, "note": 42, "vel": 52, "len": 1}]}, {"bar": 6, "events": [{"step": 0, "note": 42, "vel": 50, "len": 1}, {"step": 1, "note": 42, "vel": 45, "len": 1}, {"step": 2, "note": 42, "vel": 52, "len": 1}, {"step": 3, "note": 42, "vel": 45, "len": 1}, {"step": 4, "note": 42, "vel": 50, "len": 1}, {"step": 5, "note": 42, "vel": 45, "len": 1}, {"step": 6, "note": 42, "vel": 52, "len": 1}, {"step": 7, "note": 42, "vel": 45, "len": 1}]}, {"bar": 7, "events": [{"step": 0, "note": 42, "vel": 50, "len": 1}, {"step": 2, "note": 42, "vel": 52, "len": 1}, {"step": 4, "note": 42, "vel": 50, "len": 1}, {"step": 6, "note": 42, "vel": 52, "len": 1}]}, {"bar": 12, "events": [{"step": 0, "note": 42, "vel": 55, "len": 1}, {"step": 2, "note": 42, "vel": 58, "len": 1}, {"step": 4, "note": 42, "vel": 55, "len": 1}, {"step": 6, "note": 42, "vel": 58, "len": 1}]}, {"bar": 13, "events": [{"step": 0, "note": 42, "vel": 55, "len": 1}, {"step": 2, "note": 42, "vel": 58, "len": 1}, {"step": 4, "note": 42, "vel": 55, "len": 1}, {"step": 6, "note": 42, "vel": 58, "len": 1}]}, {"bar": 14, "events": [{"step": 0, "note": 42, "vel": 55, "len": 1}, {"step": 2, "note": 42, "vel": 58, "len": 1}, {"step": 4, "note": 42, "vel": 55, "len": 1}, {"step": 6, "note": 42, "vel": 58, "len": 1}]}, {"bar": 15, "events": [{"step": 0, "note": 42, "vel": 55, "len": 1}, {"step": 2, "note": 42, "vel": 58, "len": 1}, {"step": 4, "note": 42, "vel": 55, "len": 1}, {"step": 6, "note": 42, "vel": 58, "len": 1}]}]}, "pattern": [{"bar": 4, "events": [{"step": 0, "note": 42, "vel": 50, "len": 1}, {"step": 1, "note": 42, "vel": 45, "len": 1}, {"step": 2, "note": 42, "vel": 52, "len": 1}, {"step": 3, "note": 42, "vel": 45, "len": 1}, {"step": 4, "note": 42, "vel": 50, "len": 1}, {"step": 5, "note": 42, "vel": 45, "len": 1}, {"step": 6, "note": 42, "vel": 52, "len": 1}, {"step": 7, "note": 42, "vel": 45, "len": 1}]}, {"bar": 5, "events": [{"step": 0, "note": 42, "vel": 50, "len": 1}, {"step": 2, "note": 42, "vel": 52, "len": 1}, {"step": 4, "note": 42, "vel": 50, "len": 1}, {"step": 6, "note": 42, "vel": 52, "len": 1}]}, {"bar": 6, "events": [{"step": 0, "note": 42, "vel": 50, "len": 1}, {"step": 1, "note": 42, "vel": 45, "len": 1}, {"step": 2, "note": 42, "vel": 52, "len": 1}, {"step": 3, "note": 42, "vel": 45, "len": 1}, {"step": 4, "note": 42, "vel": 50, "len": 1}, {"step": 5, "note": 42, "vel": 45, "len": 1}, {"step": 6, "note": 42, "vel": 52, "len": 1}, {"step": 7, "note": 42, "vel": 45, "len": 1}]}, {"bar": 7, "events": [{"step": 0, "note": 42, "vel": 50, "len": 1}, {"step": 2, "note": 42, "vel": 52, "len": 1}, {"step": 4, "note": 42, "vel": 50, "len": 1}, {"step": 6, "note": 42, "vel": 52, "len": 1}]}, {"bar": 12, "events": [{"step": 0, "note": 42, "vel": 55, "len": 1}, {"step": 2, "note": 42, "vel": 58, "len": 1}, {"step": 4, "note": 42, "vel": 55, "len": 1}, {"step": 6, "note": 42, "vel": 58, "len": 1}]}, {"bar": 13, "events": [{"step": 0, "note": 42, "vel": 55, "len": 1}, {"step": 2, "note": 42, "vel": 58, "len": 1}, {"step": 4, "note": 42, "vel": 55, "len": 1}, {"step": 6, "note": 42, "vel": 58, "len": 1}]}, {"bar": 14, "events": [{"step": 0, "note": 42, "vel": 55, "len": 1}, {"step": 2, "note": 42, "vel": 58, "len": 1}, {"step": 4, "note": 42, "vel": 55, "len": 1}, {"step": 6, "note": 42, "vel": 58, "len": 1}]}, {"bar": 15, "events": [{"step": 0, "note": 42, "vel": 55, "len": 1}, {"step": 2, "note": 42, "vel": 58, "len": 1}, {"step": 4, "note": 42, "vel": 55, "len": 1}, {"step": 6, "note": 42, "vel": 58, "len": 1}]}]}