{"pattern": [{"bar": 0, "events": [{"step": 0, "note": 48, "vel": 45, "len": 8}, {"step": 0, "note": 55, "vel": 42, "len": 8}, {"step": 0, "note": 60, "vel": 55, "len": 4}, {"step": 0, "note": 63, "vel": 52, "len": 4}, {"step": 0, "note": 67, "vel": 58, "len": 4}, {"step": 3, "note": 72, "vel": 62, "len": 2}, {"step": 5, "note": 70, "vel": 58, "len": 2}, {"step": 7, "note": 67, "vel": 54, "len": 1}]}, {"bar": 1, "events": [{"step": 0, "note": 44, "vel": 45, "len": 8}, {"step": 0, "note": 51, "vel": 42, "len": 8}, {"step": 0, "note": 56, "vel": 53, "len": 4}, {"step": 0, "note": 60, "vel": 50, "len": 4}, {"step": 0, "note": 63, "vel": 55, "len": 4}, {"step": 2, "note": 68, "vel": 60, "len": 2}, {"step": 5, "note": 67, "vel": 56, "len": 3}]}, {"bar": 2, "events": [{"step": 0, "note": 39, "vel": 45, "len": 8}, {"step": 0, "note": 46, "vel": 42, "len": 8}, {"step": 0, "note": 63, "vel": 54, "len": 4}, {"step": 0, "note": 67, "vel": 52, "len": 4}, {"step": 0, "note": 70, "vel": 56, "len": 4}, {"step": 1, "note": 75, "vel": 62, "len": 1}, {"step": 4, "note": 74, "vel": 59, "len": 2}]}, {"bar": 3, "events": [{"step": 0, "note": 46, "vel": 45, "len": 8}, {"step": 0, "note": 53, "vel": 42, "len": 8}, {"step": 0, "note": 58, "vel": 52, "len": 4}, {"step": 0, "note": 62, "vel": 50, "len": 4}, {"step": 0, "note": 65, "vel": 54, "len": 4}, {"step": 5, "note": 65, "vel": 58, "len": 2}, {"step": 7, "note": 62, "vel": 52, "len": 1}]}, {"bar": 4, "events": [{"step": 0, "note": 36, "vel": 85, "len": 1}, {"step": 5, "note": 36, "vel": 82, "len": 1}, {"step": 2, "note": 38, "vel": 80, "len": 1}, {"step": 6, "note": 38, "vel": 78, "len": 1}, {"step": 0, "note": 42, "vel": 50, "len": 1}, {"step": 1, "note": 42, "vel": 45, "len": 1}, {"step": 2, "note": 42, "vel": 52, "len": 1}, {"step": 3, "note": 42, "vel": 45, "len": 1}, {"step": 4, "note": 42, "vel": 50, "len": 1}, {"step": 5, "note": 42, "vel": 45, "len": 1}, {"step": 6, "note": 42, "vel": 52, "len": 1}, {"step": 7, "note": 42, "vel": 45, "len": 1}, {"step": 0, "note": 24, "vel": 75, "len": 3}, {"step": 3, "note": 24, "vel": 70, "len": 2}, {"step": 5, "note": 24, "vel": 72, "len": 3}, {"step": 0, "note": 60, "vel": 55, "len": 8}, {"step": 0, "note": 48, "vel": 45, "len": 8}]}, {"bar": 5, "events": [{"step": 0, "note": 36, "vel": 85, "len": 1}, {"step": 3, "note": 36, "vel": 78, "len": 1}, {"step": 5, "note": 36, "vel": 82, "len": 1}, {"step": 2, "note": 38, "vel": 80, "len": 1}, {"step": 6, "note": 38, "vel": 78, "len": 1}, {"step": 0, "note": 42, "vel": 50, "len": 1}, {"step": 2, "note": 42, "vel": 52, "len": 1}, {"step": 4, "note": 42, "vel": 50, "len": 1}, {"step": 6, "note": 42, "vel": 52, "len": 1}, {"step": 0, "note": 20, "vel": 75, "len": 4}, {"step": 5, "note": 20, "vel": 72, "len": 3}, {"step": 0, "note": 56, "vel": 53, "len": 8}, {"step": 0, "note": 44, "vel": 45, "len": 8}]}, {"bar": 6, "events": [{"step": 0, "note": 36, "vel": 85, "len": 1}, {"step": 5, "note": 36, "vel": 82, "len": 1}, {"step": 2, "note": 38, "vel": 80, "len": 1}, {"step": 6, "note": 38, "vel": 78, "len": 1}, {"step": 0, "note": 42, "vel": 50, "len": 1}, {"step": 1, "note": 42, "vel": 45, "len": 1}, {"step": 2, "note": 42, "vel": 52, "len": 1}, {"step": 3, "note": 42, "vel": 45, "len": 1}, {"step": 4, "note": 42, "vel": 50, "len": 1}, {"step": 5, "note": 42, "vel": 45, "len": 1}, {"step": 6, "note": 42, "vel": 52, "len": 1}, {"step": 7, "note": 42, "vel": 45, "len": 1}, {"step": 0, "note": 27, "vel": 75, "len": 3}, {"step": 4, "note": 27, "vel": 70, "len": 4}, {"step": 0, "note": 63, "vel": 54, "len": 8}, {"step": 0, "note": 39, "vel": 45, "len": 8}]}, {"bar": 7, "events": [{"step": 0, "note": 36, "vel": 85, "len": 1}, {"step": 5, "note": 36, "vel": 82, "len": 1}, {"step": 7, "note": 36, "vel": 70, "len": 1}, {"step": 2, "note": 38, "vel": 80, "len": 1}, {"step": 6, "note": 38, "vel": 78, "len": 1}, {"step": 0, "note": 42, "vel": 50, "len": 1}, {"step": 2, "note": 42, "vel": 52, "len": 1}, {"step": 4, "note": 42, "vel": 50, "len": 1}, {"step": 6, "note": 42, "vel": 52, "len": 1}, {"step": 0, "note": 22, "vel": 75, "len": 4}, {"step": 5, "note": 22, "vel": 72, "len": 3}, {"step": 0, "note": 58, "vel": 52, "len": 8}, {"step": 0, "note": 46, "vel": 45, "len": 8}]}, {"bar": 8, "events": [{"step": 0, "note": 67, "vel": 40, "len": 8}, {"step": 0, "note": 48, "vel": 45, "len": 8}, {"step": 0, "note": 60, "vel": 50, "len": 4}, {"step": 4, "note": 72, "vel": 55, "len": 4}]}, {"bar": 9, "events": [{"step": 0, "note": 68, "vel": 45, "len": 8}, {"step": 0, "note": 44, "vel": 45, "len": 8}, {"step": 0, "note": 56, "vel": 50, "len": 4}, {"step": 4, "note": 68, "vel": 55, "len": 4}]}, {"bar": 10, "events": [{"step": 0, "note": 70, "vel": 50, "len": 8}, {"step": 0, "note": 39, "vel": 45, "len": 8}, {"step": 0, "note": 63, "vel": 50, "len": 4}, {"step": 4, "note": 75, "vel": 58, "len": 4}]}, {"bar": 11, "events": [{"step": 0, "note": 65, "vel": 45, "len": 8}, {"step": 0, "note": 46, "vel": 45, "len": 8}, {"step": 0, "note": 58, "vel": 50, "len": 4}, {"step": 4, "note": 65, "vel": 55, "len": 4}]}, {"bar": 12, "events": [{"step": 0, "note": 36, "vel": 88, "len": 1}, {"step": 5, "note": 36, "vel": 85, "len": 1}, {"step": 2, "note": 38, "vel": 82, "len": 1}, {"step": 6, "note": 38, "vel": 80, "len": 1}, {"step": 0, "note": 42, "vel": 55, "len": 1}, {"step": 2, "note": 42, "vel": 58, "len": 1}, {"step": 4, "note": 42, "vel": 55, "len": 1}, {"step": 6, "note": 42, "vel": 58, "len": 1}, {"step": 0, "note": 24, "vel": 78, "len": 3}, {"step": 5, "note": 24, "vel": 75, "len": 3}, {"step": 0, "note": 67, "vel": 60, "len": 8}, {"step": 0, "note": 60, "vel": 58, "len": 8}]}, {"bar": 13, "events": [{"step": 0, "note": 36, "vel": 88, "len": 1}, {"step": 3, "note": 36, "vel": 80, "len": 1}, {"step": 5, "note": 36, "vel": 85, "len": 1}, {"step": 2, "note": 38, "vel": 82, "len": 1}, {"step": 6, "note": 38, "vel": 80, "len": 1}, {"step": 0, "note": 42, "vel": 55, "len": 1}, {"step": 2, "note": 42, "vel": 58, "len": 1}, {"step": 4, "note": 42, "vel": 55, "len": 1}, {"step": 6, "note": 42, "vel": 58, "len": 1}, {"step": 0, "note": 20, "vel": 78, "len": 4}, {"step": 5, "note": 20, "vel": 75, "len": 3}, {"step": 0, "note": 68, "vel": 62, "len": 8}, {"step": 0, "note": 56, "vel": 58, "len": 8}]}, {"bar": 14, "events": [{"step": 0, "note": 36, "vel": 88, "len": 1}, {"step": 5, "note": 36, "vel": 85, "len": 1}, {"step": 2, "note": 38, "vel": 82, "len": 1}, {"step": 6, "note": 38, "vel": 80, "len": 1}, {"step": 0, "note": 42, "vel": 55, "len": 1}, {"step": 2, "note": 42, "vel": 58, "len": 1}, {"step": 4, "note": 42, "vel": 55, "len": 1}, {"step": 6, "note": 42, "vel": 58, "len": 1}, {"step": 0, "note": 27, "vel": 78, "len": 3}, {"step": 4, "note": 27, "vel": 75, "len": 4}, {"step": 0, "note": 70, "vel": 65, "len": 8}, {"step": 0, "note": 63, "vel": 58, "len": 8}]}, {"bar": 15, "events": [{"step": 0, "note": 36, "vel": 88, "len": 1}, {"step": 5, "note": 36, "vel": 85, "len": 1}, {"step": 7, "note": 36, "vel": 75, "len": 1}, {"step": 2, "note": 38, "vel": 82, "len": 1}, {"step": 6, "note": 38, "vel": 80, "len": 1}, {"step": 0, "note": 42, "vel": 55, "len": 1}, {"step": 2, "note": 42, "vel": 58, "len": 1}, {"step": 4, "note": 42, "vel": 55, "len": 1}, {"step": 6, "note": 42, "vel": 58, "len": 1}, {"step": 0, "note": 22, "vel": 78, "len": 4}, {"step": 5, "note": 22, "vel": 75, "len": 3}, {"step": 0, "note": 65, "vel": 62, "len": 8}, {"step": 0, "note": 58, "vel": 58, "len": 8}]}], "layers": {"Piano": [{"bar": 0, "events": [{"step": 0, "note": 60, "vel": 55, "len": 4}, {"step": 0, "note": 63, "vel": 52, "len": 4}, {"step": 0, "note": 67, "vel": 58, "len": 4}, {"step": 3, "note": 72, "vel": 62, "len": 2}, {"step": 5, "note": 70, "vel": 58, "len": 2}, {"step": 7, "note": 67, "vel": 54, "len": 1}]}, {"bar": 1, "events": [{"step": 0, "note": 56, "vel": 53, "len": 4}, {"step": 0, "note": 60, "vel": 50, "len": 4}, {"step": 0, "note": 63, "vel": 55, "len": 4}, {"step": 2, "note": 68, "vel": 60, "len": 2}, {"step": 5, "note": 67, "vel": 56, "len": 3}]}, {"bar": 2, "events": [{"step": 0, "note": 63, "vel": 54, "len": 4}, {"step": 0, "note": 67, "vel": 52, "len": 4}, {"step": 0, "note": 70, "vel": 56, "len": 4}, {"step": 1, "note": 75, "vel": 62, "len": 1}, {"step": 4, "note": 74, "vel": 59, "len": 2}]}, {"bar": 3, "events": [{"step": 0, "note": 58, "vel": 52, "len": 4}, {"step": 0, "note": 62, "vel": 50, "len": 4}, {"step": 0, "note": 65, "vel": 54, "len": 4}, {"step": 5, "note": 65, "vel": 58, "len": 2}, {"step": 7, "note": 62, "vel": 52, "len": 1}]}, {"bar": 4, "events": [{"step": 0, "note": 60, "vel": 55, "len": 8}, {"step": 2, "note": 63, "vel": 50, "len": 2}, {"step": 5, "note": 67, "vel": 52, "len": 2}]}, {"bar": 5, "events": [{"step": 0, "note": 56, "vel": 53, "len": 8}, {"step": 2, "note": 60, "vel": 50, "len": 2}, {"step": 5, "note": 63, "vel": 52, "len": 2}]}, {"bar": 6, "events": [{"step": 0, "note": 63, "vel": 54, "len": 8}, {"step": 2, "note": 67, "vel": 50, "len": 2}, {"step": 5, "note": 70, "vel": 52, "len": 2}]}, {"bar": 7, "events": [{"step": 0, "note": 58, "vel": 52, "len": 8}, {"step": 2, "note": 62, "vel": 50, "len": 2}, {"step": 5, "note": 65, "vel": 52, "len": 2}]}, {"bar": 8, "events": [{"step": 0, "note": 60, "vel": 50, "len": 4}, {"step": 4, "note": 72, "vel": 55, "len": 4}]}, {"bar": 9, "events": [{"step": 0, "note": 56, "vel": 50, "len": 4}, {"step": 4, "note": 68, "vel": 55, "len": 4}]}, {"bar": 10, "events": [{"step": 0, "note": 63, "vel": 50, "len": 4}, {"step": 4, "note": 75, "vel": 58, "len": 4}]}, {"bar": 11, "events": [{"step": 0, "note": 58, "vel": 50, "len": 4}, {"step": 4, "note": 65, "vel": 55, "len": 4}]}, {"bar": 12, "events": [{"step": 0, "note": 60, "vel": 58, "len": 8}, {"step": 2, "note": 72, "vel": 62, "len": 2}]}, {"bar": 13, "events": [{"step": 0, "note": 56, "vel": 58, "len": 8}, {"step": 2, "note": 68, "vel": 62, "len": 2}]}, {"bar": 14, "events": [{"step": 0, "note": 63, "vel": 58, "len": 8}, {"step": 2, "note": 75, "vel": 62, "len": 2}]}, {"bar": 15, "events": [{"step": 0, "note": 58, "vel": 58, "len": 8}, {"step": 2, "note": 65, "vel": 62, "len": 2}]}], "Bass Guitar": [{"bar": 4, "events": [{"step": 0, "note": 24, "vel": 75, "len": 3}, {"step": 3, "note": 24, "vel": 70, "len": 2}, {"step": 5, "note": 24, "vel": 72, "len": 3}]}, {"bar": 5, "events": [{"step": 0, "note": 20, "vel": 75, "len": 4}, {"step": 5, "note": 20, "vel": 72, "len": 3}]}, {"bar": 6, "events": [{"step": 0, "note": 27, "vel": 75, "len": 3}, {"step": 4, "note": 27, "vel": 70, "len": 4}]}, {"bar": 7, "events": [{"step": 0, "note": 22, "vel": 75, "len": 4}, {"step": 5, "note": 22, "vel": 72, "len": 3}]}, {"bar": 12, "events": [{"step": 0, "note": 24, "vel": 78, "len": 3}, {"step": 5, "note": 24, "vel": 75, "len": 3}]}, {"bar": 13, "events": [{"step": 0, "note": 20, "vel": 78, "len": 4}, {"step": 5, "note": 20, "vel": 75, "len": 3}]}, {"bar": 14, "events": [{"step": 0, "note": 27, "vel": 78, "len": 3}, {"step": 4, "note": 27, "vel": 75, "len": 4}]}, {"bar": 15, "events": [{"step": 0, "note": 22, "vel": 78, "len": 4}, {"step": 5, "note": 22, "vel": 75, "len": 3}]}], "Kick": [{"bar": 4, "events": [{"step": 0, "note": 36, "vel": 85, "len": 1}, {"step": 5, "note": 36, "vel": 82, "len": 1}]}, {"bar": 5, "events": [{"step": 0, "note": 36, "vel": 85, "len": 1}, {"step": 3, "note": 36, "vel": 78, "len": 1}, {"step": 5, "note": 36, "vel": 82, "len": 1}]}, {"bar": 6, "events": [{"step": 0, "note": 36, "vel": 85, "len": 1}, {"step": 5, "note": 36, "vel": 82, "len": 1}]}, {"bar": 7, "events": [{"step": 0, "note": 36, "vel": 85, "len": 1}, {"step": 5, "note": 36, "vel": 82, "len": 1}, {"step": 7, "note": 36, "vel": 70, "len": 1}]}, {"bar": 12, "events": [{"step": 0, "note": 36, "vel": 88, "len": 1}, {"step": 5, "note": 36, "vel": 85, "len": 1}]}, {"bar": 13, "events": [{"step": 0, "note": 36, "vel": 88, "len": 1}, {"step": 3, "note": 36, "vel": 80, "len": 1}, {"step": 5, "note": 36, "vel": 85, "len": 1}]}, {"bar": 14, "events": [{"step": 0, "note": 36, "vel": 88, "len": 1}, {"step": 5, "note": 36, "vel": 85, "len": 1}]}, {"bar": 15, "events": [{"step": 0, "note": 36, "vel": 88, "len": 1}, {"step": 5, "note": 36, "vel": 85, "len": 1}, {"step": 7, "note": 36, "vel": 75, "len": 1}]}], "Snare": [{"bar": 4, "events": [{"step": 2, "note": 38, "vel": 80, "len": 1}, {"step": 6, "note": 38, "vel": 78, "len": 1}]}, {"bar": 5, "events": [{"step": 2, "note": 38, "vel": 80, "len": 1}, {"step": 6, "note": 38, "vel": 78, "len": 1}]}, {"bar": 6, "events": [{"step": 2, "note": 38, "vel": 80, "len": 1}, {"step": 6, "note": 38, "vel": 78, "len": 1}]}, {"bar": 7, "events": [{"step": 2, "note": 38, "vel": 80, "len": 1}, {"step": 6, "note": 38, "vel": 78, "len": 1}]}, {"bar": 12, "events": [{"step": 2, "note": 38, "vel": 82, "len": 1}, {"step": 6, "note": 38, "vel": 80, "len": 1}]}, {"bar": 13, "events": [{"step": 2, "note": 38, "vel": 82, "len": 1}, {"step": 6, "note": 38, "vel": 80, "len": 1}]}, {"bar": 14, "events": [{"step": 2, "note": 38, "vel": 82, "len": 1}, {"step": 6, "note": 38, "vel": 80, "len": 1}]}, {"bar": 15, "events": [{"step": 2, "note": 38, "vel": 82, "len": 1}, {"step": 6, "note": 38, "vel": 80, "len": 1}]}], "Hat": [{"bar": 4, "events": [{"step": 0, "note": 42, "vel": 50, "len": 1}, {"step": 1, "note": 42, "vel": 45, "len": 1}, {"step": 2, "note": 42, "vel": 52, "len": 1}, {"step": 3, "note": 42, "vel": 45, "len": 1}, {"step": 4, "note": 42, "vel": 50, "len": 1}, {"step": 5, "note": 42, "vel": 45, "len": 1}, {"step": 6, "note": 42, "vel": 52, "len": 1}, {"step": 7, "note": 42, "vel": 45, "len": 1}]}, {"bar": 5, "events": [{"step": 0, "note": 42, "vel": 50, "len": 1}, {"step": 2, "note": 42, "vel": 52, "len": 1}, {"step": 4, "note": 42, "vel": 50, "len": 1}, {"step": 6, "note": 42, "vel": 52, "len": 1}]}, {"bar": 6, "events": [{"step": 0, "note": 42, "vel": 50, "len": 1}, {"step": 1, "note": 42, "vel": 45, "len": 1}, {"step": 2, "note": 42, "vel": 52, "len": 1}, {"step": 3, "note": 42, "vel": 45, "len": 1}, {"step": 4, "note": 42, "vel": 50, "len": 1}, {"step": 5, "note": 42, "vel": 45, "len": 1}, {"step": 6, "note": 42, "vel": 52, "len": 1}, {"step": 7, "note": 42, "vel": 45, "len": 1}]}, {"bar": 7, "events": [{"step": 0, "note": 42, "vel": 50, "len": 1}, {"step": 2, "note": 42, "vel": 52, "len": 1}, {"step": 4, "note": 42, "vel": 50, "len": 1}, {"step": 6, "note": 42, "vel": 52, "len": 1}]}, {"bar": 12, "events": [{"step": 0, "note": 42, "vel": 55, "len": 1}, {"step": 2, "note": 42, "vel": 58, "len": 1}, {"step": 4, "note": 42, "vel": 55, "len": 1}, {"step": 6, "note": 42, "vel": 58, "len": 1}]}, {"bar": 13, "events": [{"step": 0, "note": 42, "vel": 55, "len": 1}, {"step": 2, "note": 42, "vel": 58, "len": 1}, {"step": 4, "note": 42, "vel": 55, "len": 1}, {"step": 6, "note": 42, "vel": 58, "len": 1}]}, {"bar": 14, "events": [{"step": 0, "note": 42, "vel": 55, "len": 1}, {"step": 2, "note": 42, "vel": 58, "len": 1}, {"step": 4, "note": 42, "vel": 55, "len": 1}, {"step": 6, "note": 42, "vel": 58, "len": 1}]}, {"bar": 15, "events": [{"step": 0, "note": 42, "vel": 55, "len": 1}, {"step": 2, "note": 42, "vel": 58, "len": 1}, {"step": 4, "note": 42, "vel": 55, "len": 1}, {"step": 6, "note": 42, "vel": 58, "len": 1}]}], "Strings": [{"bar": 8, "events": [{"step": 0, "note": 67, "vel": 40, "len": 8}]}, {"bar": 9, "events": [{"step": 0, "note": 68, "vel": 45, "len": 8}]}, {"bar": 10, "events": [{"step": 0, "note": 70, "vel": 50, "len": 8}]}, {"bar": 11, "events": [{"step": 0, "note": 65, "vel": 45, "len": 8}]}, {"bar": 12, "events": [{"step": 0, "note": 67, "vel": 60, "len": 8}]}, {"bar": 13, "events": [{"step": 0, "note": 68, "vel": 62, "len": 8}]}, {"bar": 14, "events": [{"step": 0, "note": 70, "vel": 65, "len": 8}]}, {"bar": 15, "events": [{"step": 0, "note": 65, "vel": 62, "len": 8}]}], "Pads": [{"bar": 0, "events": [{"step": 0, "note": 48, "vel": 45, "len": 8}, {"step": 0, "note": 55, "vel": 42, "len": 8}]}, {"bar": 1, "events": [{"step": 0, "note": 44, "vel": 45, "len": 8}, {"step": 0, "note": 51, "vel": 42, "len": 8}]}, {"bar": 2, "events": [{"step": 0, "note": 39, "vel": 45, "len": 8}, {"step": 0, "note": 46, "vel": 42, "len": 8}]}, {"bar": 3, "events": [{"step": 0, "note": 46, "vel": 45, "len": 8}, {"step": 0, "note": 53, "vel": 42, "len": 8}]}, {"bar": 4, "events": [{"step": 0, "note": 48, "vel": 45, "len": 8}]}, {"bar": 5, "events": [{"step": 0, "note": 44, "vel": 45, "len": 8}]}, {"bar": 6, "events": [{"step": 0, "note": 39, "vel": 45, "len": 8}]}, {"bar": 7, "events": [{"step": 0, "note": 46, "vel": 45, "len": 8}]}, {"bar": 8, "events": [{"step": 0, "note": 48, "vel": 45, "len": 8}]}, {"bar": 9, "events": [{"step": 0, "note": 44, "vel": 45, "len": 8}]}, {"bar": 10, "events": [{"step": 0, "note": 39, "vel": 45, "len": 8}]}, {"bar": 11, "events": [{"step": 0, "note": 46, "vel": 45, "len": 8}]}, {"bar": 12, "events": [{"step": 0, "note": 48, "vel": 50, "len": 8}]}, {"bar": 13, "events": [{"step": 0, "note": 44, "vel": 50, "len": 8}]}, {"bar": 14, "events": [{"step": 0, "note": 39, "vel": 50, "len": 8}]}, {"bar": 15, "events": [{"step": 0, "note": 46, "vel": 50, "len": 8}]}]}, "meta": {"style": "Cinematic Lofi", "mood": "Nostalgic, Atmospheric, Relaxed", "tempo": 78, "key": "C", "scale": "Minor", "meter": "4/4", "bars": 16, "instruments": ["Piano", "Bass Guitar", "Kick", "Snare", "Hat", "Strings", "Pads"], "dynamic_profile": "Mellow with Swells", "arrangement_density": "Medium", "harmonic_color": "Melancholic", "length_seconds": 49.2, "instrument_configs": [{"name": "Piano", "register": "Mid", "role": "Lead", "articulation": "Legato", "dynamic_range": "Delicate"}, {"name": "Bass Guitar", "register": "Low", "role": "Bass", "articulation": "Sustain", "dynamic_range": "Moderate"}, {"name": "Kick", "register": "Low", "role": "Percussion", "articulation": "Percussive", "dynamic_range": "Moderate"}, {"name": "Snare", "register": "Mid", "role": "Percussion", "articulation": "Percussive", "dynamic_range": "Moderate"}, {"name": "Hat", "register": "High", "role": "Percussion", "articulation": "Percussive", "dynamic_range": "Soft"}, {"name": "Strings", "register": "Mid-High", "role": "Accompaniment", "articulation": "Legato", "dynamic_range": "Swelling"}, {"name": "Pads", "register": "Full", "role": "Pad", "articulation": "Sustain", "dynamic_range": "Static"}]}}