{"meta": {"tempo": 90, "key": "C minor", "scale": "Natural minor", "style": "Experimental", "mood": "Melancholic", "meter": "4/4", "dynamic_profile": "Crescendo", "arrangement_density": "Medium", "harmonic_color": "Dissonant", "length_seconds": 107.0, "bars": 16, "instrument_configs": [{"name": "Piano", "register": "Mid", "role": "Lead", "articulation": "Legato", "dynamic_range": "Moderate"}, {"name": "Sax", "register": "High", "role": "Accompaniment", "articulation": "Staccato", "dynamic_range": "Intense"}, {"name": "Strings", "register": "Full", "role": "Pad", "articulation": "Sustain", "dynamic_range": "Delicate"}], "instruments": ["Piano", "Sax", "Strings"], "instrument": "Sax"}, "layers": {"Sax": [{"bar": 2, "events": [{"step": 0, "note": 74, "vel": 80, "len": 1}, {"step": 2, "note": 77, "vel": 80, "len": 1}, {"step": 4, "note": 80, "vel": 80, "len": 1}, {"step": 6, "note": 83, "vel": 80, "len": 1}]}, {"bar": 4, "events": [{"step": 1, "note": 86, "vel": 80, "len": 1}, {"step": 3, "note": 89, "vel": 80, "len": 1}, {"step": 5, "note": 91, "vel": 80, "len": 1}, {"step": 7, "note": 93, "vel": 80, "len": 1}]}, {"bar": 6, "events": [{"step": 0, "note": 74, "vel": 80, "len": 1}, {"step": 2, "note": 77, "vel": 80, "len": 1}, {"step": 4, "note": 80, "vel": 80, "len": 1}, {"step": 6, "note": 83, "vel": 80, "len": 1}]}, {"bar": 8, "events": [{"step": 1, "note": 86, "vel": 80, "len": 1}, {"step": 3, "note": 89, "vel": 80, "len": 1}, {"step": 5, "note": 91, "vel": 80, "len": 1}, {"step": 7, "note": 93, "vel": 80, "len": 1}]}, {"bar": 10, "events": [{"step": 0, "note": 74, "vel": 80, "len": 1}, {"step": 2, "note": 77, "vel": 80, "len": 1}, {"step": 4, "note": 80, "vel": 80, "len": 1}, {"step": 6, "note": 83, "vel": 80, "len": 1}]}, {"bar": 12, "events": [{"step": 1, "note": 86, "vel": 80, "len": 1}, {"step": 3, "note": 89, "vel": 80, "len": 1}, {"step": 5, "note": 91, "vel": 80, "len": 1}, {"step": 7, "note": 93, "vel": 80, "len": 1}]}, {"bar": 14, "events": [{"step": 0, "note": 74, "vel": 80, "len": 1}, {"step": 2, "note": 77, "vel": 80, "len": 1}, {"step": 4, "note": 80, "vel": 80, "len": 1}, {"step": 6, "note": 83, "vel": 80, "len": 1}]}, {"bar": 16, "events": [{"step": 1, "note": 86, "vel": 80, "len": 1}, {"step": 3, "note": 89, "vel": 80, "len": 1}, {"step": 5, "note": 91, "vel": 80, "len": 1}, {"step": 7, "note": 93, "vel": 80, "len": 1}]}]}, "pattern": [{"bar": 2, "events": [{"step": 0, "note": 74, "vel": 80, "len": 1}, {"step": 2, "note": 77, "vel": 80, "len": 1}, {"step": 4, "note": 80, "vel": 80, "len": 1}, {"step": 6, "note": 83, "vel": 80, "len": 1}]}, {"bar": 4, "events": [{"step": 1, "note": 86, "vel": 80, "len": 1}, {"step": 3, "note": 89, "vel": 80, "len": 1}, {"step": 5, "note": 91, "vel": 80, "len": 1}, {"step": 7, "note": 93, "vel": 80, "len": 1}]}, {"bar": 6, "events": [{"step": 0, "note": 74, "vel": 80, "len": 1}, {"step": 2, "note": 77, "vel": 80, "len": 1}, {"step": 4, "note": 80, "vel": 80, "len": 1}, {"step": 6, "note": 83, "vel": 80, "len": 1}]}, {"bar": 8, "events": [{"step": 1, "note": 86, "vel": 80, "len": 1}, {"step": 3, "note": 89, "vel": 80, "len": 1}, {"step": 5, "note": 91, "vel": 80, "len": 1}, {"step": 7, "note": 93, "vel": 80, "len": 1}]}, {"bar": 10, "events": [{"step": 0, "note": 74, "vel": 80, "len": 1}, {"step": 2, "note": 77, "vel": 80, "len": 1}, {"step": 4, "note": 80, "vel": 80, "len": 1}, {"step": 6, "note": 83, "vel": 80, "len": 1}]}, {"bar": 12, "events": [{"step": 1, "note": 86, "vel": 80, "len": 1}, {"step": 3, "note": 89, "vel": 80, "len": 1}, {"step": 5, "note": 91, "vel": 80, "len": 1}, {"step": 7, "note": 93, "vel": 80, "len": 1}]}, {"bar": 14, "events": [{"step": 0, "note": 74, "vel": 80, "len": 1}, {"step": 2, "note": 77, "vel": 80, "len": 1}, {"step": 4, "note": 80, "vel": 80, "len": 1}, {"step": 6, "note": 83, "vel": 80, "len": 1}]}, {"bar": 16, "events": [{"step": 1, "note": 86, "vel": 80, "len": 1}, {"step": 3, "note": 89, "vel": 80, "len": 1}, {"step": 5, "note": 91, "vel": 80, "len": 1}, {"step": 7, "note": 93, "vel": 80, "len": 1}]}]}