{"meta": {"tempo": 90, "key": "C minor", "scale": "Natural minor", "style": "Experimental", "mood": "Melancholic", "meter": "4/4", "dynamic_profile": "Crescendo", "arrangement_density": "Medium", "harmonic_color": "Dissonant", "length_seconds": 107.0, "bars": 16, "instrument_configs": [{"name": "Piano", "register": "Mid", "role": "Lead", "articulation": "Legato", "dynamic_range": "Moderate"}, {"name": "Sax", "register": "High", "role": "Accompaniment", "articulation": "Staccato", "dynamic_range": "Intense"}, {"name": "Strings", "register": "Full", "role": "Pad", "articulation": "Sustain", "dynamic_range": "Delicate"}], "instruments": ["Piano", "Sax", "Strings"], "instrument": "Piano"}, "layers": {"Piano": [{"bar": 1, "events": [{"step": 0, "note": 60, "vel": 40, "len": 2}, {"step": 2, "note": 64, "vel": 40, "len": 2}, {"step": 4, "note": 67, "vel": 40, "len": 2}, {"step": 6, "note": 70, "vel": 40, "len": 2}]}, {"bar": 3, "events": [{"step": 1, "note": 72, "vel": 40, "len": 2}, {"step": 3, "note": 76, "vel": 40, "len": 2}, {"step": 5, "note": 79, "vel": 40, "len": 2}, {"step": 7, "note": 81, "vel": 40, "len": 2}]}, {"bar": 5, "events": [{"step": 0, "note": 60, "vel": 40, "len": 2}, {"step": 2, "note": 64, "vel": 40, "len": 2}, {"step": 4, "note": 67, "vel": 40, "len": 2}, {"step": 6, "note": 70, "vel": 40, "len": 2}]}, {"bar": 7, "events": [{"step": 1, "note": 72, "vel": 40, "len": 2}, {"step": 3, "note": 76, "vel": 40, "len": 2}, {"step": 5, "note": 79, "vel": 40, "len": 2}, {"step": 7, "note": 81, "vel": 40, "len": 2}]}, {"bar": 9, "events": [{"step": 0, "note": 60, "vel": 40, "len": 2}, {"step": 2, "note": 64, "vel": 40, "len": 2}, {"step": 4, "note": 67, "vel": 40, "len": 2}, {"step": 6, "note": 70, "vel": 40, "len": 2}]}, {"bar": 11, "events": [{"step": 1, "note": 72, "vel": 40, "len": 2}, {"step": 3, "note": 76, "vel": 40, "len": 2}, {"step": 5, "note": 79, "vel": 40, "len": 2}, {"step": 7, "note": 81, "vel": 40, "len": 2}]}, {"bar": 13, "events": [{"step": 0, "note": 60, "vel": 40, "len": 2}, {"step": 2, "note": 64, "vel": 40, "len": 2}, {"step": 4, "note": 67, "vel": 40, "len": 2}, {"step": 6, "note": 70, "vel": 40, "len": 2}]}, {"bar": 15, "events": [{"step": 1, "note": 72, "vel": 40, "len": 2}, {"step": 3, "note": 76, "vel": 40, "len": 2}, {"step": 5, "note": 79, "vel": 40, "len": 2}, {"step": 7, "note": 81, "vel": 40, "len": 2}]}]}, "pattern": [{"bar": 1, "events": [{"step": 0, "note": 60, "vel": 40, "len": 2}, {"step": 2, "note": 64, "vel": 40, "len": 2}, {"step": 4, "note": 67, "vel": 40, "len": 2}, {"step": 6, "note": 70, "vel": 40, "len": 2}]}, {"bar": 3, "events": [{"step": 1, "note": 72, "vel": 40, "len": 2}, {"step": 3, "note": 76, "vel": 40, "len": 2}, {"step": 5, "note": 79, "vel": 40, "len": 2}, {"step": 7, "note": 81, "vel": 40, "len": 2}]}, {"bar": 5, "events": [{"step": 0, "note": 60, "vel": 40, "len": 2}, {"step": 2, "note": 64, "vel": 40, "len": 2}, {"step": 4, "note": 67, "vel": 40, "len": 2}, {"step": 6, "note": 70, "vel": 40, "len": 2}]}, {"bar": 7, "events": [{"step": 1, "note": 72, "vel": 40, "len": 2}, {"step": 3, "note": 76, "vel": 40, "len": 2}, {"step": 5, "note": 79, "vel": 40, "len": 2}, {"step": 7, "note": 81, "vel": 40, "len": 2}]}, {"bar": 9, "events": [{"step": 0, "note": 60, "vel": 40, "len": 2}, {"step": 2, "note": 64, "vel": 40, "len": 2}, {"step": 4, "note": 67, "vel": 40, "len": 2}, {"step": 6, "note": 70, "vel": 40, "len": 2}]}, {"bar": 11, "events": [{"step": 1, "note": 72, "vel": 40, "len": 2}, {"step": 3, "note": 76, "vel": 40, "len": 2}, {"step": 5, "note": 79, "vel": 40, "len": 2}, {"step": 7, "note": 81, "vel": 40, "len": 2}]}, {"bar": 13, "events": [{"step": 0, "note": 60, "vel": 40, "len": 2}, {"step": 2, "note": 64, "vel": 40, "len": 2}, {"step": 4, "note": 67, "vel": 40, "len": 2}, {"step": 6, "note": 70, "vel": 40, "len": 2}]}, {"bar": 15, "events": [{"step": 1, "note": 72, "vel": 40, "len": 2}, {"step": 3, "note": 76, "vel": 40, "len": 2}, {"step": 5, "note": 79, "vel": 40, "len": 2}, {"step": 7, "note": 81, "vel": 40, "len": 2}]}]}