{"meta": {"style": "Trap", "mood": "Dark", "tempo": 140, "key": "Fm", "scale": "Minor", "meter": "4/4", "bars": 16, "length_seconds": 30.0, "dynamic_profile": "Compressed", "arrangement_density": "Sparse", "harmonic_color": "Dissonant", "instruments": ["Kick", "Snare", "Clap", "Hat", "Bass", "Piano", "Pads"], "instrument_configs": [{"name": "Kick", "register": "Low", "role": "Percussion", "articulation": "Percussive", "dynamic_range": "Intense"}, {"name": "Snare", "register": "Mid", "role": "Percussion", "articulation": "Percussive", "dynamic_range": "Intense"}, {"name": "Clap", "register": "Mid", "role": "Percussion", "articulation": "Percussive", "dynamic_range": "Moderate"}, {"name": "Hat", "register": "High", "role": "Percussion", "articulation": "Staccato", "dynamic_range": "Moderate"}, {"name": "Bass", "register": "Low", "role": "Bass", "articulation": "Legato", "dynamic_range": "Intense"}, {"name": "Piano", "register": "Mid", "role": "Accompaniment", "articulation": "Sustain", "dynamic_range": "Moderate"}, {"name": "Pads", "register": "Mid", "role": "Pad", "articulation": "Sustain", "dynamic_range": "Delicate"}], "seed": null, "instrument": "Piano"}, "layers": {"Piano": [{"bar": 1, "events": [{"step": 2, "note": 60, "vel": 80, "len": 2}, {"step": 5, "note": 68, "vel": 70, "len": 2}]}, {"bar": 2, "events": [{"step": 2, "note": 60, "vel": 80, "len": 2}, {"step": 5, "note": 57, "vel": 70, "len": 2}]}, {"bar": 3, "events": [{"step": 2, "note": 60, "vel": 80, "len": 2}, {"step": 5, "note": 63, "vel": 70, "len": 2}]}, {"bar": 4, "events": [{"step": 2, "note": 63, "vel": 80, "len": 2}, {"step": 5, "note": 67, "vel": 70, "len": 2}]}, {"bar": 5, "events": [{"step": 2, "note": 60, "vel": 80, "len": 2}, {"step": 5, "note": 68, "vel": 70, "len": 2}]}, {"bar": 6, "events": [{"step": 2, "note": 60, "vel": 80, "len": 2}, {"step": 5, "note": 57, "vel": 70, "len": 2}]}, {"bar": 7, "events": [{"step": 2, "note": 60, "vel": 80, "len": 2}, {"step": 5, "note": 63, "vel": 70, "len": 2}]}, {"bar": 8, "events": [{"step": 2, "note": 63, "vel": 80, "len": 2}, {"step": 5, "note": 67, "vel": 70, "len": 2}]}, {"bar": 9, "events": [{"step": 2, "note": 60, "vel": 80, "len": 2}, {"step": 5, "note": 68, "vel": 70, "len": 2}]}, {"bar": 10, "events": [{"step": 2, "note": 60, "vel": 80, "len": 2}, {"step": 5, "note": 57, "vel": 70, "len": 2}]}, {"bar": 11, "events": [{"step": 2, "note": 60, "vel": 80, "len": 2}, {"step": 5, "note": 63, "vel": 70, "len": 2}]}, {"bar": 12, "events": [{"step": 2, "note": 63, "vel": 80, "len": 2}, {"step": 5, "note": 67, "vel": 70, "len": 2}]}, {"bar": 13, "events": [{"step": 2, "note": 60, "vel": 80, "len": 2}, {"step": 5, "note": 68, "vel": 70, "len": 2}]}, {"bar": 14, "events": [{"step": 2, "note": 60, "vel": 80, "len": 2}, {"step": 5, "note": 57, "vel": 70, "len": 2}]}, {"bar": 15, "events": [{"step": 2, "note": 60, "vel": 80, "len": 2}, {"step": 5, "note": 63, "vel": 70, "len": 2}]}, {"bar": 16, "events": [{"step": 2, "note": 63, "vel": 80, "len": 2}, {"step": 5, "note": 67, "vel": 70, "len": 2}]}]}, "pattern": [{"bar": 1, "events": [{"step": 2, "note": 60, "vel": 80, "len": 2}, {"step": 5, "note": 68, "vel": 70, "len": 2}]}, {"bar": 2, "events": [{"step": 2, "note": 60, "vel": 80, "len": 2}, {"step": 5, "note": 57, "vel": 70, "len": 2}]}, {"bar": 3, "events": [{"step": 2, "note": 60, "vel": 80, "len": 2}, {"step": 5, "note": 63, "vel": 70, "len": 2}]}, {"bar": 4, "events": [{"step": 2, "note": 63, "vel": 80, "len": 2}, {"step": 5, "note": 67, "vel": 70, "len": 2}]}, {"bar": 5, "events": [{"step": 2, "note": 60, "vel": 80, "len": 2}, {"step": 5, "note": 68, "vel": 70, "len": 2}]}, {"bar": 6, "events": [{"step": 2, "note": 60, "vel": 80, "len": 2}, {"step": 5, "note": 57, "vel": 70, "len": 2}]}, {"bar": 7, "events": [{"step": 2, "note": 60, "vel": 80, "len": 2}, {"step": 5, "note": 63, "vel": 70, "len": 2}]}, {"bar": 8, "events": [{"step": 2, "note": 63, "vel": 80, "len": 2}, {"step": 5, "note": 67, "vel": 70, "len": 2}]}, {"bar": 9, "events": [{"step": 2, "note": 60, "vel": 80, "len": 2}, {"step": 5, "note": 68, "vel": 70, "len": 2}]}, {"bar": 10, "events": [{"step": 2, "note": 60, "vel": 80, "len": 2}, {"step": 5, "note": 57, "vel": 70, "len": 2}]}, {"bar": 11, "events": [{"step": 2, "note": 60, "vel": 80, "len": 2}, {"step": 5, "note": 63, "vel": 70, "len": 2}]}, {"bar": 12, "events": [{"step": 2, "note": 63, "vel": 80, "len": 2}, {"step": 5, "note": 67, "vel": 70, "len": 2}]}, {"bar": 13, "events": [{"step": 2, "note": 60, "vel": 80, "len": 2}, {"step": 5, "note": 68, "vel": 70, "len": 2}]}, {"bar": 14, "events": [{"step": 2, "note": 60, "vel": 80, "len": 2}, {"step": 5, "note": 57, "vel": 70, "len": 2}]}, {"bar": 15, "events": [{"step": 2, "note": 60, "vel": 80, "len": 2}, {"step": 5, "note": 63, "vel": 70, "len": 2}]}, {"bar": 16, "events": [{"step": 2, "note": 63, "vel": 80, "len": 2}, {"step": 5, "note": 67, "vel": 70, "len": 2}]}]}