{"Kick": {"meta": {"style": "Trap", "mood": "Dark", "tempo": 140, "key": "Fm", "scale": "Minor", "meter": "4/4", "bars": 16, "length_seconds": 30.0, "dynamic_profile": "Compressed", "arrangement_density": "Sparse", "harmonic_color": "Dissonant", "instruments": ["Kick", "Snare", "Clap", "Hat", "Bass", "Piano", "Pads"], "instrument_configs": [{"name": "Kick", "register": "Low", "role": "Percussion", "articulation": "Percussive", "dynamic_range": "Intense"}, {"name": "Snare", "register": "Mid", "role": "Percussion", "articulation": "Percussive", "dynamic_range": "Intense"}, {"name": "Clap", "register": "Mid", "role": "Percussion", "articulation": "Percussive", "dynamic_range": "Moderate"}, {"name": "Hat", "register": "High", "role": "Percussion", "articulation": "Staccato", "dynamic_range": "Moderate"}, {"name": "Bass", "register": "Low", "role": "Bass", "articulation": "Legato", "dynamic_range": "Intense"}, {"name": "Piano", "register": "Mid", "role": "Accompaniment", "articulation": "Sustain", "dynamic_range": "Moderate"}, {"name": "Pads", "register": "Mid", "role": "Pad", "articulation": "Sustain", "dynamic_range": "Delicate"}], "seed": null, "instrument": "Kick"}, "layers": {"Kick": [{"bar": 1, "events": [{"step": 0, "note": 36, "vel": 127, "len": 2}, {"step": 5, "note": 36, "vel": 115, "len": 2}]}, {"bar": 2, "events": [{"step": 0, "note": 36, "vel": 127, "len": 2}, {"step": 3, "note": 36, "vel": 110, "len": 2}, {"step": 5, "note": 36, "vel": 115, "len": 2}]}, {"bar": 3, "events": [{"step": 0, "note": 36, "vel": 127, "len": 2}, {"step": 5, "note": 36, "vel": 115, "len": 2}]}, {"bar": 4, "events": [{"step": 0, "note": 36, "vel": 127, "len": 2}, {"step": 6, "note": 36, "vel": 120, "len": 2}]}, {"bar": 5, "events": [{"step": 0, "note": 36, "vel": 127, "len": 2}, {"step": 5, "note": 36, "vel": 115, "len": 2}]}, {"bar": 6, "events": [{"step": 0, "note": 36, "vel": 127, "len": 2}, {"step": 3, "note": 36, "vel": 110, "len": 2}, {"step": 5, "note": 36, "vel": 115, "len": 2}]}, {"bar": 7, "events": [{"step": 0, "note": 36, "vel": 127, "len": 2}, {"step": 5, "note": 36, "vel": 115, "len": 2}]}, {"bar": 8, "events": [{"step": 0, "note": 36, "vel": 127, "len": 2}, {"step": 6, "note": 36, "vel": 120, "len": 2}]}, {"bar": 9, "events": [{"step": 0, "note": 36, "vel": 127, "len": 2}, {"step": 5, "note": 36, "vel": 115, "len": 2}]}, {"bar": 10, "events": [{"step": 0, "note": 36, "vel": 127, "len": 2}, {"step": 3, "note": 36, "vel": 110, "len": 2}, {"step": 5, "note": 36, "vel": 115, "len": 2}]}, {"bar": 11, "events": [{"step": 0, "note": 36, "vel": 127, "len": 2}, {"step": 5, "note": 36, "vel": 115, "len": 2}]}, {"bar": 12, "events": [{"step": 0, "note": 36, "vel": 127, "len": 2}, {"step": 6, "note": 36, "vel": 120, "len": 2}]}, {"bar": 13, "events": [{"step": 0, "note": 36, "vel": 127, "len": 2}, {"step": 5, "note": 36, "vel": 115, "len": 2}]}, {"bar": 14, "events": [{"step": 0, "note": 36, "vel": 127, "len": 2}, {"step": 3, "note": 36, "vel": 110, "len": 2}, {"step": 5, "note": 36, "vel": 115, "len": 2}]}, {"bar": 15, "events": [{"step": 0, "note": 36, "vel": 127, "len": 2}, {"step": 5, "note": 36, "vel": 115, "len": 2}]}, {"bar": 16, "events": [{"step": 0, "note": 36, "vel": 127, "len": 2}]}]}, "pattern": [{"bar": 1, "events": [{"step": 0, "note": 36, "vel": 127, "len": 2}, {"step": 5, "note": 36, "vel": 115, "len": 2}]}, {"bar": 2, "events": [{"step": 0, "note": 36, "vel": 127, "len": 2}, {"step": 3, "note": 36, "vel": 110, "len": 2}, {"step": 5, "note": 36, "vel": 115, "len": 2}]}, {"bar": 3, "events": [{"step": 0, "note": 36, "vel": 127, "len": 2}, {"step": 5, "note": 36, "vel": 115, "len": 2}]}, {"bar": 4, "events": [{"step": 0, "note": 36, "vel": 127, "len": 2}, {"step": 6, "note": 36, "vel": 120, "len": 2}]}, {"bar": 5, "events": [{"step": 0, "note": 36, "vel": 127, "len": 2}, {"step": 5, "note": 36, "vel": 115, "len": 2}]}, {"bar": 6, "events": [{"step": 0, "note": 36, "vel": 127, "len": 2}, {"step": 3, "note": 36, "vel": 110, "len": 2}, {"step": 5, "note": 36, "vel": 115, "len": 2}]}, {"bar": 7, "events": [{"step": 0, "note": 36, "vel": 127, "len": 2}, {"step": 5, "note": 36, "vel": 115, "len": 2}]}, {"bar": 8, "events": [{"step": 0, "note": 36, "vel": 127, "len": 2}, {"step": 6, "note": 36, "vel": 120, "len": 2}]}, {"bar": 9, "events": [{"step": 0, "note": 36, "vel": 127, "len": 2}, {"step": 5, "note": 36, "vel": 115, "len": 2}]}, {"bar": 10, "events": [{"step": 0, "note": 36, "vel": 127, "len": 2}, {"step": 3, "note": 36, "vel": 110, "len": 2}, {"step": 5, "note": 36, "vel": 115, "len": 2}]}, {"bar": 11, "events": [{"step": 0, "note": 36, "vel": 127, "len": 2}, {"step": 5, "note": 36, "vel": 115, "len": 2}]}, {"bar": 12, "events": [{"step": 0, "note": 36, "vel": 127, "len": 2}, {"step": 6, "note": 36, "vel": 120, "len": 2}]}, {"bar": 13, "events": [{"step": 0, "note": 36, "vel": 127, "len": 2}, {"step": 5, "note": 36, "vel": 115, "len": 2}]}, {"bar": 14, "events": [{"step": 0, "note": 36, "vel": 127, "len": 2}, {"step": 3, "note": 36, "vel": 110, "len": 2}, {"step": 5, "note": 36, "vel": 115, "len": 2}]}, {"bar": 15, "events": [{"step": 0, "note": 36, "vel": 127, "len": 2}, {"step": 5, "note": 36, "vel": 115, "len": 2}]}, {"bar": 16, "events": [{"step": 0, "note": 36, "vel": 127, "len": 2}]}]}, "Snare": {"meta": {"style": "Trap", "mood": "Dark", "tempo": 140, "key": "Fm", "scale": "Minor", "meter": "4/4", "bars": 16, "length_seconds": 30.0, "dynamic_profile": "Compressed", "arrangement_density": "Sparse", "harmonic_color": "Dissonant", "instruments": ["Kick", "Snare", "Clap", "Hat", "Bass", "Piano", "Pads"], "instrument_configs": [{"name": "Kick", "register": "Low", "role": "Percussion", "articulation": "Percussive", "dynamic_range": "Intense"}, {"name": "Snare", "register": "Mid", "role": "Percussion", "articulation": "Percussive", "dynamic_range": "Intense"}, {"name": "Clap", "register": "Mid", "role": "Percussion", "articulation": "Percussive", "dynamic_range": "Moderate"}, {"name": "Hat", "register": "High", "role": "Percussion", "articulation": "Staccato", "dynamic_range": "Moderate"}, {"name": "Bass", "register": "Low", "role": "Bass", "articulation": "Legato", "dynamic_range": "Intense"}, {"name": "Piano", "register": "Mid", "role": "Accompaniment", "articulation": "Sustain", "dynamic_range": "Moderate"}, {"name": "Pads", "register": "Mid", "role": "Pad", "articulation": "Sustain", "dynamic_range": "Delicate"}], "seed": null, "instrument": "Snare"}, "layers": {"Snare": [{"bar": 1, "events": [{"step": 4, "note": 38, "vel": 120, "len": 1}]}, {"bar": 2, "events": [{"step": 4, "note": 38, "vel": 120, "len": 1}]}, {"bar": 3, "events": [{"step": 4, "note": 38, "vel": 120, "len": 1}]}, {"bar": 4, "events": [{"step": 4, "note": 38, "vel": 120, "len": 1}]}, {"bar": 5, "events": [{"step": 4, "note": 38, "vel": 120, "len": 1}]}, {"bar": 6, "events": [{"step": 4, "note": 38, "vel": 120, "len": 1}]}, {"bar": 7, "events": [{"step": 4, "note": 38, "vel": 120, "len": 1}]}, {"bar": 8, "events": [{"step": 4, "note": 38, "vel": 120, "len": 1}]}, {"bar": 9, "events": [{"step": 4, "note": 38, "vel": 120, "len": 1}]}, {"bar": 10, "events": [{"step": 4, "note": 38, "vel": 120, "len": 1}]}, {"bar": 11, "events": [{"step": 4, "note": 38, "vel": 120, "len": 1}]}, {"bar": 12, "events": [{"step": 4, "note": 38, "vel": 120, "len": 1}]}, {"bar": 13, "events": [{"step": 4, "note": 38, "vel": 120, "len": 1}]}, {"bar": 14, "events": [{"step": 4, "note": 38, "vel": 120, "len": 1}]}, {"bar": 15, "events": [{"step": 4, "note": 38, "vel": 120, "len": 1}]}]}, "pattern": [{"bar": 1, "events": [{"step": 4, "note": 38, "vel": 120, "len": 1}]}, {"bar": 2, "events": [{"step": 4, "note": 38, "vel": 120, "len": 1}]}, {"bar": 3, "events": [{"step": 4, "note": 38, "vel": 120, "len": 1}]}, {"bar": 4, "events": [{"step": 4, "note": 38, "vel": 120, "len": 1}]}, {"bar": 5, "events": [{"step": 4, "note": 38, "vel": 120, "len": 1}]}, {"bar": 6, "events": [{"step": 4, "note": 38, "vel": 120, "len": 1}]}, {"bar": 7, "events": [{"step": 4, "note": 38, "vel": 120, "len": 1}]}, {"bar": 8, "events": [{"step": 4, "note": 38, "vel": 120, "len": 1}]}, {"bar": 9, "events": [{"step": 4, "note": 38, "vel": 120, "len": 1}]}, {"bar": 10, "events": [{"step": 4, "note": 38, "vel": 120, "len": 1}]}, {"bar": 11, "events": [{"step": 4, "note": 38, "vel": 120, "len": 1}]}, {"bar": 12, "events": [{"step": 4, "note": 38, "vel": 120, "len": 1}]}, {"bar": 13, "events": [{"step": 4, "note": 38, "vel": 120, "len": 1}]}, {"bar": 14, "events": [{"step": 4, "note": 38, "vel": 120, "len": 1}]}, {"bar": 15, "events": [{"step": 4, "note": 38, "vel": 120, "len": 1}]}]}, "Clap": {"meta": {"style": "Trap", "mood": "Dark", "tempo": 140, "key": "Fm", "scale": "Minor", "meter": "4/4", "bars": 16, "length_seconds": 30.0, "dynamic_profile": "Compressed", "arrangement_density": "Sparse", "harmonic_color": "Dissonant", "instruments": ["Kick", "Snare", "Clap", "Hat", "Bass", "Piano", "Pads"], "instrument_configs": [{"name": "Kick", "register": "Low", "role": "Percussion", "articulation": "Percussive", "dynamic_range": "Intense"}, {"name": "Snare", "register": "Mid", "role": "Percussion", "articulation": "Percussive", "dynamic_range": "Intense"}, {"name": "Clap", "register": "Mid", "role": "Percussion", "articulation": "Percussive", "dynamic_range": "Moderate"}, {"name": "Hat", "register": "High", "role": "Percussion", "articulation": "Staccato", "dynamic_range": "Moderate"}, {"name": "Bass", "register": "Low", "role": "Bass", "articulation": "Legato", "dynamic_range": "Intense"}, {"name": "Piano", "register": "Mid", "role": "Accompaniment", "articulation": "Sustain", "dynamic_range": "Moderate"}, {"name": "Pads", "register": "Mid", "role": "Pad", "articulation": "Sustain", "dynamic_range": "Delicate"}], "seed": null, "instrument": "Clap"}, "layers": {"Clap": [{"bar": 4, "events": [{"step": 4, "note": 39, "vel": 95, "len": 1}]}, {"bar": 8, "events": [{"step": 4, "note": 39, "vel": 95, "len": 1}]}, {"bar": 12, "events": [{"step": 4, "note": 39, "vel": 95, "len": 1}]}, {"bar": 15, "events": [{"step": 4, "note": 39, "vel": 95, "len": 1}]}]}, "pattern": [{"bar": 4, "events": [{"step": 4, "note": 39, "vel": 95, "len": 1}]}, {"bar": 8, "events": [{"step": 4, "note": 39, "vel": 95, "len": 1}]}, {"bar": 12, "events": [{"step": 4, "note": 39, "vel": 95, "len": 1}]}, {"bar": 15, "events": [{"step": 4, "note": 39, "vel": 95, "len": 1}]}]}, "Hat": {"meta": {"style": "Trap", "mood": "Dark", "tempo": 140, "key": "Fm", "scale": "Minor", "meter": "4/4", "bars": 16, "length_seconds": 30.0, "dynamic_profile": "Compressed", "arrangement_density": "Sparse", "harmonic_color": "Dissonant", "instruments": ["Kick", "Snare", "Clap", "Hat", "Bass", "Piano", "Pads"], "instrument_configs": [{"name": "Kick", "register": "Low", "role": "Percussion", "articulation": "Percussive", "dynamic_range": "Intense"}, {"name": "Snare", "register": "Mid", "role": "Percussion", "articulation": "Percussive", "dynamic_range": "Intense"}, {"name": "Clap", "register": "Mid", "role": "Percussion", "articulation": "Percussive", "dynamic_range": "Moderate"}, {"name": "Hat", "register": "High", "role": "Percussion", "articulation": "Staccato", "dynamic_range": "Moderate"}, {"name": "Bass", "register": "Low", "role": "Bass", "articulation": "Legato", "dynamic_range": "Intense"}, {"name": "Piano", "register": "Mid", "role": "Accompaniment", "articulation": "Sustain", "dynamic_range": "Moderate"}, {"name": "Pads", "register": "Mid", "role": "Pad", "articulation": "Sustain", "dynamic_range": "Delicate"}], "seed": null, "instrument": "Hat"}, "layers": {"Hat": [{"bar": 1, "events": [{"step": 0, "note": 42, "vel": 90, "len": 1}, {"step": 1, "note": 42, "vel": 75, "len": 1}, {"step": 2, "note": 42, "vel": 90, "len": 1}, {"step": 3, "note": 42, "vel": 75, "len": 1}, {"step": 4, "note": 42, "vel": 95, "len": 1}, {"step": 5, "note": 42, "vel": 75, "len": 1}, {"step": 6, "note": 42, "vel": 90, "len": 1}, {"step": 7, "note": 42, "vel": 75, "len": 1}]}, {"bar": 2, "events": [{"step": 0, "note": 42, "vel": 90, "len": 1}, {"step": 1, "note": 42, "vel": 75, "len": 1}, {"step": 2, "note": 42, "vel": 90, "len": 1}, {"step": 3, "note": 42, "vel": 75, "len": 1}, {"step": 4, "note": 42, "vel": 95, "len": 1}, {"step": 5, "note": 42, "vel": 75, "len": 1}, {"step": 6, "note": 42, "vel": 90, "len": 1}, {"step": 7, "note": 42, "vel": 75, "len": 1}]}, {"bar": 3, "events": [{"step": 0, "note": 42, "vel": 90, "len": 1}, {"step": 1, "note": 42, "vel": 75, "len": 1}, {"step": 2, "note": 42, "vel": 90, "len": 1}, {"step": 3, "note": 42, "vel": 75, "len": 1}, {"step": 4, "note": 42, "vel": 95, "len": 1}, {"step": 5, "note": 42, "vel": 75, "len": 1}, {"step": 6, "note": 42, "vel": 90, "len": 1}, {"step": 7, "note": 42, "vel": 75, "len": 1}]}, {"bar": 4, "events": [{"step": 0, "note": 42, "vel": 90, "len": 1}, {"step": 1, "note": 42, "vel": 75, "len": 1}, {"step": 2, "note": 42, "vel": 90, "len": 1}, {"step": 3, "note": 42, "vel": 75, "len": 1}, {"step": 4, "note": 42, "vel": 95, "len": 1}, {"step": 5, "note": 42, "vel": 75, "len": 1}, {"step": 6, "note": 42, "vel": 90, "len": 1}, {"step": 7, "note": 42, "vel": 75, "len": 1}]}, {"bar": 5, "events": [{"step": 0, "note": 42, "vel": 90, "len": 1}, {"step": 2, "note": 42, "vel": 90, "len": 1}, {"step": 3, "note": 42, "vel": 80, "len": 1}, {"step": 4, "note": 42, "vel": 95, "len": 1}, {"step": 6, "note": 42, "vel": 90, "len": 1}, {"step": 7, "note": 42, "vel": 80, "len": 1}]}, {"bar": 6, "events": [{"step": 0, "note": 42, "vel": 90, "len": 1}, {"step": 2, "note": 42, "vel": 90, "len": 1}, {"step": 3, "note": 42, "vel": 80, "len": 1}, {"step": 4, "note": 42, "vel": 95, "len": 1}, {"step": 6, "note": 42, "vel": 90, "len": 1}, {"step": 7, "note": 42, "vel": 80, "len": 1}]}, {"bar": 7, "events": [{"step": 0, "note": 42, "vel": 90, "len": 1}, {"step": 2, "note": 42, "vel": 90, "len": 1}, {"step": 3, "note": 42, "vel": 80, "len": 1}, {"step": 4, "note": 42, "vel": 95, "len": 1}, {"step": 6, "note": 42, "vel": 90, "len": 1}, {"step": 7, "note": 42, "vel": 80, "len": 1}]}, {"bar": 8, "events": [{"step": 0, "note": 42, "vel": 90, "len": 1}, {"step": 2, "note": 42, "vel": 90, "len": 1}, {"step": 3, "note": 42, "vel": 80, "len": 1}, {"step": 4, "note": 42, "vel": 95, "len": 1}, {"step": 6, "note": 42, "vel": 90, "len": 1}, {"step": 7, "note": 42, "vel": 80, "len": 1}]}, {"bar": 9, "events": [{"step": 0, "note": 42, "vel": 90, "len": 1}, {"step": 1, "note": 42, "vel": 70, "len": 1}, {"step": 3, "note": 42, "vel": 80, "len": 1}, {"step": 4, "note": 42, "vel": 95, "len": 1}, {"step": 5, "note": 42, "vel": 70, "len": 1}, {"step": 6, "note": 42, "vel": 90, "len": 1}]}, {"bar": 10, "events": [{"step": 0, "note": 42, "vel": 90, "len": 1}, {"step": 1, "note": 42, "vel": 70, "len": 1}, {"step": 3, "note": 42, "vel": 80, "len": 1}, {"step": 4, "note": 42, "vel": 95, "len": 1}, {"step": 5, "note": 42, "vel": 70, "len": 1}, {"step": 6, "note": 42, "vel": 90, "len": 1}]}, {"bar": 11, "events": [{"step": 0, "note": 42, "vel": 90, "len": 1}, {"step": 1, "note": 42, "vel": 70, "len": 1}, {"step": 3, "note": 42, "vel": 80, "len": 1}, {"step": 4, "note": 42, "vel": 95, "len": 1}, {"step": 5, "note": 42, "vel": 70, "len": 1}, {"step": 6, "note": 42, "vel": 90, "len": 1}]}, {"bar": 12, "events": [{"step": 0, "note": 42, "vel": 90, "len": 1}, {"step": 1, "note": 42, "vel": 70, "len": 1}, {"step": 3, "note": 42, "vel": 80, "len": 1}, {"step": 4, "note": 42, "vel": 95, "len": 1}, {"step": 5, "note": 42, "vel": 70, "len": 1}, {"step": 6, "note": 42, "vel": 90, "len": 1}]}, {"bar": 13, "events": [{"step": 0, "note": 42, "vel": 90, "len": 1}, {"step": 1, "note": 42, "vel": 70, "len": 1}, {"step": 3, "note": 42, "vel": 80, "len": 1}, {"step": 4, "note": 42, "vel": 95, "len": 1}, {"step": 5, "note": 42, "vel": 70, "len": 1}, {"step": 6, "note": 42, "vel": 90, "len": 1}]}, {"bar": 14, "events": [{"step": 0, "note": 42, "vel": 90, "len": 1}, {"step": 1, "note": 42, "vel": 70, "len": 1}, {"step": 3, "note": 42, "vel": 80, "len": 1}, {"step": 4, "note": 42, "vel": 95, "len": 1}, {"step": 5, "note": 42, "vel": 70, "len": 1}, {"step": 6, "note": 42, "vel": 90, "len": 1}]}, {"bar": 15, "events": [{"step": 0, "note": 42, "vel": 90, "len": 1}, {"step": 1, "note": 42, "vel": 70, "len": 1}, {"step": 3, "note": 42, "vel": 80, "len": 1}, {"step": 4, "note": 42, "vel": 95, "len": 1}, {"step": 5, "note": 42, "vel": 70, "len": 1}, {"step": 6, "note": 42, "vel": 90, "len": 1}]}]}, "pattern": [{"bar": 1, "events": [{"step": 0, "note": 42, "vel": 90, "len": 1}, {"step": 1, "note": 42, "vel": 75, "len": 1}, {"step": 2, "note": 42, "vel": 90, "len": 1}, {"step": 3, "note": 42, "vel": 75, "len": 1}, {"step": 4, "note": 42, "vel": 95, "len": 1}, {"step": 5, "note": 42, "vel": 75, "len": 1}, {"step": 6, "note": 42, "vel": 90, "len": 1}, {"step": 7, "note": 42, "vel": 75, "len": 1}]}, {"bar": 2, "events": [{"step": 0, "note": 42, "vel": 90, "len": 1}, {"step": 1, "note": 42, "vel": 75, "len": 1}, {"step": 2, "note": 42, "vel": 90, "len": 1}, {"step": 3, "note": 42, "vel": 75, "len": 1}, {"step": 4, "note": 42, "vel": 95, "len": 1}, {"step": 5, "note": 42, "vel": 75, "len": 1}, {"step": 6, "note": 42, "vel": 90, "len": 1}, {"step": 7, "note": 42, "vel": 75, "len": 1}]}, {"bar": 3, "events": [{"step": 0, "note": 42, "vel": 90, "len": 1}, {"step": 1, "note": 42, "vel": 75, "len": 1}, {"step": 2, "note": 42, "vel": 90, "len": 1}, {"step": 3, "note": 42, "vel": 75, "len": 1}, {"step": 4, "note": 42, "vel": 95, "len": 1}, {"step": 5, "note": 42, "vel": 75, "len": 1}, {"step": 6, "note": 42, "vel": 90, "len": 1}, {"step": 7, "note": 42, "vel": 75, "len": 1}]}, {"bar": 4, "events": [{"step": 0, "note": 42, "vel": 90, "len": 1}, {"step": 1, "note": 42, "vel": 75, "len": 1}, {"step": 2, "note": 42, "vel": 90, "len": 1}, {"step": 3, "note": 42, "vel": 75, "len": 1}, {"step": 4, "note": 42, "vel": 95, "len": 1}, {"step": 5, "note": 42, "vel": 75, "len": 1}, {"step": 6, "note": 42, "vel": 90, "len": 1}, {"step": 7, "note": 42, "vel": 75, "len": 1}]}, {"bar": 5, "events": [{"step": 0, "note": 42, "vel": 90, "len": 1}, {"step": 2, "note": 42, "vel": 90, "len": 1}, {"step": 3, "note": 42, "vel": 80, "len": 1}, {"step": 4, "note": 42, "vel": 95, "len": 1}, {"step": 6, "note": 42, "vel": 90, "len": 1}, {"step": 7, "note": 42, "vel": 80, "len": 1}]}, {"bar": 6, "events": [{"step": 0, "note": 42, "vel": 90, "len": 1}, {"step": 2, "note": 42, "vel": 90, "len": 1}, {"step": 3, "note": 42, "vel": 80, "len": 1}, {"step": 4, "note": 42, "vel": 95, "len": 1}, {"step": 6, "note": 42, "vel": 90, "len": 1}, {"step": 7, "note": 42, "vel": 80, "len": 1}]}, {"bar": 7, "events": [{"step": 0, "note": 42, "vel": 90, "len": 1}, {"step": 2, "note": 42, "vel": 90, "len": 1}, {"step": 3, "note": 42, "vel": 80, "len": 1}, {"step": 4, "note": 42, "vel": 95, "len": 1}, {"step": 6, "note": 42, "vel": 90, "len": 1}, {"step": 7, "note": 42, "vel": 80, "len": 1}]}, {"bar": 8, "events": [{"step": 0, "note": 42, "vel": 90, "len": 1}, {"step": 2, "note": 42, "vel": 90, "len": 1}, {"step": 3, "note": 42, "vel": 80, "len": 1}, {"step": 4, "note": 42, "vel": 95, "len": 1}, {"step": 6, "note": 42, "vel": 90, "len": 1}, {"step": 7, "note": 42, "vel": 80, "len": 1}]}, {"bar": 9, "events": [{"step": 0, "note": 42, "vel": 90, "len": 1}, {"step": 1, "note": 42, "vel": 70, "len": 1}, {"step": 3, "note": 42, "vel": 80, "len": 1}, {"step": 4, "note": 42, "vel": 95, "len": 1}, {"step": 5, "note": 42, "vel": 70, "len": 1}, {"step": 6, "note": 42, "vel": 90, "len": 1}]}, {"bar": 10, "events": [{"step": 0, "note": 42, "vel": 90, "len": 1}, {"step": 1, "note": 42, "vel": 70, "len": 1}, {"step": 3, "note": 42, "vel": 80, "len": 1}, {"step": 4, "note": 42, "vel": 95, "len": 1}, {"step": 5, "note": 42, "vel": 70, "len": 1}, {"step": 6, "note": 42, "vel": 90, "len": 1}]}, {"bar": 11, "events": [{"step": 0, "note": 42, "vel": 90, "len": 1}, {"step": 1, "note": 42, "vel": 70, "len": 1}, {"step": 3, "note": 42, "vel": 80, "len": 1}, {"step": 4, "note": 42, "vel": 95, "len": 1}, {"step": 5, "note": 42, "vel": 70, "len": 1}, {"step": 6, "note": 42, "vel": 90, "len": 1}]}, {"bar": 12, "events": [{"step": 0, "note": 42, "vel": 90, "len": 1}, {"step": 1, "note": 42, "vel": 70, "len": 1}, {"step": 3, "note": 42, "vel": 80, "len": 1}, {"step": 4, "note": 42, "vel": 95, "len": 1}, {"step": 5, "note": 42, "vel": 70, "len": 1}, {"step": 6, "note": 42, "vel": 90, "len": 1}]}, {"bar": 13, "events": [{"step": 0, "note": 42, "vel": 90, "len": 1}, {"step": 1, "note": 42, "vel": 70, "len": 1}, {"step": 3, "note": 42, "vel": 80, "len": 1}, {"step": 4, "note": 42, "vel": 95, "len": 1}, {"step": 5, "note": 42, "vel": 70, "len": 1}, {"step": 6, "note": 42, "vel": 90, "len": 1}]}, {"bar": 14, "events": [{"step": 0, "note": 42, "vel": 90, "len": 1}, {"step": 1, "note": 42, "vel": 70, "len": 1}, {"step": 3, "note": 42, "vel": 80, "len": 1}, {"step": 4, "note": 42, "vel": 95, "len": 1}, {"step": 5, "note": 42, "vel": 70, "len": 1}, {"step": 6, "note": 42, "vel": 90, "len": 1}]}, {"bar": 15, "events": [{"step": 0, "note": 42, "vel": 90, "len": 1}, {"step": 1, "note": 42, "vel": 70, "len": 1}, {"step": 3, "note": 42, "vel": 80, "len": 1}, {"step": 4, "note": 42, "vel": 95, "len": 1}, {"step": 5, "note": 42, "vel": 70, "len": 1}, {"step": 6, "note": 42, "vel": 90, "len": 1}]}]}, "Bass": {"meta": {"style": "Trap", "mood": "Dark", "tempo": 140, "key": "Fm", "scale": "Minor", "meter": "4/4", "bars": 16, "length_seconds": 30.0, "dynamic_profile": "Compressed", "arrangement_density": "Sparse", "harmonic_color": "Dissonant", "instruments": ["Kick", "Snare", "Clap", "Hat", "Bass", "Piano", "Pads"], "instrument_configs": [{"name": "Kick", "register": "Low", "role": "Percussion", "articulation": "Percussive", "dynamic_range": "Intense"}, {"name": "Snare", "register": "Mid", "role": "Percussion", "articulation": "Percussive", "dynamic_range": "Intense"}, {"name": "Clap", "register": "Mid", "role": "Percussion", "articulation": "Percussive", "dynamic_range": "Moderate"}, {"name": "Hat", "register": "High", "role": "Percussion", "articulation": "Staccato", "dynamic_range": "Moderate"}, {"name": "Bass", "register": "Low", "role": "Bass", "articulation": "Legato", "dynamic_range": "Intense"}, {"name": "Piano", "register": "Mid", "role": "Accompaniment", "articulation": "Sustain", "dynamic_range": "Moderate"}, {"name": "Pads", "register": "Mid", "role": "Pad", "articulation": "Sustain", "dynamic_range": "Delicate"}], "seed": null, "instrument": "Bass"}, "layers": {"Bass": [{"bar": 5, "events": [{"step": 0, "note": 29, "vel": 120, "len": 8}]}, {"bar": 6, "events": [{"step": 0, "note": 37, "vel": 120, "len": 8}]}, {"bar": 7, "events": [{"step": 0, "note": 32, "vel": 120, "len": 8}]}, {"bar": 8, "events": [{"step": 0, "note": 36, "vel": 120, "len": 8}]}, {"bar": 9, "events": [{"step": 0, "note": 29, "vel": 120, "len": 8}]}, {"bar": 10, "events": [{"step": 0, "note": 37, "vel": 120, "len": 8}]}, {"bar": 11, "events": [{"step": 0, "note": 32, "vel": 120, "len": 8}]}, {"bar": 12, "events": [{"step": 0, "note": 36, "vel": 120, "len": 8}]}, {"bar": 13, "events": [{"step": 0, "note": 29, "vel": 120, "len": 8}]}, {"bar": 14, "events": [{"step": 0, "note": 37, "vel": 120, "len": 8}]}, {"bar": 15, "events": [{"step": 0, "note": 32, "vel": 120, "len": 8}]}, {"bar": 16, "events": [{"step": 0, "note": 36, "vel": 120, "len": 8}]}]}, "pattern": [{"bar": 5, "events": [{"step": 0, "note": 29, "vel": 120, "len": 8}]}, {"bar": 6, "events": [{"step": 0, "note": 37, "vel": 120, "len": 8}]}, {"bar": 7, "events": [{"step": 0, "note": 32, "vel": 120, "len": 8}]}, {"bar": 8, "events": [{"step": 0, "note": 36, "vel": 120, "len": 8}]}, {"bar": 9, "events": [{"step": 0, "note": 29, "vel": 120, "len": 8}]}, {"bar": 10, "events": [{"step": 0, "note": 37, "vel": 120, "len": 8}]}, {"bar": 11, "events": [{"step": 0, "note": 32, "vel": 120, "len": 8}]}, {"bar": 12, "events": [{"step": 0, "note": 36, "vel": 120, "len": 8}]}, {"bar": 13, "events": [{"step": 0, "note": 29, "vel": 120, "len": 8}]}, {"bar": 14, "events": [{"step": 0, "note": 37, "vel": 120, "len": 8}]}, {"bar": 15, "events": [{"step": 0, "note": 32, "vel": 120, "len": 8}]}, {"bar": 16, "events": [{"step": 0, "note": 36, "vel": 120, "len": 8}]}]}, "Piano": {"meta": {"style": "Trap", "mood": "Dark", "tempo": 140, "key": "Fm", "scale": "Minor", "meter": "4/4", "bars": 16, "length_seconds": 30.0, "dynamic_profile": "Compressed", "arrangement_density": "Sparse", "harmonic_color": "Dissonant", "instruments": ["Kick", "Snare", "Clap", "Hat", "Bass", "Piano", "Pads"], "instrument_configs": [{"name": "Kick", "register": "Low", "role": "Percussion", "articulation": "Percussive", "dynamic_range": "Intense"}, {"name": "Snare", "register": "Mid", "role": "Percussion", "articulation": "Percussive", "dynamic_range": "Intense"}, {"name": "Clap", "register": "Mid", "role": "Percussion", "articulation": "Percussive", "dynamic_range": "Moderate"}, {"name": "Hat", "register": "High", "role": "Percussion", "articulation": "Staccato", "dynamic_range": "Moderate"}, {"name": "Bass", "register": "Low", "role": "Bass", "articulation": "Legato", "dynamic_range": "Intense"}, {"name": "Piano", "register": "Mid", "role": "Accompaniment", "articulation": "Sustain", "dynamic_range": "Moderate"}, {"name": "Pads", "register": "Mid", "role": "Pad", "articulation": "Sustain", "dynamic_range": "Delicate"}], "seed": null, "instrument": "Piano"}, "layers": {"Piano": [{"bar": 1, "events": [{"step": 2, "note": 60, "vel": 80, "len": 2}, {"step": 5, "note": 68, "vel": 70, "len": 2}]}, {"bar": 2, "events": [{"step": 2, "note": 60, "vel": 80, "len": 2}, {"step": 5, "note": 57, "vel": 70, "len": 2}]}, {"bar": 3, "events": [{"step": 2, "note": 60, "vel": 80, "len": 2}, {"step": 5, "note": 63, "vel": 70, "len": 2}]}, {"bar": 4, "events": [{"step": 2, "note": 63, "vel": 80, "len": 2}, {"step": 5, "note": 67, "vel": 70, "len": 2}]}, {"bar": 5, "events": [{"step": 2, "note": 60, "vel": 80, "len": 2}, {"step": 5, "note": 68, "vel": 70, "len": 2}]}, {"bar": 6, "events": [{"step": 2, "note": 60, "vel": 80, "len": 2}, {"step": 5, "note": 57, "vel": 70, "len": 2}]}, {"bar": 7, "events": [{"step": 2, "note": 60, "vel": 80, "len": 2}, {"step": 5, "note": 63, "vel": 70, "len": 2}]}, {"bar": 8, "events": [{"step": 2, "note": 63, "vel": 80, "len": 2}, {"step": 5, "note": 67, "vel": 70, "len": 2}]}, {"bar": 9, "events": [{"step": 2, "note": 60, "vel": 80, "len": 2}, {"step": 5, "note": 68, "vel": 70, "len": 2}]}, {"bar": 10, "events": [{"step": 2, "note": 60, "vel": 80, "len": 2}, {"step": 5, "note": 57, "vel": 70, "len": 2}]}, {"bar": 11, "events": [{"step": 2, "note": 60, "vel": 80, "len": 2}, {"step": 5, "note": 63, "vel": 70, "len": 2}]}, {"bar": 12, "events": [{"step": 2, "note": 63, "vel": 80, "len": 2}, {"step": 5, "note": 67, "vel": 70, "len": 2}]}, {"bar": 13, "events": [{"step": 2, "note": 60, "vel": 80, "len": 2}, {"step": 5, "note": 68, "vel": 70, "len": 2}]}, {"bar": 14, "events": [{"step": 2, "note": 60, "vel": 80, "len": 2}, {"step": 5, "note": 57, "vel": 70, "len": 2}]}, {"bar": 15, "events": [{"step": 2, "note": 60, "vel": 80, "len": 2}, {"step": 5, "note": 63, "vel": 70, "len": 2}]}, {"bar": 16, "events": [{"step": 2, "note": 63, "vel": 80, "len": 2}, {"step": 5, "note": 67, "vel": 70, "len": 2}]}]}, "pattern": [{"bar": 1, "events": [{"step": 2, "note": 60, "vel": 80, "len": 2}, {"step": 5, "note": 68, "vel": 70, "len": 2}]}, {"bar": 2, "events": [{"step": 2, "note": 60, "vel": 80, "len": 2}, {"step": 5, "note": 57, "vel": 70, "len": 2}]}, {"bar": 3, "events": [{"step": 2, "note": 60, "vel": 80, "len": 2}, {"step": 5, "note": 63, "vel": 70, "len": 2}]}, {"bar": 4, "events": [{"step": 2, "note": 63, "vel": 80, "len": 2}, {"step": 5, "note": 67, "vel": 70, "len": 2}]}, {"bar": 5, "events": [{"step": 2, "note": 60, "vel": 80, "len": 2}, {"step": 5, "note": 68, "vel": 70, "len": 2}]}, {"bar": 6, "events": [{"step": 2, "note": 60, "vel": 80, "len": 2}, {"step": 5, "note": 57, "vel": 70, "len": 2}]}, {"bar": 7, "events": [{"step": 2, "note": 60, "vel": 80, "len": 2}, {"step": 5, "note": 63, "vel": 70, "len": 2}]}, {"bar": 8, "events": [{"step": 2, "note": 63, "vel": 80, "len": 2}, {"step": 5, "note": 67, "vel": 70, "len": 2}]}, {"bar": 9, "events": [{"step": 2, "note": 60, "vel": 80, "len": 2}, {"step": 5, "note": 68, "vel": 70, "len": 2}]}, {"bar": 10, "events": [{"step": 2, "note": 60, "vel": 80, "len": 2}, {"step": 5, "note": 57, "vel": 70, "len": 2}]}, {"bar": 11, "events": [{"step": 2, "note": 60, "vel": 80, "len": 2}, {"step": 5, "note": 63, "vel": 70, "len": 2}]}, {"bar": 12, "events": [{"step": 2, "note": 63, "vel": 80, "len": 2}, {"step": 5, "note": 67, "vel": 70, "len": 2}]}, {"bar": 13, "events": [{"step": 2, "note": 60, "vel": 80, "len": 2}, {"step": 5, "note": 68, "vel": 70, "len": 2}]}, {"bar": 14, "events": [{"step": 2, "note": 60, "vel": 80, "len": 2}, {"step": 5, "note": 57, "vel": 70, "len": 2}]}, {"bar": 15, "events": [{"step": 2, "note": 60, "vel": 80, "len": 2}, {"step": 5, "note": 63, "vel": 70, "len": 2}]}, {"bar": 16, "events": [{"step": 2, "note": 63, "vel": 80, "len": 2}, {"step": 5, "note": 67, "vel": 70, "len": 2}]}]}, "Pads": {"meta": {"style": "Trap", "mood": "Dark", "tempo": 140, "key": "Fm", "scale": "Minor", "meter": "4/4", "bars": 16, "length_seconds": 30.0, "dynamic_profile": "Compressed", "arrangement_density": "Sparse", "harmonic_color": "Dissonant", "instruments": ["Kick", "Snare", "Clap", "Hat", "Bass", "Piano", "Pads"], "instrument_configs": [{"name": "Kick", "register": "Low", "role": "Percussion", "articulation": "Percussive", "dynamic_range": "Intense"}, {"name": "Snare", "register": "Mid", "role": "Percussion", "articulation": "Percussive", "dynamic_range": "Intense"}, {"name": "Clap", "register": "Mid", "role": "Percussion", "articulation": "Percussive", "dynamic_range": "Moderate"}, {"name": "Hat", "register": "High", "role": "Percussion", "articulation": "Staccato", "dynamic_range": "Moderate"}, {"name": "Bass", "register": "Low", "role": "Bass", "articulation": "Legato", "dynamic_range": "Intense"}, {"name": "Piano", "register": "Mid", "role": "Accompaniment", "articulation": "Sustain", "dynamic_range": "Moderate"}, {"name": "Pads", "register": "Mid", "role": "Pad", "articulation": "Sustain", "dynamic_range": "Delicate"}], "seed": null, "instrument": "Pads"}, "layers": {"Pads": [{"bar": 9, "events": [{"step": 0, "note": 53, "vel": 45, "len": 8}, {"step": 0, "note": 55, "vel": 45, "len": 8}]}, {"bar": 10, "events": [{"step": 0, "note": 57, "vel": 45, "len": 8}, {"step": 0, "note": 59, "vel": 45, "len": 8}]}, {"bar": 11, "events": [{"step": 0, "note": 56, "vel": 45, "len": 8}, {"step": 0, "note": 58, "vel": 45, "len": 8}]}, {"bar": 12, "events": [{"step": 0, "note": 60, "vel": 45, "len": 8}, {"step": 0, "note": 61, "vel": 45, "len": 8}]}, {"bar": 13, "events": [{"step": 0, "note": 53, "vel": 45, "len": 8}, {"step": 0, "note": 55, "vel": 45, "len": 8}]}, {"bar": 14, "events": [{"step": 0, "note": 57, "vel": 45, "len": 8}, {"step": 0, "note": 59, "vel": 45, "len": 8}]}, {"bar": 15, "events": [{"step": 0, "note": 56, "vel": 45, "len": 8}, {"step": 0, "note": 58, "vel": 45, "len": 8}]}, {"bar": 16, "events": [{"step": 0, "note": 60, "vel": 45, "len": 8}, {"step": 0, "note": 61, "vel": 45, "len": 8}]}]}, "pattern": [{"bar": 9, "events": [{"step": 0, "note": 53, "vel": 45, "len": 8}, {"step": 0, "note": 55, "vel": 45, "len": 8}]}, {"bar": 10, "events": [{"step": 0, "note": 57, "vel": 45, "len": 8}, {"step": 0, "note": 59, "vel": 45, "len": 8}]}, {"bar": 11, "events": [{"step": 0, "note": 56, "vel": 45, "len": 8}, {"step": 0, "note": 58, "vel": 45, "len": 8}]}, {"bar": 12, "events": [{"step": 0, "note": 60, "vel": 45, "len": 8}, {"step": 0, "note": 61, "vel": 45, "len": 8}]}, {"bar": 13, "events": [{"step": 0, "note": 53, "vel": 45, "len": 8}, {"step": 0, "note": 55, "vel": 45, "len": 8}]}, {"bar": 14, "events": [{"step": 0, "note": 57, "vel": 45, "len": 8}, {"step": 0, "note": 59, "vel": 45, "len": 8}]}, {"bar": 15, "events": [{"step": 0, "note": 56, "vel": 45, "len": 8}, {"step": 0, "note": 58, "vel": 45, "len": 8}]}, {"bar": 16, "events": [{"step": 0, "note": 60, "vel": 45, "len": 8}, {"step": 0, "note": 61, "vel": 45, "len": 8}]}]}}