{"meta": {"status": "success", "tempo": 125, "key": "E", "scale": "Minor", "style": "Alternative Rock", "mood": "Energetic", "meter": "4/4", "dynamic_profile": "High Contrast", "arrangement_density": "Dense", "harmonic_color": "Distorted", "length_seconds": 165.0, "bars": 86, "instrument_configs": [{"name": "Electric Guitar", "register": "High", "role": "Lead", "articulation": "Legato", "dynamic_range": "Intense"}, {"name": "Bass Guitar", "register": "Low", "role": "Bass", "articulation": "Pizzicato", "dynamic_range": "Moderate"}, {"name": "Kick", "register": "Sub", "role": "Percussion", "articulation": "Percussive", "dynamic_range": "Intense"}, {"name": "Snare", "register": "Mid", "role": "Percussion", "articulation": "Percussive", "dynamic_range": "Intense"}, {"name": "Hat", "register": "High", "role": "Percussion", "articulation": "Percussive", "dynamic_range": "Moderate"}, {"name": "Crash", "register": "Very High", "role": "Percussion", "articulation": "Sustain", "dynamic_range": "Fortissimo"}, {"name": "Ride", "register": "High", "role": "Percussion", "articulation": "Sustain", "dynamic_range": "Moderate"}, {"name": "Tom", "register": "Low", "role": "Percussion", "articulation": "Percussive", "dynamic_range": "Intense"}], "instruments": ["Electric Guitar", "Bass Guitar", "Kick", "Snare", "Hat", "Crash", "Ride", "Tom"], "instrument": "Electric Guitar"}, "layers": {"Electric Guitar": [{"bar": 1, "events": [{"step": 0, "note": 52, "vel": 110, "len": 2}, {"step": 0, "note": 59, "vel": 105, "len": 2}, {"step": 2, "note": 52, "vel": 90, "len": 1}, {"step": 3, "note": 52, "vel": 85, "len": 1}, {"step": 4, "note": 55, "vel": 115, "len": 2}, {"step": 4, "note": 62, "vel": 110, "len": 2}, {"step": 6, "note": 57, "vel": 110, "len": 2}, {"step": 6, "note": 64, "vel": 105, "len": 2}]}, {"bar": 2, "events": [{"step": 0, "note": 52, "vel": 110, "len": 2}, {"step": 0, "note": 59, "vel": 105, "len": 2}, {"step": 2, "note": 55, "vel": 100, "len": 1}, {"step": 3, "note": 57, "vel": 100, "len": 1}, {"step": 4, "note": 52, "vel": 115, "len": 2}, {"step": 4, "note": 64, "vel": 110, "len": 2}, {"step": 6, "note": 52, "vel": 90, "len": 1}, {"step": 7, "note": 50, "vel": 85, "len": 1}]}, {"bar": 3, "events": [{"step": 0, "note": 60, "vel": 115, "len": 4}, {"step": 0, "note": 67, "vel": 110, "len": 4}, {"step": 0, "note": 72, "vel": 105, "len": 4}, {"step": 4, "note": 60, "vel": 100, "len": 2}, {"step": 4, "note": 67, "vel": 95, "len": 2}, {"step": 6, "note": 60, "vel": 90, "len": 2}]}, {"bar": 4, "events": [{"step": 0, "note": 62, "vel": 115, "len": 2}, {"step": 0, "note": 69, "vel": 110, "len": 2}, {"step": 2, "note": 62, "vel": 100, "len": 1}, {"step": 3, "note": 64, "vel": 105, "len": 1}, {"step": 4, "note": 59, "vel": 112, "len": 2}, {"step": 4, "note": 66, "vel": 108, "len": 2}, {"step": 6, "note": 55, "vel": 100, "len": 1}, {"step": 7, "note": 52, "vel": 95, "len": 1}]}]}, "pattern": [{"bar": 1, "events": [{"step": 0, "note": 52, "vel": 110, "len": 2}, {"step": 0, "note": 59, "vel": 105, "len": 2}, {"step": 2, "note": 52, "vel": 90, "len": 1}, {"step": 3, "note": 52, "vel": 85, "len": 1}, {"step": 4, "note": 55, "vel": 115, "len": 2}, {"step": 4, "note": 62, "vel": 110, "len": 2}, {"step": 6, "note": 57, "vel": 110, "len": 2}, {"step": 6, "note": 64, "vel": 105, "len": 2}]}, {"bar": 2, "events": [{"step": 0, "note": 52, "vel": 110, "len": 2}, {"step": 0, "note": 59, "vel": 105, "len": 2}, {"step": 2, "note": 55, "vel": 100, "len": 1}, {"step": 3, "note": 57, "vel": 100, "len": 1}, {"step": 4, "note": 52, "vel": 115, "len": 2}, {"step": 4, "note": 64, "vel": 110, "len": 2}, {"step": 6, "note": 52, "vel": 90, "len": 1}, {"step": 7, "note": 50, "vel": 85, "len": 1}]}, {"bar": 3, "events": [{"step": 0, "note": 60, "vel": 115, "len": 4}, {"step": 0, "note": 67, "vel": 110, "len": 4}, {"step": 0, "note": 72, "vel": 105, "len": 4}, {"step": 4, "note": 60, "vel": 100, "len": 2}, {"step": 4, "note": 67, "vel": 95, "len": 2}, {"step": 6, "note": 60, "vel": 90, "len": 2}]}, {"bar": 4, "events": [{"step": 0, "note": 62, "vel": 115, "len": 2}, {"step": 0, "note": 69, "vel": 110, "len": 2}, {"step": 2, "note": 62, "vel": 100, "len": 1}, {"step": 3, "note": 64, "vel": 105, "len": 1}, {"step": 4, "note": 59, "vel": 112, "len": 2}, {"step": 4, "note": 66, "vel": 108, "len": 2}, {"step": 6, "note": 55, "vel": 100, "len": 1}, {"step": 7, "note": 52, "vel": 95, "len": 1}]}]}