{"meta": {"status": "success", "tempo": 125, "key": "E", "scale": "Minor", "style": "Alternative Rock", "mood": "Energetic", "meter": "4/4", "dynamic_profile": "High Contrast", "arrangement_density": "Dense", "harmonic_color": "Distorted", "length_seconds": 165.0, "bars": 86, "instrument_configs": [{"name": "Electric Guitar", "register": "High", "role": "Lead", "articulation": "Legato", "dynamic_range": "Intense"}, {"name": "Bass Guitar", "register": "Low", "role": "Bass", "articulation": "Pizzicato", "dynamic_range": "Moderate"}, {"name": "Kick", "register": "Sub", "role": "Percussion", "articulation": "Percussive", "dynamic_range": "Intense"}, {"name": "Snare", "register": "Mid", "role": "Percussion", "articulation": "Percussive", "dynamic_range": "Intense"}, {"name": "Hat", "register": "High", "role": "Percussion", "articulation": "Percussive", "dynamic_range": "Moderate"}, {"name": "Crash", "register": "Very High", "role": "Percussion", "articulation": "Sustain", "dynamic_range": "Fortissimo"}, {"name": "Ride", "register": "High", "role": "Percussion", "articulation": "Sustain", "dynamic_range": "Moderate"}, {"name": "Tom", "register": "Low", "role": "Percussion", "articulation": "Percussive", "dynamic_range": "Intense"}], "instruments": ["Electric Guitar", "Bass Guitar", "Kick", "Snare", "Hat", "Crash", "Ride", "Tom"], "instrument": "Bass Guitar"}, "layers": {"Bass Guitar": [{"bar": 1, "events": [{"step": 0, "note": 40, "vel": 115, "len": 1}, {"step": 1, "note": 40, "vel": 90, "len": 1}, {"step": 2, "note": 40, "vel": 100, "len": 1}, {"step": 3, "note": 40, "vel": 90, "len": 1}, {"step": 4, "note": 40, "vel": 110, "len": 1}, {"step": 5, "note": 40, "vel": 95, "len": 1}, {"step": 6, "note": 40, "vel": 100, "len": 1}, {"step": 7, "note": 43, "vel": 105, "len": 1}]}, {"bar": 2, "events": [{"step": 0, "note": 40, "vel": 115, "len": 1}, {"step": 1, "note": 40, "vel": 90, "len": 1}, {"step": 2, "note": 40, "vel": 100, "len": 1}, {"step": 3, "note": 40, "vel": 90, "len": 1}, {"step": 4, "note": 45, "vel": 110, "len": 1}, {"step": 5, "note": 45, "vel": 95, "len": 1}, {"step": 6, "note": 45, "vel": 100, "len": 1}, {"step": 7, "note": 47, "vel": 105, "len": 1}]}, {"bar": 3, "events": [{"step": 0, "note": 48, "vel": 120, "len": 1}, {"step": 1, "note": 48, "vel": 95, "len": 1}, {"step": 2, "note": 48, "vel": 105, "len": 1}, {"step": 3, "note": 48, "vel": 95, "len": 1}, {"step": 4, "note": 48, "vel": 110, "len": 1}, {"step": 5, "note": 48, "vel": 100, "len": 1}, {"step": 6, "note": 48, "vel": 105, "len": 1}, {"step": 7, "note": 50, "vel": 110, "len": 1}]}, {"bar": 4, "events": [{"step": 0, "note": 50, "vel": 115, "len": 1}, {"step": 1, "note": 50, "vel": 95, "len": 1}, {"step": 2, "note": 50, "vel": 105, "len": 1}, {"step": 3, "note": 47, "vel": 100, "len": 1}, {"step": 4, "note": 47, "vel": 110, "len": 1}, {"step": 5, "note": 47, "vel": 100, "len": 1}, {"step": 6, "note": 45, "vel": 105, "len": 1}, {"step": 7, "note": 43, "vel": 100, "len": 1}]}]}, "pattern": [{"bar": 1, "events": [{"step": 0, "note": 40, "vel": 115, "len": 1}, {"step": 1, "note": 40, "vel": 90, "len": 1}, {"step": 2, "note": 40, "vel": 100, "len": 1}, {"step": 3, "note": 40, "vel": 90, "len": 1}, {"step": 4, "note": 40, "vel": 110, "len": 1}, {"step": 5, "note": 40, "vel": 95, "len": 1}, {"step": 6, "note": 40, "vel": 100, "len": 1}, {"step": 7, "note": 43, "vel": 105, "len": 1}]}, {"bar": 2, "events": [{"step": 0, "note": 40, "vel": 115, "len": 1}, {"step": 1, "note": 40, "vel": 90, "len": 1}, {"step": 2, "note": 40, "vel": 100, "len": 1}, {"step": 3, "note": 40, "vel": 90, "len": 1}, {"step": 4, "note": 45, "vel": 110, "len": 1}, {"step": 5, "note": 45, "vel": 95, "len": 1}, {"step": 6, "note": 45, "vel": 100, "len": 1}, {"step": 7, "note": 47, "vel": 105, "len": 1}]}, {"bar": 3, "events": [{"step": 0, "note": 48, "vel": 120, "len": 1}, {"step": 1, "note": 48, "vel": 95, "len": 1}, {"step": 2, "note": 48, "vel": 105, "len": 1}, {"step": 3, "note": 48, "vel": 95, "len": 1}, {"step": 4, "note": 48, "vel": 110, "len": 1}, {"step": 5, "note": 48, "vel": 100, "len": 1}, {"step": 6, "note": 48, "vel": 105, "len": 1}, {"step": 7, "note": 50, "vel": 110, "len": 1}]}, {"bar": 4, "events": [{"step": 0, "note": 50, "vel": 115, "len": 1}, {"step": 1, "note": 50, "vel": 95, "len": 1}, {"step": 2, "note": 50, "vel": 105, "len": 1}, {"step": 3, "note": 47, "vel": 100, "len": 1}, {"step": 4, "note": 47, "vel": 110, "len": 1}, {"step": 5, "note": 47, "vel": 100, "len": 1}, {"step": 6, "note": 45, "vel": 105, "len": 1}, {"step": 7, "note": 43, "vel": 100, "len": 1}]}]}