{"pattern": [{"bar": 0, "events": [{"step": 0, "note": 36, "vel": 90, "len": 1}, {"step": 2, "note": 36, "vel": 90, "len": 1}, {"step": 4, "note": 36, "vel": 90, "len": 1}, {"step": 6, "note": 36, "vel": 90, "len": 1}]}, {"bar": 1, "events": [{"step": 0, "note": 36, "vel": 92, "len": 1}, {"step": 2, "note": 36, "vel": 92, "len": 1}, {"step": 4, "note": 36, "vel": 92, "len": 1}, {"step": 6, "note": 36, "vel": 92, "len": 1}]}, {"bar": 2, "events": [{"step": 0, "note": 36, "vel": 95, "len": 1}, {"step": 2, "note": 36, "vel": 95, "len": 1}, {"step": 4, "note": 36, "vel": 95, "len": 1}, {"step": 6, "note": 36, "vel": 95, "len": 1}]}, {"bar": 3, "events": [{"step": 0, "note": 36, "vel": 98, "len": 1}, {"step": 2, "note": 36, "vel": 98, "len": 1}, {"step": 4, "note": 36, "vel": 98, "len": 1}, {"step": 6, "note": 36, "vel": 98, "len": 1}, {"step": 7, "note": 36, "vel": 85, "len": 1}]}, {"bar": 4, "events": [{"step": 0, "note": 36, "vel": 100, "len": 1}, {"step": 2, "note": 36, "vel": 100, "len": 1}, {"step": 4, "note": 36, "vel": 100, "len": 1}, {"step": 6, "note": 36, "vel": 100, "len": 1}]}, {"bar": 5, "events": [{"step": 0, "note": 36, "vel": 102, "len": 1}, {"step": 2, "note": 36, "vel": 102, "len": 1}, {"step": 4, "note": 36, "vel": 102, "len": 1}, {"step": 6, "note": 36, "vel": 102, "len": 1}]}, {"bar": 6, "events": [{"step": 0, "note": 36, "vel": 105, "len": 1}, {"step": 2, "note": 36, "vel": 105, "len": 1}, {"step": 3, "note": 36, "vel": 95, "len": 1}, {"step": 4, "note": 36, "vel": 105, "len": 1}, {"step": 6, "note": 36, "vel": 105, "len": 1}]}, {"bar": 7, "events": [{"step": 0, "note": 36, "vel": 108, "len": 1}, {"step": 2, "note": 36, "vel": 108, "len": 1}, {"step": 4, "note": 36, "vel": 108, "len": 1}, {"step": 6, "note": 36, "vel": 108, "len": 1}, {"step": 7, "note": 36, "vel": 100, "len": 1}]}, {"bar": 8, "events": [{"step": 0, "note": 36, "vel": 110, "len": 1}, {"step": 2, "note": 36, "vel": 110, "len": 1}, {"step": 4, "note": 36, "vel": 110, "len": 1}, {"step": 6, "note": 36, "vel": 110, "len": 1}]}, {"bar": 9, "events": [{"step": 0, "note": 36, "vel": 112, "len": 1}, {"step": 1, "note": 36, "vel": 100, "len": 1}, {"step": 2, "note": 36, "vel": 112, "len": 1}, {"step": 4, "note": 36, "vel": 112, "len": 1}, {"step": 6, "note": 36, "vel": 112, "len": 1}]}, {"bar": 10, "events": [{"step": 0, "note": 36, "vel": 115, "len": 1}, {"step": 2, "note": 36, "vel": 115, "len": 1}, {"step": 4, "note": 36, "vel": 115, "len": 1}, {"step": 6, "note": 36, "vel": 115, "len": 1}]}, {"bar": 11, "events": [{"step": 0, "note": 36, "vel": 118, "len": 1}, {"step": 2, "note": 36, "vel": 118, "len": 1}, {"step": 4, "note": 36, "vel": 118, "len": 1}, {"step": 6, "note": 36, "vel": 118, "len": 1}, {"step": 7, "note": 36, "vel": 105, "len": 1}]}, {"bar": 12, "events": [{"step": 0, "note": 36, "vel": 120, "len": 1}, {"step": 2, "note": 36, "vel": 120, "len": 1}, {"step": 4, "note": 36, "vel": 120, "len": 1}, {"step": 6, "note": 36, "vel": 120, "len": 1}]}, {"bar": 13, "events": [{"step": 0, "note": 36, "vel": 124, "len": 1}, {"step": 1, "note": 36, "vel": 110, "len": 1}, {"step": 2, "note": 36, "vel": 124, "len": 1}, {"step": 4, "note": 36, "vel": 124, "len": 1}, {"step": 6, "note": 36, "vel": 124, "len": 1}]}, {"bar": 14, "events": [{"step": 0, "note": 36, "vel": 127, "len": 1}, {"step": 2, "note": 36, "vel": 127, "len": 1}, {"step": 3, "note": 36, "vel": 115, "len": 1}, {"step": 4, "note": 36, "vel": 127, "len": 1}, {"step": 6, "note": 36, "vel": 127, "len": 1}]}, {"bar": 15, "events": [{"step": 0, "note": 36, "vel": 127, "len": 1}, {"step": 2, "note": 36, "vel": 127, "len": 1}, {"step": 4, "note": 36, "vel": 127, "len": 1}, {"step": 5, "note": 36, "vel": 120, "len": 1}, {"step": 6, "note": 36, "vel": 127, "len": 1}, {"step": 7, "note": 36, "vel": 120, "len": 1}]}], "layers": {}, "meta": {"status": "success", "tempo": 125, "key": "A# minor", "scale": "Dorian", "style": "Electronic", "mood": "Tense", "meter": "4/4", "dynamic_profile": "Gradual Crescendo", "arrangement_density": "Medium", "harmonic_color": "Dark", "length_seconds": 32.0, "bars": 16, "instrument_configs": [{"name": "Kick", "register": "Low", "role": "Percussion", "articulation": "Sustain", "dynamic_range": "Intense"}], "instruments": ["Kick"]}}