{"request": {"project_name": "oldschool rap 2 final final", "run_id": "9b8a95fa12e4", "user_id": 2, "midi": {"pattern": [{"bar": 1, "events": [{"step": 0, "note": 36, "vel": 120, "len": 1}, {"step": 0, "note": 42, "vel": 100, "len": 1}, {"step": 1, "note": 42, "vel": 80, "len": 1}, {"step": 1, "note": 60, "vel": 95, "len": 1}, {"step": 1, "note": 63, "vel": 95, "len": 1}, {"step": 1, "note": 67, "vel": 95, "len": 1}, {"step": 2, "note": 38, "vel": 125, "len": 1}, {"step": 2, "note": 42, "vel": 100, "len": 1}, {"step": 3, "note": 42, "vel": 80, "len": 1}, {"step": 3, "note": 60, "vel": 90, "len": 1}, {"step": 3, "note": 63, "vel": 90, "len": 1}, {"step": 3, "note": 67, "vel": 90, "len": 1}, {"step": 4, "note": 36, "vel": 110, "len": 1}, {"step": 4, "note": 42, "vel": 100, "len": 1}, {"step": 5, "note": 36, "vel": 105, "len": 1}, {"step": 5, "note": 42, "vel": 80, "len": 1}, {"step": 6, "note": 38, "vel": 125, "len": 1}, {"step": 6, "note": 42, "vel": 100, "len": 1}, {"step": 6, "note": 60, "vel": 90, "len": 1}, {"step": 6, "note": 63, "vel": 90, "len": 1}, {"step": 6, "note": 67, "vel": 90, "len": 1}, {"step": 7, "note": 42, "vel": 80, "len": 1}]}, {"bar": 2, "events": [{"step": 0, "note": 36, "vel": 120, "len": 1}, {"step": 0, "note": 42, "vel": 100, "len": 1}, {"step": 1, "note": 42, "vel": 80, "len": 1}, {"step": 2, "note": 38, "vel": 125, "len": 1}, {"step": 2, "note": 42, "vel": 100, "len": 1}, {"step": 3, "note": 36, "vel": 90, "len": 1}, {"step": 3, "note": 42, "vel": 80, "len": 1}, {"step": 4, "note": 42, "vel": 100, "len": 1}, {"step": 5, "note": 36, "vel": 115, "len": 1}, {"step": 5, "note": 42, "vel": 80, "len": 1}, {"step": 6, "note": 38, "vel": 125, "len": 1}, {"step": 6, "note": 42, "vel": 100, "len": 1}, {"step": 7, "note": 42, "vel": 80, "len": 1}]}], "layers": {"Kick": [{"bar": 1, "events": [{"step": 0, "note": 36, "vel": 120, "len": 1}, {"step": 4, "note": 36, "vel": 110, "len": 1}, {"step": 5, "note": 36, "vel": 105, "len": 1}]}, {"bar": 2, "events": [{"step": 0, "note": 36, "vel": 120, "len": 1}, {"step": 3, "note": 36, "vel": 90, "len": 1}, {"step": 5, "note": 36, "vel": 115, "len": 1}]}, {"bar": 3, "events": [{"step": 0, "note": 36, "vel": 120, "len": 1}, {"step": 4, "note": 36, "vel": 110, "len": 1}, {"step": 5, "note": 36, "vel": 105, "len": 1}]}, {"bar": 4, "events": [{"step": 0, "note": 36, "vel": 120, "len": 1}, {"step": 4, "note": 36, "vel": 110, "len": 1}, {"step": 7, "note": 36, "vel": 100, "len": 1}]}, {"bar": 5, "events": [{"step": 0, "note": 36, "vel": 120, "len": 1}, {"step": 4, "note": 36, "vel": 110, "len": 1}, {"step": 5, "note": 36, "vel": 105, "len": 1}]}, {"bar": 6, "events": [{"step": 0, "note": 36, "vel": 120, "len": 1}, {"step": 3, "note": 36, "vel": 90, "len": 1}, {"step": 5, "note": 36, "vel": 115, "len": 1}]}, {"bar": 7, "events": [{"step": 0, "note": 36, "vel": 120, "len": 1}, {"step": 4, "note": 36, "vel": 110, "len": 1}, {"step": 5, "note": 36, "vel": 105, "len": 1}]}, {"bar": 8, "events": [{"step": 0, "note": 36, "vel": 120, "len": 1}, {"step": 4, "note": 36, "vel": 110, "len": 1}, {"step": 6, "note": 36, "vel": 100, "len": 1}, {"step": 7, "note": 36, "vel": 100, "len": 1}]}, {"bar": 9, "events": [{"step": 0, "note": 36, "vel": 120, "len": 1}, {"step": 4, "note": 36, "vel": 110, "len": 1}, {"step": 5, "note": 36, "vel": 105, "len": 1}]}, {"bar": 10, "events": [{"step": 0, "note": 36, "vel": 120, "len": 1}, {"step": 3, "note": 36, "vel": 90, "len": 1}, {"step": 5, "note": 36, "vel": 115, "len": 1}]}, {"bar": 11, "events": [{"step": 0, "note": 36, "vel": 120, "len": 1}, {"step": 4, "note": 36, "vel": 110, "len": 1}, {"step": 5, "note": 36, "vel": 105, "len": 1}]}, {"bar": 12, "events": [{"step": 0, "note": 36, "vel": 120, "len": 1}, {"step": 4, "note": 36, "vel": 110, "len": 1}, {"step": 7, "note": 36, "vel": 100, "len": 1}]}, {"bar": 13, "events": [{"step": 0, "note": 36, "vel": 120, "len": 1}, {"step": 4, "note": 36, "vel": 110, "len": 1}, {"step": 5, "note": 36, "vel": 105, "len": 1}]}, {"bar": 14, "events": [{"step": 0, "note": 36, "vel": 120, "len": 1}, {"step": 3, "note": 36, "vel": 90, "len": 1}, {"step": 5, "note": 36, "vel": 115, "len": 1}]}, {"bar": 15, "events": [{"step": 0, "note": 36, "vel": 120, "len": 1}, {"step": 4, "note": 36, "vel": 110, "len": 1}, {"step": 5, "note": 36, "vel": 105, "len": 1}]}, {"bar": 16, "events": [{"step": 0, "note": 36, "vel": 120, "len": 1}, {"step": 2, "note": 36, "vel": 100, "len": 1}, {"step": 4, "note": 36, "vel": 110, "len": 1}]}], "Snare": [{"bar": 1, "events": [{"step": 2, "note": 38, "vel": 125, "len": 1}, {"step": 6, "note": 38, "vel": 125, "len": 1}]}, {"bar": 2, "events": [{"step": 2, "note": 38, "vel": 125, "len": 1}, {"step": 6, "note": 38, "vel": 125, "len": 1}]}, {"bar": 3, "events": [{"step": 2, "note": 38, "vel": 125, "len": 1}, {"step": 6, "note": 38, "vel": 125, "len": 1}]}, {"bar": 4, "events": [{"step": 2, "note": 38, "vel": 125, "len": 1}, {"step": 6, "note": 38, "vel": 125, "len": 1}, {"step": 7, "note": 38, "vel": 80, "len": 1}]}, {"bar": 5, "events": [{"step": 2, "note": 38, "vel": 125, "len": 1}, {"step": 6, "note": 38, "vel": 125, "len": 1}]}, {"bar": 6, "events": [{"step": 2, "note": 38, "vel": 125, "len": 1}, {"step": 6, "note": 38, "vel": 125, "len": 1}]}, {"bar": 7, "events": [{"step": 2, "note": 38, "vel": 125, "len": 1}, {"step": 6, "note": 38, "vel": 125, "len": 1}]}, {"bar": 8, "events": [{"step": 2, "note": 38, "vel": 125, "len": 1}, {"step": 4, "note": 38, "vel": 90, "len": 1}, {"step": 6, "note": 38, "vel": 125, "len": 1}]}, {"bar": 9, "events": [{"step": 2, "note": 38, "vel": 125, "len": 1}, {"step": 6, "note": 38, "vel": 125, "len": 1}]}, {"bar": 10, "events": [{"step": 2, "note": 38, "vel": 125, "len": 1}, {"step": 6, "note": 38, "vel": 125, "len": 1}]}, {"bar": 11, "events": [{"step": 2, "note": 38, "vel": 125, "len": 1}, {"step": 6, "note": 38, "vel": 125, "len": 1}]}, {"bar": 12, "events": [{"step": 2, "note": 38, "vel": 125, "len": 1}, {"step": 6, "note": 38, "vel": 125, "len": 1}, {"step": 7, "note": 38, "vel": 90, "len": 1}]}, {"bar": 13, "events": [{"step": 2, "note": 38, "vel": 125, "len": 1}, {"step": 6, "note": 38, "vel": 125, "len": 1}]}, {"bar": 14, "events": [{"step": 2, "note": 38, "vel": 125, "len": 1}, {"step": 6, "note": 38, "vel": 125, "len": 1}]}, {"bar": 15, "events": [{"step": 2, "note": 38, "vel": 125, "len": 1}, {"step": 6, "note": 38, "vel": 125, "len": 1}]}, {"bar": 16, "events": [{"step": 2, "note": 38, "vel": 125, "len": 1}, {"step": 6, "note": 38, "vel": 125, "len": 1}, {"step": 7, "note": 38, "vel": 110, "len": 1}]}], "Hat": [{"bar": 1, "events": [{"step": 0, "note": 42, "vel": 100, "len": 1}, {"step": 1, "note": 42, "vel": 80, "len": 1}, {"step": 2, "note": 42, "vel": 100, "len": 1}, {"step": 3, "note": 42, "vel": 80, "len": 1}, {"step": 4, "note": 42, "vel": 100, "len": 1}, {"step": 5, "note": 42, "vel": 80, "len": 1}, {"step": 6, "note": 42, "vel": 100, "len": 1}, {"step": 7, "note": 42, "vel": 80, "len": 1}]}, {"bar": 2, "events": [{"step": 0, "note": 42, "vel": 100, "len": 1}, {"step": 1, "note": 42, "vel": 80, "len": 1}, {"step": 2, "note": 42, "vel": 100, "len": 1}, {"step": 3, "note": 42, "vel": 80, "len": 1}, {"step": 4, "note": 42, "vel": 100, "len": 1}, {"step": 5, "note": 42, "vel": 80, "len": 1}, {"step": 6, "note": 42, "vel": 100, "len": 1}, {"step": 7, "note": 42, "vel": 80, "len": 1}]}, {"bar": 3, "events": [{"step": 0, "note": 42, "vel": 100, "len": 1}, {"step": 1, "note": 42, "vel": 80, "len": 1}, {"step": 2, "note": 42, "vel": 100, "len": 1}, {"step": 3, "note": 42, "vel": 80, "len": 1}, {"step": 4, "note": 42, "vel": 100, "len": 1}, {"step": 5, "note": 42, "vel": 80, "len": 1}, {"step": 6, "note": 42, "vel": 100, "len": 1}, {"step": 7, "note": 42, "vel": 80, "len": 1}]}, {"bar": 4, "events": [{"step": 0, "note": 42, "vel": 100, "len": 1}, {"step": 1, "note": 42, "vel": 80, "len": 1}, {"step": 2, "note": 42, "vel": 100, "len": 1}, {"step": 3, "note": 42, "vel": 80, "len": 1}, {"step": 4, "note": 42, "vel": 100, "len": 1}, {"step": 5, "note": 42, "vel": 80, "len": 1}, {"step": 6, "note": 42, "vel": 100, "len": 1}, {"step": 7, "note": 46, "vel": 90, "len": 1}]}, {"bar": 5, "events": [{"step": 0, "note": 42, "vel": 100, "len": 1}, {"step": 1, "note": 42, "vel": 80, "len": 1}, {"step": 2, "note": 42, "vel": 100, "len": 1}, {"step": 3, "note": 42, "vel": 80, "len": 1}, {"step": 4, "note": 42, "vel": 100, "len": 1}, {"step": 5, "note": 42, "vel": 80, "len": 1}, {"step": 6, "note": 42, "vel": 100, "len": 1}, {"step": 7, "note": 42, "vel": 80, "len": 1}]}, {"bar": 6, "events": [{"step": 0, "note": 42, "vel": 100, "len": 1}, {"step": 1, "note": 42, "vel": 80, "len": 1}, {"step": 2, "note": 42, "vel": 100, "len": 1}, {"step": 3, "note": 42, "vel": 80, "len": 1}, {"step": 4, "note": 42, "vel": 100, "len": 1}, {"step": 5, "note": 42, "vel": 80, "len": 1}, {"step": 6, "note": 42, "vel": 100, "len": 1}, {"step": 7, "note": 42, "vel": 80, "len": 1}]}, {"bar": 7, "events": [{"step": 0, "note": 42, "vel": 100, "len": 1}, {"step": 1, "note": 42, "vel": 80, "len": 1}, {"step": 2, "note": 42, "vel": 100, "len": 1}, {"step": 3, "note": 42, "vel": 80, "len": 1}, {"step": 4, "note": 42, "vel": 100, "len": 1}, {"step": 5, "note": 42, "vel": 80, "len": 1}, {"step": 6, "note": 42, "vel": 100, "len": 1}, {"step": 7, "note": 42, "vel": 80, "len": 1}]}, {"bar": 8, "events": [{"step": 0, "note": 42, "vel": 100, "len": 1}, {"step": 1, "note": 42, "vel": 80, "len": 1}, {"step": 2, "note": 42, "vel": 100, "len": 1}, {"step": 3, "note": 42, "vel": 80, "len": 1}, {"step": 4, "note": 42, "vel": 100, "len": 1}, {"step": 5, "note": 42, "vel": 80, "len": 1}, {"step": 6, "note": 42, "vel": 100, "len": 1}, {"step": 7, "note": 46, "vel": 95, "len": 1}]}, {"bar": 9, "events": [{"step": 0, "note": 42, "vel": 100, "len": 1}, {"step": 1, "note": 42, "vel": 80, "len": 1}, {"step": 2, "note": 42, "vel": 100, "len": 1}, {"step": 3, "note": 42, "vel": 80, "len": 1}, {"step": 4, "note": 42, "vel": 100, "len": 1}, {"step": 5, "note": 42, "vel": 80, "len": 1}, {"step": 6, "note": 42, "vel": 100, "len": 1}, {"step": 7, "note": 42, "vel": 80, "len": 1}]}, {"bar": 10, "events": [{"step": 0, "note": 42, "vel": 100, "len": 1}, {"step": 1, "note": 42, "vel": 80, "len": 1}, {"step": 2, "note": 42, "vel": 100, "len": 1}, {"step": 3, "note": 42, "vel": 80, "len": 1}, {"step": 4, "note": 42, "vel": 100, "len": 1}, {"step": 5, "note": 42, "vel": 80, "len": 1}, {"step": 6, "note": 42, "vel": 100, "len": 1}, {"step": 7, "note": 42, "vel": 80, "len": 1}]}, {"bar": 11, "events": [{"step": 0, "note": 42, "vel": 100, "len": 1}, {"step": 1, "note": 42, "vel": 80, "len": 1}, {"step": 2, "note": 42, "vel": 100, "len": 1}, {"step": 3, "note": 42, "vel": 80, "len": 1}, {"step": 4, "note": 42, "vel": 100, "len": 1}, {"step": 5, "note": 42, "vel": 80, "len": 1}, {"step": 6, "note": 42, "vel": 100, "len": 1}, {"step": 7, "note": 42, "vel": 80, "len": 1}]}, {"bar": 12, "events": [{"step": 0, "note": 42, "vel": 100, "len": 1}, {"step": 1, "note": 42, "vel": 80, "len": 1}, {"step": 2, "note": 42, "vel": 100, "len": 1}, {"step": 3, "note": 42, "vel": 80, "len": 1}, {"step": 4, "note": 42, "vel": 100, "len": 1}, {"step": 5, "note": 42, "vel": 80, "len": 1}, {"step": 6, "note": 42, "vel": 100, "len": 1}, {"step": 7, "note": 46, "vel": 90, "len": 1}]}, {"bar": 13, "events": [{"step": 0, "note": 42, "vel": 100, "len": 1}, {"step": 1, "note": 42, "vel": 80, "len": 1}, {"step": 2, "note": 42, "vel": 100, "len": 1}, {"step": 3, "note": 42, "vel": 80, "len": 1}, {"step": 4, "note": 42, "vel": 100, "len": 1}, {"step": 5, "note": 42, "vel": 80, "len": 1}, {"step": 6, "note": 42, "vel": 100, "len": 1}, {"step": 7, "note": 42, "vel": 80, "len": 1}]}, {"bar": 14, "events": [{"step": 0, "note": 42, "vel": 100, "len": 1}, {"step": 1, "note": 42, "vel": 80, "len": 1}, {"step": 2, "note": 42, "vel": 100, "len": 1}, {"step": 3, "note": 42, "vel": 80, "len": 1}, {"step": 4, "note": 42, "vel": 100, "len": 1}, {"step": 5, "note": 42, "vel": 80, "len": 1}, {"step": 6, "note": 42, "vel": 100, "len": 1}, {"step": 7, "note": 42, "vel": 80, "len": 1}]}, {"bar": 15, "events": [{"step": 0, "note": 42, "vel": 100, "len": 1}, {"step": 1, "note": 42, "vel": 80, "len": 1}, {"step": 2, "note": 42, "vel": 100, "len": 1}, {"step": 3, "note": 42, "vel": 80, "len": 1}, {"step": 4, "note": 42, "vel": 100, "len": 1}, {"step": 5, "note": 42, "vel": 80, "len": 1}, {"step": 6, "note": 42, "vel": 100, "len": 1}, {"step": 7, "note": 42, "vel": 80, "len": 1}]}, {"bar": 16, "events": [{"step": 0, "note": 42, "vel": 100, "len": 1}, {"step": 1, "note": 42, "vel": 80, "len": 1}, {"step": 2, "note": 42, "vel": 100, "len": 1}, {"step": 3, "note": 42, "vel": 80, "len": 1}, {"step": 4, "note": 42, "vel": 100, "len": 1}, {"step": 5, "note": 42, "vel": 80, "len": 1}, {"step": 6, "note": 42, "vel": 100, "len": 1}, {"step": 7, "note": 46, "vel": 110, "len": 1}]}], "Bass Guitar": [{"bar": 5, "events": [{"step": 0, "note": 36, "vel": 110, "len": 3}, {"step": 3, "note": 39, "vel": 105, "len": 1}, {"step": 4, "note": 41, "vel": 110, "len": 3}, {"step": 7, "note": 43, "vel": 105, "len": 1}]}, {"bar": 6, "events": [{"step": 0, "note": 36, "vel": 110, "len": 2}, {"step": 2, "note": 34, "vel": 100, "len": 2}, {"step": 4, "note": 43, "vel": 105, "len": 2}, {"step": 6, "note": 41, "vel": 100, "len": 2}]}, {"bar": 7, "events": [{"step": 0, "note": 36, "vel": 110, "len": 3}, {"step": 3, "note": 39, "vel": 105, "len": 1}, {"step": 4, "note": 41, "vel": 110, "len": 3}, {"step": 7, "note": 43, "vel": 105, "len": 1}]}, {"bar": 8, "events": [{"step": 0, "note": 36, "vel": 110, "len": 2}, {"step": 2, "note": 39, "vel": 100, "len": 2}, {"step": 4, "note": 36, "vel": 110, "len": 1}, {"step": 5, "note": 34, "vel": 100, "len": 1}, {"step": 6, "note": 36, "vel": 110, "len": 2}]}, {"bar": 9, "events": [{"step": 0, "note": 36, "vel": 110, "len": 3}, {"step": 3, "note": 39, "vel": 105, "len": 1}, {"step": 4, "note": 41, "vel": 110, "len": 3}, {"step": 7, "note": 43, "vel": 105, "len": 1}]}, {"bar": 10, "events": [{"step": 0, "note": 36, "vel": 110, "len": 2}, {"step": 2, "note": 34, "vel": 100, "len": 2}, {"step": 4, "note": 43, "vel": 105, "len": 2}, {"step": 6, "note": 41, "vel": 100, "len": 2}]}, {"bar": 11, "events": [{"step": 0, "note": 36, "vel": 110, "len": 3}, {"step": 3, "note": 39, "vel": 105, "len": 1}, {"step": 4, "note": 41, "vel": 110, "len": 3}, {"step": 7, "note": 43, "vel": 105, "len": 1}]}, {"bar": 12, "events": [{"step": 0, "note": 36, "vel": 110, "len": 2}, {"step": 2, "note": 39, "vel": 100, "len": 2}, {"step": 4, "note": 36, "vel": 110, "len": 1}, {"step": 5, "note": 34, "vel": 100, "len": 1}, {"step": 6, "note": 36, "vel": 110, "len": 2}]}, {"bar": 13, "events": [{"step": 0, "note": 36, "vel": 110, "len": 3}, {"step": 3, "note": 39, "vel": 105, "len": 1}, {"step": 4, "note": 41, "vel": 110, "len": 3}, {"step": 7, "note": 43, "vel": 105, "len": 1}]}, {"bar": 14, "events": [{"step": 0, "note": 36, "vel": 110, "len": 2}, {"step": 2, "note": 34, "vel": 100, "len": 2}, {"step": 4, "note": 43, "vel": 105, "len": 2}, {"step": 6, "note": 41, "vel": 100, "len": 2}]}, {"bar": 15, "events": [{"step": 0, "note": 36, "vel": 110, "len": 3}, {"step": 3, "note": 39, "vel": 105, "len": 1}, {"step": 4, "note": 41, "vel": 110, "len": 3}, {"step": 7, "note": 43, "vel": 105, "len": 1}]}, {"bar": 16, "events": [{"step": 0, "note": 36, "vel": 110, "len": 2}, {"step": 2, "note": 39, "vel": 100, "len": 2}, {"step": 4, "note": 36, "vel": 110, "len": 1}, {"step": 5, "note": 34, "vel": 100, "len": 1}, {"step": 6, "note": 36, "vel": 110, "len": 2}]}], "Piano": [{"bar": 1, "events": [{"step": 1, "note": 60, "vel": 95, "len": 1}, {"step": 1, "note": 63, "vel": 95, "len": 1}, {"step": 1, "note": 67, "vel": 95, "len": 1}, {"step": 3, "note": 60, "vel": 90, "len": 1}, {"step": 3, "note": 63, "vel": 90, "len": 1}, {"step": 3, "note": 67, "vel": 90, "len": 1}, {"step": 6, "note": 60, "vel": 90, "len": 1}, {"step": 6, "note": 63, "vel": 90, "len": 1}, {"step": 6, "note": 67, "vel": 90, "len": 1}]}, {"bar": 2, "events": [{"step": 1, "note": 58, "vel": 95, "len": 1}, {"step": 1, "note": 62, "vel": 95, "len": 1}, {"step": 1, "note": 65, "vel": 95, "len": 1}, {"step": 4, "note": 60, "vel": 100, "len": 1}, {"step": 4, "note": 63, "vel": 100, "len": 1}, {"step": 4, "note": 67, "vel": 100, "len": 1}, {"step": 7, "note": 58, "vel": 90, "len": 1}, {"step": 7, "note": 62, "vel": 90, "len": 1}, {"step": 7, "note": 65, "vel": 90, "len": 1}]}, {"bar": 3, "events": [{"step": 1, "note": 60, "vel": 95, "len": 1}, {"step": 1, "note": 63, "vel": 95, "len": 1}, {"step": 1, "note": 67, "vel": 95, "len": 1}, {"step": 3, "note": 60, "vel": 90, "len": 1}, {"step": 3, "note": 63, "vel": 90, "len": 1}, {"step": 3, "note": 67, "vel": 90, "len": 1}, {"step": 6, "note": 60, "vel": 90, "len": 1}, {"step": 6, "note": 63, "vel": 90, "len": 1}, {"step": 6, "note": 67, "vel": 90, "len": 1}]}, {"bar": 4, "events": [{"step": 1, "note": 58, "vel": 95, "len": 1}, {"step": 1, "note": 62, "vel": 95, "len": 1}, {"step": 1, "note": 65, "vel": 95, "len": 1}, {"step": 4, "note": 60, "vel": 100, "len": 1}, {"step": 4, "note": 63, "vel": 100, "len": 1}, {"step": 4, "note": 67, "vel": 100, "len": 1}, {"step": 7, "note": 60, "vel": 95, "len": 1}, {"step": 7, "note": 63, "vel": 95, "len": 1}, {"step": 7, "note": 67, "vel": 95, "len": 1}]}, {"bar": 5, "events": [{"step": 1, "note": 60, "vel": 95, "len": 1}, {"step": 1, "note": 63, "vel": 95, "len": 1}, {"step": 1, "note": 67, "vel": 95, "len": 1}, {"step": 3, "note": 60, "vel": 90, "len": 1}, {"step": 3, "note": 63, "vel": 90, "len": 1}, {"step": 3, "note": 67, "vel": 90, "len": 1}, {"step": 6, "note": 60, "vel": 90, "len": 1}, {"step": 6, "note": 63, "vel": 90, "len": 1}, {"step": 6, "note": 67, "vel": 90, "len": 1}]}, {"bar": 6, "events": [{"step": 1, "note": 58, "vel": 95, "len": 1}, {"step": 1, "note": 62, "vel": 95, "len": 1}, {"step": 1, "note": 65, "vel": 95, "len": 1}, {"step": 4, "note": 60, "vel": 100, "len": 1}, {"step": 4, "note": 63, "vel": 100, "len": 1}, {"step": 4, "note": 67, "vel": 100, "len": 1}, {"step": 7, "note": 58, "vel": 90, "len": 1}, {"step": 7, "note": 62, "vel": 90, "len": 1}, {"step": 7, "note": 65, "vel": 90, "len": 1}]}, {"bar": 7, "events": [{"step": 1, "note": 60, "vel": 95, "len": 1}, {"step": 1, "note": 63, "vel": 95, "len": 1}, {"step": 1, "note": 67, "vel": 95, "len": 1}, {"step": 3, "note": 60, "vel": 90, "len": 1}, {"step": 3, "note": 63, "vel": 90, "len": 1}, {"step": 3, "note": 67, "vel": 90, "len": 1}, {"step": 6, "note": 60, "vel": 90, "len": 1}, {"step": 6, "note": 63, "vel": 90, "len": 1}, {"step": 6, "note": 67, "vel": 90, "len": 1}]}, {"bar": 8, "events": [{"step": 1, "note": 58, "vel": 95, "len": 1}, {"step": 1, "note": 62, "vel": 95, "len": 1}, {"step": 1, "note": 65, "vel": 95, "len": 1}, {"step": 4, "note": 60, "vel": 100, "len": 1}, {"step": 4, "note": 63, "vel": 100, "len": 1}, {"step": 4, "note": 67, "vel": 100, "len": 1}, {"step": 7, "note": 60, "vel": 95, "len": 1}, {"step": 7, "note": 63, "vel": 95, "len": 1}, {"step": 7, "note": 67, "vel": 95, "len": 1}]}, {"bar": 9, "events": [{"step": 1, "note": 60, "vel": 95, "len": 1}, {"step": 1, "note": 63, "vel": 95, "len": 1}, {"step": 1, "note": 67, "vel": 95, "len": 1}, {"step": 3, "note": 60, "vel": 90, "len": 1}, {"step": 3, "note": 63, "vel": 90, "len": 1}, {"step": 3, "note": 67, "vel": 90, "len": 1}, {"step": 6, "note": 60, "vel": 90, "len": 1}, {"step": 6, "note": 63, "vel": 90, "len": 1}, {"step": 6, "note": 67, "vel": 90, "len": 1}]}, {"bar": 10, "events": [{"step": 1, "note": 58, "vel": 95, "len": 1}, {"step": 1, "note": 62, "vel": 95, "len": 1}, {"step": 1, "note": 65, "vel": 95, "len": 1}, {"step": 4, "note": 60, "vel": 100, "len": 1}, {"step": 4, "note": 63, "vel": 100, "len": 1}, {"step": 4, "note": 67, "vel": 100, "len": 1}, {"step": 7, "note": 58, "vel": 90, "len": 1}, {"step": 7, "note": 62, "vel": 90, "len": 1}, {"step": 7, "note": 65, "vel": 90, "len": 1}]}, {"bar": 11, "events": [{"step": 1, "note": 60, "vel": 95, "len": 1}, {"step": 1, "note": 63, "vel": 95, "len": 1}, {"step": 1, "note": 67, "vel": 95, "len": 1}, {"step": 3, "note": 60, "vel": 90, "len": 1}, {"step": 3, "note": 63, "vel": 90, "len": 1}, {"step": 3, "note": 67, "vel": 90, "len": 1}, {"step": 6, "note": 60, "vel": 90, "len": 1}, {"step": 6, "note": 63, "vel": 90, "len": 1}, {"step": 6, "note": 67, "vel": 90, "len": 1}]}, {"bar": 12, "events": [{"step": 1, "note": 58, "vel": 95, "len": 1}, {"step": 1, "note": 62, "vel": 95, "len": 1}, {"step": 1, "note": 65, "vel": 95, "len": 1}, {"step": 4, "note": 60, "vel": 100, "len": 1}, {"step": 4, "note": 63, "vel": 100, "len": 1}, {"step": 4, "note": 67, "vel": 100, "len": 1}, {"step": 7, "note": 60, "vel": 95, "len": 1}, {"step": 7, "note": 63, "vel": 95, "len": 1}, {"step": 7, "note": 67, "vel": 95, "len": 1}]}, {"bar": 13, "events": [{"step": 1, "note": 60, "vel": 95, "len": 1}, {"step": 1, "note": 63, "vel": 95, "len": 1}, {"step": 1, "note": 67, "vel": 95, "len": 1}, {"step": 3, "note": 60, "vel": 90, "len": 1}, {"step": 3, "note": 63, "vel": 90, "len": 1}, {"step": 3, "note": 67, "vel": 90, "len": 1}, {"step": 6, "note": 60, "vel": 90, "len": 1}, {"step": 6, "note": 63, "vel": 90, "len": 1}, {"step": 6, "note": 67, "vel": 90, "len": 1}]}, {"bar": 14, "events": [{"step": 1, "note": 58, "vel": 95, "len": 1}, {"step": 1, "note": 62, "vel": 95, "len": 1}, {"step": 1, "note": 65, "vel": 95, "len": 1}, {"step": 4, "note": 60, "vel": 100, "len": 1}, {"step": 4, "note": 63, "vel": 100, "len": 1}, {"step": 4, "note": 67, "vel": 100, "len": 1}, {"step": 7, "note": 58, "vel": 90, "len": 1}, {"step": 7, "note": 62, "vel": 90, "len": 1}, {"step": 7, "note": 65, "vel": 90, "len": 1}]}, {"bar": 15, "events": [{"step": 1, "note": 60, "vel": 95, "len": 1}, {"step": 1, "note": 63, "vel": 95, "len": 1}, {"step": 1, "note": 67, "vel": 95, "len": 1}, {"step": 3, "note": 60, "vel": 90, "len": 1}, {"step": 3, "note": 63, "vel": 90, "len": 1}, {"step": 3, "note": 67, "vel": 90, "len": 1}, {"step": 6, "note": 60, "vel": 90, "len": 1}, {"step": 6, "note": 63, "vel": 90, "len": 1}, {"step": 6, "note": 67, "vel": 90, "len": 1}]}, {"bar": 16, "events": [{"step": 1, "note": 58, "vel": 95, "len": 1}, {"step": 1, "note": 62, "vel": 95, "len": 1}, {"step": 1, "note": 65, "vel": 95, "len": 1}, {"step": 4, "note": 60, "vel": 100, "len": 1}, {"step": 4, "note": 63, "vel": 100, "len": 1}, {"step": 4, "note": 67, "vel": 100, "len": 1}, {"step": 7, "note": 60, "vel": 95, "len": 1}, {"step": 7, "note": 63, "vel": 95, "len": 1}, {"step": 7, "note": 67, "vel": 95, "len": 1}]}], "Strings": [{"bar": 13, "events": [{"step": 0, "note": 72, "vel": 85, "len": 8}, {"step": 0, "note": 79, "vel": 80, "len": 8}]}, {"bar": 14, "events": [{"step": 0, "note": 70, "vel": 85, "len": 8}, {"step": 0, "note": 77, "vel": 80, "len": 8}]}, {"bar": 15, "events": [{"step": 0, "note": 72, "vel": 85, "len": 8}, {"step": 0, "note": 79, "vel": 80, "len": 8}]}, {"bar": 16, "events": [{"step": 0, "note": 70, "vel": 85, "len": 8}, {"step": 0, "note": 77, "vel": 80, "len": 8}]}], "Sax": [{"bar": 9, "events": [{"step": 0, "note": 60, "vel": 100, "len": 2}, {"step": 2, "note": 63, "vel": 95, "len": 1}, {"step": 3, "note": 65, "vel": 95, "len": 1}, {"step": 4, "note": 67, "vel": 105, "len": 2}, {"step": 6, "note": 65, "vel": 95, "len": 2}]}, {"bar": 10, "events": [{"step": 0, "note": 63, "vel": 95, "len": 2}, {"step": 2, "note": 60, "vel": 90, "len": 2}, {"step": 5, "note": 58, "vel": 90, "len": 1}, {"step": 6, "note": 60, "vel": 100, "len": 2}]}, {"bar": 11, "events": [{"step": 0, "note": 67, "vel": 100, "len": 2}, {"step": 2, "note": 70, "vel": 105, "len": 1}, {"step": 3, "note": 72, "vel": 110, "len": 2}, {"step": 6, "note": 70, "vel": 100, "len": 1}, {"step": 7, "note": 67, "vel": 95, "len": 1}]}, {"bar": 12, "events": [{"step": 0, "note": 65, "vel": 100, "len": 2}, {"step": 2, "note": 63, "vel": 95, "len": 2}, {"step": 4, "note": 60, "vel": 100, "len": 2}]}, {"bar": 13, "events": [{"step": 0, "note": 60, "vel": 100, "len": 2}, {"step": 2, "note": 63, "vel": 95, "len": 1}, {"step": 3, "note": 65, "vel": 95, "len": 1}, {"step": 4, "note": 67, "vel": 105, "len": 2}, {"step": 6, "note": 65, "vel": 95, "len": 2}]}, {"bar": 14, "events": [{"step": 0, "note": 63, "vel": 95, "len": 2}, {"step": 2, "note": 60, "vel": 90, "len": 2}, {"step": 5, "note": 58, "vel": 90, "len": 1}, {"step": 6, "note": 60, "vel": 100, "len": 2}]}, {"bar": 15, "events": [{"step": 0, "note": 67, "vel": 100, "len": 2}, {"step": 2, "note": 70, "vel": 105, "len": 1}, {"step": 3, "note": 72, "vel": 110, "len": 2}, {"step": 6, "note": 70, "vel": 100, "len": 1}, {"step": 7, "note": 67, "vel": 95, "len": 1}]}, {"bar": 16, "events": [{"step": 0, "note": 65, "vel": 100, "len": 2}, {"step": 2, "note": 63, "vel": 95, "len": 2}, {"step": 4, "note": 60, "vel": 100, "len": 2}]}]}, "meta": {"style": "Old School Hip Hop", "mood": "Gritty, Groovy, Nostalgic", "tempo": 90, "key": "C Minor", "meter": "4/4", "bars": 16, "time_signature": "4/4", "scale": "Minor", "dynamic_profile": "Steady Groove", "arrangement_density": "Medium", "harmonic_color": "Soulful", "length_seconds": 42.6, "instrument_configs": [{"name": "Kick", "register": "Low", "role": "Percussion", "articulation": "Percussive", "dynamic_range": "Intense"}, {"name": "Snare", "register": "Mid", "role": "Percussion", "articulation": "Percussive", "dynamic_range": "Intense"}, {"name": "Hat", "register": "High", "role": "Percussion", "articulation": "Staccato", "dynamic_range": "Moderate"}, {"name": "Bass Guitar", "register": "Low", "role": "Bass", "articulation": "Legato", "dynamic_range": "Moderate"}, {"name": "Piano", "register": "Mid", "role": "Accompaniment", "articulation": "Staccato", "dynamic_range": "Moderate"}, {"name": "Strings", "register": "High", "role": "Pad", "articulation": "Sustain", "dynamic_range": "Delicate"}, {"name": "Sax", "register": "Mid-High", "role": "Lead", "articulation": "Legato", "dynamic_range": "Moderate"}], "instruments": ["Kick", "Snare", "Hat", "Bass Guitar", "Piano", "Strings", "Sax"]}}, "midi_per_instrument": null, "tracks": [{"instrument": "Kick", "enabled": true, "volume_db": 0.0, "pan": 0.0}, {"instrument": "Snare", "enabled": true, "volume_db": -3.0, "pan": 0.0}, {"instrument": "Hat", "enabled": true, "volume_db": -3.0, "pan": 0.0}, {"instrument": "Bass Guitar", "enabled": true, "volume_db": -3.0, "pan": 0.0}, {"instrument": "Piano", "enabled": true, "volume_db": -17.0, "pan": -0.3}, {"instrument": "Strings", "enabled": false, "volume_db": -3.0, "pan": 0.2}, {"instrument": "Sax", "enabled": true, "volume_db": -6.0, "pan": -0.1}], "selected_samples": {"Sax": "Instruments/Orchestral/Tenor Sax/22_TSAX_LONG F3ogg.wav", "Strings": "Instruments/Strings/STR_Pur_E1.wav", "Piano": "Instruments/Piano/Piano 1/CHANGPIANOHARD_D#5OGG.WAV", "Bass Guitar": "Instruments/Guitar/Bass/FLStudio Bass 02/05 DEEPER PURPLE_PLUCK D#1ogg.wav", "Hat": "Drums/RealDrumkits/RD_Hat_1.wav", "Snare": "Drums/Kits/Drum Kit 07/FLS_Snare 07a.wav", "Kick": "Drums/Kits/Drum Kit 01/FLS_Kick 01.wav"}, "fadeout_seconds": 0.01}, "response": {"project_name": "oldschool rap + sax", "run_id": "9b8a95fa12e4", "mix_wav_rel": "output\\9b8a95fa12e4\\oldschool rap 2 final final_mix_1764895782.wav", "stems": [{"instrument": "Kick", "audio_rel": "output\\9b8a95fa12e4\\oldschool rap 2 final final_Kick_1764895782.wav"}, {"instrument": "Snare", "audio_rel": "output\\9b8a95fa12e4\\oldschool rap 2 final final_Snare_1764895782.wav"}, {"instrument": "Hat", "audio_rel": "output\\9b8a95fa12e4\\oldschool rap 2 final final_Hat_1764895782.wav"}, {"instrument": "Bass Guitar", "audio_rel": "output\\9b8a95fa12e4\\oldschool rap 2 final final_Bass Guitar_1764895782.wav"}, {"instrument": "Piano", "audio_rel": "output\\9b8a95fa12e4\\oldschool rap 2 final final_Piano_1764895782.wav"}, {"instrument": "Sax", "audio_rel": "output\\9b8a95fa12e4\\oldschool rap 2 final final_Sax_1764895782.wav"}], "sample_rate": 44100, "duration_seconds": 42.6}}