{"meta": {"status": "success", "tempo": 85, "key": "C Minor", "scale": "Natural Minor", "style": "Lo-Fi Hip Hop", "mood": "Relaxed", "meter": "4/4", "dynamic_profile": "Soft", "arrangement_density": "Sparse", "harmonic_color": "Muted", "length_seconds": 180.0, "bars": 32, "instrument_configs": [{"name": "Acoustic Guitar", "register": "Mid", "role": "Accompaniment", "articulation": "Muted", "dynamic_range": "Pianissimo"}], "instruments": ["Acoustic Guitar"], "instrument": "Acoustic Guitar"}, "layers": {"Acoustic Guitar": [{"bar": 0, "events": [{"step": 0, "note": 55, "vel": 45, "len": 1}, {"step": 2, "note": 58, "vel": 42, "len": 1}, {"step": 4, "note": 60, "vel": 40, "len": 1}, {"step": 6, "note": 55, "vel": 38, "len": 1}]}, {"bar": 1, "events": [{"step": 0, "note": 53, "vel": 42, "len": 1}, {"step": 2, "note": 55, "vel": 40, "len": 1}, {"step": 4, "note": 58, "vel": 38, "len": 1}, {"step": 6, "note": 60, "vel": 36, "len": 1}]}, {"bar": 2, "events": [{"step": 0, "note": 55, "vel": 44, "len": 1}, {"step": 2, "note": 58, "vel": 41, "len": 1}, {"step": 4, "note": 60, "vel": 39, "len": 1}, {"step": 6, "note": 62, "vel": 37, "len": 1}]}, {"bar": 3, "events": [{"step": 0, "note": 53, "vel": 43, "len": 1}, {"step": 2, "note": 55, "vel": 40, "len": 1}, {"step": 4, "note": 58, "vel": 38, "len": 1}, {"step": 6, "note": 60, "vel": 36, "len": 1}]}]}, "pattern": [{"bar": 0, "events": [{"step": 0, "note": 55, "vel": 45, "len": 1}, {"step": 2, "note": 58, "vel": 42, "len": 1}, {"step": 4, "note": 60, "vel": 40, "len": 1}, {"step": 6, "note": 55, "vel": 38, "len": 1}]}, {"bar": 1, "events": [{"step": 0, "note": 53, "vel": 42, "len": 1}, {"step": 2, "note": 55, "vel": 40, "len": 1}, {"step": 4, "note": 58, "vel": 38, "len": 1}, {"step": 6, "note": 60, "vel": 36, "len": 1}]}, {"bar": 2, "events": [{"step": 0, "note": 55, "vel": 44, "len": 1}, {"step": 2, "note": 58, "vel": 41, "len": 1}, {"step": 4, "note": 60, "vel": 39, "len": 1}, {"step": 6, "note": 62, "vel": 37, "len": 1}]}, {"bar": 3, "events": [{"step": 0, "note": 53, "vel": 43, "len": 1}, {"step": 2, "note": 55, "vel": 40, "len": 1}, {"step": 4, "note": 58, "vel": 38, "len": 1}, {"step": 6, "note": 60, "vel": 36, "len": 1}]}]}