{"meta": {"status": "success", "tempo": 75, "key": "C", "scale": "Lydian", "style": "Cinematic Ambient", "mood": "Mystical", "meter": "4/4", "dynamic_profile": "Gradual Swelling", "arrangement_density": "Sparse", "harmonic_color": "Complex/Ethereal", "length_seconds": 51.0, "bars": 16, "instrument_configs": [{"name": "Piano", "register": "High", "role": "Lead", "articulation": "Legato", "dynamic_range": "Moderate"}, {"name": "Pads", "register": "Full", "role": "Texture", "articulation": "Sustain", "dynamic_range": "Delicate"}, {"name": "Strings", "register": "Mid", "role": "Accompaniment", "articulation": "Tremolo", "dynamic_range": "Moderate"}, {"name": "Choirs", "register": "High", "role": "Harmony", "articulation": "Sustain", "dynamic_range": "Pianissimo"}, {"name": "FX", "register": "Very High", "role": "Texture", "articulation": "Percussive", "dynamic_range": "Moderate"}, {"name": "Bass", "register": "Sub", "role": "Bass", "articulation": "Sustain", "dynamic_range": "Moderate"}], "instruments": ["Piano", "Pads", "Strings", "Choirs", "FX", "Bass"], "instrument": "Piano"}, "layers": {"Piano": [{"bar": 1, "events": [{"step": 0, "note": 72, "vel": 55, "len": 2}, {"step": 3, "note": 78, "vel": 50, "len": 1}, {"step": 5, "note": 79, "vel": 52, "len": 3}]}, {"bar": 2, "events": [{"step": 0, "note": 83, "vel": 58, "len": 2}, {"step": 4, "note": 76, "vel": 53, "len": 2}, {"step": 7, "note": 78, "vel": 45, "len": 1}]}, {"bar": 3, "events": [{"step": 0, "note": 72, "vel": 56, "len": 2}, {"step": 2, "note": 78, "vel": 52, "len": 2}, {"step": 6, "note": 79, "vel": 54, "len": 2}]}, {"bar": 4, "events": [{"step": 0, "note": 83, "vel": 60, "len": 4}, {"step": 4, "note": 74, "vel": 55, "len": 4}]}, {"bar": 5, "events": [{"step": 0, "note": 84, "vel": 65, "len": 1}, {"step": 2, "note": 78, "vel": 62, "len": 1}, {"step": 4, "note": 79, "vel": 64, "len": 1}, {"step": 6, "note": 83, "vel": 66, "len": 1}]}, {"bar": 6, "events": [{"step": 0, "note": 76, "vel": 63, "len": 2}, {"step": 4, "note": 78, "vel": 60, "len": 2}]}, {"bar": 7, "events": [{"step": 0, "note": 72, "vel": 68, "len": 1}, {"step": 1, "note": 74, "vel": 65, "len": 1}, {"step": 2, "note": 78, "vel": 67, "len": 1}, {"step": 4, "note": 79, "vel": 69, "len": 4}]}, {"bar": 8, "events": [{"step": 0, "note": 86, "vel": 70, "len": 2}, {"step": 3, "note": 83, "vel": 68, "len": 2}, {"step": 6, "note": 78, "vel": 65, "len": 2}]}, {"bar": 9, "events": [{"step": 0, "note": 72, "vel": 75, "len": 1}, {"step": 1, "note": 79, "vel": 72, "len": 1}, {"step": 2, "note": 83, "vel": 74, "len": 1}, {"step": 4, "note": 84, "vel": 78, "len": 1}, {"step": 6, "note": 90, "vel": 80, "len": 2}]}, {"bar": 10, "events": [{"step": 0, "note": 78, "vel": 72, "len": 2}, {"step": 2, "note": 79, "vel": 74, "len": 2}, {"step": 4, "note": 83, "vel": 76, "len": 4}]}, {"bar": 11, "events": [{"step": 0, "note": 72, "vel": 80, "len": 1}, {"step": 2, "note": 78, "vel": 78, "len": 1}, {"step": 4, "note": 83, "vel": 82, "len": 1}, {"step": 6, "note": 90, "vel": 85, "len": 2}]}, {"bar": 12, "events": [{"step": 0, "note": 91, "vel": 82, "len": 2}, {"step": 3, "note": 86, "vel": 80, "len": 2}, {"step": 6, "note": 83, "vel": 78, "len": 2}]}, {"bar": 13, "events": [{"step": 0, "note": 96, "vel": 90, "len": 1}, {"step": 2, "note": 90, "vel": 88, "len": 1}, {"step": 4, "note": 84, "vel": 86, "len": 1}, {"step": 6, "note": 79, "vel": 85, "len": 2}]}, {"bar": 14, "events": [{"step": 0, "note": 78, "vel": 85, "len": 2}, {"step": 2, "note": 83, "vel": 88, "len": 2}, {"step": 4, "note": 90, "vel": 92, "len": 4}]}, {"bar": 15, "events": [{"step": 0, "note": 95, "vel": 85, "len": 4}, {"step": 4, "note": 90, "vel": 80, "len": 4}]}, {"bar": 16, "events": [{"step": 0, "note": 84, "vel": 70, "len": 8}]}]}, "pattern": [{"bar": 1, "events": [{"step": 0, "note": 72, "vel": 55, "len": 2}, {"step": 3, "note": 78, "vel": 50, "len": 1}, {"step": 5, "note": 79, "vel": 52, "len": 3}]}, {"bar": 2, "events": [{"step": 0, "note": 83, "vel": 58, "len": 2}, {"step": 4, "note": 76, "vel": 53, "len": 2}, {"step": 7, "note": 78, "vel": 45, "len": 1}]}, {"bar": 3, "events": [{"step": 0, "note": 72, "vel": 56, "len": 2}, {"step": 2, "note": 78, "vel": 52, "len": 2}, {"step": 6, "note": 79, "vel": 54, "len": 2}]}, {"bar": 4, "events": [{"step": 0, "note": 83, "vel": 60, "len": 4}, {"step": 4, "note": 74, "vel": 55, "len": 4}]}, {"bar": 5, "events": [{"step": 0, "note": 84, "vel": 65, "len": 1}, {"step": 2, "note": 78, "vel": 62, "len": 1}, {"step": 4, "note": 79, "vel": 64, "len": 1}, {"step": 6, "note": 83, "vel": 66, "len": 1}]}, {"bar": 6, "events": [{"step": 0, "note": 76, "vel": 63, "len": 2}, {"step": 4, "note": 78, "vel": 60, "len": 2}]}, {"bar": 7, "events": [{"step": 0, "note": 72, "vel": 68, "len": 1}, {"step": 1, "note": 74, "vel": 65, "len": 1}, {"step": 2, "note": 78, "vel": 67, "len": 1}, {"step": 4, "note": 79, "vel": 69, "len": 4}]}, {"bar": 8, "events": [{"step": 0, "note": 86, "vel": 70, "len": 2}, {"step": 3, "note": 83, "vel": 68, "len": 2}, {"step": 6, "note": 78, "vel": 65, "len": 2}]}, {"bar": 9, "events": [{"step": 0, "note": 72, "vel": 75, "len": 1}, {"step": 1, "note": 79, "vel": 72, "len": 1}, {"step": 2, "note": 83, "vel": 74, "len": 1}, {"step": 4, "note": 84, "vel": 78, "len": 1}, {"step": 6, "note": 90, "vel": 80, "len": 2}]}, {"bar": 10, "events": [{"step": 0, "note": 78, "vel": 72, "len": 2}, {"step": 2, "note": 79, "vel": 74, "len": 2}, {"step": 4, "note": 83, "vel": 76, "len": 4}]}, {"bar": 11, "events": [{"step": 0, "note": 72, "vel": 80, "len": 1}, {"step": 2, "note": 78, "vel": 78, "len": 1}, {"step": 4, "note": 83, "vel": 82, "len": 1}, {"step": 6, "note": 90, "vel": 85, "len": 2}]}, {"bar": 12, "events": [{"step": 0, "note": 91, "vel": 82, "len": 2}, {"step": 3, "note": 86, "vel": 80, "len": 2}, {"step": 6, "note": 83, "vel": 78, "len": 2}]}, {"bar": 13, "events": [{"step": 0, "note": 96, "vel": 90, "len": 1}, {"step": 2, "note": 90, "vel": 88, "len": 1}, {"step": 4, "note": 84, "vel": 86, "len": 1}, {"step": 6, "note": 79, "vel": 85, "len": 2}]}, {"bar": 14, "events": [{"step": 0, "note": 78, "vel": 85, "len": 2}, {"step": 2, "note": 83, "vel": 88, "len": 2}, {"step": 4, "note": 90, "vel": 92, "len": 4}]}, {"bar": 15, "events": [{"step": 0, "note": 95, "vel": 85, "len": 4}, {"step": 4, "note": 90, "vel": 80, "len": 4}]}, {"bar": 16, "events": [{"step": 0, "note": 84, "vel": 70, "len": 8}]}]}