{"meta": {"status": "success", "tempo": 75, "key": "C", "scale": "Lydian", "style": "Cinematic Ambient", "mood": "Mystical", "meter": "4/4", "dynamic_profile": "Gradual Swelling", "arrangement_density": "Sparse", "harmonic_color": "Complex/Ethereal", "length_seconds": 51.0, "bars": 16, "instrument_configs": [{"name": "Piano", "register": "High", "role": "Lead", "articulation": "Legato", "dynamic_range": "Moderate"}, {"name": "Pads", "register": "Full", "role": "Texture", "articulation": "Sustain", "dynamic_range": "Delicate"}, {"name": "Strings", "register": "Mid", "role": "Accompaniment", "articulation": "Tremolo", "dynamic_range": "Moderate"}, {"name": "Choirs", "register": "High", "role": "Harmony", "articulation": "Sustain", "dynamic_range": "Pianissimo"}, {"name": "FX", "register": "Very High", "role": "Texture", "articulation": "Percussive", "dynamic_range": "Moderate"}, {"name": "Bass", "register": "Sub", "role": "Bass", "articulation": "Sustain", "dynamic_range": "Moderate"}], "instruments": ["Piano", "Pads", "Strings", "Choirs", "FX", "Bass"], "instrument": "Pads"}, "layers": {"Pads": [{"bar": 1, "events": [{"step": 0, "note": 48, "vel": 50, "len": 8}, {"step": 0, "note": 55, "vel": 45, "len": 8}, {"step": 0, "note": 59, "vel": 48, "len": 8}]}, {"bar": 2, "events": [{"step": 0, "note": 48, "vel": 50, "len": 8}, {"step": 0, "note": 54, "vel": 46, "len": 8}, {"step": 0, "note": 59, "vel": 48, "len": 8}]}, {"bar": 3, "events": [{"step": 0, "note": 48, "vel": 52, "len": 8}, {"step": 0, "note": 52, "vel": 48, "len": 8}, {"step": 0, "note": 55, "vel": 50, "len": 8}]}, {"bar": 4, "events": [{"step": 0, "note": 50, "vel": 52, "len": 8}, {"step": 0, "note": 54, "vel": 50, "len": 8}, {"step": 0, "note": 57, "vel": 52, "len": 8}]}, {"bar": 5, "events": [{"step": 0, "note": 48, "vel": 60, "len": 8}, {"step": 0, "note": 55, "vel": 55, "len": 8}, {"step": 0, "note": 60, "vel": 58, "len": 8}]}, {"bar": 6, "events": [{"step": 0, "note": 48, "vel": 60, "len": 8}, {"step": 0, "note": 54, "vel": 56, "len": 8}, {"step": 0, "note": 59, "vel": 58, "len": 8}]}, {"bar": 7, "events": [{"step": 0, "note": 45, "vel": 62, "len": 8}, {"step": 0, "note": 52, "vel": 60, "len": 8}, {"step": 0, "note": 57, "vel": 62, "len": 8}]}, {"bar": 8, "events": [{"step": 0, "note": 47, "vel": 62, "len": 8}, {"step": 0, "note": 54, "vel": 60, "len": 8}, {"step": 0, "note": 59, "vel": 62, "len": 8}]}, {"bar": 9, "events": [{"step": 0, "note": 48, "vel": 70, "len": 8}, {"step": 0, "note": 55, "vel": 68, "len": 8}, {"step": 0, "note": 62, "vel": 70, "len": 8}]}, {"bar": 10, "events": [{"step": 0, "note": 50, "vel": 70, "len": 8}, {"step": 0, "note": 57, "vel": 68, "len": 8}, {"step": 0, "note": 66, "vel": 70, "len": 8}]}, {"bar": 11, "events": [{"step": 0, "note": 52, "vel": 75, "len": 8}, {"step": 0, "note": 59, "vel": 72, "len": 8}, {"step": 0, "note": 64, "vel": 75, "len": 8}]}, {"bar": 12, "events": [{"step": 0, "note": 54, "vel": 75, "len": 8}, {"step": 0, "note": 60, "vel": 72, "len": 8}, {"step": 0, "note": 66, "vel": 75, "len": 8}]}, {"bar": 13, "events": [{"step": 0, "note": 48, "vel": 80, "len": 8}, {"step": 0, "note": 60, "vel": 78, "len": 8}, {"step": 0, "note": 67, "vel": 80, "len": 8}]}, {"bar": 14, "events": [{"step": 0, "note": 50, "vel": 78, "len": 8}, {"step": 0, "note": 62, "vel": 76, "len": 8}, {"step": 0, "note": 69, "vel": 78, "len": 8}]}, {"bar": 15, "events": [{"step": 0, "note": 48, "vel": 75, "len": 8}, {"step": 0, "note": 60, "vel": 72, "len": 8}, {"step": 0, "note": 67, "vel": 75, "len": 8}]}, {"bar": 16, "events": [{"step": 0, "note": 48, "vel": 60, "len": 8}, {"step": 0, "note": 55, "vel": 55, "len": 8}, {"step": 0, "note": 64, "vel": 60, "len": 8}]}]}, "pattern": [{"bar": 1, "events": [{"step": 0, "note": 48, "vel": 50, "len": 8}, {"step": 0, "note": 55, "vel": 45, "len": 8}, {"step": 0, "note": 59, "vel": 48, "len": 8}]}, {"bar": 2, "events": [{"step": 0, "note": 48, "vel": 50, "len": 8}, {"step": 0, "note": 54, "vel": 46, "len": 8}, {"step": 0, "note": 59, "vel": 48, "len": 8}]}, {"bar": 3, "events": [{"step": 0, "note": 48, "vel": 52, "len": 8}, {"step": 0, "note": 52, "vel": 48, "len": 8}, {"step": 0, "note": 55, "vel": 50, "len": 8}]}, {"bar": 4, "events": [{"step": 0, "note": 50, "vel": 52, "len": 8}, {"step": 0, "note": 54, "vel": 50, "len": 8}, {"step": 0, "note": 57, "vel": 52, "len": 8}]}, {"bar": 5, "events": [{"step": 0, "note": 48, "vel": 60, "len": 8}, {"step": 0, "note": 55, "vel": 55, "len": 8}, {"step": 0, "note": 60, "vel": 58, "len": 8}]}, {"bar": 6, "events": [{"step": 0, "note": 48, "vel": 60, "len": 8}, {"step": 0, "note": 54, "vel": 56, "len": 8}, {"step": 0, "note": 59, "vel": 58, "len": 8}]}, {"bar": 7, "events": [{"step": 0, "note": 45, "vel": 62, "len": 8}, {"step": 0, "note": 52, "vel": 60, "len": 8}, {"step": 0, "note": 57, "vel": 62, "len": 8}]}, {"bar": 8, "events": [{"step": 0, "note": 47, "vel": 62, "len": 8}, {"step": 0, "note": 54, "vel": 60, "len": 8}, {"step": 0, "note": 59, "vel": 62, "len": 8}]}, {"bar": 9, "events": [{"step": 0, "note": 48, "vel": 70, "len": 8}, {"step": 0, "note": 55, "vel": 68, "len": 8}, {"step": 0, "note": 62, "vel": 70, "len": 8}]}, {"bar": 10, "events": [{"step": 0, "note": 50, "vel": 70, "len": 8}, {"step": 0, "note": 57, "vel": 68, "len": 8}, {"step": 0, "note": 66, "vel": 70, "len": 8}]}, {"bar": 11, "events": [{"step": 0, "note": 52, "vel": 75, "len": 8}, {"step": 0, "note": 59, "vel": 72, "len": 8}, {"step": 0, "note": 64, "vel": 75, "len": 8}]}, {"bar": 12, "events": [{"step": 0, "note": 54, "vel": 75, "len": 8}, {"step": 0, "note": 60, "vel": 72, "len": 8}, {"step": 0, "note": 66, "vel": 75, "len": 8}]}, {"bar": 13, "events": [{"step": 0, "note": 48, "vel": 80, "len": 8}, {"step": 0, "note": 60, "vel": 78, "len": 8}, {"step": 0, "note": 67, "vel": 80, "len": 8}]}, {"bar": 14, "events": [{"step": 0, "note": 50, "vel": 78, "len": 8}, {"step": 0, "note": 62, "vel": 76, "len": 8}, {"step": 0, "note": 69, "vel": 78, "len": 8}]}, {"bar": 15, "events": [{"step": 0, "note": 48, "vel": 75, "len": 8}, {"step": 0, "note": 60, "vel": 72, "len": 8}, {"step": 0, "note": 67, "vel": 75, "len": 8}]}, {"bar": 16, "events": [{"step": 0, "note": 48, "vel": 60, "len": 8}, {"step": 0, "note": 55, "vel": 55, "len": 8}, {"step": 0, "note": 64, "vel": 60, "len": 8}]}]}