{"Piano": {"meta": {"status": "success", "tempo": 75, "key": "C", "scale": "Lydian", "style": "Cinematic Ambient", "mood": "Mystical", "meter": "4/4", "dynamic_profile": "Gradual Swelling", "arrangement_density": "Sparse", "harmonic_color": "Complex/Ethereal", "length_seconds": 51.0, "bars": 16, "instrument_configs": [{"name": "Piano", "register": "High", "role": "Lead", "articulation": "Legato", "dynamic_range": "Moderate"}, {"name": "Pads", "register": "Full", "role": "Texture", "articulation": "Sustain", "dynamic_range": "Delicate"}, {"name": "Strings", "register": "Mid", "role": "Accompaniment", "articulation": "Tremolo", "dynamic_range": "Moderate"}, {"name": "Choirs", "register": "High", "role": "Harmony", "articulation": "Sustain", "dynamic_range": "Pianissimo"}, {"name": "FX", "register": "Very High", "role": "Texture", "articulation": "Percussive", "dynamic_range": "Moderate"}, {"name": "Bass", "register": "Sub", "role": "Bass", "articulation": "Sustain", "dynamic_range": "Moderate"}], "instruments": ["Piano", "Pads", "Strings", "Choirs", "FX", "Bass"], "instrument": "Piano"}, "layers": {"Piano": [{"bar": 1, "events": [{"step": 0, "note": 72, "vel": 55, "len": 2}, {"step": 3, "note": 78, "vel": 50, "len": 1}, {"step": 5, "note": 79, "vel": 52, "len": 3}]}, {"bar": 2, "events": [{"step": 0, "note": 83, "vel": 58, "len": 2}, {"step": 4, "note": 76, "vel": 53, "len": 2}, {"step": 7, "note": 78, "vel": 45, "len": 1}]}, {"bar": 3, "events": [{"step": 0, "note": 72, "vel": 56, "len": 2}, {"step": 2, "note": 78, "vel": 52, "len": 2}, {"step": 6, "note": 79, "vel": 54, "len": 2}]}, {"bar": 4, "events": [{"step": 0, "note": 83, "vel": 60, "len": 4}, {"step": 4, "note": 74, "vel": 55, "len": 4}]}, {"bar": 5, "events": [{"step": 0, "note": 84, "vel": 65, "len": 1}, {"step": 2, "note": 78, "vel": 62, "len": 1}, {"step": 4, "note": 79, "vel": 64, "len": 1}, {"step": 6, "note": 83, "vel": 66, "len": 1}]}, {"bar": 6, "events": [{"step": 0, "note": 76, "vel": 63, "len": 2}, {"step": 4, "note": 78, "vel": 60, "len": 2}]}, {"bar": 7, "events": [{"step": 0, "note": 72, "vel": 68, "len": 1}, {"step": 1, "note": 74, "vel": 65, "len": 1}, {"step": 2, "note": 78, "vel": 67, "len": 1}, {"step": 4, "note": 79, "vel": 69, "len": 4}]}, {"bar": 8, "events": [{"step": 0, "note": 86, "vel": 70, "len": 2}, {"step": 3, "note": 83, "vel": 68, "len": 2}, {"step": 6, "note": 78, "vel": 65, "len": 2}]}, {"bar": 9, "events": [{"step": 0, "note": 72, "vel": 75, "len": 1}, {"step": 1, "note": 79, "vel": 72, "len": 1}, {"step": 2, "note": 83, "vel": 74, "len": 1}, {"step": 4, "note": 84, "vel": 78, "len": 1}, {"step": 6, "note": 90, "vel": 80, "len": 2}]}, {"bar": 10, "events": [{"step": 0, "note": 78, "vel": 72, "len": 2}, {"step": 2, "note": 79, "vel": 74, "len": 2}, {"step": 4, "note": 83, "vel": 76, "len": 4}]}, {"bar": 11, "events": [{"step": 0, "note": 72, "vel": 80, "len": 1}, {"step": 2, "note": 78, "vel": 78, "len": 1}, {"step": 4, "note": 83, "vel": 82, "len": 1}, {"step": 6, "note": 90, "vel": 85, "len": 2}]}, {"bar": 12, "events": [{"step": 0, "note": 91, "vel": 82, "len": 2}, {"step": 3, "note": 86, "vel": 80, "len": 2}, {"step": 6, "note": 83, "vel": 78, "len": 2}]}, {"bar": 13, "events": [{"step": 0, "note": 96, "vel": 90, "len": 1}, {"step": 2, "note": 90, "vel": 88, "len": 1}, {"step": 4, "note": 84, "vel": 86, "len": 1}, {"step": 6, "note": 79, "vel": 85, "len": 2}]}, {"bar": 14, "events": [{"step": 0, "note": 78, "vel": 85, "len": 2}, {"step": 2, "note": 83, "vel": 88, "len": 2}, {"step": 4, "note": 90, "vel": 92, "len": 4}]}, {"bar": 15, "events": [{"step": 0, "note": 95, "vel": 85, "len": 4}, {"step": 4, "note": 90, "vel": 80, "len": 4}]}, {"bar": 16, "events": [{"step": 0, "note": 84, "vel": 70, "len": 8}]}]}, "pattern": [{"bar": 1, "events": [{"step": 0, "note": 72, "vel": 55, "len": 2}, {"step": 3, "note": 78, "vel": 50, "len": 1}, {"step": 5, "note": 79, "vel": 52, "len": 3}]}, {"bar": 2, "events": [{"step": 0, "note": 83, "vel": 58, "len": 2}, {"step": 4, "note": 76, "vel": 53, "len": 2}, {"step": 7, "note": 78, "vel": 45, "len": 1}]}, {"bar": 3, "events": [{"step": 0, "note": 72, "vel": 56, "len": 2}, {"step": 2, "note": 78, "vel": 52, "len": 2}, {"step": 6, "note": 79, "vel": 54, "len": 2}]}, {"bar": 4, "events": [{"step": 0, "note": 83, "vel": 60, "len": 4}, {"step": 4, "note": 74, "vel": 55, "len": 4}]}, {"bar": 5, "events": [{"step": 0, "note": 84, "vel": 65, "len": 1}, {"step": 2, "note": 78, "vel": 62, "len": 1}, {"step": 4, "note": 79, "vel": 64, "len": 1}, {"step": 6, "note": 83, "vel": 66, "len": 1}]}, {"bar": 6, "events": [{"step": 0, "note": 76, "vel": 63, "len": 2}, {"step": 4, "note": 78, "vel": 60, "len": 2}]}, {"bar": 7, "events": [{"step": 0, "note": 72, "vel": 68, "len": 1}, {"step": 1, "note": 74, "vel": 65, "len": 1}, {"step": 2, "note": 78, "vel": 67, "len": 1}, {"step": 4, "note": 79, "vel": 69, "len": 4}]}, {"bar": 8, "events": [{"step": 0, "note": 86, "vel": 70, "len": 2}, {"step": 3, "note": 83, "vel": 68, "len": 2}, {"step": 6, "note": 78, "vel": 65, "len": 2}]}, {"bar": 9, "events": [{"step": 0, "note": 72, "vel": 75, "len": 1}, {"step": 1, "note": 79, "vel": 72, "len": 1}, {"step": 2, "note": 83, "vel": 74, "len": 1}, {"step": 4, "note": 84, "vel": 78, "len": 1}, {"step": 6, "note": 90, "vel": 80, "len": 2}]}, {"bar": 10, "events": [{"step": 0, "note": 78, "vel": 72, "len": 2}, {"step": 2, "note": 79, "vel": 74, "len": 2}, {"step": 4, "note": 83, "vel": 76, "len": 4}]}, {"bar": 11, "events": [{"step": 0, "note": 72, "vel": 80, "len": 1}, {"step": 2, "note": 78, "vel": 78, "len": 1}, {"step": 4, "note": 83, "vel": 82, "len": 1}, {"step": 6, "note": 90, "vel": 85, "len": 2}]}, {"bar": 12, "events": [{"step": 0, "note": 91, "vel": 82, "len": 2}, {"step": 3, "note": 86, "vel": 80, "len": 2}, {"step": 6, "note": 83, "vel": 78, "len": 2}]}, {"bar": 13, "events": [{"step": 0, "note": 96, "vel": 90, "len": 1}, {"step": 2, "note": 90, "vel": 88, "len": 1}, {"step": 4, "note": 84, "vel": 86, "len": 1}, {"step": 6, "note": 79, "vel": 85, "len": 2}]}, {"bar": 14, "events": [{"step": 0, "note": 78, "vel": 85, "len": 2}, {"step": 2, "note": 83, "vel": 88, "len": 2}, {"step": 4, "note": 90, "vel": 92, "len": 4}]}, {"bar": 15, "events": [{"step": 0, "note": 95, "vel": 85, "len": 4}, {"step": 4, "note": 90, "vel": 80, "len": 4}]}, {"bar": 16, "events": [{"step": 0, "note": 84, "vel": 70, "len": 8}]}]}, "Pads": {"meta": {"status": "success", "tempo": 75, "key": "C", "scale": "Lydian", "style": "Cinematic Ambient", "mood": "Mystical", "meter": "4/4", "dynamic_profile": "Gradual Swelling", "arrangement_density": "Sparse", "harmonic_color": "Complex/Ethereal", "length_seconds": 51.0, "bars": 16, "instrument_configs": [{"name": "Piano", "register": "High", "role": "Lead", "articulation": "Legato", "dynamic_range": "Moderate"}, {"name": "Pads", "register": "Full", "role": "Texture", "articulation": "Sustain", "dynamic_range": "Delicate"}, {"name": "Strings", "register": "Mid", "role": "Accompaniment", "articulation": "Tremolo", "dynamic_range": "Moderate"}, {"name": "Choirs", "register": "High", "role": "Harmony", "articulation": "Sustain", "dynamic_range": "Pianissimo"}, {"name": "FX", "register": "Very High", "role": "Texture", "articulation": "Percussive", "dynamic_range": "Moderate"}, {"name": "Bass", "register": "Sub", "role": "Bass", "articulation": "Sustain", "dynamic_range": "Moderate"}], "instruments": ["Piano", "Pads", "Strings", "Choirs", "FX", "Bass"], "instrument": "Pads"}, "layers": {"Pads": [{"bar": 1, "events": [{"step": 0, "note": 48, "vel": 50, "len": 8}, {"step": 0, "note": 55, "vel": 45, "len": 8}, {"step": 0, "note": 59, "vel": 48, "len": 8}]}, {"bar": 2, "events": [{"step": 0, "note": 48, "vel": 50, "len": 8}, {"step": 0, "note": 54, "vel": 46, "len": 8}, {"step": 0, "note": 59, "vel": 48, "len": 8}]}, {"bar": 3, "events": [{"step": 0, "note": 48, "vel": 52, "len": 8}, {"step": 0, "note": 52, "vel": 48, "len": 8}, {"step": 0, "note": 55, "vel": 50, "len": 8}]}, {"bar": 4, "events": [{"step": 0, "note": 50, "vel": 52, "len": 8}, {"step": 0, "note": 54, "vel": 50, "len": 8}, {"step": 0, "note": 57, "vel": 52, "len": 8}]}, {"bar": 5, "events": [{"step": 0, "note": 48, "vel": 60, "len": 8}, {"step": 0, "note": 55, "vel": 55, "len": 8}, {"step": 0, "note": 60, "vel": 58, "len": 8}]}, {"bar": 6, "events": [{"step": 0, "note": 48, "vel": 60, "len": 8}, {"step": 0, "note": 54, "vel": 56, "len": 8}, {"step": 0, "note": 59, "vel": 58, "len": 8}]}, {"bar": 7, "events": [{"step": 0, "note": 45, "vel": 62, "len": 8}, {"step": 0, "note": 52, "vel": 60, "len": 8}, {"step": 0, "note": 57, "vel": 62, "len": 8}]}, {"bar": 8, "events": [{"step": 0, "note": 47, "vel": 62, "len": 8}, {"step": 0, "note": 54, "vel": 60, "len": 8}, {"step": 0, "note": 59, "vel": 62, "len": 8}]}, {"bar": 9, "events": [{"step": 0, "note": 48, "vel": 70, "len": 8}, {"step": 0, "note": 55, "vel": 68, "len": 8}, {"step": 0, "note": 62, "vel": 70, "len": 8}]}, {"bar": 10, "events": [{"step": 0, "note": 50, "vel": 70, "len": 8}, {"step": 0, "note": 57, "vel": 68, "len": 8}, {"step": 0, "note": 66, "vel": 70, "len": 8}]}, {"bar": 11, "events": [{"step": 0, "note": 52, "vel": 75, "len": 8}, {"step": 0, "note": 59, "vel": 72, "len": 8}, {"step": 0, "note": 64, "vel": 75, "len": 8}]}, {"bar": 12, "events": [{"step": 0, "note": 54, "vel": 75, "len": 8}, {"step": 0, "note": 60, "vel": 72, "len": 8}, {"step": 0, "note": 66, "vel": 75, "len": 8}]}, {"bar": 13, "events": [{"step": 0, "note": 48, "vel": 80, "len": 8}, {"step": 0, "note": 60, "vel": 78, "len": 8}, {"step": 0, "note": 67, "vel": 80, "len": 8}]}, {"bar": 14, "events": [{"step": 0, "note": 50, "vel": 78, "len": 8}, {"step": 0, "note": 62, "vel": 76, "len": 8}, {"step": 0, "note": 69, "vel": 78, "len": 8}]}, {"bar": 15, "events": [{"step": 0, "note": 48, "vel": 75, "len": 8}, {"step": 0, "note": 60, "vel": 72, "len": 8}, {"step": 0, "note": 67, "vel": 75, "len": 8}]}, {"bar": 16, "events": [{"step": 0, "note": 48, "vel": 60, "len": 8}, {"step": 0, "note": 55, "vel": 55, "len": 8}, {"step": 0, "note": 64, "vel": 60, "len": 8}]}]}, "pattern": [{"bar": 1, "events": [{"step": 0, "note": 48, "vel": 50, "len": 8}, {"step": 0, "note": 55, "vel": 45, "len": 8}, {"step": 0, "note": 59, "vel": 48, "len": 8}]}, {"bar": 2, "events": [{"step": 0, "note": 48, "vel": 50, "len": 8}, {"step": 0, "note": 54, "vel": 46, "len": 8}, {"step": 0, "note": 59, "vel": 48, "len": 8}]}, {"bar": 3, "events": [{"step": 0, "note": 48, "vel": 52, "len": 8}, {"step": 0, "note": 52, "vel": 48, "len": 8}, {"step": 0, "note": 55, "vel": 50, "len": 8}]}, {"bar": 4, "events": [{"step": 0, "note": 50, "vel": 52, "len": 8}, {"step": 0, "note": 54, "vel": 50, "len": 8}, {"step": 0, "note": 57, "vel": 52, "len": 8}]}, {"bar": 5, "events": [{"step": 0, "note": 48, "vel": 60, "len": 8}, {"step": 0, "note": 55, "vel": 55, "len": 8}, {"step": 0, "note": 60, "vel": 58, "len": 8}]}, {"bar": 6, "events": [{"step": 0, "note": 48, "vel": 60, "len": 8}, {"step": 0, "note": 54, "vel": 56, "len": 8}, {"step": 0, "note": 59, "vel": 58, "len": 8}]}, {"bar": 7, "events": [{"step": 0, "note": 45, "vel": 62, "len": 8}, {"step": 0, "note": 52, "vel": 60, "len": 8}, {"step": 0, "note": 57, "vel": 62, "len": 8}]}, {"bar": 8, "events": [{"step": 0, "note": 47, "vel": 62, "len": 8}, {"step": 0, "note": 54, "vel": 60, "len": 8}, {"step": 0, "note": 59, "vel": 62, "len": 8}]}, {"bar": 9, "events": [{"step": 0, "note": 48, "vel": 70, "len": 8}, {"step": 0, "note": 55, "vel": 68, "len": 8}, {"step": 0, "note": 62, "vel": 70, "len": 8}]}, {"bar": 10, "events": [{"step": 0, "note": 50, "vel": 70, "len": 8}, {"step": 0, "note": 57, "vel": 68, "len": 8}, {"step": 0, "note": 66, "vel": 70, "len": 8}]}, {"bar": 11, "events": [{"step": 0, "note": 52, "vel": 75, "len": 8}, {"step": 0, "note": 59, "vel": 72, "len": 8}, {"step": 0, "note": 64, "vel": 75, "len": 8}]}, {"bar": 12, "events": [{"step": 0, "note": 54, "vel": 75, "len": 8}, {"step": 0, "note": 60, "vel": 72, "len": 8}, {"step": 0, "note": 66, "vel": 75, "len": 8}]}, {"bar": 13, "events": [{"step": 0, "note": 48, "vel": 80, "len": 8}, {"step": 0, "note": 60, "vel": 78, "len": 8}, {"step": 0, "note": 67, "vel": 80, "len": 8}]}, {"bar": 14, "events": [{"step": 0, "note": 50, "vel": 78, "len": 8}, {"step": 0, "note": 62, "vel": 76, "len": 8}, {"step": 0, "note": 69, "vel": 78, "len": 8}]}, {"bar": 15, "events": [{"step": 0, "note": 48, "vel": 75, "len": 8}, {"step": 0, "note": 60, "vel": 72, "len": 8}, {"step": 0, "note": 67, "vel": 75, "len": 8}]}, {"bar": 16, "events": [{"step": 0, "note": 48, "vel": 60, "len": 8}, {"step": 0, "note": 55, "vel": 55, "len": 8}, {"step": 0, "note": 64, "vel": 60, "len": 8}]}]}, "Strings": {"meta": {"status": "success", "tempo": 75, "key": "C", "scale": "Lydian", "style": "Cinematic Ambient", "mood": "Mystical", "meter": "4/4", "dynamic_profile": "Gradual Swelling", "arrangement_density": "Sparse", "harmonic_color": "Complex/Ethereal", "length_seconds": 51.0, "bars": 16, "instrument_configs": [{"name": "Piano", "register": "High", "role": "Lead", "articulation": "Legato", "dynamic_range": "Moderate"}, {"name": "Pads", "register": "Full", "role": "Texture", "articulation": "Sustain", "dynamic_range": "Delicate"}, {"name": "Strings", "register": "Mid", "role": "Accompaniment", "articulation": "Tremolo", "dynamic_range": "Moderate"}, {"name": "Choirs", "register": "High", "role": "Harmony", "articulation": "Sustain", "dynamic_range": "Pianissimo"}, {"name": "FX", "register": "Very High", "role": "Texture", "articulation": "Percussive", "dynamic_range": "Moderate"}, {"name": "Bass", "register": "Sub", "role": "Bass", "articulation": "Sustain", "dynamic_range": "Moderate"}], "instruments": ["Piano", "Pads", "Strings", "Choirs", "FX", "Bass"], "instrument": "Strings"}, "layers": {"Strings": [{"bar": 5, "events": [{"step": 0, "note": 64, "vel": 50, "len": 4}, {"step": 4, "note": 64, "vel": 55, "len": 4}, {"step": 0, "note": 71, "vel": 45, "len": 8}]}, {"bar": 6, "events": [{"step": 0, "note": 62, "vel": 52, "len": 4}, {"step": 4, "note": 62, "vel": 58, "len": 4}, {"step": 0, "note": 69, "vel": 48, "len": 8}]}, {"bar": 7, "events": [{"step": 0, "note": 60, "vel": 55, "len": 4}, {"step": 4, "note": 60, "vel": 60, "len": 4}, {"step": 0, "note": 67, "vel": 50, "len": 8}]}, {"bar": 8, "events": [{"step": 0, "note": 66, "vel": 58, "len": 4}, {"step": 4, "note": 66, "vel": 62, "len": 4}, {"step": 0, "note": 74, "vel": 55, "len": 8}]}, {"bar": 9, "events": [{"step": 0, "note": 64, "vel": 65, "len": 2}, {"step": 2, "note": 64, "vel": 70, "len": 2}, {"step": 4, "note": 64, "vel": 65, "len": 2}, {"step": 6, "note": 64, "vel": 70, "len": 2}, {"step": 0, "note": 76, "vel": 60, "len": 8}]}, {"bar": 10, "events": [{"step": 0, "note": 66, "vel": 68, "len": 2}, {"step": 2, "note": 66, "vel": 72, "len": 2}, {"step": 4, "note": 66, "vel": 68, "len": 2}, {"step": 6, "note": 66, "vel": 72, "len": 2}, {"step": 0, "note": 78, "vel": 65, "len": 8}]}, {"bar": 11, "events": [{"step": 0, "note": 67, "vel": 70, "len": 2}, {"step": 2, "note": 67, "vel": 75, "len": 2}, {"step": 4, "note": 67, "vel": 70, "len": 2}, {"step": 6, "note": 67, "vel": 75, "len": 2}, {"step": 0, "note": 79, "vel": 68, "len": 8}]}, {"bar": 12, "events": [{"step": 0, "note": 69, "vel": 72, "len": 2}, {"step": 2, "note": 69, "vel": 78, "len": 2}, {"step": 4, "note": 69, "vel": 72, "len": 2}, {"step": 6, "note": 69, "vel": 78, "len": 2}, {"step": 0, "note": 81, "vel": 70, "len": 8}]}, {"bar": 13, "events": [{"step": 0, "note": 72, "vel": 80, "len": 1}, {"step": 1, "note": 72, "vel": 85, "len": 1}, {"step": 2, "note": 72, "vel": 80, "len": 1}, {"step": 3, "note": 72, "vel": 85, "len": 1}, {"step": 4, "note": 72, "vel": 80, "len": 1}, {"step": 5, "note": 72, "vel": 85, "len": 1}, {"step": 6, "note": 72, "vel": 80, "len": 1}, {"step": 7, "note": 72, "vel": 85, "len": 1}]}, {"bar": 14, "events": [{"step": 0, "note": 74, "vel": 82, "len": 1}, {"step": 1, "note": 74, "vel": 88, "len": 1}, {"step": 2, "note": 74, "vel": 82, "len": 1}, {"step": 3, "note": 74, "vel": 88, "len": 1}, {"step": 4, "note": 74, "vel": 82, "len": 1}, {"step": 5, "note": 74, "vel": 88, "len": 1}, {"step": 6, "note": 74, "vel": 82, "len": 1}, {"step": 7, "note": 74, "vel": 88, "len": 1}]}, {"bar": 15, "events": [{"step": 0, "note": 72, "vel": 75, "len": 4}, {"step": 4, "note": 72, "vel": 70, "len": 4}]}, {"bar": 16, "events": [{"step": 0, "note": 72, "vel": 60, "len": 8}]}]}, "pattern": [{"bar": 5, "events": [{"step": 0, "note": 64, "vel": 50, "len": 4}, {"step": 4, "note": 64, "vel": 55, "len": 4}, {"step": 0, "note": 71, "vel": 45, "len": 8}]}, {"bar": 6, "events": [{"step": 0, "note": 62, "vel": 52, "len": 4}, {"step": 4, "note": 62, "vel": 58, "len": 4}, {"step": 0, "note": 69, "vel": 48, "len": 8}]}, {"bar": 7, "events": [{"step": 0, "note": 60, "vel": 55, "len": 4}, {"step": 4, "note": 60, "vel": 60, "len": 4}, {"step": 0, "note": 67, "vel": 50, "len": 8}]}, {"bar": 8, "events": [{"step": 0, "note": 66, "vel": 58, "len": 4}, {"step": 4, "note": 66, "vel": 62, "len": 4}, {"step": 0, "note": 74, "vel": 55, "len": 8}]}, {"bar": 9, "events": [{"step": 0, "note": 64, "vel": 65, "len": 2}, {"step": 2, "note": 64, "vel": 70, "len": 2}, {"step": 4, "note": 64, "vel": 65, "len": 2}, {"step": 6, "note": 64, "vel": 70, "len": 2}, {"step": 0, "note": 76, "vel": 60, "len": 8}]}, {"bar": 10, "events": [{"step": 0, "note": 66, "vel": 68, "len": 2}, {"step": 2, "note": 66, "vel": 72, "len": 2}, {"step": 4, "note": 66, "vel": 68, "len": 2}, {"step": 6, "note": 66, "vel": 72, "len": 2}, {"step": 0, "note": 78, "vel": 65, "len": 8}]}, {"bar": 11, "events": [{"step": 0, "note": 67, "vel": 70, "len": 2}, {"step": 2, "note": 67, "vel": 75, "len": 2}, {"step": 4, "note": 67, "vel": 70, "len": 2}, {"step": 6, "note": 67, "vel": 75, "len": 2}, {"step": 0, "note": 79, "vel": 68, "len": 8}]}, {"bar": 12, "events": [{"step": 0, "note": 69, "vel": 72, "len": 2}, {"step": 2, "note": 69, "vel": 78, "len": 2}, {"step": 4, "note": 69, "vel": 72, "len": 2}, {"step": 6, "note": 69, "vel": 78, "len": 2}, {"step": 0, "note": 81, "vel": 70, "len": 8}]}, {"bar": 13, "events": [{"step": 0, "note": 72, "vel": 80, "len": 1}, {"step": 1, "note": 72, "vel": 85, "len": 1}, {"step": 2, "note": 72, "vel": 80, "len": 1}, {"step": 3, "note": 72, "vel": 85, "len": 1}, {"step": 4, "note": 72, "vel": 80, "len": 1}, {"step": 5, "note": 72, "vel": 85, "len": 1}, {"step": 6, "note": 72, "vel": 80, "len": 1}, {"step": 7, "note": 72, "vel": 85, "len": 1}]}, {"bar": 14, "events": [{"step": 0, "note": 74, "vel": 82, "len": 1}, {"step": 1, "note": 74, "vel": 88, "len": 1}, {"step": 2, "note": 74, "vel": 82, "len": 1}, {"step": 3, "note": 74, "vel": 88, "len": 1}, {"step": 4, "note": 74, "vel": 82, "len": 1}, {"step": 5, "note": 74, "vel": 88, "len": 1}, {"step": 6, "note": 74, "vel": 82, "len": 1}, {"step": 7, "note": 74, "vel": 88, "len": 1}]}, {"bar": 15, "events": [{"step": 0, "note": 72, "vel": 75, "len": 4}, {"step": 4, "note": 72, "vel": 70, "len": 4}]}, {"bar": 16, "events": [{"step": 0, "note": 72, "vel": 60, "len": 8}]}]}, "Choirs": {"meta": {"status": "success", "tempo": 75, "key": "C", "scale": "Lydian", "style": "Cinematic Ambient", "mood": "Mystical", "meter": "4/4", "dynamic_profile": "Gradual Swelling", "arrangement_density": "Sparse", "harmonic_color": "Complex/Ethereal", "length_seconds": 51.0, "bars": 16, "instrument_configs": [{"name": "Piano", "register": "High", "role": "Lead", "articulation": "Legato", "dynamic_range": "Moderate"}, {"name": "Pads", "register": "Full", "role": "Texture", "articulation": "Sustain", "dynamic_range": "Delicate"}, {"name": "Strings", "register": "Mid", "role": "Accompaniment", "articulation": "Tremolo", "dynamic_range": "Moderate"}, {"name": "Choirs", "register": "High", "role": "Harmony", "articulation": "Sustain", "dynamic_range": "Pianissimo"}, {"name": "FX", "register": "Very High", "role": "Texture", "articulation": "Percussive", "dynamic_range": "Moderate"}, {"name": "Bass", "register": "Sub", "role": "Bass", "articulation": "Sustain", "dynamic_range": "Moderate"}], "instruments": ["Piano", "Pads", "Strings", "Choirs", "FX", "Bass"], "instrument": "Choirs"}, "layers": {"Choirs": [{"bar": 9, "events": [{"step": 0, "note": 76, "vel": 60, "len": 8}, {"step": 0, "note": 83, "vel": 55, "len": 8}]}, {"bar": 10, "events": [{"step": 0, "note": 78, "vel": 62, "len": 8}, {"step": 0, "note": 86, "vel": 58, "len": 8}]}, {"bar": 11, "events": [{"step": 0, "note": 79, "vel": 65, "len": 8}, {"step": 0, "note": 88, "vel": 60, "len": 8}]}, {"bar": 12, "events": [{"step": 0, "note": 78, "vel": 68, "len": 8}, {"step": 0, "note": 86, "vel": 65, "len": 8}]}, {"bar": 13, "events": [{"step": 0, "note": 84, "vel": 80, "len": 8}, {"step": 0, "note": 91, "vel": 75, "len": 8}]}, {"bar": 14, "events": [{"step": 0, "note": 86, "vel": 82, "len": 8}, {"step": 0, "note": 93, "vel": 78, "len": 8}]}, {"bar": 15, "events": [{"step": 0, "note": 84, "vel": 75, "len": 8}, {"step": 0, "note": 91, "vel": 70, "len": 8}]}, {"bar": 16, "events": [{"step": 0, "note": 79, "vel": 65, "len": 8}, {"step": 0, "note": 84, "vel": 60, "len": 8}]}]}, "pattern": [{"bar": 9, "events": [{"step": 0, "note": 76, "vel": 60, "len": 8}, {"step": 0, "note": 83, "vel": 55, "len": 8}]}, {"bar": 10, "events": [{"step": 0, "note": 78, "vel": 62, "len": 8}, {"step": 0, "note": 86, "vel": 58, "len": 8}]}, {"bar": 11, "events": [{"step": 0, "note": 79, "vel": 65, "len": 8}, {"step": 0, "note": 88, "vel": 60, "len": 8}]}, {"bar": 12, "events": [{"step": 0, "note": 78, "vel": 68, "len": 8}, {"step": 0, "note": 86, "vel": 65, "len": 8}]}, {"bar": 13, "events": [{"step": 0, "note": 84, "vel": 80, "len": 8}, {"step": 0, "note": 91, "vel": 75, "len": 8}]}, {"bar": 14, "events": [{"step": 0, "note": 86, "vel": 82, "len": 8}, {"step": 0, "note": 93, "vel": 78, "len": 8}]}, {"bar": 15, "events": [{"step": 0, "note": 84, "vel": 75, "len": 8}, {"step": 0, "note": 91, "vel": 70, "len": 8}]}, {"bar": 16, "events": [{"step": 0, "note": 79, "vel": 65, "len": 8}, {"step": 0, "note": 84, "vel": 60, "len": 8}]}]}, "FX": {"meta": {"status": "success", "tempo": 75, "key": "C", "scale": "Lydian", "style": "Cinematic Ambient", "mood": "Mystical", "meter": "4/4", "dynamic_profile": "Gradual Swelling", "arrangement_density": "Sparse", "harmonic_color": "Complex/Ethereal", "length_seconds": 51.0, "bars": 16, "instrument_configs": [{"name": "Piano", "register": "High", "role": "Lead", "articulation": "Legato", "dynamic_range": "Moderate"}, {"name": "Pads", "register": "Full", "role": "Texture", "articulation": "Sustain", "dynamic_range": "Delicate"}, {"name": "Strings", "register": "Mid", "role": "Accompaniment", "articulation": "Tremolo", "dynamic_range": "Moderate"}, {"name": "Choirs", "register": "High", "role": "Harmony", "articulation": "Sustain", "dynamic_range": "Pianissimo"}, {"name": "FX", "register": "Very High", "role": "Texture", "articulation": "Percussive", "dynamic_range": "Moderate"}, {"name": "Bass", "register": "Sub", "role": "Bass", "articulation": "Sustain", "dynamic_range": "Moderate"}], "instruments": ["Piano", "Pads", "Strings", "Choirs", "FX", "Bass"], "instrument": "FX"}, "layers": {"FX": [{"bar": 1, "events": [{"step": 0, "note": 96, "vel": 40, "len": 1}]}, {"bar": 3, "events": [{"step": 0, "note": 90, "vel": 45, "len": 1}]}, {"bar": 5, "events": [{"step": 0, "note": 102, "vel": 50, "len": 1}, {"step": 4, "note": 96, "vel": 45, "len": 1}]}, {"bar": 7, "events": [{"step": 0, "note": 90, "vel": 55, "len": 1}, {"step": 6, "note": 102, "vel": 50, "len": 1}]}, {"bar": 9, "events": [{"step": 0, "note": 108, "vel": 60, "len": 1}, {"step": 2, "note": 96, "vel": 55, "len": 1}, {"step": 6, "note": 90, "vel": 50, "len": 1}]}, {"bar": 11, "events": [{"step": 0, "note": 102, "vel": 65, "len": 1}, {"step": 4, "note": 108, "vel": 60, "len": 1}]}, {"bar": 13, "events": [{"step": 0, "note": 96, "vel": 70, "len": 1}, {"step": 1, "note": 102, "vel": 65, "len": 1}, {"step": 2, "note": 108, "vel": 70, "len": 1}, {"step": 3, "note": 102, "vel": 65, "len": 1}]}, {"bar": 15, "events": [{"step": 0, "note": 90, "vel": 60, "len": 1}, {"step": 4, "note": 96, "vel": 50, "len": 1}]}]}, "pattern": [{"bar": 1, "events": [{"step": 0, "note": 96, "vel": 40, "len": 1}]}, {"bar": 3, "events": [{"step": 0, "note": 90, "vel": 45, "len": 1}]}, {"bar": 5, "events": [{"step": 0, "note": 102, "vel": 50, "len": 1}, {"step": 4, "note": 96, "vel": 45, "len": 1}]}, {"bar": 7, "events": [{"step": 0, "note": 90, "vel": 55, "len": 1}, {"step": 6, "note": 102, "vel": 50, "len": 1}]}, {"bar": 9, "events": [{"step": 0, "note": 108, "vel": 60, "len": 1}, {"step": 2, "note": 96, "vel": 55, "len": 1}, {"step": 6, "note": 90, "vel": 50, "len": 1}]}, {"bar": 11, "events": [{"step": 0, "note": 102, "vel": 65, "len": 1}, {"step": 4, "note": 108, "vel": 60, "len": 1}]}, {"bar": 13, "events": [{"step": 0, "note": 96, "vel": 70, "len": 1}, {"step": 1, "note": 102, "vel": 65, "len": 1}, {"step": 2, "note": 108, "vel": 70, "len": 1}, {"step": 3, "note": 102, "vel": 65, "len": 1}]}, {"bar": 15, "events": [{"step": 0, "note": 90, "vel": 60, "len": 1}, {"step": 4, "note": 96, "vel": 50, "len": 1}]}]}, "Bass": {"meta": {"status": "success", "tempo": 75, "key": "C", "scale": "Lydian", "style": "Cinematic Ambient", "mood": "Mystical", "meter": "4/4", "dynamic_profile": "Gradual Swelling", "arrangement_density": "Sparse", "harmonic_color": "Complex/Ethereal", "length_seconds": 51.0, "bars": 16, "instrument_configs": [{"name": "Piano", "register": "High", "role": "Lead", "articulation": "Legato", "dynamic_range": "Moderate"}, {"name": "Pads", "register": "Full", "role": "Texture", "articulation": "Sustain", "dynamic_range": "Delicate"}, {"name": "Strings", "register": "Mid", "role": "Accompaniment", "articulation": "Tremolo", "dynamic_range": "Moderate"}, {"name": "Choirs", "register": "High", "role": "Harmony", "articulation": "Sustain", "dynamic_range": "Pianissimo"}, {"name": "FX", "register": "Very High", "role": "Texture", "articulation": "Percussive", "dynamic_range": "Moderate"}, {"name": "Bass", "register": "Sub", "role": "Bass", "articulation": "Sustain", "dynamic_range": "Moderate"}], "instruments": ["Piano", "Pads", "Strings", "Choirs", "FX", "Bass"], "instrument": "Bass"}, "layers": {"Bass": [{"bar": 1, "events": [{"step": 0, "note": 36, "vel": 60, "len": 8}]}, {"bar": 2, "events": [{"step": 0, "note": 36, "vel": 60, "len": 8}]}, {"bar": 3, "events": [{"step": 0, "note": 36, "vel": 62, "len": 8}]}, {"bar": 4, "events": [{"step": 0, "note": 38, "vel": 62, "len": 8}]}, {"bar": 5, "events": [{"step": 0, "note": 36, "vel": 65, "len": 8}]}, {"bar": 6, "events": [{"step": 0, "note": 36, "vel": 65, "len": 8}]}, {"bar": 7, "events": [{"step": 0, "note": 33, "vel": 68, "len": 8}]}, {"bar": 8, "events": [{"step": 0, "note": 35, "vel": 68, "len": 8}]}, {"bar": 9, "events": [{"step": 0, "note": 36, "vel": 75, "len": 8}]}, {"bar": 10, "events": [{"step": 0, "note": 38, "vel": 75, "len": 8}]}, {"bar": 11, "events": [{"step": 0, "note": 40, "vel": 78, "len": 8}]}, {"bar": 12, "events": [{"step": 0, "note": 42, "vel": 78, "len": 8}]}, {"bar": 13, "events": [{"step": 0, "note": 36, "vel": 85, "len": 8}]}, {"bar": 14, "events": [{"step": 0, "note": 38, "vel": 85, "len": 8}]}, {"bar": 15, "events": [{"step": 0, "note": 36, "vel": 80, "len": 8}]}, {"bar": 16, "events": [{"step": 0, "note": 36, "vel": 70, "len": 8}]}]}, "pattern": [{"bar": 1, "events": [{"step": 0, "note": 36, "vel": 60, "len": 8}]}, {"bar": 2, "events": [{"step": 0, "note": 36, "vel": 60, "len": 8}]}, {"bar": 3, "events": [{"step": 0, "note": 36, "vel": 62, "len": 8}]}, {"bar": 4, "events": [{"step": 0, "note": 38, "vel": 62, "len": 8}]}, {"bar": 5, "events": [{"step": 0, "note": 36, "vel": 65, "len": 8}]}, {"bar": 6, "events": [{"step": 0, "note": 36, "vel": 65, "len": 8}]}, {"bar": 7, "events": [{"step": 0, "note": 33, "vel": 68, "len": 8}]}, {"bar": 8, "events": [{"step": 0, "note": 35, "vel": 68, "len": 8}]}, {"bar": 9, "events": [{"step": 0, "note": 36, "vel": 75, "len": 8}]}, {"bar": 10, "events": [{"step": 0, "note": 38, "vel": 75, "len": 8}]}, {"bar": 11, "events": [{"step": 0, "note": 40, "vel": 78, "len": 8}]}, {"bar": 12, "events": [{"step": 0, "note": 42, "vel": 78, "len": 8}]}, {"bar": 13, "events": [{"step": 0, "note": 36, "vel": 85, "len": 8}]}, {"bar": 14, "events": [{"step": 0, "note": 38, "vel": 85, "len": 8}]}, {"bar": 15, "events": [{"step": 0, "note": 36, "vel": 80, "len": 8}]}, {"bar": 16, "events": [{"step": 0, "note": 36, "vel": 70, "len": 8}]}]}}