{"meta": {"status": "success", "tempo": 80, "key": "C", "scale": "Major", "style": "Unknown", "mood": "Unknown", "meter": "4/4", "dynamic_profile": "Moderate", "arrangement_density": "Balanced", "harmonic_color": "Warm", "length_seconds": 32.0, "bars": 16, "instrument_configs": [{"name": "Piano", "register": "Mid", "role": "Lead", "articulation": "Sustain", "dynamic_range": "Moderate"}, {"name": "Strings", "register": "Full", "role": "Texture", "articulation": "Legato", "dynamic_range": "Intense"}, {"name": "Bass", "register": "Low", "role": "Bass", "articulation": "Pizzicato", "dynamic_range": "Delicate"}, {"name": "Drums", "register": "Mid", "role": "Percussion", "articulation": "Staccato", "dynamic_range": "Fortissimo"}], "instruments": ["Piano", "Strings", "Bass", "Drums"], "instrument": "Piano"}, "layers": {"Piano": [{"bar": 1, "events": [{"step": 0, "note": 60, "vel": 80, "len": 2}, {"step": 4, "note": 64, "vel": 80, "len": 2}]}, {"bar": 2, "events": [{"step": 0, "note": 67, "vel": 80, "len": 2}, {"step": 4, "note": 71, "vel": 80, "len": 2}]}, {"bar": 3, "events": [{"step": 0, "note": 60, "vel": 80, "len": 2}, {"step": 4, "note": 64, "vel": 80, "len": 2}]}, {"bar": 4, "events": [{"step": 0, "note": 67, "vel": 80, "len": 2}, {"step": 4, "note": 71, "vel": 80, "len": 2}]}, {"bar": 5, "events": [{"step": 0, "note": 60, "vel": 80, "len": 2}, {"step": 4, "note": 64, "vel": 80, "len": 2}]}, {"bar": 6, "events": [{"step": 0, "note": 67, "vel": 80, "len": 2}, {"step": 4, "note": 71, "vel": 80, "len": 2}]}, {"bar": 7, "events": [{"step": 0, "note": 60, "vel": 80, "len": 2}, {"step": 4, "note": 64, "vel": 80, "len": 2}]}, {"bar": 8, "events": [{"step": 0, "note": 67, "vel": 80, "len": 2}, {"step": 4, "note": 71, "vel": 80, "len": 2}]}, {"bar": 9, "events": [{"step": 0, "note": 60, "vel": 80, "len": 2}, {"step": 4, "note": 64, "vel": 80, "len": 2}]}, {"bar": 10, "events": [{"step": 0, "note": 67, "vel": 80, "len": 2}, {"step": 4, "note": 71, "vel": 80, "len": 2}]}, {"bar": 11, "events": [{"step": 0, "note": 60, "vel": 80, "len": 2}, {"step": 4, "note": 64, "vel": 80, "len": 2}]}, {"bar": 12, "events": [{"step": 0, "note": 67, "vel": 80, "len": 2}, {"step": 4, "note": 71, "vel": 80, "len": 2}]}, {"bar": 13, "events": [{"step": 0, "note": 60, "vel": 80, "len": 2}, {"step": 4, "note": 64, "vel": 80, "len": 2}]}, {"bar": 14, "events": [{"step": 0, "note": 67, "vel": 80, "len": 2}, {"step": 4, "note": 71, "vel": 80, "len": 2}]}, {"bar": 15, "events": [{"step": 0, "note": 60, "vel": 80, "len": 2}, {"step": 4, "note": 64, "vel": 80, "len": 2}]}, {"bar": 16, "events": [{"step": 0, "note": 67, "vel": 80, "len": 2}, {"step": 4, "note": 71, "vel": 80, "len": 2}]}]}, "pattern": [{"bar": 1, "events": [{"step": 0, "note": 60, "vel": 80, "len": 2}, {"step": 4, "note": 64, "vel": 80, "len": 2}]}, {"bar": 2, "events": [{"step": 0, "note": 67, "vel": 80, "len": 2}, {"step": 4, "note": 71, "vel": 80, "len": 2}]}, {"bar": 3, "events": [{"step": 0, "note": 60, "vel": 80, "len": 2}, {"step": 4, "note": 64, "vel": 80, "len": 2}]}, {"bar": 4, "events": [{"step": 0, "note": 67, "vel": 80, "len": 2}, {"step": 4, "note": 71, "vel": 80, "len": 2}]}, {"bar": 5, "events": [{"step": 0, "note": 60, "vel": 80, "len": 2}, {"step": 4, "note": 64, "vel": 80, "len": 2}]}, {"bar": 6, "events": [{"step": 0, "note": 67, "vel": 80, "len": 2}, {"step": 4, "note": 71, "vel": 80, "len": 2}]}, {"bar": 7, "events": [{"step": 0, "note": 60, "vel": 80, "len": 2}, {"step": 4, "note": 64, "vel": 80, "len": 2}]}, {"bar": 8, "events": [{"step": 0, "note": 67, "vel": 80, "len": 2}, {"step": 4, "note": 71, "vel": 80, "len": 2}]}, {"bar": 9, "events": [{"step": 0, "note": 60, "vel": 80, "len": 2}, {"step": 4, "note": 64, "vel": 80, "len": 2}]}, {"bar": 10, "events": [{"step": 0, "note": 67, "vel": 80, "len": 2}, {"step": 4, "note": 71, "vel": 80, "len": 2}]}, {"bar": 11, "events": [{"step": 0, "note": 60, "vel": 80, "len": 2}, {"step": 4, "note": 64, "vel": 80, "len": 2}]}, {"bar": 12, "events": [{"step": 0, "note": 67, "vel": 80, "len": 2}, {"step": 4, "note": 71, "vel": 80, "len": 2}]}, {"bar": 13, "events": [{"step": 0, "note": 60, "vel": 80, "len": 2}, {"step": 4, "note": 64, "vel": 80, "len": 2}]}, {"bar": 14, "events": [{"step": 0, "note": 67, "vel": 80, "len": 2}, {"step": 4, "note": 71, "vel": 80, "len": 2}]}, {"bar": 15, "events": [{"step": 0, "note": 60, "vel": 80, "len": 2}, {"step": 4, "note": 64, "vel": 80, "len": 2}]}, {"bar": 16, "events": [{"step": 0, "note": 67, "vel": 80, "len": 2}, {"step": 4, "note": 71, "vel": 80, "len": 2}]}]}