{"request": {"project_name": "crazy rock with electric guitar and piano", "run_id": "2d209c3a-7818-441a-90ec-9733d33b1daa", "midi": {"pattern": [{"bar": 0, "events": [{"step": 0, "note": 36, "vel": 120, "len": 1}, {"step": 0, "note": 49, "vel": 120, "len": 4}, {"step": 0, "note": 40, "vel": 110, "len": 1}, {"step": 0, "note": 28, "vel": 115, "len": 1}, {"step": 2, "note": 38, "vel": 127, "len": 1}, {"step": 4, "note": 36, "vel": 115, "len": 1}, {"step": 6, "note": 38, "vel": 127, "len": 1}]}], "layers": {"Electric Guitar": [{"bar": 0, "events": [{"step": 0, "note": 40, "vel": 120, "len": 2}, {"step": 0, "note": 47, "vel": 120, "len": 2}, {"step": 2, "note": 40, "vel": 110, "len": 2}, {"step": 3, "note": 43, "vel": 115, "len": 1}, {"step": 4, "note": 45, "vel": 120, "len": 2}, {"step": 6, "note": 46, "vel": 125, "len": 1}, {"step": 7, "note": 47, "vel": 120, "len": 1}]}, {"bar": 1, "events": [{"step": 0, "note": 52, "vel": 120, "len": 2}, {"step": 2, "note": 50, "vel": 110, "len": 2}, {"step": 4, "note": 47, "vel": 115, "len": 2}, {"step": 6, "note": 43, "vel": 110, "len": 2}]}, {"bar": 2, "events": [{"step": 0, "note": 40, "vel": 120, "len": 2}, {"step": 2, "note": 40, "vel": 110, "len": 2}, {"step": 3, "note": 43, "vel": 115, "len": 1}, {"step": 5, "note": 45, "vel": 115, "len": 1}, {"step": 6, "note": 46, "vel": 120, "len": 1}, {"step": 7, "note": 47, "vel": 120, "len": 1}]}, {"bar": 3, "events": [{"step": 0, "note": 50, "vel": 125, "len": 1}, {"step": 1, "note": 52, "vel": 125, "len": 1}, {"step": 2, "note": 55, "vel": 125, "len": 1}, {"step": 4, "note": 57, "vel": 125, "len": 2}, {"step": 6, "note": 59, "vel": 125, "len": 2}]}, {"bar": 4, "events": [{"step": 0, "note": 40, "vel": 120, "len": 2}, {"step": 2, "note": 40, "vel": 115, "len": 2}, {"step": 4, "note": 43, "vel": 120, "len": 2}, {"step": 6, "note": 45, "vel": 120, "len": 2}]}, {"bar": 5, "events": [{"step": 0, "note": 47, "vel": 120, "len": 2}, {"step": 2, "note": 50, "vel": 120, "len": 2}, {"step": 4, "note": 52, "vel": 120, "len": 2}, {"step": 6, "note": 54, "vel": 125, "len": 2}]}, {"bar": 6, "events": [{"step": 0, "note": 40, "vel": 120, "len": 1}, {"step": 1, "note": 40, "vel": 110, "len": 1}, {"step": 2, "note": 43, "vel": 115, "len": 2}, {"step": 4, "note": 45, "vel": 115, "len": 2}, {"step": 6, "note": 46, "vel": 120, "len": 2}]}, {"bar": 7, "events": [{"step": 0, "note": 52, "vel": 125, "len": 1}, {"step": 1, "note": 51, "vel": 120, "len": 1}, {"step": 2, "note": 50, "vel": 120, "len": 1}, {"step": 3, "note": 49, "vel": 120, "len": 1}, {"step": 4, "note": 48, "vel": 120, "len": 1}, {"step": 5, "note": 47, "vel": 120, "len": 1}, {"step": 6, "note": 46, "vel": 120, "len": 1}, {"step": 7, "note": 45, "vel": 120, "len": 1}]}, {"bar": 8, "events": [{"step": 0, "note": 40, "vel": 127, "len": 4}, {"step": 4, "note": 52, "vel": 127, "len": 4}]}, {"bar": 9, "events": [{"step": 0, "note": 40, "vel": 120, "len": 1}, {"step": 1, "note": 43, "vel": 120, "len": 1}, {"step": 2, "note": 45, "vel": 120, "len": 1}, {"step": 3, "note": 47, "vel": 120, "len": 1}, {"step": 4, "note": 50, "vel": 120, "len": 1}, {"step": 5, "note": 52, "vel": 120, "len": 1}, {"step": 6, "note": 55, "vel": 125, "len": 2}]}, {"bar": 10, "events": [{"step": 0, "note": 57, "vel": 125, "len": 2}, {"step": 2, "note": 55, "vel": 120, "len": 2}, {"step": 4, "note": 52, "vel": 120, "len": 2}, {"step": 6, "note": 50, "vel": 115, "len": 2}]}, {"bar": 11, "events": [{"step": 0, "note": 48, "vel": 120, "len": 1}, {"step": 1, "note": 50, "vel": 120, "len": 1}, {"step": 2, "note": 52, "vel": 120, "len": 1}, {"step": 4, "note": 55, "vel": 125, "len": 2}, {"step": 6, "note": 57, "vel": 125, "len": 2}]}, {"bar": 12, "events": [{"step": 0, "note": 60, "vel": 127, "len": 1}, {"step": 1, "note": 59, "vel": 120, "len": 1}, {"step": 2, "note": 58, "vel": 120, "len": 1}, {"step": 3, "note": 57, "vel": 120, "len": 1}, {"step": 4, "note": 56, "vel": 120, "len": 1}, {"step": 5, "note": 55, "vel": 120, "len": 1}, {"step": 6, "note": 54, "vel": 120, "len": 1}, {"step": 7, "note": 53, "vel": 120, "len": 1}]}, {"bar": 13, "events": [{"step": 0, "note": 52, "vel": 127, "len": 2}, {"step": 2, "note": 40, "vel": 120, "len": 2}, {"step": 4, "note": 46, "vel": 125, "len": 2}, {"step": 6, "note": 40, "vel": 120, "len": 2}]}, {"bar": 14, "events": [{"step": 0, "note": 45, "vel": 120, "len": 2}, {"step": 2, "note": 40, "vel": 120, "len": 2}, {"step": 4, "note": 43, "vel": 120, "len": 2}, {"step": 6, "note": 40, "vel": 120, "len": 2}]}, {"bar": 15, "events": [{"step": 0, "note": 40, "vel": 127, "len": 8}, {"step": 0, "note": 47, "vel": 127, "len": 8}, {"step": 0, "note": 52, "vel": 127, "len": 8}]}], "Piano": [{"bar": 0, "events": [{"step": 0, "note": 76, "vel": 110, "len": 1}, {"step": 2, "note": 76, "vel": 100, "len": 1}, {"step": 4, "note": 79, "vel": 115, "len": 1}, {"step": 6, "note": 81, "vel": 120, "len": 1}]}, {"bar": 1, "events": [{"step": 0, "note": 88, "vel": 120, "len": 1}, {"step": 3, "note": 87, "vel": 115, "len": 1}, {"step": 6, "note": 86, "vel": 110, "len": 1}]}, {"bar": 2, "events": [{"step": 0, "note": 76, "vel": 110, "len": 1}, {"step": 2, "note": 79, "vel": 115, "len": 1}, {"step": 4, "note": 81, "vel": 120, "len": 1}, {"step": 6, "note": 82, "vel": 125, "len": 1}]}, {"bar": 3, "events": [{"step": 0, "note": 64, "vel": 120, "len": 1}, {"step": 1, "note": 67, "vel": 120, "len": 1}, {"step": 2, "note": 70, "vel": 120, "len": 1}, {"step": 3, "note": 73, "vel": 120, "len": 1}, {"step": 4, "note": 76, "vel": 127, "len": 1}, {"step": 6, "note": 64, "vel": 120, "len": 1}]}, {"bar": 4, "events": [{"step": 0, "note": 76, "vel": 110, "len": 1}, {"step": 2, "note": 76, "vel": 105, "len": 1}, {"step": 4, "note": 76, "vel": 110, "len": 1}, {"step": 6, "note": 76, "vel": 115, "len": 1}]}, {"bar": 7, "events": [{"step": 0, "note": 88, "vel": 127, "len": 1}, {"step": 1, "note": 87, "vel": 120, "len": 1}, {"step": 2, "note": 86, "vel": 120, "len": 1}, {"step": 3, "note": 85, "vel": 120, "len": 1}, {"step": 4, "note": 84, "vel": 120, "len": 1}, {"step": 5, "note": 83, "vel": 120, "len": 1}, {"step": 6, "note": 82, "vel": 120, "len": 1}, {"step": 7, "note": 81, "vel": 120, "len": 1}]}, {"bar": 12, "events": [{"step": 0, "note": 76, "vel": 127, "len": 1}, {"step": 2, "note": 79, "vel": 127, "len": 1}, {"step": 4, "note": 82, "vel": 127, "len": 1}, {"step": 6, "note": 85, "vel": 127, "len": 1}]}, {"bar": 15, "events": [{"step": 0, "note": 64, "vel": 127, "len": 8}, {"step": 0, "note": 67, "vel": 127, "len": 8}, {"step": 0, "note": 70, "vel": 127, "len": 8}, {"step": 0, "note": 76, "vel": 127, "len": 8}]}], "Bass Guitar": [{"bar": 0, "events": [{"step": 0, "note": 28, "vel": 115, "len": 1}, {"step": 1, "note": 28, "vel": 110, "len": 1}, {"step": 2, "note": 28, "vel": 115, "len": 1}, {"step": 3, "note": 28, "vel": 110, "len": 1}, {"step": 4, "note": 28, "vel": 115, "len": 1}, {"step": 5, "note": 28, "vel": 110, "len": 1}, {"step": 6, "note": 28, "vel": 115, "len": 1}, {"step": 7, "note": 28, "vel": 110, "len": 1}]}, {"bar": 1, "events": [{"step": 0, "note": 28, "vel": 115, "len": 1}, {"step": 2, "note": 31, "vel": 115, "len": 1}, {"step": 4, "note": 33, "vel": 115, "len": 1}, {"step": 6, "note": 34, "vel": 120, "len": 1}]}, {"bar": 2, "events": [{"step": 0, "note": 28, "vel": 115, "len": 1}, {"step": 1, "note": 28, "vel": 110, "len": 1}, {"step": 2, "note": 28, "vel": 115, "len": 1}, {"step": 3, "note": 28, "vel": 110, "len": 1}, {"step": 4, "note": 31, "vel": 115, "len": 1}, {"step": 6, "note": 33, "vel": 115, "len": 1}]}, {"bar": 3, "events": [{"step": 0, "note": 35, "vel": 120, "len": 1}, {"step": 2, "note": 33, "vel": 115, "len": 1}, {"step": 4, "note": 31, "vel": 115, "len": 1}, {"step": 6, "note": 28, "vel": 115, "len": 1}]}, {"bar": 7, "events": [{"step": 0, "note": 40, "vel": 125, "len": 1}, {"step": 1, "note": 39, "vel": 120, "len": 1}, {"step": 2, "note": 38, "vel": 120, "len": 1}, {"step": 3, "note": 37, "vel": 120, "len": 1}, {"step": 4, "note": 36, "vel": 120, "len": 1}, {"step": 5, "note": 35, "vel": 120, "len": 1}, {"step": 6, "note": 34, "vel": 120, "len": 1}, {"step": 7, "note": 33, "vel": 120, "len": 1}]}, {"bar": 15, "events": [{"step": 0, "note": 28, "vel": 127, "len": 8}]}], "Kick": [{"bar": 0, "events": [{"step": 0, "note": 36, "vel": 125, "len": 1}, {"step": 3, "note": 36, "vel": 120, "len": 1}, {"step": 4, "note": 36, "vel": 125, "len": 1}]}, {"bar": 1, "events": [{"step": 0, "note": 36, "vel": 125, "len": 1}, {"step": 1, "note": 36, "vel": 115, "len": 1}, {"step": 4, "note": 36, "vel": 125, "len": 1}, {"step": 6, "note": 36, "vel": 120, "len": 1}]}, {"bar": 2, "events": [{"step": 0, "note": 36, "vel": 125, "len": 1}, {"step": 2, "note": 36, "vel": 110, "len": 1}, {"step": 4, "note": 36, "vel": 125, "len": 1}, {"step": 5, "note": 36, "vel": 120, "len": 1}]}, {"bar": 3, "events": [{"step": 0, "note": 36, "vel": 125, "len": 1}, {"step": 2, "note": 36, "vel": 125, "len": 1}, {"step": 4, "note": 36, "vel": 125, "len": 1}, {"step": 6, "note": 36, "vel": 125, "len": 1}]}, {"bar": 4, "events": [{"step": 0, "note": 36, "vel": 125, "len": 1}, {"step": 3, "note": 36, "vel": 120, "len": 1}, {"step": 4, "note": 36, "vel": 125, "len": 1}]}, {"bar": 7, "events": [{"step": 0, "note": 36, "vel": 127, "len": 1}, {"step": 2, "note": 36, "vel": 127, "len": 1}, {"step": 4, "note": 36, "vel": 127, "len": 1}, {"step": 6, "note": 36, "vel": 127, "len": 1}]}, {"bar": 15, "events": [{"step": 0, "note": 36, "vel": 127, "len": 1}, {"step": 2, "note": 36, "vel": 127, "len": 1}, {"step": 4, "note": 36, "vel": 127, "len": 1}]}], "Snare": [{"bar": 0, "events": [{"step": 2, "note": 38, "vel": 127, "len": 1}, {"step": 6, "note": 38, "vel": 127, "len": 1}]}, {"bar": 1, "events": [{"step": 2, "note": 38, "vel": 127, "len": 1}, {"step": 6, "note": 38, "vel": 127, "len": 1}, {"step": 7, "note": 38, "vel": 110, "len": 1}]}, {"bar": 2, "events": [{"step": 2, "note": 38, "vel": 127, "len": 1}, {"step": 6, "note": 38, "vel": 127, "len": 1}]}, {"bar": 3, "events": [{"step": 1, "note": 38, "vel": 115, "len": 1}, {"step": 3, "note": 38, "vel": 120, "len": 1}, {"step": 5, "note": 38, "vel": 125, "len": 1}, {"step": 7, "note": 38, "vel": 127, "len": 1}]}, {"bar": 4, "events": [{"step": 2, "note": 38, "vel": 127, "len": 1}, {"step": 6, "note": 38, "vel": 127, "len": 1}]}, {"bar": 7, "events": [{"step": 1, "note": 38, "vel": 127, "len": 1}, {"step": 3, "note": 38, "vel": 127, "len": 1}, {"step": 5, "note": 38, "vel": 127, "len": 1}, {"step": 7, "note": 38, "vel": 127, "len": 1}]}, {"bar": 15, "events": [{"step": 0, "note": 38, "vel": 127, "len": 1}, {"step": 1, "note": 38, "vel": 127, "len": 1}]}], "Hat": [{"bar": 0, "events": [{"step": 0, "note": 42, "vel": 100, "len": 1}, {"step": 1, "note": 42, "vel": 90, "len": 1}, {"step": 2, "note": 42, "vel": 100, "len": 1}, {"step": 3, "note": 42, "vel": 90, "len": 1}, {"step": 4, "note": 42, "vel": 100, "len": 1}, {"step": 5, "note": 42, "vel": 90, "len": 1}, {"step": 6, "note": 42, "vel": 100, "len": 1}, {"step": 7, "note": 42, "vel": 90, "len": 1}]}, {"bar": 1, "events": [{"step": 0, "note": 42, "vel": 100, "len": 1}, {"step": 1, "note": 42, "vel": 90, "len": 1}, {"step": 2, "note": 42, "vel": 100, "len": 1}, {"step": 3, "note": 42, "vel": 90, "len": 1}, {"step": 4, "note": 46, "vel": 110, "len": 1}, {"step": 6, "note": 46, "vel": 110, "len": 1}]}, {"bar": 2, "events": [{"step": 0, "note": 42, "vel": 100, "len": 1}, {"step": 1, "note": 42, "vel": 90, "len": 1}, {"step": 2, "note": 42, "vel": 100, "len": 1}, {"step": 3, "note": 42, "vel": 90, "len": 1}, {"step": 4, "note": 42, "vel": 100, "len": 1}, {"step": 5, "note": 42, "vel": 90, "len": 1}, {"step": 6, "note": 42, "vel": 100, "len": 1}, {"step": 7, "note": 42, "vel": 90, "len": 1}]}, {"bar": 3, "events": [{"step": 0, "note": 46, "vel": 115, "len": 1}, {"step": 2, "note": 46, "vel": 115, "len": 1}, {"step": 4, "note": 46, "vel": 115, "len": 1}, {"step": 6, "note": 46, "vel": 115, "len": 1}]}], "Crash": [{"bar": 0, "events": [{"step": 0, "note": 49, "vel": 127, "len": 1}]}, {"bar": 4, "events": [{"step": 0, "note": 49, "vel": 127, "len": 1}]}, {"bar": 8, "events": [{"step": 0, "note": 49, "vel": 127, "len": 1}]}, {"bar": 12, "events": [{"step": 0, "note": 49, "vel": 127, "len": 1}]}, {"bar": 15, "events": [{"step": 0, "note": 49, "vel": 127, "len": 1}, {"step": 2, "note": 57, "vel": 127, "len": 1}]}], "Tom": [{"bar": 3, "events": [{"step": 4, "note": 45, "vel": 120, "len": 1}, {"step": 5, "note": 45, "vel": 120, "len": 1}, {"step": 6, "note": 47, "vel": 120, "len": 1}, {"step": 7, "note": 50, "vel": 125, "len": 1}]}, {"bar": 7, "events": [{"step": 0, "note": 50, "vel": 125, "len": 1}, {"step": 1, "note": 50, "vel": 120, "len": 1}, {"step": 2, "note": 47, "vel": 125, "len": 1}, {"step": 3, "note": 47, "vel": 120, "len": 1}, {"step": 4, "note": 45, "vel": 125, "len": 1}, {"step": 5, "note": 45, "vel": 120, "len": 1}, {"step": 6, "note": 43, "vel": 125, "len": 1}, {"step": 7, "note": 41, "vel": 120, "len": 1}]}, {"bar": 11, "events": [{"step": 4, "note": 43, "vel": 120, "len": 1}, {"step": 5, "note": 43, "vel": 120, "len": 1}, {"step": 6, "note": 41, "vel": 125, "len": 1}, {"step": 7, "note": 41, "vel": 125, "len": 1}]}, {"bar": 15, "events": [{"step": 2, "note": 45, "vel": 127, "len": 1}, {"step": 3, "note": 45, "vel": 127, "len": 1}, {"step": 4, "note": 47, "vel": 127, "len": 1}, {"step": 5, "note": 47, "vel": 127, "len": 1}, {"step": 6, "note": 50, "vel": 127, "len": 1}, {"step": 7, "note": 50, "vel": 127, "len": 1}]}]}, "meta": {"style": "Hard Rock", "tempo": 175, "key": "E Minor", "meter": "4/4", "bars": 16, "scale": "Minor", "mood": "Chaotic", "dynamic_profile": "High Energy", "arrangement_density": "Dense", "harmonic_color": "Aggressive", "length_seconds": 30, "instrument_configs": [{"name": "Electric Guitar", "register": "Mid-High", "role": "Lead", "articulation": "Distorted", "dynamic_range": "Intense"}, {"name": "Piano", "register": "Full", "role": "Lead", "articulation": "Percussive", "dynamic_range": "Intense"}, {"name": "Bass Guitar", "register": "Low", "role": "Bass", "articulation": "Sustain", "dynamic_range": "Intense"}, {"name": "Kick", "register": "Low", "role": "Percussion", "articulation": "Percussive", "dynamic_range": "Intense"}, {"name": "Snare", "register": "Mid", "role": "Percussion", "articulation": "Percussive", "dynamic_range": "Intense"}, {"name": "Hat", "register": "High", "role": "Percussion", "articulation": "Percussive", "dynamic_range": "Moderate"}, {"name": "Crash", "register": "High", "role": "Percussion", "articulation": "Percussive", "dynamic_range": "Intense"}, {"name": "Tom", "register": "Low-Mid", "role": "Percussion", "articulation": "Percussive", "dynamic_range": "Intense"}], "instruments": ["Electric Guitar", "Piano", "Bass Guitar", "Kick", "Snare", "Hat", "Crash", "Tom"]}}, "midi_per_instrument": null, "tracks": [{"instrument": "Electric Guitar", "enabled": true, "volume_db": 0.0, "pan": 0.0}, {"instrument": "Piano", "enabled": true, "volume_db": -3.0, "pan": 0.0}, {"instrument": "Bass Guitar", "enabled": true, "volume_db": -3.0, "pan": 0.0}, {"instrument": "Kick", "enabled": true, "volume_db": -3.0, "pan": 0.0}, {"instrument": "Snare", "enabled": true, "volume_db": -3.0, "pan": 0.0}, {"instrument": "Hat", "enabled": true, "volume_db": -3.0, "pan": 0.0}, {"instrument": "Crash", "enabled": true, "volume_db": -3.0, "pan": 0.0}, {"instrument": "Tom", "enabled": true, "volume_db": -3.0, "pan": 0.0}], "selected_samples": {"Snare": "Drums/Kits/Drum Kit 07/FLS_Snare 07b.wav", "Crash": "Drums/Kits/Drum Kit 03/OverH_Crash_002cogg.wav", "Hat": "Drums/HipHop/HIP_Hat_6.wav", "Tom": "Drums/RealDrumkits/RD_Tom.wav", "Kick": "Drums/Kits/Drum Kit 04/FLS_Kick 04.wav", "Bass Guitar": "Instruments/Guitar/Bass/FLStudio Bass 02/30 DEEPER PURPLE_PLUCK E3ogg.wav", "Piano": "Instruments/Piano/Piano 2/Gz_A5ogg.wav", "Electric Guitar": "Instruments/Guitar/Guitar/Electric Guitar 01/02 DARK STAR METAL_F2OGG.wav"}, "fadeout_seconds": 0.01}, "response": {"project_name": "crazy rock with electric guitar and piano", "run_id": "2d209c3a-7818-441a-90ec-9733d33b1daa", "mix_wav_rel": "output\\2d209c3a-7818-441a-90ec-9733d33b1daa\\crazy rock with electric guitar and piano_mix_1764812537.wav", "stems": [{"instrument": "Electric Guitar", "audio_rel": "output\\2d209c3a-7818-441a-90ec-9733d33b1daa\\crazy rock with electric guitar and piano_Electric Guitar_1764812537.wav"}, {"instrument": "Piano", "audio_rel": "output\\2d209c3a-7818-441a-90ec-9733d33b1daa\\crazy rock with electric guitar and piano_Piano_1764812537.wav"}, {"instrument": "Bass Guitar", "audio_rel": "output\\2d209c3a-7818-441a-90ec-9733d33b1daa\\crazy rock with electric guitar and piano_Bass Guitar_1764812537.wav"}, {"instrument": "Kick", "audio_rel": "output\\2d209c3a-7818-441a-90ec-9733d33b1daa\\crazy rock with electric guitar and piano_Kick_1764812537.wav"}, {"instrument": "Snare", "audio_rel": "output\\2d209c3a-7818-441a-90ec-9733d33b1daa\\crazy rock with electric guitar and piano_Snare_1764812537.wav"}, {"instrument": "Hat", "audio_rel": "output\\2d209c3a-7818-441a-90ec-9733d33b1daa\\crazy rock with electric guitar and piano_Hat_1764812537.wav"}, {"instrument": "Crash", "audio_rel": "output\\2d209c3a-7818-441a-90ec-9733d33b1daa\\crazy rock with electric guitar and piano_Crash_1764812537.wav"}, {"instrument": "Tom", "audio_rel": "output\\2d209c3a-7818-441a-90ec-9733d33b1daa\\crazy rock with electric guitar and piano_Tom_1764812537.wav"}], "sample_rate": 44100, "duration_seconds": 30.0}}