{"meta": {"style": "Old School Hip Hop", "mood": "Gritty, Nostalgic, Groovy", "tempo": 90, "key": "C Minor", "scale": "Dorian", "bars": 16, "meter": "4/4", "dynamic_profile": "Punchy and Compressed", "arrangement_density": "Sparse", "harmonic_color": "Jazz-Funk Samples", "length_seconds": 42.0, "instrument_configs": [{"name": "Kick", "register": "Low", "role": "Percussion", "articulation": "Percussive", "dynamic_range": "Intense"}, {"name": "Snare", "register": "Mid", "role": "Percussion", "articulation": "Percussive", "dynamic_range": "Intense"}, {"name": "Hat", "register": "High", "role": "Percussion", "articulation": "Percussive", "dynamic_range": "Moderate"}, {"name": "Bass", "register": "Low", "role": "Bass", "articulation": "Legato", "dynamic_range": "Consistent"}, {"name": "Piano", "register": "Mid", "role": "Accompaniment", "articulation": "Staccato", "dynamic_range": "Moderate"}, {"name": "Sax", "register": "Mid-High", "role": "Lead", "articulation": "Staccato", "dynamic_range": "High"}, {"name": "Strings", "register": "High", "role": "Pad", "articulation": "Sustain", "dynamic_range": "Delicate"}], "instruments": ["Kick", "Snare", "Hat", "Bass", "Piano", "Sax", "Strings"], "instrument": "Hat"}, "layers": {"Hat": [{"bar": 0, "events": [{"step": 0, "note": 42, "vel": 100, "len": 1}, {"step": 1, "note": 42, "vel": 85, "len": 1}, {"step": 2, "note": 42, "vel": 100, "len": 1}, {"step": 3, "note": 42, "vel": 85, "len": 1}, {"step": 4, "note": 42, "vel": 100, "len": 1}, {"step": 5, "note": 42, "vel": 85, "len": 1}, {"step": 6, "note": 42, "vel": 100, "len": 1}, {"step": 7, "note": 42, "vel": 85, "len": 1}]}, {"bar": 1, "events": [{"step": 0, "note": 42, "vel": 100, "len": 1}, {"step": 1, "note": 42, "vel": 85, "len": 1}, {"step": 2, "note": 42, "vel": 100, "len": 1}, {"step": 3, "note": 42, "vel": 85, "len": 1}, {"step": 4, "note": 42, "vel": 100, "len": 1}, {"step": 5, "note": 42, "vel": 85, "len": 1}, {"step": 6, "note": 42, "vel": 100, "len": 1}, {"step": 7, "note": 42, "vel": 85, "len": 1}]}, {"bar": 2, "events": [{"step": 0, "note": 42, "vel": 100, "len": 1}, {"step": 1, "note": 42, "vel": 85, "len": 1}, {"step": 2, "note": 42, "vel": 100, "len": 1}, {"step": 3, "note": 42, "vel": 85, "len": 1}, {"step": 4, "note": 42, "vel": 100, "len": 1}, {"step": 5, "note": 42, "vel": 85, "len": 1}, {"step": 6, "note": 42, "vel": 100, "len": 1}, {"step": 7, "note": 42, "vel": 85, "len": 1}]}, {"bar": 3, "events": [{"step": 0, "note": 42, "vel": 100, "len": 1}, {"step": 1, "note": 42, "vel": 85, "len": 1}, {"step": 2, "note": 42, "vel": 100, "len": 1}, {"step": 3, "note": 42, "vel": 85, "len": 1}, {"step": 4, "note": 42, "vel": 100, "len": 1}, {"step": 5, "note": 42, "vel": 85, "len": 1}, {"step": 6, "note": 42, "vel": 100, "len": 1}, {"step": 7, "note": 42, "vel": 85, "len": 1}]}]}, "pattern": [{"bar": 0, "events": [{"step": 0, "note": 42, "vel": 100, "len": 1}, {"step": 1, "note": 42, "vel": 85, "len": 1}, {"step": 2, "note": 42, "vel": 100, "len": 1}, {"step": 3, "note": 42, "vel": 85, "len": 1}, {"step": 4, "note": 42, "vel": 100, "len": 1}, {"step": 5, "note": 42, "vel": 85, "len": 1}, {"step": 6, "note": 42, "vel": 100, "len": 1}, {"step": 7, "note": 42, "vel": 85, "len": 1}]}, {"bar": 1, "events": [{"step": 0, "note": 42, "vel": 100, "len": 1}, {"step": 1, "note": 42, "vel": 85, "len": 1}, {"step": 2, "note": 42, "vel": 100, "len": 1}, {"step": 3, "note": 42, "vel": 85, "len": 1}, {"step": 4, "note": 42, "vel": 100, "len": 1}, {"step": 5, "note": 42, "vel": 85, "len": 1}, {"step": 6, "note": 42, "vel": 100, "len": 1}, {"step": 7, "note": 42, "vel": 85, "len": 1}]}, {"bar": 2, "events": [{"step": 0, "note": 42, "vel": 100, "len": 1}, {"step": 1, "note": 42, "vel": 85, "len": 1}, {"step": 2, "note": 42, "vel": 100, "len": 1}, {"step": 3, "note": 42, "vel": 85, "len": 1}, {"step": 4, "note": 42, "vel": 100, "len": 1}, {"step": 5, "note": 42, "vel": 85, "len": 1}, {"step": 6, "note": 42, "vel": 100, "len": 1}, {"step": 7, "note": 42, "vel": 85, "len": 1}]}, {"bar": 3, "events": [{"step": 0, "note": 42, "vel": 100, "len": 1}, {"step": 1, "note": 42, "vel": 85, "len": 1}, {"step": 2, "note": 42, "vel": 100, "len": 1}, {"step": 3, "note": 42, "vel": 85, "len": 1}, {"step": 4, "note": 42, "vel": 100, "len": 1}, {"step": 5, "note": 42, "vel": 85, "len": 1}, {"step": 6, "note": 42, "vel": 100, "len": 1}, {"step": 7, "note": 42, "vel": 85, "len": 1}]}]}