{"meta": {"status": "success", "tempo": 100, "key": "C Minor", "scale": "Harmonic Minor", "style": "Experimental", "mood": "Tense", "meter": "3/4", "dynamic_profile": "Crescendo", "arrangement_density": "Medium", "harmonic_color": "Dissonant", "length_seconds": 96.0, "bars": 16, "instrument_configs": [{"name": "Piano", "register": "High", "role": "Lead", "articulation": "Staccato", "dynamic_range": "Moderate"}, {"name": "Bass Guitar", "register": "Low", "role": "Bass", "articulation": "Sustain", "dynamic_range": "Intense"}, {"name": "Strings", "register": "Mid", "role": "Harmony", "articulation": "Legato", "dynamic_range": "Delicate"}, {"name": "Snare", "register": "Full", "role": "Percussion", "articulation": "Percussive", "dynamic_range": "Fortissimo"}], "instruments": ["Piano", "Bass Guitar", "Strings", "Snare"], "instrument": "Piano"}, "layers": {"Piano": [{"bar": 1, "events": [{"step": 0, "note": 60, "vel": 80, "len": 1}, {"step": 2, "note": 63, "vel": 80, "len": 1}, {"step": 4, "note": 67, "vel": 80, "len": 1}, {"step": 6, "note": 70, "vel": 80, "len": 1}]}, {"bar": 2, "events": [{"step": 0, "note": 60, "vel": 80, "len": 1}, {"step": 2, "note": 63, "vel": 80, "len": 1}, {"step": 4, "note": 67, "vel": 80, "len": 1}, {"step": 6, "note": 70, "vel": 80, "len": 1}]}, {"bar": 3, "events": [{"step": 0, "note": 60, "vel": 80, "len": 1}, {"step": 2, "note": 63, "vel": 80, "len": 1}, {"step": 4, "note": 67, "vel": 80, "len": 1}, {"step": 6, "note": 70, "vel": 80, "len": 1}]}, {"bar": 4, "events": [{"step": 0, "note": 60, "vel": 80, "len": 1}, {"step": 2, "note": 63, "vel": 80, "len": 1}, {"step": 4, "note": 67, "vel": 80, "len": 1}, {"step": 6, "note": 70, "vel": 80, "len": 1}]}, {"bar": 5, "events": [{"step": 0, "note": 60, "vel": 80, "len": 1}, {"step": 2, "note": 63, "vel": 80, "len": 1}, {"step": 4, "note": 67, "vel": 80, "len": 1}, {"step": 6, "note": 70, "vel": 80, "len": 1}]}, {"bar": 6, "events": [{"step": 0, "note": 60, "vel": 80, "len": 1}, {"step": 2, "note": 63, "vel": 80, "len": 1}, {"step": 4, "note": 67, "vel": 80, "len": 1}, {"step": 6, "note": 70, "vel": 80, "len": 1}]}, {"bar": 7, "events": [{"step": 0, "note": 60, "vel": 80, "len": 1}, {"step": 2, "note": 63, "vel": 80, "len": 1}, {"step": 4, "note": 67, "vel": 80, "len": 1}, {"step": 6, "note": 70, "vel": 80, "len": 1}]}, {"bar": 8, "events": [{"step": 0, "note": 60, "vel": 80, "len": 1}, {"step": 2, "note": 63, "vel": 80, "len": 1}, {"step": 4, "note": 67, "vel": 80, "len": 1}, {"step": 6, "note": 70, "vel": 80, "len": 1}]}, {"bar": 9, "events": [{"step": 0, "note": 60, "vel": 80, "len": 1}, {"step": 2, "note": 63, "vel": 80, "len": 1}, {"step": 4, "note": 67, "vel": 80, "len": 1}, {"step": 6, "note": 70, "vel": 80, "len": 1}]}, {"bar": 10, "events": [{"step": 0, "note": 60, "vel": 80, "len": 1}, {"step": 2, "note": 63, "vel": 80, "len": 1}, {"step": 4, "note": 67, "vel": 80, "len": 1}, {"step": 6, "note": 70, "vel": 80, "len": 1}]}, {"bar": 11, "events": [{"step": 0, "note": 60, "vel": 80, "len": 1}, {"step": 2, "note": 63, "vel": 80, "len": 1}, {"step": 4, "note": 67, "vel": 80, "len": 1}, {"step": 6, "note": 70, "vel": 80, "len": 1}]}, {"bar": 12, "events": [{"step": 0, "note": 60, "vel": 80, "len": 1}, {"step": 2, "note": 63, "vel": 80, "len": 1}, {"step": 4, "note": 67, "vel": 80, "len": 1}, {"step": 6, "note": 70, "vel": 80, "len": 1}]}, {"bar": 13, "events": [{"step": 0, "note": 60, "vel": 80, "len": 1}, {"step": 2, "note": 63, "vel": 80, "len": 1}, {"step": 4, "note": 67, "vel": 80, "len": 1}, {"step": 6, "note": 70, "vel": 80, "len": 1}]}, {"bar": 14, "events": [{"step": 0, "note": 60, "vel": 80, "len": 1}, {"step": 2, "note": 63, "vel": 80, "len": 1}, {"step": 4, "note": 67, "vel": 80, "len": 1}, {"step": 6, "note": 70, "vel": 80, "len": 1}]}, {"bar": 15, "events": [{"step": 0, "note": 60, "vel": 80, "len": 1}, {"step": 2, "note": 63, "vel": 80, "len": 1}, {"step": 4, "note": 67, "vel": 80, "len": 1}, {"step": 6, "note": 70, "vel": 80, "len": 1}]}, {"bar": 16, "events": [{"step": 0, "note": 60, "vel": 80, "len": 1}, {"step": 2, "note": 63, "vel": 80, "len": 1}, {"step": 4, "note": 67, "vel": 80, "len": 1}, {"step": 6, "note": 70, "vel": 80, "len": 1}]}]}, "pattern": [{"bar": 1, "events": [{"step": 0, "note": 60, "vel": 80, "len": 1}, {"step": 2, "note": 63, "vel": 80, "len": 1}, {"step": 4, "note": 67, "vel": 80, "len": 1}, {"step": 6, "note": 70, "vel": 80, "len": 1}]}, {"bar": 2, "events": [{"step": 0, "note": 60, "vel": 80, "len": 1}, {"step": 2, "note": 63, "vel": 80, "len": 1}, {"step": 4, "note": 67, "vel": 80, "len": 1}, {"step": 6, "note": 70, "vel": 80, "len": 1}]}, {"bar": 3, "events": [{"step": 0, "note": 60, "vel": 80, "len": 1}, {"step": 2, "note": 63, "vel": 80, "len": 1}, {"step": 4, "note": 67, "vel": 80, "len": 1}, {"step": 6, "note": 70, "vel": 80, "len": 1}]}, {"bar": 4, "events": [{"step": 0, "note": 60, "vel": 80, "len": 1}, {"step": 2, "note": 63, "vel": 80, "len": 1}, {"step": 4, "note": 67, "vel": 80, "len": 1}, {"step": 6, "note": 70, "vel": 80, "len": 1}]}, {"bar": 5, "events": [{"step": 0, "note": 60, "vel": 80, "len": 1}, {"step": 2, "note": 63, "vel": 80, "len": 1}, {"step": 4, "note": 67, "vel": 80, "len": 1}, {"step": 6, "note": 70, "vel": 80, "len": 1}]}, {"bar": 6, "events": [{"step": 0, "note": 60, "vel": 80, "len": 1}, {"step": 2, "note": 63, "vel": 80, "len": 1}, {"step": 4, "note": 67, "vel": 80, "len": 1}, {"step": 6, "note": 70, "vel": 80, "len": 1}]}, {"bar": 7, "events": [{"step": 0, "note": 60, "vel": 80, "len": 1}, {"step": 2, "note": 63, "vel": 80, "len": 1}, {"step": 4, "note": 67, "vel": 80, "len": 1}, {"step": 6, "note": 70, "vel": 80, "len": 1}]}, {"bar": 8, "events": [{"step": 0, "note": 60, "vel": 80, "len": 1}, {"step": 2, "note": 63, "vel": 80, "len": 1}, {"step": 4, "note": 67, "vel": 80, "len": 1}, {"step": 6, "note": 70, "vel": 80, "len": 1}]}, {"bar": 9, "events": [{"step": 0, "note": 60, "vel": 80, "len": 1}, {"step": 2, "note": 63, "vel": 80, "len": 1}, {"step": 4, "note": 67, "vel": 80, "len": 1}, {"step": 6, "note": 70, "vel": 80, "len": 1}]}, {"bar": 10, "events": [{"step": 0, "note": 60, "vel": 80, "len": 1}, {"step": 2, "note": 63, "vel": 80, "len": 1}, {"step": 4, "note": 67, "vel": 80, "len": 1}, {"step": 6, "note": 70, "vel": 80, "len": 1}]}, {"bar": 11, "events": [{"step": 0, "note": 60, "vel": 80, "len": 1}, {"step": 2, "note": 63, "vel": 80, "len": 1}, {"step": 4, "note": 67, "vel": 80, "len": 1}, {"step": 6, "note": 70, "vel": 80, "len": 1}]}, {"bar": 12, "events": [{"step": 0, "note": 60, "vel": 80, "len": 1}, {"step": 2, "note": 63, "vel": 80, "len": 1}, {"step": 4, "note": 67, "vel": 80, "len": 1}, {"step": 6, "note": 70, "vel": 80, "len": 1}]}, {"bar": 13, "events": [{"step": 0, "note": 60, "vel": 80, "len": 1}, {"step": 2, "note": 63, "vel": 80, "len": 1}, {"step": 4, "note": 67, "vel": 80, "len": 1}, {"step": 6, "note": 70, "vel": 80, "len": 1}]}, {"bar": 14, "events": [{"step": 0, "note": 60, "vel": 80, "len": 1}, {"step": 2, "note": 63, "vel": 80, "len": 1}, {"step": 4, "note": 67, "vel": 80, "len": 1}, {"step": 6, "note": 70, "vel": 80, "len": 1}]}, {"bar": 15, "events": [{"step": 0, "note": 60, "vel": 80, "len": 1}, {"step": 2, "note": 63, "vel": 80, "len": 1}, {"step": 4, "note": 67, "vel": 80, "len": 1}, {"step": 6, "note": 70, "vel": 80, "len": 1}]}, {"bar": 16, "events": [{"step": 0, "note": 60, "vel": 80, "len": 1}, {"step": 2, "note": 63, "vel": 80, "len": 1}, {"step": 4, "note": 67, "vel": 80, "len": 1}, {"step": 6, "note": 70, "vel": 80, "len": 1}]}]}