{"Piano": {"meta": {"status": "success", "tempo": 100, "key": "C Minor", "scale": "Harmonic Minor", "style": "Experimental", "mood": "Tense", "meter": "3/4", "dynamic_profile": "Crescendo", "arrangement_density": "Medium", "harmonic_color": "Dissonant", "length_seconds": 96.0, "bars": 16, "instrument_configs": [{"name": "Piano", "register": "High", "role": "Lead", "articulation": "Staccato", "dynamic_range": "Moderate"}, {"name": "Bass Guitar", "register": "Low", "role": "Bass", "articulation": "Sustain", "dynamic_range": "Intense"}, {"name": "Strings", "register": "Mid", "role": "Harmony", "articulation": "Legato", "dynamic_range": "Delicate"}, {"name": "Snare", "register": "Full", "role": "Percussion", "articulation": "Percussive", "dynamic_range": "Fortissimo"}], "instruments": ["Piano", "Bass Guitar", "Strings", "Snare"], "instrument": "Piano"}, "layers": {"Piano": [{"bar": 1, "events": [{"step": 0, "note": 60, "vel": 80, "len": 1}, {"step": 2, "note": 63, "vel": 80, "len": 1}, {"step": 4, "note": 67, "vel": 80, "len": 1}, {"step": 6, "note": 70, "vel": 80, "len": 1}]}, {"bar": 2, "events": [{"step": 0, "note": 60, "vel": 80, "len": 1}, {"step": 2, "note": 63, "vel": 80, "len": 1}, {"step": 4, "note": 67, "vel": 80, "len": 1}, {"step": 6, "note": 70, "vel": 80, "len": 1}]}, {"bar": 3, "events": [{"step": 0, "note": 60, "vel": 80, "len": 1}, {"step": 2, "note": 63, "vel": 80, "len": 1}, {"step": 4, "note": 67, "vel": 80, "len": 1}, {"step": 6, "note": 70, "vel": 80, "len": 1}]}, {"bar": 4, "events": [{"step": 0, "note": 60, "vel": 80, "len": 1}, {"step": 2, "note": 63, "vel": 80, "len": 1}, {"step": 4, "note": 67, "vel": 80, "len": 1}, {"step": 6, "note": 70, "vel": 80, "len": 1}]}, {"bar": 5, "events": [{"step": 0, "note": 60, "vel": 80, "len": 1}, {"step": 2, "note": 63, "vel": 80, "len": 1}, {"step": 4, "note": 67, "vel": 80, "len": 1}, {"step": 6, "note": 70, "vel": 80, "len": 1}]}, {"bar": 6, "events": [{"step": 0, "note": 60, "vel": 80, "len": 1}, {"step": 2, "note": 63, "vel": 80, "len": 1}, {"step": 4, "note": 67, "vel": 80, "len": 1}, {"step": 6, "note": 70, "vel": 80, "len": 1}]}, {"bar": 7, "events": [{"step": 0, "note": 60, "vel": 80, "len": 1}, {"step": 2, "note": 63, "vel": 80, "len": 1}, {"step": 4, "note": 67, "vel": 80, "len": 1}, {"step": 6, "note": 70, "vel": 80, "len": 1}]}, {"bar": 8, "events": [{"step": 0, "note": 60, "vel": 80, "len": 1}, {"step": 2, "note": 63, "vel": 80, "len": 1}, {"step": 4, "note": 67, "vel": 80, "len": 1}, {"step": 6, "note": 70, "vel": 80, "len": 1}]}, {"bar": 9, "events": [{"step": 0, "note": 60, "vel": 80, "len": 1}, {"step": 2, "note": 63, "vel": 80, "len": 1}, {"step": 4, "note": 67, "vel": 80, "len": 1}, {"step": 6, "note": 70, "vel": 80, "len": 1}]}, {"bar": 10, "events": [{"step": 0, "note": 60, "vel": 80, "len": 1}, {"step": 2, "note": 63, "vel": 80, "len": 1}, {"step": 4, "note": 67, "vel": 80, "len": 1}, {"step": 6, "note": 70, "vel": 80, "len": 1}]}, {"bar": 11, "events": [{"step": 0, "note": 60, "vel": 80, "len": 1}, {"step": 2, "note": 63, "vel": 80, "len": 1}, {"step": 4, "note": 67, "vel": 80, "len": 1}, {"step": 6, "note": 70, "vel": 80, "len": 1}]}, {"bar": 12, "events": [{"step": 0, "note": 60, "vel": 80, "len": 1}, {"step": 2, "note": 63, "vel": 80, "len": 1}, {"step": 4, "note": 67, "vel": 80, "len": 1}, {"step": 6, "note": 70, "vel": 80, "len": 1}]}, {"bar": 13, "events": [{"step": 0, "note": 60, "vel": 80, "len": 1}, {"step": 2, "note": 63, "vel": 80, "len": 1}, {"step": 4, "note": 67, "vel": 80, "len": 1}, {"step": 6, "note": 70, "vel": 80, "len": 1}]}, {"bar": 14, "events": [{"step": 0, "note": 60, "vel": 80, "len": 1}, {"step": 2, "note": 63, "vel": 80, "len": 1}, {"step": 4, "note": 67, "vel": 80, "len": 1}, {"step": 6, "note": 70, "vel": 80, "len": 1}]}, {"bar": 15, "events": [{"step": 0, "note": 60, "vel": 80, "len": 1}, {"step": 2, "note": 63, "vel": 80, "len": 1}, {"step": 4, "note": 67, "vel": 80, "len": 1}, {"step": 6, "note": 70, "vel": 80, "len": 1}]}, {"bar": 16, "events": [{"step": 0, "note": 60, "vel": 80, "len": 1}, {"step": 2, "note": 63, "vel": 80, "len": 1}, {"step": 4, "note": 67, "vel": 80, "len": 1}, {"step": 6, "note": 70, "vel": 80, "len": 1}]}]}, "pattern": [{"bar": 1, "events": [{"step": 0, "note": 60, "vel": 80, "len": 1}, {"step": 2, "note": 63, "vel": 80, "len": 1}, {"step": 4, "note": 67, "vel": 80, "len": 1}, {"step": 6, "note": 70, "vel": 80, "len": 1}]}, {"bar": 2, "events": [{"step": 0, "note": 60, "vel": 80, "len": 1}, {"step": 2, "note": 63, "vel": 80, "len": 1}, {"step": 4, "note": 67, "vel": 80, "len": 1}, {"step": 6, "note": 70, "vel": 80, "len": 1}]}, {"bar": 3, "events": [{"step": 0, "note": 60, "vel": 80, "len": 1}, {"step": 2, "note": 63, "vel": 80, "len": 1}, {"step": 4, "note": 67, "vel": 80, "len": 1}, {"step": 6, "note": 70, "vel": 80, "len": 1}]}, {"bar": 4, "events": [{"step": 0, "note": 60, "vel": 80, "len": 1}, {"step": 2, "note": 63, "vel": 80, "len": 1}, {"step": 4, "note": 67, "vel": 80, "len": 1}, {"step": 6, "note": 70, "vel": 80, "len": 1}]}, {"bar": 5, "events": [{"step": 0, "note": 60, "vel": 80, "len": 1}, {"step": 2, "note": 63, "vel": 80, "len": 1}, {"step": 4, "note": 67, "vel": 80, "len": 1}, {"step": 6, "note": 70, "vel": 80, "len": 1}]}, {"bar": 6, "events": [{"step": 0, "note": 60, "vel": 80, "len": 1}, {"step": 2, "note": 63, "vel": 80, "len": 1}, {"step": 4, "note": 67, "vel": 80, "len": 1}, {"step": 6, "note": 70, "vel": 80, "len": 1}]}, {"bar": 7, "events": [{"step": 0, "note": 60, "vel": 80, "len": 1}, {"step": 2, "note": 63, "vel": 80, "len": 1}, {"step": 4, "note": 67, "vel": 80, "len": 1}, {"step": 6, "note": 70, "vel": 80, "len": 1}]}, {"bar": 8, "events": [{"step": 0, "note": 60, "vel": 80, "len": 1}, {"step": 2, "note": 63, "vel": 80, "len": 1}, {"step": 4, "note": 67, "vel": 80, "len": 1}, {"step": 6, "note": 70, "vel": 80, "len": 1}]}, {"bar": 9, "events": [{"step": 0, "note": 60, "vel": 80, "len": 1}, {"step": 2, "note": 63, "vel": 80, "len": 1}, {"step": 4, "note": 67, "vel": 80, "len": 1}, {"step": 6, "note": 70, "vel": 80, "len": 1}]}, {"bar": 10, "events": [{"step": 0, "note": 60, "vel": 80, "len": 1}, {"step": 2, "note": 63, "vel": 80, "len": 1}, {"step": 4, "note": 67, "vel": 80, "len": 1}, {"step": 6, "note": 70, "vel": 80, "len": 1}]}, {"bar": 11, "events": [{"step": 0, "note": 60, "vel": 80, "len": 1}, {"step": 2, "note": 63, "vel": 80, "len": 1}, {"step": 4, "note": 67, "vel": 80, "len": 1}, {"step": 6, "note": 70, "vel": 80, "len": 1}]}, {"bar": 12, "events": [{"step": 0, "note": 60, "vel": 80, "len": 1}, {"step": 2, "note": 63, "vel": 80, "len": 1}, {"step": 4, "note": 67, "vel": 80, "len": 1}, {"step": 6, "note": 70, "vel": 80, "len": 1}]}, {"bar": 13, "events": [{"step": 0, "note": 60, "vel": 80, "len": 1}, {"step": 2, "note": 63, "vel": 80, "len": 1}, {"step": 4, "note": 67, "vel": 80, "len": 1}, {"step": 6, "note": 70, "vel": 80, "len": 1}]}, {"bar": 14, "events": [{"step": 0, "note": 60, "vel": 80, "len": 1}, {"step": 2, "note": 63, "vel": 80, "len": 1}, {"step": 4, "note": 67, "vel": 80, "len": 1}, {"step": 6, "note": 70, "vel": 80, "len": 1}]}, {"bar": 15, "events": [{"step": 0, "note": 60, "vel": 80, "len": 1}, {"step": 2, "note": 63, "vel": 80, "len": 1}, {"step": 4, "note": 67, "vel": 80, "len": 1}, {"step": 6, "note": 70, "vel": 80, "len": 1}]}, {"bar": 16, "events": [{"step": 0, "note": 60, "vel": 80, "len": 1}, {"step": 2, "note": 63, "vel": 80, "len": 1}, {"step": 4, "note": 67, "vel": 80, "len": 1}, {"step": 6, "note": 70, "vel": 80, "len": 1}]}]}, "Bass Guitar": {"meta": {"status": "success", "tempo": 100, "key": "C Minor", "scale": "Harmonic Minor", "style": "Experimental", "mood": "Tense", "meter": "3/4", "dynamic_profile": "Crescendo", "arrangement_density": "Medium", "harmonic_color": "Dissonant", "length_seconds": 96.0, "bars": 16, "instrument_configs": [{"name": "Piano", "register": "High", "role": "Lead", "articulation": "Staccato", "dynamic_range": "Moderate"}, {"name": "Bass Guitar", "register": "Low", "role": "Bass", "articulation": "Sustain", "dynamic_range": "Intense"}, {"name": "Strings", "register": "Mid", "role": "Harmony", "articulation": "Legato", "dynamic_range": "Delicate"}, {"name": "Snare", "register": "Full", "role": "Percussion", "articulation": "Percussive", "dynamic_range": "Fortissimo"}], "instruments": ["Piano", "Bass Guitar", "Strings", "Snare"], "instrument": "Bass Guitar"}, "layers": {"Bass Guitar": [{"bar": 1, "events": [{"step": 0, "note": 48, "vel": 100, "len": 2}, {"step": 4, "note": 52, "vel": 100, "len": 2}]}, {"bar": 2, "events": [{"step": 0, "note": 48, "vel": 100, "len": 2}, {"step": 4, "note": 52, "vel": 100, "len": 2}]}, {"bar": 3, "events": [{"step": 0, "note": 48, "vel": 100, "len": 2}, {"step": 4, "note": 52, "vel": 100, "len": 2}]}, {"bar": 4, "events": [{"step": 0, "note": 48, "vel": 100, "len": 2}, {"step": 4, "note": 52, "vel": 100, "len": 2}]}, {"bar": 5, "events": [{"step": 0, "note": 48, "vel": 100, "len": 2}, {"step": 4, "note": 52, "vel": 100, "len": 2}]}, {"bar": 6, "events": [{"step": 0, "note": 48, "vel": 100, "len": 2}, {"step": 4, "note": 52, "vel": 100, "len": 2}]}, {"bar": 7, "events": [{"step": 0, "note": 48, "vel": 100, "len": 2}, {"step": 4, "note": 52, "vel": 100, "len": 2}]}, {"bar": 8, "events": [{"step": 0, "note": 48, "vel": 100, "len": 2}, {"step": 4, "note": 52, "vel": 100, "len": 2}]}, {"bar": 9, "events": [{"step": 0, "note": 48, "vel": 100, "len": 2}, {"step": 4, "note": 52, "vel": 100, "len": 2}]}, {"bar": 10, "events": [{"step": 0, "note": 48, "vel": 100, "len": 2}, {"step": 4, "note": 52, "vel": 100, "len": 2}]}, {"bar": 11, "events": [{"step": 0, "note": 48, "vel": 100, "len": 2}, {"step": 4, "note": 52, "vel": 100, "len": 2}]}, {"bar": 12, "events": [{"step": 0, "note": 48, "vel": 100, "len": 2}, {"step": 4, "note": 52, "vel": 100, "len": 2}]}, {"bar": 13, "events": [{"step": 0, "note": 48, "vel": 100, "len": 2}, {"step": 4, "note": 52, "vel": 100, "len": 2}]}, {"bar": 14, "events": [{"step": 0, "note": 48, "vel": 100, "len": 2}, {"step": 4, "note": 52, "vel": 100, "len": 2}]}, {"bar": 15, "events": [{"step": 0, "note": 48, "vel": 100, "len": 2}, {"step": 4, "note": 52, "vel": 100, "len": 2}]}, {"bar": 16, "events": [{"step": 0, "note": 48, "vel": 100, "len": 2}, {"step": 4, "note": 52, "vel": 100, "len": 2}]}]}, "pattern": [{"bar": 1, "events": [{"step": 0, "note": 48, "vel": 100, "len": 2}, {"step": 4, "note": 52, "vel": 100, "len": 2}]}, {"bar": 2, "events": [{"step": 0, "note": 48, "vel": 100, "len": 2}, {"step": 4, "note": 52, "vel": 100, "len": 2}]}, {"bar": 3, "events": [{"step": 0, "note": 48, "vel": 100, "len": 2}, {"step": 4, "note": 52, "vel": 100, "len": 2}]}, {"bar": 4, "events": [{"step": 0, "note": 48, "vel": 100, "len": 2}, {"step": 4, "note": 52, "vel": 100, "len": 2}]}, {"bar": 5, "events": [{"step": 0, "note": 48, "vel": 100, "len": 2}, {"step": 4, "note": 52, "vel": 100, "len": 2}]}, {"bar": 6, "events": [{"step": 0, "note": 48, "vel": 100, "len": 2}, {"step": 4, "note": 52, "vel": 100, "len": 2}]}, {"bar": 7, "events": [{"step": 0, "note": 48, "vel": 100, "len": 2}, {"step": 4, "note": 52, "vel": 100, "len": 2}]}, {"bar": 8, "events": [{"step": 0, "note": 48, "vel": 100, "len": 2}, {"step": 4, "note": 52, "vel": 100, "len": 2}]}, {"bar": 9, "events": [{"step": 0, "note": 48, "vel": 100, "len": 2}, {"step": 4, "note": 52, "vel": 100, "len": 2}]}, {"bar": 10, "events": [{"step": 0, "note": 48, "vel": 100, "len": 2}, {"step": 4, "note": 52, "vel": 100, "len": 2}]}, {"bar": 11, "events": [{"step": 0, "note": 48, "vel": 100, "len": 2}, {"step": 4, "note": 52, "vel": 100, "len": 2}]}, {"bar": 12, "events": [{"step": 0, "note": 48, "vel": 100, "len": 2}, {"step": 4, "note": 52, "vel": 100, "len": 2}]}, {"bar": 13, "events": [{"step": 0, "note": 48, "vel": 100, "len": 2}, {"step": 4, "note": 52, "vel": 100, "len": 2}]}, {"bar": 14, "events": [{"step": 0, "note": 48, "vel": 100, "len": 2}, {"step": 4, "note": 52, "vel": 100, "len": 2}]}, {"bar": 15, "events": [{"step": 0, "note": 48, "vel": 100, "len": 2}, {"step": 4, "note": 52, "vel": 100, "len": 2}]}, {"bar": 16, "events": [{"step": 0, "note": 48, "vel": 100, "len": 2}, {"step": 4, "note": 52, "vel": 100, "len": 2}]}]}, "Strings": {"meta": {"status": "success", "tempo": 100, "key": "C Minor", "scale": "Harmonic Minor", "style": "Experimental", "mood": "Tense", "meter": "3/4", "dynamic_profile": "Crescendo", "arrangement_density": "Medium", "harmonic_color": "Dissonant", "length_seconds": 96.0, "bars": 16, "instrument_configs": [{"name": "Piano", "register": "High", "role": "Lead", "articulation": "Staccato", "dynamic_range": "Moderate"}, {"name": "Bass Guitar", "register": "Low", "role": "Bass", "articulation": "Sustain", "dynamic_range": "Intense"}, {"name": "Strings", "register": "Mid", "role": "Harmony", "articulation": "Legato", "dynamic_range": "Delicate"}, {"name": "Snare", "register": "Full", "role": "Percussion", "articulation": "Percussive", "dynamic_range": "Fortissimo"}], "instruments": ["Piano", "Bass Guitar", "Strings", "Snare"], "instrument": "Strings"}, "layers": {"Strings": [{"bar": 1, "events": [{"step": 0, "note": 72, "vel": 60, "len": 4}]}, {"bar": 2, "events": [{"step": 0, "note": 72, "vel": 60, "len": 4}]}, {"bar": 3, "events": [{"step": 0, "note": 72, "vel": 60, "len": 4}]}, {"bar": 4, "events": [{"step": 0, "note": 72, "vel": 60, "len": 4}]}, {"bar": 5, "events": [{"step": 0, "note": 72, "vel": 60, "len": 4}]}, {"bar": 6, "events": [{"step": 0, "note": 72, "vel": 60, "len": 4}]}, {"bar": 7, "events": [{"step": 0, "note": 72, "vel": 60, "len": 4}]}, {"bar": 8, "events": [{"step": 0, "note": 72, "vel": 60, "len": 4}]}, {"bar": 9, "events": [{"step": 0, "note": 72, "vel": 60, "len": 4}]}, {"bar": 10, "events": [{"step": 0, "note": 72, "vel": 60, "len": 4}]}, {"bar": 11, "events": [{"step": 0, "note": 72, "vel": 60, "len": 4}]}, {"bar": 12, "events": [{"step": 0, "note": 72, "vel": 60, "len": 4}]}, {"bar": 13, "events": [{"step": 0, "note": 72, "vel": 60, "len": 4}]}, {"bar": 14, "events": [{"step": 0, "note": 72, "vel": 60, "len": 4}]}, {"bar": 15, "events": [{"step": 0, "note": 72, "vel": 60, "len": 4}]}, {"bar": 16, "events": [{"step": 0, "note": 72, "vel": 60, "len": 4}]}]}, "pattern": [{"bar": 1, "events": [{"step": 0, "note": 72, "vel": 60, "len": 4}]}, {"bar": 2, "events": [{"step": 0, "note": 72, "vel": 60, "len": 4}]}, {"bar": 3, "events": [{"step": 0, "note": 72, "vel": 60, "len": 4}]}, {"bar": 4, "events": [{"step": 0, "note": 72, "vel": 60, "len": 4}]}, {"bar": 5, "events": [{"step": 0, "note": 72, "vel": 60, "len": 4}]}, {"bar": 6, "events": [{"step": 0, "note": 72, "vel": 60, "len": 4}]}, {"bar": 7, "events": [{"step": 0, "note": 72, "vel": 60, "len": 4}]}, {"bar": 8, "events": [{"step": 0, "note": 72, "vel": 60, "len": 4}]}, {"bar": 9, "events": [{"step": 0, "note": 72, "vel": 60, "len": 4}]}, {"bar": 10, "events": [{"step": 0, "note": 72, "vel": 60, "len": 4}]}, {"bar": 11, "events": [{"step": 0, "note": 72, "vel": 60, "len": 4}]}, {"bar": 12, "events": [{"step": 0, "note": 72, "vel": 60, "len": 4}]}, {"bar": 13, "events": [{"step": 0, "note": 72, "vel": 60, "len": 4}]}, {"bar": 14, "events": [{"step": 0, "note": 72, "vel": 60, "len": 4}]}, {"bar": 15, "events": [{"step": 0, "note": 72, "vel": 60, "len": 4}]}, {"bar": 16, "events": [{"step": 0, "note": 72, "vel": 60, "len": 4}]}]}, "Snare": {"meta": {"status": "success", "tempo": 100, "key": "C Minor", "scale": "Harmonic Minor", "style": "Experimental", "mood": "Tense", "meter": "3/4", "dynamic_profile": "Crescendo", "arrangement_density": "Medium", "harmonic_color": "Dissonant", "length_seconds": 96.0, "bars": 16, "instrument_configs": [{"name": "Piano", "register": "High", "role": "Lead", "articulation": "Staccato", "dynamic_range": "Moderate"}, {"name": "Bass Guitar", "register": "Low", "role": "Bass", "articulation": "Sustain", "dynamic_range": "Intense"}, {"name": "Strings", "register": "Mid", "role": "Harmony", "articulation": "Legato", "dynamic_range": "Delicate"}, {"name": "Snare", "register": "Full", "role": "Percussion", "articulation": "Percussive", "dynamic_range": "Fortissimo"}], "instruments": ["Piano", "Bass Guitar", "Strings", "Snare"], "instrument": "Snare"}, "layers": {"Snare": [{"bar": 1, "events": []}, {"bar": 2, "events": []}, {"bar": 3, "events": []}, {"bar": 4, "events": []}, {"bar": 5, "events": []}, {"bar": 6, "events": []}, {"bar": 7, "events": []}, {"bar": 8, "events": []}, {"bar": 9, "events": []}, {"bar": 10, "events": []}, {"bar": 11, "events": []}, {"bar": 12, "events": []}, {"bar": 13, "events": []}, {"bar": 14, "events": []}, {"bar": 15, "events": []}, {"bar": 16, "events": []}]}, "pattern": [{"bar": 1, "events": []}, {"bar": 2, "events": []}, {"bar": 3, "events": []}, {"bar": 4, "events": []}, {"bar": 5, "events": []}, {"bar": 6, "events": []}, {"bar": 7, "events": []}, {"bar": 8, "events": []}, {"bar": 9, "events": []}, {"bar": 10, "events": []}, {"bar": 11, "events": []}, {"bar": 12, "events": []}, {"bar": 13, "events": []}, {"bar": 14, "events": []}, {"bar": 15, "events": []}, {"bar": 16, "events": []}]}}