{"Drums": {"meta": {"style": "Experimental", "mood": "Neutral", "tempo": 120, "key": "C Major", "scale": "Major", "meter": "4/4", "bars": 16, "length_seconds": 128.0, "dynamic_profile": "Moderate", "arrangement_density": "Medium", "harmonic_color": "Bright", "instruments": ["Piano", "Acoustic Guitar", "Bass Guitar", "Drums"], "instrument_configs": [{"name": "Piano", "register": "Mid", "role": "Lead", "articulation": "Legato", "dynamic_range": "Delicate"}, {"name": "Acoustic Guitar", "register": "High", "role": "Accompaniment", "articulation": "Staccato", "dynamic_range": "Moderate"}, {"name": "Bass Guitar", "register": "Low", "role": "Bass", "articulation": "Sustain", "dynamic_range": "Intense"}, {"name": "Drums", "register": "Full", "role": "Percussion", "articulation": "Percussive", "dynamic_range": "Intense"}], "seed": null, "instrument": "Drums"}, "layers": {"Drums": [{"bar": 0, "events": [{"step": 0, "note": 49, "vel": 120, "len": 4}, {"step": 0, "note": 36, "vel": 120, "len": 2}, {"step": 3, "note": 36, "vel": 80, "len": 2}, {"step": 5, "note": 36, "vel": 100, "len": 2}, {"step": 2, "note": 38, "vel": 100, "len": 2}, {"step": 6, "note": 38, "vel": 110, "len": 2}, {"step": 0, "note": 42, "vel": 90, "len": 1}, {"step": 1, "note": 42, "vel": 80, "len": 1}, {"step": 2, "note": 42, "vel": 95, "len": 1}, {"step": 4, "note": 42, "vel": 90, "len": 1}, {"step": 5, "note": 42, "vel": 80, "len": 1}, {"step": 6, "note": 46, "vel": 110, "len": 2}]}, {"bar": 1, "events": [{"step": 0, "note": 36, "vel": 115, "len": 2}, {"step": 4, "note": 36, "vel": 105, "len": 2}, {"step": 7, "note": 36, "vel": 90, "len": 2}, {"step": 2, "note": 38, "vel": 105, "len": 2}, {"step": 5, "note": 38, "vel": 95, "len": 2}, {"step": 0, "note": 42, "vel": 85, "len": 1}, {"step": 1, "note": 42, "vel": 75, "len": 1}, {"step": 2, "note": 42, "vel": 90, "len": 1}, {"step": 3, "note": 42, "vel": 80, "len": 1}, {"step": 4, "note": 42, "vel": 85, "len": 1}, {"step": 5, "note": 42, "vel": 75, "len": 1}, {"step": 6, "note": 42, "vel": 90, "len": 1}, {"step": 7, "note": 42, "vel": 80, "len": 1}]}, {"bar": 2, "events": [{"step": 0, "note": 36, "vel": 125, "len": 2}, {"step": 2, "note": 36, "vel": 90, "len": 2}, {"step": 4, "note": 36, "vel": 110, "len": 2}, {"step": 6, "note": 36, "vel": 85, "len": 2}, {"step": 1, "note": 38, "vel": 90, "len": 2}, {"step": 3, "note": 38, "vel": 100, "len": 2}, {"step": 5, "note": 38, "vel": 110, "len": 2}, {"step": 0, "note": 42, "vel": 90, "len": 1}, {"step": 2, "note": 46, "vel": 105, "len": 2}, {"step": 4, "note": 42, "vel": 90, "len": 1}, {"step": 6, "note": 42, "vel": 90, "len": 1}, {"step": 7, "note": 42, "vel": 80, "len": 1}]}, {"bar": 3, "events": [{"step": 0, "note": 36, "vel": 127, "len": 2}, {"step": 4, "note": 36, "vel": 115, "len": 2}, {"step": 2, "note": 38, "vel": 110, "len": 2}, {"step": 6, "note": 38, "vel": 120, "len": 2}, {"step": 0, "note": 42, "vel": 95, "len": 1}, {"step": 1, "note": 42, "vel": 85, "len": 1}, {"step": 2, "note": 42, "vel": 95, "len": 1}, {"step": 3, "note": 42, "vel": 85, "len": 1}, {"step": 4, "note": 42, "vel": 95, "len": 1}, {"step": 5, "note": 42, "vel": 85, "len": 1}, {"step": 6, "note": 46, "vel": 115, "len": 2}, {"step": 7, "note": 42, "vel": 80, "len": 1}]}, {"bar": 4, "events": [{"step": 0, "note": 49, "vel": 120, "len": 4}, {"step": 0, "note": 36, "vel": 120, "len": 2}, {"step": 3, "note": 36, "vel": 80, "len": 2}, {"step": 5, "note": 36, "vel": 100, "len": 2}, {"step": 2, "note": 38, "vel": 100, "len": 2}, {"step": 6, "note": 38, "vel": 110, "len": 2}, {"step": 0, "note": 42, "vel": 90, "len": 1}, {"step": 1, "note": 42, "vel": 80, "len": 1}, {"step": 2, "note": 42, "vel": 95, "len": 1}, {"step": 4, "note": 42, "vel": 90, "len": 1}, {"step": 5, "note": 42, "vel": 80, "len": 1}, {"step": 6, "note": 46, "vel": 110, "len": 2}]}, {"bar": 5, "events": [{"step": 0, "note": 36, "vel": 115, "len": 2}, {"step": 4, "note": 36, "vel": 105, "len": 2}, {"step": 7, "note": 36, "vel": 90, "len": 2}, {"step": 2, "note": 38, "vel": 105, "len": 2}, {"step": 5, "note": 38, "vel": 95, "len": 2}, {"step": 0, "note": 42, "vel": 85, "len": 1}, {"step": 1, "note": 42, "vel": 75, "len": 1}, {"step": 2, "note": 42, "vel": 90, "len": 1}, {"step": 3, "note": 42, "vel": 80, "len": 1}, {"step": 4, "note": 42, "vel": 85, "len": 1}, {"step": 5, "note": 42, "vel": 75, "len": 1}, {"step": 6, "note": 42, "vel": 90, "len": 1}, {"step": 7, "note": 42, "vel": 80, "len": 1}]}, {"bar": 6, "events": [{"step": 0, "note": 36, "vel": 125, "len": 2}, {"step": 2, "note": 36, "vel": 90, "len": 2}, {"step": 4, "note": 36, "vel": 110, "len": 2}, {"step": 6, "note": 36, "vel": 85, "len": 2}, {"step": 1, "note": 38, "vel": 90, "len": 2}, {"step": 3, "note": 38, "vel": 100, "len": 2}, {"step": 5, "note": 38, "vel": 110, "len": 2}, {"step": 0, "note": 42, "vel": 90, "len": 1}, {"step": 2, "note": 46, "vel": 105, "len": 2}, {"step": 4, "note": 42, "vel": 90, "len": 1}, {"step": 6, "note": 42, "vel": 90, "len": 1}, {"step": 7, "note": 42, "vel": 80, "len": 1}]}, {"bar": 7, "events": [{"step": 0, "note": 36, "vel": 127, "len": 2}, {"step": 4, "note": 36, "vel": 115, "len": 2}, {"step": 2, "note": 38, "vel": 110, "len": 2}, {"step": 6, "note": 38, "vel": 120, "len": 2}, {"step": 0, "note": 42, "vel": 95, "len": 1}, {"step": 1, "note": 42, "vel": 85, "len": 1}, {"step": 2, "note": 42, "vel": 95, "len": 1}, {"step": 3, "note": 42, "vel": 85, "len": 1}, {"step": 4, "note": 42, "vel": 95, "len": 1}, {"step": 5, "note": 42, "vel": 85, "len": 1}, {"step": 6, "note": 46, "vel": 115, "len": 2}, {"step": 7, "note": 42, "vel": 80, "len": 1}]}, {"bar": 8, "events": [{"step": 0, "note": 49, "vel": 120, "len": 4}, {"step": 0, "note": 36, "vel": 120, "len": 2}, {"step": 3, "note": 36, "vel": 80, "len": 2}, {"step": 5, "note": 36, "vel": 100, "len": 2}, {"step": 2, "note": 38, "vel": 100, "len": 2}, {"step": 6, "note": 38, "vel": 110, "len": 2}, {"step": 0, "note": 42, "vel": 90, "len": 1}, {"step": 1, "note": 42, "vel": 80, "len": 1}, {"step": 2, "note": 42, "vel": 95, "len": 1}, {"step": 4, "note": 42, "vel": 90, "len": 1}, {"step": 5, "note": 42, "vel": 80, "len": 1}, {"step": 6, "note": 46, "vel": 110, "len": 2}]}, {"bar": 9, "events": [{"step": 0, "note": 36, "vel": 115, "len": 2}, {"step": 4, "note": 36, "vel": 105, "len": 2}, {"step": 7, "note": 36, "vel": 90, "len": 2}, {"step": 2, "note": 38, "vel": 105, "len": 2}, {"step": 5, "note": 38, "vel": 95, "len": 2}, {"step": 0, "note": 42, "vel": 85, "len": 1}, {"step": 1, "note": 42, "vel": 75, "len": 1}, {"step": 2, "note": 42, "vel": 90, "len": 1}, {"step": 3, "note": 42, "vel": 80, "len": 1}, {"step": 4, "note": 42, "vel": 85, "len": 1}, {"step": 5, "note": 42, "vel": 75, "len": 1}, {"step": 6, "note": 42, "vel": 90, "len": 1}, {"step": 7, "note": 42, "vel": 80, "len": 1}]}, {"bar": 10, "events": [{"step": 0, "note": 36, "vel": 125, "len": 2}, {"step": 2, "note": 36, "vel": 90, "len": 2}, {"step": 4, "note": 36, "vel": 110, "len": 2}, {"step": 6, "note": 36, "vel": 85, "len": 2}, {"step": 1, "note": 38, "vel": 90, "len": 2}, {"step": 3, "note": 38, "vel": 100, "len": 2}, {"step": 5, "note": 38, "vel": 110, "len": 2}, {"step": 0, "note": 42, "vel": 90, "len": 1}, {"step": 2, "note": 46, "vel": 105, "len": 2}, {"step": 4, "note": 42, "vel": 90, "len": 1}, {"step": 6, "note": 42, "vel": 90, "len": 1}, {"step": 7, "note": 42, "vel": 80, "len": 1}]}, {"bar": 11, "events": [{"step": 0, "note": 36, "vel": 127, "len": 2}, {"step": 4, "note": 36, "vel": 115, "len": 2}, {"step": 2, "note": 38, "vel": 110, "len": 2}, {"step": 6, "note": 38, "vel": 120, "len": 2}, {"step": 0, "note": 42, "vel": 95, "len": 1}, {"step": 1, "note": 42, "vel": 85, "len": 1}, {"step": 2, "note": 42, "vel": 95, "len": 1}, {"step": 3, "note": 42, "vel": 85, "len": 1}, {"step": 4, "note": 42, "vel": 95, "len": 1}, {"step": 5, "note": 42, "vel": 85, "len": 1}, {"step": 6, "note": 46, "vel": 115, "len": 2}, {"step": 7, "note": 42, "vel": 80, "len": 1}]}, {"bar": 12, "events": [{"step": 0, "note": 49, "vel": 120, "len": 4}, {"step": 0, "note": 36, "vel": 120, "len": 2}, {"step": 3, "note": 36, "vel": 80, "len": 2}, {"step": 5, "note": 36, "vel": 100, "len": 2}, {"step": 2, "note": 38, "vel": 100, "len": 2}, {"step": 6, "note": 38, "vel": 110, "len": 2}, {"step": 0, "note": 42, "vel": 90, "len": 1}, {"step": 1, "note": 42, "vel": 80, "len": 1}, {"step": 2, "note": 42, "vel": 95, "len": 1}, {"step": 4, "note": 42, "vel": 90, "len": 1}, {"step": 5, "note": 42, "vel": 80, "len": 1}, {"step": 6, "note": 46, "vel": 110, "len": 2}]}, {"bar": 13, "events": [{"step": 0, "note": 36, "vel": 115, "len": 2}, {"step": 4, "note": 36, "vel": 105, "len": 2}, {"step": 7, "note": 36, "vel": 90, "len": 2}, {"step": 2, "note": 38, "vel": 105, "len": 2}, {"step": 5, "note": 38, "vel": 95, "len": 2}, {"step": 0, "note": 42, "vel": 85, "len": 1}, {"step": 1, "note": 42, "vel": 75, "len": 1}, {"step": 2, "note": 42, "vel": 90, "len": 1}, {"step": 3, "note": 42, "vel": 80, "len": 1}, {"step": 4, "note": 42, "vel": 85, "len": 1}, {"step": 5, "note": 42, "vel": 75, "len": 1}, {"step": 6, "note": 42, "vel": 90, "len": 1}, {"step": 7, "note": 42, "vel": 80, "len": 1}]}, {"bar": 14, "events": [{"step": 0, "note": 36, "vel": 125, "len": 2}, {"step": 2, "note": 36, "vel": 90, "len": 2}, {"step": 4, "note": 36, "vel": 110, "len": 2}, {"step": 6, "note": 36, "vel": 85, "len": 2}, {"step": 1, "note": 38, "vel": 90, "len": 2}, {"step": 3, "note": 38, "vel": 100, "len": 2}, {"step": 5, "note": 38, "vel": 110, "len": 2}, {"step": 0, "note": 42, "vel": 90, "len": 1}, {"step": 2, "note": 46, "vel": 105, "len": 2}, {"step": 4, "note": 42, "vel": 90, "len": 1}, {"step": 6, "note": 42, "vel": 90, "len": 1}, {"step": 7, "note": 42, "vel": 80, "len": 1}]}, {"bar": 15, "events": [{"step": 0, "note": 36, "vel": 127, "len": 2}, {"step": 4, "note": 36, "vel": 115, "len": 2}, {"step": 2, "note": 38, "vel": 110, "len": 2}, {"step": 6, "note": 38, "vel": 120, "len": 2}, {"step": 0, "note": 42, "vel": 95, "len": 1}, {"step": 1, "note": 42, "vel": 85, "len": 1}, {"step": 2, "note": 42, "vel": 95, "len": 1}, {"step": 3, "note": 42, "vel": 85, "len": 1}, {"step": 4, "note": 42, "vel": 95, "len": 1}, {"step": 5, "note": 42, "vel": 85, "len": 1}, {"step": 6, "note": 46, "vel": 115, "len": 2}, {"step": 7, "note": 42, "vel": 80, "len": 1}]}]}, "pattern": [{"bar": 0, "events": [{"step": 0, "note": 49, "vel": 120, "len": 4}, {"step": 0, "note": 36, "vel": 120, "len": 2}, {"step": 3, "note": 36, "vel": 80, "len": 2}, {"step": 5, "note": 36, "vel": 100, "len": 2}, {"step": 2, "note": 38, "vel": 100, "len": 2}, {"step": 6, "note": 38, "vel": 110, "len": 2}, {"step": 0, "note": 42, "vel": 90, "len": 1}, {"step": 1, "note": 42, "vel": 80, "len": 1}, {"step": 2, "note": 42, "vel": 95, "len": 1}, {"step": 4, "note": 42, "vel": 90, "len": 1}, {"step": 5, "note": 42, "vel": 80, "len": 1}, {"step": 6, "note": 46, "vel": 110, "len": 2}]}, {"bar": 1, "events": [{"step": 0, "note": 36, "vel": 115, "len": 2}, {"step": 4, "note": 36, "vel": 105, "len": 2}, {"step": 7, "note": 36, "vel": 90, "len": 2}, {"step": 2, "note": 38, "vel": 105, "len": 2}, {"step": 5, "note": 38, "vel": 95, "len": 2}, {"step": 0, "note": 42, "vel": 85, "len": 1}, {"step": 1, "note": 42, "vel": 75, "len": 1}, {"step": 2, "note": 42, "vel": 90, "len": 1}, {"step": 3, "note": 42, "vel": 80, "len": 1}, {"step": 4, "note": 42, "vel": 85, "len": 1}, {"step": 5, "note": 42, "vel": 75, "len": 1}, {"step": 6, "note": 42, "vel": 90, "len": 1}, {"step": 7, "note": 42, "vel": 80, "len": 1}]}, {"bar": 2, "events": [{"step": 0, "note": 36, "vel": 125, "len": 2}, {"step": 2, "note": 36, "vel": 90, "len": 2}, {"step": 4, "note": 36, "vel": 110, "len": 2}, {"step": 6, "note": 36, "vel": 85, "len": 2}, {"step": 1, "note": 38, "vel": 90, "len": 2}, {"step": 3, "note": 38, "vel": 100, "len": 2}, {"step": 5, "note": 38, "vel": 110, "len": 2}, {"step": 0, "note": 42, "vel": 90, "len": 1}, {"step": 2, "note": 46, "vel": 105, "len": 2}, {"step": 4, "note": 42, "vel": 90, "len": 1}, {"step": 6, "note": 42, "vel": 90, "len": 1}, {"step": 7, "note": 42, "vel": 80, "len": 1}]}, {"bar": 3, "events": [{"step": 0, "note": 36, "vel": 127, "len": 2}, {"step": 4, "note": 36, "vel": 115, "len": 2}, {"step": 2, "note": 38, "vel": 110, "len": 2}, {"step": 6, "note": 38, "vel": 120, "len": 2}, {"step": 0, "note": 42, "vel": 95, "len": 1}, {"step": 1, "note": 42, "vel": 85, "len": 1}, {"step": 2, "note": 42, "vel": 95, "len": 1}, {"step": 3, "note": 42, "vel": 85, "len": 1}, {"step": 4, "note": 42, "vel": 95, "len": 1}, {"step": 5, "note": 42, "vel": 85, "len": 1}, {"step": 6, "note": 46, "vel": 115, "len": 2}, {"step": 7, "note": 42, "vel": 80, "len": 1}]}, {"bar": 4, "events": [{"step": 0, "note": 49, "vel": 120, "len": 4}, {"step": 0, "note": 36, "vel": 120, "len": 2}, {"step": 3, "note": 36, "vel": 80, "len": 2}, {"step": 5, "note": 36, "vel": 100, "len": 2}, {"step": 2, "note": 38, "vel": 100, "len": 2}, {"step": 6, "note": 38, "vel": 110, "len": 2}, {"step": 0, "note": 42, "vel": 90, "len": 1}, {"step": 1, "note": 42, "vel": 80, "len": 1}, {"step": 2, "note": 42, "vel": 95, "len": 1}, {"step": 4, "note": 42, "vel": 90, "len": 1}, {"step": 5, "note": 42, "vel": 80, "len": 1}, {"step": 6, "note": 46, "vel": 110, "len": 2}]}, {"bar": 5, "events": [{"step": 0, "note": 36, "vel": 115, "len": 2}, {"step": 4, "note": 36, "vel": 105, "len": 2}, {"step": 7, "note": 36, "vel": 90, "len": 2}, {"step": 2, "note": 38, "vel": 105, "len": 2}, {"step": 5, "note": 38, "vel": 95, "len": 2}, {"step": 0, "note": 42, "vel": 85, "len": 1}, {"step": 1, "note": 42, "vel": 75, "len": 1}, {"step": 2, "note": 42, "vel": 90, "len": 1}, {"step": 3, "note": 42, "vel": 80, "len": 1}, {"step": 4, "note": 42, "vel": 85, "len": 1}, {"step": 5, "note": 42, "vel": 75, "len": 1}, {"step": 6, "note": 42, "vel": 90, "len": 1}, {"step": 7, "note": 42, "vel": 80, "len": 1}]}, {"bar": 6, "events": [{"step": 0, "note": 36, "vel": 125, "len": 2}, {"step": 2, "note": 36, "vel": 90, "len": 2}, {"step": 4, "note": 36, "vel": 110, "len": 2}, {"step": 6, "note": 36, "vel": 85, "len": 2}, {"step": 1, "note": 38, "vel": 90, "len": 2}, {"step": 3, "note": 38, "vel": 100, "len": 2}, {"step": 5, "note": 38, "vel": 110, "len": 2}, {"step": 0, "note": 42, "vel": 90, "len": 1}, {"step": 2, "note": 46, "vel": 105, "len": 2}, {"step": 4, "note": 42, "vel": 90, "len": 1}, {"step": 6, "note": 42, "vel": 90, "len": 1}, {"step": 7, "note": 42, "vel": 80, "len": 1}]}, {"bar": 7, "events": [{"step": 0, "note": 36, "vel": 127, "len": 2}, {"step": 4, "note": 36, "vel": 115, "len": 2}, {"step": 2, "note": 38, "vel": 110, "len": 2}, {"step": 6, "note": 38, "vel": 120, "len": 2}, {"step": 0, "note": 42, "vel": 95, "len": 1}, {"step": 1, "note": 42, "vel": 85, "len": 1}, {"step": 2, "note": 42, "vel": 95, "len": 1}, {"step": 3, "note": 42, "vel": 85, "len": 1}, {"step": 4, "note": 42, "vel": 95, "len": 1}, {"step": 5, "note": 42, "vel": 85, "len": 1}, {"step": 6, "note": 46, "vel": 115, "len": 2}, {"step": 7, "note": 42, "vel": 80, "len": 1}]}, {"bar": 8, "events": [{"step": 0, "note": 49, "vel": 120, "len": 4}, {"step": 0, "note": 36, "vel": 120, "len": 2}, {"step": 3, "note": 36, "vel": 80, "len": 2}, {"step": 5, "note": 36, "vel": 100, "len": 2}, {"step": 2, "note": 38, "vel": 100, "len": 2}, {"step": 6, "note": 38, "vel": 110, "len": 2}, {"step": 0, "note": 42, "vel": 90, "len": 1}, {"step": 1, "note": 42, "vel": 80, "len": 1}, {"step": 2, "note": 42, "vel": 95, "len": 1}, {"step": 4, "note": 42, "vel": 90, "len": 1}, {"step": 5, "note": 42, "vel": 80, "len": 1}, {"step": 6, "note": 46, "vel": 110, "len": 2}]}, {"bar": 9, "events": [{"step": 0, "note": 36, "vel": 115, "len": 2}, {"step": 4, "note": 36, "vel": 105, "len": 2}, {"step": 7, "note": 36, "vel": 90, "len": 2}, {"step": 2, "note": 38, "vel": 105, "len": 2}, {"step": 5, "note": 38, "vel": 95, "len": 2}, {"step": 0, "note": 42, "vel": 85, "len": 1}, {"step": 1, "note": 42, "vel": 75, "len": 1}, {"step": 2, "note": 42, "vel": 90, "len": 1}, {"step": 3, "note": 42, "vel": 80, "len": 1}, {"step": 4, "note": 42, "vel": 85, "len": 1}, {"step": 5, "note": 42, "vel": 75, "len": 1}, {"step": 6, "note": 42, "vel": 90, "len": 1}, {"step": 7, "note": 42, "vel": 80, "len": 1}]}, {"bar": 10, "events": [{"step": 0, "note": 36, "vel": 125, "len": 2}, {"step": 2, "note": 36, "vel": 90, "len": 2}, {"step": 4, "note": 36, "vel": 110, "len": 2}, {"step": 6, "note": 36, "vel": 85, "len": 2}, {"step": 1, "note": 38, "vel": 90, "len": 2}, {"step": 3, "note": 38, "vel": 100, "len": 2}, {"step": 5, "note": 38, "vel": 110, "len": 2}, {"step": 0, "note": 42, "vel": 90, "len": 1}, {"step": 2, "note": 46, "vel": 105, "len": 2}, {"step": 4, "note": 42, "vel": 90, "len": 1}, {"step": 6, "note": 42, "vel": 90, "len": 1}, {"step": 7, "note": 42, "vel": 80, "len": 1}]}, {"bar": 11, "events": [{"step": 0, "note": 36, "vel": 127, "len": 2}, {"step": 4, "note": 36, "vel": 115, "len": 2}, {"step": 2, "note": 38, "vel": 110, "len": 2}, {"step": 6, "note": 38, "vel": 120, "len": 2}, {"step": 0, "note": 42, "vel": 95, "len": 1}, {"step": 1, "note": 42, "vel": 85, "len": 1}, {"step": 2, "note": 42, "vel": 95, "len": 1}, {"step": 3, "note": 42, "vel": 85, "len": 1}, {"step": 4, "note": 42, "vel": 95, "len": 1}, {"step": 5, "note": 42, "vel": 85, "len": 1}, {"step": 6, "note": 46, "vel": 115, "len": 2}, {"step": 7, "note": 42, "vel": 80, "len": 1}]}, {"bar": 12, "events": [{"step": 0, "note": 49, "vel": 120, "len": 4}, {"step": 0, "note": 36, "vel": 120, "len": 2}, {"step": 3, "note": 36, "vel": 80, "len": 2}, {"step": 5, "note": 36, "vel": 100, "len": 2}, {"step": 2, "note": 38, "vel": 100, "len": 2}, {"step": 6, "note": 38, "vel": 110, "len": 2}, {"step": 0, "note": 42, "vel": 90, "len": 1}, {"step": 1, "note": 42, "vel": 80, "len": 1}, {"step": 2, "note": 42, "vel": 95, "len": 1}, {"step": 4, "note": 42, "vel": 90, "len": 1}, {"step": 5, "note": 42, "vel": 80, "len": 1}, {"step": 6, "note": 46, "vel": 110, "len": 2}]}, {"bar": 13, "events": [{"step": 0, "note": 36, "vel": 115, "len": 2}, {"step": 4, "note": 36, "vel": 105, "len": 2}, {"step": 7, "note": 36, "vel": 90, "len": 2}, {"step": 2, "note": 38, "vel": 105, "len": 2}, {"step": 5, "note": 38, "vel": 95, "len": 2}, {"step": 0, "note": 42, "vel": 85, "len": 1}, {"step": 1, "note": 42, "vel": 75, "len": 1}, {"step": 2, "note": 42, "vel": 90, "len": 1}, {"step": 3, "note": 42, "vel": 80, "len": 1}, {"step": 4, "note": 42, "vel": 85, "len": 1}, {"step": 5, "note": 42, "vel": 75, "len": 1}, {"step": 6, "note": 42, "vel": 90, "len": 1}, {"step": 7, "note": 42, "vel": 80, "len": 1}]}, {"bar": 14, "events": [{"step": 0, "note": 36, "vel": 125, "len": 2}, {"step": 2, "note": 36, "vel": 90, "len": 2}, {"step": 4, "note": 36, "vel": 110, "len": 2}, {"step": 6, "note": 36, "vel": 85, "len": 2}, {"step": 1, "note": 38, "vel": 90, "len": 2}, {"step": 3, "note": 38, "vel": 100, "len": 2}, {"step": 5, "note": 38, "vel": 110, "len": 2}, {"step": 0, "note": 42, "vel": 90, "len": 1}, {"step": 2, "note": 46, "vel": 105, "len": 2}, {"step": 4, "note": 42, "vel": 90, "len": 1}, {"step": 6, "note": 42, "vel": 90, "len": 1}, {"step": 7, "note": 42, "vel": 80, "len": 1}]}, {"bar": 15, "events": [{"step": 0, "note": 36, "vel": 127, "len": 2}, {"step": 4, "note": 36, "vel": 115, "len": 2}, {"step": 2, "note": 38, "vel": 110, "len": 2}, {"step": 6, "note": 38, "vel": 120, "len": 2}, {"step": 0, "note": 42, "vel": 95, "len": 1}, {"step": 1, "note": 42, "vel": 85, "len": 1}, {"step": 2, "note": 42, "vel": 95, "len": 1}, {"step": 3, "note": 42, "vel": 85, "len": 1}, {"step": 4, "note": 42, "vel": 95, "len": 1}, {"step": 5, "note": 42, "vel": 85, "len": 1}, {"step": 6, "note": 46, "vel": 115, "len": 2}, {"step": 7, "note": 42, "vel": 80, "len": 1}]}]}}