{"meta": {"tempo": 80, "key": "F Minor", "style": "Lofi Hip Hop", "meter": "4/4", "scale": "Dorian", "mood": "Relaxed, Nostalgic, Atmospheric", "dynamic_profile": "Mellow and Consistent", "arrangement_density": "Sparse", "harmonic_color": "Warm, Jazzy, Extended Chords", "length_seconds": 48.0, "bars": 16, "instrument_configs": [{"name": "Piano", "register": "Mid", "role": "Accompaniment", "articulation": "Legato", "dynamic_range": "Moderate"}, {"name": "Electric Guitar", "register": "Mid-High", "role": "Lead", "articulation": "Sustain", "dynamic_range": "Delicate"}, {"name": "Pads", "register": "Mid-High", "role": "Pad", "articulation": "Sustain", "dynamic_range": "Delicate"}, {"name": "Bass Guitar", "register": "Low", "role": "Bass", "articulation": "Legato", "dynamic_range": "Consistent"}, {"name": "Kick", "register": "Low", "role": "Percussion", "articulation": "Percussive", "dynamic_range": "Moderate"}, {"name": "Snare", "register": "Mid", "role": "Percussion", "articulation": "Percussive", "dynamic_range": "Moderate"}, {"name": "Hat", "register": "High", "role": "Percussion", "articulation": "Percussive", "dynamic_range": "Delicate"}, {"name": "Shake", "register": "High", "role": "Percussion", "articulation": "Percussive", "dynamic_range": "Soft"}], "instruments": ["Piano", "Electric Guitar", "Pads", "Bass Guitar", "Kick", "Snare", "Hat", "Shake"], "instrument": "Hat"}, "layers": {"Hat": [{"bar": 1, "events": [{"step": 0, "note": 42, "vel": 65, "len": 1}, {"step": 1, "note": 42, "vel": 50, "len": 1}, {"step": 2, "note": 42, "vel": 60, "len": 1}, {"step": 3, "note": 42, "vel": 52, "len": 1}, {"step": 4, "note": 42, "vel": 62, "len": 1}, {"step": 5, "note": 42, "vel": 55, "len": 1}, {"step": 6, "note": 42, "vel": 60, "len": 1}, {"step": 7, "note": 42, "vel": 48, "len": 1}]}, {"bar": 2, "events": [{"step": 0, "note": 42, "vel": 65, "len": 1}, {"step": 1, "note": 42, "vel": 50, "len": 1}, {"step": 2, "note": 42, "vel": 60, "len": 1}, {"step": 3, "note": 42, "vel": 52, "len": 1}, {"step": 4, "note": 42, "vel": 62, "len": 1}, {"step": 5, "note": 42, "vel": 55, "len": 1}, {"step": 6, "note": 42, "vel": 60, "len": 1}, {"step": 7, "note": 42, "vel": 48, "len": 1}]}, {"bar": 3, "events": [{"step": 0, "note": 42, "vel": 65, "len": 1}, {"step": 1, "note": 42, "vel": 50, "len": 1}, {"step": 2, "note": 42, "vel": 60, "len": 1}, {"step": 3, "note": 42, "vel": 52, "len": 1}, {"step": 4, "note": 42, "vel": 62, "len": 1}, {"step": 5, "note": 42, "vel": 55, "len": 1}, {"step": 6, "note": 42, "vel": 60, "len": 1}, {"step": 7, "note": 42, "vel": 48, "len": 1}]}, {"bar": 4, "events": [{"step": 0, "note": 42, "vel": 65, "len": 1}, {"step": 1, "note": 42, "vel": 50, "len": 1}, {"step": 2, "note": 42, "vel": 60, "len": 1}, {"step": 3, "note": 42, "vel": 52, "len": 1}, {"step": 4, "note": 42, "vel": 62, "len": 1}, {"step": 5, "note": 42, "vel": 55, "len": 1}, {"step": 6, "note": 42, "vel": 60, "len": 1}, {"step": 7, "note": 42, "vel": 48, "len": 1}]}, {"bar": 5, "events": [{"step": 0, "note": 42, "vel": 65, "len": 1}, {"step": 1, "note": 42, "vel": 50, "len": 1}, {"step": 2, "note": 42, "vel": 60, "len": 1}, {"step": 3, "note": 42, "vel": 52, "len": 1}, {"step": 4, "note": 42, "vel": 62, "len": 1}, {"step": 5, "note": 42, "vel": 55, "len": 1}, {"step": 6, "note": 42, "vel": 60, "len": 1}, {"step": 7, "note": 42, "vel": 48, "len": 1}]}, {"bar": 6, "events": [{"step": 0, "note": 42, "vel": 65, "len": 1}, {"step": 1, "note": 42, "vel": 50, "len": 1}, {"step": 2, "note": 42, "vel": 60, "len": 1}, {"step": 3, "note": 42, "vel": 52, "len": 1}, {"step": 4, "note": 42, "vel": 62, "len": 1}, {"step": 5, "note": 42, "vel": 55, "len": 1}, {"step": 6, "note": 42, "vel": 60, "len": 1}, {"step": 7, "note": 42, "vel": 48, "len": 1}]}, {"bar": 7, "events": [{"step": 0, "note": 42, "vel": 65, "len": 1}, {"step": 1, "note": 42, "vel": 50, "len": 1}, {"step": 2, "note": 42, "vel": 60, "len": 1}, {"step": 3, "note": 42, "vel": 52, "len": 1}, {"step": 4, "note": 42, "vel": 62, "len": 1}, {"step": 5, "note": 42, "vel": 55, "len": 1}, {"step": 6, "note": 42, "vel": 60, "len": 1}, {"step": 7, "note": 42, "vel": 48, "len": 1}]}, {"bar": 8, "events": [{"step": 0, "note": 42, "vel": 65, "len": 1}, {"step": 1, "note": 42, "vel": 50, "len": 1}, {"step": 2, "note": 42, "vel": 60, "len": 1}, {"step": 3, "note": 42, "vel": 52, "len": 1}, {"step": 4, "note": 42, "vel": 62, "len": 1}, {"step": 5, "note": 42, "vel": 55, "len": 1}, {"step": 6, "note": 42, "vel": 60, "len": 1}, {"step": 7, "note": 42, "vel": 48, "len": 1}]}, {"bar": 9, "events": [{"step": 0, "note": 42, "vel": 65, "len": 1}, {"step": 1, "note": 42, "vel": 50, "len": 1}, {"step": 2, "note": 42, "vel": 60, "len": 1}, {"step": 3, "note": 42, "vel": 52, "len": 1}, {"step": 4, "note": 42, "vel": 62, "len": 1}, {"step": 5, "note": 42, "vel": 55, "len": 1}, {"step": 6, "note": 42, "vel": 60, "len": 1}, {"step": 7, "note": 42, "vel": 48, "len": 1}]}, {"bar": 10, "events": [{"step": 0, "note": 42, "vel": 65, "len": 1}, {"step": 1, "note": 42, "vel": 50, "len": 1}, {"step": 2, "note": 42, "vel": 60, "len": 1}, {"step": 3, "note": 42, "vel": 52, "len": 1}, {"step": 4, "note": 42, "vel": 62, "len": 1}, {"step": 5, "note": 42, "vel": 55, "len": 1}, {"step": 6, "note": 42, "vel": 60, "len": 1}, {"step": 7, "note": 42, "vel": 48, "len": 1}]}, {"bar": 11, "events": [{"step": 0, "note": 42, "vel": 65, "len": 1}, {"step": 1, "note": 42, "vel": 50, "len": 1}, {"step": 2, "note": 42, "vel": 60, "len": 1}, {"step": 3, "note": 42, "vel": 52, "len": 1}, {"step": 4, "note": 42, "vel": 62, "len": 1}, {"step": 5, "note": 42, "vel": 55, "len": 1}, {"step": 6, "note": 42, "vel": 60, "len": 1}, {"step": 7, "note": 42, "vel": 48, "len": 1}]}, {"bar": 12, "events": [{"step": 0, "note": 42, "vel": 65, "len": 1}, {"step": 1, "note": 42, "vel": 50, "len": 1}, {"step": 2, "note": 42, "vel": 60, "len": 1}, {"step": 3, "note": 42, "vel": 52, "len": 1}, {"step": 4, "note": 42, "vel": 62, "len": 1}, {"step": 5, "note": 42, "vel": 55, "len": 1}, {"step": 6, "note": 42, "vel": 60, "len": 1}, {"step": 7, "note": 42, "vel": 48, "len": 1}]}, {"bar": 13, "events": [{"step": 0, "note": 42, "vel": 65, "len": 1}, {"step": 1, "note": 42, "vel": 50, "len": 1}, {"step": 2, "note": 42, "vel": 60, "len": 1}, {"step": 3, "note": 42, "vel": 52, "len": 1}, {"step": 4, "note": 42, "vel": 62, "len": 1}, {"step": 5, "note": 42, "vel": 55, "len": 1}, {"step": 6, "note": 42, "vel": 60, "len": 1}, {"step": 7, "note": 42, "vel": 48, "len": 1}]}, {"bar": 14, "events": [{"step": 0, "note": 42, "vel": 65, "len": 1}, {"step": 1, "note": 42, "vel": 50, "len": 1}, {"step": 2, "note": 42, "vel": 60, "len": 1}, {"step": 3, "note": 42, "vel": 52, "len": 1}, {"step": 4, "note": 42, "vel": 62, "len": 1}, {"step": 5, "note": 42, "vel": 55, "len": 1}, {"step": 6, "note": 42, "vel": 60, "len": 1}, {"step": 7, "note": 42, "vel": 48, "len": 1}]}, {"bar": 15, "events": [{"step": 0, "note": 42, "vel": 65, "len": 1}, {"step": 1, "note": 42, "vel": 50, "len": 1}, {"step": 2, "note": 42, "vel": 60, "len": 1}, {"step": 3, "note": 42, "vel": 52, "len": 1}, {"step": 4, "note": 42, "vel": 62, "len": 1}, {"step": 5, "note": 42, "vel": 55, "len": 1}, {"step": 6, "note": 42, "vel": 60, "len": 1}, {"step": 7, "note": 42, "vel": 48, "len": 1}]}, {"bar": 16, "events": [{"step": 0, "note": 42, "vel": 65, "len": 1}, {"step": 1, "note": 42, "vel": 50, "len": 1}, {"step": 2, "note": 42, "vel": 60, "len": 1}, {"step": 3, "note": 42, "vel": 52, "len": 1}, {"step": 4, "note": 42, "vel": 62, "len": 1}, {"step": 5, "note": 42, "vel": 55, "len": 1}, {"step": 6, "note": 42, "vel": 60, "len": 1}, {"step": 7, "note": 42, "vel": 48, "len": 1}]}]}, "pattern": [{"bar": 1, "events": [{"step": 0, "note": 42, "vel": 65, "len": 1}, {"step": 1, "note": 42, "vel": 50, "len": 1}, {"step": 2, "note": 42, "vel": 60, "len": 1}, {"step": 3, "note": 42, "vel": 52, "len": 1}, {"step": 4, "note": 42, "vel": 62, "len": 1}, {"step": 5, "note": 42, "vel": 55, "len": 1}, {"step": 6, "note": 42, "vel": 60, "len": 1}, {"step": 7, "note": 42, "vel": 48, "len": 1}]}, {"bar": 2, "events": [{"step": 0, "note": 42, "vel": 65, "len": 1}, {"step": 1, "note": 42, "vel": 50, "len": 1}, {"step": 2, "note": 42, "vel": 60, "len": 1}, {"step": 3, "note": 42, "vel": 52, "len": 1}, {"step": 4, "note": 42, "vel": 62, "len": 1}, {"step": 5, "note": 42, "vel": 55, "len": 1}, {"step": 6, "note": 42, "vel": 60, "len": 1}, {"step": 7, "note": 42, "vel": 48, "len": 1}]}, {"bar": 3, "events": [{"step": 0, "note": 42, "vel": 65, "len": 1}, {"step": 1, "note": 42, "vel": 50, "len": 1}, {"step": 2, "note": 42, "vel": 60, "len": 1}, {"step": 3, "note": 42, "vel": 52, "len": 1}, {"step": 4, "note": 42, "vel": 62, "len": 1}, {"step": 5, "note": 42, "vel": 55, "len": 1}, {"step": 6, "note": 42, "vel": 60, "len": 1}, {"step": 7, "note": 42, "vel": 48, "len": 1}]}, {"bar": 4, "events": [{"step": 0, "note": 42, "vel": 65, "len": 1}, {"step": 1, "note": 42, "vel": 50, "len": 1}, {"step": 2, "note": 42, "vel": 60, "len": 1}, {"step": 3, "note": 42, "vel": 52, "len": 1}, {"step": 4, "note": 42, "vel": 62, "len": 1}, {"step": 5, "note": 42, "vel": 55, "len": 1}, {"step": 6, "note": 42, "vel": 60, "len": 1}, {"step": 7, "note": 42, "vel": 48, "len": 1}]}, {"bar": 5, "events": [{"step": 0, "note": 42, "vel": 65, "len": 1}, {"step": 1, "note": 42, "vel": 50, "len": 1}, {"step": 2, "note": 42, "vel": 60, "len": 1}, {"step": 3, "note": 42, "vel": 52, "len": 1}, {"step": 4, "note": 42, "vel": 62, "len": 1}, {"step": 5, "note": 42, "vel": 55, "len": 1}, {"step": 6, "note": 42, "vel": 60, "len": 1}, {"step": 7, "note": 42, "vel": 48, "len": 1}]}, {"bar": 6, "events": [{"step": 0, "note": 42, "vel": 65, "len": 1}, {"step": 1, "note": 42, "vel": 50, "len": 1}, {"step": 2, "note": 42, "vel": 60, "len": 1}, {"step": 3, "note": 42, "vel": 52, "len": 1}, {"step": 4, "note": 42, "vel": 62, "len": 1}, {"step": 5, "note": 42, "vel": 55, "len": 1}, {"step": 6, "note": 42, "vel": 60, "len": 1}, {"step": 7, "note": 42, "vel": 48, "len": 1}]}, {"bar": 7, "events": [{"step": 0, "note": 42, "vel": 65, "len": 1}, {"step": 1, "note": 42, "vel": 50, "len": 1}, {"step": 2, "note": 42, "vel": 60, "len": 1}, {"step": 3, "note": 42, "vel": 52, "len": 1}, {"step": 4, "note": 42, "vel": 62, "len": 1}, {"step": 5, "note": 42, "vel": 55, "len": 1}, {"step": 6, "note": 42, "vel": 60, "len": 1}, {"step": 7, "note": 42, "vel": 48, "len": 1}]}, {"bar": 8, "events": [{"step": 0, "note": 42, "vel": 65, "len": 1}, {"step": 1, "note": 42, "vel": 50, "len": 1}, {"step": 2, "note": 42, "vel": 60, "len": 1}, {"step": 3, "note": 42, "vel": 52, "len": 1}, {"step": 4, "note": 42, "vel": 62, "len": 1}, {"step": 5, "note": 42, "vel": 55, "len": 1}, {"step": 6, "note": 42, "vel": 60, "len": 1}, {"step": 7, "note": 42, "vel": 48, "len": 1}]}, {"bar": 9, "events": [{"step": 0, "note": 42, "vel": 65, "len": 1}, {"step": 1, "note": 42, "vel": 50, "len": 1}, {"step": 2, "note": 42, "vel": 60, "len": 1}, {"step": 3, "note": 42, "vel": 52, "len": 1}, {"step": 4, "note": 42, "vel": 62, "len": 1}, {"step": 5, "note": 42, "vel": 55, "len": 1}, {"step": 6, "note": 42, "vel": 60, "len": 1}, {"step": 7, "note": 42, "vel": 48, "len": 1}]}, {"bar": 10, "events": [{"step": 0, "note": 42, "vel": 65, "len": 1}, {"step": 1, "note": 42, "vel": 50, "len": 1}, {"step": 2, "note": 42, "vel": 60, "len": 1}, {"step": 3, "note": 42, "vel": 52, "len": 1}, {"step": 4, "note": 42, "vel": 62, "len": 1}, {"step": 5, "note": 42, "vel": 55, "len": 1}, {"step": 6, "note": 42, "vel": 60, "len": 1}, {"step": 7, "note": 42, "vel": 48, "len": 1}]}, {"bar": 11, "events": [{"step": 0, "note": 42, "vel": 65, "len": 1}, {"step": 1, "note": 42, "vel": 50, "len": 1}, {"step": 2, "note": 42, "vel": 60, "len": 1}, {"step": 3, "note": 42, "vel": 52, "len": 1}, {"step": 4, "note": 42, "vel": 62, "len": 1}, {"step": 5, "note": 42, "vel": 55, "len": 1}, {"step": 6, "note": 42, "vel": 60, "len": 1}, {"step": 7, "note": 42, "vel": 48, "len": 1}]}, {"bar": 12, "events": [{"step": 0, "note": 42, "vel": 65, "len": 1}, {"step": 1, "note": 42, "vel": 50, "len": 1}, {"step": 2, "note": 42, "vel": 60, "len": 1}, {"step": 3, "note": 42, "vel": 52, "len": 1}, {"step": 4, "note": 42, "vel": 62, "len": 1}, {"step": 5, "note": 42, "vel": 55, "len": 1}, {"step": 6, "note": 42, "vel": 60, "len": 1}, {"step": 7, "note": 42, "vel": 48, "len": 1}]}, {"bar": 13, "events": [{"step": 0, "note": 42, "vel": 65, "len": 1}, {"step": 1, "note": 42, "vel": 50, "len": 1}, {"step": 2, "note": 42, "vel": 60, "len": 1}, {"step": 3, "note": 42, "vel": 52, "len": 1}, {"step": 4, "note": 42, "vel": 62, "len": 1}, {"step": 5, "note": 42, "vel": 55, "len": 1}, {"step": 6, "note": 42, "vel": 60, "len": 1}, {"step": 7, "note": 42, "vel": 48, "len": 1}]}, {"bar": 14, "events": [{"step": 0, "note": 42, "vel": 65, "len": 1}, {"step": 1, "note": 42, "vel": 50, "len": 1}, {"step": 2, "note": 42, "vel": 60, "len": 1}, {"step": 3, "note": 42, "vel": 52, "len": 1}, {"step": 4, "note": 42, "vel": 62, "len": 1}, {"step": 5, "note": 42, "vel": 55, "len": 1}, {"step": 6, "note": 42, "vel": 60, "len": 1}, {"step": 7, "note": 42, "vel": 48, "len": 1}]}, {"bar": 15, "events": [{"step": 0, "note": 42, "vel": 65, "len": 1}, {"step": 1, "note": 42, "vel": 50, "len": 1}, {"step": 2, "note": 42, "vel": 60, "len": 1}, {"step": 3, "note": 42, "vel": 52, "len": 1}, {"step": 4, "note": 42, "vel": 62, "len": 1}, {"step": 5, "note": 42, "vel": 55, "len": 1}, {"step": 6, "note": 42, "vel": 60, "len": 1}, {"step": 7, "note": 42, "vel": 48, "len": 1}]}, {"bar": 16, "events": [{"step": 0, "note": 42, "vel": 65, "len": 1}, {"step": 1, "note": 42, "vel": 50, "len": 1}, {"step": 2, "note": 42, "vel": 60, "len": 1}, {"step": 3, "note": 42, "vel": 52, "len": 1}, {"step": 4, "note": 42, "vel": 62, "len": 1}, {"step": 5, "note": 42, "vel": 55, "len": 1}, {"step": 6, "note": 42, "vel": 60, "len": 1}, {"step": 7, "note": 42, "vel": 48, "len": 1}]}]}