{"meta": {"tempo": 80, "style": "Ambient Lofi Hip Hop", "key": "C", "scale": "Dorian", "bars": 16, "mood": "Relaxed, Nostalgic, Atmospheric", "meter": "4/4", "dynamic_profile": "Mellow and Steady", "arrangement_density": "Sparse", "harmonic_color": "Jazzy, Warm", "length_seconds": 48.0, "instrument_configs": [{"name": "Kick", "register": "Low", "role": "Percussion", "articulation": "Percussive", "dynamic_range": "Moderate"}, {"name": "Snare", "register": "Mid", "role": "Percussion", "articulation": "Percussive", "dynamic_range": "Moderate"}, {"name": "Hat", "register": "High", "role": "Percussion", "articulation": "Percussive", "dynamic_range": "Delicate"}, {"name": "Bass Guitar", "register": "Low", "role": "Bass", "articulation": "Sustain", "dynamic_range": "Consistent"}, {"name": "Piano", "register": "Mid", "role": "Accompaniment", "articulation": "Legato", "dynamic_range": "Mellow"}, {"name": "Pads", "register": "Full", "role": "Pad", "articulation": "Sustain", "dynamic_range": "Delicate"}, {"name": "Electric Guitar", "register": "Mid-High", "role": "Lead", "articulation": "Legato", "dynamic_range": "Mellow"}], "instruments": ["Kick", "Snare", "Hat", "Bass Guitar", "Piano", "Pads", "Electric Guitar"], "instrument": "Piano"}, "layers": {"Piano": [{"bar": 0, "events": [{"step": 0, "note": 60, "vel": 55, "len": 8}, {"step": 0, "note": 63, "vel": 52, "len": 8}, {"step": 0, "note": 67, "vel": 50, "len": 8}, {"step": 0, "note": 70, "vel": 48, "len": 8}]}, {"bar": 1, "events": [{"step": 0, "note": 60, "vel": 55, "len": 4}]}, {"bar": 2, "events": [{"step": 0, "note": 65, "vel": 55, "len": 8}, {"step": 0, "note": 69, "vel": 52, "len": 8}, {"step": 0, "note": 72, "vel": 50, "len": 8}, {"step": 0, "note": 63, "vel": 48, "len": 8}]}, {"bar": 3, "events": [{"step": 4, "note": 65, "vel": 50, "len": 2}]}, {"bar": 4, "events": [{"step": 0, "note": 60, "vel": 60, "len": 4}, {"step": 0, "note": 63, "vel": 58, "len": 4}, {"step": 0, "note": 67, "vel": 56, "len": 4}, {"step": 3, "note": 70, "vel": 65, "len": 2}]}, {"bar": 6, "events": [{"step": 0, "note": 65, "vel": 60, "len": 4}, {"step": 0, "note": 69, "vel": 58, "len": 4}, {"step": 0, "note": 72, "vel": 56, "len": 4}, {"step": 3, "note": 63, "vel": 65, "len": 2}]}, {"bar": 8, "events": [{"step": 0, "note": 60, "vel": 60, "len": 4}, {"step": 0, "note": 63, "vel": 58, "len": 4}, {"step": 0, "note": 67, "vel": 56, "len": 4}, {"step": 3, "note": 70, "vel": 65, "len": 2}]}, {"bar": 10, "events": [{"step": 0, "note": 65, "vel": 60, "len": 4}, {"step": 0, "note": 69, "vel": 58, "len": 4}, {"step": 0, "note": 72, "vel": 56, "len": 4}, {"step": 3, "note": 63, "vel": 65, "len": 2}]}, {"bar": 12, "events": [{"step": 0, "note": 60, "vel": 50, "len": 8}, {"step": 0, "note": 63, "vel": 48, "len": 8}, {"step": 0, "note": 67, "vel": 45, "len": 8}]}]}, "pattern": [{"bar": 0, "events": [{"step": 0, "note": 60, "vel": 55, "len": 8}, {"step": 0, "note": 63, "vel": 52, "len": 8}, {"step": 0, "note": 67, "vel": 50, "len": 8}, {"step": 0, "note": 70, "vel": 48, "len": 8}]}, {"bar": 1, "events": [{"step": 0, "note": 60, "vel": 55, "len": 4}]}, {"bar": 2, "events": [{"step": 0, "note": 65, "vel": 55, "len": 8}, {"step": 0, "note": 69, "vel": 52, "len": 8}, {"step": 0, "note": 72, "vel": 50, "len": 8}, {"step": 0, "note": 63, "vel": 48, "len": 8}]}, {"bar": 3, "events": [{"step": 4, "note": 65, "vel": 50, "len": 2}]}, {"bar": 4, "events": [{"step": 0, "note": 60, "vel": 60, "len": 4}, {"step": 0, "note": 63, "vel": 58, "len": 4}, {"step": 0, "note": 67, "vel": 56, "len": 4}, {"step": 3, "note": 70, "vel": 65, "len": 2}]}, {"bar": 6, "events": [{"step": 0, "note": 65, "vel": 60, "len": 4}, {"step": 0, "note": 69, "vel": 58, "len": 4}, {"step": 0, "note": 72, "vel": 56, "len": 4}, {"step": 3, "note": 63, "vel": 65, "len": 2}]}, {"bar": 8, "events": [{"step": 0, "note": 60, "vel": 60, "len": 4}, {"step": 0, "note": 63, "vel": 58, "len": 4}, {"step": 0, "note": 67, "vel": 56, "len": 4}, {"step": 3, "note": 70, "vel": 65, "len": 2}]}, {"bar": 10, "events": [{"step": 0, "note": 65, "vel": 60, "len": 4}, {"step": 0, "note": 69, "vel": 58, "len": 4}, {"step": 0, "note": 72, "vel": 56, "len": 4}, {"step": 3, "note": 63, "vel": 65, "len": 2}]}, {"bar": 12, "events": [{"step": 0, "note": 60, "vel": 50, "len": 8}, {"step": 0, "note": 63, "vel": 48, "len": 8}, {"step": 0, "note": 67, "vel": 45, "len": 8}]}]}