{"meta": {"style": "Dark Trap", "mood": "Ominous", "tempo": 140, "key": "C#", "scale": "Minor", "meter": "4/4", "bars": 16, "length_seconds": 30.0, "dynamic_profile": "Punchy with heavy low end", "arrangement_density": "Sparse", "harmonic_color": "Dissonant", "instruments": ["Kick", "Snare", "Hat", "Bass", "Piano", "Strings", "Pads"], "instrument_configs": [{"name": "Kick", "register": "Low", "role": "Percussion", "articulation": "Percussive", "dynamic_range": "Intense"}, {"name": "Snare", "register": "Mid", "role": "Percussion", "articulation": "Percussive", "dynamic_range": "Intense"}, {"name": "Hat", "register": "High", "role": "Percussion", "articulation": "Percussive", "dynamic_range": "Moderate"}, {"name": "Bass", "register": "Low", "role": "Bass", "articulation": "Sustain", "dynamic_range": "Intense"}, {"name": "Piano", "register": "Mid", "role": "Lead", "articulation": "Staccato", "dynamic_range": "Moderate"}, {"name": "Strings", "register": "Mid-High", "role": "Accompaniment", "articulation": "Spiccato", "dynamic_range": "Moderate"}, {"name": "Pads", "register": "High", "role": "Pad", "articulation": "Sustain", "dynamic_range": "Delicate"}], "seed": null, "instrument": "Hat"}, "layers": {"Hat": [{"bar": 1, "events": [{"step": 0, "note": 42, "vel": 100, "len": 1}, {"step": 2, "note": 42, "vel": 90, "len": 1}, {"step": 4, "note": 42, "vel": 100, "len": 1}, {"step": 6, "note": 42, "vel": 90, "len": 1}]}, {"bar": 2, "events": [{"step": 0, "note": 42, "vel": 100, "len": 1}, {"step": 2, "note": 42, "vel": 90, "len": 1}, {"step": 4, "note": 42, "vel": 100, "len": 1}, {"step": 6, "note": 42, "vel": 90, "len": 1}]}, {"bar": 3, "events": [{"step": 0, "note": 42, "vel": 100, "len": 1}, {"step": 1, "note": 42, "vel": 70, "len": 1}, {"step": 2, "note": 42, "vel": 90, "len": 1}, {"step": 3, "note": 42, "vel": 70, "len": 1}, {"step": 4, "note": 42, "vel": 100, "len": 1}, {"step": 6, "note": 42, "vel": 90, "len": 1}]}, {"bar": 4, "events": [{"step": 0, "note": 42, "vel": 100, "len": 1}, {"step": 2, "note": 42, "vel": 90, "len": 1}, {"step": 4, "note": 42, "vel": 100, "len": 1}, {"step": 5, "note": 42, "vel": 75, "len": 1}, {"step": 6, "note": 42, "vel": 90, "len": 1}, {"step": 7, "note": 42, "vel": 75, "len": 1}]}, {"bar": 5, "events": [{"step": 0, "note": 42, "vel": 100, "len": 1}, {"step": 2, "note": 42, "vel": 90, "len": 1}, {"step": 4, "note": 42, "vel": 100, "len": 1}, {"step": 6, "note": 42, "vel": 90, "len": 1}]}, {"bar": 6, "events": [{"step": 0, "note": 42, "vel": 100, "len": 1}, {"step": 2, "note": 42, "vel": 90, "len": 1}, {"step": 4, "note": 42, "vel": 100, "len": 1}, {"step": 6, "note": 42, "vel": 90, "len": 1}]}, {"bar": 7, "events": [{"step": 0, "note": 42, "vel": 100, "len": 1}, {"step": 2, "note": 42, "vel": 90, "len": 1}, {"step": 4, "note": 42, "vel": 100, "len": 1}, {"step": 6, "note": 42, "vel": 90, "len": 1}]}, {"bar": 8, "events": [{"step": 0, "note": 42, "vel": 100, "len": 1}, {"step": 2, "note": 42, "vel": 90, "len": 1}, {"step": 4, "note": 42, "vel": 100, "len": 1}, {"step": 5, "note": 42, "vel": 80, "len": 1}, {"step": 6, "note": 42, "vel": 90, "len": 1}, {"step": 7, "note": 42, "vel": 80, "len": 1}]}, {"bar": 9, "events": [{"step": 0, "note": 42, "vel": 100, "len": 1}, {"step": 2, "note": 42, "vel": 90, "len": 1}, {"step": 4, "note": 42, "vel": 100, "len": 1}, {"step": 6, "note": 42, "vel": 90, "len": 1}]}, {"bar": 10, "events": [{"step": 0, "note": 42, "vel": 100, "len": 1}, {"step": 2, "note": 42, "vel": 90, "len": 1}, {"step": 4, "note": 42, "vel": 100, "len": 1}, {"step": 6, "note": 42, "vel": 90, "len": 1}]}]}, "pattern": [{"bar": 1, "events": [{"step": 0, "note": 42, "vel": 100, "len": 1}, {"step": 2, "note": 42, "vel": 90, "len": 1}, {"step": 4, "note": 42, "vel": 100, "len": 1}, {"step": 6, "note": 42, "vel": 90, "len": 1}]}, {"bar": 2, "events": [{"step": 0, "note": 42, "vel": 100, "len": 1}, {"step": 2, "note": 42, "vel": 90, "len": 1}, {"step": 4, "note": 42, "vel": 100, "len": 1}, {"step": 6, "note": 42, "vel": 90, "len": 1}]}, {"bar": 3, "events": [{"step": 0, "note": 42, "vel": 100, "len": 1}, {"step": 1, "note": 42, "vel": 70, "len": 1}, {"step": 2, "note": 42, "vel": 90, "len": 1}, {"step": 3, "note": 42, "vel": 70, "len": 1}, {"step": 4, "note": 42, "vel": 100, "len": 1}, {"step": 6, "note": 42, "vel": 90, "len": 1}]}, {"bar": 4, "events": [{"step": 0, "note": 42, "vel": 100, "len": 1}, {"step": 2, "note": 42, "vel": 90, "len": 1}, {"step": 4, "note": 42, "vel": 100, "len": 1}, {"step": 5, "note": 42, "vel": 75, "len": 1}, {"step": 6, "note": 42, "vel": 90, "len": 1}, {"step": 7, "note": 42, "vel": 75, "len": 1}]}, {"bar": 5, "events": [{"step": 0, "note": 42, "vel": 100, "len": 1}, {"step": 2, "note": 42, "vel": 90, "len": 1}, {"step": 4, "note": 42, "vel": 100, "len": 1}, {"step": 6, "note": 42, "vel": 90, "len": 1}]}, {"bar": 6, "events": [{"step": 0, "note": 42, "vel": 100, "len": 1}, {"step": 2, "note": 42, "vel": 90, "len": 1}, {"step": 4, "note": 42, "vel": 100, "len": 1}, {"step": 6, "note": 42, "vel": 90, "len": 1}]}, {"bar": 7, "events": [{"step": 0, "note": 42, "vel": 100, "len": 1}, {"step": 2, "note": 42, "vel": 90, "len": 1}, {"step": 4, "note": 42, "vel": 100, "len": 1}, {"step": 6, "note": 42, "vel": 90, "len": 1}]}, {"bar": 8, "events": [{"step": 0, "note": 42, "vel": 100, "len": 1}, {"step": 2, "note": 42, "vel": 90, "len": 1}, {"step": 4, "note": 42, "vel": 100, "len": 1}, {"step": 5, "note": 42, "vel": 80, "len": 1}, {"step": 6, "note": 42, "vel": 90, "len": 1}, {"step": 7, "note": 42, "vel": 80, "len": 1}]}, {"bar": 9, "events": [{"step": 0, "note": 42, "vel": 100, "len": 1}, {"step": 2, "note": 42, "vel": 90, "len": 1}, {"step": 4, "note": 42, "vel": 100, "len": 1}, {"step": 6, "note": 42, "vel": 90, "len": 1}]}, {"bar": 10, "events": [{"step": 0, "note": 42, "vel": 100, "len": 1}, {"step": 2, "note": 42, "vel": 90, "len": 1}, {"step": 4, "note": 42, "vel": 100, "len": 1}, {"step": 6, "note": 42, "vel": 90, "len": 1}]}]}