{"meta": {"style": "Dark Trap", "mood": "Ominous", "tempo": 140, "key": "C#", "scale": "Minor", "meter": "4/4", "bars": 16, "length_seconds": 30.0, "dynamic_profile": "Punchy with heavy low end", "arrangement_density": "Sparse", "harmonic_color": "Dissonant", "instruments": ["Kick", "Snare", "Hat", "Bass", "Piano", "Strings", "Pads"], "instrument_configs": [{"name": "Kick", "register": "Low", "role": "Percussion", "articulation": "Percussive", "dynamic_range": "Intense"}, {"name": "Snare", "register": "Mid", "role": "Percussion", "articulation": "Percussive", "dynamic_range": "Intense"}, {"name": "Hat", "register": "High", "role": "Percussion", "articulation": "Percussive", "dynamic_range": "Moderate"}, {"name": "Bass", "register": "Low", "role": "Bass", "articulation": "Sustain", "dynamic_range": "Intense"}, {"name": "Piano", "register": "Mid", "role": "Lead", "articulation": "Staccato", "dynamic_range": "Moderate"}, {"name": "Strings", "register": "Mid-High", "role": "Accompaniment", "articulation": "Spiccato", "dynamic_range": "Moderate"}, {"name": "Pads", "register": "High", "role": "Pad", "articulation": "Sustain", "dynamic_range": "Delicate"}], "seed": null, "instrument": "Piano"}, "layers": {"Piano": [{"bar": 1, "events": [{"step": 0, "note": 61, "vel": 90, "len": 2}, {"step": 2, "note": 64, "vel": 85, "len": 2}, {"step": 4, "note": 68, "vel": 90, "len": 2}, {"step": 6, "note": 64, "vel": 85, "len": 2}]}, {"bar": 2, "events": [{"step": 0, "note": 69, "vel": 95, "len": 2}, {"step": 2, "note": 68, "vel": 85, "len": 2}, {"step": 4, "note": 64, "vel": 85, "len": 2}, {"step": 6, "note": 61, "vel": 80, "len": 2}]}, {"bar": 3, "events": [{"step": 0, "note": 61, "vel": 90, "len": 2}, {"step": 2, "note": 64, "vel": 85, "len": 2}, {"step": 4, "note": 68, "vel": 90, "len": 2}, {"step": 6, "note": 64, "vel": 85, "len": 2}]}, {"bar": 4, "events": [{"step": 0, "note": 69, "vel": 95, "len": 2}, {"step": 2, "note": 68, "vel": 85, "len": 2}, {"step": 4, "note": 73, "vel": 95, "len": 2}, {"step": 6, "note": 68, "vel": 85, "len": 2}]}, {"bar": 5, "events": [{"step": 0, "note": 57, "vel": 90, "len": 2}, {"step": 2, "note": 61, "vel": 85, "len": 2}, {"step": 4, "note": 64, "vel": 90, "len": 2}, {"step": 6, "note": 61, "vel": 85, "len": 2}]}, {"bar": 6, "events": [{"step": 0, "note": 66, "vel": 95, "len": 2}, {"step": 2, "note": 64, "vel": 85, "len": 2}, {"step": 4, "note": 61, "vel": 85, "len": 2}, {"step": 6, "note": 57, "vel": 80, "len": 2}]}, {"bar": 7, "events": [{"step": 0, "note": 59, "vel": 90, "len": 2}, {"step": 2, "note": 62, "vel": 85, "len": 2}, {"step": 4, "note": 66, "vel": 90, "len": 2}, {"step": 6, "note": 62, "vel": 85, "len": 2}]}, {"bar": 8, "events": [{"step": 0, "note": 68, "vel": 95, "len": 2}, {"step": 2, "note": 66, "vel": 85, "len": 2}, {"step": 4, "note": 62, "vel": 85, "len": 2}, {"step": 6, "note": 59, "vel": 80, "len": 2}]}, {"bar": 9, "events": [{"step": 0, "note": 61, "vel": 90, "len": 2}, {"step": 2, "note": 64, "vel": 85, "len": 2}, {"step": 4, "note": 68, "vel": 90, "len": 2}, {"step": 6, "note": 64, "vel": 85, "len": 2}]}, {"bar": 10, "events": [{"step": 0, "note": 69, "vel": 95, "len": 2}, {"step": 2, "note": 68, "vel": 85, "len": 2}, {"step": 4, "note": 64, "vel": 85, "len": 2}, {"step": 6, "note": 61, "vel": 80, "len": 2}]}, {"bar": 11, "events": [{"step": 0, "note": 61, "vel": 90, "len": 2}, {"step": 2, "note": 64, "vel": 85, "len": 2}, {"step": 4, "note": 68, "vel": 90, "len": 2}, {"step": 6, "note": 64, "vel": 85, "len": 2}]}, {"bar": 12, "events": [{"step": 0, "note": 69, "vel": 95, "len": 2}, {"step": 2, "note": 68, "vel": 85, "len": 2}, {"step": 4, "note": 73, "vel": 95, "len": 2}, {"step": 6, "note": 68, "vel": 85, "len": 2}]}, {"bar": 13, "events": [{"step": 0, "note": 57, "vel": 90, "len": 2}, {"step": 2, "note": 61, "vel": 85, "len": 2}, {"step": 4, "note": 64, "vel": 90, "len": 2}, {"step": 6, "note": 61, "vel": 85, "len": 2}]}, {"bar": 14, "events": [{"step": 0, "note": 66, "vel": 95, "len": 2}, {"step": 2, "note": 64, "vel": 85, "len": 2}, {"step": 4, "note": 61, "vel": 85, "len": 2}, {"step": 6, "note": 57, "vel": 80, "len": 2}]}, {"bar": 15, "events": [{"step": 0, "note": 59, "vel": 90, "len": 2}, {"step": 2, "note": 62, "vel": 85, "len": 2}, {"step": 4, "note": 66, "vel": 90, "len": 2}, {"step": 6, "note": 62, "vel": 85, "len": 2}]}, {"bar": 16, "events": [{"step": 0, "note": 68, "vel": 95, "len": 2}, {"step": 2, "note": 66, "vel": 85, "len": 2}, {"step": 4, "note": 62, "vel": 85, "len": 2}, {"step": 6, "note": 59, "vel": 80, "len": 2}]}]}, "pattern": [{"bar": 1, "events": [{"step": 0, "note": 61, "vel": 90, "len": 2}, {"step": 2, "note": 64, "vel": 85, "len": 2}, {"step": 4, "note": 68, "vel": 90, "len": 2}, {"step": 6, "note": 64, "vel": 85, "len": 2}]}, {"bar": 2, "events": [{"step": 0, "note": 69, "vel": 95, "len": 2}, {"step": 2, "note": 68, "vel": 85, "len": 2}, {"step": 4, "note": 64, "vel": 85, "len": 2}, {"step": 6, "note": 61, "vel": 80, "len": 2}]}, {"bar": 3, "events": [{"step": 0, "note": 61, "vel": 90, "len": 2}, {"step": 2, "note": 64, "vel": 85, "len": 2}, {"step": 4, "note": 68, "vel": 90, "len": 2}, {"step": 6, "note": 64, "vel": 85, "len": 2}]}, {"bar": 4, "events": [{"step": 0, "note": 69, "vel": 95, "len": 2}, {"step": 2, "note": 68, "vel": 85, "len": 2}, {"step": 4, "note": 73, "vel": 95, "len": 2}, {"step": 6, "note": 68, "vel": 85, "len": 2}]}, {"bar": 5, "events": [{"step": 0, "note": 57, "vel": 90, "len": 2}, {"step": 2, "note": 61, "vel": 85, "len": 2}, {"step": 4, "note": 64, "vel": 90, "len": 2}, {"step": 6, "note": 61, "vel": 85, "len": 2}]}, {"bar": 6, "events": [{"step": 0, "note": 66, "vel": 95, "len": 2}, {"step": 2, "note": 64, "vel": 85, "len": 2}, {"step": 4, "note": 61, "vel": 85, "len": 2}, {"step": 6, "note": 57, "vel": 80, "len": 2}]}, {"bar": 7, "events": [{"step": 0, "note": 59, "vel": 90, "len": 2}, {"step": 2, "note": 62, "vel": 85, "len": 2}, {"step": 4, "note": 66, "vel": 90, "len": 2}, {"step": 6, "note": 62, "vel": 85, "len": 2}]}, {"bar": 8, "events": [{"step": 0, "note": 68, "vel": 95, "len": 2}, {"step": 2, "note": 66, "vel": 85, "len": 2}, {"step": 4, "note": 62, "vel": 85, "len": 2}, {"step": 6, "note": 59, "vel": 80, "len": 2}]}, {"bar": 9, "events": [{"step": 0, "note": 61, "vel": 90, "len": 2}, {"step": 2, "note": 64, "vel": 85, "len": 2}, {"step": 4, "note": 68, "vel": 90, "len": 2}, {"step": 6, "note": 64, "vel": 85, "len": 2}]}, {"bar": 10, "events": [{"step": 0, "note": 69, "vel": 95, "len": 2}, {"step": 2, "note": 68, "vel": 85, "len": 2}, {"step": 4, "note": 64, "vel": 85, "len": 2}, {"step": 6, "note": 61, "vel": 80, "len": 2}]}, {"bar": 11, "events": [{"step": 0, "note": 61, "vel": 90, "len": 2}, {"step": 2, "note": 64, "vel": 85, "len": 2}, {"step": 4, "note": 68, "vel": 90, "len": 2}, {"step": 6, "note": 64, "vel": 85, "len": 2}]}, {"bar": 12, "events": [{"step": 0, "note": 69, "vel": 95, "len": 2}, {"step": 2, "note": 68, "vel": 85, "len": 2}, {"step": 4, "note": 73, "vel": 95, "len": 2}, {"step": 6, "note": 68, "vel": 85, "len": 2}]}, {"bar": 13, "events": [{"step": 0, "note": 57, "vel": 90, "len": 2}, {"step": 2, "note": 61, "vel": 85, "len": 2}, {"step": 4, "note": 64, "vel": 90, "len": 2}, {"step": 6, "note": 61, "vel": 85, "len": 2}]}, {"bar": 14, "events": [{"step": 0, "note": 66, "vel": 95, "len": 2}, {"step": 2, "note": 64, "vel": 85, "len": 2}, {"step": 4, "note": 61, "vel": 85, "len": 2}, {"step": 6, "note": 57, "vel": 80, "len": 2}]}, {"bar": 15, "events": [{"step": 0, "note": 59, "vel": 90, "len": 2}, {"step": 2, "note": 62, "vel": 85, "len": 2}, {"step": 4, "note": 66, "vel": 90, "len": 2}, {"step": 6, "note": 62, "vel": 85, "len": 2}]}, {"bar": 16, "events": [{"step": 0, "note": 68, "vel": 95, "len": 2}, {"step": 2, "note": 66, "vel": 85, "len": 2}, {"step": 4, "note": 62, "vel": 85, "len": 2}, {"step": 6, "note": 59, "vel": 80, "len": 2}]}]}