{"Kick": {"meta": {"style": "Old School Hip Hop", "mood": "Gritty, Groovy, Nostalgic", "tempo": 90, "key": "C Minor", "meter": "4/4", "bars": 16, "time_signature": "4/4", "scale": "Minor", "dynamic_profile": "Steady Groove", "arrangement_density": "Medium", "harmonic_color": "Soulful", "length_seconds": 42.6, "instrument_configs": [{"name": "Kick", "register": "Low", "role": "Percussion", "articulation": "Percussive", "dynamic_range": "Intense"}, {"name": "Snare", "register": "Mid", "role": "Percussion", "articulation": "Percussive", "dynamic_range": "Intense"}, {"name": "Hat", "register": "High", "role": "Percussion", "articulation": "Staccato", "dynamic_range": "Moderate"}, {"name": "Bass Guitar", "register": "Low", "role": "Bass", "articulation": "Legato", "dynamic_range": "Moderate"}, {"name": "Piano", "register": "Mid", "role": "Accompaniment", "articulation": "Staccato", "dynamic_range": "Moderate"}, {"name": "Strings", "register": "High", "role": "Pad", "articulation": "Sustain", "dynamic_range": "Delicate"}, {"name": "Sax", "register": "Mid-High", "role": "Lead", "articulation": "Legato", "dynamic_range": "Moderate"}], "instruments": ["Kick", "Snare", "Hat", "Bass Guitar", "Piano", "Strings", "Sax"], "instrument": "Kick"}, "layers": {"Kick": [{"bar": 1, "events": [{"step": 0, "note": 36, "vel": 120, "len": 1}, {"step": 4, "note": 36, "vel": 110, "len": 1}, {"step": 5, "note": 36, "vel": 105, "len": 1}]}, {"bar": 2, "events": [{"step": 0, "note": 36, "vel": 120, "len": 1}, {"step": 3, "note": 36, "vel": 90, "len": 1}, {"step": 5, "note": 36, "vel": 115, "len": 1}]}, {"bar": 3, "events": [{"step": 0, "note": 36, "vel": 120, "len": 1}, {"step": 4, "note": 36, "vel": 110, "len": 1}, {"step": 5, "note": 36, "vel": 105, "len": 1}]}, {"bar": 4, "events": [{"step": 0, "note": 36, "vel": 120, "len": 1}, {"step": 4, "note": 36, "vel": 110, "len": 1}, {"step": 7, "note": 36, "vel": 100, "len": 1}]}, {"bar": 5, "events": [{"step": 0, "note": 36, "vel": 120, "len": 1}, {"step": 4, "note": 36, "vel": 110, "len": 1}, {"step": 5, "note": 36, "vel": 105, "len": 1}]}, {"bar": 6, "events": [{"step": 0, "note": 36, "vel": 120, "len": 1}, {"step": 3, "note": 36, "vel": 90, "len": 1}, {"step": 5, "note": 36, "vel": 115, "len": 1}]}, {"bar": 7, "events": [{"step": 0, "note": 36, "vel": 120, "len": 1}, {"step": 4, "note": 36, "vel": 110, "len": 1}, {"step": 5, "note": 36, "vel": 105, "len": 1}]}, {"bar": 8, "events": [{"step": 0, "note": 36, "vel": 120, "len": 1}, {"step": 4, "note": 36, "vel": 110, "len": 1}, {"step": 6, "note": 36, "vel": 100, "len": 1}, {"step": 7, "note": 36, "vel": 100, "len": 1}]}, {"bar": 9, "events": [{"step": 0, "note": 36, "vel": 120, "len": 1}, {"step": 4, "note": 36, "vel": 110, "len": 1}, {"step": 5, "note": 36, "vel": 105, "len": 1}]}, {"bar": 10, "events": [{"step": 0, "note": 36, "vel": 120, "len": 1}, {"step": 3, "note": 36, "vel": 90, "len": 1}, {"step": 5, "note": 36, "vel": 115, "len": 1}]}, {"bar": 11, "events": [{"step": 0, "note": 36, "vel": 120, "len": 1}, {"step": 4, "note": 36, "vel": 110, "len": 1}, {"step": 5, "note": 36, "vel": 105, "len": 1}]}, {"bar": 12, "events": [{"step": 0, "note": 36, "vel": 120, "len": 1}, {"step": 4, "note": 36, "vel": 110, "len": 1}, {"step": 7, "note": 36, "vel": 100, "len": 1}]}, {"bar": 13, "events": [{"step": 0, "note": 36, "vel": 120, "len": 1}, {"step": 4, "note": 36, "vel": 110, "len": 1}, {"step": 5, "note": 36, "vel": 105, "len": 1}]}, {"bar": 14, "events": [{"step": 0, "note": 36, "vel": 120, "len": 1}, {"step": 3, "note": 36, "vel": 90, "len": 1}, {"step": 5, "note": 36, "vel": 115, "len": 1}]}, {"bar": 15, "events": [{"step": 0, "note": 36, "vel": 120, "len": 1}, {"step": 4, "note": 36, "vel": 110, "len": 1}, {"step": 5, "note": 36, "vel": 105, "len": 1}]}, {"bar": 16, "events": [{"step": 0, "note": 36, "vel": 120, "len": 1}, {"step": 2, "note": 36, "vel": 100, "len": 1}, {"step": 4, "note": 36, "vel": 110, "len": 1}]}]}, "pattern": [{"bar": 1, "events": [{"step": 0, "note": 36, "vel": 120, "len": 1}, {"step": 4, "note": 36, "vel": 110, "len": 1}, {"step": 5, "note": 36, "vel": 105, "len": 1}]}, {"bar": 2, "events": [{"step": 0, "note": 36, "vel": 120, "len": 1}, {"step": 3, "note": 36, "vel": 90, "len": 1}, {"step": 5, "note": 36, "vel": 115, "len": 1}]}, {"bar": 3, "events": [{"step": 0, "note": 36, "vel": 120, "len": 1}, {"step": 4, "note": 36, "vel": 110, "len": 1}, {"step": 5, "note": 36, "vel": 105, "len": 1}]}, {"bar": 4, "events": [{"step": 0, "note": 36, "vel": 120, "len": 1}, {"step": 4, "note": 36, "vel": 110, "len": 1}, {"step": 7, "note": 36, "vel": 100, "len": 1}]}, {"bar": 5, "events": [{"step": 0, "note": 36, "vel": 120, "len": 1}, {"step": 4, "note": 36, "vel": 110, "len": 1}, {"step": 5, "note": 36, "vel": 105, "len": 1}]}, {"bar": 6, "events": [{"step": 0, "note": 36, "vel": 120, "len": 1}, {"step": 3, "note": 36, "vel": 90, "len": 1}, {"step": 5, "note": 36, "vel": 115, "len": 1}]}, {"bar": 7, "events": [{"step": 0, "note": 36, "vel": 120, "len": 1}, {"step": 4, "note": 36, "vel": 110, "len": 1}, {"step": 5, "note": 36, "vel": 105, "len": 1}]}, {"bar": 8, "events": [{"step": 0, "note": 36, "vel": 120, "len": 1}, {"step": 4, "note": 36, "vel": 110, "len": 1}, {"step": 6, "note": 36, "vel": 100, "len": 1}, {"step": 7, "note": 36, "vel": 100, "len": 1}]}, {"bar": 9, "events": [{"step": 0, "note": 36, "vel": 120, "len": 1}, {"step": 4, "note": 36, "vel": 110, "len": 1}, {"step": 5, "note": 36, "vel": 105, "len": 1}]}, {"bar": 10, "events": [{"step": 0, "note": 36, "vel": 120, "len": 1}, {"step": 3, "note": 36, "vel": 90, "len": 1}, {"step": 5, "note": 36, "vel": 115, "len": 1}]}, {"bar": 11, "events": [{"step": 0, "note": 36, "vel": 120, "len": 1}, {"step": 4, "note": 36, "vel": 110, "len": 1}, {"step": 5, "note": 36, "vel": 105, "len": 1}]}, {"bar": 12, "events": [{"step": 0, "note": 36, "vel": 120, "len": 1}, {"step": 4, "note": 36, "vel": 110, "len": 1}, {"step": 7, "note": 36, "vel": 100, "len": 1}]}, {"bar": 13, "events": [{"step": 0, "note": 36, "vel": 120, "len": 1}, {"step": 4, "note": 36, "vel": 110, "len": 1}, {"step": 5, "note": 36, "vel": 105, "len": 1}]}, {"bar": 14, "events": [{"step": 0, "note": 36, "vel": 120, "len": 1}, {"step": 3, "note": 36, "vel": 90, "len": 1}, {"step": 5, "note": 36, "vel": 115, "len": 1}]}, {"bar": 15, "events": [{"step": 0, "note": 36, "vel": 120, "len": 1}, {"step": 4, "note": 36, "vel": 110, "len": 1}, {"step": 5, "note": 36, "vel": 105, "len": 1}]}, {"bar": 16, "events": [{"step": 0, "note": 36, "vel": 120, "len": 1}, {"step": 2, "note": 36, "vel": 100, "len": 1}, {"step": 4, "note": 36, "vel": 110, "len": 1}]}]}, "Snare": {"meta": {"style": "Old School Hip Hop", "mood": "Gritty, Groovy, Nostalgic", "tempo": 90, "key": "C Minor", "meter": "4/4", "bars": 16, "time_signature": "4/4", "scale": "Minor", "dynamic_profile": "Steady Groove", "arrangement_density": "Medium", "harmonic_color": "Soulful", "length_seconds": 42.6, "instrument_configs": [{"name": "Kick", "register": "Low", "role": "Percussion", "articulation": "Percussive", "dynamic_range": "Intense"}, {"name": "Snare", "register": "Mid", "role": "Percussion", "articulation": "Percussive", "dynamic_range": "Intense"}, {"name": "Hat", "register": "High", "role": "Percussion", "articulation": "Staccato", "dynamic_range": "Moderate"}, {"name": "Bass Guitar", "register": "Low", "role": "Bass", "articulation": "Legato", "dynamic_range": "Moderate"}, {"name": "Piano", "register": "Mid", "role": "Accompaniment", "articulation": "Staccato", "dynamic_range": "Moderate"}, {"name": "Strings", "register": "High", "role": "Pad", "articulation": "Sustain", "dynamic_range": "Delicate"}, {"name": "Sax", "register": "Mid-High", "role": "Lead", "articulation": "Legato", "dynamic_range": "Moderate"}], "instruments": ["Kick", "Snare", "Hat", "Bass Guitar", "Piano", "Strings", "Sax"], "instrument": "Snare"}, "layers": {"Snare": [{"bar": 1, "events": [{"step": 2, "note": 38, "vel": 125, "len": 1}, {"step": 6, "note": 38, "vel": 125, "len": 1}]}, {"bar": 2, "events": [{"step": 2, "note": 38, "vel": 125, "len": 1}, {"step": 6, "note": 38, "vel": 125, "len": 1}]}, {"bar": 3, "events": [{"step": 2, "note": 38, "vel": 125, "len": 1}, {"step": 6, "note": 38, "vel": 125, "len": 1}]}, {"bar": 4, "events": [{"step": 2, "note": 38, "vel": 125, "len": 1}, {"step": 6, "note": 38, "vel": 125, "len": 1}, {"step": 7, "note": 38, "vel": 80, "len": 1}]}, {"bar": 5, "events": [{"step": 2, "note": 38, "vel": 125, "len": 1}, {"step": 6, "note": 38, "vel": 125, "len": 1}]}, {"bar": 6, "events": [{"step": 2, "note": 38, "vel": 125, "len": 1}, {"step": 6, "note": 38, "vel": 125, "len": 1}]}, {"bar": 7, "events": [{"step": 2, "note": 38, "vel": 125, "len": 1}, {"step": 6, "note": 38, "vel": 125, "len": 1}]}, {"bar": 8, "events": [{"step": 2, "note": 38, "vel": 125, "len": 1}, {"step": 4, "note": 38, "vel": 90, "len": 1}, {"step": 6, "note": 38, "vel": 125, "len": 1}]}, {"bar": 9, "events": [{"step": 2, "note": 38, "vel": 125, "len": 1}, {"step": 6, "note": 38, "vel": 125, "len": 1}]}, {"bar": 10, "events": [{"step": 2, "note": 38, "vel": 125, "len": 1}, {"step": 6, "note": 38, "vel": 125, "len": 1}]}, {"bar": 11, "events": [{"step": 2, "note": 38, "vel": 125, "len": 1}, {"step": 6, "note": 38, "vel": 125, "len": 1}]}, {"bar": 12, "events": [{"step": 2, "note": 38, "vel": 125, "len": 1}, {"step": 6, "note": 38, "vel": 125, "len": 1}, {"step": 7, "note": 38, "vel": 90, "len": 1}]}, {"bar": 13, "events": [{"step": 2, "note": 38, "vel": 125, "len": 1}, {"step": 6, "note": 38, "vel": 125, "len": 1}]}, {"bar": 14, "events": [{"step": 2, "note": 38, "vel": 125, "len": 1}, {"step": 6, "note": 38, "vel": 125, "len": 1}]}, {"bar": 15, "events": [{"step": 2, "note": 38, "vel": 125, "len": 1}, {"step": 6, "note": 38, "vel": 125, "len": 1}]}, {"bar": 16, "events": [{"step": 2, "note": 38, "vel": 125, "len": 1}, {"step": 6, "note": 38, "vel": 125, "len": 1}, {"step": 7, "note": 38, "vel": 110, "len": 1}]}]}, "pattern": [{"bar": 1, "events": [{"step": 2, "note": 38, "vel": 125, "len": 1}, {"step": 6, "note": 38, "vel": 125, "len": 1}]}, {"bar": 2, "events": [{"step": 2, "note": 38, "vel": 125, "len": 1}, {"step": 6, "note": 38, "vel": 125, "len": 1}]}, {"bar": 3, "events": [{"step": 2, "note": 38, "vel": 125, "len": 1}, {"step": 6, "note": 38, "vel": 125, "len": 1}]}, {"bar": 4, "events": [{"step": 2, "note": 38, "vel": 125, "len": 1}, {"step": 6, "note": 38, "vel": 125, "len": 1}, {"step": 7, "note": 38, "vel": 80, "len": 1}]}, {"bar": 5, "events": [{"step": 2, "note": 38, "vel": 125, "len": 1}, {"step": 6, "note": 38, "vel": 125, "len": 1}]}, {"bar": 6, "events": [{"step": 2, "note": 38, "vel": 125, "len": 1}, {"step": 6, "note": 38, "vel": 125, "len": 1}]}, {"bar": 7, "events": [{"step": 2, "note": 38, "vel": 125, "len": 1}, {"step": 6, "note": 38, "vel": 125, "len": 1}]}, {"bar": 8, "events": [{"step": 2, "note": 38, "vel": 125, "len": 1}, {"step": 4, "note": 38, "vel": 90, "len": 1}, {"step": 6, "note": 38, "vel": 125, "len": 1}]}, {"bar": 9, "events": [{"step": 2, "note": 38, "vel": 125, "len": 1}, {"step": 6, "note": 38, "vel": 125, "len": 1}]}, {"bar": 10, "events": [{"step": 2, "note": 38, "vel": 125, "len": 1}, {"step": 6, "note": 38, "vel": 125, "len": 1}]}, {"bar": 11, "events": [{"step": 2, "note": 38, "vel": 125, "len": 1}, {"step": 6, "note": 38, "vel": 125, "len": 1}]}, {"bar": 12, "events": [{"step": 2, "note": 38, "vel": 125, "len": 1}, {"step": 6, "note": 38, "vel": 125, "len": 1}, {"step": 7, "note": 38, "vel": 90, "len": 1}]}, {"bar": 13, "events": [{"step": 2, "note": 38, "vel": 125, "len": 1}, {"step": 6, "note": 38, "vel": 125, "len": 1}]}, {"bar": 14, "events": [{"step": 2, "note": 38, "vel": 125, "len": 1}, {"step": 6, "note": 38, "vel": 125, "len": 1}]}, {"bar": 15, "events": [{"step": 2, "note": 38, "vel": 125, "len": 1}, {"step": 6, "note": 38, "vel": 125, "len": 1}]}, {"bar": 16, "events": [{"step": 2, "note": 38, "vel": 125, "len": 1}, {"step": 6, "note": 38, "vel": 125, "len": 1}, {"step": 7, "note": 38, "vel": 110, "len": 1}]}]}, "Hat": {"meta": {"style": "Old School Hip Hop", "mood": "Gritty, Groovy, Nostalgic", "tempo": 90, "key": "C Minor", "meter": "4/4", "bars": 16, "time_signature": "4/4", "scale": "Minor", "dynamic_profile": "Steady Groove", "arrangement_density": "Medium", "harmonic_color": "Soulful", "length_seconds": 42.6, "instrument_configs": [{"name": "Kick", "register": "Low", "role": "Percussion", "articulation": "Percussive", "dynamic_range": "Intense"}, {"name": "Snare", "register": "Mid", "role": "Percussion", "articulation": "Percussive", "dynamic_range": "Intense"}, {"name": "Hat", "register": "High", "role": "Percussion", "articulation": "Staccato", "dynamic_range": "Moderate"}, {"name": "Bass Guitar", "register": "Low", "role": "Bass", "articulation": "Legato", "dynamic_range": "Moderate"}, {"name": "Piano", "register": "Mid", "role": "Accompaniment", "articulation": "Staccato", "dynamic_range": "Moderate"}, {"name": "Strings", "register": "High", "role": "Pad", "articulation": "Sustain", "dynamic_range": "Delicate"}, {"name": "Sax", "register": "Mid-High", "role": "Lead", "articulation": "Legato", "dynamic_range": "Moderate"}], "instruments": ["Kick", "Snare", "Hat", "Bass Guitar", "Piano", "Strings", "Sax"], "instrument": "Hat"}, "layers": {"Hat": [{"bar": 1, "events": [{"step": 0, "note": 42, "vel": 100, "len": 1}, {"step": 1, "note": 42, "vel": 80, "len": 1}, {"step": 2, "note": 42, "vel": 100, "len": 1}, {"step": 3, "note": 42, "vel": 80, "len": 1}, {"step": 4, "note": 42, "vel": 100, "len": 1}, {"step": 5, "note": 42, "vel": 80, "len": 1}, {"step": 6, "note": 42, "vel": 100, "len": 1}, {"step": 7, "note": 42, "vel": 80, "len": 1}]}, {"bar": 2, "events": [{"step": 0, "note": 42, "vel": 100, "len": 1}, {"step": 1, "note": 42, "vel": 80, "len": 1}, {"step": 2, "note": 42, "vel": 100, "len": 1}, {"step": 3, "note": 42, "vel": 80, "len": 1}, {"step": 4, "note": 42, "vel": 100, "len": 1}, {"step": 5, "note": 42, "vel": 80, "len": 1}, {"step": 6, "note": 42, "vel": 100, "len": 1}, {"step": 7, "note": 42, "vel": 80, "len": 1}]}, {"bar": 3, "events": [{"step": 0, "note": 42, "vel": 100, "len": 1}, {"step": 1, "note": 42, "vel": 80, "len": 1}, {"step": 2, "note": 42, "vel": 100, "len": 1}, {"step": 3, "note": 42, "vel": 80, "len": 1}, {"step": 4, "note": 42, "vel": 100, "len": 1}, {"step": 5, "note": 42, "vel": 80, "len": 1}, {"step": 6, "note": 42, "vel": 100, "len": 1}, {"step": 7, "note": 42, "vel": 80, "len": 1}]}, {"bar": 4, "events": [{"step": 0, "note": 42, "vel": 100, "len": 1}, {"step": 1, "note": 42, "vel": 80, "len": 1}, {"step": 2, "note": 42, "vel": 100, "len": 1}, {"step": 3, "note": 42, "vel": 80, "len": 1}, {"step": 4, "note": 42, "vel": 100, "len": 1}, {"step": 5, "note": 42, "vel": 80, "len": 1}, {"step": 6, "note": 42, "vel": 100, "len": 1}, {"step": 7, "note": 46, "vel": 90, "len": 1}]}, {"bar": 5, "events": [{"step": 0, "note": 42, "vel": 100, "len": 1}, {"step": 1, "note": 42, "vel": 80, "len": 1}, {"step": 2, "note": 42, "vel": 100, "len": 1}, {"step": 3, "note": 42, "vel": 80, "len": 1}, {"step": 4, "note": 42, "vel": 100, "len": 1}, {"step": 5, "note": 42, "vel": 80, "len": 1}, {"step": 6, "note": 42, "vel": 100, "len": 1}, {"step": 7, "note": 42, "vel": 80, "len": 1}]}, {"bar": 6, "events": [{"step": 0, "note": 42, "vel": 100, "len": 1}, {"step": 1, "note": 42, "vel": 80, "len": 1}, {"step": 2, "note": 42, "vel": 100, "len": 1}, {"step": 3, "note": 42, "vel": 80, "len": 1}, {"step": 4, "note": 42, "vel": 100, "len": 1}, {"step": 5, "note": 42, "vel": 80, "len": 1}, {"step": 6, "note": 42, "vel": 100, "len": 1}, {"step": 7, "note": 42, "vel": 80, "len": 1}]}, {"bar": 7, "events": [{"step": 0, "note": 42, "vel": 100, "len": 1}, {"step": 1, "note": 42, "vel": 80, "len": 1}, {"step": 2, "note": 42, "vel": 100, "len": 1}, {"step": 3, "note": 42, "vel": 80, "len": 1}, {"step": 4, "note": 42, "vel": 100, "len": 1}, {"step": 5, "note": 42, "vel": 80, "len": 1}, {"step": 6, "note": 42, "vel": 100, "len": 1}, {"step": 7, "note": 42, "vel": 80, "len": 1}]}, {"bar": 8, "events": [{"step": 0, "note": 42, "vel": 100, "len": 1}, {"step": 1, "note": 42, "vel": 80, "len": 1}, {"step": 2, "note": 42, "vel": 100, "len": 1}, {"step": 3, "note": 42, "vel": 80, "len": 1}, {"step": 4, "note": 42, "vel": 100, "len": 1}, {"step": 5, "note": 42, "vel": 80, "len": 1}, {"step": 6, "note": 42, "vel": 100, "len": 1}, {"step": 7, "note": 46, "vel": 95, "len": 1}]}, {"bar": 9, "events": [{"step": 0, "note": 42, "vel": 100, "len": 1}, {"step": 1, "note": 42, "vel": 80, "len": 1}, {"step": 2, "note": 42, "vel": 100, "len": 1}, {"step": 3, "note": 42, "vel": 80, "len": 1}, {"step": 4, "note": 42, "vel": 100, "len": 1}, {"step": 5, "note": 42, "vel": 80, "len": 1}, {"step": 6, "note": 42, "vel": 100, "len": 1}, {"step": 7, "note": 42, "vel": 80, "len": 1}]}, {"bar": 10, "events": [{"step": 0, "note": 42, "vel": 100, "len": 1}, {"step": 1, "note": 42, "vel": 80, "len": 1}, {"step": 2, "note": 42, "vel": 100, "len": 1}, {"step": 3, "note": 42, "vel": 80, "len": 1}, {"step": 4, "note": 42, "vel": 100, "len": 1}, {"step": 5, "note": 42, "vel": 80, "len": 1}, {"step": 6, "note": 42, "vel": 100, "len": 1}, {"step": 7, "note": 42, "vel": 80, "len": 1}]}, {"bar": 11, "events": [{"step": 0, "note": 42, "vel": 100, "len": 1}, {"step": 1, "note": 42, "vel": 80, "len": 1}, {"step": 2, "note": 42, "vel": 100, "len": 1}, {"step": 3, "note": 42, "vel": 80, "len": 1}, {"step": 4, "note": 42, "vel": 100, "len": 1}, {"step": 5, "note": 42, "vel": 80, "len": 1}, {"step": 6, "note": 42, "vel": 100, "len": 1}, {"step": 7, "note": 42, "vel": 80, "len": 1}]}, {"bar": 12, "events": [{"step": 0, "note": 42, "vel": 100, "len": 1}, {"step": 1, "note": 42, "vel": 80, "len": 1}, {"step": 2, "note": 42, "vel": 100, "len": 1}, {"step": 3, "note": 42, "vel": 80, "len": 1}, {"step": 4, "note": 42, "vel": 100, "len": 1}, {"step": 5, "note": 42, "vel": 80, "len": 1}, {"step": 6, "note": 42, "vel": 100, "len": 1}, {"step": 7, "note": 46, "vel": 90, "len": 1}]}, {"bar": 13, "events": [{"step": 0, "note": 42, "vel": 100, "len": 1}, {"step": 1, "note": 42, "vel": 80, "len": 1}, {"step": 2, "note": 42, "vel": 100, "len": 1}, {"step": 3, "note": 42, "vel": 80, "len": 1}, {"step": 4, "note": 42, "vel": 100, "len": 1}, {"step": 5, "note": 42, "vel": 80, "len": 1}, {"step": 6, "note": 42, "vel": 100, "len": 1}, {"step": 7, "note": 42, "vel": 80, "len": 1}]}, {"bar": 14, "events": [{"step": 0, "note": 42, "vel": 100, "len": 1}, {"step": 1, "note": 42, "vel": 80, "len": 1}, {"step": 2, "note": 42, "vel": 100, "len": 1}, {"step": 3, "note": 42, "vel": 80, "len": 1}, {"step": 4, "note": 42, "vel": 100, "len": 1}, {"step": 5, "note": 42, "vel": 80, "len": 1}, {"step": 6, "note": 42, "vel": 100, "len": 1}, {"step": 7, "note": 42, "vel": 80, "len": 1}]}, {"bar": 15, "events": [{"step": 0, "note": 42, "vel": 100, "len": 1}, {"step": 1, "note": 42, "vel": 80, "len": 1}, {"step": 2, "note": 42, "vel": 100, "len": 1}, {"step": 3, "note": 42, "vel": 80, "len": 1}, {"step": 4, "note": 42, "vel": 100, "len": 1}, {"step": 5, "note": 42, "vel": 80, "len": 1}, {"step": 6, "note": 42, "vel": 100, "len": 1}, {"step": 7, "note": 42, "vel": 80, "len": 1}]}, {"bar": 16, "events": [{"step": 0, "note": 42, "vel": 100, "len": 1}, {"step": 1, "note": 42, "vel": 80, "len": 1}, {"step": 2, "note": 42, "vel": 100, "len": 1}, {"step": 3, "note": 42, "vel": 80, "len": 1}, {"step": 4, "note": 42, "vel": 100, "len": 1}, {"step": 5, "note": 42, "vel": 80, "len": 1}, {"step": 6, "note": 42, "vel": 100, "len": 1}, {"step": 7, "note": 46, "vel": 110, "len": 1}]}]}, "pattern": [{"bar": 1, "events": [{"step": 0, "note": 42, "vel": 100, "len": 1}, {"step": 1, "note": 42, "vel": 80, "len": 1}, {"step": 2, "note": 42, "vel": 100, "len": 1}, {"step": 3, "note": 42, "vel": 80, "len": 1}, {"step": 4, "note": 42, "vel": 100, "len": 1}, {"step": 5, "note": 42, "vel": 80, "len": 1}, {"step": 6, "note": 42, "vel": 100, "len": 1}, {"step": 7, "note": 42, "vel": 80, "len": 1}]}, {"bar": 2, "events": [{"step": 0, "note": 42, "vel": 100, "len": 1}, {"step": 1, "note": 42, "vel": 80, "len": 1}, {"step": 2, "note": 42, "vel": 100, "len": 1}, {"step": 3, "note": 42, "vel": 80, "len": 1}, {"step": 4, "note": 42, "vel": 100, "len": 1}, {"step": 5, "note": 42, "vel": 80, "len": 1}, {"step": 6, "note": 42, "vel": 100, "len": 1}, {"step": 7, "note": 42, "vel": 80, "len": 1}]}, {"bar": 3, "events": [{"step": 0, "note": 42, "vel": 100, "len": 1}, {"step": 1, "note": 42, "vel": 80, "len": 1}, {"step": 2, "note": 42, "vel": 100, "len": 1}, {"step": 3, "note": 42, "vel": 80, "len": 1}, {"step": 4, "note": 42, "vel": 100, "len": 1}, {"step": 5, "note": 42, "vel": 80, "len": 1}, {"step": 6, "note": 42, "vel": 100, "len": 1}, {"step": 7, "note": 42, "vel": 80, "len": 1}]}, {"bar": 4, "events": [{"step": 0, "note": 42, "vel": 100, "len": 1}, {"step": 1, "note": 42, "vel": 80, "len": 1}, {"step": 2, "note": 42, "vel": 100, "len": 1}, {"step": 3, "note": 42, "vel": 80, "len": 1}, {"step": 4, "note": 42, "vel": 100, "len": 1}, {"step": 5, "note": 42, "vel": 80, "len": 1}, {"step": 6, "note": 42, "vel": 100, "len": 1}, {"step": 7, "note": 46, "vel": 90, "len": 1}]}, {"bar": 5, "events": [{"step": 0, "note": 42, "vel": 100, "len": 1}, {"step": 1, "note": 42, "vel": 80, "len": 1}, {"step": 2, "note": 42, "vel": 100, "len": 1}, {"step": 3, "note": 42, "vel": 80, "len": 1}, {"step": 4, "note": 42, "vel": 100, "len": 1}, {"step": 5, "note": 42, "vel": 80, "len": 1}, {"step": 6, "note": 42, "vel": 100, "len": 1}, {"step": 7, "note": 42, "vel": 80, "len": 1}]}, {"bar": 6, "events": [{"step": 0, "note": 42, "vel": 100, "len": 1}, {"step": 1, "note": 42, "vel": 80, "len": 1}, {"step": 2, "note": 42, "vel": 100, "len": 1}, {"step": 3, "note": 42, "vel": 80, "len": 1}, {"step": 4, "note": 42, "vel": 100, "len": 1}, {"step": 5, "note": 42, "vel": 80, "len": 1}, {"step": 6, "note": 42, "vel": 100, "len": 1}, {"step": 7, "note": 42, "vel": 80, "len": 1}]}, {"bar": 7, "events": [{"step": 0, "note": 42, "vel": 100, "len": 1}, {"step": 1, "note": 42, "vel": 80, "len": 1}, {"step": 2, "note": 42, "vel": 100, "len": 1}, {"step": 3, "note": 42, "vel": 80, "len": 1}, {"step": 4, "note": 42, "vel": 100, "len": 1}, {"step": 5, "note": 42, "vel": 80, "len": 1}, {"step": 6, "note": 42, "vel": 100, "len": 1}, {"step": 7, "note": 42, "vel": 80, "len": 1}]}, {"bar": 8, "events": [{"step": 0, "note": 42, "vel": 100, "len": 1}, {"step": 1, "note": 42, "vel": 80, "len": 1}, {"step": 2, "note": 42, "vel": 100, "len": 1}, {"step": 3, "note": 42, "vel": 80, "len": 1}, {"step": 4, "note": 42, "vel": 100, "len": 1}, {"step": 5, "note": 42, "vel": 80, "len": 1}, {"step": 6, "note": 42, "vel": 100, "len": 1}, {"step": 7, "note": 46, "vel": 95, "len": 1}]}, {"bar": 9, "events": [{"step": 0, "note": 42, "vel": 100, "len": 1}, {"step": 1, "note": 42, "vel": 80, "len": 1}, {"step": 2, "note": 42, "vel": 100, "len": 1}, {"step": 3, "note": 42, "vel": 80, "len": 1}, {"step": 4, "note": 42, "vel": 100, "len": 1}, {"step": 5, "note": 42, "vel": 80, "len": 1}, {"step": 6, "note": 42, "vel": 100, "len": 1}, {"step": 7, "note": 42, "vel": 80, "len": 1}]}, {"bar": 10, "events": [{"step": 0, "note": 42, "vel": 100, "len": 1}, {"step": 1, "note": 42, "vel": 80, "len": 1}, {"step": 2, "note": 42, "vel": 100, "len": 1}, {"step": 3, "note": 42, "vel": 80, "len": 1}, {"step": 4, "note": 42, "vel": 100, "len": 1}, {"step": 5, "note": 42, "vel": 80, "len": 1}, {"step": 6, "note": 42, "vel": 100, "len": 1}, {"step": 7, "note": 42, "vel": 80, "len": 1}]}, {"bar": 11, "events": [{"step": 0, "note": 42, "vel": 100, "len": 1}, {"step": 1, "note": 42, "vel": 80, "len": 1}, {"step": 2, "note": 42, "vel": 100, "len": 1}, {"step": 3, "note": 42, "vel": 80, "len": 1}, {"step": 4, "note": 42, "vel": 100, "len": 1}, {"step": 5, "note": 42, "vel": 80, "len": 1}, {"step": 6, "note": 42, "vel": 100, "len": 1}, {"step": 7, "note": 42, "vel": 80, "len": 1}]}, {"bar": 12, "events": [{"step": 0, "note": 42, "vel": 100, "len": 1}, {"step": 1, "note": 42, "vel": 80, "len": 1}, {"step": 2, "note": 42, "vel": 100, "len": 1}, {"step": 3, "note": 42, "vel": 80, "len": 1}, {"step": 4, "note": 42, "vel": 100, "len": 1}, {"step": 5, "note": 42, "vel": 80, "len": 1}, {"step": 6, "note": 42, "vel": 100, "len": 1}, {"step": 7, "note": 46, "vel": 90, "len": 1}]}, {"bar": 13, "events": [{"step": 0, "note": 42, "vel": 100, "len": 1}, {"step": 1, "note": 42, "vel": 80, "len": 1}, {"step": 2, "note": 42, "vel": 100, "len": 1}, {"step": 3, "note": 42, "vel": 80, "len": 1}, {"step": 4, "note": 42, "vel": 100, "len": 1}, {"step": 5, "note": 42, "vel": 80, "len": 1}, {"step": 6, "note": 42, "vel": 100, "len": 1}, {"step": 7, "note": 42, "vel": 80, "len": 1}]}, {"bar": 14, "events": [{"step": 0, "note": 42, "vel": 100, "len": 1}, {"step": 1, "note": 42, "vel": 80, "len": 1}, {"step": 2, "note": 42, "vel": 100, "len": 1}, {"step": 3, "note": 42, "vel": 80, "len": 1}, {"step": 4, "note": 42, "vel": 100, "len": 1}, {"step": 5, "note": 42, "vel": 80, "len": 1}, {"step": 6, "note": 42, "vel": 100, "len": 1}, {"step": 7, "note": 42, "vel": 80, "len": 1}]}, {"bar": 15, "events": [{"step": 0, "note": 42, "vel": 100, "len": 1}, {"step": 1, "note": 42, "vel": 80, "len": 1}, {"step": 2, "note": 42, "vel": 100, "len": 1}, {"step": 3, "note": 42, "vel": 80, "len": 1}, {"step": 4, "note": 42, "vel": 100, "len": 1}, {"step": 5, "note": 42, "vel": 80, "len": 1}, {"step": 6, "note": 42, "vel": 100, "len": 1}, {"step": 7, "note": 42, "vel": 80, "len": 1}]}, {"bar": 16, "events": [{"step": 0, "note": 42, "vel": 100, "len": 1}, {"step": 1, "note": 42, "vel": 80, "len": 1}, {"step": 2, "note": 42, "vel": 100, "len": 1}, {"step": 3, "note": 42, "vel": 80, "len": 1}, {"step": 4, "note": 42, "vel": 100, "len": 1}, {"step": 5, "note": 42, "vel": 80, "len": 1}, {"step": 6, "note": 42, "vel": 100, "len": 1}, {"step": 7, "note": 46, "vel": 110, "len": 1}]}]}, "Bass Guitar": {"meta": {"style": "Old School Hip Hop", "mood": "Gritty, Groovy, Nostalgic", "tempo": 90, "key": "C Minor", "meter": "4/4", "bars": 16, "time_signature": "4/4", "scale": "Minor", "dynamic_profile": "Steady Groove", "arrangement_density": "Medium", "harmonic_color": "Soulful", "length_seconds": 42.6, "instrument_configs": [{"name": "Kick", "register": "Low", "role": "Percussion", "articulation": "Percussive", "dynamic_range": "Intense"}, {"name": "Snare", "register": "Mid", "role": "Percussion", "articulation": "Percussive", "dynamic_range": "Intense"}, {"name": "Hat", "register": "High", "role": "Percussion", "articulation": "Staccato", "dynamic_range": "Moderate"}, {"name": "Bass Guitar", "register": "Low", "role": "Bass", "articulation": "Legato", "dynamic_range": "Moderate"}, {"name": "Piano", "register": "Mid", "role": "Accompaniment", "articulation": "Staccato", "dynamic_range": "Moderate"}, {"name": "Strings", "register": "High", "role": "Pad", "articulation": "Sustain", "dynamic_range": "Delicate"}, {"name": "Sax", "register": "Mid-High", "role": "Lead", "articulation": "Legato", "dynamic_range": "Moderate"}], "instruments": ["Kick", "Snare", "Hat", "Bass Guitar", "Piano", "Strings", "Sax"], "instrument": "Bass Guitar"}, "layers": {"Bass Guitar": [{"bar": 5, "events": [{"step": 0, "note": 36, "vel": 110, "len": 3}, {"step": 3, "note": 39, "vel": 105, "len": 1}, {"step": 4, "note": 41, "vel": 110, "len": 3}, {"step": 7, "note": 43, "vel": 105, "len": 1}]}, {"bar": 6, "events": [{"step": 0, "note": 36, "vel": 110, "len": 2}, {"step": 2, "note": 34, "vel": 100, "len": 2}, {"step": 4, "note": 43, "vel": 105, "len": 2}, {"step": 6, "note": 41, "vel": 100, "len": 2}]}, {"bar": 7, "events": [{"step": 0, "note": 36, "vel": 110, "len": 3}, {"step": 3, "note": 39, "vel": 105, "len": 1}, {"step": 4, "note": 41, "vel": 110, "len": 3}, {"step": 7, "note": 43, "vel": 105, "len": 1}]}, {"bar": 8, "events": [{"step": 0, "note": 36, "vel": 110, "len": 2}, {"step": 2, "note": 39, "vel": 100, "len": 2}, {"step": 4, "note": 36, "vel": 110, "len": 1}, {"step": 5, "note": 34, "vel": 100, "len": 1}, {"step": 6, "note": 36, "vel": 110, "len": 2}]}, {"bar": 9, "events": [{"step": 0, "note": 36, "vel": 110, "len": 3}, {"step": 3, "note": 39, "vel": 105, "len": 1}, {"step": 4, "note": 41, "vel": 110, "len": 3}, {"step": 7, "note": 43, "vel": 105, "len": 1}]}, {"bar": 10, "events": [{"step": 0, "note": 36, "vel": 110, "len": 2}, {"step": 2, "note": 34, "vel": 100, "len": 2}, {"step": 4, "note": 43, "vel": 105, "len": 2}, {"step": 6, "note": 41, "vel": 100, "len": 2}]}, {"bar": 11, "events": [{"step": 0, "note": 36, "vel": 110, "len": 3}, {"step": 3, "note": 39, "vel": 105, "len": 1}, {"step": 4, "note": 41, "vel": 110, "len": 3}, {"step": 7, "note": 43, "vel": 105, "len": 1}]}, {"bar": 12, "events": [{"step": 0, "note": 36, "vel": 110, "len": 2}, {"step": 2, "note": 39, "vel": 100, "len": 2}, {"step": 4, "note": 36, "vel": 110, "len": 1}, {"step": 5, "note": 34, "vel": 100, "len": 1}, {"step": 6, "note": 36, "vel": 110, "len": 2}]}, {"bar": 13, "events": [{"step": 0, "note": 36, "vel": 110, "len": 3}, {"step": 3, "note": 39, "vel": 105, "len": 1}, {"step": 4, "note": 41, "vel": 110, "len": 3}, {"step": 7, "note": 43, "vel": 105, "len": 1}]}, {"bar": 14, "events": [{"step": 0, "note": 36, "vel": 110, "len": 2}, {"step": 2, "note": 34, "vel": 100, "len": 2}, {"step": 4, "note": 43, "vel": 105, "len": 2}, {"step": 6, "note": 41, "vel": 100, "len": 2}]}, {"bar": 15, "events": [{"step": 0, "note": 36, "vel": 110, "len": 3}, {"step": 3, "note": 39, "vel": 105, "len": 1}, {"step": 4, "note": 41, "vel": 110, "len": 3}, {"step": 7, "note": 43, "vel": 105, "len": 1}]}, {"bar": 16, "events": [{"step": 0, "note": 36, "vel": 110, "len": 2}, {"step": 2, "note": 39, "vel": 100, "len": 2}, {"step": 4, "note": 36, "vel": 110, "len": 1}, {"step": 5, "note": 34, "vel": 100, "len": 1}, {"step": 6, "note": 36, "vel": 110, "len": 2}]}]}, "pattern": [{"bar": 5, "events": [{"step": 0, "note": 36, "vel": 110, "len": 3}, {"step": 3, "note": 39, "vel": 105, "len": 1}, {"step": 4, "note": 41, "vel": 110, "len": 3}, {"step": 7, "note": 43, "vel": 105, "len": 1}]}, {"bar": 6, "events": [{"step": 0, "note": 36, "vel": 110, "len": 2}, {"step": 2, "note": 34, "vel": 100, "len": 2}, {"step": 4, "note": 43, "vel": 105, "len": 2}, {"step": 6, "note": 41, "vel": 100, "len": 2}]}, {"bar": 7, "events": [{"step": 0, "note": 36, "vel": 110, "len": 3}, {"step": 3, "note": 39, "vel": 105, "len": 1}, {"step": 4, "note": 41, "vel": 110, "len": 3}, {"step": 7, "note": 43, "vel": 105, "len": 1}]}, {"bar": 8, "events": [{"step": 0, "note": 36, "vel": 110, "len": 2}, {"step": 2, "note": 39, "vel": 100, "len": 2}, {"step": 4, "note": 36, "vel": 110, "len": 1}, {"step": 5, "note": 34, "vel": 100, "len": 1}, {"step": 6, "note": 36, "vel": 110, "len": 2}]}, {"bar": 9, "events": [{"step": 0, "note": 36, "vel": 110, "len": 3}, {"step": 3, "note": 39, "vel": 105, "len": 1}, {"step": 4, "note": 41, "vel": 110, "len": 3}, {"step": 7, "note": 43, "vel": 105, "len": 1}]}, {"bar": 10, "events": [{"step": 0, "note": 36, "vel": 110, "len": 2}, {"step": 2, "note": 34, "vel": 100, "len": 2}, {"step": 4, "note": 43, "vel": 105, "len": 2}, {"step": 6, "note": 41, "vel": 100, "len": 2}]}, {"bar": 11, "events": [{"step": 0, "note": 36, "vel": 110, "len": 3}, {"step": 3, "note": 39, "vel": 105, "len": 1}, {"step": 4, "note": 41, "vel": 110, "len": 3}, {"step": 7, "note": 43, "vel": 105, "len": 1}]}, {"bar": 12, "events": [{"step": 0, "note": 36, "vel": 110, "len": 2}, {"step": 2, "note": 39, "vel": 100, "len": 2}, {"step": 4, "note": 36, "vel": 110, "len": 1}, {"step": 5, "note": 34, "vel": 100, "len": 1}, {"step": 6, "note": 36, "vel": 110, "len": 2}]}, {"bar": 13, "events": [{"step": 0, "note": 36, "vel": 110, "len": 3}, {"step": 3, "note": 39, "vel": 105, "len": 1}, {"step": 4, "note": 41, "vel": 110, "len": 3}, {"step": 7, "note": 43, "vel": 105, "len": 1}]}, {"bar": 14, "events": [{"step": 0, "note": 36, "vel": 110, "len": 2}, {"step": 2, "note": 34, "vel": 100, "len": 2}, {"step": 4, "note": 43, "vel": 105, "len": 2}, {"step": 6, "note": 41, "vel": 100, "len": 2}]}, {"bar": 15, "events": [{"step": 0, "note": 36, "vel": 110, "len": 3}, {"step": 3, "note": 39, "vel": 105, "len": 1}, {"step": 4, "note": 41, "vel": 110, "len": 3}, {"step": 7, "note": 43, "vel": 105, "len": 1}]}, {"bar": 16, "events": [{"step": 0, "note": 36, "vel": 110, "len": 2}, {"step": 2, "note": 39, "vel": 100, "len": 2}, {"step": 4, "note": 36, "vel": 110, "len": 1}, {"step": 5, "note": 34, "vel": 100, "len": 1}, {"step": 6, "note": 36, "vel": 110, "len": 2}]}]}, "Piano": {"meta": {"style": "Old School Hip Hop", "mood": "Gritty, Groovy, Nostalgic", "tempo": 90, "key": "C Minor", "meter": "4/4", "bars": 16, "time_signature": "4/4", "scale": "Minor", "dynamic_profile": "Steady Groove", "arrangement_density": "Medium", "harmonic_color": "Soulful", "length_seconds": 42.6, "instrument_configs": [{"name": "Kick", "register": "Low", "role": "Percussion", "articulation": "Percussive", "dynamic_range": "Intense"}, {"name": "Snare", "register": "Mid", "role": "Percussion", "articulation": "Percussive", "dynamic_range": "Intense"}, {"name": "Hat", "register": "High", "role": "Percussion", "articulation": "Staccato", "dynamic_range": "Moderate"}, {"name": "Bass Guitar", "register": "Low", "role": "Bass", "articulation": "Legato", "dynamic_range": "Moderate"}, {"name": "Piano", "register": "Mid", "role": "Accompaniment", "articulation": "Staccato", "dynamic_range": "Moderate"}, {"name": "Strings", "register": "High", "role": "Pad", "articulation": "Sustain", "dynamic_range": "Delicate"}, {"name": "Sax", "register": "Mid-High", "role": "Lead", "articulation": "Legato", "dynamic_range": "Moderate"}], "instruments": ["Kick", "Snare", "Hat", "Bass Guitar", "Piano", "Strings", "Sax"], "instrument": "Piano"}, "layers": {"Piano": [{"bar": 1, "events": [{"step": 1, "note": 60, "vel": 95, "len": 1}, {"step": 1, "note": 63, "vel": 95, "len": 1}, {"step": 1, "note": 67, "vel": 95, "len": 1}, {"step": 3, "note": 60, "vel": 90, "len": 1}, {"step": 3, "note": 63, "vel": 90, "len": 1}, {"step": 3, "note": 67, "vel": 90, "len": 1}, {"step": 6, "note": 60, "vel": 90, "len": 1}, {"step": 6, "note": 63, "vel": 90, "len": 1}, {"step": 6, "note": 67, "vel": 90, "len": 1}]}, {"bar": 2, "events": [{"step": 1, "note": 58, "vel": 95, "len": 1}, {"step": 1, "note": 62, "vel": 95, "len": 1}, {"step": 1, "note": 65, "vel": 95, "len": 1}, {"step": 4, "note": 60, "vel": 100, "len": 1}, {"step": 4, "note": 63, "vel": 100, "len": 1}, {"step": 4, "note": 67, "vel": 100, "len": 1}, {"step": 7, "note": 58, "vel": 90, "len": 1}, {"step": 7, "note": 62, "vel": 90, "len": 1}, {"step": 7, "note": 65, "vel": 90, "len": 1}]}, {"bar": 3, "events": [{"step": 1, "note": 60, "vel": 95, "len": 1}, {"step": 1, "note": 63, "vel": 95, "len": 1}, {"step": 1, "note": 67, "vel": 95, "len": 1}, {"step": 3, "note": 60, "vel": 90, "len": 1}, {"step": 3, "note": 63, "vel": 90, "len": 1}, {"step": 3, "note": 67, "vel": 90, "len": 1}, {"step": 6, "note": 60, "vel": 90, "len": 1}, {"step": 6, "note": 63, "vel": 90, "len": 1}, {"step": 6, "note": 67, "vel": 90, "len": 1}]}, {"bar": 4, "events": [{"step": 1, "note": 58, "vel": 95, "len": 1}, {"step": 1, "note": 62, "vel": 95, "len": 1}, {"step": 1, "note": 65, "vel": 95, "len": 1}, {"step": 4, "note": 60, "vel": 100, "len": 1}, {"step": 4, "note": 63, "vel": 100, "len": 1}, {"step": 4, "note": 67, "vel": 100, "len": 1}, {"step": 7, "note": 60, "vel": 95, "len": 1}, {"step": 7, "note": 63, "vel": 95, "len": 1}, {"step": 7, "note": 67, "vel": 95, "len": 1}]}, {"bar": 5, "events": [{"step": 1, "note": 60, "vel": 95, "len": 1}, {"step": 1, "note": 63, "vel": 95, "len": 1}, {"step": 1, "note": 67, "vel": 95, "len": 1}, {"step": 3, "note": 60, "vel": 90, "len": 1}, {"step": 3, "note": 63, "vel": 90, "len": 1}, {"step": 3, "note": 67, "vel": 90, "len": 1}, {"step": 6, "note": 60, "vel": 90, "len": 1}, {"step": 6, "note": 63, "vel": 90, "len": 1}, {"step": 6, "note": 67, "vel": 90, "len": 1}]}, {"bar": 6, "events": [{"step": 1, "note": 58, "vel": 95, "len": 1}, {"step": 1, "note": 62, "vel": 95, "len": 1}, {"step": 1, "note": 65, "vel": 95, "len": 1}, {"step": 4, "note": 60, "vel": 100, "len": 1}, {"step": 4, "note": 63, "vel": 100, "len": 1}, {"step": 4, "note": 67, "vel": 100, "len": 1}, {"step": 7, "note": 58, "vel": 90, "len": 1}, {"step": 7, "note": 62, "vel": 90, "len": 1}, {"step": 7, "note": 65, "vel": 90, "len": 1}]}, {"bar": 7, "events": [{"step": 1, "note": 60, "vel": 95, "len": 1}, {"step": 1, "note": 63, "vel": 95, "len": 1}, {"step": 1, "note": 67, "vel": 95, "len": 1}, {"step": 3, "note": 60, "vel": 90, "len": 1}, {"step": 3, "note": 63, "vel": 90, "len": 1}, {"step": 3, "note": 67, "vel": 90, "len": 1}, {"step": 6, "note": 60, "vel": 90, "len": 1}, {"step": 6, "note": 63, "vel": 90, "len": 1}, {"step": 6, "note": 67, "vel": 90, "len": 1}]}, {"bar": 8, "events": [{"step": 1, "note": 58, "vel": 95, "len": 1}, {"step": 1, "note": 62, "vel": 95, "len": 1}, {"step": 1, "note": 65, "vel": 95, "len": 1}, {"step": 4, "note": 60, "vel": 100, "len": 1}, {"step": 4, "note": 63, "vel": 100, "len": 1}, {"step": 4, "note": 67, "vel": 100, "len": 1}, {"step": 7, "note": 60, "vel": 95, "len": 1}, {"step": 7, "note": 63, "vel": 95, "len": 1}, {"step": 7, "note": 67, "vel": 95, "len": 1}]}, {"bar": 9, "events": [{"step": 1, "note": 60, "vel": 95, "len": 1}, {"step": 1, "note": 63, "vel": 95, "len": 1}, {"step": 1, "note": 67, "vel": 95, "len": 1}, {"step": 3, "note": 60, "vel": 90, "len": 1}, {"step": 3, "note": 63, "vel": 90, "len": 1}, {"step": 3, "note": 67, "vel": 90, "len": 1}, {"step": 6, "note": 60, "vel": 90, "len": 1}, {"step": 6, "note": 63, "vel": 90, "len": 1}, {"step": 6, "note": 67, "vel": 90, "len": 1}]}, {"bar": 10, "events": [{"step": 1, "note": 58, "vel": 95, "len": 1}, {"step": 1, "note": 62, "vel": 95, "len": 1}, {"step": 1, "note": 65, "vel": 95, "len": 1}, {"step": 4, "note": 60, "vel": 100, "len": 1}, {"step": 4, "note": 63, "vel": 100, "len": 1}, {"step": 4, "note": 67, "vel": 100, "len": 1}, {"step": 7, "note": 58, "vel": 90, "len": 1}, {"step": 7, "note": 62, "vel": 90, "len": 1}, {"step": 7, "note": 65, "vel": 90, "len": 1}]}, {"bar": 11, "events": [{"step": 1, "note": 60, "vel": 95, "len": 1}, {"step": 1, "note": 63, "vel": 95, "len": 1}, {"step": 1, "note": 67, "vel": 95, "len": 1}, {"step": 3, "note": 60, "vel": 90, "len": 1}, {"step": 3, "note": 63, "vel": 90, "len": 1}, {"step": 3, "note": 67, "vel": 90, "len": 1}, {"step": 6, "note": 60, "vel": 90, "len": 1}, {"step": 6, "note": 63, "vel": 90, "len": 1}, {"step": 6, "note": 67, "vel": 90, "len": 1}]}, {"bar": 12, "events": [{"step": 1, "note": 58, "vel": 95, "len": 1}, {"step": 1, "note": 62, "vel": 95, "len": 1}, {"step": 1, "note": 65, "vel": 95, "len": 1}, {"step": 4, "note": 60, "vel": 100, "len": 1}, {"step": 4, "note": 63, "vel": 100, "len": 1}, {"step": 4, "note": 67, "vel": 100, "len": 1}, {"step": 7, "note": 60, "vel": 95, "len": 1}, {"step": 7, "note": 63, "vel": 95, "len": 1}, {"step": 7, "note": 67, "vel": 95, "len": 1}]}, {"bar": 13, "events": [{"step": 1, "note": 60, "vel": 95, "len": 1}, {"step": 1, "note": 63, "vel": 95, "len": 1}, {"step": 1, "note": 67, "vel": 95, "len": 1}, {"step": 3, "note": 60, "vel": 90, "len": 1}, {"step": 3, "note": 63, "vel": 90, "len": 1}, {"step": 3, "note": 67, "vel": 90, "len": 1}, {"step": 6, "note": 60, "vel": 90, "len": 1}, {"step": 6, "note": 63, "vel": 90, "len": 1}, {"step": 6, "note": 67, "vel": 90, "len": 1}]}, {"bar": 14, "events": [{"step": 1, "note": 58, "vel": 95, "len": 1}, {"step": 1, "note": 62, "vel": 95, "len": 1}, {"step": 1, "note": 65, "vel": 95, "len": 1}, {"step": 4, "note": 60, "vel": 100, "len": 1}, {"step": 4, "note": 63, "vel": 100, "len": 1}, {"step": 4, "note": 67, "vel": 100, "len": 1}, {"step": 7, "note": 58, "vel": 90, "len": 1}, {"step": 7, "note": 62, "vel": 90, "len": 1}, {"step": 7, "note": 65, "vel": 90, "len": 1}]}, {"bar": 15, "events": [{"step": 1, "note": 60, "vel": 95, "len": 1}, {"step": 1, "note": 63, "vel": 95, "len": 1}, {"step": 1, "note": 67, "vel": 95, "len": 1}, {"step": 3, "note": 60, "vel": 90, "len": 1}, {"step": 3, "note": 63, "vel": 90, "len": 1}, {"step": 3, "note": 67, "vel": 90, "len": 1}, {"step": 6, "note": 60, "vel": 90, "len": 1}, {"step": 6, "note": 63, "vel": 90, "len": 1}, {"step": 6, "note": 67, "vel": 90, "len": 1}]}, {"bar": 16, "events": [{"step": 1, "note": 58, "vel": 95, "len": 1}, {"step": 1, "note": 62, "vel": 95, "len": 1}, {"step": 1, "note": 65, "vel": 95, "len": 1}, {"step": 4, "note": 60, "vel": 100, "len": 1}, {"step": 4, "note": 63, "vel": 100, "len": 1}, {"step": 4, "note": 67, "vel": 100, "len": 1}, {"step": 7, "note": 60, "vel": 95, "len": 1}, {"step": 7, "note": 63, "vel": 95, "len": 1}, {"step": 7, "note": 67, "vel": 95, "len": 1}]}]}, "pattern": [{"bar": 1, "events": [{"step": 1, "note": 60, "vel": 95, "len": 1}, {"step": 1, "note": 63, "vel": 95, "len": 1}, {"step": 1, "note": 67, "vel": 95, "len": 1}, {"step": 3, "note": 60, "vel": 90, "len": 1}, {"step": 3, "note": 63, "vel": 90, "len": 1}, {"step": 3, "note": 67, "vel": 90, "len": 1}, {"step": 6, "note": 60, "vel": 90, "len": 1}, {"step": 6, "note": 63, "vel": 90, "len": 1}, {"step": 6, "note": 67, "vel": 90, "len": 1}]}, {"bar": 2, "events": [{"step": 1, "note": 58, "vel": 95, "len": 1}, {"step": 1, "note": 62, "vel": 95, "len": 1}, {"step": 1, "note": 65, "vel": 95, "len": 1}, {"step": 4, "note": 60, "vel": 100, "len": 1}, {"step": 4, "note": 63, "vel": 100, "len": 1}, {"step": 4, "note": 67, "vel": 100, "len": 1}, {"step": 7, "note": 58, "vel": 90, "len": 1}, {"step": 7, "note": 62, "vel": 90, "len": 1}, {"step": 7, "note": 65, "vel": 90, "len": 1}]}, {"bar": 3, "events": [{"step": 1, "note": 60, "vel": 95, "len": 1}, {"step": 1, "note": 63, "vel": 95, "len": 1}, {"step": 1, "note": 67, "vel": 95, "len": 1}, {"step": 3, "note": 60, "vel": 90, "len": 1}, {"step": 3, "note": 63, "vel": 90, "len": 1}, {"step": 3, "note": 67, "vel": 90, "len": 1}, {"step": 6, "note": 60, "vel": 90, "len": 1}, {"step": 6, "note": 63, "vel": 90, "len": 1}, {"step": 6, "note": 67, "vel": 90, "len": 1}]}, {"bar": 4, "events": [{"step": 1, "note": 58, "vel": 95, "len": 1}, {"step": 1, "note": 62, "vel": 95, "len": 1}, {"step": 1, "note": 65, "vel": 95, "len": 1}, {"step": 4, "note": 60, "vel": 100, "len": 1}, {"step": 4, "note": 63, "vel": 100, "len": 1}, {"step": 4, "note": 67, "vel": 100, "len": 1}, {"step": 7, "note": 60, "vel": 95, "len": 1}, {"step": 7, "note": 63, "vel": 95, "len": 1}, {"step": 7, "note": 67, "vel": 95, "len": 1}]}, {"bar": 5, "events": [{"step": 1, "note": 60, "vel": 95, "len": 1}, {"step": 1, "note": 63, "vel": 95, "len": 1}, {"step": 1, "note": 67, "vel": 95, "len": 1}, {"step": 3, "note": 60, "vel": 90, "len": 1}, {"step": 3, "note": 63, "vel": 90, "len": 1}, {"step": 3, "note": 67, "vel": 90, "len": 1}, {"step": 6, "note": 60, "vel": 90, "len": 1}, {"step": 6, "note": 63, "vel": 90, "len": 1}, {"step": 6, "note": 67, "vel": 90, "len": 1}]}, {"bar": 6, "events": [{"step": 1, "note": 58, "vel": 95, "len": 1}, {"step": 1, "note": 62, "vel": 95, "len": 1}, {"step": 1, "note": 65, "vel": 95, "len": 1}, {"step": 4, "note": 60, "vel": 100, "len": 1}, {"step": 4, "note": 63, "vel": 100, "len": 1}, {"step": 4, "note": 67, "vel": 100, "len": 1}, {"step": 7, "note": 58, "vel": 90, "len": 1}, {"step": 7, "note": 62, "vel": 90, "len": 1}, {"step": 7, "note": 65, "vel": 90, "len": 1}]}, {"bar": 7, "events": [{"step": 1, "note": 60, "vel": 95, "len": 1}, {"step": 1, "note": 63, "vel": 95, "len": 1}, {"step": 1, "note": 67, "vel": 95, "len": 1}, {"step": 3, "note": 60, "vel": 90, "len": 1}, {"step": 3, "note": 63, "vel": 90, "len": 1}, {"step": 3, "note": 67, "vel": 90, "len": 1}, {"step": 6, "note": 60, "vel": 90, "len": 1}, {"step": 6, "note": 63, "vel": 90, "len": 1}, {"step": 6, "note": 67, "vel": 90, "len": 1}]}, {"bar": 8, "events": [{"step": 1, "note": 58, "vel": 95, "len": 1}, {"step": 1, "note": 62, "vel": 95, "len": 1}, {"step": 1, "note": 65, "vel": 95, "len": 1}, {"step": 4, "note": 60, "vel": 100, "len": 1}, {"step": 4, "note": 63, "vel": 100, "len": 1}, {"step": 4, "note": 67, "vel": 100, "len": 1}, {"step": 7, "note": 60, "vel": 95, "len": 1}, {"step": 7, "note": 63, "vel": 95, "len": 1}, {"step": 7, "note": 67, "vel": 95, "len": 1}]}, {"bar": 9, "events": [{"step": 1, "note": 60, "vel": 95, "len": 1}, {"step": 1, "note": 63, "vel": 95, "len": 1}, {"step": 1, "note": 67, "vel": 95, "len": 1}, {"step": 3, "note": 60, "vel": 90, "len": 1}, {"step": 3, "note": 63, "vel": 90, "len": 1}, {"step": 3, "note": 67, "vel": 90, "len": 1}, {"step": 6, "note": 60, "vel": 90, "len": 1}, {"step": 6, "note": 63, "vel": 90, "len": 1}, {"step": 6, "note": 67, "vel": 90, "len": 1}]}, {"bar": 10, "events": [{"step": 1, "note": 58, "vel": 95, "len": 1}, {"step": 1, "note": 62, "vel": 95, "len": 1}, {"step": 1, "note": 65, "vel": 95, "len": 1}, {"step": 4, "note": 60, "vel": 100, "len": 1}, {"step": 4, "note": 63, "vel": 100, "len": 1}, {"step": 4, "note": 67, "vel": 100, "len": 1}, {"step": 7, "note": 58, "vel": 90, "len": 1}, {"step": 7, "note": 62, "vel": 90, "len": 1}, {"step": 7, "note": 65, "vel": 90, "len": 1}]}, {"bar": 11, "events": [{"step": 1, "note": 60, "vel": 95, "len": 1}, {"step": 1, "note": 63, "vel": 95, "len": 1}, {"step": 1, "note": 67, "vel": 95, "len": 1}, {"step": 3, "note": 60, "vel": 90, "len": 1}, {"step": 3, "note": 63, "vel": 90, "len": 1}, {"step": 3, "note": 67, "vel": 90, "len": 1}, {"step": 6, "note": 60, "vel": 90, "len": 1}, {"step": 6, "note": 63, "vel": 90, "len": 1}, {"step": 6, "note": 67, "vel": 90, "len": 1}]}, {"bar": 12, "events": [{"step": 1, "note": 58, "vel": 95, "len": 1}, {"step": 1, "note": 62, "vel": 95, "len": 1}, {"step": 1, "note": 65, "vel": 95, "len": 1}, {"step": 4, "note": 60, "vel": 100, "len": 1}, {"step": 4, "note": 63, "vel": 100, "len": 1}, {"step": 4, "note": 67, "vel": 100, "len": 1}, {"step": 7, "note": 60, "vel": 95, "len": 1}, {"step": 7, "note": 63, "vel": 95, "len": 1}, {"step": 7, "note": 67, "vel": 95, "len": 1}]}, {"bar": 13, "events": [{"step": 1, "note": 60, "vel": 95, "len": 1}, {"step": 1, "note": 63, "vel": 95, "len": 1}, {"step": 1, "note": 67, "vel": 95, "len": 1}, {"step": 3, "note": 60, "vel": 90, "len": 1}, {"step": 3, "note": 63, "vel": 90, "len": 1}, {"step": 3, "note": 67, "vel": 90, "len": 1}, {"step": 6, "note": 60, "vel": 90, "len": 1}, {"step": 6, "note": 63, "vel": 90, "len": 1}, {"step": 6, "note": 67, "vel": 90, "len": 1}]}, {"bar": 14, "events": [{"step": 1, "note": 58, "vel": 95, "len": 1}, {"step": 1, "note": 62, "vel": 95, "len": 1}, {"step": 1, "note": 65, "vel": 95, "len": 1}, {"step": 4, "note": 60, "vel": 100, "len": 1}, {"step": 4, "note": 63, "vel": 100, "len": 1}, {"step": 4, "note": 67, "vel": 100, "len": 1}, {"step": 7, "note": 58, "vel": 90, "len": 1}, {"step": 7, "note": 62, "vel": 90, "len": 1}, {"step": 7, "note": 65, "vel": 90, "len": 1}]}, {"bar": 15, "events": [{"step": 1, "note": 60, "vel": 95, "len": 1}, {"step": 1, "note": 63, "vel": 95, "len": 1}, {"step": 1, "note": 67, "vel": 95, "len": 1}, {"step": 3, "note": 60, "vel": 90, "len": 1}, {"step": 3, "note": 63, "vel": 90, "len": 1}, {"step": 3, "note": 67, "vel": 90, "len": 1}, {"step": 6, "note": 60, "vel": 90, "len": 1}, {"step": 6, "note": 63, "vel": 90, "len": 1}, {"step": 6, "note": 67, "vel": 90, "len": 1}]}, {"bar": 16, "events": [{"step": 1, "note": 58, "vel": 95, "len": 1}, {"step": 1, "note": 62, "vel": 95, "len": 1}, {"step": 1, "note": 65, "vel": 95, "len": 1}, {"step": 4, "note": 60, "vel": 100, "len": 1}, {"step": 4, "note": 63, "vel": 100, "len": 1}, {"step": 4, "note": 67, "vel": 100, "len": 1}, {"step": 7, "note": 60, "vel": 95, "len": 1}, {"step": 7, "note": 63, "vel": 95, "len": 1}, {"step": 7, "note": 67, "vel": 95, "len": 1}]}]}, "Strings": {"meta": {"style": "Old School Hip Hop", "mood": "Gritty, Groovy, Nostalgic", "tempo": 90, "key": "C Minor", "meter": "4/4", "bars": 16, "time_signature": "4/4", "scale": "Minor", "dynamic_profile": "Steady Groove", "arrangement_density": "Medium", "harmonic_color": "Soulful", "length_seconds": 42.6, "instrument_configs": [{"name": "Kick", "register": "Low", "role": "Percussion", "articulation": "Percussive", "dynamic_range": "Intense"}, {"name": "Snare", "register": "Mid", "role": "Percussion", "articulation": "Percussive", "dynamic_range": "Intense"}, {"name": "Hat", "register": "High", "role": "Percussion", "articulation": "Staccato", "dynamic_range": "Moderate"}, {"name": "Bass Guitar", "register": "Low", "role": "Bass", "articulation": "Legato", "dynamic_range": "Moderate"}, {"name": "Piano", "register": "Mid", "role": "Accompaniment", "articulation": "Staccato", "dynamic_range": "Moderate"}, {"name": "Strings", "register": "High", "role": "Pad", "articulation": "Sustain", "dynamic_range": "Delicate"}, {"name": "Sax", "register": "Mid-High", "role": "Lead", "articulation": "Legato", "dynamic_range": "Moderate"}], "instruments": ["Kick", "Snare", "Hat", "Bass Guitar", "Piano", "Strings", "Sax"], "instrument": "Strings"}, "layers": {"Strings": [{"bar": 13, "events": [{"step": 0, "note": 72, "vel": 85, "len": 8}, {"step": 0, "note": 79, "vel": 80, "len": 8}]}, {"bar": 14, "events": [{"step": 0, "note": 70, "vel": 85, "len": 8}, {"step": 0, "note": 77, "vel": 80, "len": 8}]}, {"bar": 15, "events": [{"step": 0, "note": 72, "vel": 85, "len": 8}, {"step": 0, "note": 79, "vel": 80, "len": 8}]}, {"bar": 16, "events": [{"step": 0, "note": 70, "vel": 85, "len": 8}, {"step": 0, "note": 77, "vel": 80, "len": 8}]}]}, "pattern": [{"bar": 13, "events": [{"step": 0, "note": 72, "vel": 85, "len": 8}, {"step": 0, "note": 79, "vel": 80, "len": 8}]}, {"bar": 14, "events": [{"step": 0, "note": 70, "vel": 85, "len": 8}, {"step": 0, "note": 77, "vel": 80, "len": 8}]}, {"bar": 15, "events": [{"step": 0, "note": 72, "vel": 85, "len": 8}, {"step": 0, "note": 79, "vel": 80, "len": 8}]}, {"bar": 16, "events": [{"step": 0, "note": 70, "vel": 85, "len": 8}, {"step": 0, "note": 77, "vel": 80, "len": 8}]}]}, "Sax": {"meta": {"style": "Old School Hip Hop", "mood": "Gritty, Groovy, Nostalgic", "tempo": 90, "key": "C Minor", "meter": "4/4", "bars": 16, "time_signature": "4/4", "scale": "Minor", "dynamic_profile": "Steady Groove", "arrangement_density": "Medium", "harmonic_color": "Soulful", "length_seconds": 42.6, "instrument_configs": [{"name": "Kick", "register": "Low", "role": "Percussion", "articulation": "Percussive", "dynamic_range": "Intense"}, {"name": "Snare", "register": "Mid", "role": "Percussion", "articulation": "Percussive", "dynamic_range": "Intense"}, {"name": "Hat", "register": "High", "role": "Percussion", "articulation": "Staccato", "dynamic_range": "Moderate"}, {"name": "Bass Guitar", "register": "Low", "role": "Bass", "articulation": "Legato", "dynamic_range": "Moderate"}, {"name": "Piano", "register": "Mid", "role": "Accompaniment", "articulation": "Staccato", "dynamic_range": "Moderate"}, {"name": "Strings", "register": "High", "role": "Pad", "articulation": "Sustain", "dynamic_range": "Delicate"}, {"name": "Sax", "register": "Mid-High", "role": "Lead", "articulation": "Legato", "dynamic_range": "Moderate"}], "instruments": ["Kick", "Snare", "Hat", "Bass Guitar", "Piano", "Strings", "Sax"], "instrument": "Sax"}, "layers": {"Sax": [{"bar": 9, "events": [{"step": 0, "note": 60, "vel": 100, "len": 2}, {"step": 2, "note": 63, "vel": 95, "len": 1}, {"step": 3, "note": 65, "vel": 95, "len": 1}, {"step": 4, "note": 67, "vel": 105, "len": 2}, {"step": 6, "note": 65, "vel": 95, "len": 2}]}, {"bar": 10, "events": [{"step": 0, "note": 63, "vel": 95, "len": 2}, {"step": 2, "note": 60, "vel": 90, "len": 2}, {"step": 5, "note": 58, "vel": 90, "len": 1}, {"step": 6, "note": 60, "vel": 100, "len": 2}]}, {"bar": 11, "events": [{"step": 0, "note": 67, "vel": 100, "len": 2}, {"step": 2, "note": 70, "vel": 105, "len": 1}, {"step": 3, "note": 72, "vel": 110, "len": 2}, {"step": 6, "note": 70, "vel": 100, "len": 1}, {"step": 7, "note": 67, "vel": 95, "len": 1}]}, {"bar": 12, "events": [{"step": 0, "note": 65, "vel": 100, "len": 2}, {"step": 2, "note": 63, "vel": 95, "len": 2}, {"step": 4, "note": 60, "vel": 100, "len": 2}]}, {"bar": 13, "events": [{"step": 0, "note": 60, "vel": 100, "len": 2}, {"step": 2, "note": 63, "vel": 95, "len": 1}, {"step": 3, "note": 65, "vel": 95, "len": 1}, {"step": 4, "note": 67, "vel": 105, "len": 2}, {"step": 6, "note": 65, "vel": 95, "len": 2}]}, {"bar": 14, "events": [{"step": 0, "note": 63, "vel": 95, "len": 2}, {"step": 2, "note": 60, "vel": 90, "len": 2}, {"step": 5, "note": 58, "vel": 90, "len": 1}, {"step": 6, "note": 60, "vel": 100, "len": 2}]}, {"bar": 15, "events": [{"step": 0, "note": 67, "vel": 100, "len": 2}, {"step": 2, "note": 70, "vel": 105, "len": 1}, {"step": 3, "note": 72, "vel": 110, "len": 2}, {"step": 6, "note": 70, "vel": 100, "len": 1}, {"step": 7, "note": 67, "vel": 95, "len": 1}]}, {"bar": 16, "events": [{"step": 0, "note": 65, "vel": 100, "len": 2}, {"step": 2, "note": 63, "vel": 95, "len": 2}, {"step": 4, "note": 60, "vel": 100, "len": 2}]}]}, "pattern": [{"bar": 9, "events": [{"step": 0, "note": 60, "vel": 100, "len": 2}, {"step": 2, "note": 63, "vel": 95, "len": 1}, {"step": 3, "note": 65, "vel": 95, "len": 1}, {"step": 4, "note": 67, "vel": 105, "len": 2}, {"step": 6, "note": 65, "vel": 95, "len": 2}]}, {"bar": 10, "events": [{"step": 0, "note": 63, "vel": 95, "len": 2}, {"step": 2, "note": 60, "vel": 90, "len": 2}, {"step": 5, "note": 58, "vel": 90, "len": 1}, {"step": 6, "note": 60, "vel": 100, "len": 2}]}, {"bar": 11, "events": [{"step": 0, "note": 67, "vel": 100, "len": 2}, {"step": 2, "note": 70, "vel": 105, "len": 1}, {"step": 3, "note": 72, "vel": 110, "len": 2}, {"step": 6, "note": 70, "vel": 100, "len": 1}, {"step": 7, "note": 67, "vel": 95, "len": 1}]}, {"bar": 12, "events": [{"step": 0, "note": 65, "vel": 100, "len": 2}, {"step": 2, "note": 63, "vel": 95, "len": 2}, {"step": 4, "note": 60, "vel": 100, "len": 2}]}, {"bar": 13, "events": [{"step": 0, "note": 60, "vel": 100, "len": 2}, {"step": 2, "note": 63, "vel": 95, "len": 1}, {"step": 3, "note": 65, "vel": 95, "len": 1}, {"step": 4, "note": 67, "vel": 105, "len": 2}, {"step": 6, "note": 65, "vel": 95, "len": 2}]}, {"bar": 14, "events": [{"step": 0, "note": 63, "vel": 95, "len": 2}, {"step": 2, "note": 60, "vel": 90, "len": 2}, {"step": 5, "note": 58, "vel": 90, "len": 1}, {"step": 6, "note": 60, "vel": 100, "len": 2}]}, {"bar": 15, "events": [{"step": 0, "note": 67, "vel": 100, "len": 2}, {"step": 2, "note": 70, "vel": 105, "len": 1}, {"step": 3, "note": 72, "vel": 110, "len": 2}, {"step": 6, "note": 70, "vel": 100, "len": 1}, {"step": 7, "note": 67, "vel": 95, "len": 1}]}, {"bar": 16, "events": [{"step": 0, "note": 65, "vel": 100, "len": 2}, {"step": 2, "note": 63, "vel": 95, "len": 2}, {"step": 4, "note": 60, "vel": 100, "len": 2}]}]}}