{"Snare": {"meta": {"status": "success", "tempo": 85, "key": "C Minor", "scale": "Natural Minor", "style": "Lo-Fi Hip Hop", "mood": "Relaxed", "meter": "4/4", "dynamic_profile": "Soft", "arrangement_density": "Sparse", "harmonic_color": "Mellow", "length_seconds": 180.0, "bars": 32, "instrument_configs": [{"name": "Snare", "register": "Mid", "role": "Percussion", "articulation": "Percussive", "dynamic_range": "Moderate"}], "instruments": ["Snare"], "instrument": "Snare"}, "layers": {}, "pattern": [{"bar": 1, "events": [{"step": 3, "note": 38, "vel": 50, "len": 1}, {"step": 7, "note": 38, "vel": 40, "len": 1}]}, {"bar": 2, "events": [{"step": 3, "note": 38, "vel": 52, "len": 1}, {"step": 7, "note": 38, "vel": 42, "len": 1}]}, {"bar": 3, "events": [{"step": 3, "note": 38, "vel": 48, "len": 1}, {"step": 7, "note": 38, "vel": 38, "len": 1}]}, {"bar": 4, "events": [{"step": 3, "note": 38, "vel": 54, "len": 1}, {"step": 7, "note": 38, "vel": 44, "len": 1}]}, {"bar": 5, "events": [{"step": 3, "note": 38, "vel": 51, "len": 1}, {"step": 7, "note": 38, "vel": 41, "len": 1}]}, {"bar": 6, "events": [{"step": 3, "note": 38, "vel": 53, "len": 1}, {"step": 7, "note": 38, "vel": 43, "len": 1}]}, {"bar": 7, "events": [{"step": 3, "note": 38, "vel": 49, "len": 1}, {"step": 7, "note": 38, "vel": 39, "len": 1}]}, {"bar": 8, "events": [{"step": 3, "note": 38, "vel": 55, "len": 1}, {"step": 7, "note": 38, "vel": 45, "len": 1}]}, {"bar": 9, "events": [{"step": 3, "note": 38, "vel": 50, "len": 1}, {"step": 7, "note": 38, "vel": 40, "len": 1}]}, {"bar": 10, "events": [{"step": 3, "note": 38, "vel": 52, "len": 1}, {"step": 7, "note": 38, "vel": 42, "len": 1}]}, {"bar": 11, "events": [{"step": 3, "note": 38, "vel": 48, "len": 1}, {"step": 7, "note": 38, "vel": 38, "len": 1}]}, {"bar": 12, "events": [{"step": 3, "note": 38, "vel": 54, "len": 1}, {"step": 7, "note": 38, "vel": 44, "len": 1}]}, {"bar": 13, "events": [{"step": 3, "note": 38, "vel": 51, "len": 1}, {"step": 7, "note": 38, "vel": 41, "len": 1}]}, {"bar": 14, "events": [{"step": 3, "note": 38, "vel": 53, "len": 1}, {"step": 7, "note": 38, "vel": 43, "len": 1}]}, {"bar": 15, "events": [{"step": 3, "note": 38, "vel": 49, "len": 1}, {"step": 7, "note": 38, "vel": 39, "len": 1}]}, {"bar": 16, "events": [{"step": 3, "note": 38, "vel": 55, "len": 1}, {"step": 7, "note": 38, "vel": 45, "len": 1}]}, {"bar": 17, "events": [{"step": 3, "note": 38, "vel": 50, "len": 1}, {"step": 7, "note": 38, "vel": 40, "len": 1}]}, {"bar": 18, "events": [{"step": 3, "note": 38, "vel": 52, "len": 1}, {"step": 7, "note": 38, "vel": 42, "len": 1}]}, {"bar": 19, "events": [{"step": 3, "note": 38, "vel": 48, "len": 1}, {"step": 7, "note": 38, "vel": 38, "len": 1}]}, {"bar": 20, "events": [{"step": 3, "note": 38, "vel": 54, "len": 1}, {"step": 7, "note": 38, "vel": 44, "len": 1}]}, {"bar": 21, "events": [{"step": 3, "note": 38, "vel": 51, "len": 1}, {"step": 7, "note": 38, "vel": 41, "len": 1}]}, {"bar": 22, "events": [{"step": 3, "note": 38, "vel": 53, "len": 1}, {"step": 7, "note": 38, "vel": 43, "len": 1}]}, {"bar": 23, "events": [{"step": 3, "note": 38, "vel": 49, "len": 1}, {"step": 7, "note": 38, "vel": 39, "len": 1}]}, {"bar": 24, "events": [{"step": 3, "note": 38, "vel": 55, "len": 1}, {"step": 7, "note": 38, "vel": 45, "len": 1}]}, {"bar": 25, "events": [{"step": 3, "note": 38, "vel": 50, "len": 1}, {"step": 7, "note": 38, "vel": 40, "len": 1}]}, {"bar": 26, "events": [{"step": 3, "note": 38, "vel": 52, "len": 1}, {"step": 7, "note": 38, "vel": 42, "len": 1}]}, {"bar": 27, "events": [{"step": 3, "note": 38, "vel": 48, "len": 1}, {"step": 7, "note": 38, "vel": 38, "len": 1}]}, {"bar": 28, "events": [{"step": 3, "note": 38, "vel": 54, "len": 1}, {"step": 7, "note": 38, "vel": 44, "len": 1}]}, {"bar": 29, "events": [{"step": 3, "note": 38, "vel": 51, "len": 1}, {"step": 7, "note": 38, "vel": 41, "len": 1}]}, {"bar": 30, "events": [{"step": 3, "note": 38, "vel": 53, "len": 1}, {"step": 7, "note": 38, "vel": 43, "len": 1}]}, {"bar": 31, "events": [{"step": 3, "note": 38, "vel": 49, "len": 1}, {"step": 7, "note": 38, "vel": 39, "len": 1}]}, {"bar": 32, "events": []}]}}