{"request": {"project_name": "90s ice cube melodical sad boombap", "run_id": "b603efedb6fd", "midi": {"pattern": [{"bar": 1, "events": [{"step": 0, "note": 36, "vel": 120, "len": 1}, {"step": 0, "note": 42, "vel": 90, "len": 1}, {"step": 0, "note": 36, "vel": 100, "len": 2}, {"step": 0, "note": 72, "vel": 70, "len": 8}, {"step": 1, "note": 42, "vel": 80, "len": 1}, {"step": 1, "note": 36, "vel": 90, "len": 1}, {"step": 2, "note": 38, "vel": 125, "len": 1}, {"step": 2, "note": 42, "vel": 90, "len": 1}, {"step": 2, "note": 60, "vel": 85, "len": 2}, {"step": 2, "note": 63, "vel": 85, "len": 2}, {"step": 2, "note": 67, "vel": 85, "len": 2}, {"step": 3, "note": 36, "vel": 110, "len": 1}, {"step": 3, "note": 42, "vel": 80, "len": 1}, {"step": 3, "note": 39, "vel": 95, "len": 1}, {"step": 4, "note": 42, "vel": 90, "len": 1}, {"step": 4, "note": 41, "vel": 95, "len": 2}, {"step": 5, "note": 36, "vel": 110, "len": 1}, {"step": 5, "note": 42, "vel": 80, "len": 1}, {"step": 5, "note": 60, "vel": 85, "len": 2}, {"step": 5, "note": 63, "vel": 85, "len": 2}, {"step": 5, "note": 67, "vel": 85, "len": 2}, {"step": 6, "note": 38, "vel": 125, "len": 1}, {"step": 6, "note": 42, "vel": 90, "len": 1}, {"step": 6, "note": 43, "vel": 95, "len": 2}, {"step": 7, "note": 42, "vel": 80, "len": 1}, {"step": 7, "note": 58, "vel": 75, "len": 1}]}, {"bar": 2, "events": [{"step": 0, "note": 36, "vel": 120, "len": 1}, {"step": 0, "note": 42, "vel": 90, "len": 1}, {"step": 0, "note": 36, "vel": 100, "len": 2}, {"step": 0, "note": 72, "vel": 70, "len": 8}, {"step": 1, "note": 42, "vel": 80, "len": 1}, {"step": 2, "note": 38, "vel": 125, "len": 1}, {"step": 2, "note": 42, "vel": 90, "len": 1}, {"step": 2, "note": 60, "vel": 85, "len": 2}, {"step": 2, "note": 63, "vel": 85, "len": 2}, {"step": 2, "note": 67, "vel": 85, "len": 2}, {"step": 3, "note": 36, "vel": 110, "len": 1}, {"step": 3, "note": 42, "vel": 80, "len": 1}, {"step": 3, "note": 39, "vel": 95, "len": 2}, {"step": 4, "note": 42, "vel": 90, "len": 1}, {"step": 5, "note": 36, "vel": 110, "len": 1}, {"step": 5, "note": 42, "vel": 80, "len": 1}, {"step": 5, "note": 43, "vel": 95, "len": 2}, {"step": 5, "note": 60, "vel": 85, "len": 2}, {"step": 5, "note": 63, "vel": 85, "len": 2}, {"step": 5, "note": 67, "vel": 85, "len": 2}, {"step": 6, "note": 38, "vel": 125, "len": 1}, {"step": 6, "note": 42, "vel": 90, "len": 1}, {"step": 7, "note": 42, "vel": 80, "len": 1}, {"step": 7, "note": 46, "vel": 95, "len": 1}]}, {"bar": 3, "events": [{"step": 0, "note": 36, "vel": 120, "len": 1}, {"step": 0, "note": 42, "vel": 90, "len": 1}, {"step": 0, "note": 36, "vel": 100, "len": 2}, {"step": 0, "note": 72, "vel": 70, "len": 8}, {"step": 1, "note": 42, "vel": 80, "len": 1}, {"step": 1, "note": 36, "vel": 90, "len": 1}, {"step": 2, "note": 38, "vel": 125, "len": 1}, {"step": 2, "note": 42, "vel": 90, "len": 1}, {"step": 2, "note": 60, "vel": 85, "len": 2}, {"step": 2, "note": 63, "vel": 85, "len": 2}, {"step": 2, "note": 67, "vel": 85, "len": 2}, {"step": 3, "note": 36, "vel": 110, "len": 1}, {"step": 3, "note": 42, "vel": 80, "len": 1}, {"step": 3, "note": 39, "vel": 95, "len": 1}, {"step": 4, "note": 42, "vel": 90, "len": 1}, {"step": 4, "note": 41, "vel": 95, "len": 2}, {"step": 5, "note": 36, "vel": 110, "len": 1}, {"step": 5, "note": 42, "vel": 80, "len": 1}, {"step": 5, "note": 60, "vel": 85, "len": 2}, {"step": 5, "note": 63, "vel": 85, "len": 2}, {"step": 5, "note": 67, "vel": 85, "len": 2}, {"step": 6, "note": 38, "vel": 125, "len": 1}, {"step": 6, "note": 42, "vel": 90, "len": 1}, {"step": 6, "note": 43, "vel": 95, "len": 2}, {"step": 7, "note": 42, "vel": 80, "len": 1}, {"step": 7, "note": 58, "vel": 75, "len": 1}]}, {"bar": 4, "events": [{"step": 0, "note": 36, "vel": 120, "len": 1}, {"step": 0, "note": 42, "vel": 90, "len": 1}, {"step": 0, "note": 36, "vel": 100, "len": 2}, {"step": 0, "note": 70, "vel": 70, "len": 8}, {"step": 1, "note": 42, "vel": 80, "len": 1}, {"step": 2, "note": 38, "vel": 125, "len": 1}, {"step": 2, "note": 42, "vel": 90, "len": 1}, {"step": 2, "note": 39, "vel": 95, "len": 2}, {"step": 2, "note": 60, "vel": 85, "len": 2}, {"step": 2, "note": 63, "vel": 85, "len": 2}, {"step": 2, "note": 67, "vel": 85, "len": 2}, {"step": 3, "note": 36, "vel": 110, "len": 1}, {"step": 3, "note": 42, "vel": 80, "len": 1}, {"step": 4, "note": 36, "vel": 100, "len": 1}, {"step": 4, "note": 42, "vel": 90, "len": 1}, {"step": 4, "note": 41, "vel": 95, "len": 2}, {"step": 5, "note": 36, "vel": 110, "len": 1}, {"step": 5, "note": 42, "vel": 80, "len": 1}, {"step": 5, "note": 60, "vel": 85, "len": 2}, {"step": 5, "note": 63, "vel": 85, "len": 2}, {"step": 5, "note": 67, "vel": 85, "len": 2}, {"step": 6, "note": 38, "vel": 125, "len": 1}, {"step": 6, "note": 42, "vel": 90, "len": 1}, {"step": 6, "note": 43, "vel": 95, "len": 1}, {"step": 7, "note": 42, "vel": 80, "len": 1}, {"step": 7, "note": 46, "vel": 95, "len": 1}]}, {"bar": 5, "events": [{"step": 0, "note": 36, "vel": 120, "len": 1}, {"step": 0, "note": 42, "vel": 90, "len": 1}, {"step": 0, "note": 36, "vel": 100, "len": 2}, {"step": 0, "note": 72, "vel": 70, "len": 8}, {"step": 1, "note": 42, "vel": 80, "len": 1}, {"step": 1, "note": 36, "vel": 90, "len": 1}, {"step": 2, "note": 38, "vel": 125, "len": 1}, {"step": 2, "note": 42, "vel": 90, "len": 1}, {"step": 2, "note": 60, "vel": 85, "len": 2}, {"step": 2, "note": 63, "vel": 85, "len": 2}, {"step": 2, "note": 67, "vel": 85, "len": 2}, {"step": 3, "note": 36, "vel": 110, "len": 1}, {"step": 3, "note": 42, "vel": 80, "len": 1}, {"step": 3, "note": 39, "vel": 95, "len": 1}, {"step": 4, "note": 42, "vel": 90, "len": 1}, {"step": 4, "note": 41, "vel": 95, "len": 2}, {"step": 5, "note": 36, "vel": 110, "len": 1}, {"step": 5, "note": 42, "vel": 80, "len": 1}, {"step": 5, "note": 60, "vel": 85, "len": 2}, {"step": 5, "note": 63, "vel": 85, "len": 2}, {"step": 5, "note": 67, "vel": 85, "len": 2}, {"step": 6, "note": 38, "vel": 125, "len": 1}, {"step": 6, "note": 42, "vel": 90, "len": 1}, {"step": 6, "note": 43, "vel": 95, "len": 2}, {"step": 7, "note": 42, "vel": 80, "len": 1}, {"step": 7, "note": 58, "vel": 75, "len": 1}]}, {"bar": 6, "events": [{"step": 0, "note": 36, "vel": 120, "len": 1}, {"step": 0, "note": 42, "vel": 90, "len": 1}, {"step": 0, "note": 36, "vel": 100, "len": 2}, {"step": 0, "note": 72, "vel": 70, "len": 8}, {"step": 1, "note": 42, "vel": 80, "len": 1}, {"step": 2, "note": 38, "vel": 125, "len": 1}, {"step": 2, "note": 42, "vel": 90, "len": 1}, {"step": 2, "note": 60, "vel": 85, "len": 2}, {"step": 2, "note": 63, "vel": 85, "len": 2}, {"step": 2, "note": 67, "vel": 85, "len": 2}, {"step": 3, "note": 36, "vel": 110, "len": 1}, {"step": 3, "note": 42, "vel": 80, "len": 1}, {"step": 3, "note": 39, "vel": 95, "len": 2}, {"step": 4, "note": 42, "vel": 90, "len": 1}, {"step": 5, "note": 36, "vel": 110, "len": 1}, {"step": 5, "note": 42, "vel": 80, "len": 1}, {"step": 5, "note": 43, "vel": 95, "len": 2}, {"step": 5, "note": 60, "vel": 85, "len": 2}, {"step": 5, "note": 63, "vel": 85, "len": 2}, {"step": 5, "note": 67, "vel": 85, "len": 2}, {"step": 6, "note": 38, "vel": 125, "len": 1}, {"step": 6, "note": 42, "vel": 90, "len": 1}, {"step": 7, "note": 42, "vel": 80, "len": 1}, {"step": 7, "note": 46, "vel": 95, "len": 1}]}, {"bar": 7, "events": [{"step": 0, "note": 36, "vel": 120, "len": 1}, {"step": 0, "note": 42, "vel": 90, "len": 1}, {"step": 0, "note": 36, "vel": 100, "len": 2}, {"step": 0, "note": 72, "vel": 70, "len": 8}, {"step": 1, "note": 42, "vel": 80, "len": 1}, {"step": 1, "note": 36, "vel": 90, "len": 1}, {"step": 2, "note": 38, "vel": 125, "len": 1}, {"step": 2, "note": 42, "vel": 90, "len": 1}, {"step": 2, "note": 60, "vel": 85, "len": 2}, {"step": 2, "note": 63, "vel": 85, "len": 2}, {"step": 2, "note": 67, "vel": 85, "len": 2}, {"step": 3, "note": 36, "vel": 110, "len": 1}, {"step": 3, "note": 42, "vel": 80, "len": 1}, {"step": 3, "note": 39, "vel": 95, "len": 1}, {"step": 4, "note": 42, "vel": 90, "len": 1}, {"step": 4, "note": 41, "vel": 95, "len": 2}, {"step": 5, "note": 36, "vel": 110, "len": 1}, {"step": 5, "note": 42, "vel": 80, "len": 1}, {"step": 5, "note": 60, "vel": 85, "len": 2}, {"step": 5, "note": 63, "vel": 85, "len": 2}, {"step": 5, "note": 67, "vel": 85, "len": 2}, {"step": 6, "note": 38, "vel": 125, "len": 1}, {"step": 6, "note": 42, "vel": 90, "len": 1}, {"step": 6, "note": 43, "vel": 95, "len": 2}, {"step": 7, "note": 42, "vel": 80, "len": 1}, {"step": 7, "note": 58, "vel": 75, "len": 1}]}, {"bar": 8, "events": [{"step": 0, "note": 36, "vel": 120, "len": 1}, {"step": 0, "note": 42, "vel": 90, "len": 1}, {"step": 0, "note": 36, "vel": 100, "len": 2}, {"step": 0, "note": 70, "vel": 70, "len": 8}, {"step": 1, "note": 42, "vel": 80, "len": 1}, {"step": 2, "note": 38, "vel": 125, "len": 1}, {"step": 2, "note": 42, "vel": 90, "len": 1}, {"step": 2, "note": 39, "vel": 95, "len": 2}, {"step": 2, "note": 60, "vel": 85, "len": 2}, {"step": 2, "note": 63, "vel": 85, "len": 2}, {"step": 2, "note": 67, "vel": 85, "len": 2}, {"step": 3, "note": 36, "vel": 110, "len": 1}, {"step": 3, "note": 42, "vel": 80, "len": 1}, {"step": 4, "note": 36, "vel": 100, "len": 1}, {"step": 4, "note": 42, "vel": 90, "len": 1}, {"step": 4, "note": 41, "vel": 95, "len": 2}, {"step": 5, "note": 36, "vel": 110, "len": 1}, {"step": 5, "note": 42, "vel": 80, "len": 1}, {"step": 5, "note": 60, "vel": 85, "len": 2}, {"step": 5, "note": 63, "vel": 85, "len": 2}, {"step": 5, "note": 67, "vel": 85, "len": 2}, {"step": 6, "note": 38, "vel": 125, "len": 1}, {"step": 6, "note": 42, "vel": 90, "len": 1}, {"step": 6, "note": 43, "vel": 95, "len": 1}, {"step": 7, "note": 42, "vel": 80, "len": 1}, {"step": 7, "note": 38, "vel": 100, "len": 1}, {"step": 7, "note": 36, "vel": 120, "len": 1}]}], "layers": {"Kick": [{"bar": 1, "events": [{"step": 0, "note": 36, "vel": 120, "len": 1}, {"step": 3, "note": 36, "vel": 110, "len": 1}, {"step": 5, "note": 36, "vel": 110, "len": 1}]}, {"bar": 2, "events": [{"step": 0, "note": 36, "vel": 120, "len": 1}, {"step": 3, "note": 36, "vel": 110, "len": 1}, {"step": 5, "note": 36, "vel": 110, "len": 1}]}, {"bar": 3, "events": [{"step": 0, "note": 36, "vel": 120, "len": 1}, {"step": 3, "note": 36, "vel": 110, "len": 1}, {"step": 5, "note": 36, "vel": 110, "len": 1}]}, {"bar": 4, "events": [{"step": 0, "note": 36, "vel": 120, "len": 1}, {"step": 3, "note": 36, "vel": 110, "len": 1}, {"step": 4, "note": 36, "vel": 100, "len": 1}, {"step": 5, "note": 36, "vel": 110, "len": 1}]}, {"bar": 5, "events": [{"step": 0, "note": 36, "vel": 120, "len": 1}, {"step": 3, "note": 36, "vel": 110, "len": 1}, {"step": 5, "note": 36, "vel": 110, "len": 1}]}, {"bar": 6, "events": [{"step": 0, "note": 36, "vel": 120, "len": 1}, {"step": 3, "note": 36, "vel": 110, "len": 1}, {"step": 5, "note": 36, "vel": 110, "len": 1}]}, {"bar": 7, "events": [{"step": 0, "note": 36, "vel": 120, "len": 1}, {"step": 3, "note": 36, "vel": 110, "len": 1}, {"step": 5, "note": 36, "vel": 110, "len": 1}]}, {"bar": 8, "events": [{"step": 0, "note": 36, "vel": 120, "len": 1}, {"step": 3, "note": 36, "vel": 110, "len": 1}, {"step": 4, "note": 36, "vel": 100, "len": 1}, {"step": 5, "note": 36, "vel": 110, "len": 1}, {"step": 7, "note": 36, "vel": 120, "len": 1}]}], "Snare": [{"bar": 1, "events": [{"step": 2, "note": 38, "vel": 125, "len": 1}, {"step": 6, "note": 38, "vel": 125, "len": 1}]}, {"bar": 2, "events": [{"step": 2, "note": 38, "vel": 125, "len": 1}, {"step": 6, "note": 38, "vel": 125, "len": 1}]}, {"bar": 3, "events": [{"step": 2, "note": 38, "vel": 125, "len": 1}, {"step": 6, "note": 38, "vel": 125, "len": 1}]}, {"bar": 4, "events": [{"step": 2, "note": 38, "vel": 125, "len": 1}, {"step": 6, "note": 38, "vel": 125, "len": 1}]}, {"bar": 5, "events": [{"step": 2, "note": 38, "vel": 125, "len": 1}, {"step": 6, "note": 38, "vel": 125, "len": 1}]}, {"bar": 6, "events": [{"step": 2, "note": 38, "vel": 125, "len": 1}, {"step": 6, "note": 38, "vel": 125, "len": 1}]}, {"bar": 7, "events": [{"step": 2, "note": 38, "vel": 125, "len": 1}, {"step": 6, "note": 38, "vel": 125, "len": 1}]}, {"bar": 8, "events": [{"step": 2, "note": 38, "vel": 125, "len": 1}, {"step": 6, "note": 38, "vel": 125, "len": 1}, {"step": 7, "note": 38, "vel": 100, "len": 1}]}], "Hat": [{"bar": 1, "events": [{"step": 0, "note": 42, "vel": 90, "len": 1}, {"step": 1, "note": 42, "vel": 80, "len": 1}, {"step": 2, "note": 42, "vel": 90, "len": 1}, {"step": 3, "note": 42, "vel": 80, "len": 1}, {"step": 4, "note": 42, "vel": 90, "len": 1}, {"step": 5, "note": 42, "vel": 80, "len": 1}, {"step": 6, "note": 42, "vel": 90, "len": 1}, {"step": 7, "note": 42, "vel": 80, "len": 1}]}, {"bar": 2, "events": [{"step": 0, "note": 42, "vel": 90, "len": 1}, {"step": 1, "note": 42, "vel": 80, "len": 1}, {"step": 2, "note": 42, "vel": 90, "len": 1}, {"step": 3, "note": 42, "vel": 80, "len": 1}, {"step": 4, "note": 42, "vel": 90, "len": 1}, {"step": 5, "note": 42, "vel": 80, "len": 1}, {"step": 6, "note": 42, "vel": 90, "len": 1}, {"step": 7, "note": 42, "vel": 80, "len": 1}]}, {"bar": 3, "events": [{"step": 0, "note": 42, "vel": 90, "len": 1}, {"step": 1, "note": 42, "vel": 80, "len": 1}, {"step": 2, "note": 42, "vel": 90, "len": 1}, {"step": 3, "note": 42, "vel": 80, "len": 1}, {"step": 4, "note": 42, "vel": 90, "len": 1}, {"step": 5, "note": 42, "vel": 80, "len": 1}, {"step": 6, "note": 42, "vel": 90, "len": 1}, {"step": 7, "note": 42, "vel": 80, "len": 1}]}, {"bar": 4, "events": [{"step": 0, "note": 42, "vel": 90, "len": 1}, {"step": 1, "note": 42, "vel": 80, "len": 1}, {"step": 2, "note": 42, "vel": 90, "len": 1}, {"step": 3, "note": 42, "vel": 80, "len": 1}, {"step": 4, "note": 42, "vel": 90, "len": 1}, {"step": 5, "note": 42, "vel": 80, "len": 1}, {"step": 6, "note": 42, "vel": 90, "len": 1}, {"step": 7, "note": 42, "vel": 80, "len": 1}]}, {"bar": 5, "events": [{"step": 0, "note": 42, "vel": 90, "len": 1}, {"step": 1, "note": 42, "vel": 80, "len": 1}, {"step": 2, "note": 42, "vel": 90, "len": 1}, {"step": 3, "note": 42, "vel": 80, "len": 1}, {"step": 4, "note": 42, "vel": 90, "len": 1}, {"step": 5, "note": 42, "vel": 80, "len": 1}, {"step": 6, "note": 42, "vel": 90, "len": 1}, {"step": 7, "note": 42, "vel": 80, "len": 1}]}, {"bar": 6, "events": [{"step": 0, "note": 42, "vel": 90, "len": 1}, {"step": 1, "note": 42, "vel": 80, "len": 1}, {"step": 2, "note": 42, "vel": 90, "len": 1}, {"step": 3, "note": 42, "vel": 80, "len": 1}, {"step": 4, "note": 42, "vel": 90, "len": 1}, {"step": 5, "note": 42, "vel": 80, "len": 1}, {"step": 6, "note": 42, "vel": 90, "len": 1}, {"step": 7, "note": 42, "vel": 80, "len": 1}]}, {"bar": 7, "events": [{"step": 0, "note": 42, "vel": 90, "len": 1}, {"step": 1, "note": 42, "vel": 80, "len": 1}, {"step": 2, "note": 42, "vel": 90, "len": 1}, {"step": 3, "note": 42, "vel": 80, "len": 1}, {"step": 4, "note": 42, "vel": 90, "len": 1}, {"step": 5, "note": 42, "vel": 80, "len": 1}, {"step": 6, "note": 42, "vel": 90, "len": 1}, {"step": 7, "note": 42, "vel": 80, "len": 1}]}, {"bar": 8, "events": [{"step": 0, "note": 42, "vel": 90, "len": 1}, {"step": 1, "note": 42, "vel": 80, "len": 1}, {"step": 2, "note": 42, "vel": 90, "len": 1}, {"step": 3, "note": 42, "vel": 80, "len": 1}, {"step": 4, "note": 42, "vel": 90, "len": 1}, {"step": 5, "note": 42, "vel": 80, "len": 1}, {"step": 6, "note": 42, "vel": 90, "len": 1}, {"step": 7, "note": 42, "vel": 80, "len": 1}]}], "Bass Guitar": [{"bar": 1, "events": [{"step": 0, "note": 36, "vel": 100, "len": 2}, {"step": 1, "note": 36, "vel": 90, "len": 1}, {"step": 3, "note": 39, "vel": 95, "len": 1}, {"step": 4, "note": 41, "vel": 95, "len": 2}, {"step": 6, "note": 43, "vel": 95, "len": 2}]}, {"bar": 2, "events": [{"step": 0, "note": 36, "vel": 100, "len": 2}, {"step": 3, "note": 39, "vel": 95, "len": 2}, {"step": 5, "note": 43, "vel": 95, "len": 2}, {"step": 7, "note": 46, "vel": 95, "len": 1}]}, {"bar": 3, "events": [{"step": 0, "note": 36, "vel": 100, "len": 2}, {"step": 1, "note": 36, "vel": 90, "len": 1}, {"step": 3, "note": 39, "vel": 95, "len": 1}, {"step": 4, "note": 41, "vel": 95, "len": 2}, {"step": 6, "note": 43, "vel": 95, "len": 2}]}, {"bar": 4, "events": [{"step": 0, "note": 36, "vel": 100, "len": 2}, {"step": 2, "note": 39, "vel": 95, "len": 2}, {"step": 4, "note": 41, "vel": 95, "len": 2}, {"step": 6, "note": 43, "vel": 95, "len": 1}, {"step": 7, "note": 46, "vel": 95, "len": 1}]}, {"bar": 5, "events": [{"step": 0, "note": 36, "vel": 100, "len": 2}, {"step": 1, "note": 36, "vel": 90, "len": 1}, {"step": 3, "note": 39, "vel": 95, "len": 1}, {"step": 4, "note": 41, "vel": 95, "len": 2}, {"step": 6, "note": 43, "vel": 95, "len": 2}]}, {"bar": 6, "events": [{"step": 0, "note": 36, "vel": 100, "len": 2}, {"step": 3, "note": 39, "vel": 95, "len": 2}, {"step": 5, "note": 43, "vel": 95, "len": 2}, {"step": 7, "note": 46, "vel": 95, "len": 1}]}, {"bar": 7, "events": [{"step": 0, "note": 36, "vel": 100, "len": 2}, {"step": 1, "note": 36, "vel": 90, "len": 1}, {"step": 3, "note": 39, "vel": 95, "len": 1}, {"step": 4, "note": 41, "vel": 95, "len": 2}, {"step": 6, "note": 43, "vel": 95, "len": 2}]}, {"bar": 8, "events": [{"step": 0, "note": 36, "vel": 100, "len": 2}, {"step": 2, "note": 39, "vel": 95, "len": 2}, {"step": 4, "note": 41, "vel": 95, "len": 2}, {"step": 6, "note": 43, "vel": 95, "len": 1}, {"step": 7, "note": 46, "vel": 95, "len": 1}]}], "Piano": [{"bar": 1, "events": [{"step": 2, "note": 60, "vel": 85, "len": 2}, {"step": 2, "note": 63, "vel": 85, "len": 2}, {"step": 2, "note": 67, "vel": 85, "len": 2}, {"step": 5, "note": 60, "vel": 85, "len": 2}, {"step": 5, "note": 63, "vel": 85, "len": 2}, {"step": 5, "note": 67, "vel": 85, "len": 2}]}, {"bar": 2, "events": [{"step": 2, "note": 60, "vel": 85, "len": 2}, {"step": 2, "note": 63, "vel": 85, "len": 2}, {"step": 2, "note": 67, "vel": 85, "len": 2}, {"step": 5, "note": 60, "vel": 85, "len": 2}, {"step": 5, "note": 63, "vel": 85, "len": 2}, {"step": 5, "note": 67, "vel": 85, "len": 2}]}, {"bar": 3, "events": [{"step": 2, "note": 60, "vel": 85, "len": 2}, {"step": 2, "note": 63, "vel": 85, "len": 2}, {"step": 2, "note": 67, "vel": 85, "len": 2}, {"step": 5, "note": 60, "vel": 85, "len": 2}, {"step": 5, "note": 63, "vel": 85, "len": 2}, {"step": 5, "note": 67, "vel": 85, "len": 2}]}, {"bar": 4, "events": [{"step": 2, "note": 60, "vel": 85, "len": 2}, {"step": 2, "note": 63, "vel": 85, "len": 2}, {"step": 2, "note": 67, "vel": 85, "len": 2}, {"step": 5, "note": 60, "vel": 85, "len": 2}, {"step": 5, "note": 63, "vel": 85, "len": 2}, {"step": 5, "note": 67, "vel": 85, "len": 2}]}, {"bar": 5, "events": [{"step": 2, "note": 60, "vel": 85, "len": 2}, {"step": 2, "note": 63, "vel": 85, "len": 2}, {"step": 2, "note": 67, "vel": 85, "len": 2}, {"step": 5, "note": 60, "vel": 85, "len": 2}, {"step": 5, "note": 63, "vel": 85, "len": 2}, {"step": 5, "note": 67, "vel": 85, "len": 2}]}, {"bar": 6, "events": [{"step": 2, "note": 60, "vel": 85, "len": 2}, {"step": 2, "note": 63, "vel": 85, "len": 2}, {"step": 2, "note": 67, "vel": 85, "len": 2}, {"step": 5, "note": 60, "vel": 85, "len": 2}, {"step": 5, "note": 63, "vel": 85, "len": 2}, {"step": 5, "note": 67, "vel": 85, "len": 2}]}, {"bar": 7, "events": [{"step": 2, "note": 60, "vel": 85, "len": 2}, {"step": 2, "note": 63, "vel": 85, "len": 2}, {"step": 2, "note": 67, "vel": 85, "len": 2}, {"step": 5, "note": 60, "vel": 85, "len": 2}, {"step": 5, "note": 63, "vel": 85, "len": 2}, {"step": 5, "note": 67, "vel": 85, "len": 2}]}, {"bar": 8, "events": [{"step": 2, "note": 60, "vel": 85, "len": 2}, {"step": 2, "note": 63, "vel": 85, "len": 2}, {"step": 2, "note": 67, "vel": 85, "len": 2}, {"step": 5, "note": 60, "vel": 85, "len": 2}, {"step": 5, "note": 63, "vel": 85, "len": 2}, {"step": 5, "note": 67, "vel": 85, "len": 2}]}], "Strings": [{"bar": 1, "events": [{"step": 0, "note": 72, "vel": 70, "len": 8}]}, {"bar": 2, "events": [{"step": 0, "note": 72, "vel": 70, "len": 8}]}, {"bar": 3, "events": [{"step": 0, "note": 72, "vel": 70, "len": 8}]}, {"bar": 4, "events": [{"step": 0, "note": 70, "vel": 70, "len": 8}]}, {"bar": 5, "events": [{"step": 0, "note": 72, "vel": 70, "len": 8}]}, {"bar": 6, "events": [{"step": 0, "note": 72, "vel": 70, "len": 8}]}, {"bar": 7, "events": [{"step": 0, "note": 72, "vel": 70, "len": 8}]}, {"bar": 8, "events": [{"step": 0, "note": 70, "vel": 70, "len": 8}]}], "Electric Guitar": [{"bar": 1, "events": [{"step": 7, "note": 58, "vel": 75, "len": 1}]}, {"bar": 2, "events": []}, {"bar": 3, "events": [{"step": 7, "note": 58, "vel": 75, "len": 1}]}, {"bar": 4, "events": []}, {"bar": 5, "events": [{"step": 7, "note": 58, "vel": 75, "len": 1}]}, {"bar": 6, "events": []}, {"bar": 7, "events": [{"step": 7, "note": 58, "vel": 75, "len": 1}]}, {"bar": 8, "events": []}]}, "meta": {"style": "90s West Coast Boom Bap", "mood": "Melancholic", "tempo": 92, "key": "C Minor", "bars": 8, "scale": "Minor", "meter": "4/4", "dynamic_profile": "Steady Groove", "arrangement_density": "Moderate", "harmonic_color": "Somber", "length_seconds": 30, "instrument_configs": [{"name": "Kick", "register": "Low", "role": "Percussion", "articulation": "Percussive", "dynamic_range": "Intense"}, {"name": "Snare", "register": "Mid", "role": "Percussion", "articulation": "Percussive", "dynamic_range": "Intense"}, {"name": "Hat", "register": "High", "role": "Percussion", "articulation": "Percussive", "dynamic_range": "Moderate"}, {"name": "Bass Guitar", "register": "Low", "role": "Bass", "articulation": "Legato", "dynamic_range": "Consistent"}, {"name": "Piano", "register": "Mid", "role": "Lead", "articulation": "Sustain", "dynamic_range": "Expressive"}, {"name": "Strings", "register": "Mid-High", "role": "Pad", "articulation": "Long", "dynamic_range": "Delicate"}, {"name": "Electric Guitar", "register": "Mid", "role": "Accompaniment", "articulation": "Legato", "dynamic_range": "Moderate"}], "instruments": ["Kick", "Snare", "Hat", "Bass Guitar", "Piano", "Strings", "Electric Guitar"]}}, "midi_per_instrument": null, "tracks": [{"instrument": "Kick", "enabled": true, "volume_db": 0.0, "pan": 0.0}, {"instrument": "Snare", "enabled": true, "volume_db": -3.0, "pan": 0.0}, {"instrument": "Hat", "enabled": true, "volume_db": -3.0, "pan": 0.0}, {"instrument": "Bass Guitar", "enabled": true, "volume_db": -3.0, "pan": 0.0}, {"instrument": "Piano", "enabled": true, "volume_db": -3.0, "pan": 0.0}, {"instrument": "Strings", "enabled": true, "volume_db": -3.0, "pan": 0.0}, {"instrument": "Electric Guitar", "enabled": true, "volume_db": -11.0, "pan": 0.0}], "selected_samples": {"Electric Guitar": "Instruments/Guitar/Guitar/Electric Guitar 01/12 DARK STAR METAL_D#3OGG.wav", "Strings": "Instruments/Strings/STR_B3RockRot_D#1.wav", "Piano": "Instruments/Piano/Piano 2/Gz_G1ogg.wav", "Bass Guitar": "Instruments/Guitar/Bass/FLStudio Bass 02/01 DEEPER PURPLE_PLUCK B0ogg.wav", "Hat": "Drums/Dance/Basic 808 HiHat.wav", "Snare": "Drums/Dance/Basic 808 Snare.wav", "Kick": "Drums/Dance/Basic 808 Kick.wav"}, "fadeout_seconds": 0.01}, "response": {"project_name": "90s ice cube melodical sad boombap", "run_id": "b603efedb6fd", "mix_wav_rel": "output\\b603efedb6fd\\90s ice cube melodical sad boombap_mix_1764801077.wav", "stems": [{"instrument": "Kick", "audio_rel": "output\\b603efedb6fd\\90s ice cube melodical sad boombap_Kick_1764801077.wav"}, {"instrument": "Snare", "audio_rel": "output\\b603efedb6fd\\90s ice cube melodical sad boombap_Snare_1764801077.wav"}, {"instrument": "Hat", "audio_rel": "output\\b603efedb6fd\\90s ice cube melodical sad boombap_Hat_1764801077.wav"}, {"instrument": "Bass Guitar", "audio_rel": "output\\b603efedb6fd\\90s ice cube melodical sad boombap_Bass Guitar_1764801077.wav"}, {"instrument": "Piano", "audio_rel": "output\\b603efedb6fd\\90s ice cube melodical sad boombap_Piano_1764801077.wav"}, {"instrument": "Strings", "audio_rel": "output\\b603efedb6fd\\90s ice cube melodical sad boombap_Strings_1764801077.wav"}, {"instrument": "Electric Guitar", "audio_rel": "output\\b603efedb6fd\\90s ice cube melodical sad boombap_Electric Guitar_1764801077.wav"}], "sample_rate": 44100, "duration_seconds": 30.0}}