{"pattern": [{"bar": 1, "events": [{"step": 0, "note": 36, "vel": 100, "len": 1}, {"step": 2, "note": 42, "vel": 80, "len": 1}, {"step": 4, "note": 38, "vel": 120, "len": 1}, {"step": 6, "note": 42, "vel": 80, "len": 1}]}, {"bar": 2, "events": [{"step": 0, "note": 36, "vel": 100, "len": 1}, {"step": 2, "note": 42, "vel": 80, "len": 1}, {"step": 4, "note": 38, "vel": 120, "len": 1}, {"step": 6, "note": 42, "vel": 80, "len": 1}]}, {"bar": 3, "events": [{"step": 0, "note": 36, "vel": 100, "len": 1}, {"step": 2, "note": 42, "vel": 80, "len": 1}, {"step": 4, "note": 38, "vel": 120, "len": 1}, {"step": 6, "note": 42, "vel": 80, "len": 1}]}, {"bar": 4, "events": [{"step": 0, "note": 36, "vel": 100, "len": 1}, {"step": 2, "note": 42, "vel": 80, "len": 1}, {"step": 4, "note": 38, "vel": 120, "len": 1}, {"step": 6, "note": 42, "vel": 80, "len": 1}]}, {"bar": 5, "events": [{"step": 0, "note": 36, "vel": 100, "len": 1}, {"step": 2, "note": 42, "vel": 80, "len": 1}, {"step": 4, "note": 38, "vel": 120, "len": 1}, {"step": 6, "note": 42, "vel": 80, "len": 1}]}, {"bar": 6, "events": [{"step": 0, "note": 36, "vel": 100, "len": 1}, {"step": 2, "note": 42, "vel": 80, "len": 1}, {"step": 4, "note": 38, "vel": 120, "len": 1}, {"step": 6, "note": 42, "vel": 80, "len": 1}]}, {"bar": 7, "events": [{"step": 0, "note": 36, "vel": 100, "len": 1}, {"step": 2, "note": 42, "vel": 80, "len": 1}, {"step": 4, "note": 38, "vel": 120, "len": 1}, {"step": 6, "note": 42, "vel": 80, "len": 1}]}, {"bar": 8, "events": [{"step": 0, "note": 36, "vel": 100, "len": 1}, {"step": 2, "note": 42, "vel": 80, "len": 1}, {"step": 4, "note": 38, "vel": 120, "len": 1}, {"step": 6, "note": 42, "vel": 80, "len": 1}]}, {"bar": 9, "events": [{"step": 0, "note": 36, "vel": 100, "len": 1}, {"step": 2, "note": 42, "vel": 80, "len": 1}, {"step": 4, "note": 38, "vel": 120, "len": 1}, {"step": 6, "note": 42, "vel": 80, "len": 1}]}, {"bar": 10, "events": [{"step": 0, "note": 36, "vel": 100, "len": 1}, {"step": 2, "note": 42, "vel": 80, "len": 1}, {"step": 4, "note": 38, "vel": 120, "len": 1}, {"step": 6, "note": 42, "vel": 80, "len": 1}]}, {"bar": 11, "events": [{"step": 0, "note": 36, "vel": 100, "len": 1}, {"step": 2, "note": 42, "vel": 80, "len": 1}, {"step": 4, "note": 38, "vel": 120, "len": 1}, {"step": 6, "note": 42, "vel": 80, "len": 1}]}, {"bar": 12, "events": [{"step": 0, "note": 36, "vel": 100, "len": 1}, {"step": 2, "note": 42, "vel": 80, "len": 1}, {"step": 4, "note": 38, "vel": 120, "len": 1}, {"step": 6, "note": 42, "vel": 80, "len": 1}]}, {"bar": 13, "events": [{"step": 0, "note": 36, "vel": 100, "len": 1}, {"step": 2, "note": 42, "vel": 80, "len": 1}, {"step": 4, "note": 38, "vel": 120, "len": 1}, {"step": 6, "note": 42, "vel": 80, "len": 1}]}, {"bar": 14, "events": [{"step": 0, "note": 36, "vel": 100, "len": 1}, {"step": 2, "note": 42, "vel": 80, "len": 1}, {"step": 4, "note": 38, "vel": 120, "len": 1}, {"step": 6, "note": 42, "vel": 80, "len": 1}]}, {"bar": 15, "events": [{"step": 0, "note": 36, "vel": 100, "len": 1}, {"step": 2, "note": 42, "vel": 80, "len": 1}, {"step": 4, "note": 38, "vel": 120, "len": 1}, {"step": 6, "note": 42, "vel": 80, "len": 1}]}, {"bar": 16, "events": [{"step": 0, "note": 36, "vel": 100, "len": 1}, {"step": 2, "note": 42, "vel": 80, "len": 1}, {"step": 4, "note": 38, "vel": 120, "len": 1}, {"step": 6, "note": 42, "vel": 80, "len": 1}]}], "layers": {"Piano": [{"bar": 1, "events": [{"step": 0, "note": 60, "vel": 80, "len": 2}, {"step": 2, "note": 64, "vel": 80, "len": 2}, {"step": 4, "note": 67, "vel": 80, "len": 2}, {"step": 6, "note": 71, "vel": 80, "len": 2}]}, {"bar": 2, "events": [{"step": 0, "note": 60, "vel": 80, "len": 2}, {"step": 2, "note": 64, "vel": 80, "len": 2}, {"step": 4, "note": 67, "vel": 80, "len": 2}, {"step": 6, "note": 71, "vel": 80, "len": 2}]}, {"bar": 3, "events": [{"step": 0, "note": 60, "vel": 80, "len": 2}, {"step": 2, "note": 64, "vel": 80, "len": 2}, {"step": 4, "note": 67, "vel": 80, "len": 2}, {"step": 6, "note": 71, "vel": 80, "len": 2}]}, {"bar": 4, "events": [{"step": 0, "note": 60, "vel": 80, "len": 2}, {"step": 2, "note": 64, "vel": 80, "len": 2}, {"step": 4, "note": 67, "vel": 80, "len": 2}, {"step": 6, "note": 71, "vel": 80, "len": 2}]}, {"bar": 5, "events": [{"step": 0, "note": 60, "vel": 80, "len": 2}, {"step": 2, "note": 64, "vel": 80, "len": 2}, {"step": 4, "note": 67, "vel": 80, "len": 2}, {"step": 6, "note": 71, "vel": 80, "len": 2}]}, {"bar": 6, "events": [{"step": 0, "note": 60, "vel": 80, "len": 2}, {"step": 2, "note": 64, "vel": 80, "len": 2}, {"step": 4, "note": 67, "vel": 80, "len": 2}, {"step": 6, "note": 71, "vel": 80, "len": 2}]}, {"bar": 7, "events": [{"step": 0, "note": 60, "vel": 80, "len": 2}, {"step": 2, "note": 64, "vel": 80, "len": 2}, {"step": 4, "note": 67, "vel": 80, "len": 2}, {"step": 6, "note": 71, "vel": 80, "len": 2}]}, {"bar": 8, "events": [{"step": 0, "note": 60, "vel": 80, "len": 2}, {"step": 2, "note": 64, "vel": 80, "len": 2}, {"step": 4, "note": 67, "vel": 80, "len": 2}, {"step": 6, "note": 71, "vel": 80, "len": 2}]}, {"bar": 9, "events": [{"step": 0, "note": 60, "vel": 80, "len": 2}, {"step": 2, "note": 64, "vel": 80, "len": 2}, {"step": 4, "note": 67, "vel": 80, "len": 2}, {"step": 6, "note": 71, "vel": 80, "len": 2}]}, {"bar": 10, "events": [{"step": 0, "note": 60, "vel": 80, "len": 2}, {"step": 2, "note": 64, "vel": 80, "len": 2}, {"step": 4, "note": 67, "vel": 80, "len": 2}, {"step": 6, "note": 71, "vel": 80, "len": 2}]}, {"bar": 11, "events": [{"step": 0, "note": 60, "vel": 80, "len": 2}, {"step": 2, "note": 64, "vel": 80, "len": 2}, {"step": 4, "note": 67, "vel": 80, "len": 2}, {"step": 6, "note": 71, "vel": 80, "len": 2}]}, {"bar": 12, "events": [{"step": 0, "note": 60, "vel": 80, "len": 2}, {"step": 2, "note": 64, "vel": 80, "len": 2}, {"step": 4, "note": 67, "vel": 80, "len": 2}, {"step": 6, "note": 71, "vel": 80, "len": 2}]}, {"bar": 13, "events": [{"step": 0, "note": 60, "vel": 80, "len": 2}, {"step": 2, "note": 64, "vel": 80, "len": 2}, {"step": 4, "note": 67, "vel": 80, "len": 2}, {"step": 6, "note": 71, "vel": 80, "len": 2}]}, {"bar": 14, "events": [{"step": 0, "note": 60, "vel": 80, "len": 2}, {"step": 2, "note": 64, "vel": 80, "len": 2}, {"step": 4, "note": 67, "vel": 80, "len": 2}, {"step": 6, "note": 71, "vel": 80, "len": 2}]}, {"bar": 15, "events": [{"step": 0, "note": 60, "vel": 80, "len": 2}, {"step": 2, "note": 64, "vel": 80, "len": 2}, {"step": 4, "note": 67, "vel": 80, "len": 2}, {"step": 6, "note": 71, "vel": 80, "len": 2}]}, {"bar": 16, "events": [{"step": 0, "note": 60, "vel": 80, "len": 2}, {"step": 2, "note": 64, "vel": 80, "len": 2}, {"step": 4, "note": 67, "vel": 80, "len": 2}, {"step": 6, "note": 71, "vel": 80, "len": 2}]}], "Acoustic Guitar": [{"bar": 1, "events": [{"step": 0, "note": 48, "vel": 60, "len": 4}, {"step": 4, "note": 52, "vel": 60, "len": 4}]}, {"bar": 2, "events": [{"step": 0, "note": 48, "vel": 60, "len": 4}, {"step": 4, "note": 52, "vel": 60, "len": 4}]}, {"bar": 3, "events": [{"step": 0, "note": 48, "vel": 60, "len": 4}, {"step": 4, "note": 52, "vel": 60, "len": 4}]}, {"bar": 4, "events": [{"step": 0, "note": 48, "vel": 60, "len": 4}, {"step": 4, "note": 52, "vel": 60, "len": 4}]}, {"bar": 5, "events": [{"step": 0, "note": 48, "vel": 60, "len": 4}, {"step": 4, "note": 52, "vel": 60, "len": 4}]}, {"bar": 6, "events": [{"step": 0, "note": 48, "vel": 60, "len": 4}, {"step": 4, "note": 52, "vel": 60, "len": 4}]}, {"bar": 7, "events": [{"step": 0, "note": 48, "vel": 60, "len": 4}, {"step": 4, "note": 52, "vel": 60, "len": 4}]}, {"bar": 8, "events": [{"step": 0, "note": 48, "vel": 60, "len": 4}, {"step": 4, "note": 52, "vel": 60, "len": 4}]}, {"bar": 9, "events": [{"step": 0, "note": 48, "vel": 60, "len": 4}, {"step": 4, "note": 52, "vel": 60, "len": 4}]}, {"bar": 10, "events": [{"step": 0, "note": 48, "vel": 60, "len": 4}, {"step": 4, "note": 52, "vel": 60, "len": 4}]}, {"bar": 11, "events": [{"step": 0, "note": 48, "vel": 60, "len": 4}, {"step": 4, "note": 52, "vel": 60, "len": 4}]}, {"bar": 12, "events": [{"step": 0, "note": 48, "vel": 60, "len": 4}, {"step": 4, "note": 52, "vel": 60, "len": 4}]}, {"bar": 13, "events": [{"step": 0, "note": 48, "vel": 60, "len": 4}, {"step": 4, "note": 52, "vel": 60, "len": 4}]}, {"bar": 14, "events": [{"step": 0, "note": 48, "vel": 60, "len": 4}, {"step": 4, "note": 52, "vel": 60, "len": 4}]}, {"bar": 15, "events": [{"step": 0, "note": 48, "vel": 60, "len": 4}, {"step": 4, "note": 52, "vel": 60, "len": 4}]}, {"bar": 16, "events": [{"step": 0, "note": 48, "vel": 60, "len": 4}, {"step": 4, "note": 52, "vel": 60, "len": 4}]}], "Strings": [{"bar": 1, "events": [{"step": 0, "note": 72, "vel": 40, "len": 8}]}, {"bar": 2, "events": [{"step": 0, "note": 72, "vel": 40, "len": 8}]}, {"bar": 3, "events": [{"step": 0, "note": 72, "vel": 40, "len": 8}]}, {"bar": 4, "events": [{"step": 0, "note": 72, "vel": 40, "len": 8}]}, {"bar": 5, "events": [{"step": 0, "note": 72, "vel": 40, "len": 8}]}, {"bar": 6, "events": [{"step": 0, "note": 72, "vel": 40, "len": 8}]}, {"bar": 7, "events": [{"step": 0, "note": 72, "vel": 40, "len": 8}]}, {"bar": 8, "events": [{"step": 0, "note": 72, "vel": 40, "len": 8}]}, {"bar": 9, "events": [{"step": 0, "note": 72, "vel": 40, "len": 8}]}, {"bar": 10, "events": [{"step": 0, "note": 72, "vel": 40, "len": 8}]}, {"bar": 11, "events": [{"step": 0, "note": 72, "vel": 40, "len": 8}]}, {"bar": 12, "events": [{"step": 0, "note": 72, "vel": 40, "len": 8}]}, {"bar": 13, "events": [{"step": 0, "note": 72, "vel": 40, "len": 8}]}, {"bar": 14, "events": [{"step": 0, "note": 72, "vel": 40, "len": 8}]}, {"bar": 15, "events": [{"step": 0, "note": 72, "vel": 40, "len": 8}]}, {"bar": 16, "events": [{"step": 0, "note": 72, "vel": 40, "len": 8}]}]}, "meta": {"tempo": 120, "key": "C Major", "scale": "Major", "style": "Experimental", "mood": "Neutral", "meter": "4/4", "dynamic_profile": "Moderate", "arrangement_density": "Medium", "harmonic_color": "Bright", "length_seconds": 64.0, "bars": 16, "instrument_configs": [{"name": "Piano", "register": "Mid", "role": "Lead", "articulation": "Legato", "dynamic_range": "Delicate"}, {"name": "Acoustic Guitar", "register": "Full", "role": "Accompaniment", "articulation": "Sustain", "dynamic_range": "Moderate"}, {"name": "Strings", "register": "High", "role": "Pad", "articulation": "Sustain", "dynamic_range": "Intense"}], "instruments": ["Piano", "Acoustic Guitar", "Strings"]}}