{"meta": {"style": "90s West Coast Boom Bap", "mood": "Melancholic", "tempo": 92, "key": "C Minor", "bars": 8, "scale": "Minor", "meter": "4/4", "dynamic_profile": "Steady Groove", "arrangement_density": "Moderate", "harmonic_color": "Somber", "length_seconds": 30.0, "instrument_configs": [{"name": "Kick", "register": "Low", "role": "Percussion", "articulation": "Percussive", "dynamic_range": "Intense"}, {"name": "Snare", "register": "Mid", "role": "Percussion", "articulation": "Percussive", "dynamic_range": "Intense"}, {"name": "Hat", "register": "High", "role": "Percussion", "articulation": "Percussive", "dynamic_range": "Moderate"}, {"name": "Bass Guitar", "register": "Low", "role": "Bass", "articulation": "Legato", "dynamic_range": "Consistent"}, {"name": "Piano", "register": "Mid", "role": "Lead", "articulation": "Sustain", "dynamic_range": "Expressive"}, {"name": "Strings", "register": "Mid-High", "role": "Pad", "articulation": "Long", "dynamic_range": "Delicate"}, {"name": "Electric Guitar", "register": "Mid", "role": "Accompaniment", "articulation": "Legato", "dynamic_range": "Moderate"}], "instruments": ["Kick", "Snare", "Hat", "Bass Guitar", "Piano", "Strings", "Electric Guitar"], "instrument": "Hat"}, "layers": {"Hat": [{"bar": 1, "events": [{"step": 0, "note": 42, "vel": 90, "len": 1}, {"step": 1, "note": 42, "vel": 80, "len": 1}, {"step": 2, "note": 42, "vel": 90, "len": 1}, {"step": 3, "note": 42, "vel": 80, "len": 1}, {"step": 4, "note": 42, "vel": 90, "len": 1}, {"step": 5, "note": 42, "vel": 80, "len": 1}, {"step": 6, "note": 42, "vel": 90, "len": 1}, {"step": 7, "note": 42, "vel": 80, "len": 1}]}, {"bar": 2, "events": [{"step": 0, "note": 42, "vel": 90, "len": 1}, {"step": 1, "note": 42, "vel": 80, "len": 1}, {"step": 2, "note": 42, "vel": 90, "len": 1}, {"step": 3, "note": 42, "vel": 80, "len": 1}, {"step": 4, "note": 42, "vel": 90, "len": 1}, {"step": 5, "note": 42, "vel": 80, "len": 1}, {"step": 6, "note": 42, "vel": 90, "len": 1}, {"step": 7, "note": 42, "vel": 80, "len": 1}]}, {"bar": 3, "events": [{"step": 0, "note": 42, "vel": 90, "len": 1}, {"step": 1, "note": 42, "vel": 80, "len": 1}, {"step": 2, "note": 42, "vel": 90, "len": 1}, {"step": 3, "note": 42, "vel": 80, "len": 1}, {"step": 4, "note": 42, "vel": 90, "len": 1}, {"step": 5, "note": 42, "vel": 80, "len": 1}, {"step": 6, "note": 42, "vel": 90, "len": 1}, {"step": 7, "note": 42, "vel": 80, "len": 1}]}, {"bar": 4, "events": [{"step": 0, "note": 42, "vel": 90, "len": 1}, {"step": 1, "note": 42, "vel": 80, "len": 1}, {"step": 2, "note": 42, "vel": 90, "len": 1}, {"step": 3, "note": 42, "vel": 80, "len": 1}, {"step": 4, "note": 42, "vel": 90, "len": 1}, {"step": 5, "note": 42, "vel": 80, "len": 1}, {"step": 6, "note": 42, "vel": 90, "len": 1}, {"step": 7, "note": 42, "vel": 80, "len": 1}]}, {"bar": 5, "events": [{"step": 0, "note": 42, "vel": 90, "len": 1}, {"step": 1, "note": 42, "vel": 80, "len": 1}, {"step": 2, "note": 42, "vel": 90, "len": 1}, {"step": 3, "note": 42, "vel": 80, "len": 1}, {"step": 4, "note": 42, "vel": 90, "len": 1}, {"step": 5, "note": 42, "vel": 80, "len": 1}, {"step": 6, "note": 42, "vel": 90, "len": 1}, {"step": 7, "note": 42, "vel": 80, "len": 1}]}, {"bar": 6, "events": [{"step": 0, "note": 42, "vel": 90, "len": 1}, {"step": 1, "note": 42, "vel": 80, "len": 1}, {"step": 2, "note": 42, "vel": 90, "len": 1}, {"step": 3, "note": 42, "vel": 80, "len": 1}, {"step": 4, "note": 42, "vel": 90, "len": 1}, {"step": 5, "note": 42, "vel": 80, "len": 1}, {"step": 6, "note": 42, "vel": 90, "len": 1}, {"step": 7, "note": 42, "vel": 80, "len": 1}]}, {"bar": 7, "events": [{"step": 0, "note": 42, "vel": 90, "len": 1}, {"step": 1, "note": 42, "vel": 80, "len": 1}, {"step": 2, "note": 42, "vel": 90, "len": 1}, {"step": 3, "note": 42, "vel": 80, "len": 1}, {"step": 4, "note": 42, "vel": 90, "len": 1}, {"step": 5, "note": 42, "vel": 80, "len": 1}, {"step": 6, "note": 42, "vel": 90, "len": 1}, {"step": 7, "note": 42, "vel": 80, "len": 1}]}, {"bar": 8, "events": [{"step": 0, "note": 42, "vel": 90, "len": 1}, {"step": 1, "note": 42, "vel": 80, "len": 1}, {"step": 2, "note": 42, "vel": 90, "len": 1}, {"step": 3, "note": 42, "vel": 80, "len": 1}, {"step": 4, "note": 42, "vel": 90, "len": 1}, {"step": 5, "note": 42, "vel": 80, "len": 1}, {"step": 6, "note": 42, "vel": 90, "len": 1}, {"step": 7, "note": 42, "vel": 80, "len": 1}]}]}, "pattern": [{"bar": 1, "events": [{"step": 0, "note": 42, "vel": 90, "len": 1}, {"step": 1, "note": 42, "vel": 80, "len": 1}, {"step": 2, "note": 42, "vel": 90, "len": 1}, {"step": 3, "note": 42, "vel": 80, "len": 1}, {"step": 4, "note": 42, "vel": 90, "len": 1}, {"step": 5, "note": 42, "vel": 80, "len": 1}, {"step": 6, "note": 42, "vel": 90, "len": 1}, {"step": 7, "note": 42, "vel": 80, "len": 1}]}, {"bar": 2, "events": [{"step": 0, "note": 42, "vel": 90, "len": 1}, {"step": 1, "note": 42, "vel": 80, "len": 1}, {"step": 2, "note": 42, "vel": 90, "len": 1}, {"step": 3, "note": 42, "vel": 80, "len": 1}, {"step": 4, "note": 42, "vel": 90, "len": 1}, {"step": 5, "note": 42, "vel": 80, "len": 1}, {"step": 6, "note": 42, "vel": 90, "len": 1}, {"step": 7, "note": 42, "vel": 80, "len": 1}]}, {"bar": 3, "events": [{"step": 0, "note": 42, "vel": 90, "len": 1}, {"step": 1, "note": 42, "vel": 80, "len": 1}, {"step": 2, "note": 42, "vel": 90, "len": 1}, {"step": 3, "note": 42, "vel": 80, "len": 1}, {"step": 4, "note": 42, "vel": 90, "len": 1}, {"step": 5, "note": 42, "vel": 80, "len": 1}, {"step": 6, "note": 42, "vel": 90, "len": 1}, {"step": 7, "note": 42, "vel": 80, "len": 1}]}, {"bar": 4, "events": [{"step": 0, "note": 42, "vel": 90, "len": 1}, {"step": 1, "note": 42, "vel": 80, "len": 1}, {"step": 2, "note": 42, "vel": 90, "len": 1}, {"step": 3, "note": 42, "vel": 80, "len": 1}, {"step": 4, "note": 42, "vel": 90, "len": 1}, {"step": 5, "note": 42, "vel": 80, "len": 1}, {"step": 6, "note": 42, "vel": 90, "len": 1}, {"step": 7, "note": 42, "vel": 80, "len": 1}]}, {"bar": 5, "events": [{"step": 0, "note": 42, "vel": 90, "len": 1}, {"step": 1, "note": 42, "vel": 80, "len": 1}, {"step": 2, "note": 42, "vel": 90, "len": 1}, {"step": 3, "note": 42, "vel": 80, "len": 1}, {"step": 4, "note": 42, "vel": 90, "len": 1}, {"step": 5, "note": 42, "vel": 80, "len": 1}, {"step": 6, "note": 42, "vel": 90, "len": 1}, {"step": 7, "note": 42, "vel": 80, "len": 1}]}, {"bar": 6, "events": [{"step": 0, "note": 42, "vel": 90, "len": 1}, {"step": 1, "note": 42, "vel": 80, "len": 1}, {"step": 2, "note": 42, "vel": 90, "len": 1}, {"step": 3, "note": 42, "vel": 80, "len": 1}, {"step": 4, "note": 42, "vel": 90, "len": 1}, {"step": 5, "note": 42, "vel": 80, "len": 1}, {"step": 6, "note": 42, "vel": 90, "len": 1}, {"step": 7, "note": 42, "vel": 80, "len": 1}]}, {"bar": 7, "events": [{"step": 0, "note": 42, "vel": 90, "len": 1}, {"step": 1, "note": 42, "vel": 80, "len": 1}, {"step": 2, "note": 42, "vel": 90, "len": 1}, {"step": 3, "note": 42, "vel": 80, "len": 1}, {"step": 4, "note": 42, "vel": 90, "len": 1}, {"step": 5, "note": 42, "vel": 80, "len": 1}, {"step": 6, "note": 42, "vel": 90, "len": 1}, {"step": 7, "note": 42, "vel": 80, "len": 1}]}, {"bar": 8, "events": [{"step": 0, "note": 42, "vel": 90, "len": 1}, {"step": 1, "note": 42, "vel": 80, "len": 1}, {"step": 2, "note": 42, "vel": 90, "len": 1}, {"step": 3, "note": 42, "vel": 80, "len": 1}, {"step": 4, "note": 42, "vel": 90, "len": 1}, {"step": 5, "note": 42, "vel": 80, "len": 1}, {"step": 6, "note": 42, "vel": 90, "len": 1}, {"step": 7, "note": 42, "vel": 80, "len": 1}]}]}