{"meta": {"status": "success", "tempo": 120, "key": "C", "scale": "Major", "style": "Pop", "mood": "Neutral", "meter": "4/4", "dynamic_profile": "Moderate", "arrangement_density": "Medium", "harmonic_color": "Diatonic", "length_seconds": 32.0, "bars": 16, "instrument_configs": [{"name": "Kick", "register": "Low", "role": "Percussion", "articulation": "Percussive", "dynamic_range": "Moderate"}], "instruments": ["Kick"], "instrument": "Kick"}, "layers": {}, "pattern": [{"bar": 1, "events": [{"step": 0, "note": 36, "vel": 100, "len": 2}, {"step": 3, "note": 36, "vel": 90, "len": 1}, {"step": 4, "note": 36, "vel": 100, "len": 2}]}, {"bar": 2, "events": [{"step": 0, "note": 36, "vel": 100, "len": 2}, {"step": 4, "note": 36, "vel": 100, "len": 2}]}, {"bar": 3, "events": [{"step": 0, "note": 36, "vel": 100, "len": 2}, {"step": 3, "note": 36, "vel": 90, "len": 1}, {"step": 4, "note": 36, "vel": 100, "len": 2}]}, {"bar": 4, "events": [{"step": 0, "note": 36, "vel": 100, "len": 2}, {"step": 4, "note": 36, "vel": 100, "len": 2}]}, {"bar": 5, "events": [{"step": 0, "note": 36, "vel": 100, "len": 2}, {"step": 3, "note": 36, "vel": 90, "len": 1}, {"step": 4, "note": 36, "vel": 100, "len": 2}]}, {"bar": 6, "events": [{"step": 0, "note": 36, "vel": 100, "len": 2}, {"step": 4, "note": 36, "vel": 100, "len": 2}]}, {"bar": 7, "events": [{"step": 0, "note": 36, "vel": 100, "len": 2}, {"step": 3, "note": 36, "vel": 90, "len": 1}, {"step": 4, "note": 36, "vel": 100, "len": 2}]}, {"bar": 8, "events": [{"step": 0, "note": 36, "vel": 100, "len": 2}, {"step": 4, "note": 36, "vel": 100, "len": 2}]}, {"bar": 9, "events": [{"step": 0, "note": 36, "vel": 100, "len": 2}, {"step": 3, "note": 36, "vel": 90, "len": 1}, {"step": 4, "note": 36, "vel": 100, "len": 2}]}, {"bar": 10, "events": [{"step": 0, "note": 36, "vel": 100, "len": 2}, {"step": 4, "note": 36, "vel": 100, "len": 2}]}, {"bar": 11, "events": [{"step": 0, "note": 36, "vel": 100, "len": 2}, {"step": 3, "note": 36, "vel": 90, "len": 1}, {"step": 4, "note": 36, "vel": 100, "len": 2}]}, {"bar": 12, "events": [{"step": 0, "note": 36, "vel": 100, "len": 2}, {"step": 4, "note": 36, "vel": 100, "len": 2}]}, {"bar": 13, "events": [{"step": 0, "note": 36, "vel": 100, "len": 2}, {"step": 3, "note": 36, "vel": 90, "len": 1}, {"step": 4, "note": 36, "vel": 100, "len": 2}]}, {"bar": 14, "events": [{"step": 0, "note": 36, "vel": 100, "len": 2}, {"step": 4, "note": 36, "vel": 100, "len": 2}]}, {"bar": 15, "events": [{"step": 0, "note": 36, "vel": 100, "len": 2}, {"step": 3, "note": 36, "vel": 90, "len": 1}, {"step": 4, "note": 36, "vel": 100, "len": 2}]}, {"bar": 16, "events": []}]}