{"Drums": {"meta": {"tempo": 128, "key": "C Major", "scale": "Major", "style": "Electronic", "mood": "Energetic", "meter": "4/4", "dynamic_profile": "High-Energy", "arrangement_density": "Medium", "harmonic_color": "Bright", "length_seconds": 120.0, "bars": 16, "instrument_configs": [{"name": "Piano", "register": "High", "role": "Lead", "articulation": "Staccato", "dynamic_range": "Intense"}, {"name": "Electric Guitar", "register": "Mid", "role": "Accompaniment", "articulation": "Legato", "dynamic_range": "Moderate"}, {"name": "Bass Guitar", "register": "Low", "role": "Bass", "articulation": "Sustain", "dynamic_range": "Delicate"}, {"name": "Drums", "register": "Full", "role": "Percussion", "articulation": "Percussive", "dynamic_range": "Intense"}], "instruments": ["Piano", "Electric Guitar", "Bass Guitar", "Drums"], "instrument": "Drums"}, "layers": {"Drums": [{"bar": 1, "events": [{"step": 1, "note": 44, "vel": 60, "len": 1}, {"step": 3, "note": 44, "vel": 60, "len": 1}, {"step": 5, "note": 44, "vel": 60, "len": 1}, {"step": 7, "note": 44, "vel": 60, "len": 1}]}, {"bar": 2, "events": [{"step": 1, "note": 44, "vel": 60, "len": 1}, {"step": 3, "note": 44, "vel": 60, "len": 1}, {"step": 5, "note": 44, "vel": 60, "len": 1}, {"step": 7, "note": 44, "vel": 60, "len": 1}]}, {"bar": 3, "events": [{"step": 1, "note": 44, "vel": 60, "len": 1}, {"step": 3, "note": 44, "vel": 60, "len": 1}, {"step": 5, "note": 44, "vel": 60, "len": 1}, {"step": 7, "note": 44, "vel": 60, "len": 1}]}, {"bar": 4, "events": [{"step": 1, "note": 44, "vel": 60, "len": 1}, {"step": 3, "note": 44, "vel": 60, "len": 1}, {"step": 5, "note": 44, "vel": 60, "len": 1}, {"step": 7, "note": 44, "vel": 60, "len": 1}]}, {"bar": 5, "events": [{"step": 1, "note": 44, "vel": 60, "len": 1}, {"step": 3, "note": 44, "vel": 60, "len": 1}, {"step": 5, "note": 44, "vel": 60, "len": 1}, {"step": 7, "note": 44, "vel": 60, "len": 1}]}, {"bar": 6, "events": [{"step": 1, "note": 44, "vel": 60, "len": 1}, {"step": 3, "note": 44, "vel": 60, "len": 1}, {"step": 5, "note": 44, "vel": 60, "len": 1}, {"step": 7, "note": 44, "vel": 60, "len": 1}]}, {"bar": 7, "events": [{"step": 1, "note": 44, "vel": 60, "len": 1}, {"step": 3, "note": 44, "vel": 60, "len": 1}, {"step": 5, "note": 44, "vel": 60, "len": 1}, {"step": 7, "note": 44, "vel": 60, "len": 1}]}, {"bar": 8, "events": [{"step": 1, "note": 44, "vel": 60, "len": 1}, {"step": 3, "note": 44, "vel": 60, "len": 1}, {"step": 5, "note": 44, "vel": 60, "len": 1}, {"step": 7, "note": 44, "vel": 60, "len": 1}]}, {"bar": 9, "events": [{"step": 1, "note": 44, "vel": 60, "len": 1}, {"step": 3, "note": 44, "vel": 60, "len": 1}, {"step": 5, "note": 44, "vel": 60, "len": 1}, {"step": 7, "note": 44, "vel": 60, "len": 1}]}, {"bar": 10, "events": [{"step": 1, "note": 44, "vel": 60, "len": 1}, {"step": 3, "note": 44, "vel": 60, "len": 1}, {"step": 5, "note": 44, "vel": 60, "len": 1}, {"step": 7, "note": 44, "vel": 60, "len": 1}]}, {"bar": 11, "events": [{"step": 1, "note": 44, "vel": 60, "len": 1}, {"step": 3, "note": 44, "vel": 60, "len": 1}, {"step": 5, "note": 44, "vel": 60, "len": 1}, {"step": 7, "note": 44, "vel": 60, "len": 1}]}, {"bar": 12, "events": [{"step": 1, "note": 44, "vel": 60, "len": 1}, {"step": 3, "note": 44, "vel": 60, "len": 1}, {"step": 5, "note": 44, "vel": 60, "len": 1}, {"step": 7, "note": 44, "vel": 60, "len": 1}]}, {"bar": 13, "events": [{"step": 1, "note": 44, "vel": 60, "len": 1}, {"step": 3, "note": 44, "vel": 60, "len": 1}, {"step": 5, "note": 44, "vel": 60, "len": 1}, {"step": 7, "note": 44, "vel": 60, "len": 1}]}, {"bar": 14, "events": [{"step": 1, "note": 44, "vel": 60, "len": 1}, {"step": 3, "note": 44, "vel": 60, "len": 1}, {"step": 5, "note": 44, "vel": 60, "len": 1}, {"step": 7, "note": 44, "vel": 60, "len": 1}]}, {"bar": 15, "events": [{"step": 1, "note": 44, "vel": 60, "len": 1}, {"step": 3, "note": 44, "vel": 60, "len": 1}, {"step": 5, "note": 44, "vel": 60, "len": 1}, {"step": 7, "note": 44, "vel": 60, "len": 1}]}, {"bar": 16, "events": [{"step": 1, "note": 44, "vel": 60, "len": 1}, {"step": 3, "note": 44, "vel": 60, "len": 1}, {"step": 5, "note": 44, "vel": 60, "len": 1}, {"step": 7, "note": 44, "vel": 60, "len": 1}]}]}, "pattern": [{"bar": 1, "events": [{"step": 1, "note": 44, "vel": 60, "len": 1}, {"step": 3, "note": 44, "vel": 60, "len": 1}, {"step": 5, "note": 44, "vel": 60, "len": 1}, {"step": 7, "note": 44, "vel": 60, "len": 1}]}, {"bar": 2, "events": [{"step": 1, "note": 44, "vel": 60, "len": 1}, {"step": 3, "note": 44, "vel": 60, "len": 1}, {"step": 5, "note": 44, "vel": 60, "len": 1}, {"step": 7, "note": 44, "vel": 60, "len": 1}]}, {"bar": 3, "events": [{"step": 1, "note": 44, "vel": 60, "len": 1}, {"step": 3, "note": 44, "vel": 60, "len": 1}, {"step": 5, "note": 44, "vel": 60, "len": 1}, {"step": 7, "note": 44, "vel": 60, "len": 1}]}, {"bar": 4, "events": [{"step": 1, "note": 44, "vel": 60, "len": 1}, {"step": 3, "note": 44, "vel": 60, "len": 1}, {"step": 5, "note": 44, "vel": 60, "len": 1}, {"step": 7, "note": 44, "vel": 60, "len": 1}]}, {"bar": 5, "events": [{"step": 1, "note": 44, "vel": 60, "len": 1}, {"step": 3, "note": 44, "vel": 60, "len": 1}, {"step": 5, "note": 44, "vel": 60, "len": 1}, {"step": 7, "note": 44, "vel": 60, "len": 1}]}, {"bar": 6, "events": [{"step": 1, "note": 44, "vel": 60, "len": 1}, {"step": 3, "note": 44, "vel": 60, "len": 1}, {"step": 5, "note": 44, "vel": 60, "len": 1}, {"step": 7, "note": 44, "vel": 60, "len": 1}]}, {"bar": 7, "events": [{"step": 1, "note": 44, "vel": 60, "len": 1}, {"step": 3, "note": 44, "vel": 60, "len": 1}, {"step": 5, "note": 44, "vel": 60, "len": 1}, {"step": 7, "note": 44, "vel": 60, "len": 1}]}, {"bar": 8, "events": [{"step": 1, "note": 44, "vel": 60, "len": 1}, {"step": 3, "note": 44, "vel": 60, "len": 1}, {"step": 5, "note": 44, "vel": 60, "len": 1}, {"step": 7, "note": 44, "vel": 60, "len": 1}]}, {"bar": 9, "events": [{"step": 1, "note": 44, "vel": 60, "len": 1}, {"step": 3, "note": 44, "vel": 60, "len": 1}, {"step": 5, "note": 44, "vel": 60, "len": 1}, {"step": 7, "note": 44, "vel": 60, "len": 1}]}, {"bar": 10, "events": [{"step": 1, "note": 44, "vel": 60, "len": 1}, {"step": 3, "note": 44, "vel": 60, "len": 1}, {"step": 5, "note": 44, "vel": 60, "len": 1}, {"step": 7, "note": 44, "vel": 60, "len": 1}]}, {"bar": 11, "events": [{"step": 1, "note": 44, "vel": 60, "len": 1}, {"step": 3, "note": 44, "vel": 60, "len": 1}, {"step": 5, "note": 44, "vel": 60, "len": 1}, {"step": 7, "note": 44, "vel": 60, "len": 1}]}, {"bar": 12, "events": [{"step": 1, "note": 44, "vel": 60, "len": 1}, {"step": 3, "note": 44, "vel": 60, "len": 1}, {"step": 5, "note": 44, "vel": 60, "len": 1}, {"step": 7, "note": 44, "vel": 60, "len": 1}]}, {"bar": 13, "events": [{"step": 1, "note": 44, "vel": 60, "len": 1}, {"step": 3, "note": 44, "vel": 60, "len": 1}, {"step": 5, "note": 44, "vel": 60, "len": 1}, {"step": 7, "note": 44, "vel": 60, "len": 1}]}, {"bar": 14, "events": [{"step": 1, "note": 44, "vel": 60, "len": 1}, {"step": 3, "note": 44, "vel": 60, "len": 1}, {"step": 5, "note": 44, "vel": 60, "len": 1}, {"step": 7, "note": 44, "vel": 60, "len": 1}]}, {"bar": 15, "events": [{"step": 1, "note": 44, "vel": 60, "len": 1}, {"step": 3, "note": 44, "vel": 60, "len": 1}, {"step": 5, "note": 44, "vel": 60, "len": 1}, {"step": 7, "note": 44, "vel": 60, "len": 1}]}, {"bar": 16, "events": [{"step": 1, "note": 44, "vel": 60, "len": 1}, {"step": 3, "note": 44, "vel": 60, "len": 1}, {"step": 5, "note": 44, "vel": 60, "len": 1}, {"step": 7, "note": 44, "vel": 60, "len": 1}]}]}, "meta": {"meta": {"tempo": 128, "key": "C Major", "scale": "Major", "style": "Electronic", "mood": "Energetic", "meter": "4/4", "dynamic_profile": "High-Energy", "arrangement_density": "Medium", "harmonic_color": "Bright", "length_seconds": 120.0, "bars": 16, "instrument_configs": [{"name": "Piano", "register": "High", "role": "Lead", "articulation": "Staccato", "dynamic_range": "Intense"}, {"name": "Electric Guitar", "register": "Mid", "role": "Accompaniment", "articulation": "Legato", "dynamic_range": "Moderate"}, {"name": "Bass Guitar", "register": "Low", "role": "Bass", "articulation": "Sustain", "dynamic_range": "Delicate"}, {"name": "Drums", "register": "Full", "role": "Percussion", "articulation": "Percussive", "dynamic_range": "Intense"}], "instruments": ["Piano", "Electric Guitar", "Bass Guitar", "Drums"], "instrument": "meta"}, "layers": {}, "pattern": []}}