{"meta": {"status": "success", "tempo": 120, "key": "C", "scale": "Major", "style": "Pop", "mood": "Neutral", "meter": "4/4", "dynamic_profile": "Moderate", "arrangement_density": "Moderate", "harmonic_color": "Diatonic", "length_seconds": 32.0, "bars": 16, "instrument_configs": [{"name": "Piano", "register": "Mid", "role": "Accompaniment", "articulation": "Sustain", "dynamic_range": "Moderate"}], "instruments": ["Piano"], "instrument": "Piano"}, "layers": {"Piano": [{"bar": 0, "events": [{"step": 0, "note": 60, "vel": 90, "len": 2}, {"step": 0, "note": 64, "vel": 90, "len": 2}, {"step": 0, "note": 67, "vel": 90, "len": 2}, {"step": 4, "note": 62, "vel": 85, "len": 2}, {"step": 4, "note": 65, "vel": 85, "len": 2}, {"step": 4, "note": 69, "vel": 85, "len": 2}]}, {"bar": 1, "events": [{"step": 0, "note": 59, "vel": 90, "len": 2}, {"step": 0, "note": 62, "vel": 90, "len": 2}, {"step": 0, "note": 66, "vel": 90, "len": 2}, {"step": 4, "note": 55, "vel": 85, "len": 2}, {"step": 4, "note": 59, "vel": 85, "len": 2}, {"step": 4, "note": 62, "vel": 85, "len": 2}]}, {"bar": 2, "events": [{"step": 0, "note": 60, "vel": 90, "len": 2}, {"step": 0, "note": 64, "vel": 90, "len": 2}, {"step": 0, "note": 67, "vel": 90, "len": 2}, {"step": 4, "note": 62, "vel": 85, "len": 2}, {"step": 4, "note": 65, "vel": 85, "len": 2}, {"step": 4, "note": 69, "vel": 85, "len": 2}]}, {"bar": 3, "events": [{"step": 0, "note": 59, "vel": 90, "len": 2}, {"step": 0, "note": 62, "vel": 90, "len": 2}, {"step": 0, "note": 66, "vel": 90, "len": 2}, {"step": 4, "note": 55, "vel": 85, "len": 2}, {"step": 4, "note": 59, "vel": 85, "len": 2}, {"step": 4, "note": 62, "vel": 85, "len": 2}]}, {"bar": 4, "events": [{"step": 0, "note": 60, "vel": 95, "len": 2}, {"step": 0, "note": 64, "vel": 95, "len": 2}, {"step": 0, "note": 67, "vel": 95, "len": 2}, {"step": 4, "note": 62, "vel": 90, "len": 2}, {"step": 4, "note": 65, "vel": 90, "len": 2}, {"step": 4, "note": 69, "vel": 90, "len": 2}]}, {"bar": 5, "events": [{"step": 0, "note": 59, "vel": 95, "len": 2}, {"step": 0, "note": 62, "vel": 95, "len": 2}, {"step": 0, "note": 66, "vel": 95, "len": 2}, {"step": 4, "note": 55, "vel": 90, "len": 2}, {"step": 4, "note": 59, "vel": 90, "len": 2}, {"step": 4, "note": 62, "vel": 90, "len": 2}]}, {"bar": 6, "events": [{"step": 0, "note": 60, "vel": 95, "len": 2}, {"step": 0, "note": 64, "vel": 95, "len": 2}, {"step": 0, "note": 67, "vel": 95, "len": 2}, {"step": 4, "note": 62, "vel": 90, "len": 2}, {"step": 4, "note": 65, "vel": 90, "len": 2}, {"step": 4, "note": 69, "vel": 90, "len": 2}]}, {"bar": 7, "events": [{"step": 0, "note": 55, "vel": 95, "len": 4}, {"step": 0, "note": 59, "vel": 95, "len": 4}, {"step": 0, "note": 62, "vel": 95, "len": 4}]}, {"bar": 8, "events": [{"step": 0, "note": 60, "vel": 90, "len": 2}, {"step": 0, "note": 64, "vel": 90, "len": 2}, {"step": 0, "note": 67, "vel": 90, "len": 2}, {"step": 4, "note": 62, "vel": 85, "len": 2}, {"step": 4, "note": 65, "vel": 85, "len": 2}, {"step": 4, "note": 69, "vel": 85, "len": 2}]}, {"bar": 9, "events": [{"step": 0, "note": 59, "vel": 90, "len": 2}, {"step": 0, "note": 62, "vel": 90, "len": 2}, {"step": 0, "note": 66, "vel": 90, "len": 2}, {"step": 4, "note": 55, "vel": 85, "len": 2}, {"step": 4, "note": 59, "vel": 85, "len": 2}, {"step": 4, "note": 62, "vel": 85, "len": 2}]}, {"bar": 10, "events": [{"step": 0, "note": 60, "vel": 90, "len": 2}, {"step": 0, "note": 64, "vel": 90, "len": 2}, {"step": 0, "note": 67, "vel": 90, "len": 2}, {"step": 4, "note": 62, "vel": 85, "len": 2}, {"step": 4, "note": 65, "vel": 85, "len": 2}, {"step": 4, "note": 69, "vel": 85, "len": 2}]}, {"bar": 11, "events": [{"step": 0, "note": 59, "vel": 90, "len": 2}, {"step": 0, "note": 62, "vel": 90, "len": 2}, {"step": 0, "note": 66, "vel": 90, "len": 2}, {"step": 4, "note": 55, "vel": 85, "len": 2}, {"step": 4, "note": 59, "vel": 85, "len": 2}, {"step": 4, "note": 62, "vel": 85, "len": 2}]}, {"bar": 12, "events": [{"step": 0, "note": 60, "vel": 95, "len": 2}, {"step": 0, "note": 64, "vel": 95, "len": 2}, {"step": 0, "note": 67, "vel": 95, "len": 2}, {"step": 4, "note": 62, "vel": 90, "len": 2}, {"step": 4, "note": 65, "vel": 90, "len": 2}, {"step": 4, "note": 69, "vel": 90, "len": 2}]}, {"bar": 13, "events": [{"step": 0, "note": 59, "vel": 95, "len": 2}, {"step": 0, "note": 62, "vel": 95, "len": 2}, {"step": 0, "note": 66, "vel": 95, "len": 2}, {"step": 4, "note": 55, "vel": 90, "len": 2}, {"step": 4, "note": 59, "vel": 90, "len": 2}, {"step": 4, "note": 62, "vel": 90, "len": 2}]}, {"bar": 14, "events": [{"step": 0, "note": 60, "vel": 95, "len": 2}, {"step": 0, "note": 64, "vel": 95, "len": 2}, {"step": 0, "note": 67, "vel": 95, "len": 2}, {"step": 4, "note": 62, "vel": 90, "len": 2}, {"step": 4, "note": 65, "vel": 90, "len": 2}, {"step": 4, "note": 69, "vel": 90, "len": 2}]}, {"bar": 15, "events": [{"step": 0, "note": 55, "vel": 100, "len": 4}, {"step": 0, "note": 59, "vel": 100, "len": 4}, {"step": 0, "note": 62, "vel": 100, "len": 4}]}]}, "pattern": [{"bar": 0, "events": [{"step": 0, "note": 60, "vel": 90, "len": 2}, {"step": 0, "note": 64, "vel": 90, "len": 2}, {"step": 0, "note": 67, "vel": 90, "len": 2}, {"step": 4, "note": 62, "vel": 85, "len": 2}, {"step": 4, "note": 65, "vel": 85, "len": 2}, {"step": 4, "note": 69, "vel": 85, "len": 2}]}, {"bar": 1, "events": [{"step": 0, "note": 59, "vel": 90, "len": 2}, {"step": 0, "note": 62, "vel": 90, "len": 2}, {"step": 0, "note": 66, "vel": 90, "len": 2}, {"step": 4, "note": 55, "vel": 85, "len": 2}, {"step": 4, "note": 59, "vel": 85, "len": 2}, {"step": 4, "note": 62, "vel": 85, "len": 2}]}, {"bar": 2, "events": [{"step": 0, "note": 60, "vel": 90, "len": 2}, {"step": 0, "note": 64, "vel": 90, "len": 2}, {"step": 0, "note": 67, "vel": 90, "len": 2}, {"step": 4, "note": 62, "vel": 85, "len": 2}, {"step": 4, "note": 65, "vel": 85, "len": 2}, {"step": 4, "note": 69, "vel": 85, "len": 2}]}, {"bar": 3, "events": [{"step": 0, "note": 59, "vel": 90, "len": 2}, {"step": 0, "note": 62, "vel": 90, "len": 2}, {"step": 0, "note": 66, "vel": 90, "len": 2}, {"step": 4, "note": 55, "vel": 85, "len": 2}, {"step": 4, "note": 59, "vel": 85, "len": 2}, {"step": 4, "note": 62, "vel": 85, "len": 2}]}, {"bar": 4, "events": [{"step": 0, "note": 60, "vel": 95, "len": 2}, {"step": 0, "note": 64, "vel": 95, "len": 2}, {"step": 0, "note": 67, "vel": 95, "len": 2}, {"step": 4, "note": 62, "vel": 90, "len": 2}, {"step": 4, "note": 65, "vel": 90, "len": 2}, {"step": 4, "note": 69, "vel": 90, "len": 2}]}, {"bar": 5, "events": [{"step": 0, "note": 59, "vel": 95, "len": 2}, {"step": 0, "note": 62, "vel": 95, "len": 2}, {"step": 0, "note": 66, "vel": 95, "len": 2}, {"step": 4, "note": 55, "vel": 90, "len": 2}, {"step": 4, "note": 59, "vel": 90, "len": 2}, {"step": 4, "note": 62, "vel": 90, "len": 2}]}, {"bar": 6, "events": [{"step": 0, "note": 60, "vel": 95, "len": 2}, {"step": 0, "note": 64, "vel": 95, "len": 2}, {"step": 0, "note": 67, "vel": 95, "len": 2}, {"step": 4, "note": 62, "vel": 90, "len": 2}, {"step": 4, "note": 65, "vel": 90, "len": 2}, {"step": 4, "note": 69, "vel": 90, "len": 2}]}, {"bar": 7, "events": [{"step": 0, "note": 55, "vel": 95, "len": 4}, {"step": 0, "note": 59, "vel": 95, "len": 4}, {"step": 0, "note": 62, "vel": 95, "len": 4}]}, {"bar": 8, "events": [{"step": 0, "note": 60, "vel": 90, "len": 2}, {"step": 0, "note": 64, "vel": 90, "len": 2}, {"step": 0, "note": 67, "vel": 90, "len": 2}, {"step": 4, "note": 62, "vel": 85, "len": 2}, {"step": 4, "note": 65, "vel": 85, "len": 2}, {"step": 4, "note": 69, "vel": 85, "len": 2}]}, {"bar": 9, "events": [{"step": 0, "note": 59, "vel": 90, "len": 2}, {"step": 0, "note": 62, "vel": 90, "len": 2}, {"step": 0, "note": 66, "vel": 90, "len": 2}, {"step": 4, "note": 55, "vel": 85, "len": 2}, {"step": 4, "note": 59, "vel": 85, "len": 2}, {"step": 4, "note": 62, "vel": 85, "len": 2}]}, {"bar": 10, "events": [{"step": 0, "note": 60, "vel": 90, "len": 2}, {"step": 0, "note": 64, "vel": 90, "len": 2}, {"step": 0, "note": 67, "vel": 90, "len": 2}, {"step": 4, "note": 62, "vel": 85, "len": 2}, {"step": 4, "note": 65, "vel": 85, "len": 2}, {"step": 4, "note": 69, "vel": 85, "len": 2}]}, {"bar": 11, "events": [{"step": 0, "note": 59, "vel": 90, "len": 2}, {"step": 0, "note": 62, "vel": 90, "len": 2}, {"step": 0, "note": 66, "vel": 90, "len": 2}, {"step": 4, "note": 55, "vel": 85, "len": 2}, {"step": 4, "note": 59, "vel": 85, "len": 2}, {"step": 4, "note": 62, "vel": 85, "len": 2}]}, {"bar": 12, "events": [{"step": 0, "note": 60, "vel": 95, "len": 2}, {"step": 0, "note": 64, "vel": 95, "len": 2}, {"step": 0, "note": 67, "vel": 95, "len": 2}, {"step": 4, "note": 62, "vel": 90, "len": 2}, {"step": 4, "note": 65, "vel": 90, "len": 2}, {"step": 4, "note": 69, "vel": 90, "len": 2}]}, {"bar": 13, "events": [{"step": 0, "note": 59, "vel": 95, "len": 2}, {"step": 0, "note": 62, "vel": 95, "len": 2}, {"step": 0, "note": 66, "vel": 95, "len": 2}, {"step": 4, "note": 55, "vel": 90, "len": 2}, {"step": 4, "note": 59, "vel": 90, "len": 2}, {"step": 4, "note": 62, "vel": 90, "len": 2}]}, {"bar": 14, "events": [{"step": 0, "note": 60, "vel": 95, "len": 2}, {"step": 0, "note": 64, "vel": 95, "len": 2}, {"step": 0, "note": 67, "vel": 95, "len": 2}, {"step": 4, "note": 62, "vel": 90, "len": 2}, {"step": 4, "note": 65, "vel": 90, "len": 2}, {"step": 4, "note": 69, "vel": 90, "len": 2}]}, {"bar": 15, "events": [{"step": 0, "note": 55, "vel": 100, "len": 4}, {"step": 0, "note": 59, "vel": 100, "len": 4}, {"step": 0, "note": 62, "vel": 100, "len": 4}]}]}