{"meta": {"status": "success", "tempo": 125, "key": "E", "scale": "Minor", "style": "Alternative Rock", "mood": "Energetic", "meter": "4/4", "dynamic_profile": "Building", "arrangement_density": "High", "harmonic_color": "Raw", "length_seconds": 185.0, "bars": 96, "instrument_configs": [{"name": "Electric Guitar", "register": "High", "role": "Lead", "articulation": "Legato", "dynamic_range": "Intense"}, {"name": "Bass Guitar", "register": "Low", "role": "Bass", "articulation": "Sustain", "dynamic_range": "Moderate"}, {"name": "Kick", "register": "Sub", "role": "Percussion", "articulation": "Percussive", "dynamic_range": "Intense"}, {"name": "Snare", "register": "Mid", "role": "Percussion", "articulation": "Percussive", "dynamic_range": "Intense"}, {"name": "Hat", "register": "High", "role": "Percussion", "articulation": "Percussive", "dynamic_range": "Moderate"}, {"name": "Crash", "register": "Very High", "role": "Percussion", "articulation": "Percussive", "dynamic_range": "Fortissimo"}, {"name": "Ride", "register": "High", "role": "Percussion", "articulation": "Percussive", "dynamic_range": "Moderate"}, {"name": "Tom", "register": "Low", "role": "Percussion", "articulation": "Percussive", "dynamic_range": "Moderate"}], "instruments": ["Electric Guitar", "Bass Guitar", "Kick", "Snare", "Hat", "Crash", "Ride", "Tom"], "instrument": "Electric Guitar"}, "layers": {"Electric Guitar": [{"bar": 1, "events": [{"step": 0, "note": 52, "vel": 100, "len": 1}, {"step": 2, "note": 55, "vel": 95, "len": 1}, {"step": 4, "note": 57, "vel": 105, "len": 1}, {"step": 6, "note": 59, "vel": 100, "len": 1}]}, {"bar": 2, "events": [{"step": 0, "note": 52, "vel": 100, "len": 1}, {"step": 2, "note": 50, "vel": 95, "len": 1}, {"step": 4, "note": 48, "vel": 100, "len": 1}, {"step": 6, "note": 47, "vel": 100, "len": 1}]}, {"bar": 5, "events": [{"step": 0, "note": 52, "vel": 110, "len": 1}, {"step": 2, "note": 55, "vel": 105, "len": 1}, {"step": 4, "note": 57, "vel": 110, "len": 1}, {"step": 6, "note": 59, "vel": 110, "len": 1}]}, {"bar": 9, "events": [{"step": 0, "note": 52, "vel": 80, "len": 1}, {"step": 2, "note": 52, "vel": 80, "len": 1}, {"step": 4, "note": 55, "vel": 85, "len": 1}, {"step": 6, "note": 52, "vel": 80, "len": 1}]}, {"bar": 25, "events": [{"step": 0, "note": 52, "vel": 120, "len": 4}, {"step": 0, "note": 59, "vel": 115, "len": 4}, {"step": 4, "note": 52, "vel": 120, "len": 4}, {"step": 4, "note": 59, "vel": 115, "len": 4}]}, {"bar": 26, "events": [{"step": 0, "note": 60, "vel": 120, "len": 4}, {"step": 0, "note": 67, "vel": 115, "len": 4}, {"step": 4, "note": 60, "vel": 120, "len": 4}, {"step": 4, "note": 67, "vel": 115, "len": 4}]}, {"bar": 27, "events": [{"step": 0, "note": 55, "vel": 120, "len": 4}, {"step": 0, "note": 62, "vel": 115, "len": 4}, {"step": 4, "note": 55, "vel": 120, "len": 4}, {"step": 4, "note": 62, "vel": 115, "len": 4}]}, {"bar": 28, "events": [{"step": 0, "note": 50, "vel": 120, "len": 4}, {"step": 0, "note": 57, "vel": 115, "len": 4}, {"step": 4, "note": 50, "vel": 120, "len": 4}, {"step": 4, "note": 57, "vel": 115, "len": 4}]}, {"bar": 73, "events": [{"step": 0, "note": 52, "vel": 90, "len": 8}]}, {"bar": 81, "events": [{"step": 0, "note": 64, "vel": 127, "len": 1}, {"step": 1, "note": 67, "vel": 120, "len": 1}, {"step": 2, "note": 71, "vel": 125, "len": 1}, {"step": 3, "note": 69, "vel": 120, "len": 1}, {"step": 4, "note": 67, "vel": 120, "len": 1}, {"step": 5, "note": 64, "vel": 120, "len": 1}, {"step": 6, "note": 62, "vel": 115, "len": 1}, {"step": 7, "note": 59, "vel": 115, "len": 1}]}]}, "pattern": [{"bar": 1, "events": [{"step": 0, "note": 52, "vel": 100, "len": 1}, {"step": 2, "note": 55, "vel": 95, "len": 1}, {"step": 4, "note": 57, "vel": 105, "len": 1}, {"step": 6, "note": 59, "vel": 100, "len": 1}]}, {"bar": 2, "events": [{"step": 0, "note": 52, "vel": 100, "len": 1}, {"step": 2, "note": 50, "vel": 95, "len": 1}, {"step": 4, "note": 48, "vel": 100, "len": 1}, {"step": 6, "note": 47, "vel": 100, "len": 1}]}, {"bar": 5, "events": [{"step": 0, "note": 52, "vel": 110, "len": 1}, {"step": 2, "note": 55, "vel": 105, "len": 1}, {"step": 4, "note": 57, "vel": 110, "len": 1}, {"step": 6, "note": 59, "vel": 110, "len": 1}]}, {"bar": 9, "events": [{"step": 0, "note": 52, "vel": 80, "len": 1}, {"step": 2, "note": 52, "vel": 80, "len": 1}, {"step": 4, "note": 55, "vel": 85, "len": 1}, {"step": 6, "note": 52, "vel": 80, "len": 1}]}, {"bar": 25, "events": [{"step": 0, "note": 52, "vel": 120, "len": 4}, {"step": 0, "note": 59, "vel": 115, "len": 4}, {"step": 4, "note": 52, "vel": 120, "len": 4}, {"step": 4, "note": 59, "vel": 115, "len": 4}]}, {"bar": 26, "events": [{"step": 0, "note": 60, "vel": 120, "len": 4}, {"step": 0, "note": 67, "vel": 115, "len": 4}, {"step": 4, "note": 60, "vel": 120, "len": 4}, {"step": 4, "note": 67, "vel": 115, "len": 4}]}, {"bar": 27, "events": [{"step": 0, "note": 55, "vel": 120, "len": 4}, {"step": 0, "note": 62, "vel": 115, "len": 4}, {"step": 4, "note": 55, "vel": 120, "len": 4}, {"step": 4, "note": 62, "vel": 115, "len": 4}]}, {"bar": 28, "events": [{"step": 0, "note": 50, "vel": 120, "len": 4}, {"step": 0, "note": 57, "vel": 115, "len": 4}, {"step": 4, "note": 50, "vel": 120, "len": 4}, {"step": 4, "note": 57, "vel": 115, "len": 4}]}, {"bar": 73, "events": [{"step": 0, "note": 52, "vel": 90, "len": 8}]}, {"bar": 81, "events": [{"step": 0, "note": 64, "vel": 127, "len": 1}, {"step": 1, "note": 67, "vel": 120, "len": 1}, {"step": 2, "note": 71, "vel": 125, "len": 1}, {"step": 3, "note": 69, "vel": 120, "len": 1}, {"step": 4, "note": 67, "vel": 120, "len": 1}, {"step": 5, "note": 64, "vel": 120, "len": 1}, {"step": 6, "note": 62, "vel": 115, "len": 1}, {"step": 7, "note": 59, "vel": 115, "len": 1}]}]}