{"meta": {"tempo": 120, "key": "C", "scale": "Major", "style": "Unknown", "mood": "Unknown", "meter": "4/4", "dynamic_profile": "Moderate", "arrangement_density": "Balanced", "harmonic_color": "Warm", "length_seconds": 60.0, "bars": 8, "instrument_configs": [{"name": "Piano", "register": "Mid", "role": "Lead", "articulation": "Sustain", "dynamic_range": "Moderate"}, {"name": "Bass", "register": "Low", "role": "Bass", "articulation": "Legato", "dynamic_range": "Intense"}, {"name": "Drums", "register": "Full", "role": "Accompaniment", "articulation": "Percussive", "dynamic_range": "Delicate"}], "instruments": ["Piano", "Bass", "Drums"], "instrument": "Drums"}, "layers": {"Drums": [{"bar": 0, "events": [{"step": 0, "note": 36, "vel": 80, "len": 2}, {"step": 4, "note": 38, "vel": 80, "len": 2}]}, {"bar": 1, "events": [{"step": 1, "note": 36, "vel": 80, "len": 2}, {"step": 5, "note": 38, "vel": 80, "len": 2}]}, {"bar": 2, "events": [{"step": 2, "note": 36, "vel": 80, "len": 2}, {"step": 6, "note": 38, "vel": 80, "len": 2}]}, {"bar": 3, "events": [{"step": 3, "note": 36, "vel": 80, "len": 2}, {"step": 7, "note": 38, "vel": 80, "len": 2}]}, {"bar": 4, "events": [{"step": 0, "note": 36, "vel": 80, "len": 2}, {"step": 4, "note": 38, "vel": 80, "len": 2}]}, {"bar": 5, "events": [{"step": 1, "note": 36, "vel": 80, "len": 2}, {"step": 5, "note": 38, "vel": 80, "len": 2}]}, {"bar": 6, "events": [{"step": 2, "note": 36, "vel": 80, "len": 2}, {"step": 6, "note": 38, "vel": 80, "len": 2}]}, {"bar": 7, "events": [{"step": 3, "note": 36, "vel": 80, "len": 2}, {"step": 7, "note": 38, "vel": 80, "len": 2}]}]}, "pattern": [{"bar": 0, "events": [{"step": 0, "note": 36, "vel": 80, "len": 2}, {"step": 4, "note": 38, "vel": 80, "len": 2}]}, {"bar": 1, "events": [{"step": 1, "note": 36, "vel": 80, "len": 2}, {"step": 5, "note": 38, "vel": 80, "len": 2}]}, {"bar": 2, "events": [{"step": 2, "note": 36, "vel": 80, "len": 2}, {"step": 6, "note": 38, "vel": 80, "len": 2}]}, {"bar": 3, "events": [{"step": 3, "note": 36, "vel": 80, "len": 2}, {"step": 7, "note": 38, "vel": 80, "len": 2}]}, {"bar": 4, "events": [{"step": 0, "note": 36, "vel": 80, "len": 2}, {"step": 4, "note": 38, "vel": 80, "len": 2}]}, {"bar": 5, "events": [{"step": 1, "note": 36, "vel": 80, "len": 2}, {"step": 5, "note": 38, "vel": 80, "len": 2}]}, {"bar": 6, "events": [{"step": 2, "note": 36, "vel": 80, "len": 2}, {"step": 6, "note": 38, "vel": 80, "len": 2}]}, {"bar": 7, "events": [{"step": 3, "note": 36, "vel": 80, "len": 2}, {"step": 7, "note": 38, "vel": 80, "len": 2}]}]}