{"pattern": [{"bar": 0, "events": [{"step": 0, "note": 36, "vel": 127, "len": 1}, {"step": 1, "note": 46, "vel": 100, "len": 1}, {"step": 1, "note": 41, "vel": 110, "len": 1}, {"step": 1, "note": 53, "vel": 95, "len": 1}, {"step": 1, "note": 57, "vel": 95, "len": 1}, {"step": 1, "note": 60, "vel": 95, "len": 1}, {"step": 2, "note": 36, "vel": 127, "len": 1}, {"step": 2, "note": 38, "vel": 115, "len": 1}, {"step": 3, "note": 46, "vel": 100, "len": 1}, {"step": 3, "note": 41, "vel": 110, "len": 1}, {"step": 3, "note": 53, "vel": 95, "len": 1}, {"step": 3, "note": 57, "vel": 95, "len": 1}, {"step": 3, "note": 60, "vel": 95, "len": 1}, {"step": 4, "note": 36, "vel": 127, "len": 1}, {"step": 5, "note": 46, "vel": 100, "len": 1}, {"step": 5, "note": 41, "vel": 110, "len": 1}, {"step": 5, "note": 53, "vel": 95, "len": 1}, {"step": 5, "note": 57, "vel": 95, "len": 1}, {"step": 5, "note": 60, "vel": 95, "len": 1}, {"step": 6, "note": 36, "vel": 127, "len": 1}, {"step": 6, "note": 38, "vel": 115, "len": 1}, {"step": 7, "note": 46, "vel": 100, "len": 1}, {"step": 7, "note": 41, "vel": 110, "len": 1}, {"step": 7, "note": 53, "vel": 95, "len": 1}, {"step": 7, "note": 57, "vel": 95, "len": 1}, {"step": 7, "note": 60, "vel": 95, "len": 1}, {"step": 0, "note": 77, "vel": 85, "len": 8}]}, {"bar": 1, "events": [{"step": 0, "note": 36, "vel": 127, "len": 1}, {"step": 1, "note": 46, "vel": 100, "len": 1}, {"step": 1, "note": 41, "vel": 110, "len": 1}, {"step": 2, "note": 36, "vel": 127, "len": 1}, {"step": 2, "note": 38, "vel": 115, "len": 1}, {"step": 3, "note": 46, "vel": 100, "len": 1}, {"step": 3, "note": 41, "vel": 110, "len": 1}, {"step": 4, "note": 36, "vel": 127, "len": 1}, {"step": 5, "note": 46, "vel": 100, "len": 1}, {"step": 5, "note": 41, "vel": 110, "len": 1}, {"step": 6, "note": 36, "vel": 127, "len": 1}, {"step": 6, "note": 38, "vel": 115, "len": 1}, {"step": 7, "note": 46, "vel": 100, "len": 1}, {"step": 7, "note": 41, "vel": 110, "len": 1}, {"step": 0, "note": 77, "vel": 85, "len": 8}]}, {"bar": 8, "events": [{"step": 0, "note": 36, "vel": 127, "len": 1}, {"step": 0, "note": 81, "vel": 110, "len": 1}, {"step": 1, "note": 46, "vel": 100, "len": 1}, {"step": 1, "note": 41, "vel": 110, "len": 1}, {"step": 1, "note": 81, "vel": 110, "len": 1}, {"step": 2, "note": 36, "vel": 127, "len": 1}, {"step": 2, "note": 38, "vel": 115, "len": 1}, {"step": 2, "note": 39, "vel": 110, "len": 1}, {"step": 2, "note": 79, "vel": 110, "len": 1}, {"step": 3, "note": 46, "vel": 100, "len": 1}, {"step": 3, "note": 41, "vel": 110, "len": 1}, {"step": 3, "note": 77, "vel": 110, "len": 1}, {"step": 4, "note": 36, "vel": 127, "len": 1}, {"step": 4, "note": 79, "vel": 110, "len": 1}, {"step": 5, "note": 46, "vel": 100, "len": 1}, {"step": 5, "note": 41, "vel": 110, "len": 1}, {"step": 5, "note": 81, "vel": 110, "len": 1}, {"step": 6, "note": 36, "vel": 127, "len": 1}, {"step": 6, "note": 38, "vel": 115, "len": 1}, {"step": 6, "note": 39, "vel": 110, "len": 1}, {"step": 6, "note": 81, "vel": 110, "len": 1}, {"step": 7, "note": 46, "vel": 100, "len": 1}, {"step": 7, "note": 41, "vel": 110, "len": 1}]}], "layers": {"Kick": [{"bar": 0, "events": [{"step": 0, "note": 36, "vel": 127, "len": 1}, {"step": 2, "note": 36, "vel": 127, "len": 1}, {"step": 4, "note": 36, "vel": 127, "len": 1}, {"step": 6, "note": 36, "vel": 127, "len": 1}]}, {"bar": 1, "events": [{"step": 0, "note": 36, "vel": 127, "len": 1}, {"step": 2, "note": 36, "vel": 127, "len": 1}, {"step": 4, "note": 36, "vel": 127, "len": 1}, {"step": 6, "note": 36, "vel": 127, "len": 1}]}, {"bar": 8, "events": [{"step": 0, "note": 36, "vel": 127, "len": 1}, {"step": 2, "note": 36, "vel": 127, "len": 1}, {"step": 4, "note": 36, "vel": 127, "len": 1}, {"step": 6, "note": 36, "vel": 127, "len": 1}]}], "Snare": [{"bar": 0, "events": [{"step": 2, "note": 38, "vel": 115, "len": 1}, {"step": 6, "note": 38, "vel": 115, "len": 1}]}, {"bar": 1, "events": [{"step": 2, "note": 38, "vel": 115, "len": 1}, {"step": 6, "note": 38, "vel": 115, "len": 1}]}, {"bar": 8, "events": [{"step": 2, "note": 38, "vel": 115, "len": 1}, {"step": 6, "note": 38, "vel": 115, "len": 1}]}], "Hat": [{"bar": 0, "events": [{"step": 1, "note": 46, "vel": 100, "len": 1}, {"step": 3, "note": 46, "vel": 100, "len": 1}, {"step": 5, "note": 46, "vel": 100, "len": 1}, {"step": 7, "note": 46, "vel": 100, "len": 1}]}, {"bar": 1, "events": [{"step": 1, "note": 46, "vel": 100, "len": 1}, {"step": 3, "note": 46, "vel": 100, "len": 1}, {"step": 5, "note": 46, "vel": 100, "len": 1}, {"step": 7, "note": 46, "vel": 100, "len": 1}]}, {"bar": 8, "events": [{"step": 1, "note": 46, "vel": 100, "len": 1}, {"step": 3, "note": 46, "vel": 100, "len": 1}, {"step": 5, "note": 46, "vel": 100, "len": 1}, {"step": 7, "note": 46, "vel": 100, "len": 1}]}], "Clap": [{"bar": 8, "events": [{"step": 2, "note": 39, "vel": 110, "len": 1}, {"step": 6, "note": 39, "vel": 110, "len": 1}]}], "Bass": [{"bar": 0, "events": [{"step": 1, "note": 41, "vel": 110, "len": 1}, {"step": 3, "note": 41, "vel": 110, "len": 1}, {"step": 5, "note": 41, "vel": 110, "len": 1}, {"step": 7, "note": 41, "vel": 110, "len": 1}]}, {"bar": 1, "events": [{"step": 1, "note": 41, "vel": 110, "len": 1}, {"step": 3, "note": 41, "vel": 110, "len": 1}, {"step": 5, "note": 41, "vel": 110, "len": 1}, {"step": 7, "note": 41, "vel": 110, "len": 1}]}, {"bar": 8, "events": [{"step": 1, "note": 41, "vel": 110, "len": 1}, {"step": 3, "note": 41, "vel": 110, "len": 1}, {"step": 5, "note": 41, "vel": 110, "len": 1}, {"step": 7, "note": 41, "vel": 110, "len": 1}]}], "Piano": [{"bar": 0, "events": [{"step": 1, "note": 53, "vel": 95, "len": 1}, {"step": 1, "note": 57, "vel": 95, "len": 1}, {"step": 1, "note": 60, "vel": 95, "len": 1}, {"step": 3, "note": 53, "vel": 95, "len": 1}, {"step": 3, "note": 57, "vel": 95, "len": 1}, {"step": 3, "note": 60, "vel": 95, "len": 1}, {"step": 5, "note": 53, "vel": 95, "len": 1}, {"step": 5, "note": 57, "vel": 95, "len": 1}, {"step": 5, "note": 60, "vel": 95, "len": 1}, {"step": 7, "note": 53, "vel": 95, "len": 1}, {"step": 7, "note": 57, "vel": 95, "len": 1}, {"step": 7, "note": 60, "vel": 95, "len": 1}]}, {"bar": 8, "events": [{"step": 0, "note": 81, "vel": 110, "len": 1}, {"step": 1, "note": 81, "vel": 110, "len": 1}, {"step": 2, "note": 79, "vel": 110, "len": 1}, {"step": 3, "note": 77, "vel": 110, "len": 1}, {"step": 4, "note": 79, "vel": 110, "len": 1}, {"step": 5, "note": 81, "vel": 110, "len": 1}, {"step": 6, "note": 81, "vel": 110, "len": 1}]}], "Strings": [{"bar": 0, "events": [{"step": 0, "note": 77, "vel": 85, "len": 8}]}, {"bar": 1, "events": [{"step": 0, "note": 77, "vel": 85, "len": 8}]}]}, "meta": {"style": "Polish Disco Polo", "tempo": 128, "key": "F Major", "bars": 16, "scale": "Major", "mood": "Upbeat, Cheesy, Energetic, Celebratory", "meter": "4/4", "dynamic_profile": "High Energy", "arrangement_density": "Dense", "harmonic_color": "Bright", "length_seconds": 30.0, "instrument_configs": [{"name": "Kick", "register": "Low", "role": "Percussion", "articulation": "Percussive", "dynamic_range": "Intense"}, {"name": "Snare", "register": "Mid", "role": "Percussion", "articulation": "Percussive", "dynamic_range": "Intense"}, {"name": "Hat", "register": "High", "role": "Percussion", "articulation": "Staccato", "dynamic_range": "Moderate"}, {"name": "Clap", "register": "Mid", "role": "Percussion", "articulation": "Percussive", "dynamic_range": "Intense"}, {"name": "Bass", "register": "Low", "role": "Bass", "articulation": "Staccato", "dynamic_range": "Intense"}, {"name": "Piano", "register": "Mid", "role": "Lead", "articulation": "Staccato", "dynamic_range": "Moderate"}, {"name": "Strings", "register": "High", "role": "Pad", "articulation": "Legato", "dynamic_range": "Moderate"}], "instruments": ["Kick", "Snare", "Hat", "Clap", "Bass", "Piano", "Strings"]}}