{"request": {"project_name": "cosik", "run_id": "5d75fd6256d9", "user_id": 2, "midi": {"pattern": [{"bar": 1, "events": [{"step": 0, "note": 36, "vel": 80, "len": 1}, {"step": 2, "note": 42, "vel": 60, "len": 1}, {"step": 4, "note": 38, "vel": 90, "len": 1}, {"step": 6, "note": 42, "vel": 60, "len": 1}]}, {"bar": 2, "events": [{"step": 0, "note": 36, "vel": 80, "len": 1}, {"step": 3, "note": 42, "vel": 60, "len": 1}, {"step": 5, "note": 38, "vel": 90, "len": 1}, {"step": 7, "note": 42, "vel": 60, "len": 1}]}, {"bar": 3, "events": [{"step": 1, "note": 42, "vel": 60, "len": 1}, {"step": 3, "note": 38, "vel": 90, "len": 1}, {"step": 5, "note": 42, "vel": 60, "len": 1}, {"step": 7, "note": 36, "vel": 80, "len": 1}]}, {"bar": 4, "events": [{"step": 0, "note": 36, "vel": 80, "len": 1}, {"step": 2, "note": 42, "vel": 60, "len": 1}, {"step": 4, "note": 38, "vel": 90, "len": 1}, {"step": 6, "note": 42, "vel": 60, "len": 1}]}, {"bar": 5, "events": [{"step": 0, "note": 42, "vel": 60, "len": 1}, {"step": 2, "note": 38, "vel": 90, "len": 1}, {"step": 4, "note": 42, "vel": 60, "len": 1}, {"step": 6, "note": 36, "vel": 80, "len": 1}]}, {"bar": 6, "events": [{"step": 1, "note": 36, "vel": 80, "len": 1}, {"step": 3, "note": 42, "vel": 60, "len": 1}, {"step": 5, "note": 38, "vel": 90, "len": 1}, {"step": 7, "note": 42, "vel": 60, "len": 1}]}, {"bar": 7, "events": [{"step": 0, "note": 38, "vel": 90, "len": 1}, {"step": 2, "note": 42, "vel": 60, "len": 1}, {"step": 4, "note": 36, "vel": 80, "len": 1}, {"step": 6, "note": 42, "vel": 60, "len": 1}]}, {"bar": 8, "events": [{"step": 0, "note": 42, "vel": 60, "len": 1}, {"step": 2, "note": 36, "vel": 80, "len": 1}, {"step": 4, "note": 42, "vel": 60, "len": 1}, {"step": 6, "note": 38, "vel": 90, "len": 1}]}, {"bar": 9, "events": [{"step": 1, "note": 42, "vel": 60, "len": 1}, {"step": 3, "note": 38, "vel": 90, "len": 1}, {"step": 5, "note": 42, "vel": 60, "len": 1}, {"step": 7, "note": 36, "vel": 80, "len": 1}]}, {"bar": 10, "events": [{"step": 0, "note": 36, "vel": 80, "len": 1}, {"step": 2, "note": 42, "vel": 60, "len": 1}, {"step": 4, "note": 38, "vel": 90, "len": 1}, {"step": 6, "note": 42, "vel": 60, "len": 1}]}, {"bar": 11, "events": [{"step": 0, "note": 38, "vel": 90, "len": 1}, {"step": 2, "note": 42, "vel": 60, "len": 1}, {"step": 4, "note": 36, "vel": 80, "len": 1}, {"step": 6, "note": 42, "vel": 60, "len": 1}]}, {"bar": 12, "events": [{"step": 1, "note": 36, "vel": 80, "len": 1}, {"step": 3, "note": 42, "vel": 60, "len": 1}, {"step": 5, "note": 38, "vel": 90, "len": 1}, {"step": 7, "note": 42, "vel": 60, "len": 1}]}, {"bar": 13, "events": [{"step": 0, "note": 42, "vel": 60, "len": 1}, {"step": 2, "note": 38, "vel": 90, "len": 1}, {"step": 4, "note": 42, "vel": 60, "len": 1}, {"step": 6, "note": 36, "vel": 80, "len": 1}]}, {"bar": 14, "events": [{"step": 0, "note": 36, "vel": 80, "len": 1}, {"step": 2, "note": 42, "vel": 60, "len": 1}, {"step": 4, "note": 38, "vel": 90, "len": 1}, {"step": 6, "note": 42, "vel": 60, "len": 1}]}, {"bar": 15, "events": [{"step": 1, "note": 42, "vel": 60, "len": 1}, {"step": 3, "note": 38, "vel": 90, "len": 1}, {"step": 5, "note": 42, "vel": 60, "len": 1}, {"step": 7, "note": 36, "vel": 80, "len": 1}]}, {"bar": 16, "events": [{"step": 0, "note": 38, "vel": 90, "len": 1}, {"step": 2, "note": 42, "vel": 60, "len": 1}, {"step": 4, "note": 36, "vel": 80, "len": 1}, {"step": 6, "note": 42, "vel": 60, "len": 1}]}], "layers": {"Piano": [{"bar": 1, "events": [{"step": 0, "note": 60, "vel": 70, "len": 2}, {"step": 2, "note": 64, "vel": 60, "len": 2}, {"step": 4, "note": 67, "vel": 70, "len": 2}, {"step": 6, "note": 71, "vel": 60, "len": 2}]}, {"bar": 2, "events": [{"step": 0, "note": 60, "vel": 70, "len": 2}, {"step": 3, "note": 65, "vel": 60, "len": 2}, {"step": 5, "note": 68, "vel": 70, "len": 2}, {"step": 7, "note": 72, "vel": 60, "len": 2}]}, {"bar": 3, "events": [{"step": 1, "note": 62, "vel": 60, "len": 2}, {"step": 3, "note": 66, "vel": 70, "len": 2}, {"step": 5, "note": 69, "vel": 60, "len": 2}, {"step": 7, "note": 73, "vel": 70, "len": 2}]}, {"bar": 4, "events": [{"step": 0, "note": 60, "vel": 70, "len": 2}, {"step": 2, "note": 63, "vel": 60, "len": 2}, {"step": 4, "note": 67, "vel": 70, "len": 2}, {"step": 6, "note": 70, "vel": 60, "len": 2}]}, {"bar": 5, "events": [{"step": 0, "note": 61, "vel": 60, "len": 2}, {"step": 2, "note": 65, "vel": 70, "len": 2}, {"step": 4, "note": 68, "vel": 60, "len": 2}, {"step": 6, "note": 72, "vel": 70, "len": 2}]}, {"bar": 6, "events": [{"step": 1, "note": 60, "vel": 70, "len": 2}, {"step": 3, "note": 64, "vel": 60, "len": 2}, {"step": 5, "note": 67, "vel": 70, "len": 2}, {"step": 7, "note": 71, "vel": 60, "len": 2}]}, {"bar": 7, "events": [{"step": 0, "note": 62, "vel": 60, "len": 2}, {"step": 2, "note": 66, "vel": 70, "len": 2}, {"step": 4, "note": 69, "vel": 60, "len": 2}, {"step": 6, "note": 73, "vel": 70, "len": 2}]}, {"bar": 8, "events": [{"step": 0, "note": 61, "vel": 60, "len": 2}, {"step": 2, "note": 63, "vel": 70, "len": 2}, {"step": 4, "note": 68, "vel": 60, "len": 2}, {"step": 6, "note": 70, "vel": 70, "len": 2}]}, {"bar": 9, "events": [{"step": 1, "note": 60, "vel": 70, "len": 2}, {"step": 3, "note": 65, "vel": 60, "len": 2}, {"step": 5, "note": 67, "vel": 70, "len": 2}, {"step": 7, "note": 72, "vel": 60, "len": 2}]}, {"bar": 10, "events": [{"step": 0, "note": 62, "vel": 60, "len": 2}, {"step": 2, "note": 66, "vel": 70, "len": 2}, {"step": 4, "note": 69, "vel": 60, "len": 2}, {"step": 6, "note": 73, "vel": 70, "len": 2}]}, {"bar": 11, "events": [{"step": 0, "note": 61, "vel": 60, "len": 2}, {"step": 2, "note": 64, "vel": 70, "len": 2}, {"step": 4, "note": 68, "vel": 60, "len": 2}, {"step": 6, "note": 71, "vel": 70, "len": 2}]}, {"bar": 12, "events": [{"step": 1, "note": 60, "vel": 70, "len": 2}, {"step": 3, "note": 63, "vel": 60, "len": 2}, {"step": 5, "note": 67, "vel": 70, "len": 2}, {"step": 7, "note": 70, "vel": 60, "len": 2}]}, {"bar": 13, "events": [{"step": 0, "note": 62, "vel": 60, "len": 2}, {"step": 2, "note": 65, "vel": 70, "len": 2}, {"step": 4, "note": 69, "vel": 60, "len": 2}, {"step": 6, "note": 72, "vel": 70, "len": 2}]}, {"bar": 14, "events": [{"step": 0, "note": 61, "vel": 60, "len": 2}, {"step": 2, "note": 66, "vel": 70, "len": 2}, {"step": 4, "note": 68, "vel": 60, "len": 2}, {"step": 6, "note": 73, "vel": 70, "len": 2}]}, {"bar": 15, "events": [{"step": 1, "note": 60, "vel": 70, "len": 2}, {"step": 3, "note": 64, "vel": 60, "len": 2}, {"step": 5, "note": 67, "vel": 70, "len": 2}, {"step": 7, "note": 71, "vel": 60, "len": 2}]}, {"bar": 16, "events": [{"step": 0, "note": 62, "vel": 60, "len": 2}, {"step": 2, "note": 63, "vel": 70, "len": 2}, {"step": 4, "note": 69, "vel": 60, "len": 2}, {"step": 6, "note": 70, "vel": 70, "len": 2}]}], "Sax": [{"bar": 1, "events": [{"step": 0, "note": 72, "vel": 80, "len": 1}, {"step": 2, "note": 76, "vel": 70, "len": 1}, {"step": 4, "note": 77, "vel": 80, "len": 1}, {"step": 6, "note": 81, "vel": 70, "len": 1}]}, {"bar": 2, "events": [{"step": 0, "note": 72, "vel": 80, "len": 1}, {"step": 3, "note": 75, "vel": 70, "len": 1}, {"step": 5, "note": 79, "vel": 80, "len": 1}, {"step": 7, "note": 82, "vel": 70, "len": 1}]}, {"bar": 3, "events": [{"step": 1, "note": 74, "vel": 70, "len": 1}, {"step": 3, "note": 78, "vel": 80, "len": 1}, {"step": 5, "note": 80, "vel": 70, "len": 1}, {"step": 7, "note": 83, "vel": 80, "len": 1}]}, {"bar": 4, "events": [{"step": 0, "note": 72, "vel": 80, "len": 1}, {"step": 2, "note": 76, "vel": 70, "len": 1}, {"step": 4, "note": 77, "vel": 80, "len": 1}, {"step": 6, "note": 81, "vel": 70, "len": 1}]}, {"bar": 5, "events": [{"step": 0, "note": 73, "vel": 70, "len": 1}, {"step": 2, "note": 75, "vel": 80, "len": 1}, {"step": 4, "note": 79, "vel": 70, "len": 1}, {"step": 6, "note": 82, "vel": 80, "len": 1}]}, {"bar": 6, "events": [{"step": 1, "note": 72, "vel": 80, "len": 1}, {"step": 3, "note": 76, "vel": 70, "len": 1}, {"step": 5, "note": 77, "vel": 80, "len": 1}, {"step": 7, "note": 81, "vel": 70, "len": 1}]}, {"bar": 7, "events": [{"step": 0, "note": 74, "vel": 70, "len": 1}, {"step": 2, "note": 78, "vel": 80, "len": 1}, {"step": 4, "note": 80, "vel": 70, "len": 1}, {"step": 6, "note": 83, "vel": 80, "len": 1}]}, {"bar": 8, "events": [{"step": 0, "note": 73, "vel": 70, "len": 1}, {"step": 2, "note": 76, "vel": 80, "len": 1}, {"step": 4, "note": 79, "vel": 70, "len": 1}, {"step": 6, "note": 82, "vel": 80, "len": 1}]}, {"bar": 9, "events": [{"step": 1, "note": 72, "vel": 80, "len": 1}, {"step": 3, "note": 75, "vel": 70, "len": 1}, {"step": 5, "note": 77, "vel": 80, "len": 1}, {"step": 7, "note": 81, "vel": 70, "len": 1}]}, {"bar": 10, "events": [{"step": 0, "note": 74, "vel": 70, "len": 1}, {"step": 2, "note": 78, "vel": 80, "len": 1}, {"step": 4, "note": 80, "vel": 70, "len": 1}, {"step": 6, "note": 83, "vel": 80, "len": 1}]}, {"bar": 11, "events": [{"step": 0, "note": 73, "vel": 70, "len": 1}, {"step": 2, "note": 76, "vel": 80, "len": 1}, {"step": 4, "note": 79, "vel": 70, "len": 1}, {"step": 6, "note": 82, "vel": 80, "len": 1}]}, {"bar": 12, "events": [{"step": 1, "note": 72, "vel": 80, "len": 1}, {"step": 3, "note": 75, "vel": 70, "len": 1}, {"step": 5, "note": 77, "vel": 80, "len": 1}, {"step": 7, "note": 81, "vel": 70, "len": 1}]}, {"bar": 13, "events": [{"step": 0, "note": 74, "vel": 70, "len": 1}, {"step": 2, "note": 78, "vel": 80, "len": 1}, {"step": 4, "note": 80, "vel": 70, "len": 1}, {"step": 6, "note": 83, "vel": 80, "len": 1}]}, {"bar": 14, "events": [{"step": 0, "note": 73, "vel": 70, "len": 1}, {"step": 2, "note": 76, "vel": 80, "len": 1}, {"step": 4, "note": 79, "vel": 70, "len": 1}, {"step": 6, "note": 82, "vel": 80, "len": 1}]}, {"bar": 15, "events": [{"step": 1, "note": 72, "vel": 80, "len": 1}, {"step": 3, "note": 75, "vel": 70, "len": 1}, {"step": 5, "note": 77, "vel": 80, "len": 1}, {"step": 7, "note": 81, "vel": 70, "len": 1}]}, {"bar": 16, "events": [{"step": 0, "note": 74, "vel": 70, "len": 1}, {"step": 2, "note": 78, "vel": 80, "len": 1}, {"step": 4, "note": 80, "vel": 70, "len": 1}, {"step": 6, "note": 83, "vel": 80, "len": 1}]}], "Strings": [{"bar": 1, "events": [{"step": 0, "note": 48, "vel": 50, "len": 4}, {"step": 4, "note": 52, "vel": 50, "len": 4}]}, {"bar": 2, "events": [{"step": 0, "note": 48, "vel": 50, "len": 4}, {"step": 4, "note": 55, "vel": 50, "len": 4}]}, {"bar": 3, "events": [{"step": 0, "note": 50, "vel": 50, "len": 4}, {"step": 4, "note": 53, "vel": 50, "len": 4}]}, {"bar": 4, "events": [{"step": 0, "note": 48, "vel": 50, "len": 4}, {"step": 4, "note": 52, "vel": 50, "len": 4}]}, {"bar": 5, "events": [{"step": 0, "note": 50, "vel": 50, "len": 4}, {"step": 4, "note": 55, "vel": 50, "len": 4}]}, {"bar": 6, "events": [{"step": 0, "note": 48, "vel": 50, "len": 4}, {"step": 4, "note": 53, "vel": 50, "len": 4}]}, {"bar": 7, "events": [{"step": 0, "note": 50, "vel": 50, "len": 4}, {"step": 4, "note": 52, "vel": 50, "len": 4}]}, {"bar": 8, "events": [{"step": 0, "note": 48, "vel": 50, "len": 4}, {"step": 4, "note": 55, "vel": 50, "len": 4}]}, {"bar": 9, "events": [{"step": 0, "note": 50, "vel": 50, "len": 4}, {"step": 4, "note": 53, "vel": 50, "len": 4}]}, {"bar": 10, "events": [{"step": 0, "note": 48, "vel": 50, "len": 4}, {"step": 4, "note": 52, "vel": 50, "len": 4}]}, {"bar": 11, "events": [{"step": 0, "note": 50, "vel": 50, "len": 4}, {"step": 4, "note": 55, "vel": 50, "len": 4}]}, {"bar": 12, "events": [{"step": 0, "note": 48, "vel": 50, "len": 4}, {"step": 4, "note": 53, "vel": 50, "len": 4}]}, {"bar": 13, "events": [{"step": 0, "note": 50, "vel": 50, "len": 4}, {"step": 4, "note": 52, "vel": 50, "len": 4}]}, {"bar": 14, "events": [{"step": 0, "note": 48, "vel": 50, "len": 4}, {"step": 4, "note": 55, "vel": 50, "len": 4}]}, {"bar": 15, "events": [{"step": 0, "note": 50, "vel": 50, "len": 4}, {"step": 4, "note": 53, "vel": 50, "len": 4}]}, {"bar": 16, "events": [{"step": 0, "note": 48, "vel": 50, "len": 4}, {"step": 4, "note": 52, "vel": 50, "len": 4}]}], "meta": {}}, "meta": {"tempo": 90, "key": "C minor", "scale": "Natural minor", "style": "Experimental", "mood": "Melancholic", "meter": "4/4", "dynamic_profile": "Contrasting", "arrangement_density": "Medium", "harmonic_color": "Dissonant", "length_seconds": 107, "bars": 16, "instrument_configs": [{"name": "Piano", "register": "Mid", "role": "Lead", "articulation": "Legato", "dynamic_range": "Moderate"}, {"name": "Sax", "register": "High", "role": "Accompaniment", "articulation": "Staccato", "dynamic_range": "Intense"}, {"name": "Strings", "register": "Full", "role": "Pad", "articulation": "Sustain", "dynamic_range": "Delicate"}], "instruments": ["Piano", "Sax", "Strings"]}}, "midi_per_instrument": null, "tracks": [{"instrument": "Piano", "enabled": true, "volume_db": 0.0, "pan": 0.0}, {"instrument": "Sax", "enabled": true, "volume_db": -3.0, "pan": 0.0}, {"instrument": "Strings", "enabled": true, "volume_db": -3.0, "pan": 0.0}], "selected_samples": {"Strings": "Instruments/Orchestral/Strings/MIXO_C5(L)ogg.wav", "Sax": "Instruments/Orchestral/Tenor Sax/07_TSAX_LONG D2ogg.wav", "Piano": "Instruments/Piano/Piano 1/CHANGPIANOHARD_B3OGG.WAV"}, "fadeout_seconds": 0.01}, "response": {"project_name": "cosik1", "run_id": "5d75fd6256d9", "mix_wav_rel": "output\\5d75fd6256d9\\cosik_mix_1764876271.wav", "stems": [{"instrument": "Piano", "audio_rel": "output\\5d75fd6256d9\\cosik_Piano_1764876271.wav"}, {"instrument": "Sax", "audio_rel": "output\\5d75fd6256d9\\cosik_Sax_1764876271.wav"}, {"instrument": "Strings", "audio_rel": "output\\5d75fd6256d9\\cosik_Strings_1764876271.wav"}], "sample_rate": 44100, "duration_seconds": 107.0}}