{"request": {"project_name": "rock2", "run_id": "ce4489588eac", "midi": {"pattern": [{"bar": 1, "events": [{"step": 0, "note": 36, "vel": 110, "len": 1}, {"step": 0, "note": 42, "vel": 90, "len": 1}, {"step": 0, "note": 49, "vel": 115, "len": 2}, {"step": 0, "note": 28, "vel": 100, "len": 1}, {"step": 0, "note": 64, "vel": 105, "len": 2}, {"step": 1, "note": 42, "vel": 80, "len": 1}, {"step": 1, "note": 28, "vel": 95, "len": 1}, {"step": 2, "note": 38, "vel": 115, "len": 1}, {"step": 2, "note": 42, "vel": 95, "len": 1}, {"step": 2, "note": 28, "vel": 100, "len": 1}, {"step": 2, "note": 67, "vel": 100, "len": 2}, {"step": 3, "note": 42, "vel": 80, "len": 1}, {"step": 3, "note": 36, "vel": 100, "len": 1}, {"step": 3, "note": 28, "vel": 95, "len": 1}, {"step": 3, "note": 69, "vel": 100, "len": 2}, {"step": 4, "note": 42, "vel": 95, "len": 1}, {"step": 4, "note": 28, "vel": 100, "len": 1}, {"step": 4, "note": 64, "vel": 105, "len": 2}, {"step": 5, "note": 36, "vel": 110, "len": 1}, {"step": 5, "note": 42, "vel": 85, "len": 1}, {"step": 5, "note": 28, "vel": 95, "len": 1}, {"step": 6, "note": 38, "vel": 115, "len": 1}, {"step": 6, "note": 42, "vel": 95, "len": 1}, {"step": 6, "note": 28, "vel": 100, "len": 1}, {"step": 6, "note": 62, "vel": 95, "len": 2}, {"step": 7, "note": 42, "vel": 85, "len": 1}, {"step": 7, "note": 28, "vel": 95, "len": 1}, {"step": 7, "note": 59, "vel": 90, "len": 2}]}, {"bar": 2, "events": [{"step": 0, "note": 36, "vel": 110, "len": 1}, {"step": 0, "note": 42, "vel": 90, "len": 1}, {"step": 0, "note": 28, "vel": 100, "len": 1}, {"step": 0, "note": 64, "vel": 105, "len": 2}, {"step": 1, "note": 42, "vel": 80, "len": 1}, {"step": 1, "note": 28, "vel": 95, "len": 1}, {"step": 2, "note": 38, "vel": 115, "len": 1}, {"step": 2, "note": 42, "vel": 95, "len": 1}, {"step": 2, "note": 28, "vel": 100, "len": 1}, {"step": 2, "note": 67, "vel": 100, "len": 2}, {"step": 3, "note": 42, "vel": 80, "len": 1}, {"step": 3, "note": 36, "vel": 100, "len": 1}, {"step": 3, "note": 28, "vel": 95, "len": 1}, {"step": 3, "note": 69, "vel": 100, "len": 2}, {"step": 4, "note": 42, "vel": 95, "len": 1}, {"step": 4, "note": 28, "vel": 100, "len": 1}, {"step": 4, "note": 64, "vel": 105, "len": 2}, {"step": 5, "note": 36, "vel": 110, "len": 1}, {"step": 5, "note": 42, "vel": 85, "len": 1}, {"step": 5, "note": 28, "vel": 95, "len": 1}, {"step": 6, "note": 38, "vel": 115, "len": 1}, {"step": 6, "note": 42, "vel": 95, "len": 1}, {"step": 6, "note": 28, "vel": 100, "len": 1}, {"step": 6, "note": 62, "vel": 95, "len": 2}, {"step": 7, "note": 42, "vel": 85, "len": 1}, {"step": 7, "note": 28, "vel": 95, "len": 1}, {"step": 7, "note": 71, "vel": 90, "len": 2}]}, {"bar": 3, "events": [{"step": 0, "note": 36, "vel": 110, "len": 1}, {"step": 0, "note": 42, "vel": 90, "len": 1}, {"step": 0, "note": 28, "vel": 100, "len": 1}, {"step": 0, "note": 72, "vel": 105, "len": 2}, {"step": 1, "note": 42, "vel": 80, "len": 1}, {"step": 1, "note": 28, "vel": 95, "len": 1}, {"step": 2, "note": 38, "vel": 115, "len": 1}, {"step": 2, "note": 42, "vel": 95, "len": 1}, {"step": 2, "note": 28, "vel": 100, "len": 1}, {"step": 2, "note": 71, "vel": 100, "len": 2}, {"step": 3, "note": 42, "vel": 80, "len": 1}, {"step": 3, "note": 36, "vel": 100, "len": 1}, {"step": 3, "note": 28, "vel": 95, "len": 1}, {"step": 3, "note": 69, "vel": 100, "len": 2}, {"step": 4, "note": 42, "vel": 95, "len": 1}, {"step": 4, "note": 28, "vel": 100, "len": 1}, {"step": 4, "note": 64, "vel": 105, "len": 2}, {"step": 5, "note": 36, "vel": 110, "len": 1}, {"step": 5, "note": 42, "vel": 85, "len": 1}, {"step": 5, "note": 28, "vel": 95, "len": 1}, {"step": 6, "note": 38, "vel": 115, "len": 1}, {"step": 6, "note": 42, "vel": 95, "len": 1}, {"step": 6, "note": 28, "vel": 100, "len": 1}, {"step": 6, "note": 62, "vel": 95, "len": 2}, {"step": 7, "note": 42, "vel": 85, "len": 1}, {"step": 7, "note": 28, "vel": 95, "len": 1}, {"step": 7, "note": 59, "vel": 90, "len": 2}]}, {"bar": 4, "events": [{"step": 0, "note": 36, "vel": 110, "len": 1}, {"step": 0, "note": 42, "vel": 90, "len": 1}, {"step": 0, "note": 28, "vel": 100, "len": 1}, {"step": 0, "note": 64, "vel": 105, "len": 2}, {"step": 1, "note": 42, "vel": 80, "len": 1}, {"step": 1, "note": 28, "vel": 95, "len": 1}, {"step": 2, "note": 38, "vel": 115, "len": 1}, {"step": 2, "note": 42, "vel": 95, "len": 1}, {"step": 2, "note": 28, "vel": 100, "len": 1}, {"step": 3, "note": 42, "vel": 80, "len": 1}, {"step": 3, "note": 36, "vel": 100, "len": 1}, {"step": 3, "note": 28, "vel": 95, "len": 1}, {"step": 4, "note": 42, "vel": 95, "len": 1}, {"step": 4, "note": 28, "vel": 100, "len": 1}, {"step": 4, "note": 64, "vel": 105, "len": 2}, {"step": 5, "note": 36, "vel": 110, "len": 1}, {"step": 5, "note": 42, "vel": 85, "len": 1}, {"step": 5, "note": 28, "vel": 95, "len": 1}, {"step": 6, "note": 38, "vel": 115, "len": 1}, {"step": 6, "note": 36, "vel": 110, "len": 1}, {"step": 6, "note": 28, "vel": 100, "len": 1}, {"step": 7, "note": 38, "vel": 110, "len": 1}, {"step": 7, "note": 49, "vel": 110, "len": 1}, {"step": 7, "note": 28, "vel": 95, "len": 1}]}, {"bar": 5, "events": [{"step": 0, "note": 36, "vel": 115, "len": 1}, {"step": 0, "note": 49, "vel": 120, "len": 2}, {"step": 0, "note": 36, "vel": 110, "len": 1}, {"step": 0, "note": 60, "vel": 110, "len": 2}, {"step": 1, "note": 42, "vel": 85, "len": 1}, {"step": 1, "note": 36, "vel": 100, "len": 1}, {"step": 2, "note": 38, "vel": 120, "len": 1}, {"step": 2, "note": 42, "vel": 95, "len": 1}, {"step": 2, "note": 36, "vel": 105, "len": 1}, {"step": 2, "note": 64, "vel": 105, "len": 2}, {"step": 3, "note": 42, "vel": 85, "len": 1}, {"step": 3, "note": 36, "vel": 100, "len": 1}, {"step": 4, "note": 36, "vel": 110, "len": 1}, {"step": 4, "note": 42, "vel": 95, "len": 1}, {"step": 4, "note": 36, "vel": 105, "len": 1}, {"step": 4, "note": 60, "vel": 110, "len": 2}, {"step": 5, "note": 36, "vel": 115, "len": 1}, {"step": 5, "note": 42, "vel": 85, "len": 1}, {"step": 5, "note": 36, "vel": 100, "len": 1}, {"step": 6, "note": 38, "vel": 120, "len": 1}, {"step": 6, "note": 42, "vel": 95, "len": 1}, {"step": 6, "note": 36, "vel": 105, "len": 1}, {"step": 7, "note": 42, "vel": 85, "len": 1}, {"step": 7, "note": 36, "vel": 100, "len": 1}]}, {"bar": 6, "events": [{"step": 0, "note": 36, "vel": 115, "len": 1}, {"step": 0, "note": 42, "vel": 90, "len": 1}, {"step": 0, "note": 31, "vel": 105, "len": 1}, {"step": 0, "note": 55, "vel": 105, "len": 2}, {"step": 1, "note": 42, "vel": 85, "len": 1}, {"step": 1, "note": 31, "vel": 95, "len": 1}, {"step": 2, "note": 38, "vel": 120, "len": 1}, {"step": 2, "note": 42, "vel": 95, "len": 1}, {"step": 2, "note": 31, "vel": 100, "len": 1}, {"step": 3, "note": 42, "vel": 85, "len": 1}, {"step": 3, "note": 36, "vel": 100, "len": 1}, {"step": 3, "note": 31, "vel": 95, "len": 1}, {"step": 4, "note": 42, "vel": 95, "len": 1}, {"step": 4, "note": 31, "vel": 100, "len": 1}, {"step": 4, "note": 59, "vel": 105, "len": 2}, {"step": 5, "note": 36, "vel": 110, "len": 1}, {"step": 5, "note": 42, "vel": 85, "len": 1}, {"step": 5, "note": 31, "vel": 95, "len": 1}, {"step": 6, "note": 38, "vel": 120, "len": 1}, {"step": 6, "note": 42, "vel": 95, "len": 1}, {"step": 6, "note": 31, "vel": 100, "len": 1}, {"step": 7, "note": 42, "vel": 85, "len": 1}, {"step": 7, "note": 31, "vel": 95, "len": 1}]}], "layers": {"Electric Guitar": [{"bar": 1, "events": [{"step": 0, "note": 64, "vel": 105, "len": 2}, {"step": 2, "note": 67, "vel": 100, "len": 2}, {"step": 3, "note": 69, "vel": 100, "len": 2}, {"step": 4, "note": 64, "vel": 105, "len": 2}, {"step": 6, "note": 62, "vel": 95, "len": 2}, {"step": 7, "note": 59, "vel": 90, "len": 2}]}, {"bar": 2, "events": [{"step": 0, "note": 64, "vel": 105, "len": 2}, {"step": 2, "note": 67, "vel": 100, "len": 2}, {"step": 3, "note": 69, "vel": 100, "len": 2}, {"step": 4, "note": 64, "vel": 105, "len": 2}, {"step": 6, "note": 62, "vel": 95, "len": 2}, {"step": 7, "note": 71, "vel": 90, "len": 2}]}, {"bar": 3, "events": [{"step": 0, "note": 72, "vel": 105, "len": 2}, {"step": 2, "note": 71, "vel": 100, "len": 2}, {"step": 3, "note": 69, "vel": 100, "len": 2}, {"step": 4, "note": 64, "vel": 105, "len": 2}, {"step": 6, "note": 62, "vel": 95, "len": 2}, {"step": 7, "note": 59, "vel": 90, "len": 2}]}, {"bar": 4, "events": [{"step": 0, "note": 64, "vel": 105, "len": 2}, {"step": 4, "note": 64, "vel": 105, "len": 2}]}], "Bass Guitar": [{"bar": 1, "events": [{"step": 0, "note": 28, "vel": 100, "len": 1}, {"step": 1, "note": 28, "vel": 95, "len": 1}, {"step": 2, "note": 28, "vel": 100, "len": 1}, {"step": 3, "note": 28, "vel": 95, "len": 1}, {"step": 4, "note": 28, "vel": 100, "len": 1}, {"step": 5, "note": 28, "vel": 95, "len": 1}, {"step": 6, "note": 28, "vel": 100, "len": 1}, {"step": 7, "note": 28, "vel": 95, "len": 1}]}, {"bar": 2, "events": [{"step": 0, "note": 28, "vel": 100, "len": 1}, {"step": 1, "note": 28, "vel": 95, "len": 1}, {"step": 2, "note": 28, "vel": 100, "len": 1}, {"step": 3, "note": 28, "vel": 95, "len": 1}, {"step": 4, "note": 28, "vel": 100, "len": 1}, {"step": 5, "note": 28, "vel": 95, "len": 1}, {"step": 6, "note": 28, "vel": 100, "len": 1}, {"step": 7, "note": 28, "vel": 95, "len": 1}]}, {"bar": 3, "events": [{"step": 0, "note": 28, "vel": 100, "len": 1}, {"step": 1, "note": 28, "vel": 95, "len": 1}, {"step": 2, "note": 28, "vel": 100, "len": 1}, {"step": 3, "note": 28, "vel": 95, "len": 1}, {"step": 4, "note": 28, "vel": 100, "len": 1}, {"step": 5, "note": 28, "vel": 95, "len": 1}, {"step": 6, "note": 28, "vel": 100, "len": 1}, {"step": 7, "note": 28, "vel": 95, "len": 1}]}, {"bar": 4, "events": [{"step": 0, "note": 28, "vel": 100, "len": 1}, {"step": 1, "note": 28, "vel": 95, "len": 1}, {"step": 2, "note": 28, "vel": 100, "len": 1}, {"step": 3, "note": 28, "vel": 95, "len": 1}, {"step": 4, "note": 28, "vel": 100, "len": 1}, {"step": 5, "note": 28, "vel": 95, "len": 1}, {"step": 6, "note": 28, "vel": 100, "len": 1}, {"step": 7, "note": 28, "vel": 95, "len": 1}]}, {"bar": 5, "events": [{"step": 0, "note": 36, "vel": 100, "len": 1}, {"step": 1, "note": 36, "vel": 95, "len": 1}, {"step": 2, "note": 36, "vel": 100, "len": 1}, {"step": 3, "note": 36, "vel": 95, "len": 1}, {"step": 4, "note": 36, "vel": 100, "len": 1}, {"step": 5, "note": 36, "vel": 95, "len": 1}, {"step": 6, "note": 36, "vel": 100, "len": 1}, {"step": 7, "note": 36, "vel": 95, "len": 1}]}, {"bar": 6, "events": [{"step": 0, "note": 31, "vel": 100, "len": 1}, {"step": 1, "note": 31, "vel": 95, "len": 1}, {"step": 2, "note": 31, "vel": 100, "len": 1}, {"step": 3, "note": 31, "vel": 95, "len": 1}, {"step": 4, "note": 31, "vel": 100, "len": 1}, {"step": 5, "note": 31, "vel": 95, "len": 1}, {"step": 6, "note": 31, "vel": 100, "len": 1}, {"step": 7, "note": 31, "vel": 95, "len": 1}]}], "Kick": [{"bar": 1, "events": [{"step": 0, "note": 36, "vel": 110, "len": 1}, {"step": 3, "note": 36, "vel": 100, "len": 1}, {"step": 5, "note": 36, "vel": 110, "len": 1}]}, {"bar": 2, "events": [{"step": 0, "note": 36, "vel": 110, "len": 1}, {"step": 3, "note": 36, "vel": 100, "len": 1}, {"step": 5, "note": 36, "vel": 110, "len": 1}]}, {"bar": 3, "events": [{"step": 0, "note": 36, "vel": 110, "len": 1}, {"step": 3, "note": 36, "vel": 100, "len": 1}, {"step": 5, "note": 36, "vel": 110, "len": 1}]}, {"bar": 4, "events": [{"step": 0, "note": 36, "vel": 110, "len": 1}, {"step": 3, "note": 36, "vel": 100, "len": 1}, {"step": 5, "note": 36, "vel": 110, "len": 1}, {"step": 6, "note": 36, "vel": 110, "len": 1}]}], "Snare": [{"bar": 1, "events": [{"step": 2, "note": 38, "vel": 115, "len": 1}, {"step": 6, "note": 38, "vel": 115, "len": 1}]}, {"bar": 2, "events": [{"step": 2, "note": 38, "vel": 115, "len": 1}, {"step": 6, "note": 38, "vel": 115, "len": 1}]}, {"bar": 3, "events": [{"step": 2, "note": 38, "vel": 115, "len": 1}, {"step": 6, "note": 38, "vel": 115, "len": 1}]}, {"bar": 4, "events": [{"step": 2, "note": 38, "vel": 115, "len": 1}, {"step": 6, "note": 38, "vel": 115, "len": 1}, {"step": 7, "note": 38, "vel": 110, "len": 1}]}], "Hat": [{"bar": 1, "events": [{"step": 0, "note": 42, "vel": 90, "len": 1}, {"step": 1, "note": 42, "vel": 80, "len": 1}, {"step": 2, "note": 42, "vel": 95, "len": 1}, {"step": 3, "note": 42, "vel": 80, "len": 1}, {"step": 4, "note": 42, "vel": 95, "len": 1}, {"step": 5, "note": 42, "vel": 85, "len": 1}, {"step": 6, "note": 42, "vel": 95, "len": 1}, {"step": 7, "note": 42, "vel": 85, "len": 1}]}, {"bar": 2, "events": [{"step": 0, "note": 42, "vel": 90, "len": 1}, {"step": 1, "note": 42, "vel": 80, "len": 1}, {"step": 2, "note": 42, "vel": 95, "len": 1}, {"step": 3, "note": 42, "vel": 80, "len": 1}, {"step": 4, "note": 42, "vel": 95, "len": 1}, {"step": 5, "note": 42, "vel": 85, "len": 1}, {"step": 6, "note": 42, "vel": 95, "len": 1}, {"step": 7, "note": 42, "vel": 85, "len": 1}]}, {"bar": 3, "events": [{"step": 0, "note": 42, "vel": 90, "len": 1}, {"step": 1, "note": 42, "vel": 80, "len": 1}, {"step": 2, "note": 42, "vel": 95, "len": 1}, {"step": 3, "note": 42, "vel": 80, "len": 1}, {"step": 4, "note": 42, "vel": 95, "len": 1}, {"step": 5, "note": 42, "vel": 85, "len": 1}, {"step": 6, "note": 42, "vel": 95, "len": 1}, {"step": 7, "note": 42, "vel": 85, "len": 1}]}, {"bar": 4, "events": [{"step": 0, "note": 42, "vel": 90, "len": 1}, {"step": 1, "note": 42, "vel": 80, "len": 1}, {"step": 2, "note": 42, "vel": 95, "len": 1}, {"step": 3, "note": 42, "vel": 80, "len": 1}, {"step": 4, "note": 42, "vel": 95, "len": 1}, {"step": 5, "note": 42, "vel": 85, "len": 1}]}], "Crash": [{"bar": 1, "events": [{"step": 0, "note": 49, "vel": 115, "len": 2}]}, {"bar": 4, "events": [{"step": 7, "note": 49, "vel": 110, "len": 1}]}, {"bar": 5, "events": [{"step": 0, "note": 49, "vel": 120, "len": 2}]}]}, "meta": {"style": "Rock", "tempo": 128, "key": "E Minor", "meter": "4/4", "instrumentation": ["Electric Guitar", "Bass Guitar", "Kick", "Snare", "Hat", "Crash"], "scale": "Minor", "mood": "Vivid", "dynamic_profile": "Driving", "arrangement_density": "Medium-High", "harmonic_color": "Bright", "length_seconds": 30, "bars": 16, "instrument_configs": [{"name": "Electric Guitar", "register": "Mid-High", "role": "Lead", "articulation": "Sustain", "dynamic_range": "Intense"}, {"name": "Bass Guitar", "register": "Low", "role": "Bass", "articulation": "Legato", "dynamic_range": "Moderate"}, {"name": "Kick", "register": "Low", "role": "Percussion", "articulation": "Percussive", "dynamic_range": "Intense"}, {"name": "Snare", "register": "Mid", "role": "Percussion", "articulation": "Percussive", "dynamic_range": "Intense"}, {"name": "Hat", "register": "High", "role": "Percussion", "articulation": "Percussive", "dynamic_range": "Moderate"}, {"name": "Crash", "register": "High", "role": "Percussion", "articulation": "Percussive", "dynamic_range": "High"}], "instruments": ["Electric Guitar", "Bass Guitar", "Kick", "Snare", "Hat", "Crash"]}}, "midi_per_instrument": null, "tracks": [{"instrument": "Electric Guitar", "enabled": true, "volume_db": 0.0, "pan": 0.0}, {"instrument": "Bass Guitar", "enabled": true, "volume_db": -3.0, "pan": 0.0}, {"instrument": "Kick", "enabled": true, "volume_db": -3.0, "pan": 0.0}, {"instrument": "Snare", "enabled": true, "volume_db": -3.0, "pan": 0.0}, {"instrument": "Hat", "enabled": true, "volume_db": -3.0, "pan": 0.0}, {"instrument": "Crash", "enabled": true, "volume_db": -3.0, "pan": 0.0}], "selected_samples": {"Crash": "Drums/Kits/Drum Kit 04/FLS_Crash 04c.wav", "Hat": "Drums/HipHop/HIP_Hat_5.wav", "Snare": "Drums/HipHop/HIP_Snare_7.wav", "Kick": "Drums/Kits/Drum Kit 01/FLS_Kick 01.wav", "Bass Guitar": "Instruments/Guitar/Bass/FLStudio Bass 02/25 DEEPER PURPLE_PLUCK B2ogg.wav", "Electric Guitar": "Instruments/Guitar/Guitar/Electric Guitar 01/05 DARK STAR METAL_G#2OGG.wav"}, "fadeout_seconds": 0.01}, "response": {"project_name": "rocky hardboy", "run_id": "ce4489588eac", "mix_wav_rel": "output\\ce4489588eac\\rock2_mix_1764803949.wav", "stems": [{"instrument": "Electric Guitar", "audio_rel": "output\\ce4489588eac\\rock2_Electric Guitar_1764803949.wav"}, {"instrument": "Bass Guitar", "audio_rel": "output\\ce4489588eac\\rock2_Bass Guitar_1764803949.wav"}, {"instrument": "Kick", "audio_rel": "output\\ce4489588eac\\rock2_Kick_1764803949.wav"}, {"instrument": "Snare", "audio_rel": "output\\ce4489588eac\\rock2_Snare_1764803949.wav"}, {"instrument": "Hat", "audio_rel": "output\\ce4489588eac\\rock2_Hat_1764803949.wav"}, {"instrument": "Crash", "audio_rel": "output\\ce4489588eac\\rock2_Crash_1764803949.wav"}], "sample_rate": 44100, "duration_seconds": 30.0}}