{"meta": {"style": "Cinematic Lofi", "mood": "Nostalgic, Atmospheric, Relaxed", "tempo": 78, "key": "C Minor", "meter": "4/4", "bars": 16, "length_seconds": 49.2, "dynamic_profile": "Mellow with Swells", "arrangement_density": "Medium", "scale": "Minor", "harmonic_color": "Melancholic", "instrument_configs": [{"name": "Piano", "register": "Mid", "role": "Lead", "articulation": "Legato", "dynamic_range": "Delicate"}, {"name": "Bass Guitar", "register": "Low", "role": "Bass", "articulation": "Sustain", "dynamic_range": "Moderate"}, {"name": "Kick", "register": "Low", "role": "Percussion", "articulation": "Percussive", "dynamic_range": "Moderate"}, {"name": "Snare", "register": "Mid", "role": "Percussion", "articulation": "Percussive", "dynamic_range": "Moderate"}, {"name": "Hat", "register": "High", "role": "Percussion", "articulation": "Percussive", "dynamic_range": "Soft"}, {"name": "Strings", "register": "Mid-High", "role": "Accompaniment", "articulation": "Legato", "dynamic_range": "Swelling"}, {"name": "Pads", "register": "Full", "role": "Pad", "articulation": "Sustain", "dynamic_range": "Static"}], "instruments": ["Piano", "Bass Guitar", "Kick", "Snare", "Hat", "Strings", "Pads"], "instrument": "Piano"}, "layers": {"Piano": [{"bar": 0, "events": [{"step": 0, "note": 48, "vel": 55, "len": 8}, {"step": 0, "note": 51, "vel": 52, "len": 8}, {"step": 0, "note": 55, "vel": 50, "len": 8}, {"step": 0, "note": 62, "vel": 60, "len": 3}, {"step": 3, "note": 60, "vel": 55, "len": 2}, {"step": 6, "note": 63, "vel": 58, "len": 2}]}, {"bar": 1, "events": [{"step": 0, "note": 48, "vel": 53, "len": 8}, {"step": 0, "note": 51, "vel": 50, "len": 8}, {"step": 0, "note": 55, "vel": 48, "len": 8}, {"step": 2, "note": 67, "vel": 55, "len": 2}, {"step": 5, "note": 65, "vel": 52, "len": 3}]}, {"bar": 2, "events": [{"step": 0, "note": 44, "vel": 56, "len": 8}, {"step": 0, "note": 48, "vel": 54, "len": 8}, {"step": 0, "note": 51, "vel": 52, "len": 8}, {"step": 0, "note": 60, "vel": 62, "len": 4}, {"step": 4, "note": 58, "vel": 55, "len": 4}]}, {"bar": 3, "events": [{"step": 0, "note": 46, "vel": 55, "len": 8}, {"step": 0, "note": 50, "vel": 53, "len": 8}, {"step": 0, "note": 53, "vel": 50, "len": 8}, {"step": 0, "note": 65, "vel": 60, "len": 2}, {"step": 2, "note": 62, "vel": 58, "len": 2}, {"step": 6, "note": 58, "vel": 52, "len": 2}]}, {"bar": 4, "events": [{"step": 0, "note": 48, "vel": 60, "len": 8}, {"step": 0, "note": 51, "vel": 58, "len": 8}, {"step": 0, "note": 55, "vel": 55, "len": 8}, {"step": 0, "note": 72, "vel": 65, "len": 2}, {"step": 3, "note": 70, "vel": 60, "len": 2}]}, {"bar": 8, "events": [{"step": 0, "note": 41, "vel": 52, "len": 8}, {"step": 0, "note": 44, "vel": 50, "len": 8}, {"step": 0, "note": 48, "vel": 48, "len": 8}, {"step": 2, "note": 60, "vel": 55, "len": 2}, {"step": 6, "note": 65, "vel": 58, "len": 2}]}]}, "pattern": [{"bar": 0, "events": [{"step": 0, "note": 48, "vel": 55, "len": 8}, {"step": 0, "note": 51, "vel": 52, "len": 8}, {"step": 0, "note": 55, "vel": 50, "len": 8}, {"step": 0, "note": 62, "vel": 60, "len": 3}, {"step": 3, "note": 60, "vel": 55, "len": 2}, {"step": 6, "note": 63, "vel": 58, "len": 2}]}, {"bar": 1, "events": [{"step": 0, "note": 48, "vel": 53, "len": 8}, {"step": 0, "note": 51, "vel": 50, "len": 8}, {"step": 0, "note": 55, "vel": 48, "len": 8}, {"step": 2, "note": 67, "vel": 55, "len": 2}, {"step": 5, "note": 65, "vel": 52, "len": 3}]}, {"bar": 2, "events": [{"step": 0, "note": 44, "vel": 56, "len": 8}, {"step": 0, "note": 48, "vel": 54, "len": 8}, {"step": 0, "note": 51, "vel": 52, "len": 8}, {"step": 0, "note": 60, "vel": 62, "len": 4}, {"step": 4, "note": 58, "vel": 55, "len": 4}]}, {"bar": 3, "events": [{"step": 0, "note": 46, "vel": 55, "len": 8}, {"step": 0, "note": 50, "vel": 53, "len": 8}, {"step": 0, "note": 53, "vel": 50, "len": 8}, {"step": 0, "note": 65, "vel": 60, "len": 2}, {"step": 2, "note": 62, "vel": 58, "len": 2}, {"step": 6, "note": 58, "vel": 52, "len": 2}]}, {"bar": 4, "events": [{"step": 0, "note": 48, "vel": 60, "len": 8}, {"step": 0, "note": 51, "vel": 58, "len": 8}, {"step": 0, "note": 55, "vel": 55, "len": 8}, {"step": 0, "note": 72, "vel": 65, "len": 2}, {"step": 3, "note": 70, "vel": 60, "len": 2}]}, {"bar": 8, "events": [{"step": 0, "note": 41, "vel": 52, "len": 8}, {"step": 0, "note": 44, "vel": 50, "len": 8}, {"step": 0, "note": 48, "vel": 48, "len": 8}, {"step": 2, "note": 60, "vel": 55, "len": 2}, {"step": 6, "note": 65, "vel": 58, "len": 2}]}]}