{"request": {"project_name": "ambient lofi hip hop 2", "run_id": "c3d032fbefc8", "user_id": 2, "midi": {"pattern": [{"bar": 1, "events": [{"step": 0, "note": 36, "vel": 90, "len": 1}, {"step": 0, "note": 42, "vel": 65, "len": 1}, {"step": 0, "note": 29, "vel": 75, "len": 8}, {"step": 0, "note": 56, "vel": 60, "len": 8}, {"step": 0, "note": 60, "vel": 58, "len": 8}, {"step": 0, "note": 63, "vel": 62, "len": 8}, {"step": 0, "note": 67, "vel": 55, "len": 8}, {"step": 1, "note": 42, "vel": 50, "len": 1}, {"step": 2, "note": 38, "vel": 85, "len": 1}, {"step": 2, "note": 42, "vel": 60, "len": 1}, {"step": 3, "note": 42, "vel": 52, "len": 1}, {"step": 4, "note": 42, "vel": 62, "len": 1}, {"step": 5, "note": 36, "vel": 80, "len": 1}, {"step": 5, "note": 42, "vel": 55, "len": 1}, {"step": 6, "note": 38, "vel": 85, "len": 1}, {"step": 6, "note": 42, "vel": 60, "len": 1}, {"step": 7, "note": 42, "vel": 48, "len": 1}]}, {"bar": 2, "events": [{"step": 0, "note": 36, "vel": 90, "len": 1}, {"step": 0, "note": 42, "vel": 65, "len": 1}, {"step": 1, "note": 42, "vel": 50, "len": 1}, {"step": 2, "note": 38, "vel": 85, "len": 1}, {"step": 2, "note": 42, "vel": 60, "len": 1}, {"step": 3, "note": 42, "vel": 52, "len": 1}, {"step": 4, "note": 42, "vel": 62, "len": 1}, {"step": 4, "note": 68, "vel": 60, "len": 1}, {"step": 5, "note": 36, "vel": 80, "len": 1}, {"step": 5, "note": 42, "vel": 55, "len": 1}, {"step": 5, "note": 70, "vel": 58, "len": 1}, {"step": 6, "note": 38, "vel": 85, "len": 1}, {"step": 6, "note": 42, "vel": 60, "len": 1}, {"step": 7, "note": 42, "vel": 48, "len": 1}, {"step": 7, "note": 72, "vel": 55, "len": 1}]}, {"bar": 3, "events": [{"step": 0, "note": 36, "vel": 90, "len": 1}, {"step": 0, "note": 42, "vel": 65, "len": 1}, {"step": 0, "note": 34, "vel": 75, "len": 8}, {"step": 0, "note": 56, "vel": 60, "len": 8}, {"step": 0, "note": 60, "vel": 58, "len": 8}, {"step": 0, "note": 62, "vel": 62, "len": 8}, {"step": 0, "note": 67, "vel": 55, "len": 8}, {"step": 1, "note": 42, "vel": 50, "len": 1}, {"step": 2, "note": 38, "vel": 85, "len": 1}, {"step": 2, "note": 42, "vel": 60, "len": 1}, {"step": 3, "note": 42, "vel": 52, "len": 1}, {"step": 4, "note": 42, "vel": 62, "len": 1}, {"step": 5, "note": 36, "vel": 80, "len": 1}, {"step": 5, "note": 42, "vel": 55, "len": 1}, {"step": 6, "note": 38, "vel": 85, "len": 1}, {"step": 6, "note": 42, "vel": 60, "len": 1}, {"step": 7, "note": 42, "vel": 48, "len": 1}]}, {"bar": 4, "events": [{"step": 0, "note": 36, "vel": 90, "len": 1}, {"step": 0, "note": 42, "vel": 65, "len": 1}, {"step": 1, "note": 42, "vel": 50, "len": 1}, {"step": 2, "note": 38, "vel": 85, "len": 1}, {"step": 2, "note": 42, "vel": 60, "len": 1}, {"step": 3, "note": 42, "vel": 52, "len": 1}, {"step": 4, "note": 42, "vel": 62, "len": 1}, {"step": 5, "note": 36, "vel": 82, "len": 1}, {"step": 5, "note": 42, "vel": 55, "len": 1}, {"step": 6, "note": 38, "vel": 85, "len": 1}, {"step": 6, "note": 42, "vel": 60, "len": 1}, {"step": 7, "note": 42, "vel": 48, "len": 1}, {"step": 7, "note": 36, "vel": 70, "len": 1}]}], "layers": {"Piano": [{"bar": 1, "events": [{"step": 0, "note": 56, "vel": 60, "len": 8}, {"step": 0, "note": 60, "vel": 58, "len": 8}, {"step": 0, "note": 63, "vel": 62, "len": 8}, {"step": 0, "note": 67, "vel": 55, "len": 8}]}, {"bar": 2, "events": [{"step": 2, "note": 56, "vel": 55, "len": 4}, {"step": 2, "note": 60, "vel": 52, "len": 4}, {"step": 2, "note": 63, "vel": 58, "len": 4}, {"step": 2, "note": 67, "vel": 50, "len": 4}]}, {"bar": 3, "events": [{"step": 0, "note": 56, "vel": 60, "len": 8}, {"step": 0, "note": 60, "vel": 58, "len": 8}, {"step": 0, "note": 62, "vel": 62, "len": 8}, {"step": 0, "note": 67, "vel": 55, "len": 8}]}, {"bar": 4, "events": [{"step": 2, "note": 56, "vel": 55, "len": 4}, {"step": 2, "note": 60, "vel": 52, "len": 4}, {"step": 2, "note": 62, "vel": 58, "len": 4}, {"step": 2, "note": 67, "vel": 50, "len": 4}]}, {"bar": 5, "events": [{"step": 0, "note": 56, "vel": 60, "len": 8}, {"step": 0, "note": 60, "vel": 58, "len": 8}, {"step": 0, "note": 63, "vel": 62, "len": 8}, {"step": 0, "note": 67, "vel": 55, "len": 8}]}, {"bar": 7, "events": [{"step": 0, "note": 58, "vel": 60, "len": 8}, {"step": 0, "note": 63, "vel": 58, "len": 8}, {"step": 0, "note": 67, "vel": 62, "len": 8}]}, {"bar": 9, "events": [{"step": 0, "note": 56, "vel": 60, "len": 8}, {"step": 0, "note": 60, "vel": 58, "len": 8}, {"step": 0, "note": 63, "vel": 62, "len": 8}, {"step": 0, "note": 67, "vel": 55, "len": 8}]}, {"bar": 11, "events": [{"step": 0, "note": 56, "vel": 60, "len": 8}, {"step": 0, "note": 60, "vel": 58, "len": 8}, {"step": 0, "note": 62, "vel": 62, "len": 8}, {"step": 0, "note": 67, "vel": 55, "len": 8}]}, {"bar": 13, "events": [{"step": 0, "note": 61, "vel": 60, "len": 8}, {"step": 0, "note": 65, "vel": 58, "len": 8}, {"step": 0, "note": 68, "vel": 62, "len": 8}, {"step": 0, "note": 72, "vel": 55, "len": 8}]}, {"bar": 14, "events": [{"step": 0, "note": 60, "vel": 60, "len": 8}, {"step": 0, "note": 64, "vel": 58, "len": 8}, {"step": 0, "note": 68, "vel": 62, "len": 8}, {"step": 0, "note": 70, "vel": 55, "len": 8}]}, {"bar": 15, "events": [{"step": 0, "note": 56, "vel": 60, "len": 8}, {"step": 0, "note": 60, "vel": 58, "len": 8}, {"step": 0, "note": 63, "vel": 62, "len": 8}, {"step": 0, "note": 67, "vel": 55, "len": 8}]}], "Electric Guitar": [{"bar": 2, "events": [{"step": 4, "note": 68, "vel": 60, "len": 1}, {"step": 5, "note": 70, "vel": 58, "len": 1}, {"step": 7, "note": 72, "vel": 55, "len": 1}]}, {"bar": 6, "events": [{"step": 0, "note": 75, "vel": 62, "len": 2}, {"step": 2, "note": 72, "vel": 60, "len": 2}, {"step": 4, "note": 68, "vel": 58, "len": 2}]}, {"bar": 10, "events": [{"step": 1, "note": 65, "vel": 60, "len": 1}, {"step": 2, "note": 68, "vel": 55, "len": 1}, {"step": 4, "note": 63, "vel": 58, "len": 2}]}, {"bar": 16, "events": [{"step": 4, "note": 72, "vel": 60, "len": 1}, {"step": 5, "note": 75, "vel": 65, "len": 1}, {"step": 6, "note": 77, "vel": 62, "len": 2}]}], "Pads": [{"bar": 1, "events": [{"step": 0, "note": 60, "vel": 45, "len": 16}, {"step": 0, "note": 63, "vel": 45, "len": 16}]}, {"bar": 3, "events": [{"step": 0, "note": 60, "vel": 45, "len": 16}, {"step": 0, "note": 62, "vel": 45, "len": 16}]}, {"bar": 5, "events": [{"step": 0, "note": 60, "vel": 45, "len": 16}, {"step": 0, "note": 63, "vel": 45, "len": 16}]}, {"bar": 7, "events": [{"step": 0, "note": 63, "vel": 45, "len": 8}, {"step": 0, "note": 67, "vel": 45, "len": 8}]}, {"bar": 9, "events": [{"step": 0, "note": 60, "vel": 45, "len": 16}, {"step": 0, "note": 63, "vel": 45, "len": 16}]}, {"bar": 11, "events": [{"step": 0, "note": 60, "vel": 45, "len": 16}, {"step": 0, "note": 62, "vel": 45, "len": 16}]}, {"bar": 13, "events": [{"step": 0, "note": 65, "vel": 45, "len": 8}, {"step": 0, "note": 68, "vel": 45, "len": 8}]}, {"bar": 14, "events": [{"step": 0, "note": 64, "vel": 45, "len": 8}, {"step": 0, "note": 68, "vel": 45, "len": 8}]}, {"bar": 15, "events": [{"step": 0, "note": 60, "vel": 45, "len": 16}, {"step": 0, "note": 63, "vel": 45, "len": 16}]}], "Bass Guitar": [{"bar": 1, "events": [{"step": 0, "note": 29, "vel": 75, "len": 8}]}, {"bar": 2, "events": [{"step": 0, "note": 29, "vel": 70, "len": 4}, {"step": 6, "note": 31, "vel": 65, "len": 2}]}, {"bar": 3, "events": [{"step": 0, "note": 34, "vel": 75, "len": 8}]}, {"bar": 4, "events": [{"step": 0, "note": 34, "vel": 70, "len": 4}, {"step": 4, "note": 36, "vel": 65, "len": 2}]}, {"bar": 5, "events": [{"step": 0, "note": 29, "vel": 75, "len": 8}]}, {"bar": 6, "events": [{"step": 0, "note": 29, "vel": 70, "len": 8}]}, {"bar": 7, "events": [{"step": 0, "note": 36, "vel": 75, "len": 4}, {"step": 4, "note": 34, "vel": 75, "len": 4}]}, {"bar": 9, "events": [{"step": 0, "note": 29, "vel": 75, "len": 8}]}, {"bar": 10, "events": [{"step": 0, "note": 29, "vel": 70, "len": 8}]}, {"bar": 11, "events": [{"step": 0, "note": 34, "vel": 75, "len": 8}]}, {"bar": 12, "events": [{"step": 0, "note": 34, "vel": 70, "len": 8}]}, {"bar": 13, "events": [{"step": 0, "note": 37, "vel": 75, "len": 8}]}, {"bar": 14, "events": [{"step": 0, "note": 36, "vel": 75, "len": 8}]}, {"bar": 15, "events": [{"step": 0, "note": 29, "vel": 75, "len": 8}]}, {"bar": 16, "events": [{"step": 0, "note": 29, "vel": 70, "len": 4}]}], "Kick": [{"bar": 1, "events": [{"step": 0, "note": 36, "vel": 90, "len": 1}, {"step": 5, "note": 36, "vel": 80, "len": 1}]}, {"bar": 2, "events": [{"step": 0, "note": 36, "vel": 90, "len": 1}, {"step": 5, "note": 36, "vel": 80, "len": 1}]}, {"bar": 3, "events": [{"step": 0, "note": 36, "vel": 90, "len": 1}, {"step": 5, "note": 36, "vel": 80, "len": 1}]}, {"bar": 4, "events": [{"step": 0, "note": 36, "vel": 90, "len": 1}, {"step": 5, "note": 36, "vel": 82, "len": 1}, {"step": 7, "note": 36, "vel": 70, "len": 1}]}, {"bar": 5, "events": [{"step": 0, "note": 36, "vel": 90, "len": 1}, {"step": 5, "note": 36, "vel": 80, "len": 1}]}, {"bar": 6, "events": [{"step": 0, "note": 36, "vel": 90, "len": 1}, {"step": 4, "note": 36, "vel": 75, "len": 1}, {"step": 5, "note": 36, "vel": 80, "len": 1}]}, {"bar": 7, "events": [{"step": 0, "note": 36, "vel": 90, "len": 1}, {"step": 5, "note": 36, "vel": 80, "len": 1}]}, {"bar": 8, "events": [{"step": 0, "note": 36, "vel": 90, "len": 1}, {"step": 5, "note": 36, "vel": 80, "len": 1}, {"step": 7, "note": 36, "vel": 75, "len": 1}]}, {"bar": 9, "events": [{"step": 0, "note": 36, "vel": 90, "len": 1}, {"step": 5, "note": 36, "vel": 80, "len": 1}]}, {"bar": 10, "events": [{"step": 0, "note": 36, "vel": 90, "len": 1}, {"step": 5, "note": 36, "vel": 80, "len": 1}]}, {"bar": 11, "events": [{"step": 0, "note": 36, "vel": 90, "len": 1}, {"step": 5, "note": 36, "vel": 80, "len": 1}]}, {"bar": 12, "events": [{"step": 0, "note": 36, "vel": 90, "len": 1}, {"step": 5, "note": 36, "vel": 80, "len": 1}, {"step": 7, "note": 36, "vel": 70, "len": 1}]}, {"bar": 13, "events": [{"step": 0, "note": 36, "vel": 90, "len": 1}, {"step": 5, "note": 36, "vel": 80, "len": 1}]}, {"bar": 14, "events": [{"step": 0, "note": 36, "vel": 90, "len": 1}, {"step": 5, "note": 36, "vel": 80, "len": 1}]}, {"bar": 15, "events": [{"step": 0, "note": 36, "vel": 90, "len": 1}, {"step": 5, "note": 36, "vel": 80, "len": 1}]}, {"bar": 16, "events": [{"step": 0, "note": 36, "vel": 90, "len": 1}, {"step": 4, "note": 36, "vel": 75, "len": 1}, {"step": 5, "note": 36, "vel": 80, "len": 1}]}], "Snare": [{"bar": 1, "events": [{"step": 2, "note": 38, "vel": 85, "len": 1}, {"step": 6, "note": 38, "vel": 85, "len": 1}]}, {"bar": 2, "events": [{"step": 2, "note": 38, "vel": 85, "len": 1}, {"step": 6, "note": 38, "vel": 85, "len": 1}]}, {"bar": 3, "events": [{"step": 2, "note": 38, "vel": 85, "len": 1}, {"step": 6, "note": 38, "vel": 85, "len": 1}]}, {"bar": 4, "events": [{"step": 2, "note": 38, "vel": 85, "len": 1}, {"step": 6, "note": 38, "vel": 85, "len": 1}]}, {"bar": 5, "events": [{"step": 2, "note": 38, "vel": 85, "len": 1}, {"step": 6, "note": 38, "vel": 85, "len": 1}]}, {"bar": 6, "events": [{"step": 2, "note": 38, "vel": 85, "len": 1}, {"step": 6, "note": 38, "vel": 85, "len": 1}]}, {"bar": 7, "events": [{"step": 2, "note": 38, "vel": 85, "len": 1}, {"step": 6, "note": 38, "vel": 85, "len": 1}]}, {"bar": 8, "events": [{"step": 2, "note": 38, "vel": 85, "len": 1}, {"step": 6, "note": 38, "vel": 85, "len": 1}]}, {"bar": 9, "events": [{"step": 2, "note": 38, "vel": 85, "len": 1}, {"step": 6, "note": 38, "vel": 85, "len": 1}]}, {"bar": 10, "events": [{"step": 2, "note": 38, "vel": 85, "len": 1}, {"step": 6, "note": 38, "vel": 85, "len": 1}]}, {"bar": 11, "events": [{"step": 2, "note": 38, "vel": 85, "len": 1}, {"step": 6, "note": 38, "vel": 85, "len": 1}]}, {"bar": 12, "events": [{"step": 2, "note": 38, "vel": 85, "len": 1}, {"step": 6, "note": 38, "vel": 85, "len": 1}]}, {"bar": 13, "events": [{"step": 2, "note": 38, "vel": 85, "len": 1}, {"step": 6, "note": 38, "vel": 85, "len": 1}]}, {"bar": 14, "events": [{"step": 2, "note": 38, "vel": 85, "len": 1}, {"step": 6, "note": 38, "vel": 85, "len": 1}]}, {"bar": 15, "events": [{"step": 2, "note": 38, "vel": 85, "len": 1}, {"step": 6, "note": 38, "vel": 85, "len": 1}]}, {"bar": 16, "events": [{"step": 2, "note": 38, "vel": 85, "len": 1}, {"step": 6, "note": 38, "vel": 85, "len": 1}]}], "Hat": [{"bar": 1, "events": [{"step": 0, "note": 42, "vel": 65, "len": 1}, {"step": 1, "note": 42, "vel": 50, "len": 1}, {"step": 2, "note": 42, "vel": 60, "len": 1}, {"step": 3, "note": 42, "vel": 52, "len": 1}, {"step": 4, "note": 42, "vel": 62, "len": 1}, {"step": 5, "note": 42, "vel": 55, "len": 1}, {"step": 6, "note": 42, "vel": 60, "len": 1}, {"step": 7, "note": 42, "vel": 48, "len": 1}]}, {"bar": 2, "events": [{"step": 0, "note": 42, "vel": 65, "len": 1}, {"step": 1, "note": 42, "vel": 50, "len": 1}, {"step": 2, "note": 42, "vel": 60, "len": 1}, {"step": 3, "note": 42, "vel": 52, "len": 1}, {"step": 4, "note": 42, "vel": 62, "len": 1}, {"step": 5, "note": 42, "vel": 55, "len": 1}, {"step": 6, "note": 42, "vel": 60, "len": 1}, {"step": 7, "note": 42, "vel": 48, "len": 1}]}, {"bar": 3, "events": [{"step": 0, "note": 42, "vel": 65, "len": 1}, {"step": 1, "note": 42, "vel": 50, "len": 1}, {"step": 2, "note": 42, "vel": 60, "len": 1}, {"step": 3, "note": 42, "vel": 52, "len": 1}, {"step": 4, "note": 42, "vel": 62, "len": 1}, {"step": 5, "note": 42, "vel": 55, "len": 1}, {"step": 6, "note": 42, "vel": 60, "len": 1}, {"step": 7, "note": 42, "vel": 48, "len": 1}]}, {"bar": 4, "events": [{"step": 0, "note": 42, "vel": 65, "len": 1}, {"step": 1, "note": 42, "vel": 50, "len": 1}, {"step": 2, "note": 42, "vel": 60, "len": 1}, {"step": 3, "note": 42, "vel": 52, "len": 1}, {"step": 4, "note": 42, "vel": 62, "len": 1}, {"step": 5, "note": 42, "vel": 55, "len": 1}, {"step": 6, "note": 42, "vel": 60, "len": 1}, {"step": 7, "note": 42, "vel": 48, "len": 1}]}, {"bar": 5, "events": [{"step": 0, "note": 42, "vel": 65, "len": 1}, {"step": 1, "note": 42, "vel": 50, "len": 1}, {"step": 2, "note": 42, "vel": 60, "len": 1}, {"step": 3, "note": 42, "vel": 52, "len": 1}, {"step": 4, "note": 42, "vel": 62, "len": 1}, {"step": 5, "note": 42, "vel": 55, "len": 1}, {"step": 6, "note": 42, "vel": 60, "len": 1}, {"step": 7, "note": 42, "vel": 48, "len": 1}]}, {"bar": 6, "events": [{"step": 0, "note": 42, "vel": 65, "len": 1}, {"step": 1, "note": 42, "vel": 50, "len": 1}, {"step": 2, "note": 42, "vel": 60, "len": 1}, {"step": 3, "note": 42, "vel": 52, "len": 1}, {"step": 4, "note": 42, "vel": 62, "len": 1}, {"step": 5, "note": 42, "vel": 55, "len": 1}, {"step": 6, "note": 42, "vel": 60, "len": 1}, {"step": 7, "note": 42, "vel": 48, "len": 1}]}, {"bar": 7, "events": [{"step": 0, "note": 42, "vel": 65, "len": 1}, {"step": 1, "note": 42, "vel": 50, "len": 1}, {"step": 2, "note": 42, "vel": 60, "len": 1}, {"step": 3, "note": 42, "vel": 52, "len": 1}, {"step": 4, "note": 42, "vel": 62, "len": 1}, {"step": 5, "note": 42, "vel": 55, "len": 1}, {"step": 6, "note": 42, "vel": 60, "len": 1}, {"step": 7, "note": 42, "vel": 48, "len": 1}]}, {"bar": 8, "events": [{"step": 0, "note": 42, "vel": 65, "len": 1}, {"step": 1, "note": 42, "vel": 50, "len": 1}, {"step": 2, "note": 42, "vel": 60, "len": 1}, {"step": 3, "note": 42, "vel": 52, "len": 1}, {"step": 4, "note": 42, "vel": 62, "len": 1}, {"step": 5, "note": 42, "vel": 55, "len": 1}, {"step": 6, "note": 42, "vel": 60, "len": 1}, {"step": 7, "note": 42, "vel": 48, "len": 1}]}, {"bar": 9, "events": [{"step": 0, "note": 42, "vel": 65, "len": 1}, {"step": 1, "note": 42, "vel": 50, "len": 1}, {"step": 2, "note": 42, "vel": 60, "len": 1}, {"step": 3, "note": 42, "vel": 52, "len": 1}, {"step": 4, "note": 42, "vel": 62, "len": 1}, {"step": 5, "note": 42, "vel": 55, "len": 1}, {"step": 6, "note": 42, "vel": 60, "len": 1}, {"step": 7, "note": 42, "vel": 48, "len": 1}]}, {"bar": 10, "events": [{"step": 0, "note": 42, "vel": 65, "len": 1}, {"step": 1, "note": 42, "vel": 50, "len": 1}, {"step": 2, "note": 42, "vel": 60, "len": 1}, {"step": 3, "note": 42, "vel": 52, "len": 1}, {"step": 4, "note": 42, "vel": 62, "len": 1}, {"step": 5, "note": 42, "vel": 55, "len": 1}, {"step": 6, "note": 42, "vel": 60, "len": 1}, {"step": 7, "note": 42, "vel": 48, "len": 1}]}, {"bar": 11, "events": [{"step": 0, "note": 42, "vel": 65, "len": 1}, {"step": 1, "note": 42, "vel": 50, "len": 1}, {"step": 2, "note": 42, "vel": 60, "len": 1}, {"step": 3, "note": 42, "vel": 52, "len": 1}, {"step": 4, "note": 42, "vel": 62, "len": 1}, {"step": 5, "note": 42, "vel": 55, "len": 1}, {"step": 6, "note": 42, "vel": 60, "len": 1}, {"step": 7, "note": 42, "vel": 48, "len": 1}]}, {"bar": 12, "events": [{"step": 0, "note": 42, "vel": 65, "len": 1}, {"step": 1, "note": 42, "vel": 50, "len": 1}, {"step": 2, "note": 42, "vel": 60, "len": 1}, {"step": 3, "note": 42, "vel": 52, "len": 1}, {"step": 4, "note": 42, "vel": 62, "len": 1}, {"step": 5, "note": 42, "vel": 55, "len": 1}, {"step": 6, "note": 42, "vel": 60, "len": 1}, {"step": 7, "note": 42, "vel": 48, "len": 1}]}, {"bar": 13, "events": [{"step": 0, "note": 42, "vel": 65, "len": 1}, {"step": 1, "note": 42, "vel": 50, "len": 1}, {"step": 2, "note": 42, "vel": 60, "len": 1}, {"step": 3, "note": 42, "vel": 52, "len": 1}, {"step": 4, "note": 42, "vel": 62, "len": 1}, {"step": 5, "note": 42, "vel": 55, "len": 1}, {"step": 6, "note": 42, "vel": 60, "len": 1}, {"step": 7, "note": 42, "vel": 48, "len": 1}]}, {"bar": 14, "events": [{"step": 0, "note": 42, "vel": 65, "len": 1}, {"step": 1, "note": 42, "vel": 50, "len": 1}, {"step": 2, "note": 42, "vel": 60, "len": 1}, {"step": 3, "note": 42, "vel": 52, "len": 1}, {"step": 4, "note": 42, "vel": 62, "len": 1}, {"step": 5, "note": 42, "vel": 55, "len": 1}, {"step": 6, "note": 42, "vel": 60, "len": 1}, {"step": 7, "note": 42, "vel": 48, "len": 1}]}, {"bar": 15, "events": [{"step": 0, "note": 42, "vel": 65, "len": 1}, {"step": 1, "note": 42, "vel": 50, "len": 1}, {"step": 2, "note": 42, "vel": 60, "len": 1}, {"step": 3, "note": 42, "vel": 52, "len": 1}, {"step": 4, "note": 42, "vel": 62, "len": 1}, {"step": 5, "note": 42, "vel": 55, "len": 1}, {"step": 6, "note": 42, "vel": 60, "len": 1}, {"step": 7, "note": 42, "vel": 48, "len": 1}]}, {"bar": 16, "events": [{"step": 0, "note": 42, "vel": 65, "len": 1}, {"step": 1, "note": 42, "vel": 50, "len": 1}, {"step": 2, "note": 42, "vel": 60, "len": 1}, {"step": 3, "note": 42, "vel": 52, "len": 1}, {"step": 4, "note": 42, "vel": 62, "len": 1}, {"step": 5, "note": 42, "vel": 55, "len": 1}, {"step": 6, "note": 42, "vel": 60, "len": 1}, {"step": 7, "note": 42, "vel": 48, "len": 1}]}], "Shake": [{"bar": 1, "events": [{"step": 1, "note": 70, "vel": 30, "len": 1}, {"step": 3, "note": 70, "vel": 35, "len": 1}, {"step": 5, "note": 70, "vel": 30, "len": 1}, {"step": 7, "note": 70, "vel": 35, "len": 1}]}, {"bar": 3, "events": [{"step": 1, "note": 70, "vel": 30, "len": 1}, {"step": 3, "note": 70, "vel": 35, "len": 1}, {"step": 5, "note": 70, "vel": 30, "len": 1}, {"step": 7, "note": 70, "vel": 35, "len": 1}]}, {"bar": 5, "events": [{"step": 1, "note": 70, "vel": 30, "len": 1}, {"step": 3, "note": 70, "vel": 35, "len": 1}, {"step": 5, "note": 70, "vel": 30, "len": 1}, {"step": 7, "note": 70, "vel": 35, "len": 1}]}, {"bar": 7, "events": [{"step": 1, "note": 70, "vel": 30, "len": 1}, {"step": 3, "note": 70, "vel": 35, "len": 1}, {"step": 5, "note": 70, "vel": 30, "len": 1}, {"step": 7, "note": 70, "vel": 35, "len": 1}]}, {"bar": 9, "events": [{"step": 1, "note": 70, "vel": 30, "len": 1}, {"step": 3, "note": 70, "vel": 35, "len": 1}, {"step": 5, "note": 70, "vel": 30, "len": 1}, {"step": 7, "note": 70, "vel": 35, "len": 1}]}, {"bar": 11, "events": [{"step": 1, "note": 70, "vel": 30, "len": 1}, {"step": 3, "note": 70, "vel": 35, "len": 1}, {"step": 5, "note": 70, "vel": 30, "len": 1}, {"step": 7, "note": 70, "vel": 35, "len": 1}]}, {"bar": 13, "events": [{"step": 1, "note": 70, "vel": 30, "len": 1}, {"step": 3, "note": 70, "vel": 35, "len": 1}, {"step": 5, "note": 70, "vel": 30, "len": 1}, {"step": 7, "note": 70, "vel": 35, "len": 1}]}, {"bar": 15, "events": [{"step": 1, "note": 70, "vel": 30, "len": 1}, {"step": 3, "note": 70, "vel": 35, "len": 1}, {"step": 5, "note": 70, "vel": 30, "len": 1}, {"step": 7, "note": 70, "vel": 35, "len": 1}]}]}, "meta": {"tempo": 80, "key": "F Minor", "style": "Lofi Hip Hop", "meter": "4/4", "scale": "Dorian", "mood": "Relaxed, Nostalgic, Atmospheric", "dynamic_profile": "Mellow and Consistent", "arrangement_density": "Sparse", "harmonic_color": "Warm, Jazzy, Extended Chords", "length_seconds": 48, "bars": 16, "instrument_configs": [{"name": "Piano", "register": "Mid", "role": "Accompaniment", "articulation": "Legato", "dynamic_range": "Moderate"}, {"name": "Electric Guitar", "register": "Mid-High", "role": "Lead", "articulation": "Sustain", "dynamic_range": "Delicate"}, {"name": "Pads", "register": "Mid-High", "role": "Pad", "articulation": "Sustain", "dynamic_range": "Delicate"}, {"name": "Bass Guitar", "register": "Low", "role": "Bass", "articulation": "Legato", "dynamic_range": "Consistent"}, {"name": "Kick", "register": "Low", "role": "Percussion", "articulation": "Percussive", "dynamic_range": "Moderate"}, {"name": "Snare", "register": "Mid", "role": "Percussion", "articulation": "Percussive", "dynamic_range": "Moderate"}, {"name": "Hat", "register": "High", "role": "Percussion", "articulation": "Percussive", "dynamic_range": "Delicate"}, {"name": "Shake", "register": "High", "role": "Percussion", "articulation": "Percussive", "dynamic_range": "Soft"}], "instruments": ["Piano", "Electric Guitar", "Pads", "Bass Guitar", "Kick", "Snare", "Hat", "Shake"]}}, "midi_per_instrument": null, "tracks": [{"instrument": "Piano", "enabled": true, "volume_db": -7.0, "pan": 0.0}, {"instrument": "Electric Guitar", "enabled": true, "volume_db": -3.0, "pan": 0.0}, {"instrument": "Pads", "enabled": true, "volume_db": -3.0, "pan": 0.0}, {"instrument": "Bass Guitar", "enabled": true, "volume_db": -3.0, "pan": 0.0}, {"instrument": "Kick", "enabled": true, "volume_db": -3.0, "pan": 0.0}, {"instrument": "Snare", "enabled": true, "volume_db": -3.0, "pan": 0.0}, {"instrument": "Hat", "enabled": true, "volume_db": -3.0, "pan": 0.0}, {"instrument": "Shake", "enabled": true, "volume_db": -3.0, "pan": 0.0}], "selected_samples": {"Shake": "Drums/RealDrumkits/RD_Shaker.wav", "Hat": "Drums/RealDrumkits/RD_Hat_1.wav", "Snare": "Drums/Kits/Drum Kit 07/FLS_Snare 07a.wav", "Kick": "Drums/RealDrumkits/RD_Kick_2.wav", "Bass Guitar": "Instruments/Guitar/Bass/FLStudio Bass 02/11 DEEPER PURPLE_PLUCK A1ogg.wav", "Pads": "Instruments/Pads/PAD_Whirls.wav", "Electric Guitar": "Instruments/Guitar/Guitar/Electric Guitar 01/19 DARK STAR METAL_B3OGG.wav", "Piano": "Instruments/Piano/Piano 1/CHANGPIANOHARD_D4OGG.WAV"}, "fadeout_seconds": 0.01}, "response": {"project_name": "weak ambient lofi hip hop", "run_id": "c3d032fbefc8", "mix_wav_rel": "output\\c3d032fbefc8\\ambient lofi hip hop 2_mix_1764896355.wav", "stems": [{"instrument": "Piano", "audio_rel": "output\\c3d032fbefc8\\ambient lofi hip hop 2_Piano_1764896355.wav"}, {"instrument": "Electric Guitar", "audio_rel": "output\\c3d032fbefc8\\ambient lofi hip hop 2_Electric Guitar_1764896355.wav"}, {"instrument": "Pads", "audio_rel": "output\\c3d032fbefc8\\ambient lofi hip hop 2_Pads_1764896355.wav"}, {"instrument": "Bass Guitar", "audio_rel": "output\\c3d032fbefc8\\ambient lofi hip hop 2_Bass Guitar_1764896355.wav"}, {"instrument": "Kick", "audio_rel": "output\\c3d032fbefc8\\ambient lofi hip hop 2_Kick_1764896355.wav"}, {"instrument": "Snare", "audio_rel": "output\\c3d032fbefc8\\ambient lofi hip hop 2_Snare_1764896355.wav"}, {"instrument": "Hat", "audio_rel": "output\\c3d032fbefc8\\ambient lofi hip hop 2_Hat_1764896355.wav"}, {"instrument": "Shake", "audio_rel": "output\\c3d032fbefc8\\ambient lofi hip hop 2_Shake_1764896355.wav"}], "sample_rate": 44100, "duration_seconds": 48.0}}