{"meta": {"style": "Ambient", "mood": "Serene", "tempo": 70, "key": "C", "scale": "Ionian", "meter": "4/4", "bars": 64, "length_seconds": 220.0, "dynamic_profile": "Delicate", "arrangement_density": "Sparse", "harmonic_color": "Open", "instrument_configs": [{"name": "Strings", "register": "High", "role": "Lead", "articulation": "Legato", "dynamic_range": "Delicate"}, {"name": "Pads", "register": "Mid", "role": "Pad", "articulation": "Sustain", "dynamic_range": "Delicate"}, {"name": "Piano", "register": "Mid", "role": "Accompaniment", "articulation": "Sustain", "dynamic_range": "Delicate"}], "instruments": ["Strings", "Pads", "Piano"], "instrument": "Pads"}, "layers": {"Pads": [{"bar": 0, "events": [{"step": 0, "note": 36, "vel": 40, "len": 64}, {"step": 0, "note": 48, "vel": 40, "len": 64}, {"step": 0, "note": 52, "vel": 38, "len": 64}, {"step": 0, "note": 55, "vel": 38, "len": 64}]}, {"bar": 8, "events": [{"step": 0, "note": 41, "vel": 40, "len": 64}, {"step": 0, "note": 48, "vel": 40, "len": 64}, {"step": 0, "note": 53, "vel": 38, "len": 64}, {"step": 0, "note": 57, "vel": 38, "len": 64}]}, {"bar": 16, "events": [{"step": 0, "note": 45, "vel": 40, "len": 64}, {"step": 0, "note": 52, "vel": 40, "len": 64}, {"step": 0, "note": 57, "vel": 38, "len": 64}, {"step": 0, "note": 60, "vel": 38, "len": 64}]}, {"bar": 24, "events": [{"step": 0, "note": 43, "vel": 40, "len": 64}, {"step": 0, "note": 50, "vel": 40, "len": 64}, {"step": 0, "note": 55, "vel": 38, "len": 64}, {"step": 0, "note": 59, "vel": 38, "len": 64}]}, {"bar": 32, "events": [{"step": 0, "note": 36, "vel": 40, "len": 64}, {"step": 0, "note": 48, "vel": 40, "len": 64}, {"step": 0, "note": 52, "vel": 38, "len": 64}, {"step": 0, "note": 55, "vel": 38, "len": 64}]}, {"bar": 40, "events": [{"step": 0, "note": 41, "vel": 40, "len": 64}, {"step": 0, "note": 48, "vel": 40, "len": 64}, {"step": 0, "note": 53, "vel": 38, "len": 64}, {"step": 0, "note": 57, "vel": 38, "len": 64}]}, {"bar": 48, "events": [{"step": 0, "note": 45, "vel": 40, "len": 64}, {"step": 0, "note": 52, "vel": 40, "len": 64}, {"step": 0, "note": 57, "vel": 38, "len": 64}, {"step": 0, "note": 60, "vel": 38, "len": 64}]}, {"bar": 56, "events": [{"step": 0, "note": 43, "vel": 40, "len": 64}, {"step": 0, "note": 50, "vel": 40, "len": 64}, {"step": 0, "note": 55, "vel": 38, "len": 64}, {"step": 0, "note": 59, "vel": 38, "len": 64}]}]}, "pattern": [{"bar": 0, "events": [{"step": 0, "note": 36, "vel": 40, "len": 64}, {"step": 0, "note": 48, "vel": 40, "len": 64}, {"step": 0, "note": 52, "vel": 38, "len": 64}, {"step": 0, "note": 55, "vel": 38, "len": 64}]}, {"bar": 8, "events": [{"step": 0, "note": 41, "vel": 40, "len": 64}, {"step": 0, "note": 48, "vel": 40, "len": 64}, {"step": 0, "note": 53, "vel": 38, "len": 64}, {"step": 0, "note": 57, "vel": 38, "len": 64}]}, {"bar": 16, "events": [{"step": 0, "note": 45, "vel": 40, "len": 64}, {"step": 0, "note": 52, "vel": 40, "len": 64}, {"step": 0, "note": 57, "vel": 38, "len": 64}, {"step": 0, "note": 60, "vel": 38, "len": 64}]}, {"bar": 24, "events": [{"step": 0, "note": 43, "vel": 40, "len": 64}, {"step": 0, "note": 50, "vel": 40, "len": 64}, {"step": 0, "note": 55, "vel": 38, "len": 64}, {"step": 0, "note": 59, "vel": 38, "len": 64}]}, {"bar": 32, "events": [{"step": 0, "note": 36, "vel": 40, "len": 64}, {"step": 0, "note": 48, "vel": 40, "len": 64}, {"step": 0, "note": 52, "vel": 38, "len": 64}, {"step": 0, "note": 55, "vel": 38, "len": 64}]}, {"bar": 40, "events": [{"step": 0, "note": 41, "vel": 40, "len": 64}, {"step": 0, "note": 48, "vel": 40, "len": 64}, {"step": 0, "note": 53, "vel": 38, "len": 64}, {"step": 0, "note": 57, "vel": 38, "len": 64}]}, {"bar": 48, "events": [{"step": 0, "note": 45, "vel": 40, "len": 64}, {"step": 0, "note": 52, "vel": 40, "len": 64}, {"step": 0, "note": 57, "vel": 38, "len": 64}, {"step": 0, "note": 60, "vel": 38, "len": 64}]}, {"bar": 56, "events": [{"step": 0, "note": 43, "vel": 40, "len": 64}, {"step": 0, "note": 50, "vel": 40, "len": 64}, {"step": 0, "note": 55, "vel": 38, "len": 64}, {"step": 0, "note": 59, "vel": 38, "len": 64}]}]}