{"pattern": [{"bar": 0, "events": [{"step": 0, "note": 36, "vel": 40, "len": 64}, {"step": 0, "note": 48, "vel": 40, "len": 64}, {"step": 0, "note": 52, "vel": 38, "len": 64}, {"step": 0, "note": 55, "vel": 38, "len": 64}, {"step": 0, "note": 72, "vel": 50, "len": 32}, {"step": 0, "note": 60, "vel": 40, "len": 4}]}, {"bar": 1, "events": [{"step": 4, "note": 67, "vel": 35, "len": 2}]}, {"bar": 3, "events": [{"step": 2, "note": 72, "vel": 45, "len": 8}]}, {"bar": 4, "events": [{"step": 0, "note": 76, "vel": 52, "len": 32}, {"step": 0, "note": 69, "vel": 40, "len": 4}]}, {"bar": 7, "events": [{"step": 6, "note": 65, "vel": 30, "len": 2}]}, {"bar": 8, "events": [{"step": 0, "note": 41, "vel": 40, "len": 64}, {"step": 0, "note": 48, "vel": 40, "len": 64}, {"step": 0, "note": 53, "vel": 38, "len": 64}, {"step": 0, "note": 57, "vel": 38, "len": 64}, {"step": 0, "note": 77, "vel": 53, "len": 32}, {"step": 0, "note": 65, "vel": 40, "len": 4}]}, {"bar": 11, "events": [{"step": 4, "note": 72, "vel": 35, "len": 2}]}, {"bar": 12, "events": [{"step": 0, "note": 81, "vel": 55, "len": 32}, {"step": 2, "note": 77, "vel": 45, "len": 8}]}, {"bar": 15, "events": [{"step": 0, "note": 74, "vel": 40, "len": 4}]}, {"bar": 16, "events": [{"step": 0, "note": 45, "vel": 40, "len": 64}, {"step": 0, "note": 52, "vel": 40, "len": 64}, {"step": 0, "note": 57, "vel": 38, "len": 64}, {"step": 0, "note": 60, "vel": 38, "len": 64}, {"step": 0, "note": 76, "vel": 50, "len": 32}, {"step": 0, "note": 69, "vel": 40, "len": 4}]}, {"bar": 18, "events": [{"step": 4, "note": 76, "vel": 35, "len": 2}]}, {"bar": 20, "events": [{"step": 0, "note": 72, "vel": 48, "len": 32}]}, {"bar": 21, "events": [{"step": 0, "note": 64, "vel": 40, "len": 4}]}, {"bar": 24, "events": [{"step": 0, "note": 43, "vel": 40, "len": 64}, {"step": 0, "note": 50, "vel": 40, "len": 64}, {"step": 0, "note": 55, "vel": 38, "len": 64}, {"step": 0, "note": 59, "vel": 38, "len": 64}, {"step": 0, "note": 74, "vel": 50, "len": 32}, {"step": 0, "note": 67, "vel": 40, "len": 4}]}, {"bar": 26, "events": [{"step": 4, "note": 71, "vel": 35, "len": 2}]}, {"bar": 28, "events": [{"step": 0, "note": 71, "vel": 45, "len": 32}]}, {"bar": 30, "events": [{"step": 0, "note": 74, "vel": 40, "len": 4}]}, {"bar": 32, "events": [{"step": 0, "note": 36, "vel": 40, "len": 64}, {"step": 0, "note": 48, "vel": 40, "len": 64}, {"step": 0, "note": 52, "vel": 38, "len": 64}, {"step": 0, "note": 55, "vel": 38, "len": 64}, {"step": 0, "note": 72, "vel": 50, "len": 32}, {"step": 0, "note": 60, "vel": 40, "len": 4}]}, {"bar": 33, "events": [{"step": 4, "note": 67, "vel": 35, "len": 2}]}, {"bar": 35, "events": [{"step": 2, "note": 72, "vel": 45, "len": 8}]}, {"bar": 36, "events": [{"step": 0, "note": 76, "vel": 52, "len": 32}, {"step": 0, "note": 69, "vel": 40, "len": 4}]}, {"bar": 39, "events": [{"step": 6, "note": 65, "vel": 30, "len": 2}]}, {"bar": 40, "events": [{"step": 0, "note": 41, "vel": 40, "len": 64}, {"step": 0, "note": 48, "vel": 40, "len": 64}, {"step": 0, "note": 53, "vel": 38, "len": 64}, {"step": 0, "note": 57, "vel": 38, "len": 64}, {"step": 0, "note": 77, "vel": 53, "len": 32}, {"step": 0, "note": 65, "vel": 40, "len": 4}]}, {"bar": 43, "events": [{"step": 4, "note": 72, "vel": 35, "len": 2}]}, {"bar": 44, "events": [{"step": 0, "note": 81, "vel": 55, "len": 32}, {"step": 2, "note": 77, "vel": 45, "len": 8}]}, {"bar": 47, "events": [{"step": 0, "note": 74, "vel": 40, "len": 4}]}, {"bar": 48, "events": [{"step": 0, "note": 45, "vel": 40, "len": 64}, {"step": 0, "note": 52, "vel": 40, "len": 64}, {"step": 0, "note": 57, "vel": 38, "len": 64}, {"step": 0, "note": 60, "vel": 38, "len": 64}, {"step": 0, "note": 76, "vel": 50, "len": 32}, {"step": 0, "note": 69, "vel": 40, "len": 4}]}, {"bar": 50, "events": [{"step": 4, "note": 76, "vel": 35, "len": 2}]}, {"bar": 52, "events": [{"step": 0, "note": 72, "vel": 48, "len": 32}]}, {"bar": 53, "events": [{"step": 0, "note": 64, "vel": 40, "len": 4}]}, {"bar": 56, "events": [{"step": 0, "note": 43, "vel": 40, "len": 64}, {"step": 0, "note": 50, "vel": 40, "len": 64}, {"step": 0, "note": 55, "vel": 38, "len": 64}, {"step": 0, "note": 59, "vel": 38, "len": 64}, {"step": 0, "note": 74, "vel": 50, "len": 32}, {"step": 0, "note": 67, "vel": 40, "len": 4}]}, {"bar": 58, "events": [{"step": 4, "note": 71, "vel": 35, "len": 2}]}, {"bar": 60, "events": [{"step": 0, "note": 71, "vel": 45, "len": 32}]}, {"bar": 62, "events": [{"step": 0, "note": 74, "vel": 40, "len": 4}]}], "layers": {"Pads": [{"bar": 0, "events": [{"step": 0, "note": 36, "vel": 40, "len": 64}, {"step": 0, "note": 48, "vel": 40, "len": 64}, {"step": 0, "note": 52, "vel": 38, "len": 64}, {"step": 0, "note": 55, "vel": 38, "len": 64}]}, {"bar": 8, "events": [{"step": 0, "note": 41, "vel": 40, "len": 64}, {"step": 0, "note": 48, "vel": 40, "len": 64}, {"step": 0, "note": 53, "vel": 38, "len": 64}, {"step": 0, "note": 57, "vel": 38, "len": 64}]}, {"bar": 16, "events": [{"step": 0, "note": 45, "vel": 40, "len": 64}, {"step": 0, "note": 52, "vel": 40, "len": 64}, {"step": 0, "note": 57, "vel": 38, "len": 64}, {"step": 0, "note": 60, "vel": 38, "len": 64}]}, {"bar": 24, "events": [{"step": 0, "note": 43, "vel": 40, "len": 64}, {"step": 0, "note": 50, "vel": 40, "len": 64}, {"step": 0, "note": 55, "vel": 38, "len": 64}, {"step": 0, "note": 59, "vel": 38, "len": 64}]}, {"bar": 32, "events": [{"step": 0, "note": 36, "vel": 40, "len": 64}, {"step": 0, "note": 48, "vel": 40, "len": 64}, {"step": 0, "note": 52, "vel": 38, "len": 64}, {"step": 0, "note": 55, "vel": 38, "len": 64}]}, {"bar": 40, "events": [{"step": 0, "note": 41, "vel": 40, "len": 64}, {"step": 0, "note": 48, "vel": 40, "len": 64}, {"step": 0, "note": 53, "vel": 38, "len": 64}, {"step": 0, "note": 57, "vel": 38, "len": 64}]}, {"bar": 48, "events": [{"step": 0, "note": 45, "vel": 40, "len": 64}, {"step": 0, "note": 52, "vel": 40, "len": 64}, {"step": 0, "note": 57, "vel": 38, "len": 64}, {"step": 0, "note": 60, "vel": 38, "len": 64}]}, {"bar": 56, "events": [{"step": 0, "note": 43, "vel": 40, "len": 64}, {"step": 0, "note": 50, "vel": 40, "len": 64}, {"step": 0, "note": 55, "vel": 38, "len": 64}, {"step": 0, "note": 59, "vel": 38, "len": 64}]}], "Strings": [{"bar": 0, "events": [{"step": 0, "note": 72, "vel": 50, "len": 32}]}, {"bar": 4, "events": [{"step": 0, "note": 76, "vel": 52, "len": 32}]}, {"bar": 8, "events": [{"step": 0, "note": 77, "vel": 53, "len": 32}]}, {"bar": 12, "events": [{"step": 0, "note": 81, "vel": 55, "len": 32}]}, {"bar": 16, "events": [{"step": 0, "note": 76, "vel": 50, "len": 32}]}, {"bar": 20, "events": [{"step": 0, "note": 72, "vel": 48, "len": 32}]}, {"bar": 24, "events": [{"step": 0, "note": 74, "vel": 50, "len": 32}]}, {"bar": 28, "events": [{"step": 0, "note": 71, "vel": 45, "len": 32}]}, {"bar": 32, "events": [{"step": 0, "note": 72, "vel": 50, "len": 32}]}, {"bar": 36, "events": [{"step": 0, "note": 76, "vel": 52, "len": 32}]}, {"bar": 40, "events": [{"step": 0, "note": 77, "vel": 53, "len": 32}]}, {"bar": 44, "events": [{"step": 0, "note": 81, "vel": 55, "len": 32}]}, {"bar": 48, "events": [{"step": 0, "note": 76, "vel": 50, "len": 32}]}, {"bar": 52, "events": [{"step": 0, "note": 72, "vel": 48, "len": 32}]}, {"bar": 56, "events": [{"step": 0, "note": 74, "vel": 50, "len": 32}]}, {"bar": 60, "events": [{"step": 0, "note": 71, "vel": 45, "len": 32}]}], "Piano": [{"bar": 0, "events": [{"step": 0, "note": 60, "vel": 40, "len": 4}]}, {"bar": 1, "events": [{"step": 4, "note": 67, "vel": 35, "len": 2}]}, {"bar": 3, "events": [{"step": 2, "note": 72, "vel": 45, "len": 8}]}, {"bar": 4, "events": [{"step": 0, "note": 69, "vel": 40, "len": 4}]}, {"bar": 7, "events": [{"step": 6, "note": 65, "vel": 30, "len": 2}]}, {"bar": 8, "events": [{"step": 0, "note": 65, "vel": 40, "len": 4}]}, {"bar": 11, "events": [{"step": 4, "note": 72, "vel": 35, "len": 2}]}, {"bar": 12, "events": [{"step": 2, "note": 77, "vel": 45, "len": 8}]}, {"bar": 15, "events": [{"step": 0, "note": 74, "vel": 40, "len": 4}]}, {"bar": 16, "events": [{"step": 0, "note": 69, "vel": 40, "len": 4}]}, {"bar": 18, "events": [{"step": 4, "note": 76, "vel": 35, "len": 2}]}, {"bar": 21, "events": [{"step": 0, "note": 64, "vel": 40, "len": 4}]}, {"bar": 24, "events": [{"step": 0, "note": 67, "vel": 40, "len": 4}]}, {"bar": 26, "events": [{"step": 4, "note": 71, "vel": 35, "len": 2}]}, {"bar": 30, "events": [{"step": 0, "note": 74, "vel": 40, "len": 4}]}, {"bar": 32, "events": [{"step": 0, "note": 60, "vel": 40, "len": 4}]}, {"bar": 33, "events": [{"step": 4, "note": 67, "vel": 35, "len": 2}]}, {"bar": 35, "events": [{"step": 2, "note": 72, "vel": 45, "len": 8}]}, {"bar": 36, "events": [{"step": 0, "note": 69, "vel": 40, "len": 4}]}, {"bar": 39, "events": [{"step": 6, "note": 65, "vel": 30, "len": 2}]}, {"bar": 40, "events": [{"step": 0, "note": 65, "vel": 40, "len": 4}]}, {"bar": 43, "events": [{"step": 4, "note": 72, "vel": 35, "len": 2}]}, {"bar": 44, "events": [{"step": 2, "note": 77, "vel": 45, "len": 8}]}, {"bar": 47, "events": [{"step": 0, "note": 74, "vel": 40, "len": 4}]}, {"bar": 48, "events": [{"step": 0, "note": 69, "vel": 40, "len": 4}]}, {"bar": 50, "events": [{"step": 4, "note": 76, "vel": 35, "len": 2}]}, {"bar": 53, "events": [{"step": 0, "note": 64, "vel": 40, "len": 4}]}, {"bar": 56, "events": [{"step": 0, "note": 67, "vel": 40, "len": 4}]}, {"bar": 58, "events": [{"step": 4, "note": 71, "vel": 35, "len": 2}]}, {"bar": 62, "events": [{"step": 0, "note": 74, "vel": 40, "len": 4}]}]}, "meta": {"style": "Ambient", "mood": "Serene", "tempo": 70, "key": "C", "scale": "Ionian", "meter": "4/4", "bars": 64, "length_seconds": 220.0, "dynamic_profile": "Delicate", "arrangement_density": "Sparse", "harmonic_color": "Open", "instrument_configs": [{"name": "Strings", "register": "High", "role": "Lead", "articulation": "Legato", "dynamic_range": "Delicate"}, {"name": "Pads", "register": "Mid", "role": "Pad", "articulation": "Sustain", "dynamic_range": "Delicate"}, {"name": "Piano", "register": "Mid", "role": "Accompaniment", "articulation": "Sustain", "dynamic_range": "Delicate"}], "instruments": ["Strings", "Pads", "Piano"]}}