{"meta": {"status": "success", "tempo": 126, "key": "E", "scale": "Minor", "style": "Alternative Rock", "mood": "Energetic", "meter": "4/4", "dynamic_profile": "Verse-Chorus form with Breakdown", "arrangement_density": "High", "harmonic_color": "Distorted", "length_seconds": 200.0, "bars": 104, "instrument_configs": [{"name": "Electric Guitar", "register": "High", "role": "Lead", "articulation": "Legato", "dynamic_range": "Moderate"}, {"name": "Bass Guitar", "register": "Low", "role": "Bass", "articulation": "Sustain", "dynamic_range": "Moderate"}, {"name": "Kick", "register": "Sub", "role": "Percussion", "articulation": "Percussive", "dynamic_range": "Intense"}, {"name": "Snare", "register": "Mid", "role": "Percussion", "articulation": "Percussive", "dynamic_range": "Intense"}, {"name": "Hat", "register": "High", "role": "Percussion", "articulation": "Percussive", "dynamic_range": "Moderate"}, {"name": "Crash", "register": "Very High", "role": "Percussion", "articulation": "Percussive", "dynamic_range": "Fortissimo"}, {"name": "Tom", "register": "Low", "role": "Percussion", "articulation": "Percussive", "dynamic_range": "Moderate"}], "instruments": ["Electric Guitar", "Bass Guitar", "Kick", "Snare", "Hat", "Crash", "Tom"], "instrument": "Bass Guitar"}, "layers": {"Bass Guitar": [{"bar": 0, "events": [{"step": 0, "note": 40, "vel": 110, "len": 1}, {"step": 2, "note": 40, "vel": 100, "len": 1}, {"step": 4, "note": 40, "vel": 105, "len": 1}, {"step": 6, "note": 40, "vel": 100, "len": 1}]}, {"bar": 1, "events": [{"step": 0, "note": 40, "vel": 110, "len": 1}, {"step": 2, "note": 40, "vel": 100, "len": 1}, {"step": 4, "note": 40, "vel": 105, "len": 1}, {"step": 6, "note": 40, "vel": 100, "len": 1}]}, {"bar": 8, "events": [{"step": 0, "note": 40, "vel": 85, "len": 2}, {"step": 2, "note": 40, "vel": 80, "len": 2}, {"step": 4, "note": 40, "vel": 85, "len": 2}, {"step": 6, "note": 40, "vel": 80, "len": 2}]}, {"bar": 24, "events": [{"step": 0, "note": 40, "vel": 115, "len": 2}, {"step": 2, "note": 40, "vel": 105, "len": 2}, {"step": 4, "note": 48, "vel": 115, "len": 2}, {"step": 6, "note": 48, "vel": 105, "len": 2}]}, {"bar": 25, "events": [{"step": 0, "note": 43, "vel": 115, "len": 2}, {"step": 2, "note": 43, "vel": 105, "len": 2}, {"step": 4, "note": 50, "vel": 115, "len": 2}, {"step": 6, "note": 50, "vel": 105, "len": 2}]}, {"bar": 64, "events": [{"step": 0, "note": 28, "vel": 90, "len": 8}]}]}, "pattern": [{"bar": 0, "events": [{"step": 0, "note": 40, "vel": 110, "len": 1}, {"step": 2, "note": 40, "vel": 100, "len": 1}, {"step": 4, "note": 40, "vel": 105, "len": 1}, {"step": 6, "note": 40, "vel": 100, "len": 1}]}, {"bar": 1, "events": [{"step": 0, "note": 40, "vel": 110, "len": 1}, {"step": 2, "note": 40, "vel": 100, "len": 1}, {"step": 4, "note": 40, "vel": 105, "len": 1}, {"step": 6, "note": 40, "vel": 100, "len": 1}]}, {"bar": 8, "events": [{"step": 0, "note": 40, "vel": 85, "len": 2}, {"step": 2, "note": 40, "vel": 80, "len": 2}, {"step": 4, "note": 40, "vel": 85, "len": 2}, {"step": 6, "note": 40, "vel": 80, "len": 2}]}, {"bar": 24, "events": [{"step": 0, "note": 40, "vel": 115, "len": 2}, {"step": 2, "note": 40, "vel": 105, "len": 2}, {"step": 4, "note": 48, "vel": 115, "len": 2}, {"step": 6, "note": 48, "vel": 105, "len": 2}]}, {"bar": 25, "events": [{"step": 0, "note": 43, "vel": 115, "len": 2}, {"step": 2, "note": 43, "vel": 105, "len": 2}, {"step": 4, "note": 50, "vel": 115, "len": 2}, {"step": 6, "note": 50, "vel": 105, "len": 2}]}, {"bar": 64, "events": [{"step": 0, "note": 28, "vel": 90, "len": 8}]}]}