{"pattern": [{"bar": 0, "events": [{"step": 0, "note": 49, "vel": 110, "len": 1}, {"step": 0, "note": 36, "vel": 100, "len": 1}, {"step": 1, "note": 42, "vel": 70, "len": 1}, {"step": 2, "note": 38, "vel": 105, "len": 1}, {"step": 2, "note": 42, "vel": 75, "len": 1}, {"step": 3, "note": 42, "vel": 65, "len": 1}, {"step": 3, "note": 36, "vel": 90, "len": 1}, {"step": 4, "note": 36, "vel": 100, "len": 1}, {"step": 4, "note": 42, "vel": 75, "len": 1}, {"step": 5, "note": 42, "vel": 65, "len": 1}, {"step": 6, "note": 38, "vel": 105, "len": 1}, {"step": 6, "note": 42, "vel": 80, "len": 1}, {"step": 7, "note": 42, "vel": 60, "len": 1}]}, {"bar": 1, "events": [{"step": 0, "note": 36, "vel": 100, "len": 1}, {"step": 0, "note": 42, "vel": 75, "len": 1}, {"step": 1, "note": 42, "vel": 65, "len": 1}, {"step": 2, "note": 38, "vel": 105, "len": 1}, {"step": 2, "note": 42, "vel": 75, "len": 1}, {"step": 3, "note": 36, "vel": 90, "len": 1}, {"step": 4, "note": 42, "vel": 70, "len": 1}, {"step": 5, "note": 36, "vel": 95, "len": 1}, {"step": 5, "note": 42, "vel": 65, "len": 1}, {"step": 6, "note": 38, "vel": 105, "len": 1}, {"step": 6, "note": 42, "vel": 80, "len": 1}, {"step": 7, "note": 42, "vel": 60, "len": 1}]}, {"bar": 8, "events": [{"step": 0, "note": 36, "vel": 90, "len": 1}, {"step": 0, "note": 42, "vel": 60, "len": 1}, {"step": 1, "note": 42, "vel": 50, "len": 1}, {"step": 2, "note": 38, "vel": 95, "len": 1}, {"step": 2, "note": 42, "vel": 65, "len": 1}, {"step": 3, "note": 42, "vel": 50, "len": 1}, {"step": 4, "note": 36, "vel": 85, "len": 1}, {"step": 4, "note": 42, "vel": 60, "len": 1}, {"step": 5, "note": 36, "vel": 80, "len": 1}, {"step": 6, "note": 38, "vel": 95, "len": 1}, {"step": 6, "note": 42, "vel": 65, "len": 1}, {"step": 7, "note": 42, "vel": 55, "len": 1}]}, {"bar": 24, "events": [{"step": 0, "note": 49, "vel": 115, "len": 1}, {"step": 0, "note": 36, "vel": 110, "len": 1}, {"step": 1, "note": 46, "vel": 85, "len": 1}, {"step": 2, "note": 38, "vel": 115, "len": 1}, {"step": 2, "note": 46, "vel": 90, "len": 1}, {"step": 3, "note": 36, "vel": 100, "len": 1}, {"step": 4, "note": 36, "vel": 105, "len": 1}, {"step": 4, "note": 46, "vel": 90, "len": 1}, {"step": 5, "note": 36, "vel": 100, "len": 1}, {"step": 6, "note": 38, "vel": 115, "len": 1}, {"step": 6, "note": 46, "vel": 95, "len": 1}, {"step": 7, "note": 46, "vel": 80, "len": 1}]}, {"bar": 64, "events": [{"step": 0, "note": 36, "vel": 90, "len": 1}, {"step": 2, "note": 45, "vel": 80, "len": 1}, {"step": 3, "note": 47, "vel": 70, "len": 1}, {"step": 4, "note": 36, "vel": 85, "len": 1}, {"step": 6, "note": 50, "vel": 90, "len": 1}, {"step": 7, "note": 47, "vel": 75, "len": 1}]}], "layers": {"Electric Guitar": [{"bar": 0, "events": [{"step": 0, "note": 52, "vel": 100, "len": 1}, {"step": 1, "note": 52, "vel": 90, "len": 1}, {"step": 2, "note": 55, "vel": 105, "len": 2}, {"step": 4, "note": 52, "vel": 95, "len": 1}, {"step": 5, "note": 50, "vel": 90, "len": 1}, {"step": 6, "note": 52, "vel": 100, "len": 2}]}, {"bar": 1, "events": [{"step": 0, "note": 52, "vel": 100, "len": 1}, {"step": 1, "note": 52, "vel": 90, "len": 1}, {"step": 2, "note": 57, "vel": 105, "len": 2}, {"step": 4, "note": 55, "vel": 95, "len": 1}, {"step": 5, "note": 52, "vel": 90, "len": 1}, {"step": 6, "note": 50, "vel": 95, "len": 2}]}, {"bar": 8, "events": [{"step": 0, "note": 52, "vel": 65, "len": 1}, {"step": 2, "note": 52, "vel": 60, "len": 1}, {"step": 4, "note": 52, "vel": 70, "len": 1}, {"step": 6, "note": 52, "vel": 65, "len": 1}]}, {"bar": 24, "events": [{"step": 0, "note": 52, "vel": 110, "len": 4}, {"step": 0, "note": 59, "vel": 100, "len": 4}, {"step": 4, "note": 60, "vel": 110, "len": 4}, {"step": 4, "note": 67, "vel": 100, "len": 4}]}, {"bar": 25, "events": [{"step": 0, "note": 55, "vel": 110, "len": 4}, {"step": 0, "note": 62, "vel": 100, "len": 4}, {"step": 4, "note": 50, "vel": 110, "len": 4}, {"step": 4, "note": 57, "vel": 100, "len": 4}]}, {"bar": 64, "events": [{"step": 0, "note": 52, "vel": 70, "len": 8}, {"step": 4, "note": 59, "vel": 60, "len": 4}]}], "Bass Guitar": [{"bar": 0, "events": [{"step": 0, "note": 40, "vel": 110, "len": 1}, {"step": 2, "note": 40, "vel": 100, "len": 1}, {"step": 4, "note": 40, "vel": 105, "len": 1}, {"step": 6, "note": 40, "vel": 100, "len": 1}]}, {"bar": 1, "events": [{"step": 0, "note": 40, "vel": 110, "len": 1}, {"step": 2, "note": 40, "vel": 100, "len": 1}, {"step": 4, "note": 40, "vel": 105, "len": 1}, {"step": 6, "note": 40, "vel": 100, "len": 1}]}, {"bar": 8, "events": [{"step": 0, "note": 40, "vel": 85, "len": 2}, {"step": 2, "note": 40, "vel": 80, "len": 2}, {"step": 4, "note": 40, "vel": 85, "len": 2}, {"step": 6, "note": 40, "vel": 80, "len": 2}]}, {"bar": 24, "events": [{"step": 0, "note": 40, "vel": 115, "len": 2}, {"step": 2, "note": 40, "vel": 105, "len": 2}, {"step": 4, "note": 48, "vel": 115, "len": 2}, {"step": 6, "note": 48, "vel": 105, "len": 2}]}, {"bar": 25, "events": [{"step": 0, "note": 43, "vel": 115, "len": 2}, {"step": 2, "note": 43, "vel": 105, "len": 2}, {"step": 4, "note": 50, "vel": 115, "len": 2}, {"step": 6, "note": 50, "vel": 105, "len": 2}]}, {"bar": 64, "events": [{"step": 0, "note": 28, "vel": 90, "len": 8}]}]}, "meta": {"status": "success", "tempo": 126, "key": "E", "scale": "Minor", "style": "Alternative Rock", "mood": "Energetic", "meter": "4/4", "dynamic_profile": "Verse-Chorus form with Breakdown", "arrangement_density": "High", "harmonic_color": "Distorted", "length_seconds": 200.0, "bars": 104, "instrument_configs": [{"name": "Electric Guitar", "register": "High", "role": "Lead", "articulation": "Legato", "dynamic_range": "Moderate"}, {"name": "Bass Guitar", "register": "Low", "role": "Bass", "articulation": "Sustain", "dynamic_range": "Moderate"}, {"name": "Kick", "register": "Sub", "role": "Percussion", "articulation": "Percussive", "dynamic_range": "Intense"}, {"name": "Snare", "register": "Mid", "role": "Percussion", "articulation": "Percussive", "dynamic_range": "Intense"}, {"name": "Hat", "register": "High", "role": "Percussion", "articulation": "Percussive", "dynamic_range": "Moderate"}, {"name": "Crash", "register": "Very High", "role": "Percussion", "articulation": "Percussive", "dynamic_range": "Fortissimo"}, {"name": "Tom", "register": "Low", "role": "Percussion", "articulation": "Percussive", "dynamic_range": "Moderate"}], "instruments": ["Electric Guitar", "Bass Guitar", "Kick", "Snare", "Hat", "Crash", "Tom"]}}