{"meta": {"style": "Old School Hip Hop", "mood": "Gritty", "tempo": 90, "key": "C Minor", "bars": 16, "scale": "Minor", "meter": "4/4", "dynamic_profile": "Punchy", "arrangement_density": "Moderate", "harmonic_color": "Jazzy Dark", "length_seconds": 42.6, "instrument_configs": [{"name": "Kick", "register": "Low", "role": "Percussion", "articulation": "Percussive", "dynamic_range": "Intense"}, {"name": "Snare", "register": "Mid", "role": "Percussion", "articulation": "Percussive", "dynamic_range": "Intense"}, {"name": "Hat", "register": "High", "role": "Percussion", "articulation": "Percussive", "dynamic_range": "Moderate"}, {"name": "Bass", "register": "Low", "role": "Bass", "articulation": "Legato", "dynamic_range": "Moderate"}, {"name": "Piano", "register": "Mid", "role": "Accompaniment", "articulation": "Staccato", "dynamic_range": "Moderate"}, {"name": "Strings", "register": "High", "role": "Pad", "articulation": "Sustain", "dynamic_range": "Delicate"}, {"name": "Sax", "register": "Mid-High", "role": "Lead", "articulation": "Legato", "dynamic_range": "Moderate"}], "instruments": ["Kick", "Snare", "Hat", "Bass", "Piano", "Strings", "Sax"], "instrument": "Sax"}, "layers": {"Sax": [{"bar": 5, "events": [{"step": 0, "note": 72, "vel": 100, "len": 2}, {"step": 2, "note": 75, "vel": 95, "len": 2}, {"step": 5, "note": 74, "vel": 90, "len": 1}, {"step": 6, "note": 72, "vel": 90, "len": 2}]}, {"bar": 6, "events": [{"step": 1, "note": 79, "vel": 105, "len": 1}, {"step": 2, "note": 75, "vel": 100, "len": 1}, {"step": 4, "note": 72, "vel": 95, "len": 3}]}, {"bar": 7, "events": [{"step": 0, "note": 72, "vel": 100, "len": 1}, {"step": 1, "note": 75, "vel": 95, "len": 1}, {"step": 3, "note": 77, "vel": 105, "len": 1}, {"step": 5, "note": 79, "vel": 110, "len": 2}, {"step": 7, "note": 77, "vel": 100, "len": 1}]}, {"bar": 8, "events": [{"step": 0, "note": 75, "vel": 95, "len": 2}, {"step": 3, "note": 72, "vel": 90, "len": 2}, {"step": 6, "note": 67, "vel": 85, "len": 2}]}, {"bar": 13, "events": [{"step": 0, "note": 72, "vel": 105, "len": 2}, {"step": 2, "note": 84, "vel": 110, "len": 1}, {"step": 4, "note": 79, "vel": 100, "len": 1}, {"step": 6, "note": 75, "vel": 95, "len": 2}]}, {"bar": 14, "events": [{"step": 1, "note": 74, "vel": 95, "len": 1}, {"step": 3, "note": 72, "vel": 90, "len": 3}, {"step": 7, "note": 79, "vel": 95, "len": 1}]}, {"bar": 15, "events": [{"step": 0, "note": 84, "vel": 115, "len": 2}, {"step": 3, "note": 79, "vel": 105, "len": 1}, {"step": 5, "note": 77, "vel": 100, "len": 1}, {"step": 7, "note": 75, "vel": 95, "len": 1}]}, {"bar": 16, "events": [{"step": 0, "note": 72, "vel": 100, "len": 4}, {"step": 4, "note": 67, "vel": 90, "len": 2}, {"step": 6, "note": 60, "vel": 85, "len": 2}]}]}, "pattern": [{"bar": 5, "events": [{"step": 0, "note": 72, "vel": 100, "len": 2}, {"step": 2, "note": 75, "vel": 95, "len": 2}, {"step": 5, "note": 74, "vel": 90, "len": 1}, {"step": 6, "note": 72, "vel": 90, "len": 2}]}, {"bar": 6, "events": [{"step": 1, "note": 79, "vel": 105, "len": 1}, {"step": 2, "note": 75, "vel": 100, "len": 1}, {"step": 4, "note": 72, "vel": 95, "len": 3}]}, {"bar": 7, "events": [{"step": 0, "note": 72, "vel": 100, "len": 1}, {"step": 1, "note": 75, "vel": 95, "len": 1}, {"step": 3, "note": 77, "vel": 105, "len": 1}, {"step": 5, "note": 79, "vel": 110, "len": 2}, {"step": 7, "note": 77, "vel": 100, "len": 1}]}, {"bar": 8, "events": [{"step": 0, "note": 75, "vel": 95, "len": 2}, {"step": 3, "note": 72, "vel": 90, "len": 2}, {"step": 6, "note": 67, "vel": 85, "len": 2}]}, {"bar": 13, "events": [{"step": 0, "note": 72, "vel": 105, "len": 2}, {"step": 2, "note": 84, "vel": 110, "len": 1}, {"step": 4, "note": 79, "vel": 100, "len": 1}, {"step": 6, "note": 75, "vel": 95, "len": 2}]}, {"bar": 14, "events": [{"step": 1, "note": 74, "vel": 95, "len": 1}, {"step": 3, "note": 72, "vel": 90, "len": 3}, {"step": 7, "note": 79, "vel": 95, "len": 1}]}, {"bar": 15, "events": [{"step": 0, "note": 84, "vel": 115, "len": 2}, {"step": 3, "note": 79, "vel": 105, "len": 1}, {"step": 5, "note": 77, "vel": 100, "len": 1}, {"step": 7, "note": 75, "vel": 95, "len": 1}]}, {"bar": 16, "events": [{"step": 0, "note": 72, "vel": 100, "len": 4}, {"step": 4, "note": 67, "vel": 90, "len": 2}, {"step": 6, "note": 60, "vel": 85, "len": 2}]}]}