{"pattern": [{"bar": 1, "events": [{"step": 0, "note": 36, "vel": 120, "len": 1}, {"step": 4, "note": 38, "vel": 127, "len": 1}]}, {"bar": 2, "events": [{"step": 0, "note": 36, "vel": 120, "len": 1}, {"step": 4, "note": 38, "vel": 127, "len": 1}]}, {"bar": 3, "events": [{"step": 0, "note": 36, "vel": 120, "len": 1}, {"step": 4, "note": 38, "vel": 127, "len": 1}]}, {"bar": 4, "events": [{"step": 0, "note": 36, "vel": 120, "len": 1}, {"step": 4, "note": 38, "vel": 127, "len": 1}]}, {"bar": 5, "events": [{"step": 0, "note": 36, "vel": 120, "len": 1}, {"step": 4, "note": 38, "vel": 127, "len": 1}]}, {"bar": 6, "events": [{"step": 0, "note": 36, "vel": 120, "len": 1}, {"step": 4, "note": 38, "vel": 127, "len": 1}]}, {"bar": 7, "events": [{"step": 0, "note": 36, "vel": 120, "len": 1}, {"step": 4, "note": 38, "vel": 127, "len": 1}]}, {"bar": 8, "events": [{"step": 0, "note": 36, "vel": 120, "len": 1}, {"step": 4, "note": 38, "vel": 127, "len": 1}]}, {"bar": 9, "events": [{"step": 0, "note": 36, "vel": 120, "len": 1}, {"step": 4, "note": 38, "vel": 127, "len": 1}]}, {"bar": 10, "events": [{"step": 0, "note": 36, "vel": 120, "len": 1}, {"step": 4, "note": 38, "vel": 127, "len": 1}]}, {"bar": 11, "events": [{"step": 0, "note": 36, "vel": 120, "len": 1}, {"step": 4, "note": 38, "vel": 127, "len": 1}]}, {"bar": 12, "events": [{"step": 0, "note": 36, "vel": 120, "len": 1}, {"step": 4, "note": 38, "vel": 127, "len": 1}]}, {"bar": 13, "events": [{"step": 0, "note": 36, "vel": 120, "len": 1}, {"step": 4, "note": 38, "vel": 127, "len": 1}]}, {"bar": 14, "events": [{"step": 0, "note": 36, "vel": 120, "len": 1}, {"step": 4, "note": 38, "vel": 127, "len": 1}]}, {"bar": 15, "events": [{"step": 0, "note": 36, "vel": 120, "len": 1}, {"step": 4, "note": 38, "vel": 127, "len": 1}]}, {"bar": 16, "events": [{"step": 0, "note": 36, "vel": 120, "len": 1}, {"step": 4, "note": 38, "vel": 127, "len": 1}]}], "layers": {"Kick": [{"bar": 1, "events": [{"step": 0, "note": 36, "vel": 120, "len": 1}, {"step": 3, "note": 36, "vel": 90, "len": 1}, {"step": 5, "note": 36, "vel": 110, "len": 1}]}, {"bar": 2, "events": [{"step": 0, "note": 36, "vel": 120, "len": 1}, {"step": 5, "note": 36, "vel": 110, "len": 1}, {"step": 7, "note": 36, "vel": 95, "len": 1}]}, {"bar": 3, "events": [{"step": 0, "note": 36, "vel": 120, "len": 1}, {"step": 2, "note": 36, "vel": 100, "len": 1}, {"step": 5, "note": 36, "vel": 110, "len": 1}]}, {"bar": 4, "events": [{"step": 0, "note": 36, "vel": 120, "len": 1}, {"step": 5, "note": 36, "vel": 110, "len": 1}, {"step": 6, "note": 36, "vel": 80, "len": 1}]}, {"bar": 5, "events": [{"step": 0, "note": 36, "vel": 120, "len": 1}, {"step": 3, "note": 36, "vel": 90, "len": 1}, {"step": 5, "note": 36, "vel": 110, "len": 1}]}, {"bar": 6, "events": [{"step": 0, "note": 36, "vel": 120, "len": 1}, {"step": 5, "note": 36, "vel": 110, "len": 1}, {"step": 7, "note": 36, "vel": 95, "len": 1}]}, {"bar": 7, "events": [{"step": 0, "note": 36, "vel": 120, "len": 1}, {"step": 2, "note": 36, "vel": 100, "len": 1}, {"step": 5, "note": 36, "vel": 110, "len": 1}]}, {"bar": 8, "events": [{"step": 0, "note": 36, "vel": 120, "len": 1}, {"step": 5, "note": 36, "vel": 110, "len": 1}, {"step": 6, "note": 36, "vel": 80, "len": 1}]}, {"bar": 9, "events": [{"step": 0, "note": 36, "vel": 120, "len": 1}, {"step": 3, "note": 36, "vel": 90, "len": 1}, {"step": 5, "note": 36, "vel": 110, "len": 1}]}, {"bar": 10, "events": [{"step": 0, "note": 36, "vel": 120, "len": 1}, {"step": 5, "note": 36, "vel": 110, "len": 1}, {"step": 7, "note": 36, "vel": 95, "len": 1}]}, {"bar": 11, "events": [{"step": 0, "note": 36, "vel": 120, "len": 1}, {"step": 2, "note": 36, "vel": 100, "len": 1}, {"step": 5, "note": 36, "vel": 110, "len": 1}]}, {"bar": 12, "events": [{"step": 0, "note": 36, "vel": 120, "len": 1}, {"step": 5, "note": 36, "vel": 110, "len": 1}, {"step": 6, "note": 36, "vel": 80, "len": 1}]}, {"bar": 13, "events": [{"step": 0, "note": 36, "vel": 120, "len": 1}, {"step": 3, "note": 36, "vel": 90, "len": 1}, {"step": 5, "note": 36, "vel": 110, "len": 1}]}, {"bar": 14, "events": [{"step": 0, "note": 36, "vel": 120, "len": 1}, {"step": 5, "note": 36, "vel": 110, "len": 1}, {"step": 7, "note": 36, "vel": 95, "len": 1}]}, {"bar": 15, "events": [{"step": 0, "note": 36, "vel": 120, "len": 1}, {"step": 2, "note": 36, "vel": 100, "len": 1}, {"step": 5, "note": 36, "vel": 110, "len": 1}]}, {"bar": 16, "events": [{"step": 0, "note": 36, "vel": 120, "len": 1}, {"step": 4, "note": 36, "vel": 80, "len": 1}, {"step": 5, "note": 36, "vel": 110, "len": 1}, {"step": 7, "note": 36, "vel": 100, "len": 1}]}], "Snare": [{"bar": 1, "events": [{"step": 4, "note": 38, "vel": 127, "len": 1}, {"step": 7, "note": 38, "vel": 60, "len": 1}]}, {"bar": 2, "events": [{"step": 4, "note": 38, "vel": 127, "len": 1}]}, {"bar": 3, "events": [{"step": 4, "note": 38, "vel": 127, "len": 1}, {"step": 6, "note": 38, "vel": 65, "len": 1}]}, {"bar": 4, "events": [{"step": 4, "note": 38, "vel": 127, "len": 1}, {"step": 7, "note": 38, "vel": 70, "len": 1}]}, {"bar": 5, "events": [{"step": 4, "note": 38, "vel": 127, "len": 1}]}, {"bar": 6, "events": [{"step": 4, "note": 38, "vel": 127, "len": 1}, {"step": 7, "note": 38, "vel": 60, "len": 1}]}, {"bar": 7, "events": [{"step": 4, "note": 38, "vel": 127, "len": 1}]}, {"bar": 8, "events": [{"step": 4, "note": 38, "vel": 127, "len": 1}, {"step": 6, "note": 38, "vel": 70, "len": 1}]}, {"bar": 9, "events": [{"step": 4, "note": 38, "vel": 127, "len": 1}]}, {"bar": 10, "events": [{"step": 4, "note": 38, "vel": 127, "len": 1}]}, {"bar": 11, "events": [{"step": 4, "note": 38, "vel": 127, "len": 1}, {"step": 7, "note": 38, "vel": 65, "len": 1}]}, {"bar": 12, "events": [{"step": 4, "note": 38, "vel": 127, "len": 1}]}, {"bar": 13, "events": [{"step": 4, "note": 38, "vel": 127, "len": 1}]}, {"bar": 14, "events": [{"step": 4, "note": 38, "vel": 127, "len": 1}]}, {"bar": 15, "events": [{"step": 4, "note": 38, "vel": 127, "len": 1}, {"step": 6, "note": 38, "vel": 60, "len": 1}]}, {"bar": 16, "events": [{"step": 4, "note": 38, "vel": 127, "len": 1}, {"step": 6, "note": 38, "vel": 110, "len": 1}, {"step": 7, "note": 38, "vel": 90, "len": 1}]}], "Hat": [{"bar": 1, "events": [{"step": 0, "note": 42, "vel": 100, "len": 1}, {"step": 1, "note": 42, "vel": 80, "len": 1}, {"step": 2, "note": 42, "vel": 95, "len": 1}, {"step": 3, "note": 42, "vel": 80, "len": 1}, {"step": 4, "note": 42, "vel": 100, "len": 1}, {"step": 5, "note": 42, "vel": 80, "len": 1}, {"step": 6, "note": 42, "vel": 95, "len": 1}, {"step": 7, "note": 42, "vel": 80, "len": 1}]}, {"bar": 2, "events": [{"step": 0, "note": 42, "vel": 100, "len": 1}, {"step": 2, "note": 42, "vel": 95, "len": 1}, {"step": 3, "note": 42, "vel": 70, "len": 1}, {"step": 4, "note": 42, "vel": 100, "len": 1}, {"step": 6, "note": 42, "vel": 95, "len": 1}, {"step": 7, "note": 42, "vel": 80, "len": 1}]}, {"bar": 3, "events": [{"step": 0, "note": 42, "vel": 100, "len": 1}, {"step": 1, "note": 42, "vel": 80, "len": 1}, {"step": 2, "note": 42, "vel": 95, "len": 1}, {"step": 3, "note": 42, "vel": 80, "len": 1}, {"step": 4, "note": 42, "vel": 100, "len": 1}, {"step": 5, "note": 42, "vel": 80, "len": 1}, {"step": 6, "note": 42, "vel": 95, "len": 1}, {"step": 7, "note": 42, "vel": 80, "len": 1}]}, {"bar": 4, "events": [{"step": 0, "note": 42, "vel": 100, "len": 1}, {"step": 2, "note": 42, "vel": 95, "len": 1}, {"step": 4, "note": 42, "vel": 100, "len": 1}, {"step": 5, "note": 46, "vel": 105, "len": 1}, {"step": 6, "note": 42, "vel": 95, "len": 1}]}], "Bass": [{"bar": 1, "events": [{"step": 0, "note": 36, "vel": 110, "len": 2}, {"step": 2, "note": 36, "vel": 90, "len": 1}, {"step": 5, "note": 39, "vel": 105, "len": 2}, {"step": 7, "note": 43, "vel": 100, "len": 1}]}, {"bar": 2, "events": [{"step": 0, "note": 36, "vel": 110, "len": 3}, {"step": 5, "note": 46, "vel": 105, "len": 2}, {"step": 7, "note": 43, "vel": 100, "len": 1}]}, {"bar": 3, "events": [{"step": 0, "note": 36, "vel": 110, "len": 2}, {"step": 3, "note": 36, "vel": 90, "len": 1}, {"step": 5, "note": 39, "vel": 105, "len": 2}, {"step": 7, "note": 41, "vel": 100, "len": 1}]}, {"bar": 4, "events": [{"step": 0, "note": 36, "vel": 110, "len": 2}, {"step": 2, "note": 38, "vel": 90, "len": 2}, {"step": 5, "note": 43, "vel": 105, "len": 3}]}], "Piano": [{"bar": 1, "events": [{"step": 2, "note": 60, "vel": 95, "len": 1}, {"step": 2, "note": 63, "vel": 95, "len": 1}, {"step": 2, "note": 67, "vel": 95, "len": 1}, {"step": 2, "note": 70, "vel": 95, "len": 1}, {"step": 5, "note": 58, "vel": 90, "len": 1}, {"step": 5, "note": 62, "vel": 90, "len": 1}, {"step": 5, "note": 65, "vel": 90, "len": 1}]}, {"bar": 2, "events": [{"step": 2, "note": 60, "vel": 90, "len": 1}, {"step": 2, "note": 63, "vel": 90, "len": 1}, {"step": 2, "note": 67, "vel": 90, "len": 1}, {"step": 5, "note": 60, "vel": 95, "len": 1}, {"step": 5, "note": 63, "vel": 95, "len": 1}, {"step": 5, "note": 67, "vel": 95, "len": 1}, {"step": 7, "note": 72, "vel": 85, "len": 1}]}, {"bar": 3, "events": [{"step": 2, "note": 60, "vel": 95, "len": 1}, {"step": 2, "note": 63, "vel": 95, "len": 1}, {"step": 2, "note": 67, "vel": 95, "len": 1}, {"step": 2, "note": 70, "vel": 95, "len": 1}, {"step": 5, "note": 56, "vel": 90, "len": 1}, {"step": 5, "note": 60, "vel": 90, "len": 1}, {"step": 5, "note": 63, "vel": 90, "len": 1}]}, {"bar": 4, "events": [{"step": 1, "note": 60, "vel": 90, "len": 1}, {"step": 1, "note": 63, "vel": 90, "len": 1}, {"step": 1, "note": 67, "vel": 90, "len": 1}, {"step": 6, "note": 58, "vel": 95, "len": 1}, {"step": 6, "note": 62, "vel": 95, "len": 1}, {"step": 6, "note": 65, "vel": 95, "len": 1}]}], "Strings": [{"bar": 5, "events": [{"step": 0, "note": 79, "vel": 60, "len": 8}, {"step": 0, "note": 74, "vel": 55, "len": 8}]}, {"bar": 6, "events": [{"step": 0, "note": 79, "vel": 60, "len": 8}, {"step": 0, "note": 75, "vel": 55, "len": 8}]}, {"bar": 7, "events": [{"step": 0, "note": 80, "vel": 60, "len": 8}, {"step": 0, "note": 72, "vel": 55, "len": 8}]}, {"bar": 8, "events": [{"step": 0, "note": 79, "vel": 60, "len": 8}, {"step": 0, "note": 74, "vel": 55, "len": 8}]}], "Sax": [{"bar": 5, "events": [{"step": 0, "note": 72, "vel": 100, "len": 2}, {"step": 2, "note": 75, "vel": 95, "len": 2}, {"step": 5, "note": 74, "vel": 90, "len": 1}, {"step": 6, "note": 72, "vel": 90, "len": 2}]}, {"bar": 6, "events": [{"step": 1, "note": 79, "vel": 105, "len": 1}, {"step": 2, "note": 75, "vel": 100, "len": 1}, {"step": 4, "note": 72, "vel": 95, "len": 3}]}, {"bar": 7, "events": [{"step": 0, "note": 72, "vel": 100, "len": 1}, {"step": 1, "note": 75, "vel": 95, "len": 1}, {"step": 3, "note": 77, "vel": 105, "len": 1}, {"step": 5, "note": 79, "vel": 110, "len": 2}, {"step": 7, "note": 77, "vel": 100, "len": 1}]}, {"bar": 8, "events": [{"step": 0, "note": 75, "vel": 95, "len": 2}, {"step": 3, "note": 72, "vel": 90, "len": 2}, {"step": 6, "note": 67, "vel": 85, "len": 2}]}, {"bar": 13, "events": [{"step": 0, "note": 72, "vel": 105, "len": 2}, {"step": 2, "note": 84, "vel": 110, "len": 1}, {"step": 4, "note": 79, "vel": 100, "len": 1}, {"step": 6, "note": 75, "vel": 95, "len": 2}]}, {"bar": 14, "events": [{"step": 1, "note": 74, "vel": 95, "len": 1}, {"step": 3, "note": 72, "vel": 90, "len": 3}, {"step": 7, "note": 79, "vel": 95, "len": 1}]}, {"bar": 15, "events": [{"step": 0, "note": 84, "vel": 115, "len": 2}, {"step": 3, "note": 79, "vel": 105, "len": 1}, {"step": 5, "note": 77, "vel": 100, "len": 1}, {"step": 7, "note": 75, "vel": 95, "len": 1}]}, {"bar": 16, "events": [{"step": 0, "note": 72, "vel": 100, "len": 4}, {"step": 4, "note": 67, "vel": 90, "len": 2}, {"step": 6, "note": 60, "vel": 85, "len": 2}]}]}, "meta": {"style": "Old School Hip Hop", "mood": "Gritty", "tempo": 90, "key": "C Minor", "bars": 16, "scale": "Minor", "meter": "4/4", "dynamic_profile": "Punchy", "arrangement_density": "Moderate", "harmonic_color": "Jazzy Dark", "length_seconds": 42.6, "instrument_configs": [{"name": "Kick", "register": "Low", "role": "Percussion", "articulation": "Percussive", "dynamic_range": "Intense"}, {"name": "Snare", "register": "Mid", "role": "Percussion", "articulation": "Percussive", "dynamic_range": "Intense"}, {"name": "Hat", "register": "High", "role": "Percussion", "articulation": "Percussive", "dynamic_range": "Moderate"}, {"name": "Bass", "register": "Low", "role": "Bass", "articulation": "Legato", "dynamic_range": "Moderate"}, {"name": "Piano", "register": "Mid", "role": "Accompaniment", "articulation": "Staccato", "dynamic_range": "Moderate"}, {"name": "Strings", "register": "High", "role": "Pad", "articulation": "Sustain", "dynamic_range": "Delicate"}, {"name": "Sax", "register": "Mid-High", "role": "Lead", "articulation": "Legato", "dynamic_range": "Moderate"}], "instruments": ["Kick", "Snare", "Hat", "Bass", "Piano", "Strings", "Sax"]}}