{"meta": {"style": "Old School Hip Hop", "mood": "Gritty", "tempo": 90, "key": "C Minor", "bars": 16, "scale": "Minor", "meter": "4/4", "dynamic_profile": "Punchy", "arrangement_density": "Moderate", "harmonic_color": "Jazzy Dark", "length_seconds": 42.6, "instrument_configs": [{"name": "Kick", "register": "Low", "role": "Percussion", "articulation": "Percussive", "dynamic_range": "Intense"}, {"name": "Snare", "register": "Mid", "role": "Percussion", "articulation": "Percussive", "dynamic_range": "Intense"}, {"name": "Hat", "register": "High", "role": "Percussion", "articulation": "Percussive", "dynamic_range": "Moderate"}, {"name": "Bass", "register": "Low", "role": "Bass", "articulation": "Legato", "dynamic_range": "Moderate"}, {"name": "Piano", "register": "Mid", "role": "Accompaniment", "articulation": "Staccato", "dynamic_range": "Moderate"}, {"name": "Strings", "register": "High", "role": "Pad", "articulation": "Sustain", "dynamic_range": "Delicate"}, {"name": "Sax", "register": "Mid-High", "role": "Lead", "articulation": "Legato", "dynamic_range": "Moderate"}], "instruments": ["Kick", "Snare", "Hat", "Bass", "Piano", "Strings", "Sax"], "instrument": "Piano"}, "layers": {"Piano": [{"bar": 1, "events": [{"step": 2, "note": 60, "vel": 95, "len": 1}, {"step": 2, "note": 63, "vel": 95, "len": 1}, {"step": 2, "note": 67, "vel": 95, "len": 1}, {"step": 2, "note": 70, "vel": 95, "len": 1}, {"step": 5, "note": 58, "vel": 90, "len": 1}, {"step": 5, "note": 62, "vel": 90, "len": 1}, {"step": 5, "note": 65, "vel": 90, "len": 1}]}, {"bar": 2, "events": [{"step": 2, "note": 60, "vel": 90, "len": 1}, {"step": 2, "note": 63, "vel": 90, "len": 1}, {"step": 2, "note": 67, "vel": 90, "len": 1}, {"step": 5, "note": 60, "vel": 95, "len": 1}, {"step": 5, "note": 63, "vel": 95, "len": 1}, {"step": 5, "note": 67, "vel": 95, "len": 1}, {"step": 7, "note": 72, "vel": 85, "len": 1}]}, {"bar": 3, "events": [{"step": 2, "note": 60, "vel": 95, "len": 1}, {"step": 2, "note": 63, "vel": 95, "len": 1}, {"step": 2, "note": 67, "vel": 95, "len": 1}, {"step": 2, "note": 70, "vel": 95, "len": 1}, {"step": 5, "note": 56, "vel": 90, "len": 1}, {"step": 5, "note": 60, "vel": 90, "len": 1}, {"step": 5, "note": 63, "vel": 90, "len": 1}]}, {"bar": 4, "events": [{"step": 1, "note": 60, "vel": 90, "len": 1}, {"step": 1, "note": 63, "vel": 90, "len": 1}, {"step": 1, "note": 67, "vel": 90, "len": 1}, {"step": 6, "note": 58, "vel": 95, "len": 1}, {"step": 6, "note": 62, "vel": 95, "len": 1}, {"step": 6, "note": 65, "vel": 95, "len": 1}]}]}, "pattern": [{"bar": 1, "events": [{"step": 2, "note": 60, "vel": 95, "len": 1}, {"step": 2, "note": 63, "vel": 95, "len": 1}, {"step": 2, "note": 67, "vel": 95, "len": 1}, {"step": 2, "note": 70, "vel": 95, "len": 1}, {"step": 5, "note": 58, "vel": 90, "len": 1}, {"step": 5, "note": 62, "vel": 90, "len": 1}, {"step": 5, "note": 65, "vel": 90, "len": 1}]}, {"bar": 2, "events": [{"step": 2, "note": 60, "vel": 90, "len": 1}, {"step": 2, "note": 63, "vel": 90, "len": 1}, {"step": 2, "note": 67, "vel": 90, "len": 1}, {"step": 5, "note": 60, "vel": 95, "len": 1}, {"step": 5, "note": 63, "vel": 95, "len": 1}, {"step": 5, "note": 67, "vel": 95, "len": 1}, {"step": 7, "note": 72, "vel": 85, "len": 1}]}, {"bar": 3, "events": [{"step": 2, "note": 60, "vel": 95, "len": 1}, {"step": 2, "note": 63, "vel": 95, "len": 1}, {"step": 2, "note": 67, "vel": 95, "len": 1}, {"step": 2, "note": 70, "vel": 95, "len": 1}, {"step": 5, "note": 56, "vel": 90, "len": 1}, {"step": 5, "note": 60, "vel": 90, "len": 1}, {"step": 5, "note": 63, "vel": 90, "len": 1}]}, {"bar": 4, "events": [{"step": 1, "note": 60, "vel": 90, "len": 1}, {"step": 1, "note": 63, "vel": 90, "len": 1}, {"step": 1, "note": 67, "vel": 90, "len": 1}, {"step": 6, "note": 58, "vel": 95, "len": 1}, {"step": 6, "note": 62, "vel": 95, "len": 1}, {"step": 6, "note": 65, "vel": 95, "len": 1}]}]}