{"meta": {"style": "Old School Hip Hop", "mood": "Gritty", "tempo": 90, "key": "C Minor", "bars": 16, "scale": "Minor", "meter": "4/4", "dynamic_profile": "Punchy", "arrangement_density": "Moderate", "harmonic_color": "Jazzy Dark", "length_seconds": 42.6, "instrument_configs": [{"name": "Kick", "register": "Low", "role": "Percussion", "articulation": "Percussive", "dynamic_range": "Intense"}, {"name": "Snare", "register": "Mid", "role": "Percussion", "articulation": "Percussive", "dynamic_range": "Intense"}, {"name": "Hat", "register": "High", "role": "Percussion", "articulation": "Percussive", "dynamic_range": "Moderate"}, {"name": "Bass", "register": "Low", "role": "Bass", "articulation": "Legato", "dynamic_range": "Moderate"}, {"name": "Piano", "register": "Mid", "role": "Accompaniment", "articulation": "Staccato", "dynamic_range": "Moderate"}, {"name": "Strings", "register": "High", "role": "Pad", "articulation": "Sustain", "dynamic_range": "Delicate"}, {"name": "Sax", "register": "Mid-High", "role": "Lead", "articulation": "Legato", "dynamic_range": "Moderate"}], "instruments": ["Kick", "Snare", "Hat", "Bass", "Piano", "Strings", "Sax"], "instrument": "Kick"}, "layers": {"Kick": [{"bar": 1, "events": [{"step": 0, "note": 36, "vel": 120, "len": 1}, {"step": 3, "note": 36, "vel": 90, "len": 1}, {"step": 5, "note": 36, "vel": 110, "len": 1}]}, {"bar": 2, "events": [{"step": 0, "note": 36, "vel": 120, "len": 1}, {"step": 5, "note": 36, "vel": 110, "len": 1}, {"step": 7, "note": 36, "vel": 95, "len": 1}]}, {"bar": 3, "events": [{"step": 0, "note": 36, "vel": 120, "len": 1}, {"step": 2, "note": 36, "vel": 100, "len": 1}, {"step": 5, "note": 36, "vel": 110, "len": 1}]}, {"bar": 4, "events": [{"step": 0, "note": 36, "vel": 120, "len": 1}, {"step": 5, "note": 36, "vel": 110, "len": 1}, {"step": 6, "note": 36, "vel": 80, "len": 1}]}, {"bar": 5, "events": [{"step": 0, "note": 36, "vel": 120, "len": 1}, {"step": 3, "note": 36, "vel": 90, "len": 1}, {"step": 5, "note": 36, "vel": 110, "len": 1}]}, {"bar": 6, "events": [{"step": 0, "note": 36, "vel": 120, "len": 1}, {"step": 5, "note": 36, "vel": 110, "len": 1}, {"step": 7, "note": 36, "vel": 95, "len": 1}]}, {"bar": 7, "events": [{"step": 0, "note": 36, "vel": 120, "len": 1}, {"step": 2, "note": 36, "vel": 100, "len": 1}, {"step": 5, "note": 36, "vel": 110, "len": 1}]}, {"bar": 8, "events": [{"step": 0, "note": 36, "vel": 120, "len": 1}, {"step": 5, "note": 36, "vel": 110, "len": 1}, {"step": 6, "note": 36, "vel": 80, "len": 1}]}, {"bar": 9, "events": [{"step": 0, "note": 36, "vel": 120, "len": 1}, {"step": 3, "note": 36, "vel": 90, "len": 1}, {"step": 5, "note": 36, "vel": 110, "len": 1}]}, {"bar": 10, "events": [{"step": 0, "note": 36, "vel": 120, "len": 1}, {"step": 5, "note": 36, "vel": 110, "len": 1}, {"step": 7, "note": 36, "vel": 95, "len": 1}]}, {"bar": 11, "events": [{"step": 0, "note": 36, "vel": 120, "len": 1}, {"step": 2, "note": 36, "vel": 100, "len": 1}, {"step": 5, "note": 36, "vel": 110, "len": 1}]}, {"bar": 12, "events": [{"step": 0, "note": 36, "vel": 120, "len": 1}, {"step": 5, "note": 36, "vel": 110, "len": 1}, {"step": 6, "note": 36, "vel": 80, "len": 1}]}, {"bar": 13, "events": [{"step": 0, "note": 36, "vel": 120, "len": 1}, {"step": 3, "note": 36, "vel": 90, "len": 1}, {"step": 5, "note": 36, "vel": 110, "len": 1}]}, {"bar": 14, "events": [{"step": 0, "note": 36, "vel": 120, "len": 1}, {"step": 5, "note": 36, "vel": 110, "len": 1}, {"step": 7, "note": 36, "vel": 95, "len": 1}]}, {"bar": 15, "events": [{"step": 0, "note": 36, "vel": 120, "len": 1}, {"step": 2, "note": 36, "vel": 100, "len": 1}, {"step": 5, "note": 36, "vel": 110, "len": 1}]}, {"bar": 16, "events": [{"step": 0, "note": 36, "vel": 120, "len": 1}, {"step": 4, "note": 36, "vel": 80, "len": 1}, {"step": 5, "note": 36, "vel": 110, "len": 1}, {"step": 7, "note": 36, "vel": 100, "len": 1}]}]}, "pattern": [{"bar": 1, "events": [{"step": 0, "note": 36, "vel": 120, "len": 1}, {"step": 3, "note": 36, "vel": 90, "len": 1}, {"step": 5, "note": 36, "vel": 110, "len": 1}]}, {"bar": 2, "events": [{"step": 0, "note": 36, "vel": 120, "len": 1}, {"step": 5, "note": 36, "vel": 110, "len": 1}, {"step": 7, "note": 36, "vel": 95, "len": 1}]}, {"bar": 3, "events": [{"step": 0, "note": 36, "vel": 120, "len": 1}, {"step": 2, "note": 36, "vel": 100, "len": 1}, {"step": 5, "note": 36, "vel": 110, "len": 1}]}, {"bar": 4, "events": [{"step": 0, "note": 36, "vel": 120, "len": 1}, {"step": 5, "note": 36, "vel": 110, "len": 1}, {"step": 6, "note": 36, "vel": 80, "len": 1}]}, {"bar": 5, "events": [{"step": 0, "note": 36, "vel": 120, "len": 1}, {"step": 3, "note": 36, "vel": 90, "len": 1}, {"step": 5, "note": 36, "vel": 110, "len": 1}]}, {"bar": 6, "events": [{"step": 0, "note": 36, "vel": 120, "len": 1}, {"step": 5, "note": 36, "vel": 110, "len": 1}, {"step": 7, "note": 36, "vel": 95, "len": 1}]}, {"bar": 7, "events": [{"step": 0, "note": 36, "vel": 120, "len": 1}, {"step": 2, "note": 36, "vel": 100, "len": 1}, {"step": 5, "note": 36, "vel": 110, "len": 1}]}, {"bar": 8, "events": [{"step": 0, "note": 36, "vel": 120, "len": 1}, {"step": 5, "note": 36, "vel": 110, "len": 1}, {"step": 6, "note": 36, "vel": 80, "len": 1}]}, {"bar": 9, "events": [{"step": 0, "note": 36, "vel": 120, "len": 1}, {"step": 3, "note": 36, "vel": 90, "len": 1}, {"step": 5, "note": 36, "vel": 110, "len": 1}]}, {"bar": 10, "events": [{"step": 0, "note": 36, "vel": 120, "len": 1}, {"step": 5, "note": 36, "vel": 110, "len": 1}, {"step": 7, "note": 36, "vel": 95, "len": 1}]}, {"bar": 11, "events": [{"step": 0, "note": 36, "vel": 120, "len": 1}, {"step": 2, "note": 36, "vel": 100, "len": 1}, {"step": 5, "note": 36, "vel": 110, "len": 1}]}, {"bar": 12, "events": [{"step": 0, "note": 36, "vel": 120, "len": 1}, {"step": 5, "note": 36, "vel": 110, "len": 1}, {"step": 6, "note": 36, "vel": 80, "len": 1}]}, {"bar": 13, "events": [{"step": 0, "note": 36, "vel": 120, "len": 1}, {"step": 3, "note": 36, "vel": 90, "len": 1}, {"step": 5, "note": 36, "vel": 110, "len": 1}]}, {"bar": 14, "events": [{"step": 0, "note": 36, "vel": 120, "len": 1}, {"step": 5, "note": 36, "vel": 110, "len": 1}, {"step": 7, "note": 36, "vel": 95, "len": 1}]}, {"bar": 15, "events": [{"step": 0, "note": 36, "vel": 120, "len": 1}, {"step": 2, "note": 36, "vel": 100, "len": 1}, {"step": 5, "note": 36, "vel": 110, "len": 1}]}, {"bar": 16, "events": [{"step": 0, "note": 36, "vel": 120, "len": 1}, {"step": 4, "note": 36, "vel": 80, "len": 1}, {"step": 5, "note": 36, "vel": 110, "len": 1}, {"step": 7, "note": 36, "vel": 100, "len": 1}]}]}