{"request": {"project_name": "test-rock222", "run_id": "19bc0a603511", "user_id": 2, "midi": {"pattern": [{"bar": 1, "events": [{"step": 0, "note": 49, "vel": 127, "len": 1}, {"step": 0, "note": 36, "vel": 127, "len": 1}, {"step": 0, "note": 46, "vel": 100, "len": 1}, {"step": 1, "note": 46, "vel": 90, "len": 1}, {"step": 2, "note": 38, "vel": 120, "len": 1}, {"step": 2, "note": 46, "vel": 100, "len": 1}, {"step": 3, "note": 46, "vel": 90, "len": 1}, {"step": 3, "note": 36, "vel": 110, "len": 1}, {"step": 4, "note": 46, "vel": 100, "len": 1}, {"step": 5, "note": 36, "vel": 115, "len": 1}, {"step": 5, "note": 46, "vel": 90, "len": 1}, {"step": 6, "note": 38, "vel": 120, "len": 1}, {"step": 6, "note": 46, "vel": 100, "len": 1}, {"step": 7, "note": 46, "vel": 90, "len": 1}]}, {"bar": 2, "events": [{"step": 0, "note": 36, "vel": 120, "len": 1}, {"step": 0, "note": 46, "vel": 100, "len": 1}, {"step": 1, "note": 36, "vel": 110, "len": 1}, {"step": 1, "note": 46, "vel": 90, "len": 1}, {"step": 2, "note": 38, "vel": 120, "len": 1}, {"step": 2, "note": 46, "vel": 100, "len": 1}, {"step": 3, "note": 46, "vel": 90, "len": 1}, {"step": 3, "note": 36, "vel": 110, "len": 1}, {"step": 4, "note": 46, "vel": 100, "len": 1}, {"step": 5, "note": 36, "vel": 115, "len": 1}, {"step": 5, "note": 46, "vel": 90, "len": 1}, {"step": 6, "note": 38, "vel": 120, "len": 1}, {"step": 6, "note": 46, "vel": 100, "len": 1}, {"step": 7, "note": 46, "vel": 90, "len": 1}]}, {"bar": 3, "events": [{"step": 0, "note": 49, "vel": 120, "len": 1}, {"step": 0, "note": 36, "vel": 127, "len": 1}, {"step": 0, "note": 46, "vel": 100, "len": 1}, {"step": 1, "note": 46, "vel": 90, "len": 1}, {"step": 2, "note": 38, "vel": 120, "len": 1}, {"step": 2, "note": 46, "vel": 100, "len": 1}, {"step": 3, "note": 46, "vel": 90, "len": 1}, {"step": 3, "note": 36, "vel": 110, "len": 1}, {"step": 4, "note": 46, "vel": 100, "len": 1}, {"step": 5, "note": 36, "vel": 115, "len": 1}, {"step": 5, "note": 46, "vel": 90, "len": 1}, {"step": 6, "note": 38, "vel": 120, "len": 1}, {"step": 6, "note": 46, "vel": 100, "len": 1}, {"step": 7, "note": 46, "vel": 90, "len": 1}]}, {"bar": 4, "events": [{"step": 0, "note": 36, "vel": 120, "len": 1}, {"step": 0, "note": 46, "vel": 100, "len": 1}, {"step": 1, "note": 46, "vel": 90, "len": 1}, {"step": 2, "note": 38, "vel": 120, "len": 1}, {"step": 2, "note": 46, "vel": 100, "len": 1}, {"step": 3, "note": 36, "vel": 110, "len": 1}, {"step": 4, "note": 36, "vel": 115, "len": 1}, {"step": 5, "note": 36, "vel": 120, "len": 1}, {"step": 6, "note": 38, "vel": 127, "len": 1}, {"step": 7, "note": 38, "vel": 110, "len": 1}]}, {"bar": 5, "events": [{"step": 0, "note": 49, "vel": 127, "len": 1}, {"step": 0, "note": 36, "vel": 127, "len": 1}, {"step": 0, "note": 46, "vel": 100, "len": 1}, {"step": 1, "note": 46, "vel": 90, "len": 1}, {"step": 2, "note": 38, "vel": 120, "len": 1}, {"step": 2, "note": 46, "vel": 100, "len": 1}, {"step": 3, "note": 46, "vel": 90, "len": 1}, {"step": 3, "note": 36, "vel": 110, "len": 1}, {"step": 4, "note": 46, "vel": 100, "len": 1}, {"step": 5, "note": 36, "vel": 115, "len": 1}, {"step": 5, "note": 46, "vel": 90, "len": 1}, {"step": 6, "note": 38, "vel": 120, "len": 1}, {"step": 6, "note": 46, "vel": 100, "len": 1}, {"step": 7, "note": 46, "vel": 90, "len": 1}]}, {"bar": 6, "events": [{"step": 0, "note": 36, "vel": 120, "len": 1}, {"step": 0, "note": 46, "vel": 100, "len": 1}, {"step": 1, "note": 36, "vel": 110, "len": 1}, {"step": 1, "note": 46, "vel": 90, "len": 1}, {"step": 2, "note": 38, "vel": 120, "len": 1}, {"step": 2, "note": 46, "vel": 100, "len": 1}, {"step": 3, "note": 46, "vel": 90, "len": 1}, {"step": 3, "note": 36, "vel": 110, "len": 1}, {"step": 4, "note": 46, "vel": 100, "len": 1}, {"step": 5, "note": 36, "vel": 115, "len": 1}, {"step": 5, "note": 46, "vel": 90, "len": 1}, {"step": 6, "note": 38, "vel": 120, "len": 1}, {"step": 6, "note": 46, "vel": 100, "len": 1}, {"step": 7, "note": 46, "vel": 90, "len": 1}]}, {"bar": 7, "events": [{"step": 0, "note": 49, "vel": 120, "len": 1}, {"step": 0, "note": 36, "vel": 127, "len": 1}, {"step": 1, "note": 36, "vel": 110, "len": 1}, {"step": 2, "note": 38, "vel": 120, "len": 1}, {"step": 3, "note": 36, "vel": 115, "len": 1}, {"step": 4, "note": 36, "vel": 120, "len": 1}, {"step": 5, "note": 38, "vel": 127, "len": 1}, {"step": 6, "note": 36, "vel": 120, "len": 1}, {"step": 7, "note": 38, "vel": 127, "len": 1}]}, {"bar": 8, "events": [{"step": 0, "note": 49, "vel": 127, "len": 2}, {"step": 0, "note": 36, "vel": 127, "len": 1}, {"step": 2, "note": 38, "vel": 127, "len": 1}, {"step": 2, "note": 36, "vel": 120, "len": 1}, {"step": 3, "note": 38, "vel": 110, "len": 1}, {"step": 4, "note": 36, "vel": 127, "len": 1}, {"step": 4, "note": 49, "vel": 127, "len": 4}, {"step": 6, "note": 38, "vel": 127, "len": 1}, {"step": 7, "note": 38, "vel": 100, "len": 1}]}], "layers": {"Electric Guitar": [{"bar": 1, "events": [{"step": 0, "note": 76, "vel": 120, "len": 2}, {"step": 2, "note": 76, "vel": 115, "len": 1}, {"step": 3, "note": 79, "vel": 120, "len": 1}, {"step": 4, "note": 76, "vel": 115, "len": 2}, {"step": 6, "note": 83, "vel": 127, "len": 1}, {"step": 7, "note": 81, "vel": 110, "len": 1}]}, {"bar": 2, "events": [{"step": 0, "note": 79, "vel": 120, "len": 1}, {"step": 1, "note": 76, "vel": 110, "len": 1}, {"step": 2, "note": 74, "vel": 115, "len": 1}, {"step": 3, "note": 76, "vel": 120, "len": 1}, {"step": 4, "note": 79, "vel": 125, "len": 1}, {"step": 5, "note": 76, "vel": 115, "len": 1}, {"step": 6, "note": 72, "vel": 120, "len": 2}]}, {"bar": 3, "events": [{"step": 0, "note": 67, "vel": 120, "len": 1}, {"step": 1, "note": 71, "vel": 110, "len": 1}, {"step": 2, "note": 74, "vel": 115, "len": 1}, {"step": 3, "note": 79, "vel": 120, "len": 1}, {"step": 4, "note": 74, "vel": 110, "len": 1}, {"step": 5, "note": 79, "vel": 125, "len": 1}, {"step": 6, "note": 83, "vel": 127, "len": 2}]}, {"bar": 4, "events": [{"step": 0, "note": 81, "vel": 120, "len": 1}, {"step": 1, "note": 79, "vel": 110, "len": 1}, {"step": 2, "note": 76, "vel": 115, "len": 1}, {"step": 3, "note": 74, "vel": 110, "len": 1}, {"step": 4, "note": 72, "vel": 115, "len": 1}, {"step": 5, "note": 74, "vel": 120, "len": 1}, {"step": 6, "note": 76, "vel": 125, "len": 1}, {"step": 7, "note": 79, "vel": 127, "len": 1}]}, {"bar": 5, "events": [{"step": 0, "note": 84, "vel": 127, "len": 2}, {"step": 2, "note": 84, "vel": 120, "len": 1}, {"step": 3, "note": 86, "vel": 125, "len": 1}, {"step": 4, "note": 88, "vel": 127, "len": 4}]}, {"bar": 6, "events": [{"step": 0, "note": 86, "vel": 125, "len": 1}, {"step": 1, "note": 84, "vel": 115, "len": 1}, {"step": 2, "note": 86, "vel": 120, "len": 1}, {"step": 3, "note": 88, "vel": 127, "len": 1}, {"step": 4, "note": 91, "vel": 127, "len": 2}, {"step": 6, "note": 88, "vel": 120, "len": 2}]}, {"bar": 7, "events": [{"step": 0, "note": 76, "vel": 127, "len": 1}, {"step": 1, "note": 76, "vel": 110, "len": 1}, {"step": 2, "note": 79, "vel": 120, "len": 1}, {"step": 3, "note": 83, "vel": 125, "len": 1}, {"step": 4, "note": 88, "vel": 127, "len": 1}, {"step": 5, "note": 88, "vel": 115, "len": 1}, {"step": 6, "note": 91, "vel": 127, "len": 1}, {"step": 7, "note": 93, "vel": 127, "len": 1}]}, {"bar": 8, "events": [{"step": 0, "note": 88, "vel": 127, "len": 4}, {"step": 4, "note": 76, "vel": 120, "len": 2}, {"step": 6, "note": 76, "vel": 127, "len": 2}]}], "Bass Guitar": [{"bar": 1, "events": [{"step": 0, "note": 28, "vel": 120, "len": 1}, {"step": 1, "note": 28, "vel": 110, "len": 1}, {"step": 2, "note": 28, "vel": 115, "len": 1}, {"step": 3, "note": 28, "vel": 110, "len": 1}, {"step": 4, "note": 28, "vel": 120, "len": 1}, {"step": 5, "note": 28, "vel": 115, "len": 1}, {"step": 6, "note": 28, "vel": 120, "len": 1}, {"step": 7, "note": 28, "vel": 110, "len": 1}]}, {"bar": 2, "events": [{"step": 0, "note": 28, "vel": 120, "len": 1}, {"step": 1, "note": 28, "vel": 110, "len": 1}, {"step": 2, "note": 28, "vel": 115, "len": 1}, {"step": 3, "note": 28, "vel": 110, "len": 1}, {"step": 4, "note": 28, "vel": 120, "len": 1}, {"step": 5, "note": 28, "vel": 115, "len": 1}, {"step": 6, "note": 28, "vel": 120, "len": 1}, {"step": 7, "note": 28, "vel": 110, "len": 1}]}, {"bar": 3, "events": [{"step": 0, "note": 31, "vel": 120, "len": 1}, {"step": 1, "note": 31, "vel": 110, "len": 1}, {"step": 2, "note": 31, "vel": 115, "len": 1}, {"step": 3, "note": 31, "vel": 110, "len": 1}, {"step": 4, "note": 31, "vel": 120, "len": 1}, {"step": 5, "note": 31, "vel": 115, "len": 1}, {"step": 6, "note": 31, "vel": 120, "len": 1}, {"step": 7, "note": 31, "vel": 110, "len": 1}]}, {"bar": 4, "events": [{"step": 0, "note": 33, "vel": 120, "len": 1}, {"step": 1, "note": 33, "vel": 110, "len": 1}, {"step": 2, "note": 33, "vel": 115, "len": 1}, {"step": 3, "note": 33, "vel": 110, "len": 1}, {"step": 4, "note": 33, "vel": 120, "len": 1}, {"step": 5, "note": 33, "vel": 115, "len": 1}, {"step": 6, "note": 33, "vel": 120, "len": 1}, {"step": 7, "note": 33, "vel": 110, "len": 1}]}, {"bar": 5, "events": [{"step": 0, "note": 36, "vel": 125, "len": 1}, {"step": 1, "note": 36, "vel": 115, "len": 1}, {"step": 2, "note": 36, "vel": 120, "len": 1}, {"step": 3, "note": 36, "vel": 115, "len": 1}, {"step": 4, "note": 36, "vel": 125, "len": 1}, {"step": 5, "note": 36, "vel": 120, "len": 1}, {"step": 6, "note": 36, "vel": 125, "len": 1}, {"step": 7, "note": 36, "vel": 115, "len": 1}]}, {"bar": 6, "events": [{"step": 0, "note": 38, "vel": 125, "len": 1}, {"step": 1, "note": 38, "vel": 115, "len": 1}, {"step": 2, "note": 38, "vel": 120, "len": 1}, {"step": 3, "note": 38, "vel": 115, "len": 1}, {"step": 4, "note": 38, "vel": 125, "len": 1}, {"step": 5, "note": 38, "vel": 120, "len": 1}, {"step": 6, "note": 38, "vel": 125, "len": 1}, {"step": 7, "note": 38, "vel": 115, "len": 1}]}, {"bar": 7, "events": [{"step": 0, "note": 28, "vel": 127, "len": 1}, {"step": 1, "note": 28, "vel": 120, "len": 1}, {"step": 2, "note": 28, "vel": 125, "len": 1}, {"step": 3, "note": 28, "vel": 120, "len": 1}, {"step": 4, "note": 28, "vel": 127, "len": 1}, {"step": 5, "note": 28, "vel": 125, "len": 1}, {"step": 6, "note": 28, "vel": 127, "len": 1}, {"step": 7, "note": 28, "vel": 120, "len": 1}]}, {"bar": 8, "events": [{"step": 0, "note": 28, "vel": 127, "len": 4}, {"step": 4, "note": 28, "vel": 127, "len": 2}, {"step": 6, "note": 28, "vel": 127, "len": 2}]}]}, "meta": {"status": "success", "tempo": 130, "key": "E", "scale": "Minor", "style": "Modern Rock", "mood": "High Energy", "meter": "4/4", "dynamic_profile": "Constant High", "arrangement_density": "Dense", "harmonic_color": "Distorted Power Chords", "length_seconds": 30, "bars": 8, "instrument_configs": [{"name": "Electric Guitar", "register": "High", "role": "Lead", "articulation": "Legato", "dynamic_range": "Fortissimo"}, {"name": "Bass Guitar", "register": "Low", "role": "Bass", "articulation": "Pizzicato", "dynamic_range": "Intense"}, {"name": "Kick", "register": "Sub", "role": "Percussion", "articulation": "Percussive", "dynamic_range": "Intense"}, {"name": "Snare", "register": "Mid", "role": "Percussion", "articulation": "Percussive", "dynamic_range": "Fortissimo"}, {"name": "Crash", "register": "High", "role": "Percussion", "articulation": "Percussive", "dynamic_range": "Intense"}, {"name": "Hat", "register": "High", "role": "Percussion", "articulation": "Percussive", "dynamic_range": "Moderate"}], "instruments": ["Electric Guitar", "Bass Guitar", "Kick", "Snare", "Crash", "Hat"]}}, "midi_per_instrument": {"Electric Guitar": {"meta": {"status": "success", "tempo": 130, "key": "E", "scale": "Minor", "style": "Modern Rock", "mood": "High Energy", "meter": "4/4", "dynamic_profile": "Constant High", "arrangement_density": "Dense", "harmonic_color": "Distorted Power Chords", "length_seconds": 30, "bars": 8, "instrument_configs": [{"name": "Electric Guitar", "register": "High", "role": "Lead", "articulation": "Legato", "dynamic_range": "Fortissimo"}, {"name": "Bass Guitar", "register": "Low", "role": "Bass", "articulation": "Pizzicato", "dynamic_range": "Intense"}, {"name": "Kick", "register": "Sub", "role": "Percussion", "articulation": "Percussive", "dynamic_range": "Intense"}, {"name": "Snare", "register": "Mid", "role": "Percussion", "articulation": "Percussive", "dynamic_range": "Fortissimo"}, {"name": "Crash", "register": "High", "role": "Percussion", "articulation": "Percussive", "dynamic_range": "Intense"}, {"name": "Hat", "register": "High", "role": "Percussion", "articulation": "Percussive", "dynamic_range": "Moderate"}], "instruments": ["Electric Guitar", "Bass Guitar", "Kick", "Snare", "Crash", "Hat"], "instrument": "Electric Guitar"}, "layers": {"Electric Guitar": [{"bar": 1, "events": [{"step": 0, "note": 76, "vel": 120, "len": 2}, {"step": 2, "note": 76, "vel": 115, "len": 1}, {"step": 3, "note": 79, "vel": 120, "len": 1}, {"step": 4, "note": 76, "vel": 115, "len": 2}, {"step": 6, "note": 83, "vel": 127, "len": 1}, {"step": 7, "note": 81, "vel": 110, "len": 1}]}, {"bar": 2, "events": [{"step": 0, "note": 79, "vel": 120, "len": 1}, {"step": 1, "note": 76, "vel": 110, "len": 1}, {"step": 2, "note": 74, "vel": 115, "len": 1}, {"step": 3, "note": 76, "vel": 120, "len": 1}, {"step": 4, "note": 79, "vel": 125, "len": 1}, {"step": 5, "note": 76, "vel": 115, "len": 1}, {"step": 6, "note": 72, "vel": 120, "len": 2}]}, {"bar": 3, "events": [{"step": 0, "note": 67, "vel": 120, "len": 1}, {"step": 1, "note": 71, "vel": 110, "len": 1}, {"step": 2, "note": 74, "vel": 115, "len": 1}, {"step": 3, "note": 79, "vel": 120, "len": 1}, {"step": 4, "note": 74, "vel": 110, "len": 1}, {"step": 5, "note": 79, "vel": 125, "len": 1}, {"step": 6, "note": 83, "vel": 127, "len": 2}]}, {"bar": 4, "events": [{"step": 0, "note": 81, "vel": 120, "len": 1}, {"step": 1, "note": 79, "vel": 110, "len": 1}, {"step": 2, "note": 76, "vel": 115, "len": 1}, {"step": 3, "note": 74, "vel": 110, "len": 1}, {"step": 4, "note": 72, "vel": 115, "len": 1}, {"step": 5, "note": 74, "vel": 120, "len": 1}, {"step": 6, "note": 76, "vel": 125, "len": 1}, {"step": 7, "note": 79, "vel": 127, "len": 1}]}, {"bar": 5, "events": [{"step": 0, "note": 84, "vel": 127, "len": 2}, {"step": 2, "note": 84, "vel": 120, "len": 1}, {"step": 3, "note": 86, "vel": 125, "len": 1}, {"step": 4, "note": 88, "vel": 127, "len": 4}]}, {"bar": 6, "events": [{"step": 0, "note": 86, "vel": 125, "len": 1}, {"step": 1, "note": 84, "vel": 115, "len": 1}, {"step": 2, "note": 86, "vel": 120, "len": 1}, {"step": 3, "note": 88, "vel": 127, "len": 1}, {"step": 4, "note": 91, "vel": 127, "len": 2}, {"step": 6, "note": 88, "vel": 120, "len": 2}]}, {"bar": 7, "events": [{"step": 0, "note": 76, "vel": 127, "len": 1}, {"step": 1, "note": 76, "vel": 110, "len": 1}, {"step": 2, "note": 79, "vel": 120, "len": 1}, {"step": 3, "note": 83, "vel": 125, "len": 1}, {"step": 4, "note": 88, "vel": 127, "len": 1}, {"step": 5, "note": 88, "vel": 115, "len": 1}, {"step": 6, "note": 91, "vel": 127, "len": 1}, {"step": 7, "note": 93, "vel": 127, "len": 1}]}, {"bar": 8, "events": [{"step": 0, "note": 88, "vel": 127, "len": 4}, {"step": 4, "note": 76, "vel": 120, "len": 2}, {"step": 6, "note": 76, "vel": 127, "len": 2}]}]}, "pattern": [{"bar": 1, "events": [{"step": 0, "note": 76, "vel": 120, "len": 2}, {"step": 2, "note": 76, "vel": 115, "len": 1}, {"step": 3, "note": 79, "vel": 120, "len": 1}, {"step": 4, "note": 76, "vel": 115, "len": 2}, {"step": 6, "note": 83, "vel": 127, "len": 1}, {"step": 7, "note": 81, "vel": 110, "len": 1}]}, {"bar": 2, "events": [{"step": 0, "note": 79, "vel": 120, "len": 1}, {"step": 1, "note": 76, "vel": 110, "len": 1}, {"step": 2, "note": 74, "vel": 115, "len": 1}, {"step": 3, "note": 76, "vel": 120, "len": 1}, {"step": 4, "note": 79, "vel": 125, "len": 1}, {"step": 5, "note": 76, "vel": 115, "len": 1}, {"step": 6, "note": 72, "vel": 120, "len": 2}]}, {"bar": 3, "events": [{"step": 0, "note": 67, "vel": 120, "len": 1}, {"step": 1, "note": 71, "vel": 110, "len": 1}, {"step": 2, "note": 74, "vel": 115, "len": 1}, {"step": 3, "note": 79, "vel": 120, "len": 1}, {"step": 4, "note": 74, "vel": 110, "len": 1}, {"step": 5, "note": 79, "vel": 125, "len": 1}, {"step": 6, "note": 83, "vel": 127, "len": 2}]}, {"bar": 4, "events": [{"step": 0, "note": 81, "vel": 120, "len": 1}, {"step": 1, "note": 79, "vel": 110, "len": 1}, {"step": 2, "note": 76, "vel": 115, "len": 1}, {"step": 3, "note": 74, "vel": 110, "len": 1}, {"step": 4, "note": 72, "vel": 115, "len": 1}, {"step": 5, "note": 74, "vel": 120, "len": 1}, {"step": 6, "note": 76, "vel": 125, "len": 1}, {"step": 7, "note": 79, "vel": 127, "len": 1}]}, {"bar": 5, "events": [{"step": 0, "note": 84, "vel": 127, "len": 2}, {"step": 2, "note": 84, "vel": 120, "len": 1}, {"step": 3, "note": 86, "vel": 125, "len": 1}, {"step": 4, "note": 88, "vel": 127, "len": 4}]}, {"bar": 6, "events": [{"step": 0, "note": 86, "vel": 125, "len": 1}, {"step": 1, "note": 84, "vel": 115, "len": 1}, {"step": 2, "note": 86, "vel": 120, "len": 1}, {"step": 3, "note": 88, "vel": 127, "len": 1}, {"step": 4, "note": 91, "vel": 127, "len": 2}, {"step": 6, "note": 88, "vel": 120, "len": 2}]}, {"bar": 7, "events": [{"step": 0, "note": 76, "vel": 127, "len": 1}, {"step": 1, "note": 76, "vel": 110, "len": 1}, {"step": 2, "note": 79, "vel": 120, "len": 1}, {"step": 3, "note": 83, "vel": 125, "len": 1}, {"step": 4, "note": 88, "vel": 127, "len": 1}, {"step": 5, "note": 88, "vel": 115, "len": 1}, {"step": 6, "note": 91, "vel": 127, "len": 1}, {"step": 7, "note": 93, "vel": 127, "len": 1}]}, {"bar": 8, "events": [{"step": 0, "note": 88, "vel": 127, "len": 4}, {"step": 4, "note": 76, "vel": 120, "len": 2}, {"step": 6, "note": 76, "vel": 127, "len": 2}]}]}, "Bass Guitar": {"meta": {"status": "success", "tempo": 130, "key": "E", "scale": "Minor", "style": "Modern Rock", "mood": "High Energy", "meter": "4/4", "dynamic_profile": "Constant High", "arrangement_density": "Dense", "harmonic_color": "Distorted Power Chords", "length_seconds": 30, "bars": 8, "instrument_configs": [{"name": "Electric Guitar", "register": "High", "role": "Lead", "articulation": "Legato", "dynamic_range": "Fortissimo"}, {"name": "Bass Guitar", "register": "Low", "role": "Bass", "articulation": "Pizzicato", "dynamic_range": "Intense"}, {"name": "Kick", "register": "Sub", "role": "Percussion", "articulation": "Percussive", "dynamic_range": "Intense"}, {"name": "Snare", "register": "Mid", "role": "Percussion", "articulation": "Percussive", "dynamic_range": "Fortissimo"}, {"name": "Crash", "register": "High", "role": "Percussion", "articulation": "Percussive", "dynamic_range": "Intense"}, {"name": "Hat", "register": "High", "role": "Percussion", "articulation": "Percussive", "dynamic_range": "Moderate"}], "instruments": ["Electric Guitar", "Bass Guitar", "Kick", "Snare", "Crash", "Hat"], "instrument": "Bass Guitar"}, "layers": {"Bass Guitar": [{"bar": 1, "events": [{"step": 0, "note": 28, "vel": 120, "len": 1}, {"step": 1, "note": 28, "vel": 110, "len": 1}, {"step": 2, "note": 28, "vel": 115, "len": 1}, {"step": 3, "note": 28, "vel": 110, "len": 1}, {"step": 4, "note": 28, "vel": 120, "len": 1}, {"step": 5, "note": 28, "vel": 115, "len": 1}, {"step": 6, "note": 28, "vel": 120, "len": 1}, {"step": 7, "note": 28, "vel": 110, "len": 1}]}, {"bar": 2, "events": [{"step": 0, "note": 28, "vel": 120, "len": 1}, {"step": 1, "note": 28, "vel": 110, "len": 1}, {"step": 2, "note": 28, "vel": 115, "len": 1}, {"step": 3, "note": 28, "vel": 110, "len": 1}, {"step": 4, "note": 28, "vel": 120, "len": 1}, {"step": 5, "note": 28, "vel": 115, "len": 1}, {"step": 6, "note": 28, "vel": 120, "len": 1}, {"step": 7, "note": 28, "vel": 110, "len": 1}]}, {"bar": 3, "events": [{"step": 0, "note": 31, "vel": 120, "len": 1}, {"step": 1, "note": 31, "vel": 110, "len": 1}, {"step": 2, "note": 31, "vel": 115, "len": 1}, {"step": 3, "note": 31, "vel": 110, "len": 1}, {"step": 4, "note": 31, "vel": 120, "len": 1}, {"step": 5, "note": 31, "vel": 115, "len": 1}, {"step": 6, "note": 31, "vel": 120, "len": 1}, {"step": 7, "note": 31, "vel": 110, "len": 1}]}, {"bar": 4, "events": [{"step": 0, "note": 33, "vel": 120, "len": 1}, {"step": 1, "note": 33, "vel": 110, "len": 1}, {"step": 2, "note": 33, "vel": 115, "len": 1}, {"step": 3, "note": 33, "vel": 110, "len": 1}, {"step": 4, "note": 33, "vel": 120, "len": 1}, {"step": 5, "note": 33, "vel": 115, "len": 1}, {"step": 6, "note": 33, "vel": 120, "len": 1}, {"step": 7, "note": 33, "vel": 110, "len": 1}]}, {"bar": 5, "events": [{"step": 0, "note": 36, "vel": 125, "len": 1}, {"step": 1, "note": 36, "vel": 115, "len": 1}, {"step": 2, "note": 36, "vel": 120, "len": 1}, {"step": 3, "note": 36, "vel": 115, "len": 1}, {"step": 4, "note": 36, "vel": 125, "len": 1}, {"step": 5, "note": 36, "vel": 120, "len": 1}, {"step": 6, "note": 36, "vel": 125, "len": 1}, {"step": 7, "note": 36, "vel": 115, "len": 1}]}, {"bar": 6, "events": [{"step": 0, "note": 38, "vel": 125, "len": 1}, {"step": 1, "note": 38, "vel": 115, "len": 1}, {"step": 2, "note": 38, "vel": 120, "len": 1}, {"step": 3, "note": 38, "vel": 115, "len": 1}, {"step": 4, "note": 38, "vel": 125, "len": 1}, {"step": 5, "note": 38, "vel": 120, "len": 1}, {"step": 6, "note": 38, "vel": 125, "len": 1}, {"step": 7, "note": 38, "vel": 115, "len": 1}]}, {"bar": 7, "events": [{"step": 0, "note": 28, "vel": 127, "len": 1}, {"step": 1, "note": 28, "vel": 120, "len": 1}, {"step": 2, "note": 28, "vel": 125, "len": 1}, {"step": 3, "note": 28, "vel": 120, "len": 1}, {"step": 4, "note": 28, "vel": 127, "len": 1}, {"step": 5, "note": 28, "vel": 125, "len": 1}, {"step": 6, "note": 28, "vel": 127, "len": 1}, {"step": 7, "note": 28, "vel": 120, "len": 1}]}, {"bar": 8, "events": [{"step": 0, "note": 28, "vel": 127, "len": 4}, {"step": 4, "note": 28, "vel": 127, "len": 2}, {"step": 6, "note": 28, "vel": 127, "len": 2}]}]}, "pattern": [{"bar": 1, "events": [{"step": 0, "note": 28, "vel": 120, "len": 1}, {"step": 1, "note": 28, "vel": 110, "len": 1}, {"step": 2, "note": 28, "vel": 115, "len": 1}, {"step": 3, "note": 28, "vel": 110, "len": 1}, {"step": 4, "note": 28, "vel": 120, "len": 1}, {"step": 5, "note": 28, "vel": 115, "len": 1}, {"step": 6, "note": 28, "vel": 120, "len": 1}, {"step": 7, "note": 28, "vel": 110, "len": 1}]}, {"bar": 2, "events": [{"step": 0, "note": 28, "vel": 120, "len": 1}, {"step": 1, "note": 28, "vel": 110, "len": 1}, {"step": 2, "note": 28, "vel": 115, "len": 1}, {"step": 3, "note": 28, "vel": 110, "len": 1}, {"step": 4, "note": 28, "vel": 120, "len": 1}, {"step": 5, "note": 28, "vel": 115, "len": 1}, {"step": 6, "note": 28, "vel": 120, "len": 1}, {"step": 7, "note": 28, "vel": 110, "len": 1}]}, {"bar": 3, "events": [{"step": 0, "note": 31, "vel": 120, "len": 1}, {"step": 1, "note": 31, "vel": 110, "len": 1}, {"step": 2, "note": 31, "vel": 115, "len": 1}, {"step": 3, "note": 31, "vel": 110, "len": 1}, {"step": 4, "note": 31, "vel": 120, "len": 1}, {"step": 5, "note": 31, "vel": 115, "len": 1}, {"step": 6, "note": 31, "vel": 120, "len": 1}, {"step": 7, "note": 31, "vel": 110, "len": 1}]}, {"bar": 4, "events": [{"step": 0, "note": 33, "vel": 120, "len": 1}, {"step": 1, "note": 33, "vel": 110, "len": 1}, {"step": 2, "note": 33, "vel": 115, "len": 1}, {"step": 3, "note": 33, "vel": 110, "len": 1}, {"step": 4, "note": 33, "vel": 120, "len": 1}, {"step": 5, "note": 33, "vel": 115, "len": 1}, {"step": 6, "note": 33, "vel": 120, "len": 1}, {"step": 7, "note": 33, "vel": 110, "len": 1}]}, {"bar": 5, "events": [{"step": 0, "note": 36, "vel": 125, "len": 1}, {"step": 1, "note": 36, "vel": 115, "len": 1}, {"step": 2, "note": 36, "vel": 120, "len": 1}, {"step": 3, "note": 36, "vel": 115, "len": 1}, {"step": 4, "note": 36, "vel": 125, "len": 1}, {"step": 5, "note": 36, "vel": 120, "len": 1}, {"step": 6, "note": 36, "vel": 125, "len": 1}, {"step": 7, "note": 36, "vel": 115, "len": 1}]}, {"bar": 6, "events": [{"step": 0, "note": 38, "vel": 125, "len": 1}, {"step": 1, "note": 38, "vel": 115, "len": 1}, {"step": 2, "note": 38, "vel": 120, "len": 1}, {"step": 3, "note": 38, "vel": 115, "len": 1}, {"step": 4, "note": 38, "vel": 125, "len": 1}, {"step": 5, "note": 38, "vel": 120, "len": 1}, {"step": 6, "note": 38, "vel": 125, "len": 1}, {"step": 7, "note": 38, "vel": 115, "len": 1}]}, {"bar": 7, "events": [{"step": 0, "note": 28, "vel": 127, "len": 1}, {"step": 1, "note": 28, "vel": 120, "len": 1}, {"step": 2, "note": 28, "vel": 125, "len": 1}, {"step": 3, "note": 28, "vel": 120, "len": 1}, {"step": 4, "note": 28, "vel": 127, "len": 1}, {"step": 5, "note": 28, "vel": 125, "len": 1}, {"step": 6, "note": 28, "vel": 127, "len": 1}, {"step": 7, "note": 28, "vel": 120, "len": 1}]}, {"bar": 8, "events": [{"step": 0, "note": 28, "vel": 127, "len": 4}, {"step": 4, "note": 28, "vel": 127, "len": 2}, {"step": 6, "note": 28, "vel": 127, "len": 2}]}]}, "Kick": {"meta": {"status": "success", "tempo": 130, "key": "E", "scale": "Minor", "style": "Modern Rock", "mood": "High Energy", "meter": "4/4", "dynamic_profile": "Constant High", "arrangement_density": "Dense", "harmonic_color": "Distorted Power Chords", "length_seconds": 30, "bars": 8, "instrument_configs": [{"name": "Electric Guitar", "register": "High", "role": "Lead", "articulation": "Legato", "dynamic_range": "Fortissimo"}, {"name": "Bass Guitar", "register": "Low", "role": "Bass", "articulation": "Pizzicato", "dynamic_range": "Intense"}, {"name": "Kick", "register": "Sub", "role": "Percussion", "articulation": "Percussive", "dynamic_range": "Intense"}, {"name": "Snare", "register": "Mid", "role": "Percussion", "articulation": "Percussive", "dynamic_range": "Fortissimo"}, {"name": "Crash", "register": "High", "role": "Percussion", "articulation": "Percussive", "dynamic_range": "Intense"}, {"name": "Hat", "register": "High", "role": "Percussion", "articulation": "Percussive", "dynamic_range": "Moderate"}], "instruments": ["Electric Guitar", "Bass Guitar", "Kick", "Snare", "Crash", "Hat"], "instrument": "Kick"}, "layers": {}, "pattern": [{"bar": 1, "events": [{"step": 0, "note": 36, "vel": 127, "len": 1}, {"step": 3, "note": 36, "vel": 110, "len": 1}, {"step": 5, "note": 36, "vel": 115, "len": 1}]}, {"bar": 2, "events": [{"step": 0, "note": 36, "vel": 120, "len": 1}, {"step": 1, "note": 36, "vel": 110, "len": 1}, {"step": 3, "note": 36, "vel": 110, "len": 1}, {"step": 5, "note": 36, "vel": 115, "len": 1}]}, {"bar": 3, "events": [{"step": 0, "note": 36, "vel": 127, "len": 1}, {"step": 3, "note": 36, "vel": 110, "len": 1}, {"step": 5, "note": 36, "vel": 115, "len": 1}]}, {"bar": 4, "events": [{"step": 0, "note": 36, "vel": 120, "len": 1}, {"step": 3, "note": 36, "vel": 110, "len": 1}, {"step": 4, "note": 36, "vel": 115, "len": 1}, {"step": 5, "note": 36, "vel": 120, "len": 1}]}, {"bar": 5, "events": [{"step": 0, "note": 36, "vel": 127, "len": 1}, {"step": 3, "note": 36, "vel": 110, "len": 1}, {"step": 5, "note": 36, "vel": 115, "len": 1}]}, {"bar": 6, "events": [{"step": 0, "note": 36, "vel": 120, "len": 1}, {"step": 1, "note": 36, "vel": 110, "len": 1}, {"step": 3, "note": 36, "vel": 110, "len": 1}, {"step": 5, "note": 36, "vel": 115, "len": 1}]}, {"bar": 7, "events": [{"step": 0, "note": 36, "vel": 127, "len": 1}, {"step": 1, "note": 36, "vel": 110, "len": 1}, {"step": 3, "note": 36, "vel": 115, "len": 1}, {"step": 4, "note": 36, "vel": 120, "len": 1}, {"step": 6, "note": 36, "vel": 120, "len": 1}]}, {"bar": 8, "events": [{"step": 0, "note": 36, "vel": 127, "len": 1}, {"step": 2, "note": 36, "vel": 120, "len": 1}, {"step": 4, "note": 36, "vel": 127, "len": 1}]}]}, "Snare": {"meta": {"status": "success", "tempo": 130, "key": "E", "scale": "Minor", "style": "Modern Rock", "mood": "High Energy", "meter": "4/4", "dynamic_profile": "Constant High", "arrangement_density": "Dense", "harmonic_color": "Distorted Power Chords", "length_seconds": 30, "bars": 8, "instrument_configs": [{"name": "Electric Guitar", "register": "High", "role": "Lead", "articulation": "Legato", "dynamic_range": "Fortissimo"}, {"name": "Bass Guitar", "register": "Low", "role": "Bass", "articulation": "Pizzicato", "dynamic_range": "Intense"}, {"name": "Kick", "register": "Sub", "role": "Percussion", "articulation": "Percussive", "dynamic_range": "Intense"}, {"name": "Snare", "register": "Mid", "role": "Percussion", "articulation": "Percussive", "dynamic_range": "Fortissimo"}, {"name": "Crash", "register": "High", "role": "Percussion", "articulation": "Percussive", "dynamic_range": "Intense"}, {"name": "Hat", "register": "High", "role": "Percussion", "articulation": "Percussive", "dynamic_range": "Moderate"}], "instruments": ["Electric Guitar", "Bass Guitar", "Kick", "Snare", "Crash", "Hat"], "instrument": "Snare"}, "layers": {}, "pattern": [{"bar": 1, "events": [{"step": 2, "note": 38, "vel": 120, "len": 1}, {"step": 6, "note": 38, "vel": 120, "len": 1}]}, {"bar": 2, "events": [{"step": 2, "note": 38, "vel": 120, "len": 1}, {"step": 6, "note": 38, "vel": 120, "len": 1}]}, {"bar": 3, "events": [{"step": 2, "note": 38, "vel": 120, "len": 1}, {"step": 6, "note": 38, "vel": 120, "len": 1}]}, {"bar": 4, "events": [{"step": 2, "note": 38, "vel": 120, "len": 1}, {"step": 6, "note": 38, "vel": 127, "len": 1}, {"step": 7, "note": 38, "vel": 110, "len": 1}]}, {"bar": 5, "events": [{"step": 2, "note": 38, "vel": 120, "len": 1}, {"step": 6, "note": 38, "vel": 120, "len": 1}]}, {"bar": 6, "events": [{"step": 2, "note": 38, "vel": 120, "len": 1}, {"step": 6, "note": 38, "vel": 120, "len": 1}]}, {"bar": 7, "events": [{"step": 2, "note": 38, "vel": 120, "len": 1}, {"step": 5, "note": 38, "vel": 127, "len": 1}, {"step": 7, "note": 38, "vel": 127, "len": 1}]}, {"bar": 8, "events": [{"step": 2, "note": 38, "vel": 127, "len": 1}, {"step": 3, "note": 38, "vel": 110, "len": 1}, {"step": 6, "note": 38, "vel": 127, "len": 1}, {"step": 7, "note": 38, "vel": 100, "len": 1}]}]}, "Crash": {"meta": {"status": "success", "tempo": 130, "key": "E", "scale": "Minor", "style": "Modern Rock", "mood": "High Energy", "meter": "4/4", "dynamic_profile": "Constant High", "arrangement_density": "Dense", "harmonic_color": "Distorted Power Chords", "length_seconds": 30, "bars": 8, "instrument_configs": [{"name": "Electric Guitar", "register": "High", "role": "Lead", "articulation": "Legato", "dynamic_range": "Fortissimo"}, {"name": "Bass Guitar", "register": "Low", "role": "Bass", "articulation": "Pizzicato", "dynamic_range": "Intense"}, {"name": "Kick", "register": "Sub", "role": "Percussion", "articulation": "Percussive", "dynamic_range": "Intense"}, {"name": "Snare", "register": "Mid", "role": "Percussion", "articulation": "Percussive", "dynamic_range": "Fortissimo"}, {"name": "Crash", "register": "High", "role": "Percussion", "articulation": "Percussive", "dynamic_range": "Intense"}, {"name": "Hat", "register": "High", "role": "Percussion", "articulation": "Percussive", "dynamic_range": "Moderate"}], "instruments": ["Electric Guitar", "Bass Guitar", "Kick", "Snare", "Crash", "Hat"], "instrument": "Crash"}, "layers": {}, "pattern": [{"bar": 1, "events": [{"step": 0, "note": 49, "vel": 127, "len": 1}]}, {"bar": 2, "events": []}, {"bar": 3, "events": [{"step": 0, "note": 49, "vel": 120, "len": 1}]}, {"bar": 4, "events": []}, {"bar": 5, "events": [{"step": 0, "note": 49, "vel": 127, "len": 1}]}, {"bar": 6, "events": []}, {"bar": 7, "events": [{"step": 0, "note": 49, "vel": 120, "len": 1}]}, {"bar": 8, "events": [{"step": 0, "note": 49, "vel": 127, "len": 2}, {"step": 4, "note": 49, "vel": 127, "len": 4}]}]}, "Hat": {"meta": {"status": "success", "tempo": 130, "key": "E", "scale": "Minor", "style": "Modern Rock", "mood": "High Energy", "meter": "4/4", "dynamic_profile": "Constant High", "arrangement_density": "Dense", "harmonic_color": "Distorted Power Chords", "length_seconds": 30, "bars": 8, "instrument_configs": [{"name": "Electric Guitar", "register": "High", "role": "Lead", "articulation": "Legato", "dynamic_range": "Fortissimo"}, {"name": "Bass Guitar", "register": "Low", "role": "Bass", "articulation": "Pizzicato", "dynamic_range": "Intense"}, {"name": "Kick", "register": "Sub", "role": "Percussion", "articulation": "Percussive", "dynamic_range": "Intense"}, {"name": "Snare", "register": "Mid", "role": "Percussion", "articulation": "Percussive", "dynamic_range": "Fortissimo"}, {"name": "Crash", "register": "High", "role": "Percussion", "articulation": "Percussive", "dynamic_range": "Intense"}, {"name": "Hat", "register": "High", "role": "Percussion", "articulation": "Percussive", "dynamic_range": "Moderate"}], "instruments": ["Electric Guitar", "Bass Guitar", "Kick", "Snare", "Crash", "Hat"], "instrument": "Hat"}, "layers": {}, "pattern": [{"bar": 1, "events": [{"step": 0, "note": 46, "vel": 100, "len": 1}, {"step": 1, "note": 46, "vel": 90, "len": 1}, {"step": 2, "note": 46, "vel": 100, "len": 1}, {"step": 3, "note": 46, "vel": 90, "len": 1}, {"step": 4, "note": 46, "vel": 100, "len": 1}, {"step": 5, "note": 46, "vel": 90, "len": 1}, {"step": 6, "note": 46, "vel": 100, "len": 1}, {"step": 7, "note": 46, "vel": 90, "len": 1}]}, {"bar": 2, "events": [{"step": 0, "note": 46, "vel": 100, "len": 1}, {"step": 1, "note": 46, "vel": 90, "len": 1}, {"step": 2, "note": 46, "vel": 100, "len": 1}, {"step": 3, "note": 46, "vel": 90, "len": 1}, {"step": 4, "note": 46, "vel": 100, "len": 1}, {"step": 5, "note": 46, "vel": 90, "len": 1}, {"step": 6, "note": 46, "vel": 100, "len": 1}, {"step": 7, "note": 46, "vel": 90, "len": 1}]}, {"bar": 3, "events": [{"step": 0, "note": 46, "vel": 100, "len": 1}, {"step": 1, "note": 46, "vel": 90, "len": 1}, {"step": 2, "note": 46, "vel": 100, "len": 1}, {"step": 3, "note": 46, "vel": 90, "len": 1}, {"step": 4, "note": 46, "vel": 100, "len": 1}, {"step": 5, "note": 46, "vel": 90, "len": 1}, {"step": 6, "note": 46, "vel": 100, "len": 1}, {"step": 7, "note": 46, "vel": 90, "len": 1}]}, {"bar": 4, "events": [{"step": 0, "note": 46, "vel": 100, "len": 1}, {"step": 1, "note": 46, "vel": 90, "len": 1}, {"step": 2, "note": 46, "vel": 100, "len": 1}]}, {"bar": 5, "events": [{"step": 0, "note": 46, "vel": 100, "len": 1}, {"step": 1, "note": 46, "vel": 90, "len": 1}, {"step": 2, "note": 46, "vel": 100, "len": 1}, {"step": 3, "note": 46, "vel": 90, "len": 1}, {"step": 4, "note": 46, "vel": 100, "len": 1}, {"step": 5, "note": 46, "vel": 90, "len": 1}, {"step": 6, "note": 46, "vel": 100, "len": 1}, {"step": 7, "note": 46, "vel": 90, "len": 1}]}, {"bar": 6, "events": [{"step": 0, "note": 46, "vel": 100, "len": 1}, {"step": 1, "note": 46, "vel": 90, "len": 1}, {"step": 2, "note": 46, "vel": 100, "len": 1}, {"step": 3, "note": 46, "vel": 90, "len": 1}, {"step": 4, "note": 46, "vel": 100, "len": 1}, {"step": 5, "note": 46, "vel": 90, "len": 1}, {"step": 6, "note": 46, "vel": 100, "len": 1}, {"step": 7, "note": 46, "vel": 90, "len": 1}]}, {"bar": 7, "events": []}, {"bar": 8, "events": []}]}}, "tracks": [{"instrument": "Electric Guitar", "enabled": true, "volume_db": 0.0, "pan": 0.0}, {"instrument": "Bass Guitar", "enabled": true, "volume_db": -3.0, "pan": 0.0}, {"instrument": "Kick", "enabled": true, "volume_db": -3.0, "pan": 0.0}, {"instrument": "Snare", "enabled": true, "volume_db": -3.0, "pan": 0.0}, {"instrument": "Crash", "enabled": true, "volume_db": -3.0, "pan": 0.0}, {"instrument": "Hat", "enabled": true, "volume_db": -3.0, "pan": 0.0}], "selected_samples": {"Hat": "Drums/RealDrumkits/RD_Hat_1.wav", "Crash": "Drums/Kits/Drum Kit 03/OverH_Crash_003cogg.wav", "Snare": "Drums/Kits/Drum Kit 07/FLS_Snare 07a.wav", "Kick": "Drums/Kits/Drum Kit 01/FLS_Kick 01.wav", "Bass Guitar": "Instruments/Guitar/Bass/FLStudio Bass 02/09 DEEPER PURPLE_PLUCK G1ogg.wav", "Electric Guitar": "Instruments/Guitar/Guitar/Electric Guitar 01/38 DARK STAR METAL_G5OGG.wav"}, "fadeout_seconds": 0.01}, "response": {"project_name": "test-rock222", "run_id": "19bc0a603511", "mix_wav_rel": "output\\19bc0a603511\\test-rock222_mix_1766688565.wav", "stems": [{"instrument": "Electric Guitar", "audio_rel": "output\\19bc0a603511\\test-rock222_Electric Guitar_1766688565.wav"}, {"instrument": "Bass Guitar", "audio_rel": "output\\19bc0a603511\\test-rock222_Bass Guitar_1766688565.wav"}, {"instrument": "Kick", "audio_rel": "output\\19bc0a603511\\test-rock222_Kick_1766688565.wav"}, {"instrument": "Snare", "audio_rel": "output\\19bc0a603511\\test-rock222_Snare_1766688565.wav"}, {"instrument": "Crash", "audio_rel": "output\\19bc0a603511\\test-rock222_Crash_1766688565.wav"}, {"instrument": "Hat", "audio_rel": "output\\19bc0a603511\\test-rock222_Hat_1766688565.wav"}], "sample_rate": 44100, "duration_seconds": 30.0}}