{"meta": {"style": "Hard Rock", "tempo": 175, "key": "E Minor", "meter": "4/4", "bars": 16, "scale": "Minor", "mood": "Chaotic", "dynamic_profile": "High Energy", "arrangement_density": "Dense", "harmonic_color": "Aggressive", "length_seconds": 30.0, "instrument_configs": [{"name": "Electric Guitar", "register": "Mid-High", "role": "Lead", "articulation": "Distorted", "dynamic_range": "Intense"}, {"name": "Piano", "register": "Full", "role": "Lead", "articulation": "Percussive", "dynamic_range": "Intense"}, {"name": "Bass Guitar", "register": "Low", "role": "Bass", "articulation": "Sustain", "dynamic_range": "Intense"}, {"name": "Kick", "register": "Low", "role": "Percussion", "articulation": "Percussive", "dynamic_range": "Intense"}, {"name": "Snare", "register": "Mid", "role": "Percussion", "articulation": "Percussive", "dynamic_range": "Intense"}, {"name": "Hat", "register": "High", "role": "Percussion", "articulation": "Percussive", "dynamic_range": "Moderate"}, {"name": "Crash", "register": "High", "role": "Percussion", "articulation": "Percussive", "dynamic_range": "Intense"}, {"name": "Tom", "register": "Low-Mid", "role": "Percussion", "articulation": "Percussive", "dynamic_range": "Intense"}], "instruments": ["Electric Guitar", "Piano", "Bass Guitar", "Kick", "Snare", "Hat", "Crash", "Tom"], "instrument": "Piano"}, "layers": {"Piano": [{"bar": 0, "events": [{"step": 0, "note": 76, "vel": 110, "len": 1}, {"step": 2, "note": 76, "vel": 100, "len": 1}, {"step": 4, "note": 79, "vel": 115, "len": 1}, {"step": 6, "note": 81, "vel": 120, "len": 1}]}, {"bar": 1, "events": [{"step": 0, "note": 88, "vel": 120, "len": 1}, {"step": 3, "note": 87, "vel": 115, "len": 1}, {"step": 6, "note": 86, "vel": 110, "len": 1}]}, {"bar": 2, "events": [{"step": 0, "note": 76, "vel": 110, "len": 1}, {"step": 2, "note": 79, "vel": 115, "len": 1}, {"step": 4, "note": 81, "vel": 120, "len": 1}, {"step": 6, "note": 82, "vel": 125, "len": 1}]}, {"bar": 3, "events": [{"step": 0, "note": 64, "vel": 120, "len": 1}, {"step": 1, "note": 67, "vel": 120, "len": 1}, {"step": 2, "note": 70, "vel": 120, "len": 1}, {"step": 3, "note": 73, "vel": 120, "len": 1}, {"step": 4, "note": 76, "vel": 127, "len": 1}, {"step": 6, "note": 64, "vel": 120, "len": 1}]}, {"bar": 4, "events": [{"step": 0, "note": 76, "vel": 110, "len": 1}, {"step": 2, "note": 76, "vel": 105, "len": 1}, {"step": 4, "note": 76, "vel": 110, "len": 1}, {"step": 6, "note": 76, "vel": 115, "len": 1}]}, {"bar": 7, "events": [{"step": 0, "note": 88, "vel": 127, "len": 1}, {"step": 1, "note": 87, "vel": 120, "len": 1}, {"step": 2, "note": 86, "vel": 120, "len": 1}, {"step": 3, "note": 85, "vel": 120, "len": 1}, {"step": 4, "note": 84, "vel": 120, "len": 1}, {"step": 5, "note": 83, "vel": 120, "len": 1}, {"step": 6, "note": 82, "vel": 120, "len": 1}, {"step": 7, "note": 81, "vel": 120, "len": 1}]}, {"bar": 12, "events": [{"step": 0, "note": 76, "vel": 127, "len": 1}, {"step": 2, "note": 79, "vel": 127, "len": 1}, {"step": 4, "note": 82, "vel": 127, "len": 1}, {"step": 6, "note": 85, "vel": 127, "len": 1}]}, {"bar": 15, "events": [{"step": 0, "note": 64, "vel": 127, "len": 8}, {"step": 0, "note": 67, "vel": 127, "len": 8}, {"step": 0, "note": 70, "vel": 127, "len": 8}, {"step": 0, "note": 76, "vel": 127, "len": 8}]}]}, "pattern": [{"bar": 0, "events": [{"step": 0, "note": 76, "vel": 110, "len": 1}, {"step": 2, "note": 76, "vel": 100, "len": 1}, {"step": 4, "note": 79, "vel": 115, "len": 1}, {"step": 6, "note": 81, "vel": 120, "len": 1}]}, {"bar": 1, "events": [{"step": 0, "note": 88, "vel": 120, "len": 1}, {"step": 3, "note": 87, "vel": 115, "len": 1}, {"step": 6, "note": 86, "vel": 110, "len": 1}]}, {"bar": 2, "events": [{"step": 0, "note": 76, "vel": 110, "len": 1}, {"step": 2, "note": 79, "vel": 115, "len": 1}, {"step": 4, "note": 81, "vel": 120, "len": 1}, {"step": 6, "note": 82, "vel": 125, "len": 1}]}, {"bar": 3, "events": [{"step": 0, "note": 64, "vel": 120, "len": 1}, {"step": 1, "note": 67, "vel": 120, "len": 1}, {"step": 2, "note": 70, "vel": 120, "len": 1}, {"step": 3, "note": 73, "vel": 120, "len": 1}, {"step": 4, "note": 76, "vel": 127, "len": 1}, {"step": 6, "note": 64, "vel": 120, "len": 1}]}, {"bar": 4, "events": [{"step": 0, "note": 76, "vel": 110, "len": 1}, {"step": 2, "note": 76, "vel": 105, "len": 1}, {"step": 4, "note": 76, "vel": 110, "len": 1}, {"step": 6, "note": 76, "vel": 115, "len": 1}]}, {"bar": 7, "events": [{"step": 0, "note": 88, "vel": 127, "len": 1}, {"step": 1, "note": 87, "vel": 120, "len": 1}, {"step": 2, "note": 86, "vel": 120, "len": 1}, {"step": 3, "note": 85, "vel": 120, "len": 1}, {"step": 4, "note": 84, "vel": 120, "len": 1}, {"step": 5, "note": 83, "vel": 120, "len": 1}, {"step": 6, "note": 82, "vel": 120, "len": 1}, {"step": 7, "note": 81, "vel": 120, "len": 1}]}, {"bar": 12, "events": [{"step": 0, "note": 76, "vel": 127, "len": 1}, {"step": 2, "note": 79, "vel": 127, "len": 1}, {"step": 4, "note": 82, "vel": 127, "len": 1}, {"step": 6, "note": 85, "vel": 127, "len": 1}]}, {"bar": 15, "events": [{"step": 0, "note": 64, "vel": 127, "len": 8}, {"step": 0, "note": 67, "vel": 127, "len": 8}, {"step": 0, "note": 70, "vel": 127, "len": 8}, {"step": 0, "note": 76, "vel": 127, "len": 8}]}]}