{"meta": {"style": "Hard Rock", "tempo": 175, "key": "E Minor", "meter": "4/4", "bars": 16, "scale": "Minor", "mood": "Chaotic", "dynamic_profile": "High Energy", "arrangement_density": "Dense", "harmonic_color": "Aggressive", "length_seconds": 30.0, "instrument_configs": [{"name": "Electric Guitar", "register": "Mid-High", "role": "Lead", "articulation": "Distorted", "dynamic_range": "Intense"}, {"name": "Piano", "register": "Full", "role": "Lead", "articulation": "Percussive", "dynamic_range": "Intense"}, {"name": "Bass Guitar", "register": "Low", "role": "Bass", "articulation": "Sustain", "dynamic_range": "Intense"}, {"name": "Kick", "register": "Low", "role": "Percussion", "articulation": "Percussive", "dynamic_range": "Intense"}, {"name": "Snare", "register": "Mid", "role": "Percussion", "articulation": "Percussive", "dynamic_range": "Intense"}, {"name": "Hat", "register": "High", "role": "Percussion", "articulation": "Percussive", "dynamic_range": "Moderate"}, {"name": "Crash", "register": "High", "role": "Percussion", "articulation": "Percussive", "dynamic_range": "Intense"}, {"name": "Tom", "register": "Low-Mid", "role": "Percussion", "articulation": "Percussive", "dynamic_range": "Intense"}], "instruments": ["Electric Guitar", "Piano", "Bass Guitar", "Kick", "Snare", "Hat", "Crash", "Tom"], "instrument": "Electric Guitar"}, "layers": {"Electric Guitar": [{"bar": 0, "events": [{"step": 0, "note": 40, "vel": 120, "len": 2}, {"step": 0, "note": 47, "vel": 120, "len": 2}, {"step": 2, "note": 40, "vel": 110, "len": 2}, {"step": 3, "note": 43, "vel": 115, "len": 1}, {"step": 4, "note": 45, "vel": 120, "len": 2}, {"step": 6, "note": 46, "vel": 125, "len": 1}, {"step": 7, "note": 47, "vel": 120, "len": 1}]}, {"bar": 1, "events": [{"step": 0, "note": 52, "vel": 120, "len": 2}, {"step": 2, "note": 50, "vel": 110, "len": 2}, {"step": 4, "note": 47, "vel": 115, "len": 2}, {"step": 6, "note": 43, "vel": 110, "len": 2}]}, {"bar": 2, "events": [{"step": 0, "note": 40, "vel": 120, "len": 2}, {"step": 2, "note": 40, "vel": 110, "len": 2}, {"step": 3, "note": 43, "vel": 115, "len": 1}, {"step": 5, "note": 45, "vel": 115, "len": 1}, {"step": 6, "note": 46, "vel": 120, "len": 1}, {"step": 7, "note": 47, "vel": 120, "len": 1}]}, {"bar": 3, "events": [{"step": 0, "note": 50, "vel": 125, "len": 1}, {"step": 1, "note": 52, "vel": 125, "len": 1}, {"step": 2, "note": 55, "vel": 125, "len": 1}, {"step": 4, "note": 57, "vel": 125, "len": 2}, {"step": 6, "note": 59, "vel": 125, "len": 2}]}, {"bar": 4, "events": [{"step": 0, "note": 40, "vel": 120, "len": 2}, {"step": 2, "note": 40, "vel": 115, "len": 2}, {"step": 4, "note": 43, "vel": 120, "len": 2}, {"step": 6, "note": 45, "vel": 120, "len": 2}]}, {"bar": 5, "events": [{"step": 0, "note": 47, "vel": 120, "len": 2}, {"step": 2, "note": 50, "vel": 120, "len": 2}, {"step": 4, "note": 52, "vel": 120, "len": 2}, {"step": 6, "note": 54, "vel": 125, "len": 2}]}, {"bar": 6, "events": [{"step": 0, "note": 40, "vel": 120, "len": 1}, {"step": 1, "note": 40, "vel": 110, "len": 1}, {"step": 2, "note": 43, "vel": 115, "len": 2}, {"step": 4, "note": 45, "vel": 115, "len": 2}, {"step": 6, "note": 46, "vel": 120, "len": 2}]}, {"bar": 7, "events": [{"step": 0, "note": 52, "vel": 125, "len": 1}, {"step": 1, "note": 51, "vel": 120, "len": 1}, {"step": 2, "note": 50, "vel": 120, "len": 1}, {"step": 3, "note": 49, "vel": 120, "len": 1}, {"step": 4, "note": 48, "vel": 120, "len": 1}, {"step": 5, "note": 47, "vel": 120, "len": 1}, {"step": 6, "note": 46, "vel": 120, "len": 1}, {"step": 7, "note": 45, "vel": 120, "len": 1}]}, {"bar": 8, "events": [{"step": 0, "note": 40, "vel": 127, "len": 4}, {"step": 4, "note": 52, "vel": 127, "len": 4}]}, {"bar": 9, "events": [{"step": 0, "note": 40, "vel": 120, "len": 1}, {"step": 1, "note": 43, "vel": 120, "len": 1}, {"step": 2, "note": 45, "vel": 120, "len": 1}, {"step": 3, "note": 47, "vel": 120, "len": 1}, {"step": 4, "note": 50, "vel": 120, "len": 1}, {"step": 5, "note": 52, "vel": 120, "len": 1}, {"step": 6, "note": 55, "vel": 125, "len": 2}]}, {"bar": 10, "events": [{"step": 0, "note": 57, "vel": 125, "len": 2}, {"step": 2, "note": 55, "vel": 120, "len": 2}, {"step": 4, "note": 52, "vel": 120, "len": 2}, {"step": 6, "note": 50, "vel": 115, "len": 2}]}, {"bar": 11, "events": [{"step": 0, "note": 48, "vel": 120, "len": 1}, {"step": 1, "note": 50, "vel": 120, "len": 1}, {"step": 2, "note": 52, "vel": 120, "len": 1}, {"step": 4, "note": 55, "vel": 125, "len": 2}, {"step": 6, "note": 57, "vel": 125, "len": 2}]}, {"bar": 12, "events": [{"step": 0, "note": 60, "vel": 127, "len": 1}, {"step": 1, "note": 59, "vel": 120, "len": 1}, {"step": 2, "note": 58, "vel": 120, "len": 1}, {"step": 3, "note": 57, "vel": 120, "len": 1}, {"step": 4, "note": 56, "vel": 120, "len": 1}, {"step": 5, "note": 55, "vel": 120, "len": 1}, {"step": 6, "note": 54, "vel": 120, "len": 1}, {"step": 7, "note": 53, "vel": 120, "len": 1}]}, {"bar": 13, "events": [{"step": 0, "note": 52, "vel": 127, "len": 2}, {"step": 2, "note": 40, "vel": 120, "len": 2}, {"step": 4, "note": 46, "vel": 125, "len": 2}, {"step": 6, "note": 40, "vel": 120, "len": 2}]}, {"bar": 14, "events": [{"step": 0, "note": 45, "vel": 120, "len": 2}, {"step": 2, "note": 40, "vel": 120, "len": 2}, {"step": 4, "note": 43, "vel": 120, "len": 2}, {"step": 6, "note": 40, "vel": 120, "len": 2}]}, {"bar": 15, "events": [{"step": 0, "note": 40, "vel": 127, "len": 8}, {"step": 0, "note": 47, "vel": 127, "len": 8}, {"step": 0, "note": 52, "vel": 127, "len": 8}]}]}, "pattern": [{"bar": 0, "events": [{"step": 0, "note": 40, "vel": 120, "len": 2}, {"step": 0, "note": 47, "vel": 120, "len": 2}, {"step": 2, "note": 40, "vel": 110, "len": 2}, {"step": 3, "note": 43, "vel": 115, "len": 1}, {"step": 4, "note": 45, "vel": 120, "len": 2}, {"step": 6, "note": 46, "vel": 125, "len": 1}, {"step": 7, "note": 47, "vel": 120, "len": 1}]}, {"bar": 1, "events": [{"step": 0, "note": 52, "vel": 120, "len": 2}, {"step": 2, "note": 50, "vel": 110, "len": 2}, {"step": 4, "note": 47, "vel": 115, "len": 2}, {"step": 6, "note": 43, "vel": 110, "len": 2}]}, {"bar": 2, "events": [{"step": 0, "note": 40, "vel": 120, "len": 2}, {"step": 2, "note": 40, "vel": 110, "len": 2}, {"step": 3, "note": 43, "vel": 115, "len": 1}, {"step": 5, "note": 45, "vel": 115, "len": 1}, {"step": 6, "note": 46, "vel": 120, "len": 1}, {"step": 7, "note": 47, "vel": 120, "len": 1}]}, {"bar": 3, "events": [{"step": 0, "note": 50, "vel": 125, "len": 1}, {"step": 1, "note": 52, "vel": 125, "len": 1}, {"step": 2, "note": 55, "vel": 125, "len": 1}, {"step": 4, "note": 57, "vel": 125, "len": 2}, {"step": 6, "note": 59, "vel": 125, "len": 2}]}, {"bar": 4, "events": [{"step": 0, "note": 40, "vel": 120, "len": 2}, {"step": 2, "note": 40, "vel": 115, "len": 2}, {"step": 4, "note": 43, "vel": 120, "len": 2}, {"step": 6, "note": 45, "vel": 120, "len": 2}]}, {"bar": 5, "events": [{"step": 0, "note": 47, "vel": 120, "len": 2}, {"step": 2, "note": 50, "vel": 120, "len": 2}, {"step": 4, "note": 52, "vel": 120, "len": 2}, {"step": 6, "note": 54, "vel": 125, "len": 2}]}, {"bar": 6, "events": [{"step": 0, "note": 40, "vel": 120, "len": 1}, {"step": 1, "note": 40, "vel": 110, "len": 1}, {"step": 2, "note": 43, "vel": 115, "len": 2}, {"step": 4, "note": 45, "vel": 115, "len": 2}, {"step": 6, "note": 46, "vel": 120, "len": 2}]}, {"bar": 7, "events": [{"step": 0, "note": 52, "vel": 125, "len": 1}, {"step": 1, "note": 51, "vel": 120, "len": 1}, {"step": 2, "note": 50, "vel": 120, "len": 1}, {"step": 3, "note": 49, "vel": 120, "len": 1}, {"step": 4, "note": 48, "vel": 120, "len": 1}, {"step": 5, "note": 47, "vel": 120, "len": 1}, {"step": 6, "note": 46, "vel": 120, "len": 1}, {"step": 7, "note": 45, "vel": 120, "len": 1}]}, {"bar": 8, "events": [{"step": 0, "note": 40, "vel": 127, "len": 4}, {"step": 4, "note": 52, "vel": 127, "len": 4}]}, {"bar": 9, "events": [{"step": 0, "note": 40, "vel": 120, "len": 1}, {"step": 1, "note": 43, "vel": 120, "len": 1}, {"step": 2, "note": 45, "vel": 120, "len": 1}, {"step": 3, "note": 47, "vel": 120, "len": 1}, {"step": 4, "note": 50, "vel": 120, "len": 1}, {"step": 5, "note": 52, "vel": 120, "len": 1}, {"step": 6, "note": 55, "vel": 125, "len": 2}]}, {"bar": 10, "events": [{"step": 0, "note": 57, "vel": 125, "len": 2}, {"step": 2, "note": 55, "vel": 120, "len": 2}, {"step": 4, "note": 52, "vel": 120, "len": 2}, {"step": 6, "note": 50, "vel": 115, "len": 2}]}, {"bar": 11, "events": [{"step": 0, "note": 48, "vel": 120, "len": 1}, {"step": 1, "note": 50, "vel": 120, "len": 1}, {"step": 2, "note": 52, "vel": 120, "len": 1}, {"step": 4, "note": 55, "vel": 125, "len": 2}, {"step": 6, "note": 57, "vel": 125, "len": 2}]}, {"bar": 12, "events": [{"step": 0, "note": 60, "vel": 127, "len": 1}, {"step": 1, "note": 59, "vel": 120, "len": 1}, {"step": 2, "note": 58, "vel": 120, "len": 1}, {"step": 3, "note": 57, "vel": 120, "len": 1}, {"step": 4, "note": 56, "vel": 120, "len": 1}, {"step": 5, "note": 55, "vel": 120, "len": 1}, {"step": 6, "note": 54, "vel": 120, "len": 1}, {"step": 7, "note": 53, "vel": 120, "len": 1}]}, {"bar": 13, "events": [{"step": 0, "note": 52, "vel": 127, "len": 2}, {"step": 2, "note": 40, "vel": 120, "len": 2}, {"step": 4, "note": 46, "vel": 125, "len": 2}, {"step": 6, "note": 40, "vel": 120, "len": 2}]}, {"bar": 14, "events": [{"step": 0, "note": 45, "vel": 120, "len": 2}, {"step": 2, "note": 40, "vel": 120, "len": 2}, {"step": 4, "note": 43, "vel": 120, "len": 2}, {"step": 6, "note": 40, "vel": 120, "len": 2}]}, {"bar": 15, "events": [{"step": 0, "note": 40, "vel": 127, "len": 8}, {"step": 0, "note": 47, "vel": 127, "len": 8}, {"step": 0, "note": 52, "vel": 127, "len": 8}]}]}