{"meta": {"tempo": 120, "key": "C Major", "scale": "Major", "style": "Electronic", "mood": "Neutral", "meter": "4/4", "dynamic_profile": "Moderate", "arrangement_density": "Medium", "harmonic_color": "Bright", "length_seconds": 128.0, "bars": 16, "instrument_configs": [{"name": "Piano", "register": "Mid", "role": "Lead", "articulation": "Legato", "dynamic_range": "Delicate"}, {"name": "Pads", "register": "Full", "role": "Pad", "articulation": "Sustain", "dynamic_range": "Moderate"}, {"name": "Kick", "register": "Low", "role": "Bass", "articulation": "Percussive", "dynamic_range": "Intense"}, {"name": "Snare", "register": "Mid", "role": "Percussion", "articulation": "Staccato", "dynamic_range": "Intense"}, {"name": "Hat", "register": "High", "role": "Percussion", "articulation": "Staccato", "dynamic_range": "Moderate"}], "instruments": ["Piano", "Pads", "Kick", "Snare", "Hat"], "instrument": "Hat"}, "layers": {"Hat": [{"bar": 1, "events": [{"step": 0, "note": 42, "vel": 80, "len": 1}, {"step": 2, "note": 42, "vel": 80, "len": 1}, {"step": 4, "note": 42, "vel": 80, "len": 1}, {"step": 6, "note": 42, "vel": 80, "len": 1}]}, {"bar": 2, "events": [{"step": 0, "note": 42, "vel": 80, "len": 1}, {"step": 2, "note": 42, "vel": 80, "len": 1}, {"step": 4, "note": 42, "vel": 80, "len": 1}, {"step": 6, "note": 42, "vel": 80, "len": 1}]}, {"bar": 3, "events": [{"step": 0, "note": 42, "vel": 80, "len": 1}, {"step": 2, "note": 42, "vel": 80, "len": 1}, {"step": 4, "note": 42, "vel": 80, "len": 1}, {"step": 6, "note": 42, "vel": 80, "len": 1}]}, {"bar": 4, "events": [{"step": 0, "note": 42, "vel": 80, "len": 1}, {"step": 2, "note": 42, "vel": 80, "len": 1}, {"step": 4, "note": 42, "vel": 80, "len": 1}, {"step": 6, "note": 42, "vel": 80, "len": 1}]}, {"bar": 5, "events": [{"step": 0, "note": 42, "vel": 80, "len": 1}, {"step": 2, "note": 42, "vel": 80, "len": 1}, {"step": 4, "note": 42, "vel": 80, "len": 1}, {"step": 6, "note": 42, "vel": 80, "len": 1}]}, {"bar": 6, "events": [{"step": 0, "note": 42, "vel": 80, "len": 1}, {"step": 2, "note": 42, "vel": 80, "len": 1}, {"step": 4, "note": 42, "vel": 80, "len": 1}, {"step": 6, "note": 42, "vel": 80, "len": 1}]}, {"bar": 7, "events": [{"step": 0, "note": 42, "vel": 80, "len": 1}, {"step": 2, "note": 42, "vel": 80, "len": 1}, {"step": 4, "note": 42, "vel": 80, "len": 1}, {"step": 6, "note": 42, "vel": 80, "len": 1}]}, {"bar": 8, "events": [{"step": 0, "note": 42, "vel": 80, "len": 1}, {"step": 2, "note": 42, "vel": 80, "len": 1}, {"step": 4, "note": 42, "vel": 80, "len": 1}, {"step": 6, "note": 42, "vel": 80, "len": 1}]}, {"bar": 9, "events": [{"step": 0, "note": 42, "vel": 80, "len": 1}, {"step": 2, "note": 42, "vel": 80, "len": 1}, {"step": 4, "note": 42, "vel": 80, "len": 1}, {"step": 6, "note": 42, "vel": 80, "len": 1}]}, {"bar": 10, "events": [{"step": 0, "note": 42, "vel": 80, "len": 1}, {"step": 2, "note": 42, "vel": 80, "len": 1}, {"step": 4, "note": 42, "vel": 80, "len": 1}, {"step": 6, "note": 42, "vel": 80, "len": 1}]}, {"bar": 11, "events": [{"step": 0, "note": 42, "vel": 80, "len": 1}, {"step": 2, "note": 42, "vel": 80, "len": 1}, {"step": 4, "note": 42, "vel": 80, "len": 1}, {"step": 6, "note": 42, "vel": 80, "len": 1}]}, {"bar": 12, "events": [{"step": 0, "note": 42, "vel": 80, "len": 1}, {"step": 2, "note": 42, "vel": 80, "len": 1}, {"step": 4, "note": 42, "vel": 80, "len": 1}, {"step": 6, "note": 42, "vel": 80, "len": 1}]}, {"bar": 13, "events": [{"step": 0, "note": 42, "vel": 80, "len": 1}, {"step": 2, "note": 42, "vel": 80, "len": 1}, {"step": 4, "note": 42, "vel": 80, "len": 1}, {"step": 6, "note": 42, "vel": 80, "len": 1}]}, {"bar": 14, "events": [{"step": 0, "note": 42, "vel": 80, "len": 1}, {"step": 2, "note": 42, "vel": 80, "len": 1}, {"step": 4, "note": 42, "vel": 80, "len": 1}, {"step": 6, "note": 42, "vel": 80, "len": 1}]}, {"bar": 15, "events": [{"step": 0, "note": 42, "vel": 80, "len": 1}, {"step": 2, "note": 42, "vel": 80, "len": 1}, {"step": 4, "note": 42, "vel": 80, "len": 1}, {"step": 6, "note": 42, "vel": 80, "len": 1}]}, {"bar": 16, "events": [{"step": 0, "note": 42, "vel": 80, "len": 1}, {"step": 2, "note": 42, "vel": 80, "len": 1}, {"step": 4, "note": 42, "vel": 80, "len": 1}, {"step": 6, "note": 42, "vel": 80, "len": 1}]}]}, "pattern": [{"bar": 1, "events": [{"step": 0, "note": 42, "vel": 80, "len": 1}, {"step": 2, "note": 42, "vel": 80, "len": 1}, {"step": 4, "note": 42, "vel": 80, "len": 1}, {"step": 6, "note": 42, "vel": 80, "len": 1}]}, {"bar": 2, "events": [{"step": 0, "note": 42, "vel": 80, "len": 1}, {"step": 2, "note": 42, "vel": 80, "len": 1}, {"step": 4, "note": 42, "vel": 80, "len": 1}, {"step": 6, "note": 42, "vel": 80, "len": 1}]}, {"bar": 3, "events": [{"step": 0, "note": 42, "vel": 80, "len": 1}, {"step": 2, "note": 42, "vel": 80, "len": 1}, {"step": 4, "note": 42, "vel": 80, "len": 1}, {"step": 6, "note": 42, "vel": 80, "len": 1}]}, {"bar": 4, "events": [{"step": 0, "note": 42, "vel": 80, "len": 1}, {"step": 2, "note": 42, "vel": 80, "len": 1}, {"step": 4, "note": 42, "vel": 80, "len": 1}, {"step": 6, "note": 42, "vel": 80, "len": 1}]}, {"bar": 5, "events": [{"step": 0, "note": 42, "vel": 80, "len": 1}, {"step": 2, "note": 42, "vel": 80, "len": 1}, {"step": 4, "note": 42, "vel": 80, "len": 1}, {"step": 6, "note": 42, "vel": 80, "len": 1}]}, {"bar": 6, "events": [{"step": 0, "note": 42, "vel": 80, "len": 1}, {"step": 2, "note": 42, "vel": 80, "len": 1}, {"step": 4, "note": 42, "vel": 80, "len": 1}, {"step": 6, "note": 42, "vel": 80, "len": 1}]}, {"bar": 7, "events": [{"step": 0, "note": 42, "vel": 80, "len": 1}, {"step": 2, "note": 42, "vel": 80, "len": 1}, {"step": 4, "note": 42, "vel": 80, "len": 1}, {"step": 6, "note": 42, "vel": 80, "len": 1}]}, {"bar": 8, "events": [{"step": 0, "note": 42, "vel": 80, "len": 1}, {"step": 2, "note": 42, "vel": 80, "len": 1}, {"step": 4, "note": 42, "vel": 80, "len": 1}, {"step": 6, "note": 42, "vel": 80, "len": 1}]}, {"bar": 9, "events": [{"step": 0, "note": 42, "vel": 80, "len": 1}, {"step": 2, "note": 42, "vel": 80, "len": 1}, {"step": 4, "note": 42, "vel": 80, "len": 1}, {"step": 6, "note": 42, "vel": 80, "len": 1}]}, {"bar": 10, "events": [{"step": 0, "note": 42, "vel": 80, "len": 1}, {"step": 2, "note": 42, "vel": 80, "len": 1}, {"step": 4, "note": 42, "vel": 80, "len": 1}, {"step": 6, "note": 42, "vel": 80, "len": 1}]}, {"bar": 11, "events": [{"step": 0, "note": 42, "vel": 80, "len": 1}, {"step": 2, "note": 42, "vel": 80, "len": 1}, {"step": 4, "note": 42, "vel": 80, "len": 1}, {"step": 6, "note": 42, "vel": 80, "len": 1}]}, {"bar": 12, "events": [{"step": 0, "note": 42, "vel": 80, "len": 1}, {"step": 2, "note": 42, "vel": 80, "len": 1}, {"step": 4, "note": 42, "vel": 80, "len": 1}, {"step": 6, "note": 42, "vel": 80, "len": 1}]}, {"bar": 13, "events": [{"step": 0, "note": 42, "vel": 80, "len": 1}, {"step": 2, "note": 42, "vel": 80, "len": 1}, {"step": 4, "note": 42, "vel": 80, "len": 1}, {"step": 6, "note": 42, "vel": 80, "len": 1}]}, {"bar": 14, "events": [{"step": 0, "note": 42, "vel": 80, "len": 1}, {"step": 2, "note": 42, "vel": 80, "len": 1}, {"step": 4, "note": 42, "vel": 80, "len": 1}, {"step": 6, "note": 42, "vel": 80, "len": 1}]}, {"bar": 15, "events": [{"step": 0, "note": 42, "vel": 80, "len": 1}, {"step": 2, "note": 42, "vel": 80, "len": 1}, {"step": 4, "note": 42, "vel": 80, "len": 1}, {"step": 6, "note": 42, "vel": 80, "len": 1}]}, {"bar": 16, "events": [{"step": 0, "note": 42, "vel": 80, "len": 1}, {"step": 2, "note": 42, "vel": 80, "len": 1}, {"step": 4, "note": 42, "vel": 80, "len": 1}, {"step": 6, "note": 42, "vel": 80, "len": 1}]}]}