{"meta": {"status": "success", "tempo": 130, "key": "E", "scale": "Minor", "style": "Hard Rock", "mood": "Energetic", "meter": "4/4", "dynamic_profile": "High", "arrangement_density": "Dense", "harmonic_color": "Distorted", "length_seconds": 30.0, "bars": 8, "instrument_configs": [{"name": "Kick", "register": "Sub", "role": "Percussion", "articulation": "Percussive", "dynamic_range": "Intense"}, {"name": "Snare", "register": "Mid", "role": "Percussion", "articulation": "Percussive", "dynamic_range": "Intense"}, {"name": "Hat", "register": "High", "role": "Percussion", "articulation": "Percussive", "dynamic_range": "Moderate"}, {"name": "Crash", "register": "Very High", "role": "Percussion", "articulation": "Sustain", "dynamic_range": "Fortissimo"}, {"name": "Bass Guitar", "register": "Low", "role": "Bass", "articulation": "Sustain", "dynamic_range": "Intense"}, {"name": "Electric Guitar", "register": "Full", "role": "Lead", "articulation": "Sustain", "dynamic_range": "Intense"}], "instruments": ["Kick", "Snare", "Hat", "Crash", "Bass Guitar", "Electric Guitar"], "instrument": "Bass Guitar"}, "layers": {"Bass Guitar": [{"bar": 1, "events": [{"step": 0, "note": 28, "vel": 115, "len": 1}, {"step": 2, "note": 28, "vel": 110, "len": 1}, {"step": 3, "note": 28, "vel": 105, "len": 1}, {"step": 4, "note": 28, "vel": 110, "len": 1}, {"step": 6, "note": 28, "vel": 110, "len": 1}, {"step": 7, "note": 28, "vel": 105, "len": 1}]}, {"bar": 2, "events": [{"step": 0, "note": 31, "vel": 115, "len": 1}, {"step": 1, "note": 31, "vel": 105, "len": 1}, {"step": 2, "note": 31, "vel": 110, "len": 1}, {"step": 4, "note": 31, "vel": 110, "len": 1}, {"step": 5, "note": 31, "vel": 105, "len": 1}, {"step": 6, "note": 31, "vel": 110, "len": 1}]}, {"bar": 3, "events": [{"step": 0, "note": 33, "vel": 115, "len": 1}, {"step": 2, "note": 33, "vel": 110, "len": 1}, {"step": 3, "note": 33, "vel": 105, "len": 1}, {"step": 5, "note": 33, "vel": 110, "len": 1}, {"step": 6, "note": 33, "vel": 110, "len": 1}, {"step": 7, "note": 33, "vel": 105, "len": 1}]}, {"bar": 4, "events": [{"step": 0, "note": 36, "vel": 115, "len": 1}, {"step": 1, "note": 36, "vel": 105, "len": 1}, {"step": 2, "note": 36, "vel": 110, "len": 1}, {"step": 3, "note": 35, "vel": 100, "len": 1}, {"step": 4, "note": 33, "vel": 110, "len": 1}, {"step": 6, "note": 31, "vel": 115, "len": 1}]}, {"bar": 5, "events": [{"step": 0, "note": 28, "vel": 120, "len": 1}, {"step": 2, "note": 28, "vel": 115, "len": 1}, {"step": 3, "note": 28, "vel": 110, "len": 1}, {"step": 4, "note": 28, "vel": 115, "len": 1}, {"step": 6, "note": 28, "vel": 115, "len": 1}, {"step": 7, "note": 28, "vel": 110, "len": 1}]}, {"bar": 6, "events": [{"step": 0, "note": 31, "vel": 120, "len": 1}, {"step": 1, "note": 31, "vel": 110, "len": 1}, {"step": 2, "note": 31, "vel": 115, "len": 1}, {"step": 4, "note": 31, "vel": 115, "len": 1}, {"step": 5, "note": 31, "vel": 110, "len": 1}, {"step": 6, "note": 31, "vel": 115, "len": 1}]}, {"bar": 7, "events": [{"step": 0, "note": 33, "vel": 120, "len": 1}, {"step": 1, "note": 33, "vel": 110, "len": 1}, {"step": 2, "note": 33, "vel": 115, "len": 1}, {"step": 4, "note": 33, "vel": 115, "len": 1}, {"step": 5, "note": 33, "vel": 110, "len": 1}, {"step": 6, "note": 33, "vel": 115, "len": 1}]}, {"bar": 8, "events": [{"step": 0, "note": 36, "vel": 127, "len": 1}, {"step": 1, "note": 36, "vel": 120, "len": 1}, {"step": 2, "note": 36, "vel": 125, "len": 1}, {"step": 4, "note": 36, "vel": 127, "len": 1}, {"step": 5, "note": 35, "vel": 120, "len": 1}, {"step": 6, "note": 33, "vel": 127, "len": 2}]}]}, "pattern": [{"bar": 1, "events": [{"step": 0, "note": 28, "vel": 115, "len": 1}, {"step": 2, "note": 28, "vel": 110, "len": 1}, {"step": 3, "note": 28, "vel": 105, "len": 1}, {"step": 4, "note": 28, "vel": 110, "len": 1}, {"step": 6, "note": 28, "vel": 110, "len": 1}, {"step": 7, "note": 28, "vel": 105, "len": 1}]}, {"bar": 2, "events": [{"step": 0, "note": 31, "vel": 115, "len": 1}, {"step": 1, "note": 31, "vel": 105, "len": 1}, {"step": 2, "note": 31, "vel": 110, "len": 1}, {"step": 4, "note": 31, "vel": 110, "len": 1}, {"step": 5, "note": 31, "vel": 105, "len": 1}, {"step": 6, "note": 31, "vel": 110, "len": 1}]}, {"bar": 3, "events": [{"step": 0, "note": 33, "vel": 115, "len": 1}, {"step": 2, "note": 33, "vel": 110, "len": 1}, {"step": 3, "note": 33, "vel": 105, "len": 1}, {"step": 5, "note": 33, "vel": 110, "len": 1}, {"step": 6, "note": 33, "vel": 110, "len": 1}, {"step": 7, "note": 33, "vel": 105, "len": 1}]}, {"bar": 4, "events": [{"step": 0, "note": 36, "vel": 115, "len": 1}, {"step": 1, "note": 36, "vel": 105, "len": 1}, {"step": 2, "note": 36, "vel": 110, "len": 1}, {"step": 3, "note": 35, "vel": 100, "len": 1}, {"step": 4, "note": 33, "vel": 110, "len": 1}, {"step": 6, "note": 31, "vel": 115, "len": 1}]}, {"bar": 5, "events": [{"step": 0, "note": 28, "vel": 120, "len": 1}, {"step": 2, "note": 28, "vel": 115, "len": 1}, {"step": 3, "note": 28, "vel": 110, "len": 1}, {"step": 4, "note": 28, "vel": 115, "len": 1}, {"step": 6, "note": 28, "vel": 115, "len": 1}, {"step": 7, "note": 28, "vel": 110, "len": 1}]}, {"bar": 6, "events": [{"step": 0, "note": 31, "vel": 120, "len": 1}, {"step": 1, "note": 31, "vel": 110, "len": 1}, {"step": 2, "note": 31, "vel": 115, "len": 1}, {"step": 4, "note": 31, "vel": 115, "len": 1}, {"step": 5, "note": 31, "vel": 110, "len": 1}, {"step": 6, "note": 31, "vel": 115, "len": 1}]}, {"bar": 7, "events": [{"step": 0, "note": 33, "vel": 120, "len": 1}, {"step": 1, "note": 33, "vel": 110, "len": 1}, {"step": 2, "note": 33, "vel": 115, "len": 1}, {"step": 4, "note": 33, "vel": 115, "len": 1}, {"step": 5, "note": 33, "vel": 110, "len": 1}, {"step": 6, "note": 33, "vel": 115, "len": 1}]}, {"bar": 8, "events": [{"step": 0, "note": 36, "vel": 127, "len": 1}, {"step": 1, "note": 36, "vel": 120, "len": 1}, {"step": 2, "note": 36, "vel": 125, "len": 1}, {"step": 4, "note": 36, "vel": 127, "len": 1}, {"step": 5, "note": 35, "vel": 120, "len": 1}, {"step": 6, "note": 33, "vel": 127, "len": 2}]}]}