{"pattern": [{"bar": 1, "events": [{"step": 0, "note": 36, "vel": 120, "len": 1}, {"step": 0, "note": 49, "vel": 127, "len": 1}, {"step": 1, "note": 46, "vel": 100, "len": 1}, {"step": 2, "note": 38, "vel": 125, "len": 1}, {"step": 2, "note": 46, "vel": 90, "len": 1}, {"step": 3, "note": 36, "vel": 110, "len": 1}, {"step": 3, "note": 46, "vel": 100, "len": 1}, {"step": 4, "note": 36, "vel": 115, "len": 1}, {"step": 4, "note": 46, "vel": 90, "len": 1}, {"step": 5, "note": 46, "vel": 100, "len": 1}, {"step": 6, "note": 38, "vel": 125, "len": 1}, {"step": 6, "note": 46, "vel": 90, "len": 1}, {"step": 7, "note": 46, "vel": 100, "len": 1}]}, {"bar": 2, "events": [{"step": 0, "note": 36, "vel": 120, "len": 1}, {"step": 0, "note": 46, "vel": 100, "len": 1}, {"step": 1, "note": 36, "vel": 110, "len": 1}, {"step": 1, "note": 46, "vel": 90, "len": 1}, {"step": 2, "note": 38, "vel": 125, "len": 1}, {"step": 2, "note": 46, "vel": 90, "len": 1}, {"step": 3, "note": 46, "vel": 100, "len": 1}, {"step": 4, "note": 36, "vel": 115, "len": 1}, {"step": 4, "note": 46, "vel": 90, "len": 1}, {"step": 5, "note": 36, "vel": 110, "len": 1}, {"step": 5, "note": 46, "vel": 100, "len": 1}, {"step": 6, "note": 38, "vel": 125, "len": 1}, {"step": 6, "note": 46, "vel": 90, "len": 1}, {"step": 7, "note": 46, "vel": 100, "len": 1}]}, {"bar": 3, "events": [{"step": 0, "note": 36, "vel": 120, "len": 1}, {"step": 0, "note": 46, "vel": 100, "len": 1}, {"step": 1, "note": 46, "vel": 90, "len": 1}, {"step": 2, "note": 38, "vel": 125, "len": 1}, {"step": 2, "note": 46, "vel": 90, "len": 1}, {"step": 3, "note": 36, "vel": 110, "len": 1}, {"step": 3, "note": 46, "vel": 100, "len": 1}, {"step": 4, "note": 46, "vel": 90, "len": 1}, {"step": 5, "note": 36, "vel": 115, "len": 1}, {"step": 5, "note": 46, "vel": 100, "len": 1}, {"step": 6, "note": 38, "vel": 125, "len": 1}, {"step": 6, "note": 46, "vel": 90, "len": 1}, {"step": 7, "note": 36, "vel": 110, "len": 1}, {"step": 7, "note": 46, "vel": 100, "len": 1}]}, {"bar": 4, "events": [{"step": 0, "note": 36, "vel": 120, "len": 1}, {"step": 0, "note": 46, "vel": 100, "len": 1}, {"step": 1, "note": 46, "vel": 90, "len": 1}, {"step": 2, "note": 38, "vel": 125, "len": 1}, {"step": 2, "note": 46, "vel": 90, "len": 1}, {"step": 3, "note": 36, "vel": 110, "len": 1}, {"step": 3, "note": 46, "vel": 100, "len": 1}, {"step": 4, "note": 38, "vel": 120, "len": 1}, {"step": 5, "note": 38, "vel": 110, "len": 1}, {"step": 6, "note": 36, "vel": 120, "len": 1}, {"step": 6, "note": 38, "vel": 127, "len": 1}, {"step": 7, "note": 38, "vel": 120, "len": 1}]}, {"bar": 5, "events": [{"step": 0, "note": 36, "vel": 127, "len": 1}, {"step": 0, "note": 49, "vel": 127, "len": 1}, {"step": 1, "note": 46, "vel": 105, "len": 1}, {"step": 2, "note": 38, "vel": 127, "len": 1}, {"step": 2, "note": 46, "vel": 95, "len": 1}, {"step": 3, "note": 36, "vel": 115, "len": 1}, {"step": 3, "note": 46, "vel": 105, "len": 1}, {"step": 4, "note": 36, "vel": 120, "len": 1}, {"step": 4, "note": 46, "vel": 95, "len": 1}, {"step": 5, "note": 46, "vel": 105, "len": 1}, {"step": 6, "note": 38, "vel": 127, "len": 1}, {"step": 6, "note": 46, "vel": 95, "len": 1}, {"step": 7, "note": 46, "vel": 105, "len": 1}]}, {"bar": 6, "events": [{"step": 0, "note": 36, "vel": 120, "len": 1}, {"step": 0, "note": 46, "vel": 100, "len": 1}, {"step": 1, "note": 36, "vel": 110, "len": 1}, {"step": 1, "note": 46, "vel": 90, "len": 1}, {"step": 2, "note": 38, "vel": 125, "len": 1}, {"step": 2, "note": 46, "vel": 90, "len": 1}, {"step": 3, "note": 46, "vel": 100, "len": 1}, {"step": 4, "note": 36, "vel": 115, "len": 1}, {"step": 4, "note": 46, "vel": 90, "len": 1}, {"step": 5, "note": 36, "vel": 110, "len": 1}, {"step": 5, "note": 46, "vel": 100, "len": 1}, {"step": 6, "note": 38, "vel": 125, "len": 1}, {"step": 6, "note": 46, "vel": 90, "len": 1}, {"step": 7, "note": 46, "vel": 100, "len": 1}]}, {"bar": 7, "events": [{"step": 0, "note": 36, "vel": 120, "len": 1}, {"step": 0, "note": 46, "vel": 100, "len": 1}, {"step": 1, "note": 36, "vel": 110, "len": 1}, {"step": 1, "note": 46, "vel": 90, "len": 1}, {"step": 2, "note": 38, "vel": 125, "len": 1}, {"step": 2, "note": 46, "vel": 90, "len": 1}, {"step": 3, "note": 46, "vel": 100, "len": 1}, {"step": 4, "note": 36, "vel": 115, "len": 1}, {"step": 4, "note": 46, "vel": 90, "len": 1}, {"step": 5, "note": 36, "vel": 110, "len": 1}, {"step": 5, "note": 46, "vel": 100, "len": 1}, {"step": 6, "note": 38, "vel": 125, "len": 1}, {"step": 6, "note": 46, "vel": 90, "len": 1}, {"step": 7, "note": 46, "vel": 100, "len": 1}]}, {"bar": 8, "events": [{"step": 0, "note": 36, "vel": 127, "len": 1}, {"step": 0, "note": 49, "vel": 127, "len": 1}, {"step": 1, "note": 36, "vel": 115, "len": 1}, {"step": 2, "note": 38, "vel": 127, "len": 1}, {"step": 3, "note": 36, "vel": 115, "len": 1}, {"step": 4, "note": 38, "vel": 127, "len": 1}, {"step": 5, "note": 36, "vel": 120, "len": 1}, {"step": 6, "note": 38, "vel": 127, "len": 1}, {"step": 6, "note": 49, "vel": 127, "len": 1}, {"step": 7, "note": 36, "vel": 120, "len": 1}]}], "layers": {"Bass Guitar": [{"bar": 1, "events": [{"step": 0, "note": 28, "vel": 115, "len": 1}, {"step": 2, "note": 28, "vel": 110, "len": 1}, {"step": 3, "note": 28, "vel": 105, "len": 1}, {"step": 4, "note": 28, "vel": 110, "len": 1}, {"step": 6, "note": 28, "vel": 110, "len": 1}, {"step": 7, "note": 28, "vel": 105, "len": 1}]}, {"bar": 2, "events": [{"step": 0, "note": 31, "vel": 115, "len": 1}, {"step": 1, "note": 31, "vel": 105, "len": 1}, {"step": 2, "note": 31, "vel": 110, "len": 1}, {"step": 4, "note": 31, "vel": 110, "len": 1}, {"step": 5, "note": 31, "vel": 105, "len": 1}, {"step": 6, "note": 31, "vel": 110, "len": 1}]}, {"bar": 3, "events": [{"step": 0, "note": 33, "vel": 115, "len": 1}, {"step": 2, "note": 33, "vel": 110, "len": 1}, {"step": 3, "note": 33, "vel": 105, "len": 1}, {"step": 5, "note": 33, "vel": 110, "len": 1}, {"step": 6, "note": 33, "vel": 110, "len": 1}, {"step": 7, "note": 33, "vel": 105, "len": 1}]}, {"bar": 4, "events": [{"step": 0, "note": 36, "vel": 115, "len": 1}, {"step": 1, "note": 36, "vel": 105, "len": 1}, {"step": 2, "note": 36, "vel": 110, "len": 1}, {"step": 3, "note": 35, "vel": 100, "len": 1}, {"step": 4, "note": 33, "vel": 110, "len": 1}, {"step": 6, "note": 31, "vel": 115, "len": 1}]}, {"bar": 5, "events": [{"step": 0, "note": 28, "vel": 120, "len": 1}, {"step": 2, "note": 28, "vel": 115, "len": 1}, {"step": 3, "note": 28, "vel": 110, "len": 1}, {"step": 4, "note": 28, "vel": 115, "len": 1}, {"step": 6, "note": 28, "vel": 115, "len": 1}, {"step": 7, "note": 28, "vel": 110, "len": 1}]}, {"bar": 6, "events": [{"step": 0, "note": 31, "vel": 120, "len": 1}, {"step": 1, "note": 31, "vel": 110, "len": 1}, {"step": 2, "note": 31, "vel": 115, "len": 1}, {"step": 4, "note": 31, "vel": 115, "len": 1}, {"step": 5, "note": 31, "vel": 110, "len": 1}, {"step": 6, "note": 31, "vel": 115, "len": 1}]}, {"bar": 7, "events": [{"step": 0, "note": 33, "vel": 120, "len": 1}, {"step": 1, "note": 33, "vel": 110, "len": 1}, {"step": 2, "note": 33, "vel": 115, "len": 1}, {"step": 4, "note": 33, "vel": 115, "len": 1}, {"step": 5, "note": 33, "vel": 110, "len": 1}, {"step": 6, "note": 33, "vel": 115, "len": 1}]}, {"bar": 8, "events": [{"step": 0, "note": 36, "vel": 127, "len": 1}, {"step": 1, "note": 36, "vel": 120, "len": 1}, {"step": 2, "note": 36, "vel": 125, "len": 1}, {"step": 4, "note": 36, "vel": 127, "len": 1}, {"step": 5, "note": 35, "vel": 120, "len": 1}, {"step": 6, "note": 33, "vel": 127, "len": 2}]}], "Electric Guitar": [{"bar": 1, "events": [{"step": 0, "note": 52, "vel": 120, "len": 2}, {"step": 0, "note": 59, "vel": 115, "len": 2}, {"step": 2, "note": 52, "vel": 110, "len": 1}, {"step": 2, "note": 59, "vel": 105, "len": 1}, {"step": 3, "note": 52, "vel": 105, "len": 1}, {"step": 3, "note": 59, "vel": 100, "len": 1}, {"step": 4, "note": 52, "vel": 115, "len": 2}, {"step": 4, "note": 59, "vel": 110, "len": 2}, {"step": 6, "note": 52, "vel": 110, "len": 2}, {"step": 6, "note": 59, "vel": 105, "len": 2}]}, {"bar": 2, "events": [{"step": 0, "note": 55, "vel": 120, "len": 2}, {"step": 0, "note": 62, "vel": 115, "len": 2}, {"step": 2, "note": 55, "vel": 110, "len": 1}, {"step": 2, "note": 62, "vel": 105, "len": 1}, {"step": 3, "note": 55, "vel": 100, "len": 1}, {"step": 3, "note": 62, "vel": 95, "len": 1}, {"step": 4, "note": 55, "vel": 115, "len": 2}, {"step": 4, "note": 62, "vel": 110, "len": 2}, {"step": 6, "note": 55, "vel": 115, "len": 2}, {"step": 6, "note": 62, "vel": 110, "len": 2}]}, {"bar": 3, "events": [{"step": 0, "note": 57, "vel": 120, "len": 2}, {"step": 0, "note": 64, "vel": 115, "len": 2}, {"step": 2, "note": 57, "vel": 110, "len": 1}, {"step": 2, "note": 64, "vel": 105, "len": 1}, {"step": 3, "note": 57, "vel": 105, "len": 1}, {"step": 3, "note": 64, "vel": 100, "len": 1}, {"step": 4, "note": 57, "vel": 115, "len": 1}, {"step": 4, "note": 64, "vel": 110, "len": 1}, {"step": 5, "note": 69, "vel": 110, "len": 1}, {"step": 6, "note": 71, "vel": 120, "len": 2}]}, {"bar": 4, "events": [{"step": 0, "note": 60, "vel": 120, "len": 2}, {"step": 0, "note": 67, "vel": 115, "len": 2}, {"step": 2, "note": 60, "vel": 110, "len": 1}, {"step": 2, "note": 67, "vel": 105, "len": 1}, {"step": 4, "note": 59, "vel": 115, "len": 2}, {"step": 4, "note": 66, "vel": 110, "len": 2}, {"step": 6, "note": 57, "vel": 120, "len": 2}, {"step": 6, "note": 64, "vel": 115, "len": 2}]}, {"bar": 5, "events": [{"step": 0, "note": 40, "vel": 127, "len": 1}, {"step": 0, "note": 47, "vel": 120, "len": 1}, {"step": 1, "note": 52, "vel": 110, "len": 1}, {"step": 2, "note": 40, "vel": 120, "len": 1}, {"step": 2, "note": 47, "vel": 115, "len": 1}, {"step": 4, "note": 40, "vel": 120, "len": 1}, {"step": 4, "note": 47, "vel": 115, "len": 1}, {"step": 6, "note": 64, "vel": 125, "len": 1}, {"step": 7, "note": 67, "vel": 120, "len": 1}]}, {"bar": 6, "events": [{"step": 0, "note": 43, "vel": 127, "len": 2}, {"step": 0, "note": 50, "vel": 120, "len": 2}, {"step": 2, "note": 43, "vel": 115, "len": 1}, {"step": 2, "note": 50, "vel": 110, "len": 1}, {"step": 4, "note": 43, "vel": 120, "len": 1}, {"step": 4, "note": 50, "vel": 115, "len": 1}, {"step": 6, "note": 71, "vel": 125, "len": 1}, {"step": 7, "note": 74, "vel": 120, "len": 1}]}, {"bar": 7, "events": [{"step": 0, "note": 45, "vel": 127, "len": 2}, {"step": 0, "note": 52, "vel": 120, "len": 2}, {"step": 2, "note": 45, "vel": 115, "len": 1}, {"step": 2, "note": 52, "vel": 110, "len": 1}, {"step": 4, "note": 76, "vel": 127, "len": 1}, {"step": 5, "note": 79, "vel": 120, "len": 1}, {"step": 6, "note": 74, "vel": 125, "len": 1}, {"step": 7, "note": 71, "vel": 120, "len": 1}]}, {"bar": 8, "events": [{"step": 0, "note": 48, "vel": 127, "len": 1}, {"step": 0, "note": 55, "vel": 120, "len": 1}, {"step": 1, "note": 60, "vel": 127, "len": 1}, {"step": 1, "note": 67, "vel": 120, "len": 1}, {"step": 2, "note": 72, "vel": 127, "len": 1}, {"step": 3, "note": 76, "vel": 127, "len": 1}, {"step": 4, "note": 79, "vel": 127, "len": 2}, {"step": 6, "note": 64, "vel": 127, "len": 2}, {"step": 6, "note": 52, "vel": 127, "len": 2}]}]}, "meta": {"status": "success", "tempo": 130, "key": "E", "scale": "Minor", "style": "Hard Rock", "mood": "Energetic", "meter": "4/4", "dynamic_profile": "High", "arrangement_density": "Dense", "harmonic_color": "Distorted", "length_seconds": 30.0, "bars": 8, "instrument_configs": [{"name": "Kick", "register": "Sub", "role": "Percussion", "articulation": "Percussive", "dynamic_range": "Intense"}, {"name": "Snare", "register": "Mid", "role": "Percussion", "articulation": "Percussive", "dynamic_range": "Intense"}, {"name": "Hat", "register": "High", "role": "Percussion", "articulation": "Percussive", "dynamic_range": "Moderate"}, {"name": "Crash", "register": "Very High", "role": "Percussion", "articulation": "Sustain", "dynamic_range": "Fortissimo"}, {"name": "Bass Guitar", "register": "Low", "role": "Bass", "articulation": "Sustain", "dynamic_range": "Intense"}, {"name": "Electric Guitar", "register": "Full", "role": "Lead", "articulation": "Sustain", "dynamic_range": "Intense"}], "instruments": ["Kick", "Snare", "Hat", "Crash", "Bass Guitar", "Electric Guitar"]}}