{"request": {"project_name": "dsfgtgdrfgdf", "run_id": "0ebf23c21349", "midi": {"pattern": [{"bar": 1, "events": [{"step": 0, "note": 36, "vel": 100, "len": 1}, {"step": 2, "note": 42, "vel": 80, "len": 1}, {"step": 4, "note": 36, "vel": 100, "len": 1}, {"step": 6, "note": 42, "vel": 80, "len": 1}]}, {"bar": 2, "events": [{"step": 0, "note": 36, "vel": 100, "len": 1}, {"step": 2, "note": 42, "vel": 80, "len": 1}, {"step": 4, "note": 38, "vel": 120, "len": 1}, {"step": 6, "note": 42, "vel": 80, "len": 1}]}, {"bar": 3, "events": [{"step": 0, "note": 36, "vel": 100, "len": 1}, {"step": 2, "note": 42, "vel": 80, "len": 1}, {"step": 4, "note": 36, "vel": 100, "len": 1}, {"step": 6, "note": 42, "vel": 80, "len": 1}]}, {"bar": 4, "events": [{"step": 0, "note": 36, "vel": 100, "len": 1}, {"step": 2, "note": 42, "vel": 80, "len": 1}, {"step": 4, "note": 38, "vel": 120, "len": 1}, {"step": 6, "note": 42, "vel": 80, "len": 1}]}, {"bar": 5, "events": [{"step": 0, "note": 36, "vel": 100, "len": 1}, {"step": 2, "note": 42, "vel": 80, "len": 1}, {"step": 4, "note": 36, "vel": 100, "len": 1}, {"step": 6, "note": 42, "vel": 80, "len": 1}]}, {"bar": 6, "events": [{"step": 0, "note": 36, "vel": 100, "len": 1}, {"step": 2, "note": 42, "vel": 80, "len": 1}, {"step": 4, "note": 38, "vel": 120, "len": 1}, {"step": 6, "note": 42, "vel": 80, "len": 1}]}, {"bar": 7, "events": [{"step": 0, "note": 36, "vel": 100, "len": 1}, {"step": 2, "note": 42, "vel": 80, "len": 1}, {"step": 4, "note": 36, "vel": 100, "len": 1}, {"step": 6, "note": 42, "vel": 80, "len": 1}]}, {"bar": 8, "events": [{"step": 0, "note": 36, "vel": 100, "len": 1}, {"step": 2, "note": 42, "vel": 80, "len": 1}, {"step": 4, "note": 38, "vel": 120, "len": 1}, {"step": 6, "note": 42, "vel": 80, "len": 1}]}, {"bar": 9, "events": [{"step": 0, "note": 36, "vel": 100, "len": 1}, {"step": 2, "note": 42, "vel": 80, "len": 1}, {"step": 4, "note": 36, "vel": 100, "len": 1}, {"step": 6, "note": 42, "vel": 80, "len": 1}]}, {"bar": 10, "events": [{"step": 0, "note": 36, "vel": 100, "len": 1}, {"step": 2, "note": 42, "vel": 80, "len": 1}, {"step": 4, "note": 38, "vel": 120, "len": 1}, {"step": 6, "note": 42, "vel": 80, "len": 1}]}, {"bar": 11, "events": [{"step": 0, "note": 36, "vel": 100, "len": 1}, {"step": 2, "note": 42, "vel": 80, "len": 1}, {"step": 4, "note": 36, "vel": 100, "len": 1}, {"step": 6, "note": 42, "vel": 80, "len": 1}]}, {"bar": 12, "events": [{"step": 0, "note": 36, "vel": 100, "len": 1}, {"step": 2, "note": 42, "vel": 80, "len": 1}, {"step": 4, "note": 38, "vel": 120, "len": 1}, {"step": 6, "note": 42, "vel": 80, "len": 1}]}, {"bar": 13, "events": [{"step": 0, "note": 36, "vel": 100, "len": 1}, {"step": 2, "note": 42, "vel": 80, "len": 1}, {"step": 4, "note": 36, "vel": 100, "len": 1}, {"step": 6, "note": 42, "vel": 80, "len": 1}]}, {"bar": 14, "events": [{"step": 0, "note": 36, "vel": 100, "len": 1}, {"step": 2, "note": 42, "vel": 80, "len": 1}, {"step": 4, "note": 38, "vel": 120, "len": 1}, {"step": 6, "note": 42, "vel": 80, "len": 1}]}, {"bar": 15, "events": [{"step": 0, "note": 36, "vel": 100, "len": 1}, {"step": 2, "note": 42, "vel": 80, "len": 1}, {"step": 4, "note": 36, "vel": 100, "len": 1}, {"step": 6, "note": 42, "vel": 80, "len": 1}]}, {"bar": 16, "events": [{"step": 0, "note": 36, "vel": 100, "len": 1}, {"step": 2, "note": 42, "vel": 80, "len": 1}, {"step": 4, "note": 38, "vel": 120, "len": 1}, {"step": 6, "note": 42, "vel": 80, "len": 1}]}], "layers": {"Drums": [{"bar": 1, "events": [{"step": 1, "note": 44, "vel": 60, "len": 1}, {"step": 3, "note": 44, "vel": 60, "len": 1}, {"step": 5, "note": 44, "vel": 60, "len": 1}, {"step": 7, "note": 44, "vel": 60, "len": 1}]}, {"bar": 2, "events": [{"step": 1, "note": 44, "vel": 60, "len": 1}, {"step": 3, "note": 44, "vel": 60, "len": 1}, {"step": 5, "note": 44, "vel": 60, "len": 1}, {"step": 7, "note": 44, "vel": 60, "len": 1}]}, {"bar": 3, "events": [{"step": 1, "note": 44, "vel": 60, "len": 1}, {"step": 3, "note": 44, "vel": 60, "len": 1}, {"step": 5, "note": 44, "vel": 60, "len": 1}, {"step": 7, "note": 44, "vel": 60, "len": 1}]}, {"bar": 4, "events": [{"step": 1, "note": 44, "vel": 60, "len": 1}, {"step": 3, "note": 44, "vel": 60, "len": 1}, {"step": 5, "note": 44, "vel": 60, "len": 1}, {"step": 7, "note": 44, "vel": 60, "len": 1}]}, {"bar": 5, "events": [{"step": 1, "note": 44, "vel": 60, "len": 1}, {"step": 3, "note": 44, "vel": 60, "len": 1}, {"step": 5, "note": 44, "vel": 60, "len": 1}, {"step": 7, "note": 44, "vel": 60, "len": 1}]}, {"bar": 6, "events": [{"step": 1, "note": 44, "vel": 60, "len": 1}, {"step": 3, "note": 44, "vel": 60, "len": 1}, {"step": 5, "note": 44, "vel": 60, "len": 1}, {"step": 7, "note": 44, "vel": 60, "len": 1}]}, {"bar": 7, "events": [{"step": 1, "note": 44, "vel": 60, "len": 1}, {"step": 3, "note": 44, "vel": 60, "len": 1}, {"step": 5, "note": 44, "vel": 60, "len": 1}, {"step": 7, "note": 44, "vel": 60, "len": 1}]}, {"bar": 8, "events": [{"step": 1, "note": 44, "vel": 60, "len": 1}, {"step": 3, "note": 44, "vel": 60, "len": 1}, {"step": 5, "note": 44, "vel": 60, "len": 1}, {"step": 7, "note": 44, "vel": 60, "len": 1}]}, {"bar": 9, "events": [{"step": 1, "note": 44, "vel": 60, "len": 1}, {"step": 3, "note": 44, "vel": 60, "len": 1}, {"step": 5, "note": 44, "vel": 60, "len": 1}, {"step": 7, "note": 44, "vel": 60, "len": 1}]}, {"bar": 10, "events": [{"step": 1, "note": 44, "vel": 60, "len": 1}, {"step": 3, "note": 44, "vel": 60, "len": 1}, {"step": 5, "note": 44, "vel": 60, "len": 1}, {"step": 7, "note": 44, "vel": 60, "len": 1}]}, {"bar": 11, "events": [{"step": 1, "note": 44, "vel": 60, "len": 1}, {"step": 3, "note": 44, "vel": 60, "len": 1}, {"step": 5, "note": 44, "vel": 60, "len": 1}, {"step": 7, "note": 44, "vel": 60, "len": 1}]}, {"bar": 12, "events": [{"step": 1, "note": 44, "vel": 60, "len": 1}, {"step": 3, "note": 44, "vel": 60, "len": 1}, {"step": 5, "note": 44, "vel": 60, "len": 1}, {"step": 7, "note": 44, "vel": 60, "len": 1}]}, {"bar": 13, "events": [{"step": 1, "note": 44, "vel": 60, "len": 1}, {"step": 3, "note": 44, "vel": 60, "len": 1}, {"step": 5, "note": 44, "vel": 60, "len": 1}, {"step": 7, "note": 44, "vel": 60, "len": 1}]}, {"bar": 14, "events": [{"step": 1, "note": 44, "vel": 60, "len": 1}, {"step": 3, "note": 44, "vel": 60, "len": 1}, {"step": 5, "note": 44, "vel": 60, "len": 1}, {"step": 7, "note": 44, "vel": 60, "len": 1}]}, {"bar": 15, "events": [{"step": 1, "note": 44, "vel": 60, "len": 1}, {"step": 3, "note": 44, "vel": 60, "len": 1}, {"step": 5, "note": 44, "vel": 60, "len": 1}, {"step": 7, "note": 44, "vel": 60, "len": 1}]}, {"bar": 16, "events": [{"step": 1, "note": 44, "vel": 60, "len": 1}, {"step": 3, "note": 44, "vel": 60, "len": 1}, {"step": 5, "note": 44, "vel": 60, "len": 1}, {"step": 7, "note": 44, "vel": 60, "len": 1}]}], "meta": {}}, "meta": {"tempo": 128, "key": "C Major", "scale": "Major", "style": "Electronic", "mood": "Energetic", "meter": "4/4", "dynamic_profile": "High-Energy", "arrangement_density": "Medium", "harmonic_color": "Bright", "length_seconds": 120, "bars": 16, "instrument_configs": [{"name": "Piano", "register": "High", "role": "Lead", "articulation": "Staccato", "dynamic_range": "Intense"}, {"name": "Electric Guitar", "register": "Mid", "role": "Accompaniment", "articulation": "Legato", "dynamic_range": "Moderate"}, {"name": "Bass Guitar", "register": "Low", "role": "Bass", "articulation": "Sustain", "dynamic_range": "Delicate"}, {"name": "Drums", "register": "Full", "role": "Percussion", "articulation": "Percussive", "dynamic_range": "Intense"}], "instruments": ["Piano", "Electric Guitar", "Bass Guitar", "Drums"]}}, "midi_per_instrument": null, "tracks": [{"instrument": "Piano", "enabled": true, "volume_db": 0.0, "pan": 0.0}, {"instrument": "Electric Guitar", "enabled": true, "volume_db": -3.0, "pan": 0.0}, {"instrument": "Bass Guitar", "enabled": true, "volume_db": -3.0, "pan": 0.0}, {"instrument": "Drums", "enabled": true, "volume_db": -3.0, "pan": 0.0}], "selected_samples": {"Drums": "Drums/Kits/Drum Kit 06/FLS_Kick 06.wav", "Bass Guitar": "Instruments/Guitar/Bass/FLStudio Bass 02/18 DEEPER PURPLE_PLUCK E2ogg.wav", "Electric Guitar": "Instruments/Guitar/Guitar/Electric Guitar 01/26 DARK STAR METAL_G4OGG.wav", "Piano": "Instruments/Piano/Piano 2/Gz_D3ogg.wav"}, "fadeout_seconds": 0.01}, "response": {"project_name": "dsfgtgdrfgdf2", "run_id": "0ebf23c21349", "mix_wav_rel": "output\\0ebf23c21349\\dsfgtgdrfgdf_mix_1764874426.wav", "stems": [{"instrument": "Piano", "audio_rel": "output\\0ebf23c21349\\dsfgtgdrfgdf_Piano_1764874426.wav"}, {"instrument": "Electric Guitar", "audio_rel": "output\\0ebf23c21349\\dsfgtgdrfgdf_Electric Guitar_1764874426.wav"}, {"instrument": "Bass Guitar", "audio_rel": "output\\0ebf23c21349\\dsfgtgdrfgdf_Bass Guitar_1764874426.wav"}], "sample_rate": 44100, "duration_seconds": 120.0}}