{"meta": {"style": "Hard Rock", "tempo": 128, "bars": 16, "resolution": 8, "key": "E", "scale": "Minor Pentatonic", "mood": "Energetic", "meter": "4/4", "dynamic_profile": "Crescendo", "arrangement_density": "Focused", "harmonic_color": "Distorted", "length_seconds": 30.0, "instrument_configs": [{"name": "Electric Guitar", "register": "Mid", "role": "Accompaniment", "articulation": "Sustain", "dynamic_range": "Moderate"}, {"name": "Bass Guitar", "register": "Low", "role": "Bass", "articulation": "Sustain", "dynamic_range": "Consistent"}, {"name": "Kick", "register": "Low", "role": "Percussion", "articulation": "Percussive", "dynamic_range": "High"}, {"name": "Snare", "register": "Mid", "role": "Percussion", "articulation": "Percussive", "dynamic_range": "High"}, {"name": "Hat", "register": "High", "role": "Percussion", "articulation": "Percussive", "dynamic_range": "Moderate"}, {"name": "Crash", "register": "High", "role": "Percussion", "articulation": "Percussive", "dynamic_range": "High"}, {"name": "Ride", "register": "High", "role": "Percussion", "articulation": "Percussive", "dynamic_range": "Moderate"}], "instruments": ["Electric Guitar", "Bass Guitar", "Kick", "Snare", "Hat", "Crash", "Ride"], "instrument": "Kick"}, "layers": {"Kick": [{"bar": 1, "events": [{"step": 0, "note": 36, "vel": 85, "len": 1}, {"step": 4, "note": 36, "vel": 85, "len": 1}]}, {"bar": 2, "events": [{"step": 0, "note": 36, "vel": 85, "len": 1}, {"step": 4, "note": 36, "vel": 85, "len": 1}]}, {"bar": 3, "events": [{"step": 0, "note": 36, "vel": 85, "len": 1}, {"step": 4, "note": 36, "vel": 85, "len": 1}]}, {"bar": 4, "events": [{"step": 0, "note": 36, "vel": 85, "len": 1}, {"step": 7, "note": 36, "vel": 90, "len": 1}]}, {"bar": 5, "events": [{"step": 0, "note": 36, "vel": 100, "len": 1}, {"step": 3, "note": 36, "vel": 95, "len": 1}, {"step": 4, "note": 36, "vel": 100, "len": 1}]}, {"bar": 6, "events": [{"step": 0, "note": 36, "vel": 100, "len": 1}, {"step": 3, "note": 36, "vel": 95, "len": 1}, {"step": 4, "note": 36, "vel": 100, "len": 1}]}, {"bar": 7, "events": [{"step": 0, "note": 36, "vel": 100, "len": 1}, {"step": 3, "note": 36, "vel": 95, "len": 1}, {"step": 4, "note": 36, "vel": 100, "len": 1}]}, {"bar": 8, "events": [{"step": 0, "note": 36, "vel": 100, "len": 1}, {"step": 4, "note": 36, "vel": 100, "len": 1}]}, {"bar": 9, "events": [{"step": 0, "note": 36, "vel": 115, "len": 1}, {"step": 3, "note": 36, "vel": 110, "len": 1}, {"step": 4, "note": 36, "vel": 115, "len": 1}]}, {"bar": 10, "events": [{"step": 0, "note": 36, "vel": 115, "len": 1}, {"step": 3, "note": 36, "vel": 110, "len": 1}, {"step": 4, "note": 36, "vel": 115, "len": 1}]}, {"bar": 11, "events": [{"step": 0, "note": 36, "vel": 115, "len": 1}, {"step": 3, "note": 36, "vel": 110, "len": 1}, {"step": 4, "note": 36, "vel": 115, "len": 1}]}, {"bar": 12, "events": [{"step": 0, "note": 36, "vel": 115, "len": 1}, {"step": 4, "note": 36, "vel": 115, "len": 1}, {"step": 5, "note": 36, "vel": 110, "len": 1}]}, {"bar": 13, "events": [{"step": 0, "note": 36, "vel": 120, "len": 1}, {"step": 3, "note": 36, "vel": 115, "len": 1}, {"step": 4, "note": 36, "vel": 120, "len": 1}]}, {"bar": 14, "events": [{"step": 0, "note": 36, "vel": 120, "len": 1}, {"step": 3, "note": 36, "vel": 115, "len": 1}, {"step": 4, "note": 36, "vel": 120, "len": 1}]}, {"bar": 15, "events": [{"step": 0, "note": 36, "vel": 120, "len": 1}, {"step": 3, "note": 36, "vel": 115, "len": 1}, {"step": 4, "note": 36, "vel": 120, "len": 1}]}, {"bar": 16, "events": [{"step": 0, "note": 36, "vel": 127, "len": 1}, {"step": 2, "note": 36, "vel": 120, "len": 1}, {"step": 4, "note": 36, "vel": 127, "len": 1}]}]}, "pattern": [{"bar": 1, "events": [{"step": 0, "note": 36, "vel": 85, "len": 1}, {"step": 4, "note": 36, "vel": 85, "len": 1}]}, {"bar": 2, "events": [{"step": 0, "note": 36, "vel": 85, "len": 1}, {"step": 4, "note": 36, "vel": 85, "len": 1}]}, {"bar": 3, "events": [{"step": 0, "note": 36, "vel": 85, "len": 1}, {"step": 4, "note": 36, "vel": 85, "len": 1}]}, {"bar": 4, "events": [{"step": 0, "note": 36, "vel": 85, "len": 1}, {"step": 7, "note": 36, "vel": 90, "len": 1}]}, {"bar": 5, "events": [{"step": 0, "note": 36, "vel": 100, "len": 1}, {"step": 3, "note": 36, "vel": 95, "len": 1}, {"step": 4, "note": 36, "vel": 100, "len": 1}]}, {"bar": 6, "events": [{"step": 0, "note": 36, "vel": 100, "len": 1}, {"step": 3, "note": 36, "vel": 95, "len": 1}, {"step": 4, "note": 36, "vel": 100, "len": 1}]}, {"bar": 7, "events": [{"step": 0, "note": 36, "vel": 100, "len": 1}, {"step": 3, "note": 36, "vel": 95, "len": 1}, {"step": 4, "note": 36, "vel": 100, "len": 1}]}, {"bar": 8, "events": [{"step": 0, "note": 36, "vel": 100, "len": 1}, {"step": 4, "note": 36, "vel": 100, "len": 1}]}, {"bar": 9, "events": [{"step": 0, "note": 36, "vel": 115, "len": 1}, {"step": 3, "note": 36, "vel": 110, "len": 1}, {"step": 4, "note": 36, "vel": 115, "len": 1}]}, {"bar": 10, "events": [{"step": 0, "note": 36, "vel": 115, "len": 1}, {"step": 3, "note": 36, "vel": 110, "len": 1}, {"step": 4, "note": 36, "vel": 115, "len": 1}]}, {"bar": 11, "events": [{"step": 0, "note": 36, "vel": 115, "len": 1}, {"step": 3, "note": 36, "vel": 110, "len": 1}, {"step": 4, "note": 36, "vel": 115, "len": 1}]}, {"bar": 12, "events": [{"step": 0, "note": 36, "vel": 115, "len": 1}, {"step": 4, "note": 36, "vel": 115, "len": 1}, {"step": 5, "note": 36, "vel": 110, "len": 1}]}, {"bar": 13, "events": [{"step": 0, "note": 36, "vel": 120, "len": 1}, {"step": 3, "note": 36, "vel": 115, "len": 1}, {"step": 4, "note": 36, "vel": 120, "len": 1}]}, {"bar": 14, "events": [{"step": 0, "note": 36, "vel": 120, "len": 1}, {"step": 3, "note": 36, "vel": 115, "len": 1}, {"step": 4, "note": 36, "vel": 120, "len": 1}]}, {"bar": 15, "events": [{"step": 0, "note": 36, "vel": 120, "len": 1}, {"step": 3, "note": 36, "vel": 115, "len": 1}, {"step": 4, "note": 36, "vel": 120, "len": 1}]}, {"bar": 16, "events": [{"step": 0, "note": 36, "vel": 127, "len": 1}, {"step": 2, "note": 36, "vel": 120, "len": 1}, {"step": 4, "note": 36, "vel": 127, "len": 1}]}]}