{"meta": {"style": "Hard Rock", "tempo": 128, "bars": 16, "resolution": 8, "key": "E", "scale": "Minor Pentatonic", "mood": "Energetic", "meter": "4/4", "dynamic_profile": "Crescendo", "arrangement_density": "Focused", "harmonic_color": "Distorted", "length_seconds": 30.0, "instrument_configs": [{"name": "Electric Guitar", "register": "Mid", "role": "Accompaniment", "articulation": "Sustain", "dynamic_range": "Moderate"}, {"name": "Bass Guitar", "register": "Low", "role": "Bass", "articulation": "Sustain", "dynamic_range": "Consistent"}, {"name": "Kick", "register": "Low", "role": "Percussion", "articulation": "Percussive", "dynamic_range": "High"}, {"name": "Snare", "register": "Mid", "role": "Percussion", "articulation": "Percussive", "dynamic_range": "High"}, {"name": "Hat", "register": "High", "role": "Percussion", "articulation": "Percussive", "dynamic_range": "Moderate"}, {"name": "Crash", "register": "High", "role": "Percussion", "articulation": "Percussive", "dynamic_range": "High"}, {"name": "Ride", "register": "High", "role": "Percussion", "articulation": "Percussive", "dynamic_range": "Moderate"}], "instruments": ["Electric Guitar", "Bass Guitar", "Kick", "Snare", "Hat", "Crash", "Ride"], "instrument": "Hat"}, "layers": {"Hat": [{"bar": 1, "events": [{"step": 0, "note": 42, "vel": 70, "len": 1}, {"step": 1, "note": 42, "vel": 60, "len": 1}, {"step": 2, "note": 42, "vel": 70, "len": 1}, {"step": 3, "note": 42, "vel": 60, "len": 1}, {"step": 4, "note": 42, "vel": 70, "len": 1}, {"step": 5, "note": 42, "vel": 60, "len": 1}, {"step": 6, "note": 42, "vel": 70, "len": 1}, {"step": 7, "note": 42, "vel": 60, "len": 1}]}, {"bar": 2, "events": [{"step": 0, "note": 42, "vel": 70, "len": 1}, {"step": 1, "note": 42, "vel": 60, "len": 1}, {"step": 2, "note": 42, "vel": 70, "len": 1}, {"step": 3, "note": 42, "vel": 60, "len": 1}, {"step": 4, "note": 42, "vel": 70, "len": 1}, {"step": 5, "note": 42, "vel": 60, "len": 1}, {"step": 6, "note": 42, "vel": 70, "len": 1}, {"step": 7, "note": 42, "vel": 60, "len": 1}]}, {"bar": 3, "events": [{"step": 0, "note": 42, "vel": 70, "len": 1}, {"step": 1, "note": 42, "vel": 60, "len": 1}, {"step": 2, "note": 42, "vel": 70, "len": 1}, {"step": 3, "note": 42, "vel": 60, "len": 1}, {"step": 4, "note": 42, "vel": 70, "len": 1}, {"step": 5, "note": 42, "vel": 60, "len": 1}, {"step": 6, "note": 42, "vel": 70, "len": 1}, {"step": 7, "note": 42, "vel": 60, "len": 1}]}, {"bar": 4, "events": [{"step": 0, "note": 42, "vel": 70, "len": 1}, {"step": 1, "note": 42, "vel": 60, "len": 1}, {"step": 2, "note": 42, "vel": 70, "len": 1}, {"step": 3, "note": 42, "vel": 60, "len": 1}, {"step": 4, "note": 46, "vel": 85, "len": 1}]}, {"bar": 5, "events": [{"step": 0, "note": 42, "vel": 80, "len": 1}, {"step": 1, "note": 42, "vel": 70, "len": 1}, {"step": 2, "note": 46, "vel": 90, "len": 1}, {"step": 3, "note": 42, "vel": 70, "len": 1}, {"step": 4, "note": 42, "vel": 80, "len": 1}, {"step": 5, "note": 42, "vel": 70, "len": 1}, {"step": 6, "note": 46, "vel": 90, "len": 1}, {"step": 7, "note": 42, "vel": 70, "len": 1}]}, {"bar": 6, "events": [{"step": 0, "note": 42, "vel": 80, "len": 1}, {"step": 1, "note": 42, "vel": 70, "len": 1}, {"step": 2, "note": 46, "vel": 90, "len": 1}, {"step": 3, "note": 42, "vel": 70, "len": 1}, {"step": 4, "note": 42, "vel": 80, "len": 1}, {"step": 5, "note": 42, "vel": 70, "len": 1}, {"step": 6, "note": 46, "vel": 90, "len": 1}, {"step": 7, "note": 42, "vel": 70, "len": 1}]}, {"bar": 7, "events": [{"step": 0, "note": 42, "vel": 80, "len": 1}, {"step": 1, "note": 42, "vel": 70, "len": 1}, {"step": 2, "note": 46, "vel": 90, "len": 1}, {"step": 3, "note": 42, "vel": 70, "len": 1}, {"step": 4, "note": 42, "vel": 80, "len": 1}, {"step": 5, "note": 42, "vel": 70, "len": 1}, {"step": 6, "note": 46, "vel": 90, "len": 1}, {"step": 7, "note": 42, "vel": 70, "len": 1}]}, {"bar": 8, "events": [{"step": 0, "note": 46, "vel": 95, "len": 1}, {"step": 2, "note": 46, "vel": 95, "len": 1}, {"step": 4, "note": 46, "vel": 95, "len": 1}, {"step": 6, "note": 46, "vel": 95, "len": 1}]}]}, "pattern": [{"bar": 1, "events": [{"step": 0, "note": 42, "vel": 70, "len": 1}, {"step": 1, "note": 42, "vel": 60, "len": 1}, {"step": 2, "note": 42, "vel": 70, "len": 1}, {"step": 3, "note": 42, "vel": 60, "len": 1}, {"step": 4, "note": 42, "vel": 70, "len": 1}, {"step": 5, "note": 42, "vel": 60, "len": 1}, {"step": 6, "note": 42, "vel": 70, "len": 1}, {"step": 7, "note": 42, "vel": 60, "len": 1}]}, {"bar": 2, "events": [{"step": 0, "note": 42, "vel": 70, "len": 1}, {"step": 1, "note": 42, "vel": 60, "len": 1}, {"step": 2, "note": 42, "vel": 70, "len": 1}, {"step": 3, "note": 42, "vel": 60, "len": 1}, {"step": 4, "note": 42, "vel": 70, "len": 1}, {"step": 5, "note": 42, "vel": 60, "len": 1}, {"step": 6, "note": 42, "vel": 70, "len": 1}, {"step": 7, "note": 42, "vel": 60, "len": 1}]}, {"bar": 3, "events": [{"step": 0, "note": 42, "vel": 70, "len": 1}, {"step": 1, "note": 42, "vel": 60, "len": 1}, {"step": 2, "note": 42, "vel": 70, "len": 1}, {"step": 3, "note": 42, "vel": 60, "len": 1}, {"step": 4, "note": 42, "vel": 70, "len": 1}, {"step": 5, "note": 42, "vel": 60, "len": 1}, {"step": 6, "note": 42, "vel": 70, "len": 1}, {"step": 7, "note": 42, "vel": 60, "len": 1}]}, {"bar": 4, "events": [{"step": 0, "note": 42, "vel": 70, "len": 1}, {"step": 1, "note": 42, "vel": 60, "len": 1}, {"step": 2, "note": 42, "vel": 70, "len": 1}, {"step": 3, "note": 42, "vel": 60, "len": 1}, {"step": 4, "note": 46, "vel": 85, "len": 1}]}, {"bar": 5, "events": [{"step": 0, "note": 42, "vel": 80, "len": 1}, {"step": 1, "note": 42, "vel": 70, "len": 1}, {"step": 2, "note": 46, "vel": 90, "len": 1}, {"step": 3, "note": 42, "vel": 70, "len": 1}, {"step": 4, "note": 42, "vel": 80, "len": 1}, {"step": 5, "note": 42, "vel": 70, "len": 1}, {"step": 6, "note": 46, "vel": 90, "len": 1}, {"step": 7, "note": 42, "vel": 70, "len": 1}]}, {"bar": 6, "events": [{"step": 0, "note": 42, "vel": 80, "len": 1}, {"step": 1, "note": 42, "vel": 70, "len": 1}, {"step": 2, "note": 46, "vel": 90, "len": 1}, {"step": 3, "note": 42, "vel": 70, "len": 1}, {"step": 4, "note": 42, "vel": 80, "len": 1}, {"step": 5, "note": 42, "vel": 70, "len": 1}, {"step": 6, "note": 46, "vel": 90, "len": 1}, {"step": 7, "note": 42, "vel": 70, "len": 1}]}, {"bar": 7, "events": [{"step": 0, "note": 42, "vel": 80, "len": 1}, {"step": 1, "note": 42, "vel": 70, "len": 1}, {"step": 2, "note": 46, "vel": 90, "len": 1}, {"step": 3, "note": 42, "vel": 70, "len": 1}, {"step": 4, "note": 42, "vel": 80, "len": 1}, {"step": 5, "note": 42, "vel": 70, "len": 1}, {"step": 6, "note": 46, "vel": 90, "len": 1}, {"step": 7, "note": 42, "vel": 70, "len": 1}]}, {"bar": 8, "events": [{"step": 0, "note": 46, "vel": 95, "len": 1}, {"step": 2, "note": 46, "vel": 95, "len": 1}, {"step": 4, "note": 46, "vel": 95, "len": 1}, {"step": 6, "note": 46, "vel": 95, "len": 1}]}]}