{"request": {"project_name": "rock_alt", "run_id": "f398a32ce921", "user_id": 2, "midi": {"pattern": [{"bar": 1, "events": [{"step": 0, "note": 36, "vel": 115, "len": 1}, {"step": 0, "note": 49, "vel": 110, "len": 2}, {"step": 0, "note": 42, "vel": 90, "len": 1}, {"step": 1, "note": 42, "vel": 70, "len": 1}, {"step": 2, "note": 38, "vel": 120, "len": 1}, {"step": 2, "note": 42, "vel": 90, "len": 1}, {"step": 3, "note": 42, "vel": 70, "len": 1}, {"step": 3, "note": 36, "vel": 100, "len": 1}, {"step": 4, "note": 42, "vel": 90, "len": 1}, {"step": 5, "note": 36, "vel": 110, "len": 1}, {"step": 5, "note": 42, "vel": 70, "len": 1}, {"step": 6, "note": 38, "vel": 120, "len": 1}, {"step": 6, "note": 42, "vel": 90, "len": 1}, {"step": 7, "note": 42, "vel": 70, "len": 1}]}, {"bar": 2, "events": [{"step": 0, "note": 36, "vel": 115, "len": 1}, {"step": 0, "note": 42, "vel": 90, "len": 1}, {"step": 1, "note": 42, "vel": 70, "len": 1}, {"step": 2, "note": 38, "vel": 120, "len": 1}, {"step": 2, "note": 42, "vel": 90, "len": 1}, {"step": 3, "note": 36, "vel": 100, "len": 1}, {"step": 3, "note": 42, "vel": 70, "len": 1}, {"step": 4, "note": 36, "vel": 105, "len": 1}, {"step": 4, "note": 42, "vel": 90, "len": 1}, {"step": 5, "note": 36, "vel": 100, "len": 1}, {"step": 5, "note": 46, "vel": 85, "len": 1}, {"step": 6, "note": 38, "vel": 120, "len": 1}, {"step": 6, "note": 42, "vel": 90, "len": 1}, {"step": 7, "note": 42, "vel": 70, "len": 1}]}, {"bar": 3, "events": [{"step": 0, "note": 36, "vel": 120, "len": 1}, {"step": 0, "note": 49, "vel": 115, "len": 2}, {"step": 1, "note": 42, "vel": 80, "len": 1}, {"step": 2, "note": 38, "vel": 122, "len": 1}, {"step": 3, "note": 36, "vel": 105, "len": 1}, {"step": 3, "note": 42, "vel": 75, "len": 1}, {"step": 4, "note": 42, "vel": 95, "len": 1}, {"step": 5, "note": 36, "vel": 110, "len": 1}, {"step": 5, "note": 42, "vel": 75, "len": 1}, {"step": 6, "note": 38, "vel": 120, "len": 1}, {"step": 6, "note": 42, "vel": 95, "len": 1}, {"step": 7, "note": 42, "vel": 75, "len": 1}]}, {"bar": 4, "events": [{"step": 0, "note": 36, "vel": 115, "len": 1}, {"step": 0, "note": 42, "vel": 95, "len": 1}, {"step": 1, "note": 36, "vel": 100, "len": 1}, {"step": 2, "note": 38, "vel": 125, "len": 1}, {"step": 2, "note": 46, "vel": 100, "len": 1}, {"step": 3, "note": 36, "vel": 100, "len": 1}, {"step": 4, "note": 49, "vel": 110, "len": 1}, {"step": 4, "note": 36, "vel": 110, "len": 1}, {"step": 5, "note": 36, "vel": 100, "len": 1}, {"step": 6, "note": 38, "vel": 125, "len": 1}, {"step": 6, "note": 46, "vel": 100, "len": 1}, {"step": 7, "note": 38, "vel": 90, "len": 1}]}], "layers": {"Bass Guitar": [{"bar": 1, "events": [{"step": 0, "note": 40, "vel": 115, "len": 1}, {"step": 1, "note": 40, "vel": 90, "len": 1}, {"step": 2, "note": 40, "vel": 100, "len": 1}, {"step": 3, "note": 40, "vel": 90, "len": 1}, {"step": 4, "note": 40, "vel": 110, "len": 1}, {"step": 5, "note": 40, "vel": 95, "len": 1}, {"step": 6, "note": 40, "vel": 100, "len": 1}, {"step": 7, "note": 43, "vel": 105, "len": 1}]}, {"bar": 2, "events": [{"step": 0, "note": 40, "vel": 115, "len": 1}, {"step": 1, "note": 40, "vel": 90, "len": 1}, {"step": 2, "note": 40, "vel": 100, "len": 1}, {"step": 3, "note": 40, "vel": 90, "len": 1}, {"step": 4, "note": 45, "vel": 110, "len": 1}, {"step": 5, "note": 45, "vel": 95, "len": 1}, {"step": 6, "note": 45, "vel": 100, "len": 1}, {"step": 7, "note": 47, "vel": 105, "len": 1}]}, {"bar": 3, "events": [{"step": 0, "note": 48, "vel": 120, "len": 1}, {"step": 1, "note": 48, "vel": 95, "len": 1}, {"step": 2, "note": 48, "vel": 105, "len": 1}, {"step": 3, "note": 48, "vel": 95, "len": 1}, {"step": 4, "note": 48, "vel": 110, "len": 1}, {"step": 5, "note": 48, "vel": 100, "len": 1}, {"step": 6, "note": 48, "vel": 105, "len": 1}, {"step": 7, "note": 50, "vel": 110, "len": 1}]}, {"bar": 4, "events": [{"step": 0, "note": 50, "vel": 115, "len": 1}, {"step": 1, "note": 50, "vel": 95, "len": 1}, {"step": 2, "note": 50, "vel": 105, "len": 1}, {"step": 3, "note": 47, "vel": 100, "len": 1}, {"step": 4, "note": 47, "vel": 110, "len": 1}, {"step": 5, "note": 47, "vel": 100, "len": 1}, {"step": 6, "note": 45, "vel": 105, "len": 1}, {"step": 7, "note": 43, "vel": 100, "len": 1}]}], "Electric Guitar": [{"bar": 1, "events": [{"step": 0, "note": 52, "vel": 110, "len": 2}, {"step": 0, "note": 59, "vel": 105, "len": 2}, {"step": 2, "note": 52, "vel": 90, "len": 1}, {"step": 3, "note": 52, "vel": 85, "len": 1}, {"step": 4, "note": 55, "vel": 115, "len": 2}, {"step": 4, "note": 62, "vel": 110, "len": 2}, {"step": 6, "note": 57, "vel": 110, "len": 2}, {"step": 6, "note": 64, "vel": 105, "len": 2}]}, {"bar": 2, "events": [{"step": 0, "note": 52, "vel": 110, "len": 2}, {"step": 0, "note": 59, "vel": 105, "len": 2}, {"step": 2, "note": 55, "vel": 100, "len": 1}, {"step": 3, "note": 57, "vel": 100, "len": 1}, {"step": 4, "note": 52, "vel": 115, "len": 2}, {"step": 4, "note": 64, "vel": 110, "len": 2}, {"step": 6, "note": 52, "vel": 90, "len": 1}, {"step": 7, "note": 50, "vel": 85, "len": 1}]}, {"bar": 3, "events": [{"step": 0, "note": 60, "vel": 115, "len": 4}, {"step": 0, "note": 67, "vel": 110, "len": 4}, {"step": 0, "note": 72, "vel": 105, "len": 4}, {"step": 4, "note": 60, "vel": 100, "len": 2}, {"step": 4, "note": 67, "vel": 95, "len": 2}, {"step": 6, "note": 60, "vel": 90, "len": 2}]}, {"bar": 4, "events": [{"step": 0, "note": 62, "vel": 115, "len": 2}, {"step": 0, "note": 69, "vel": 110, "len": 2}, {"step": 2, "note": 62, "vel": 100, "len": 1}, {"step": 3, "note": 64, "vel": 105, "len": 1}, {"step": 4, "note": 59, "vel": 112, "len": 2}, {"step": 4, "note": 66, "vel": 108, "len": 2}, {"step": 6, "note": 55, "vel": 100, "len": 1}, {"step": 7, "note": 52, "vel": 95, "len": 1}]}]}, "meta": {"status": "success", "tempo": 125, "key": "E", "scale": "Minor", "style": "Alternative Rock", "mood": "Energetic", "meter": "4/4", "dynamic_profile": "High Contrast", "arrangement_density": "Dense", "harmonic_color": "Distorted", "length_seconds": 165, "bars": 86, "instrument_configs": [{"name": "Electric Guitar", "register": "High", "role": "Lead", "articulation": "Legato", "dynamic_range": "Intense"}, {"name": "Bass Guitar", "register": "Low", "role": "Bass", "articulation": "Pizzicato", "dynamic_range": "Moderate"}, {"name": "Kick", "register": "Sub", "role": "Percussion", "articulation": "Percussive", "dynamic_range": "Intense"}, {"name": "Snare", "register": "Mid", "role": "Percussion", "articulation": "Percussive", "dynamic_range": "Intense"}, {"name": "Hat", "register": "High", "role": "Percussion", "articulation": "Percussive", "dynamic_range": "Moderate"}, {"name": "Crash", "register": "Very High", "role": "Percussion", "articulation": "Sustain", "dynamic_range": "Fortissimo"}, {"name": "Ride", "register": "High", "role": "Percussion", "articulation": "Sustain", "dynamic_range": "Moderate"}, {"name": "Tom", "register": "Low", "role": "Percussion", "articulation": "Percussive", "dynamic_range": "Intense"}], "instruments": ["Electric Guitar", "Bass Guitar", "Kick", "Snare", "Hat", "Crash", "Ride", "Tom"]}}, "midi_per_instrument": null, "tracks": [{"instrument": "Electric Guitar", "enabled": true, "volume_db": 0.0, "pan": 0.0}, {"instrument": "Bass Guitar", "enabled": true, "volume_db": -3.0, "pan": 0.0}, {"instrument": "Kick", "enabled": true, "volume_db": -3.0, "pan": 0.0}, {"instrument": "Snare", "enabled": true, "volume_db": -3.0, "pan": 0.0}, {"instrument": "Hat", "enabled": true, "volume_db": -3.0, "pan": 0.0}, {"instrument": "Crash", "enabled": true, "volume_db": -3.0, "pan": 0.0}, {"instrument": "Ride", "enabled": true, "volume_db": -3.0, "pan": 0.0}, {"instrument": "Tom", "enabled": true, "volume_db": -3.0, "pan": 0.0}], "selected_samples": {"Tom": "Drums/RealDrumkits/RD_Tom_6.wav", "Ride": "Drums/Kits/Drum Kit 02/FLS Ride 02a.wav", "Crash": "Drums/Kits/Drum Kit 02/FLS Crash 02a.wav", "Hat": "Drums/Dance/DNC_Hat_2.wav", "Snare": "Drums/Kits/Drum Kit 03/Overhead Snare B R_003ogg.wav", "Kick": "Drums/Kits/Drum Kit 03/OverH_Kick_002dogg.wav", "Bass Guitar": "Instruments/Guitar/Bass/FLStudio Bass 02/07 DEEPER PURPLE_PLUCK F1ogg.wav", "Electric Guitar": "Instruments/Guitar/Guitar/Electric Guitar 01/03 DARK STAR METAL_F#2OGG.wav"}, "fadeout_seconds": 0.01}, "response": {"project_name": "rock_alt", "run_id": "f398a32ce921", "mix_wav_rel": "output\\f398a32ce921\\rock_alt_mix_1766686080.wav", "stems": [{"instrument": "Electric Guitar", "audio_rel": "output\\f398a32ce921\\rock_alt_Electric Guitar_1766686080.wav"}, {"instrument": "Bass Guitar", "audio_rel": "output\\f398a32ce921\\rock_alt_Bass Guitar_1766686080.wav"}, {"instrument": "Kick", "audio_rel": "output\\f398a32ce921\\rock_alt_Kick_1766686080.wav"}, {"instrument": "Snare", "audio_rel": "output\\f398a32ce921\\rock_alt_Snare_1766686080.wav"}, {"instrument": "Hat", "audio_rel": "output\\f398a32ce921\\rock_alt_Hat_1766686080.wav"}, {"instrument": "Crash", "audio_rel": "output\\f398a32ce921\\rock_alt_Crash_1766686080.wav"}, {"instrument": "Ride", "audio_rel": "output\\f398a32ce921\\rock_alt_Ride_1766686080.wav"}, {"instrument": "Tom", "audio_rel": "output\\f398a32ce921\\rock_alt_Tom_1766686080.wav"}], "sample_rate": 44100, "duration_seconds": 165.0}}