{"Piano": {"meta": {"status": "success", "tempo": 90, "key": "C", "scale": "Major", "style": "Classical", "mood": "Serene", "meter": "4/4", "dynamic_profile": "Moderate", "arrangement_density": "Sparse", "harmonic_color": "Warm", "length_seconds": 60.0, "bars": 8, "instrument_configs": [{"name": "Piano", "register": "Mid", "role": "Lead", "articulation": "Sustain", "dynamic_range": "Moderate"}], "instruments": ["Piano"], "instrument": "Piano"}, "layers": {"Piano": [{"bar": 0, "events": [{"step": 0, "note": 60, "vel": 70, "len": 2}, {"step": 4, "note": 67, "vel": 70, "len": 2}]}, {"bar": 1, "events": [{"step": 0, "note": 62, "vel": 70, "len": 2}, {"step": 4, "note": 69, "vel": 70, "len": 2}]}, {"bar": 2, "events": [{"step": 0, "note": 64, "vel": 70, "len": 2}, {"step": 4, "note": 71, "vel": 70, "len": 2}]}, {"bar": 3, "events": [{"step": 0, "note": 65, "vel": 70, "len": 2}, {"step": 4, "note": 72, "vel": 70, "len": 2}]}, {"bar": 4, "events": [{"step": 0, "note": 67, "vel": 70, "len": 2}, {"step": 4, "note": 74, "vel": 70, "len": 2}]}, {"bar": 5, "events": [{"step": 0, "note": 69, "vel": 70, "len": 2}, {"step": 4, "note": 76, "vel": 70, "len": 2}]}, {"bar": 6, "events": [{"step": 0, "note": 71, "vel": 70, "len": 2}, {"step": 4, "note": 79, "vel": 70, "len": 2}]}, {"bar": 7, "events": [{"step": 0, "note": 72, "vel": 70, "len": 2}, {"step": 4, "note": 80, "vel": 70, "len": 2}]}]}, "pattern": [{"bar": 0, "events": [{"step": 0, "note": 60, "vel": 70, "len": 2}, {"step": 4, "note": 67, "vel": 70, "len": 2}]}, {"bar": 1, "events": [{"step": 0, "note": 62, "vel": 70, "len": 2}, {"step": 4, "note": 69, "vel": 70, "len": 2}]}, {"bar": 2, "events": [{"step": 0, "note": 64, "vel": 70, "len": 2}, {"step": 4, "note": 71, "vel": 70, "len": 2}]}, {"bar": 3, "events": [{"step": 0, "note": 65, "vel": 70, "len": 2}, {"step": 4, "note": 72, "vel": 70, "len": 2}]}, {"bar": 4, "events": [{"step": 0, "note": 67, "vel": 70, "len": 2}, {"step": 4, "note": 74, "vel": 70, "len": 2}]}, {"bar": 5, "events": [{"step": 0, "note": 69, "vel": 70, "len": 2}, {"step": 4, "note": 76, "vel": 70, "len": 2}]}, {"bar": 6, "events": [{"step": 0, "note": 71, "vel": 70, "len": 2}, {"step": 4, "note": 79, "vel": 70, "len": 2}]}, {"bar": 7, "events": [{"step": 0, "note": 72, "vel": 70, "len": 2}, {"step": 4, "note": 80, "vel": 70, "len": 2}]}]}}