{"request": {"project_name": "delete-this", "run_id": "9a58eb894b06", "user_id": 2, "midi": {"pattern": [{"bar": 1, "events": [{"step": 0, "note": 38, "vel": 100, "len": 1}, {"step": 2, "note": 38, "vel": 100, "len": 1}, {"step": 4, "note": 38, "vel": 100, "len": 1}, {"step": 6, "note": 38, "vel": 100, "len": 1}]}, {"bar": 2, "events": [{"step": 0, "note": 38, "vel": 100, "len": 1}, {"step": 2, "note": 38, "vel": 100, "len": 1}, {"step": 4, "note": 38, "vel": 100, "len": 1}, {"step": 6, "note": 38, "vel": 100, "len": 1}]}, {"bar": 3, "events": [{"step": 0, "note": 38, "vel": 100, "len": 1}, {"step": 2, "note": 38, "vel": 100, "len": 1}, {"step": 4, "note": 38, "vel": 100, "len": 1}, {"step": 6, "note": 38, "vel": 100, "len": 1}]}, {"bar": 4, "events": [{"step": 0, "note": 38, "vel": 100, "len": 1}, {"step": 2, "note": 38, "vel": 100, "len": 1}, {"step": 4, "note": 38, "vel": 100, "len": 1}, {"step": 6, "note": 38, "vel": 100, "len": 1}]}, {"bar": 5, "events": [{"step": 0, "note": 38, "vel": 100, "len": 1}, {"step": 2, "note": 38, "vel": 100, "len": 1}, {"step": 4, "note": 38, "vel": 100, "len": 1}, {"step": 6, "note": 38, "vel": 100, "len": 1}]}, {"bar": 6, "events": [{"step": 0, "note": 38, "vel": 100, "len": 1}, {"step": 2, "note": 38, "vel": 100, "len": 1}, {"step": 4, "note": 38, "vel": 100, "len": 1}, {"step": 6, "note": 38, "vel": 100, "len": 1}]}, {"bar": 7, "events": [{"step": 0, "note": 38, "vel": 100, "len": 1}, {"step": 2, "note": 38, "vel": 100, "len": 1}, {"step": 4, "note": 38, "vel": 100, "len": 1}, {"step": 6, "note": 38, "vel": 100, "len": 1}]}, {"bar": 8, "events": [{"step": 0, "note": 38, "vel": 100, "len": 1}, {"step": 2, "note": 38, "vel": 100, "len": 1}, {"step": 4, "note": 38, "vel": 100, "len": 1}, {"step": 6, "note": 38, "vel": 100, "len": 1}]}, {"bar": 9, "events": [{"step": 0, "note": 38, "vel": 100, "len": 1}, {"step": 2, "note": 38, "vel": 100, "len": 1}, {"step": 4, "note": 38, "vel": 100, "len": 1}, {"step": 6, "note": 38, "vel": 100, "len": 1}]}, {"bar": 10, "events": [{"step": 0, "note": 38, "vel": 100, "len": 1}, {"step": 2, "note": 38, "vel": 100, "len": 1}, {"step": 4, "note": 38, "vel": 100, "len": 1}, {"step": 6, "note": 38, "vel": 100, "len": 1}]}, {"bar": 11, "events": [{"step": 0, "note": 38, "vel": 100, "len": 1}, {"step": 2, "note": 38, "vel": 100, "len": 1}, {"step": 4, "note": 38, "vel": 100, "len": 1}, {"step": 6, "note": 38, "vel": 100, "len": 1}]}, {"bar": 12, "events": [{"step": 0, "note": 38, "vel": 100, "len": 1}, {"step": 2, "note": 38, "vel": 100, "len": 1}, {"step": 4, "note": 38, "vel": 100, "len": 1}, {"step": 6, "note": 38, "vel": 100, "len": 1}]}, {"bar": 13, "events": [{"step": 0, "note": 38, "vel": 100, "len": 1}, {"step": 2, "note": 38, "vel": 100, "len": 1}, {"step": 4, "note": 38, "vel": 100, "len": 1}, {"step": 6, "note": 38, "vel": 100, "len": 1}]}, {"bar": 14, "events": [{"step": 0, "note": 38, "vel": 100, "len": 1}, {"step": 2, "note": 38, "vel": 100, "len": 1}, {"step": 4, "note": 38, "vel": 100, "len": 1}, {"step": 6, "note": 38, "vel": 100, "len": 1}]}, {"bar": 15, "events": [{"step": 0, "note": 38, "vel": 100, "len": 1}, {"step": 2, "note": 38, "vel": 100, "len": 1}, {"step": 4, "note": 38, "vel": 100, "len": 1}, {"step": 6, "note": 38, "vel": 100, "len": 1}]}, {"bar": 16, "events": [{"step": 0, "note": 38, "vel": 100, "len": 1}, {"step": 2, "note": 38, "vel": 100, "len": 1}, {"step": 4, "note": 38, "vel": 100, "len": 1}, {"step": 6, "note": 38, "vel": 100, "len": 1}]}], "layers": {"Piano": [{"bar": 1, "events": [{"step": 0, "note": 60, "vel": 80, "len": 1}, {"step": 2, "note": 63, "vel": 80, "len": 1}, {"step": 4, "note": 67, "vel": 80, "len": 1}, {"step": 6, "note": 70, "vel": 80, "len": 1}]}, {"bar": 2, "events": [{"step": 0, "note": 60, "vel": 80, "len": 1}, {"step": 2, "note": 63, "vel": 80, "len": 1}, {"step": 4, "note": 67, "vel": 80, "len": 1}, {"step": 6, "note": 70, "vel": 80, "len": 1}]}, {"bar": 3, "events": [{"step": 0, "note": 60, "vel": 80, "len": 1}, {"step": 2, "note": 63, "vel": 80, "len": 1}, {"step": 4, "note": 67, "vel": 80, "len": 1}, {"step": 6, "note": 70, "vel": 80, "len": 1}]}, {"bar": 4, "events": [{"step": 0, "note": 60, "vel": 80, "len": 1}, {"step": 2, "note": 63, "vel": 80, "len": 1}, {"step": 4, "note": 67, "vel": 80, "len": 1}, {"step": 6, "note": 70, "vel": 80, "len": 1}]}, {"bar": 5, "events": [{"step": 0, "note": 60, "vel": 80, "len": 1}, {"step": 2, "note": 63, "vel": 80, "len": 1}, {"step": 4, "note": 67, "vel": 80, "len": 1}, {"step": 6, "note": 70, "vel": 80, "len": 1}]}, {"bar": 6, "events": [{"step": 0, "note": 60, "vel": 80, "len": 1}, {"step": 2, "note": 63, "vel": 80, "len": 1}, {"step": 4, "note": 67, "vel": 80, "len": 1}, {"step": 6, "note": 70, "vel": 80, "len": 1}]}, {"bar": 7, "events": [{"step": 0, "note": 60, "vel": 80, "len": 1}, {"step": 2, "note": 63, "vel": 80, "len": 1}, {"step": 4, "note": 67, "vel": 80, "len": 1}, {"step": 6, "note": 70, "vel": 80, "len": 1}]}, {"bar": 8, "events": [{"step": 0, "note": 60, "vel": 80, "len": 1}, {"step": 2, "note": 63, "vel": 80, "len": 1}, {"step": 4, "note": 67, "vel": 80, "len": 1}, {"step": 6, "note": 70, "vel": 80, "len": 1}]}, {"bar": 9, "events": [{"step": 0, "note": 60, "vel": 80, "len": 1}, {"step": 2, "note": 63, "vel": 80, "len": 1}, {"step": 4, "note": 67, "vel": 80, "len": 1}, {"step": 6, "note": 70, "vel": 80, "len": 1}]}, {"bar": 10, "events": [{"step": 0, "note": 60, "vel": 80, "len": 1}, {"step": 2, "note": 63, "vel": 80, "len": 1}, {"step": 4, "note": 67, "vel": 80, "len": 1}, {"step": 6, "note": 70, "vel": 80, "len": 1}]}, {"bar": 11, "events": [{"step": 0, "note": 60, "vel": 80, "len": 1}, {"step": 2, "note": 63, "vel": 80, "len": 1}, {"step": 4, "note": 67, "vel": 80, "len": 1}, {"step": 6, "note": 70, "vel": 80, "len": 1}]}, {"bar": 12, "events": [{"step": 0, "note": 60, "vel": 80, "len": 1}, {"step": 2, "note": 63, "vel": 80, "len": 1}, {"step": 4, "note": 67, "vel": 80, "len": 1}, {"step": 6, "note": 70, "vel": 80, "len": 1}]}, {"bar": 13, "events": [{"step": 0, "note": 60, "vel": 80, "len": 1}, {"step": 2, "note": 63, "vel": 80, "len": 1}, {"step": 4, "note": 67, "vel": 80, "len": 1}, {"step": 6, "note": 70, "vel": 80, "len": 1}]}, {"bar": 14, "events": [{"step": 0, "note": 60, "vel": 80, "len": 1}, {"step": 2, "note": 63, "vel": 80, "len": 1}, {"step": 4, "note": 67, "vel": 80, "len": 1}, {"step": 6, "note": 70, "vel": 80, "len": 1}]}, {"bar": 15, "events": [{"step": 0, "note": 60, "vel": 80, "len": 1}, {"step": 2, "note": 63, "vel": 80, "len": 1}, {"step": 4, "note": 67, "vel": 80, "len": 1}, {"step": 6, "note": 70, "vel": 80, "len": 1}]}, {"bar": 16, "events": [{"step": 0, "note": 60, "vel": 80, "len": 1}, {"step": 2, "note": 63, "vel": 80, "len": 1}, {"step": 4, "note": 67, "vel": 80, "len": 1}, {"step": 6, "note": 70, "vel": 80, "len": 1}]}], "Bass Guitar": [{"bar": 1, "events": [{"step": 0, "note": 48, "vel": 100, "len": 2}, {"step": 4, "note": 52, "vel": 100, "len": 2}]}, {"bar": 2, "events": [{"step": 0, "note": 48, "vel": 100, "len": 2}, {"step": 4, "note": 52, "vel": 100, "len": 2}]}, {"bar": 3, "events": [{"step": 0, "note": 48, "vel": 100, "len": 2}, {"step": 4, "note": 52, "vel": 100, "len": 2}]}, {"bar": 4, "events": [{"step": 0, "note": 48, "vel": 100, "len": 2}, {"step": 4, "note": 52, "vel": 100, "len": 2}]}, {"bar": 5, "events": [{"step": 0, "note": 48, "vel": 100, "len": 2}, {"step": 4, "note": 52, "vel": 100, "len": 2}]}, {"bar": 6, "events": [{"step": 0, "note": 48, "vel": 100, "len": 2}, {"step": 4, "note": 52, "vel": 100, "len": 2}]}, {"bar": 7, "events": [{"step": 0, "note": 48, "vel": 100, "len": 2}, {"step": 4, "note": 52, "vel": 100, "len": 2}]}, {"bar": 8, "events": [{"step": 0, "note": 48, "vel": 100, "len": 2}, {"step": 4, "note": 52, "vel": 100, "len": 2}]}, {"bar": 9, "events": [{"step": 0, "note": 48, "vel": 100, "len": 2}, {"step": 4, "note": 52, "vel": 100, "len": 2}]}, {"bar": 10, "events": [{"step": 0, "note": 48, "vel": 100, "len": 2}, {"step": 4, "note": 52, "vel": 100, "len": 2}]}, {"bar": 11, "events": [{"step": 0, "note": 48, "vel": 100, "len": 2}, {"step": 4, "note": 52, "vel": 100, "len": 2}]}, {"bar": 12, "events": [{"step": 0, "note": 48, "vel": 100, "len": 2}, {"step": 4, "note": 52, "vel": 100, "len": 2}]}, {"bar": 13, "events": [{"step": 0, "note": 48, "vel": 100, "len": 2}, {"step": 4, "note": 52, "vel": 100, "len": 2}]}, {"bar": 14, "events": [{"step": 0, "note": 48, "vel": 100, "len": 2}, {"step": 4, "note": 52, "vel": 100, "len": 2}]}, {"bar": 15, "events": [{"step": 0, "note": 48, "vel": 100, "len": 2}, {"step": 4, "note": 52, "vel": 100, "len": 2}]}, {"bar": 16, "events": [{"step": 0, "note": 48, "vel": 100, "len": 2}, {"step": 4, "note": 52, "vel": 100, "len": 2}]}], "Strings": [{"bar": 1, "events": [{"step": 0, "note": 72, "vel": 60, "len": 4}]}, {"bar": 2, "events": [{"step": 0, "note": 72, "vel": 60, "len": 4}]}, {"bar": 3, "events": [{"step": 0, "note": 72, "vel": 60, "len": 4}]}, {"bar": 4, "events": [{"step": 0, "note": 72, "vel": 60, "len": 4}]}, {"bar": 5, "events": [{"step": 0, "note": 72, "vel": 60, "len": 4}]}, {"bar": 6, "events": [{"step": 0, "note": 72, "vel": 60, "len": 4}]}, {"bar": 7, "events": [{"step": 0, "note": 72, "vel": 60, "len": 4}]}, {"bar": 8, "events": [{"step": 0, "note": 72, "vel": 60, "len": 4}]}, {"bar": 9, "events": [{"step": 0, "note": 72, "vel": 60, "len": 4}]}, {"bar": 10, "events": [{"step": 0, "note": 72, "vel": 60, "len": 4}]}, {"bar": 11, "events": [{"step": 0, "note": 72, "vel": 60, "len": 4}]}, {"bar": 12, "events": [{"step": 0, "note": 72, "vel": 60, "len": 4}]}, {"bar": 13, "events": [{"step": 0, "note": 72, "vel": 60, "len": 4}]}, {"bar": 14, "events": [{"step": 0, "note": 72, "vel": 60, "len": 4}]}, {"bar": 15, "events": [{"step": 0, "note": 72, "vel": 60, "len": 4}]}, {"bar": 16, "events": [{"step": 0, "note": 72, "vel": 60, "len": 4}]}], "Snare": [{"bar": 1, "events": []}, {"bar": 2, "events": []}, {"bar": 3, "events": []}, {"bar": 4, "events": []}, {"bar": 5, "events": []}, {"bar": 6, "events": []}, {"bar": 7, "events": []}, {"bar": 8, "events": []}, {"bar": 9, "events": []}, {"bar": 10, "events": []}, {"bar": 11, "events": []}, {"bar": 12, "events": []}, {"bar": 13, "events": []}, {"bar": 14, "events": []}, {"bar": 15, "events": []}, {"bar": 16, "events": []}]}, "meta": {"status": "success", "tempo": 100, "key": "C Minor", "scale": "Harmonic Minor", "style": "Experimental", "mood": "Tense", "meter": "3/4", "dynamic_profile": "Crescendo", "arrangement_density": "Medium", "harmonic_color": "Dissonant", "length_seconds": 96, "bars": 16, "instrument_configs": [{"name": "Piano", "register": "High", "role": "Lead", "articulation": "Staccato", "dynamic_range": "Moderate"}, {"name": "Bass Guitar", "register": "Low", "role": "Bass", "articulation": "Sustain", "dynamic_range": "Intense"}, {"name": "Strings", "register": "Mid", "role": "Harmony", "articulation": "Legato", "dynamic_range": "Delicate"}, {"name": "Snare", "register": "Full", "role": "Percussion", "articulation": "Percussive", "dynamic_range": "Fortissimo"}], "instruments": ["Piano", "Bass Guitar", "Strings", "Snare"]}}, "midi_per_instrument": {"Piano": {"meta": {"status": "success", "tempo": 100, "key": "C Minor", "scale": "Harmonic Minor", "style": "Experimental", "mood": "Tense", "meter": "3/4", "dynamic_profile": "Crescendo", "arrangement_density": "Medium", "harmonic_color": "Dissonant", "length_seconds": 96, "bars": 16, "instrument_configs": [{"name": "Piano", "register": "High", "role": "Lead", "articulation": "Staccato", "dynamic_range": "Moderate"}, {"name": "Bass Guitar", "register": "Low", "role": "Bass", "articulation": "Sustain", "dynamic_range": "Intense"}, {"name": "Strings", "register": "Mid", "role": "Harmony", "articulation": "Legato", "dynamic_range": "Delicate"}, {"name": "Snare", "register": "Full", "role": "Percussion", "articulation": "Percussive", "dynamic_range": "Fortissimo"}], "instruments": ["Piano", "Bass Guitar", "Strings", "Snare"], "instrument": "Piano"}, "layers": {"Piano": [{"bar": 1, "events": [{"step": 0, "note": 60, "vel": 80, "len": 1}, {"step": 2, "note": 63, "vel": 80, "len": 1}, {"step": 4, "note": 67, "vel": 80, "len": 1}, {"step": 6, "note": 70, "vel": 80, "len": 1}]}, {"bar": 2, "events": [{"step": 0, "note": 60, "vel": 80, "len": 1}, {"step": 2, "note": 63, "vel": 80, "len": 1}, {"step": 4, "note": 67, "vel": 80, "len": 1}, {"step": 6, "note": 70, "vel": 80, "len": 1}]}, {"bar": 3, "events": [{"step": 0, "note": 60, "vel": 80, "len": 1}, {"step": 2, "note": 63, "vel": 80, "len": 1}, {"step": 4, "note": 67, "vel": 80, "len": 1}, {"step": 6, "note": 70, "vel": 80, "len": 1}]}, {"bar": 4, "events": [{"step": 0, "note": 60, "vel": 80, "len": 1}, {"step": 2, "note": 63, "vel": 80, "len": 1}, {"step": 4, "note": 67, "vel": 80, "len": 1}, {"step": 6, "note": 70, "vel": 80, "len": 1}]}, {"bar": 5, "events": [{"step": 0, "note": 60, "vel": 80, "len": 1}, {"step": 2, "note": 63, "vel": 80, "len": 1}, {"step": 4, "note": 67, "vel": 80, "len": 1}, {"step": 6, "note": 70, "vel": 80, "len": 1}]}, {"bar": 6, "events": [{"step": 0, "note": 60, "vel": 80, "len": 1}, {"step": 2, "note": 63, "vel": 80, "len": 1}, {"step": 4, "note": 67, "vel": 80, "len": 1}, {"step": 6, "note": 70, "vel": 80, "len": 1}]}, {"bar": 7, "events": [{"step": 0, "note": 60, "vel": 80, "len": 1}, {"step": 2, "note": 63, "vel": 80, "len": 1}, {"step": 4, "note": 67, "vel": 80, "len": 1}, {"step": 6, "note": 70, "vel": 80, "len": 1}]}, {"bar": 8, "events": [{"step": 0, "note": 60, "vel": 80, "len": 1}, {"step": 2, "note": 63, "vel": 80, "len": 1}, {"step": 4, "note": 67, "vel": 80, "len": 1}, {"step": 6, "note": 70, "vel": 80, "len": 1}]}, {"bar": 9, "events": [{"step": 0, "note": 60, "vel": 80, "len": 1}, {"step": 2, "note": 63, "vel": 80, "len": 1}, {"step": 4, "note": 67, "vel": 80, "len": 1}, {"step": 6, "note": 70, "vel": 80, "len": 1}]}, {"bar": 10, "events": [{"step": 0, "note": 60, "vel": 80, "len": 1}, {"step": 2, "note": 63, "vel": 80, "len": 1}, {"step": 4, "note": 67, "vel": 80, "len": 1}, {"step": 6, "note": 70, "vel": 80, "len": 1}]}, {"bar": 11, "events": [{"step": 0, "note": 60, "vel": 80, "len": 1}, {"step": 2, "note": 63, "vel": 80, "len": 1}, {"step": 4, "note": 67, "vel": 80, "len": 1}, {"step": 6, "note": 70, "vel": 80, "len": 1}]}, {"bar": 12, "events": [{"step": 0, "note": 60, "vel": 80, "len": 1}, {"step": 2, "note": 63, "vel": 80, "len": 1}, {"step": 4, "note": 67, "vel": 80, "len": 1}, {"step": 6, "note": 70, "vel": 80, "len": 1}]}, {"bar": 13, "events": [{"step": 0, "note": 60, "vel": 80, "len": 1}, {"step": 2, "note": 63, "vel": 80, "len": 1}, {"step": 4, "note": 67, "vel": 80, "len": 1}, {"step": 6, "note": 70, "vel": 80, "len": 1}]}, {"bar": 14, "events": [{"step": 0, "note": 60, "vel": 80, "len": 1}, {"step": 2, "note": 63, "vel": 80, "len": 1}, {"step": 4, "note": 67, "vel": 80, "len": 1}, {"step": 6, "note": 70, "vel": 80, "len": 1}]}, {"bar": 15, "events": [{"step": 0, "note": 60, "vel": 80, "len": 1}, {"step": 2, "note": 63, "vel": 80, "len": 1}, {"step": 4, "note": 67, "vel": 80, "len": 1}, {"step": 6, "note": 70, "vel": 80, "len": 1}]}, {"bar": 16, "events": [{"step": 0, "note": 60, "vel": 80, "len": 1}, {"step": 2, "note": 63, "vel": 80, "len": 1}, {"step": 4, "note": 67, "vel": 80, "len": 1}, {"step": 6, "note": 70, "vel": 80, "len": 1}]}]}, "pattern": [{"bar": 1, "events": [{"step": 0, "note": 60, "vel": 80, "len": 1}, {"step": 2, "note": 63, "vel": 80, "len": 1}, {"step": 4, "note": 67, "vel": 80, "len": 1}, {"step": 6, "note": 70, "vel": 80, "len": 1}]}, {"bar": 2, "events": [{"step": 0, "note": 60, "vel": 80, "len": 1}, {"step": 2, "note": 63, "vel": 80, "len": 1}, {"step": 4, "note": 67, "vel": 80, "len": 1}, {"step": 6, "note": 70, "vel": 80, "len": 1}]}, {"bar": 3, "events": [{"step": 0, "note": 60, "vel": 80, "len": 1}, {"step": 2, "note": 63, "vel": 80, "len": 1}, {"step": 4, "note": 67, "vel": 80, "len": 1}, {"step": 6, "note": 70, "vel": 80, "len": 1}]}, {"bar": 4, "events": [{"step": 0, "note": 60, "vel": 80, "len": 1}, {"step": 2, "note": 63, "vel": 80, "len": 1}, {"step": 4, "note": 67, "vel": 80, "len": 1}, {"step": 6, "note": 70, "vel": 80, "len": 1}]}, {"bar": 5, "events": [{"step": 0, "note": 60, "vel": 80, "len": 1}, {"step": 2, "note": 63, "vel": 80, "len": 1}, {"step": 4, "note": 67, "vel": 80, "len": 1}, {"step": 6, "note": 70, "vel": 80, "len": 1}]}, {"bar": 6, "events": [{"step": 0, "note": 60, "vel": 80, "len": 1}, {"step": 2, "note": 63, "vel": 80, "len": 1}, {"step": 4, "note": 67, "vel": 80, "len": 1}, {"step": 6, "note": 70, "vel": 80, "len": 1}]}, {"bar": 7, "events": [{"step": 0, "note": 60, "vel": 80, "len": 1}, {"step": 2, "note": 63, "vel": 80, "len": 1}, {"step": 4, "note": 67, "vel": 80, "len": 1}, {"step": 6, "note": 70, "vel": 80, "len": 1}]}, {"bar": 8, "events": [{"step": 0, "note": 60, "vel": 80, "len": 1}, {"step": 2, "note": 63, "vel": 80, "len": 1}, {"step": 4, "note": 67, "vel": 80, "len": 1}, {"step": 6, "note": 70, "vel": 80, "len": 1}]}, {"bar": 9, "events": [{"step": 0, "note": 60, "vel": 80, "len": 1}, {"step": 2, "note": 63, "vel": 80, "len": 1}, {"step": 4, "note": 67, "vel": 80, "len": 1}, {"step": 6, "note": 70, "vel": 80, "len": 1}]}, {"bar": 10, "events": [{"step": 0, "note": 60, "vel": 80, "len": 1}, {"step": 2, "note": 63, "vel": 80, "len": 1}, {"step": 4, "note": 67, "vel": 80, "len": 1}, {"step": 6, "note": 70, "vel": 80, "len": 1}]}, {"bar": 11, "events": [{"step": 0, "note": 60, "vel": 80, "len": 1}, {"step": 2, "note": 63, "vel": 80, "len": 1}, {"step": 4, "note": 67, "vel": 80, "len": 1}, {"step": 6, "note": 70, "vel": 80, "len": 1}]}, {"bar": 12, "events": [{"step": 0, "note": 60, "vel": 80, "len": 1}, {"step": 2, "note": 63, "vel": 80, "len": 1}, {"step": 4, "note": 67, "vel": 80, "len": 1}, {"step": 6, "note": 70, "vel": 80, "len": 1}]}, {"bar": 13, "events": [{"step": 0, "note": 60, "vel": 80, "len": 1}, {"step": 2, "note": 63, "vel": 80, "len": 1}, {"step": 4, "note": 67, "vel": 80, "len": 1}, {"step": 6, "note": 70, "vel": 80, "len": 1}]}, {"bar": 14, "events": [{"step": 0, "note": 60, "vel": 80, "len": 1}, {"step": 2, "note": 63, "vel": 80, "len": 1}, {"step": 4, "note": 67, "vel": 80, "len": 1}, {"step": 6, "note": 70, "vel": 80, "len": 1}]}, {"bar": 15, "events": [{"step": 0, "note": 60, "vel": 80, "len": 1}, {"step": 2, "note": 63, "vel": 80, "len": 1}, {"step": 4, "note": 67, "vel": 80, "len": 1}, {"step": 6, "note": 70, "vel": 80, "len": 1}]}, {"bar": 16, "events": [{"step": 0, "note": 60, "vel": 80, "len": 1}, {"step": 2, "note": 63, "vel": 80, "len": 1}, {"step": 4, "note": 67, "vel": 80, "len": 1}, {"step": 6, "note": 70, "vel": 80, "len": 1}]}]}, "Bass Guitar": {"meta": {"status": "success", "tempo": 100, "key": "C Minor", "scale": "Harmonic Minor", "style": "Experimental", "mood": "Tense", "meter": "3/4", "dynamic_profile": "Crescendo", "arrangement_density": "Medium", "harmonic_color": "Dissonant", "length_seconds": 96, "bars": 16, "instrument_configs": [{"name": "Piano", "register": "High", "role": "Lead", "articulation": "Staccato", "dynamic_range": "Moderate"}, {"name": "Bass Guitar", "register": "Low", "role": "Bass", "articulation": "Sustain", "dynamic_range": "Intense"}, {"name": "Strings", "register": "Mid", "role": "Harmony", "articulation": "Legato", "dynamic_range": "Delicate"}, {"name": "Snare", "register": "Full", "role": "Percussion", "articulation": "Percussive", "dynamic_range": "Fortissimo"}], "instruments": ["Piano", "Bass Guitar", "Strings", "Snare"], "instrument": "Bass Guitar"}, "layers": {"Bass Guitar": [{"bar": 1, "events": [{"step": 0, "note": 48, "vel": 100, "len": 2}, {"step": 4, "note": 52, "vel": 100, "len": 2}]}, {"bar": 2, "events": [{"step": 0, "note": 48, "vel": 100, "len": 2}, {"step": 4, "note": 52, "vel": 100, "len": 2}]}, {"bar": 3, "events": [{"step": 0, "note": 48, "vel": 100, "len": 2}, {"step": 4, "note": 52, "vel": 100, "len": 2}]}, {"bar": 4, "events": [{"step": 0, "note": 48, "vel": 100, "len": 2}, {"step": 4, "note": 52, "vel": 100, "len": 2}]}, {"bar": 5, "events": [{"step": 0, "note": 48, "vel": 100, "len": 2}, {"step": 4, "note": 52, "vel": 100, "len": 2}]}, {"bar": 6, "events": [{"step": 0, "note": 48, "vel": 100, "len": 2}, {"step": 4, "note": 52, "vel": 100, "len": 2}]}, {"bar": 7, "events": [{"step": 0, "note": 48, "vel": 100, "len": 2}, {"step": 4, "note": 52, "vel": 100, "len": 2}]}, {"bar": 8, "events": [{"step": 0, "note": 48, "vel": 100, "len": 2}, {"step": 4, "note": 52, "vel": 100, "len": 2}]}, {"bar": 9, "events": [{"step": 0, "note": 48, "vel": 100, "len": 2}, {"step": 4, "note": 52, "vel": 100, "len": 2}]}, {"bar": 10, "events": [{"step": 0, "note": 48, "vel": 100, "len": 2}, {"step": 4, "note": 52, "vel": 100, "len": 2}]}, {"bar": 11, "events": [{"step": 0, "note": 48, "vel": 100, "len": 2}, {"step": 4, "note": 52, "vel": 100, "len": 2}]}, {"bar": 12, "events": [{"step": 0, "note": 48, "vel": 100, "len": 2}, {"step": 4, "note": 52, "vel": 100, "len": 2}]}, {"bar": 13, "events": [{"step": 0, "note": 48, "vel": 100, "len": 2}, {"step": 4, "note": 52, "vel": 100, "len": 2}]}, {"bar": 14, "events": [{"step": 0, "note": 48, "vel": 100, "len": 2}, {"step": 4, "note": 52, "vel": 100, "len": 2}]}, {"bar": 15, "events": [{"step": 0, "note": 48, "vel": 100, "len": 2}, {"step": 4, "note": 52, "vel": 100, "len": 2}]}, {"bar": 16, "events": [{"step": 0, "note": 48, "vel": 100, "len": 2}, {"step": 4, "note": 52, "vel": 100, "len": 2}]}]}, "pattern": [{"bar": 1, "events": [{"step": 0, "note": 48, "vel": 100, "len": 2}, {"step": 4, "note": 52, "vel": 100, "len": 2}]}, {"bar": 2, "events": [{"step": 0, "note": 48, "vel": 100, "len": 2}, {"step": 4, "note": 52, "vel": 100, "len": 2}]}, {"bar": 3, "events": [{"step": 0, "note": 48, "vel": 100, "len": 2}, {"step": 4, "note": 52, "vel": 100, "len": 2}]}, {"bar": 4, "events": [{"step": 0, "note": 48, "vel": 100, "len": 2}, {"step": 4, "note": 52, "vel": 100, "len": 2}]}, {"bar": 5, "events": [{"step": 0, "note": 48, "vel": 100, "len": 2}, {"step": 4, "note": 52, "vel": 100, "len": 2}]}, {"bar": 6, "events": [{"step": 0, "note": 48, "vel": 100, "len": 2}, {"step": 4, "note": 52, "vel": 100, "len": 2}]}, {"bar": 7, "events": [{"step": 0, "note": 48, "vel": 100, "len": 2}, {"step": 4, "note": 52, "vel": 100, "len": 2}]}, {"bar": 8, "events": [{"step": 0, "note": 48, "vel": 100, "len": 2}, {"step": 4, "note": 52, "vel": 100, "len": 2}]}, {"bar": 9, "events": [{"step": 0, "note": 48, "vel": 100, "len": 2}, {"step": 4, "note": 52, "vel": 100, "len": 2}]}, {"bar": 10, "events": [{"step": 0, "note": 48, "vel": 100, "len": 2}, {"step": 4, "note": 52, "vel": 100, "len": 2}]}, {"bar": 11, "events": [{"step": 0, "note": 48, "vel": 100, "len": 2}, {"step": 4, "note": 52, "vel": 100, "len": 2}]}, {"bar": 12, "events": [{"step": 0, "note": 48, "vel": 100, "len": 2}, {"step": 4, "note": 52, "vel": 100, "len": 2}]}, {"bar": 13, "events": [{"step": 0, "note": 48, "vel": 100, "len": 2}, {"step": 4, "note": 52, "vel": 100, "len": 2}]}, {"bar": 14, "events": [{"step": 0, "note": 48, "vel": 100, "len": 2}, {"step": 4, "note": 52, "vel": 100, "len": 2}]}, {"bar": 15, "events": [{"step": 0, "note": 48, "vel": 100, "len": 2}, {"step": 4, "note": 52, "vel": 100, "len": 2}]}, {"bar": 16, "events": [{"step": 0, "note": 48, "vel": 100, "len": 2}, {"step": 4, "note": 52, "vel": 100, "len": 2}]}]}, "Strings": {"meta": {"status": "success", "tempo": 100, "key": "C Minor", "scale": "Harmonic Minor", "style": "Experimental", "mood": "Tense", "meter": "3/4", "dynamic_profile": "Crescendo", "arrangement_density": "Medium", "harmonic_color": "Dissonant", "length_seconds": 96, "bars": 16, "instrument_configs": [{"name": "Piano", "register": "High", "role": "Lead", "articulation": "Staccato", "dynamic_range": "Moderate"}, {"name": "Bass Guitar", "register": "Low", "role": "Bass", "articulation": "Sustain", "dynamic_range": "Intense"}, {"name": "Strings", "register": "Mid", "role": "Harmony", "articulation": "Legato", "dynamic_range": "Delicate"}, {"name": "Snare", "register": "Full", "role": "Percussion", "articulation": "Percussive", "dynamic_range": "Fortissimo"}], "instruments": ["Piano", "Bass Guitar", "Strings", "Snare"], "instrument": "Strings"}, "layers": {"Strings": [{"bar": 1, "events": [{"step": 0, "note": 72, "vel": 60, "len": 4}]}, {"bar": 2, "events": [{"step": 0, "note": 72, "vel": 60, "len": 4}]}, {"bar": 3, "events": [{"step": 0, "note": 72, "vel": 60, "len": 4}]}, {"bar": 4, "events": [{"step": 0, "note": 72, "vel": 60, "len": 4}]}, {"bar": 5, "events": [{"step": 0, "note": 72, "vel": 60, "len": 4}]}, {"bar": 6, "events": [{"step": 0, "note": 72, "vel": 60, "len": 4}]}, {"bar": 7, "events": [{"step": 0, "note": 72, "vel": 60, "len": 4}]}, {"bar": 8, "events": [{"step": 0, "note": 72, "vel": 60, "len": 4}]}, {"bar": 9, "events": [{"step": 0, "note": 72, "vel": 60, "len": 4}]}, {"bar": 10, "events": [{"step": 0, "note": 72, "vel": 60, "len": 4}]}, {"bar": 11, "events": [{"step": 0, "note": 72, "vel": 60, "len": 4}]}, {"bar": 12, "events": [{"step": 0, "note": 72, "vel": 60, "len": 4}]}, {"bar": 13, "events": [{"step": 0, "note": 72, "vel": 60, "len": 4}]}, {"bar": 14, "events": [{"step": 0, "note": 72, "vel": 60, "len": 4}]}, {"bar": 15, "events": [{"step": 0, "note": 72, "vel": 60, "len": 4}]}, {"bar": 16, "events": [{"step": 0, "note": 72, "vel": 60, "len": 4}]}]}, "pattern": [{"bar": 1, "events": [{"step": 0, "note": 72, "vel": 60, "len": 4}]}, {"bar": 2, "events": [{"step": 0, "note": 72, "vel": 60, "len": 4}]}, {"bar": 3, "events": [{"step": 0, "note": 72, "vel": 60, "len": 4}]}, {"bar": 4, "events": [{"step": 0, "note": 72, "vel": 60, "len": 4}]}, {"bar": 5, "events": [{"step": 0, "note": 72, "vel": 60, "len": 4}]}, {"bar": 6, "events": [{"step": 0, "note": 72, "vel": 60, "len": 4}]}, {"bar": 7, "events": [{"step": 0, "note": 72, "vel": 60, "len": 4}]}, {"bar": 8, "events": [{"step": 0, "note": 72, "vel": 60, "len": 4}]}, {"bar": 9, "events": [{"step": 0, "note": 72, "vel": 60, "len": 4}]}, {"bar": 10, "events": [{"step": 0, "note": 72, "vel": 60, "len": 4}]}, {"bar": 11, "events": [{"step": 0, "note": 72, "vel": 60, "len": 4}]}, {"bar": 12, "events": [{"step": 0, "note": 72, "vel": 60, "len": 4}]}, {"bar": 13, "events": [{"step": 0, "note": 72, "vel": 60, "len": 4}]}, {"bar": 14, "events": [{"step": 0, "note": 72, "vel": 60, "len": 4}]}, {"bar": 15, "events": [{"step": 0, "note": 72, "vel": 60, "len": 4}]}, {"bar": 16, "events": [{"step": 0, "note": 72, "vel": 60, "len": 4}]}]}, "Snare": {"meta": {"status": "success", "tempo": 100, "key": "C Minor", "scale": "Harmonic Minor", "style": "Experimental", "mood": "Tense", "meter": "3/4", "dynamic_profile": "Crescendo", "arrangement_density": "Medium", "harmonic_color": "Dissonant", "length_seconds": 96, "bars": 16, "instrument_configs": [{"name": "Piano", "register": "High", "role": "Lead", "articulation": "Staccato", "dynamic_range": "Moderate"}, {"name": "Bass Guitar", "register": "Low", "role": "Bass", "articulation": "Sustain", "dynamic_range": "Intense"}, {"name": "Strings", "register": "Mid", "role": "Harmony", "articulation": "Legato", "dynamic_range": "Delicate"}, {"name": "Snare", "register": "Full", "role": "Percussion", "articulation": "Percussive", "dynamic_range": "Fortissimo"}], "instruments": ["Piano", "Bass Guitar", "Strings", "Snare"], "instrument": "Snare"}, "layers": {"Snare": [{"bar": 1, "events": []}, {"bar": 2, "events": []}, {"bar": 3, "events": []}, {"bar": 4, "events": []}, {"bar": 5, "events": []}, {"bar": 6, "events": []}, {"bar": 7, "events": []}, {"bar": 8, "events": []}, {"bar": 9, "events": []}, {"bar": 10, "events": []}, {"bar": 11, "events": []}, {"bar": 12, "events": []}, {"bar": 13, "events": []}, {"bar": 14, "events": []}, {"bar": 15, "events": []}, {"bar": 16, "events": []}]}, "pattern": [{"bar": 1, "events": []}, {"bar": 2, "events": []}, {"bar": 3, "events": []}, {"bar": 4, "events": []}, {"bar": 5, "events": []}, {"bar": 6, "events": []}, {"bar": 7, "events": []}, {"bar": 8, "events": []}, {"bar": 9, "events": []}, {"bar": 10, "events": []}, {"bar": 11, "events": []}, {"bar": 12, "events": []}, {"bar": 13, "events": []}, {"bar": 14, "events": []}, {"bar": 15, "events": []}, {"bar": 16, "events": []}]}}, "tracks": [{"instrument": "Piano", "enabled": true, "volume_db": -8.0, "pan": 0.0}, {"instrument": "Bass Guitar", "enabled": true, "volume_db": -3.0, "pan": 0.0}, {"instrument": "Strings", "enabled": true, "volume_db": -3.0, "pan": 0.0}, {"instrument": "Snare", "enabled": true, "volume_db": -3.0, "pan": 0.0}], "selected_samples": {"Snare": "Drums/Kits/Drum Kit 07/FLS_Snare 07b.wav", "Strings": "Instruments/Orchestral/Tenor Sax/25_TSAX_LONG G#3ogg.wav", "Bass Guitar": "Instruments/Guitar/Bass/FLStudio Bass 02/26 DEEPER PURPLE_PLUCK C3ogg.wav", "Piano": "Instruments/Piano/Piano 2/Gz_E1ogg.wav"}, "fadeout_seconds": 0.01}, "response": {"project_name": "delete-this", "run_id": "9a58eb894b06", "mix_wav_rel": "output\\9a58eb894b06\\delete-this_mix_1767464233.wav", "stems": [{"instrument": "Piano", "audio_rel": "output\\9a58eb894b06\\delete-this_Piano_1767464233.wav"}, {"instrument": "Bass Guitar", "audio_rel": "output\\9a58eb894b06\\delete-this_Bass Guitar_1767464233.wav"}, {"instrument": "Strings", "audio_rel": "output\\9a58eb894b06\\delete-this_Strings_1767464233.wav"}, {"instrument": "Snare", "audio_rel": "output\\9a58eb894b06\\delete-this_Snare_1767464233.wav"}], "sample_rate": 44100, "duration_seconds": 96.0}}