{"meta": {"style": "Rock", "tempo": 128, "key": "E Minor", "meter": "4/4", "instrumentation": ["Electric Guitar", "Bass Guitar", "Kick", "Snare", "Hat", "Crash"], "scale": "Minor", "mood": "Vivid", "dynamic_profile": "Driving", "arrangement_density": "Medium-High", "harmonic_color": "Bright", "length_seconds": 30.0, "bars": 16, "instrument_configs": [{"name": "Electric Guitar", "register": "Mid-High", "role": "Lead", "articulation": "Sustain", "dynamic_range": "Intense"}, {"name": "Bass Guitar", "register": "Low", "role": "Bass", "articulation": "Legato", "dynamic_range": "Moderate"}, {"name": "Kick", "register": "Low", "role": "Percussion", "articulation": "Percussive", "dynamic_range": "Intense"}, {"name": "Snare", "register": "Mid", "role": "Percussion", "articulation": "Percussive", "dynamic_range": "Intense"}, {"name": "Hat", "register": "High", "role": "Percussion", "articulation": "Percussive", "dynamic_range": "Moderate"}, {"name": "Crash", "register": "High", "role": "Percussion", "articulation": "Percussive", "dynamic_range": "High"}], "instruments": ["Electric Guitar", "Bass Guitar", "Kick", "Snare", "Hat", "Crash"], "instrument": "Electric Guitar"}, "layers": {"Electric Guitar": [{"bar": 1, "events": [{"step": 0, "note": 64, "vel": 105, "len": 2}, {"step": 2, "note": 67, "vel": 100, "len": 2}, {"step": 3, "note": 69, "vel": 100, "len": 2}, {"step": 4, "note": 64, "vel": 105, "len": 2}, {"step": 6, "note": 62, "vel": 95, "len": 2}, {"step": 7, "note": 59, "vel": 90, "len": 2}]}, {"bar": 2, "events": [{"step": 0, "note": 64, "vel": 105, "len": 2}, {"step": 2, "note": 67, "vel": 100, "len": 2}, {"step": 3, "note": 69, "vel": 100, "len": 2}, {"step": 4, "note": 64, "vel": 105, "len": 2}, {"step": 6, "note": 62, "vel": 95, "len": 2}, {"step": 7, "note": 71, "vel": 90, "len": 2}]}, {"bar": 3, "events": [{"step": 0, "note": 72, "vel": 105, "len": 2}, {"step": 2, "note": 71, "vel": 100, "len": 2}, {"step": 3, "note": 69, "vel": 100, "len": 2}, {"step": 4, "note": 64, "vel": 105, "len": 2}, {"step": 6, "note": 62, "vel": 95, "len": 2}, {"step": 7, "note": 59, "vel": 90, "len": 2}]}, {"bar": 4, "events": [{"step": 0, "note": 64, "vel": 105, "len": 2}, {"step": 4, "note": 64, "vel": 105, "len": 2}]}]}, "pattern": [{"bar": 1, "events": [{"step": 0, "note": 64, "vel": 105, "len": 2}, {"step": 2, "note": 67, "vel": 100, "len": 2}, {"step": 3, "note": 69, "vel": 100, "len": 2}, {"step": 4, "note": 64, "vel": 105, "len": 2}, {"step": 6, "note": 62, "vel": 95, "len": 2}, {"step": 7, "note": 59, "vel": 90, "len": 2}]}, {"bar": 2, "events": [{"step": 0, "note": 64, "vel": 105, "len": 2}, {"step": 2, "note": 67, "vel": 100, "len": 2}, {"step": 3, "note": 69, "vel": 100, "len": 2}, {"step": 4, "note": 64, "vel": 105, "len": 2}, {"step": 6, "note": 62, "vel": 95, "len": 2}, {"step": 7, "note": 71, "vel": 90, "len": 2}]}, {"bar": 3, "events": [{"step": 0, "note": 72, "vel": 105, "len": 2}, {"step": 2, "note": 71, "vel": 100, "len": 2}, {"step": 3, "note": 69, "vel": 100, "len": 2}, {"step": 4, "note": 64, "vel": 105, "len": 2}, {"step": 6, "note": 62, "vel": 95, "len": 2}, {"step": 7, "note": 59, "vel": 90, "len": 2}]}, {"bar": 4, "events": [{"step": 0, "note": 64, "vel": 105, "len": 2}, {"step": 4, "note": 64, "vel": 105, "len": 2}]}]}