{"meta": {"status": "success", "tempo": 130, "key": "A Minor", "scale": "Minor", "style": "Rock", "mood": "Energetic", "meter": "4/4", "dynamic_profile": "Fortissimo", "arrangement_density": "Dense", "harmonic_color": "Distorted, Power Chords", "length_seconds": 30.0, "bars": 8, "instrument_configs": [{"name": "Electric Guitar", "register": "High", "role": "Lead", "articulation": "Legato", "dynamic_range": "Intense"}, {"name": "Bass Guitar", "register": "Low", "role": "Bass", "articulation": "Muted", "dynamic_range": "Intense"}, {"name": "Kick", "register": "Sub", "role": "Percussion", "articulation": "Percussive", "dynamic_range": "Fortissimo"}, {"name": "Snare", "register": "Mid", "role": "Percussion", "articulation": "Percussive", "dynamic_range": "Fortissimo"}, {"name": "Hat", "register": "High", "role": "Percussion", "articulation": "Percussive", "dynamic_range": "Intense"}, {"name": "Crash", "register": "Very High", "role": "Percussion", "articulation": "Sustain", "dynamic_range": "Fortissimo"}], "instruments": ["Electric Guitar", "Bass Guitar", "Kick", "Snare", "Hat", "Crash"], "instrument": "Bass Guitar"}, "layers": {"Bass Guitar": [{"bar": 1, "events": [{"step": 0, "note": 45, "vel": 120, "len": 2}, {"step": 4, "note": 45, "vel": 115, "len": 1}, {"step": 6, "note": 43, "vel": 110, "len": 1}]}, {"bar": 2, "events": [{"step": 0, "note": 38, "vel": 120, "len": 2}, {"step": 4, "note": 38, "vel": 115, "len": 1}, {"step": 6, "note": 40, "vel": 110, "len": 1}]}, {"bar": 3, "events": [{"step": 0, "note": 45, "vel": 120, "len": 2}, {"step": 4, "note": 45, "vel": 115, "len": 1}, {"step": 6, "note": 43, "vel": 110, "len": 1}]}, {"bar": 4, "events": [{"step": 0, "note": 38, "vel": 120, "len": 2}, {"step": 4, "note": 38, "vel": 115, "len": 1}, {"step": 6, "note": 40, "vel": 110, "len": 1}]}, {"bar": 5, "events": [{"step": 0, "note": 45, "vel": 120, "len": 2}, {"step": 4, "note": 45, "vel": 115, "len": 1}, {"step": 6, "note": 43, "vel": 110, "len": 1}]}, {"bar": 6, "events": [{"step": 0, "note": 38, "vel": 120, "len": 2}, {"step": 4, "note": 38, "vel": 115, "len": 1}, {"step": 6, "note": 40, "vel": 110, "len": 1}]}, {"bar": 7, "events": [{"step": 0, "note": 40, "vel": 125, "len": 4}, {"step": 4, "note": 40, "vel": 120, "len": 4}]}, {"bar": 8, "events": [{"step": 0, "note": 40, "vel": 127, "len": 8}]}]}, "pattern": [{"bar": 1, "events": [{"step": 0, "note": 45, "vel": 120, "len": 2}, {"step": 4, "note": 45, "vel": 115, "len": 1}, {"step": 6, "note": 43, "vel": 110, "len": 1}]}, {"bar": 2, "events": [{"step": 0, "note": 38, "vel": 120, "len": 2}, {"step": 4, "note": 38, "vel": 115, "len": 1}, {"step": 6, "note": 40, "vel": 110, "len": 1}]}, {"bar": 3, "events": [{"step": 0, "note": 45, "vel": 120, "len": 2}, {"step": 4, "note": 45, "vel": 115, "len": 1}, {"step": 6, "note": 43, "vel": 110, "len": 1}]}, {"bar": 4, "events": [{"step": 0, "note": 38, "vel": 120, "len": 2}, {"step": 4, "note": 38, "vel": 115, "len": 1}, {"step": 6, "note": 40, "vel": 110, "len": 1}]}, {"bar": 5, "events": [{"step": 0, "note": 45, "vel": 120, "len": 2}, {"step": 4, "note": 45, "vel": 115, "len": 1}, {"step": 6, "note": 43, "vel": 110, "len": 1}]}, {"bar": 6, "events": [{"step": 0, "note": 38, "vel": 120, "len": 2}, {"step": 4, "note": 38, "vel": 115, "len": 1}, {"step": 6, "note": 40, "vel": 110, "len": 1}]}, {"bar": 7, "events": [{"step": 0, "note": 40, "vel": 125, "len": 4}, {"step": 4, "note": 40, "vel": 120, "len": 4}]}, {"bar": 8, "events": [{"step": 0, "note": 40, "vel": 127, "len": 8}]}]}