{"meta": {"style": "Rock", "mood": "Energetic", "tempo": 130, "key": "E Minor", "scale": "Natural Minor", "meter": "4/4", "bars": 32, "length_seconds": 60.0, "dynamic_profile": "Moderate to Intense", "arrangement_density": "Medium to High", "harmonic_color": "Distorted, Power Chords", "instruments": ["Bass Guitar", "Electric Guitar", "Kick", "Snare", "Hat", "Ride", "Crash"], "instrument_configs": [{"name": "Bass Guitar", "register": "Low", "role": "Bass", "articulation": "Sustain", "dynamic_range": "Moderate"}, {"name": "Electric Guitar", "register": "Full", "role": "Rhythm/Lead", "articulation": "Distorted, Sustained", "dynamic_range": "Intense"}, {"name": "Kick", "register": "Low", "role": "Percussion", "articulation": "Percussive", "dynamic_range": "Moderate"}, {"name": "Snare", "register": "Mid", "role": "Percussion", "articulation": "Percussive", "dynamic_range": "Moderate"}, {"name": "Hat", "register": "High", "role": "Percussion", "articulation": "Percussive", "dynamic_range": "Moderate"}, {"name": "Ride", "register": "High", "role": "Percussion", "articulation": "Sustain", "dynamic_range": "Moderate"}, {"name": "Crash", "register": "High", "role": "Percussion", "articulation": "Percussive", "dynamic_range": "Intense"}], "seed": null, "instrument": "Kick"}, "layers": {"Kick": [{"bar": 0, "events": [{"step": 0, "note": 36, "vel": 100, "len": 2}, {"step": 4, "note": 36, "vel": 100, "len": 2}]}, {"bar": 1, "events": [{"step": 0, "note": 36, "vel": 100, "len": 2}, {"step": 4, "note": 36, "vel": 100, "len": 2}]}, {"bar": 2, "events": [{"step": 0, "note": 36, "vel": 100, "len": 2}, {"step": 4, "note": 36, "vel": 100, "len": 2}]}, {"bar": 3, "events": [{"step": 0, "note": 36, "vel": 100, "len": 2}, {"step": 4, "note": 36, "vel": 100, "len": 2}]}, {"bar": 4, "events": [{"step": 0, "note": 36, "vel": 100, "len": 2}, {"step": 4, "note": 36, "vel": 100, "len": 2}]}, {"bar": 5, "events": [{"step": 0, "note": 36, "vel": 100, "len": 2}, {"step": 4, "note": 36, "vel": 100, "len": 2}]}, {"bar": 6, "events": [{"step": 0, "note": 36, "vel": 100, "len": 2}, {"step": 4, "note": 36, "vel": 100, "len": 2}]}, {"bar": 7, "events": [{"step": 0, "note": 36, "vel": 100, "len": 2}]}, {"bar": 8, "events": [{"step": 0, "note": 36, "vel": 100, "len": 2}, {"step": 4, "note": 36, "vel": 100, "len": 2}]}, {"bar": 9, "events": [{"step": 0, "note": 36, "vel": 100, "len": 2}, {"step": 4, "note": 36, "vel": 100, "len": 2}]}, {"bar": 10, "events": [{"step": 0, "note": 36, "vel": 100, "len": 2}, {"step": 4, "note": 36, "vel": 100, "len": 2}]}, {"bar": 11, "events": [{"step": 0, "note": 36, "vel": 100, "len": 2}, {"step": 4, "note": 36, "vel": 100, "len": 2}]}, {"bar": 12, "events": [{"step": 0, "note": 36, "vel": 100, "len": 2}, {"step": 4, "note": 36, "vel": 100, "len": 2}]}, {"bar": 13, "events": [{"step": 0, "note": 36, "vel": 100, "len": 2}, {"step": 4, "note": 36, "vel": 100, "len": 2}]}, {"bar": 14, "events": [{"step": 0, "note": 36, "vel": 100, "len": 2}, {"step": 4, "note": 36, "vel": 100, "len": 2}]}, {"bar": 15, "events": [{"step": 0, "note": 36, "vel": 100, "len": 2}]}, {"bar": 16, "events": [{"step": 0, "note": 36, "vel": 100, "len": 2}, {"step": 4, "note": 36, "vel": 100, "len": 2}]}, {"bar": 17, "events": [{"step": 0, "note": 36, "vel": 100, "len": 2}, {"step": 4, "note": 36, "vel": 100, "len": 2}]}, {"bar": 18, "events": [{"step": 0, "note": 36, "vel": 100, "len": 2}, {"step": 4, "note": 36, "vel": 100, "len": 2}]}, {"bar": 19, "events": [{"step": 0, "note": 36, "vel": 100, "len": 2}, {"step": 4, "note": 36, "vel": 100, "len": 2}]}, {"bar": 20, "events": [{"step": 0, "note": 36, "vel": 100, "len": 2}, {"step": 4, "note": 36, "vel": 100, "len": 2}]}, {"bar": 21, "events": [{"step": 0, "note": 36, "vel": 100, "len": 2}, {"step": 4, "note": 36, "vel": 100, "len": 2}]}, {"bar": 22, "events": [{"step": 0, "note": 36, "vel": 100, "len": 2}, {"step": 4, "note": 36, "vel": 100, "len": 2}]}, {"bar": 23, "events": [{"step": 0, "note": 36, "vel": 100, "len": 2}]}, {"bar": 24, "events": [{"step": 0, "note": 36, "vel": 100, "len": 2}, {"step": 4, "note": 36, "vel": 100, "len": 2}]}, {"bar": 25, "events": [{"step": 0, "note": 36, "vel": 100, "len": 2}, {"step": 4, "note": 36, "vel": 100, "len": 2}]}, {"bar": 26, "events": [{"step": 0, "note": 36, "vel": 100, "len": 2}, {"step": 4, "note": 36, "vel": 100, "len": 2}]}, {"bar": 27, "events": [{"step": 0, "note": 36, "vel": 100, "len": 2}, {"step": 4, "note": 36, "vel": 100, "len": 2}]}, {"bar": 28, "events": [{"step": 0, "note": 36, "vel": 100, "len": 2}, {"step": 4, "note": 36, "vel": 100, "len": 2}]}, {"bar": 29, "events": [{"step": 0, "note": 36, "vel": 100, "len": 2}, {"step": 4, "note": 36, "vel": 100, "len": 2}]}, {"bar": 30, "events": [{"step": 0, "note": 36, "vel": 100, "len": 2}, {"step": 4, "note": 36, "vel": 100, "len": 2}]}, {"bar": 31, "events": [{"step": 0, "note": 36, "vel": 100, "len": 2}]}]}, "pattern": [{"bar": 0, "events": [{"step": 0, "note": 36, "vel": 100, "len": 2}, {"step": 4, "note": 36, "vel": 100, "len": 2}]}, {"bar": 1, "events": [{"step": 0, "note": 36, "vel": 100, "len": 2}, {"step": 4, "note": 36, "vel": 100, "len": 2}]}, {"bar": 2, "events": [{"step": 0, "note": 36, "vel": 100, "len": 2}, {"step": 4, "note": 36, "vel": 100, "len": 2}]}, {"bar": 3, "events": [{"step": 0, "note": 36, "vel": 100, "len": 2}, {"step": 4, "note": 36, "vel": 100, "len": 2}]}, {"bar": 4, "events": [{"step": 0, "note": 36, "vel": 100, "len": 2}, {"step": 4, "note": 36, "vel": 100, "len": 2}]}, {"bar": 5, "events": [{"step": 0, "note": 36, "vel": 100, "len": 2}, {"step": 4, "note": 36, "vel": 100, "len": 2}]}, {"bar": 6, "events": [{"step": 0, "note": 36, "vel": 100, "len": 2}, {"step": 4, "note": 36, "vel": 100, "len": 2}]}, {"bar": 7, "events": [{"step": 0, "note": 36, "vel": 100, "len": 2}]}, {"bar": 8, "events": [{"step": 0, "note": 36, "vel": 100, "len": 2}, {"step": 4, "note": 36, "vel": 100, "len": 2}]}, {"bar": 9, "events": [{"step": 0, "note": 36, "vel": 100, "len": 2}, {"step": 4, "note": 36, "vel": 100, "len": 2}]}, {"bar": 10, "events": [{"step": 0, "note": 36, "vel": 100, "len": 2}, {"step": 4, "note": 36, "vel": 100, "len": 2}]}, {"bar": 11, "events": [{"step": 0, "note": 36, "vel": 100, "len": 2}, {"step": 4, "note": 36, "vel": 100, "len": 2}]}, {"bar": 12, "events": [{"step": 0, "note": 36, "vel": 100, "len": 2}, {"step": 4, "note": 36, "vel": 100, "len": 2}]}, {"bar": 13, "events": [{"step": 0, "note": 36, "vel": 100, "len": 2}, {"step": 4, "note": 36, "vel": 100, "len": 2}]}, {"bar": 14, "events": [{"step": 0, "note": 36, "vel": 100, "len": 2}, {"step": 4, "note": 36, "vel": 100, "len": 2}]}, {"bar": 15, "events": [{"step": 0, "note": 36, "vel": 100, "len": 2}]}, {"bar": 16, "events": [{"step": 0, "note": 36, "vel": 100, "len": 2}, {"step": 4, "note": 36, "vel": 100, "len": 2}]}, {"bar": 17, "events": [{"step": 0, "note": 36, "vel": 100, "len": 2}, {"step": 4, "note": 36, "vel": 100, "len": 2}]}, {"bar": 18, "events": [{"step": 0, "note": 36, "vel": 100, "len": 2}, {"step": 4, "note": 36, "vel": 100, "len": 2}]}, {"bar": 19, "events": [{"step": 0, "note": 36, "vel": 100, "len": 2}, {"step": 4, "note": 36, "vel": 100, "len": 2}]}, {"bar": 20, "events": [{"step": 0, "note": 36, "vel": 100, "len": 2}, {"step": 4, "note": 36, "vel": 100, "len": 2}]}, {"bar": 21, "events": [{"step": 0, "note": 36, "vel": 100, "len": 2}, {"step": 4, "note": 36, "vel": 100, "len": 2}]}, {"bar": 22, "events": [{"step": 0, "note": 36, "vel": 100, "len": 2}, {"step": 4, "note": 36, "vel": 100, "len": 2}]}, {"bar": 23, "events": [{"step": 0, "note": 36, "vel": 100, "len": 2}]}, {"bar": 24, "events": [{"step": 0, "note": 36, "vel": 100, "len": 2}, {"step": 4, "note": 36, "vel": 100, "len": 2}]}, {"bar": 25, "events": [{"step": 0, "note": 36, "vel": 100, "len": 2}, {"step": 4, "note": 36, "vel": 100, "len": 2}]}, {"bar": 26, "events": [{"step": 0, "note": 36, "vel": 100, "len": 2}, {"step": 4, "note": 36, "vel": 100, "len": 2}]}, {"bar": 27, "events": [{"step": 0, "note": 36, "vel": 100, "len": 2}, {"step": 4, "note": 36, "vel": 100, "len": 2}]}, {"bar": 28, "events": [{"step": 0, "note": 36, "vel": 100, "len": 2}, {"step": 4, "note": 36, "vel": 100, "len": 2}]}, {"bar": 29, "events": [{"step": 0, "note": 36, "vel": 100, "len": 2}, {"step": 4, "note": 36, "vel": 100, "len": 2}]}, {"bar": 30, "events": [{"step": 0, "note": 36, "vel": 100, "len": 2}, {"step": 4, "note": 36, "vel": 100, "len": 2}]}, {"bar": 31, "events": [{"step": 0, "note": 36, "vel": 100, "len": 2}]}]}