{"Kick": {"meta": {"style": "Rock", "mood": "Energetic", "tempo": 130, "key": "E Minor", "scale": "Natural Minor", "meter": "4/4", "bars": 32, "length_seconds": 60.0, "dynamic_profile": "Moderate to Intense", "arrangement_density": "Medium to High", "harmonic_color": "Distorted, Power Chords", "instruments": ["Bass Guitar", "Electric Guitar", "Kick", "Snare", "Hat", "Ride", "Crash"], "instrument_configs": [{"name": "Bass Guitar", "register": "Low", "role": "Bass", "articulation": "Sustain", "dynamic_range": "Moderate"}, {"name": "Electric Guitar", "register": "Full", "role": "Rhythm/Lead", "articulation": "Distorted, Sustained", "dynamic_range": "Intense"}, {"name": "Kick", "register": "Low", "role": "Percussion", "articulation": "Percussive", "dynamic_range": "Moderate"}, {"name": "Snare", "register": "Mid", "role": "Percussion", "articulation": "Percussive", "dynamic_range": "Moderate"}, {"name": "Hat", "register": "High", "role": "Percussion", "articulation": "Percussive", "dynamic_range": "Moderate"}, {"name": "Ride", "register": "High", "role": "Percussion", "articulation": "Sustain", "dynamic_range": "Moderate"}, {"name": "Crash", "register": "High", "role": "Percussion", "articulation": "Percussive", "dynamic_range": "Intense"}], "seed": null, "instrument": "Kick"}, "layers": {"Kick": [{"bar": 0, "events": [{"step": 0, "note": 36, "vel": 100, "len": 2}, {"step": 4, "note": 36, "vel": 100, "len": 2}]}, {"bar": 1, "events": [{"step": 0, "note": 36, "vel": 100, "len": 2}, {"step": 4, "note": 36, "vel": 100, "len": 2}]}, {"bar": 2, "events": [{"step": 0, "note": 36, "vel": 100, "len": 2}, {"step": 4, "note": 36, "vel": 100, "len": 2}]}, {"bar": 3, "events": [{"step": 0, "note": 36, "vel": 100, "len": 2}, {"step": 4, "note": 36, "vel": 100, "len": 2}]}, {"bar": 4, "events": [{"step": 0, "note": 36, "vel": 100, "len": 2}, {"step": 4, "note": 36, "vel": 100, "len": 2}]}, {"bar": 5, "events": [{"step": 0, "note": 36, "vel": 100, "len": 2}, {"step": 4, "note": 36, "vel": 100, "len": 2}]}, {"bar": 6, "events": [{"step": 0, "note": 36, "vel": 100, "len": 2}, {"step": 4, "note": 36, "vel": 100, "len": 2}]}, {"bar": 7, "events": [{"step": 0, "note": 36, "vel": 100, "len": 2}]}, {"bar": 8, "events": [{"step": 0, "note": 36, "vel": 100, "len": 2}, {"step": 4, "note": 36, "vel": 100, "len": 2}]}, {"bar": 9, "events": [{"step": 0, "note": 36, "vel": 100, "len": 2}, {"step": 4, "note": 36, "vel": 100, "len": 2}]}, {"bar": 10, "events": [{"step": 0, "note": 36, "vel": 100, "len": 2}, {"step": 4, "note": 36, "vel": 100, "len": 2}]}, {"bar": 11, "events": [{"step": 0, "note": 36, "vel": 100, "len": 2}, {"step": 4, "note": 36, "vel": 100, "len": 2}]}, {"bar": 12, "events": [{"step": 0, "note": 36, "vel": 100, "len": 2}, {"step": 4, "note": 36, "vel": 100, "len": 2}]}, {"bar": 13, "events": [{"step": 0, "note": 36, "vel": 100, "len": 2}, {"step": 4, "note": 36, "vel": 100, "len": 2}]}, {"bar": 14, "events": [{"step": 0, "note": 36, "vel": 100, "len": 2}, {"step": 4, "note": 36, "vel": 100, "len": 2}]}, {"bar": 15, "events": [{"step": 0, "note": 36, "vel": 100, "len": 2}]}, {"bar": 16, "events": [{"step": 0, "note": 36, "vel": 100, "len": 2}, {"step": 4, "note": 36, "vel": 100, "len": 2}]}, {"bar": 17, "events": [{"step": 0, "note": 36, "vel": 100, "len": 2}, {"step": 4, "note": 36, "vel": 100, "len": 2}]}, {"bar": 18, "events": [{"step": 0, "note": 36, "vel": 100, "len": 2}, {"step": 4, "note": 36, "vel": 100, "len": 2}]}, {"bar": 19, "events": [{"step": 0, "note": 36, "vel": 100, "len": 2}, {"step": 4, "note": 36, "vel": 100, "len": 2}]}, {"bar": 20, "events": [{"step": 0, "note": 36, "vel": 100, "len": 2}, {"step": 4, "note": 36, "vel": 100, "len": 2}]}, {"bar": 21, "events": [{"step": 0, "note": 36, "vel": 100, "len": 2}, {"step": 4, "note": 36, "vel": 100, "len": 2}]}, {"bar": 22, "events": [{"step": 0, "note": 36, "vel": 100, "len": 2}, {"step": 4, "note": 36, "vel": 100, "len": 2}]}, {"bar": 23, "events": [{"step": 0, "note": 36, "vel": 100, "len": 2}]}, {"bar": 24, "events": [{"step": 0, "note": 36, "vel": 100, "len": 2}, {"step": 4, "note": 36, "vel": 100, "len": 2}]}, {"bar": 25, "events": [{"step": 0, "note": 36, "vel": 100, "len": 2}, {"step": 4, "note": 36, "vel": 100, "len": 2}]}, {"bar": 26, "events": [{"step": 0, "note": 36, "vel": 100, "len": 2}, {"step": 4, "note": 36, "vel": 100, "len": 2}]}, {"bar": 27, "events": [{"step": 0, "note": 36, "vel": 100, "len": 2}, {"step": 4, "note": 36, "vel": 100, "len": 2}]}, {"bar": 28, "events": [{"step": 0, "note": 36, "vel": 100, "len": 2}, {"step": 4, "note": 36, "vel": 100, "len": 2}]}, {"bar": 29, "events": [{"step": 0, "note": 36, "vel": 100, "len": 2}, {"step": 4, "note": 36, "vel": 100, "len": 2}]}, {"bar": 30, "events": [{"step": 0, "note": 36, "vel": 100, "len": 2}, {"step": 4, "note": 36, "vel": 100, "len": 2}]}, {"bar": 31, "events": [{"step": 0, "note": 36, "vel": 100, "len": 2}]}]}, "pattern": [{"bar": 0, "events": [{"step": 0, "note": 36, "vel": 100, "len": 2}, {"step": 4, "note": 36, "vel": 100, "len": 2}]}, {"bar": 1, "events": [{"step": 0, "note": 36, "vel": 100, "len": 2}, {"step": 4, "note": 36, "vel": 100, "len": 2}]}, {"bar": 2, "events": [{"step": 0, "note": 36, "vel": 100, "len": 2}, {"step": 4, "note": 36, "vel": 100, "len": 2}]}, {"bar": 3, "events": [{"step": 0, "note": 36, "vel": 100, "len": 2}, {"step": 4, "note": 36, "vel": 100, "len": 2}]}, {"bar": 4, "events": [{"step": 0, "note": 36, "vel": 100, "len": 2}, {"step": 4, "note": 36, "vel": 100, "len": 2}]}, {"bar": 5, "events": [{"step": 0, "note": 36, "vel": 100, "len": 2}, {"step": 4, "note": 36, "vel": 100, "len": 2}]}, {"bar": 6, "events": [{"step": 0, "note": 36, "vel": 100, "len": 2}, {"step": 4, "note": 36, "vel": 100, "len": 2}]}, {"bar": 7, "events": [{"step": 0, "note": 36, "vel": 100, "len": 2}]}, {"bar": 8, "events": [{"step": 0, "note": 36, "vel": 100, "len": 2}, {"step": 4, "note": 36, "vel": 100, "len": 2}]}, {"bar": 9, "events": [{"step": 0, "note": 36, "vel": 100, "len": 2}, {"step": 4, "note": 36, "vel": 100, "len": 2}]}, {"bar": 10, "events": [{"step": 0, "note": 36, "vel": 100, "len": 2}, {"step": 4, "note": 36, "vel": 100, "len": 2}]}, {"bar": 11, "events": [{"step": 0, "note": 36, "vel": 100, "len": 2}, {"step": 4, "note": 36, "vel": 100, "len": 2}]}, {"bar": 12, "events": [{"step": 0, "note": 36, "vel": 100, "len": 2}, {"step": 4, "note": 36, "vel": 100, "len": 2}]}, {"bar": 13, "events": [{"step": 0, "note": 36, "vel": 100, "len": 2}, {"step": 4, "note": 36, "vel": 100, "len": 2}]}, {"bar": 14, "events": [{"step": 0, "note": 36, "vel": 100, "len": 2}, {"step": 4, "note": 36, "vel": 100, "len": 2}]}, {"bar": 15, "events": [{"step": 0, "note": 36, "vel": 100, "len": 2}]}, {"bar": 16, "events": [{"step": 0, "note": 36, "vel": 100, "len": 2}, {"step": 4, "note": 36, "vel": 100, "len": 2}]}, {"bar": 17, "events": [{"step": 0, "note": 36, "vel": 100, "len": 2}, {"step": 4, "note": 36, "vel": 100, "len": 2}]}, {"bar": 18, "events": [{"step": 0, "note": 36, "vel": 100, "len": 2}, {"step": 4, "note": 36, "vel": 100, "len": 2}]}, {"bar": 19, "events": [{"step": 0, "note": 36, "vel": 100, "len": 2}, {"step": 4, "note": 36, "vel": 100, "len": 2}]}, {"bar": 20, "events": [{"step": 0, "note": 36, "vel": 100, "len": 2}, {"step": 4, "note": 36, "vel": 100, "len": 2}]}, {"bar": 21, "events": [{"step": 0, "note": 36, "vel": 100, "len": 2}, {"step": 4, "note": 36, "vel": 100, "len": 2}]}, {"bar": 22, "events": [{"step": 0, "note": 36, "vel": 100, "len": 2}, {"step": 4, "note": 36, "vel": 100, "len": 2}]}, {"bar": 23, "events": [{"step": 0, "note": 36, "vel": 100, "len": 2}]}, {"bar": 24, "events": [{"step": 0, "note": 36, "vel": 100, "len": 2}, {"step": 4, "note": 36, "vel": 100, "len": 2}]}, {"bar": 25, "events": [{"step": 0, "note": 36, "vel": 100, "len": 2}, {"step": 4, "note": 36, "vel": 100, "len": 2}]}, {"bar": 26, "events": [{"step": 0, "note": 36, "vel": 100, "len": 2}, {"step": 4, "note": 36, "vel": 100, "len": 2}]}, {"bar": 27, "events": [{"step": 0, "note": 36, "vel": 100, "len": 2}, {"step": 4, "note": 36, "vel": 100, "len": 2}]}, {"bar": 28, "events": [{"step": 0, "note": 36, "vel": 100, "len": 2}, {"step": 4, "note": 36, "vel": 100, "len": 2}]}, {"bar": 29, "events": [{"step": 0, "note": 36, "vel": 100, "len": 2}, {"step": 4, "note": 36, "vel": 100, "len": 2}]}, {"bar": 30, "events": [{"step": 0, "note": 36, "vel": 100, "len": 2}, {"step": 4, "note": 36, "vel": 100, "len": 2}]}, {"bar": 31, "events": [{"step": 0, "note": 36, "vel": 100, "len": 2}]}]}, "Snare": {"meta": {"style": "Rock", "mood": "Energetic", "tempo": 130, "key": "E Minor", "scale": "Natural Minor", "meter": "4/4", "bars": 32, "length_seconds": 60.0, "dynamic_profile": "Moderate to Intense", "arrangement_density": "Medium to High", "harmonic_color": "Distorted, Power Chords", "instruments": ["Bass Guitar", "Electric Guitar", "Kick", "Snare", "Hat", "Ride", "Crash"], "instrument_configs": [{"name": "Bass Guitar", "register": "Low", "role": "Bass", "articulation": "Sustain", "dynamic_range": "Moderate"}, {"name": "Electric Guitar", "register": "Full", "role": "Rhythm/Lead", "articulation": "Distorted, Sustained", "dynamic_range": "Intense"}, {"name": "Kick", "register": "Low", "role": "Percussion", "articulation": "Percussive", "dynamic_range": "Moderate"}, {"name": "Snare", "register": "Mid", "role": "Percussion", "articulation": "Percussive", "dynamic_range": "Moderate"}, {"name": "Hat", "register": "High", "role": "Percussion", "articulation": "Percussive", "dynamic_range": "Moderate"}, {"name": "Ride", "register": "High", "role": "Percussion", "articulation": "Sustain", "dynamic_range": "Moderate"}, {"name": "Crash", "register": "High", "role": "Percussion", "articulation": "Percussive", "dynamic_range": "Intense"}], "seed": null, "instrument": "Snare"}, "layers": {"Snare": [{"bar": 0, "events": [{"step": 2, "note": 38, "vel": 90, "len": 2}, {"step": 6, "note": 38, "vel": 90, "len": 2}]}, {"bar": 1, "events": [{"step": 2, "note": 38, "vel": 90, "len": 2}, {"step": 6, "note": 38, "vel": 90, "len": 2}]}, {"bar": 2, "events": [{"step": 2, "note": 38, "vel": 90, "len": 2}, {"step": 6, "note": 38, "vel": 90, "len": 2}]}, {"bar": 3, "events": [{"step": 2, "note": 38, "vel": 90, "len": 2}, {"step": 6, "note": 38, "vel": 90, "len": 2}]}, {"bar": 4, "events": [{"step": 2, "note": 38, "vel": 90, "len": 2}, {"step": 6, "note": 38, "vel": 90, "len": 2}]}, {"bar": 5, "events": [{"step": 2, "note": 38, "vel": 90, "len": 2}, {"step": 6, "note": 38, "vel": 90, "len": 2}]}, {"bar": 6, "events": [{"step": 2, "note": 38, "vel": 90, "len": 2}, {"step": 6, "note": 38, "vel": 90, "len": 2}]}, {"bar": 7, "events": [{"step": 2, "note": 38, "vel": 90, "len": 2}, {"step": 4, "note": 38, "vel": 95, "len": 1}, {"step": 5, "note": 38, "vel": 95, "len": 1}, {"step": 6, "note": 38, "vel": 95, "len": 1}, {"step": 7, "note": 38, "vel": 95, "len": 1}]}, {"bar": 8, "events": [{"step": 2, "note": 38, "vel": 90, "len": 2}, {"step": 6, "note": 38, "vel": 90, "len": 2}]}, {"bar": 9, "events": [{"step": 2, "note": 38, "vel": 90, "len": 2}, {"step": 6, "note": 38, "vel": 90, "len": 2}]}, {"bar": 10, "events": [{"step": 2, "note": 38, "vel": 90, "len": 2}, {"step": 6, "note": 38, "vel": 90, "len": 2}]}, {"bar": 11, "events": [{"step": 2, "note": 38, "vel": 90, "len": 2}, {"step": 6, "note": 38, "vel": 90, "len": 2}]}, {"bar": 12, "events": [{"step": 2, "note": 38, "vel": 90, "len": 2}, {"step": 6, "note": 38, "vel": 90, "len": 2}]}, {"bar": 13, "events": [{"step": 2, "note": 38, "vel": 90, "len": 2}, {"step": 6, "note": 38, "vel": 90, "len": 2}]}, {"bar": 14, "events": [{"step": 2, "note": 38, "vel": 90, "len": 2}, {"step": 6, "note": 38, "vel": 90, "len": 2}]}, {"bar": 15, "events": [{"step": 2, "note": 38, "vel": 90, "len": 2}, {"step": 4, "note": 38, "vel": 95, "len": 1}, {"step": 5, "note": 38, "vel": 95, "len": 1}, {"step": 6, "note": 38, "vel": 95, "len": 1}, {"step": 7, "note": 38, "vel": 95, "len": 1}]}, {"bar": 16, "events": [{"step": 2, "note": 38, "vel": 90, "len": 2}, {"step": 6, "note": 38, "vel": 90, "len": 2}]}, {"bar": 17, "events": [{"step": 2, "note": 38, "vel": 90, "len": 2}, {"step": 6, "note": 38, "vel": 90, "len": 2}]}, {"bar": 18, "events": [{"step": 2, "note": 38, "vel": 90, "len": 2}, {"step": 6, "note": 38, "vel": 90, "len": 2}]}, {"bar": 19, "events": [{"step": 2, "note": 38, "vel": 90, "len": 2}, {"step": 6, "note": 38, "vel": 90, "len": 2}]}, {"bar": 20, "events": [{"step": 2, "note": 38, "vel": 90, "len": 2}, {"step": 6, "note": 38, "vel": 90, "len": 2}]}, {"bar": 21, "events": [{"step": 2, "note": 38, "vel": 90, "len": 2}, {"step": 6, "note": 38, "vel": 90, "len": 2}]}, {"bar": 22, "events": [{"step": 2, "note": 38, "vel": 90, "len": 2}, {"step": 6, "note": 38, "vel": 90, "len": 2}]}, {"bar": 23, "events": [{"step": 2, "note": 38, "vel": 90, "len": 2}, {"step": 4, "note": 38, "vel": 95, "len": 1}, {"step": 5, "note": 38, "vel": 95, "len": 1}, {"step": 6, "note": 38, "vel": 95, "len": 1}, {"step": 7, "note": 38, "vel": 95, "len": 1}]}, {"bar": 24, "events": [{"step": 2, "note": 38, "vel": 90, "len": 2}, {"step": 6, "note": 38, "vel": 90, "len": 2}]}, {"bar": 25, "events": [{"step": 2, "note": 38, "vel": 90, "len": 2}, {"step": 6, "note": 38, "vel": 90, "len": 2}]}, {"bar": 26, "events": [{"step": 2, "note": 38, "vel": 90, "len": 2}, {"step": 6, "note": 38, "vel": 90, "len": 2}]}, {"bar": 27, "events": [{"step": 2, "note": 38, "vel": 90, "len": 2}, {"step": 6, "note": 38, "vel": 90, "len": 2}]}, {"bar": 28, "events": [{"step": 2, "note": 38, "vel": 90, "len": 2}, {"step": 6, "note": 38, "vel": 90, "len": 2}]}, {"bar": 29, "events": [{"step": 2, "note": 38, "vel": 90, "len": 2}, {"step": 6, "note": 38, "vel": 90, "len": 2}]}, {"bar": 30, "events": [{"step": 2, "note": 38, "vel": 90, "len": 2}, {"step": 6, "note": 38, "vel": 90, "len": 2}]}, {"bar": 31, "events": [{"step": 2, "note": 38, "vel": 90, "len": 2}, {"step": 4, "note": 38, "vel": 95, "len": 1}, {"step": 5, "note": 38, "vel": 95, "len": 1}, {"step": 6, "note": 38, "vel": 95, "len": 1}, {"step": 7, "note": 38, "vel": 95, "len": 1}]}]}, "pattern": [{"bar": 0, "events": [{"step": 2, "note": 38, "vel": 90, "len": 2}, {"step": 6, "note": 38, "vel": 90, "len": 2}]}, {"bar": 1, "events": [{"step": 2, "note": 38, "vel": 90, "len": 2}, {"step": 6, "note": 38, "vel": 90, "len": 2}]}, {"bar": 2, "events": [{"step": 2, "note": 38, "vel": 90, "len": 2}, {"step": 6, "note": 38, "vel": 90, "len": 2}]}, {"bar": 3, "events": [{"step": 2, "note": 38, "vel": 90, "len": 2}, {"step": 6, "note": 38, "vel": 90, "len": 2}]}, {"bar": 4, "events": [{"step": 2, "note": 38, "vel": 90, "len": 2}, {"step": 6, "note": 38, "vel": 90, "len": 2}]}, {"bar": 5, "events": [{"step": 2, "note": 38, "vel": 90, "len": 2}, {"step": 6, "note": 38, "vel": 90, "len": 2}]}, {"bar": 6, "events": [{"step": 2, "note": 38, "vel": 90, "len": 2}, {"step": 6, "note": 38, "vel": 90, "len": 2}]}, {"bar": 7, "events": [{"step": 2, "note": 38, "vel": 90, "len": 2}, {"step": 4, "note": 38, "vel": 95, "len": 1}, {"step": 5, "note": 38, "vel": 95, "len": 1}, {"step": 6, "note": 38, "vel": 95, "len": 1}, {"step": 7, "note": 38, "vel": 95, "len": 1}]}, {"bar": 8, "events": [{"step": 2, "note": 38, "vel": 90, "len": 2}, {"step": 6, "note": 38, "vel": 90, "len": 2}]}, {"bar": 9, "events": [{"step": 2, "note": 38, "vel": 90, "len": 2}, {"step": 6, "note": 38, "vel": 90, "len": 2}]}, {"bar": 10, "events": [{"step": 2, "note": 38, "vel": 90, "len": 2}, {"step": 6, "note": 38, "vel": 90, "len": 2}]}, {"bar": 11, "events": [{"step": 2, "note": 38, "vel": 90, "len": 2}, {"step": 6, "note": 38, "vel": 90, "len": 2}]}, {"bar": 12, "events": [{"step": 2, "note": 38, "vel": 90, "len": 2}, {"step": 6, "note": 38, "vel": 90, "len": 2}]}, {"bar": 13, "events": [{"step": 2, "note": 38, "vel": 90, "len": 2}, {"step": 6, "note": 38, "vel": 90, "len": 2}]}, {"bar": 14, "events": [{"step": 2, "note": 38, "vel": 90, "len": 2}, {"step": 6, "note": 38, "vel": 90, "len": 2}]}, {"bar": 15, "events": [{"step": 2, "note": 38, "vel": 90, "len": 2}, {"step": 4, "note": 38, "vel": 95, "len": 1}, {"step": 5, "note": 38, "vel": 95, "len": 1}, {"step": 6, "note": 38, "vel": 95, "len": 1}, {"step": 7, "note": 38, "vel": 95, "len": 1}]}, {"bar": 16, "events": [{"step": 2, "note": 38, "vel": 90, "len": 2}, {"step": 6, "note": 38, "vel": 90, "len": 2}]}, {"bar": 17, "events": [{"step": 2, "note": 38, "vel": 90, "len": 2}, {"step": 6, "note": 38, "vel": 90, "len": 2}]}, {"bar": 18, "events": [{"step": 2, "note": 38, "vel": 90, "len": 2}, {"step": 6, "note": 38, "vel": 90, "len": 2}]}, {"bar": 19, "events": [{"step": 2, "note": 38, "vel": 90, "len": 2}, {"step": 6, "note": 38, "vel": 90, "len": 2}]}, {"bar": 20, "events": [{"step": 2, "note": 38, "vel": 90, "len": 2}, {"step": 6, "note": 38, "vel": 90, "len": 2}]}, {"bar": 21, "events": [{"step": 2, "note": 38, "vel": 90, "len": 2}, {"step": 6, "note": 38, "vel": 90, "len": 2}]}, {"bar": 22, "events": [{"step": 2, "note": 38, "vel": 90, "len": 2}, {"step": 6, "note": 38, "vel": 90, "len": 2}]}, {"bar": 23, "events": [{"step": 2, "note": 38, "vel": 90, "len": 2}, {"step": 4, "note": 38, "vel": 95, "len": 1}, {"step": 5, "note": 38, "vel": 95, "len": 1}, {"step": 6, "note": 38, "vel": 95, "len": 1}, {"step": 7, "note": 38, "vel": 95, "len": 1}]}, {"bar": 24, "events": [{"step": 2, "note": 38, "vel": 90, "len": 2}, {"step": 6, "note": 38, "vel": 90, "len": 2}]}, {"bar": 25, "events": [{"step": 2, "note": 38, "vel": 90, "len": 2}, {"step": 6, "note": 38, "vel": 90, "len": 2}]}, {"bar": 26, "events": [{"step": 2, "note": 38, "vel": 90, "len": 2}, {"step": 6, "note": 38, "vel": 90, "len": 2}]}, {"bar": 27, "events": [{"step": 2, "note": 38, "vel": 90, "len": 2}, {"step": 6, "note": 38, "vel": 90, "len": 2}]}, {"bar": 28, "events": [{"step": 2, "note": 38, "vel": 90, "len": 2}, {"step": 6, "note": 38, "vel": 90, "len": 2}]}, {"bar": 29, "events": [{"step": 2, "note": 38, "vel": 90, "len": 2}, {"step": 6, "note": 38, "vel": 90, "len": 2}]}, {"bar": 30, "events": [{"step": 2, "note": 38, "vel": 90, "len": 2}, {"step": 6, "note": 38, "vel": 90, "len": 2}]}, {"bar": 31, "events": [{"step": 2, "note": 38, "vel": 90, "len": 2}, {"step": 4, "note": 38, "vel": 95, "len": 1}, {"step": 5, "note": 38, "vel": 95, "len": 1}, {"step": 6, "note": 38, "vel": 95, "len": 1}, {"step": 7, "note": 38, "vel": 95, "len": 1}]}]}, "Hat": {"meta": {"style": "Rock", "mood": "Energetic", "tempo": 130, "key": "E Minor", "scale": "Natural Minor", "meter": "4/4", "bars": 32, "length_seconds": 60.0, "dynamic_profile": "Moderate to Intense", "arrangement_density": "Medium to High", "harmonic_color": "Distorted, Power Chords", "instruments": ["Bass Guitar", "Electric Guitar", "Kick", "Snare", "Hat", "Ride", "Crash"], "instrument_configs": [{"name": "Bass Guitar", "register": "Low", "role": "Bass", "articulation": "Sustain", "dynamic_range": "Moderate"}, {"name": "Electric Guitar", "register": "Full", "role": "Rhythm/Lead", "articulation": "Distorted, Sustained", "dynamic_range": "Intense"}, {"name": "Kick", "register": "Low", "role": "Percussion", "articulation": "Percussive", "dynamic_range": "Moderate"}, {"name": "Snare", "register": "Mid", "role": "Percussion", "articulation": "Percussive", "dynamic_range": "Moderate"}, {"name": "Hat", "register": "High", "role": "Percussion", "articulation": "Percussive", "dynamic_range": "Moderate"}, {"name": "Ride", "register": "High", "role": "Percussion", "articulation": "Sustain", "dynamic_range": "Moderate"}, {"name": "Crash", "register": "High", "role": "Percussion", "articulation": "Percussive", "dynamic_range": "Intense"}], "seed": null, "instrument": "Hat"}, "layers": {"Hat": [{"bar": 0, "events": [{"step": 0, "note": 42, "vel": 75, "len": 1}, {"step": 1, "note": 42, "vel": 70, "len": 1}, {"step": 2, "note": 42, "vel": 75, "len": 1}, {"step": 3, "note": 42, "vel": 70, "len": 1}, {"step": 4, "note": 42, "vel": 75, "len": 1}, {"step": 5, "note": 42, "vel": 70, "len": 1}, {"step": 6, "note": 42, "vel": 75, "len": 1}, {"step": 7, "note": 42, "vel": 70, "len": 1}]}, {"bar": 1, "events": [{"step": 0, "note": 42, "vel": 75, "len": 1}, {"step": 1, "note": 42, "vel": 70, "len": 1}, {"step": 2, "note": 42, "vel": 75, "len": 1}, {"step": 3, "note": 42, "vel": 70, "len": 1}, {"step": 4, "note": 42, "vel": 75, "len": 1}, {"step": 5, "note": 42, "vel": 70, "len": 1}, {"step": 6, "note": 42, "vel": 75, "len": 1}, {"step": 7, "note": 42, "vel": 70, "len": 1}]}, {"bar": 2, "events": [{"step": 0, "note": 42, "vel": 75, "len": 1}, {"step": 1, "note": 42, "vel": 70, "len": 1}, {"step": 2, "note": 42, "vel": 75, "len": 1}, {"step": 3, "note": 42, "vel": 70, "len": 1}, {"step": 4, "note": 42, "vel": 75, "len": 1}, {"step": 5, "note": 42, "vel": 70, "len": 1}, {"step": 6, "note": 42, "vel": 75, "len": 1}, {"step": 7, "note": 42, "vel": 70, "len": 1}]}, {"bar": 3, "events": [{"step": 0, "note": 42, "vel": 75, "len": 1}, {"step": 1, "note": 42, "vel": 70, "len": 1}, {"step": 2, "note": 42, "vel": 75, "len": 1}, {"step": 3, "note": 42, "vel": 70, "len": 1}, {"step": 4, "note": 42, "vel": 75, "len": 1}, {"step": 5, "note": 42, "vel": 70, "len": 1}, {"step": 6, "note": 42, "vel": 75, "len": 1}, {"step": 7, "note": 42, "vel": 70, "len": 1}]}, {"bar": 4, "events": [{"step": 0, "note": 42, "vel": 75, "len": 1}, {"step": 1, "note": 42, "vel": 70, "len": 1}, {"step": 2, "note": 42, "vel": 75, "len": 1}, {"step": 3, "note": 42, "vel": 70, "len": 1}, {"step": 4, "note": 42, "vel": 75, "len": 1}, {"step": 5, "note": 42, "vel": 70, "len": 1}, {"step": 6, "note": 42, "vel": 75, "len": 1}, {"step": 7, "note": 42, "vel": 70, "len": 1}]}, {"bar": 5, "events": [{"step": 0, "note": 42, "vel": 75, "len": 1}, {"step": 1, "note": 42, "vel": 70, "len": 1}, {"step": 2, "note": 42, "vel": 75, "len": 1}, {"step": 3, "note": 42, "vel": 70, "len": 1}, {"step": 4, "note": 42, "vel": 75, "len": 1}, {"step": 5, "note": 42, "vel": 70, "len": 1}, {"step": 6, "note": 42, "vel": 75, "len": 1}, {"step": 7, "note": 42, "vel": 70, "len": 1}]}, {"bar": 6, "events": [{"step": 0, "note": 42, "vel": 75, "len": 1}, {"step": 1, "note": 42, "vel": 70, "len": 1}, {"step": 2, "note": 42, "vel": 75, "len": 1}, {"step": 3, "note": 42, "vel": 70, "len": 1}, {"step": 4, "note": 42, "vel": 75, "len": 1}, {"step": 5, "note": 42, "vel": 70, "len": 1}, {"step": 6, "note": 42, "vel": 75, "len": 1}, {"step": 7, "note": 42, "vel": 70, "len": 1}]}, {"bar": 7, "events": [{"step": 0, "note": 42, "vel": 75, "len": 1}, {"step": 1, "note": 42, "vel": 70, "len": 1}, {"step": 2, "note": 42, "vel": 75, "len": 1}, {"step": 3, "note": 42, "vel": 70, "len": 1}]}, {"bar": 8, "events": [{"step": 0, "note": 42, "vel": 75, "len": 1}, {"step": 1, "note": 42, "vel": 70, "len": 1}, {"step": 2, "note": 42, "vel": 75, "len": 1}, {"step": 3, "note": 42, "vel": 70, "len": 1}, {"step": 4, "note": 42, "vel": 75, "len": 1}, {"step": 5, "note": 42, "vel": 70, "len": 1}, {"step": 6, "note": 42, "vel": 75, "len": 1}, {"step": 7, "note": 42, "vel": 70, "len": 1}]}, {"bar": 9, "events": [{"step": 0, "note": 42, "vel": 75, "len": 1}, {"step": 1, "note": 42, "vel": 70, "len": 1}, {"step": 2, "note": 42, "vel": 75, "len": 1}, {"step": 3, "note": 42, "vel": 70, "len": 1}, {"step": 4, "note": 42, "vel": 75, "len": 1}, {"step": 5, "note": 42, "vel": 70, "len": 1}, {"step": 6, "note": 42, "vel": 75, "len": 1}, {"step": 7, "note": 42, "vel": 70, "len": 1}]}, {"bar": 10, "events": [{"step": 0, "note": 42, "vel": 75, "len": 1}, {"step": 1, "note": 42, "vel": 70, "len": 1}, {"step": 2, "note": 42, "vel": 75, "len": 1}, {"step": 3, "note": 42, "vel": 70, "len": 1}, {"step": 4, "note": 42, "vel": 75, "len": 1}, {"step": 5, "note": 42, "vel": 70, "len": 1}, {"step": 6, "note": 42, "vel": 75, "len": 1}, {"step": 7, "note": 42, "vel": 70, "len": 1}]}, {"bar": 11, "events": [{"step": 0, "note": 42, "vel": 75, "len": 1}, {"step": 1, "note": 42, "vel": 70, "len": 1}, {"step": 2, "note": 42, "vel": 75, "len": 1}, {"step": 3, "note": 42, "vel": 70, "len": 1}, {"step": 4, "note": 42, "vel": 75, "len": 1}, {"step": 5, "note": 42, "vel": 70, "len": 1}, {"step": 6, "note": 42, "vel": 75, "len": 1}, {"step": 7, "note": 42, "vel": 70, "len": 1}]}, {"bar": 12, "events": [{"step": 0, "note": 42, "vel": 75, "len": 1}, {"step": 1, "note": 42, "vel": 70, "len": 1}, {"step": 2, "note": 42, "vel": 75, "len": 1}, {"step": 3, "note": 42, "vel": 70, "len": 1}, {"step": 4, "note": 42, "vel": 75, "len": 1}, {"step": 5, "note": 42, "vel": 70, "len": 1}, {"step": 6, "note": 42, "vel": 75, "len": 1}, {"step": 7, "note": 42, "vel": 70, "len": 1}]}, {"bar": 13, "events": [{"step": 0, "note": 42, "vel": 75, "len": 1}, {"step": 1, "note": 42, "vel": 70, "len": 1}, {"step": 2, "note": 42, "vel": 75, "len": 1}, {"step": 3, "note": 42, "vel": 70, "len": 1}, {"step": 4, "note": 42, "vel": 75, "len": 1}, {"step": 5, "note": 42, "vel": 70, "len": 1}, {"step": 6, "note": 42, "vel": 75, "len": 1}, {"step": 7, "note": 42, "vel": 70, "len": 1}]}, {"bar": 14, "events": [{"step": 0, "note": 42, "vel": 75, "len": 1}, {"step": 1, "note": 42, "vel": 70, "len": 1}, {"step": 2, "note": 42, "vel": 75, "len": 1}, {"step": 3, "note": 42, "vel": 70, "len": 1}, {"step": 4, "note": 42, "vel": 75, "len": 1}, {"step": 5, "note": 42, "vel": 70, "len": 1}, {"step": 6, "note": 42, "vel": 75, "len": 1}, {"step": 7, "note": 42, "vel": 70, "len": 1}]}, {"bar": 15, "events": [{"step": 0, "note": 42, "vel": 75, "len": 1}, {"step": 1, "note": 42, "vel": 70, "len": 1}, {"step": 2, "note": 42, "vel": 75, "len": 1}, {"step": 3, "note": 42, "vel": 70, "len": 1}]}, {"bar": 16, "events": []}, {"bar": 17, "events": []}, {"bar": 18, "events": []}, {"bar": 19, "events": []}, {"bar": 20, "events": []}, {"bar": 21, "events": []}, {"bar": 22, "events": []}, {"bar": 23, "events": []}, {"bar": 24, "events": [{"step": 0, "note": 42, "vel": 75, "len": 1}, {"step": 1, "note": 42, "vel": 70, "len": 1}, {"step": 2, "note": 42, "vel": 75, "len": 1}, {"step": 3, "note": 42, "vel": 70, "len": 1}, {"step": 4, "note": 42, "vel": 75, "len": 1}, {"step": 5, "note": 42, "vel": 70, "len": 1}, {"step": 6, "note": 42, "vel": 75, "len": 1}, {"step": 7, "note": 42, "vel": 70, "len": 1}]}, {"bar": 25, "events": [{"step": 0, "note": 42, "vel": 75, "len": 1}, {"step": 1, "note": 42, "vel": 70, "len": 1}, {"step": 2, "note": 42, "vel": 75, "len": 1}, {"step": 3, "note": 42, "vel": 70, "len": 1}, {"step": 4, "note": 42, "vel": 75, "len": 1}, {"step": 5, "note": 42, "vel": 70, "len": 1}, {"step": 6, "note": 42, "vel": 75, "len": 1}, {"step": 7, "note": 42, "vel": 70, "len": 1}]}, {"bar": 26, "events": [{"step": 0, "note": 42, "vel": 75, "len": 1}, {"step": 1, "note": 42, "vel": 70, "len": 1}, {"step": 2, "note": 42, "vel": 75, "len": 1}, {"step": 3, "note": 42, "vel": 70, "len": 1}, {"step": 4, "note": 42, "vel": 75, "len": 1}, {"step": 5, "note": 42, "vel": 70, "len": 1}, {"step": 6, "note": 42, "vel": 75, "len": 1}, {"step": 7, "note": 42, "vel": 70, "len": 1}]}, {"bar": 27, "events": [{"step": 0, "note": 42, "vel": 75, "len": 1}, {"step": 1, "note": 42, "vel": 70, "len": 1}, {"step": 2, "note": 42, "vel": 75, "len": 1}, {"step": 3, "note": 42, "vel": 70, "len": 1}, {"step": 4, "note": 42, "vel": 75, "len": 1}, {"step": 5, "note": 42, "vel": 70, "len": 1}, {"step": 6, "note": 42, "vel": 75, "len": 1}, {"step": 7, "note": 42, "vel": 70, "len": 1}]}, {"bar": 28, "events": [{"step": 0, "note": 42, "vel": 75, "len": 1}, {"step": 1, "note": 42, "vel": 70, "len": 1}, {"step": 2, "note": 42, "vel": 75, "len": 1}, {"step": 3, "note": 42, "vel": 70, "len": 1}, {"step": 4, "note": 42, "vel": 75, "len": 1}, {"step": 5, "note": 42, "vel": 70, "len": 1}, {"step": 6, "note": 42, "vel": 75, "len": 1}, {"step": 7, "note": 42, "vel": 70, "len": 1}]}, {"bar": 29, "events": [{"step": 0, "note": 42, "vel": 75, "len": 1}, {"step": 1, "note": 42, "vel": 70, "len": 1}, {"step": 2, "note": 42, "vel": 75, "len": 1}, {"step": 3, "note": 42, "vel": 70, "len": 1}, {"step": 4, "note": 42, "vel": 75, "len": 1}, {"step": 5, "note": 42, "vel": 70, "len": 1}, {"step": 6, "note": 42, "vel": 75, "len": 1}, {"step": 7, "note": 42, "vel": 70, "len": 1}]}, {"bar": 30, "events": [{"step": 0, "note": 42, "vel": 75, "len": 1}, {"step": 1, "note": 42, "vel": 70, "len": 1}, {"step": 2, "note": 42, "vel": 75, "len": 1}, {"step": 3, "note": 42, "vel": 70, "len": 1}, {"step": 4, "note": 42, "vel": 75, "len": 1}, {"step": 5, "note": 42, "vel": 70, "len": 1}, {"step": 6, "note": 42, "vel": 75, "len": 1}, {"step": 7, "note": 42, "vel": 70, "len": 1}]}, {"bar": 31, "events": [{"step": 0, "note": 42, "vel": 75, "len": 1}, {"step": 1, "note": 42, "vel": 70, "len": 1}, {"step": 2, "note": 42, "vel": 75, "len": 1}, {"step": 3, "note": 42, "vel": 70, "len": 1}]}]}, "pattern": [{"bar": 0, "events": [{"step": 0, "note": 42, "vel": 75, "len": 1}, {"step": 1, "note": 42, "vel": 70, "len": 1}, {"step": 2, "note": 42, "vel": 75, "len": 1}, {"step": 3, "note": 42, "vel": 70, "len": 1}, {"step": 4, "note": 42, "vel": 75, "len": 1}, {"step": 5, "note": 42, "vel": 70, "len": 1}, {"step": 6, "note": 42, "vel": 75, "len": 1}, {"step": 7, "note": 42, "vel": 70, "len": 1}]}, {"bar": 1, "events": [{"step": 0, "note": 42, "vel": 75, "len": 1}, {"step": 1, "note": 42, "vel": 70, "len": 1}, {"step": 2, "note": 42, "vel": 75, "len": 1}, {"step": 3, "note": 42, "vel": 70, "len": 1}, {"step": 4, "note": 42, "vel": 75, "len": 1}, {"step": 5, "note": 42, "vel": 70, "len": 1}, {"step": 6, "note": 42, "vel": 75, "len": 1}, {"step": 7, "note": 42, "vel": 70, "len": 1}]}, {"bar": 2, "events": [{"step": 0, "note": 42, "vel": 75, "len": 1}, {"step": 1, "note": 42, "vel": 70, "len": 1}, {"step": 2, "note": 42, "vel": 75, "len": 1}, {"step": 3, "note": 42, "vel": 70, "len": 1}, {"step": 4, "note": 42, "vel": 75, "len": 1}, {"step": 5, "note": 42, "vel": 70, "len": 1}, {"step": 6, "note": 42, "vel": 75, "len": 1}, {"step": 7, "note": 42, "vel": 70, "len": 1}]}, {"bar": 3, "events": [{"step": 0, "note": 42, "vel": 75, "len": 1}, {"step": 1, "note": 42, "vel": 70, "len": 1}, {"step": 2, "note": 42, "vel": 75, "len": 1}, {"step": 3, "note": 42, "vel": 70, "len": 1}, {"step": 4, "note": 42, "vel": 75, "len": 1}, {"step": 5, "note": 42, "vel": 70, "len": 1}, {"step": 6, "note": 42, "vel": 75, "len": 1}, {"step": 7, "note": 42, "vel": 70, "len": 1}]}, {"bar": 4, "events": [{"step": 0, "note": 42, "vel": 75, "len": 1}, {"step": 1, "note": 42, "vel": 70, "len": 1}, {"step": 2, "note": 42, "vel": 75, "len": 1}, {"step": 3, "note": 42, "vel": 70, "len": 1}, {"step": 4, "note": 42, "vel": 75, "len": 1}, {"step": 5, "note": 42, "vel": 70, "len": 1}, {"step": 6, "note": 42, "vel": 75, "len": 1}, {"step": 7, "note": 42, "vel": 70, "len": 1}]}, {"bar": 5, "events": [{"step": 0, "note": 42, "vel": 75, "len": 1}, {"step": 1, "note": 42, "vel": 70, "len": 1}, {"step": 2, "note": 42, "vel": 75, "len": 1}, {"step": 3, "note": 42, "vel": 70, "len": 1}, {"step": 4, "note": 42, "vel": 75, "len": 1}, {"step": 5, "note": 42, "vel": 70, "len": 1}, {"step": 6, "note": 42, "vel": 75, "len": 1}, {"step": 7, "note": 42, "vel": 70, "len": 1}]}, {"bar": 6, "events": [{"step": 0, "note": 42, "vel": 75, "len": 1}, {"step": 1, "note": 42, "vel": 70, "len": 1}, {"step": 2, "note": 42, "vel": 75, "len": 1}, {"step": 3, "note": 42, "vel": 70, "len": 1}, {"step": 4, "note": 42, "vel": 75, "len": 1}, {"step": 5, "note": 42, "vel": 70, "len": 1}, {"step": 6, "note": 42, "vel": 75, "len": 1}, {"step": 7, "note": 42, "vel": 70, "len": 1}]}, {"bar": 7, "events": [{"step": 0, "note": 42, "vel": 75, "len": 1}, {"step": 1, "note": 42, "vel": 70, "len": 1}, {"step": 2, "note": 42, "vel": 75, "len": 1}, {"step": 3, "note": 42, "vel": 70, "len": 1}]}, {"bar": 8, "events": [{"step": 0, "note": 42, "vel": 75, "len": 1}, {"step": 1, "note": 42, "vel": 70, "len": 1}, {"step": 2, "note": 42, "vel": 75, "len": 1}, {"step": 3, "note": 42, "vel": 70, "len": 1}, {"step": 4, "note": 42, "vel": 75, "len": 1}, {"step": 5, "note": 42, "vel": 70, "len": 1}, {"step": 6, "note": 42, "vel": 75, "len": 1}, {"step": 7, "note": 42, "vel": 70, "len": 1}]}, {"bar": 9, "events": [{"step": 0, "note": 42, "vel": 75, "len": 1}, {"step": 1, "note": 42, "vel": 70, "len": 1}, {"step": 2, "note": 42, "vel": 75, "len": 1}, {"step": 3, "note": 42, "vel": 70, "len": 1}, {"step": 4, "note": 42, "vel": 75, "len": 1}, {"step": 5, "note": 42, "vel": 70, "len": 1}, {"step": 6, "note": 42, "vel": 75, "len": 1}, {"step": 7, "note": 42, "vel": 70, "len": 1}]}, {"bar": 10, "events": [{"step": 0, "note": 42, "vel": 75, "len": 1}, {"step": 1, "note": 42, "vel": 70, "len": 1}, {"step": 2, "note": 42, "vel": 75, "len": 1}, {"step": 3, "note": 42, "vel": 70, "len": 1}, {"step": 4, "note": 42, "vel": 75, "len": 1}, {"step": 5, "note": 42, "vel": 70, "len": 1}, {"step": 6, "note": 42, "vel": 75, "len": 1}, {"step": 7, "note": 42, "vel": 70, "len": 1}]}, {"bar": 11, "events": [{"step": 0, "note": 42, "vel": 75, "len": 1}, {"step": 1, "note": 42, "vel": 70, "len": 1}, {"step": 2, "note": 42, "vel": 75, "len": 1}, {"step": 3, "note": 42, "vel": 70, "len": 1}, {"step": 4, "note": 42, "vel": 75, "len": 1}, {"step": 5, "note": 42, "vel": 70, "len": 1}, {"step": 6, "note": 42, "vel": 75, "len": 1}, {"step": 7, "note": 42, "vel": 70, "len": 1}]}, {"bar": 12, "events": [{"step": 0, "note": 42, "vel": 75, "len": 1}, {"step": 1, "note": 42, "vel": 70, "len": 1}, {"step": 2, "note": 42, "vel": 75, "len": 1}, {"step": 3, "note": 42, "vel": 70, "len": 1}, {"step": 4, "note": 42, "vel": 75, "len": 1}, {"step": 5, "note": 42, "vel": 70, "len": 1}, {"step": 6, "note": 42, "vel": 75, "len": 1}, {"step": 7, "note": 42, "vel": 70, "len": 1}]}, {"bar": 13, "events": [{"step": 0, "note": 42, "vel": 75, "len": 1}, {"step": 1, "note": 42, "vel": 70, "len": 1}, {"step": 2, "note": 42, "vel": 75, "len": 1}, {"step": 3, "note": 42, "vel": 70, "len": 1}, {"step": 4, "note": 42, "vel": 75, "len": 1}, {"step": 5, "note": 42, "vel": 70, "len": 1}, {"step": 6, "note": 42, "vel": 75, "len": 1}, {"step": 7, "note": 42, "vel": 70, "len": 1}]}, {"bar": 14, "events": [{"step": 0, "note": 42, "vel": 75, "len": 1}, {"step": 1, "note": 42, "vel": 70, "len": 1}, {"step": 2, "note": 42, "vel": 75, "len": 1}, {"step": 3, "note": 42, "vel": 70, "len": 1}, {"step": 4, "note": 42, "vel": 75, "len": 1}, {"step": 5, "note": 42, "vel": 70, "len": 1}, {"step": 6, "note": 42, "vel": 75, "len": 1}, {"step": 7, "note": 42, "vel": 70, "len": 1}]}, {"bar": 15, "events": [{"step": 0, "note": 42, "vel": 75, "len": 1}, {"step": 1, "note": 42, "vel": 70, "len": 1}, {"step": 2, "note": 42, "vel": 75, "len": 1}, {"step": 3, "note": 42, "vel": 70, "len": 1}]}, {"bar": 16, "events": []}, {"bar": 17, "events": []}, {"bar": 18, "events": []}, {"bar": 19, "events": []}, {"bar": 20, "events": []}, {"bar": 21, "events": []}, {"bar": 22, "events": []}, {"bar": 23, "events": []}, {"bar": 24, "events": [{"step": 0, "note": 42, "vel": 75, "len": 1}, {"step": 1, "note": 42, "vel": 70, "len": 1}, {"step": 2, "note": 42, "vel": 75, "len": 1}, {"step": 3, "note": 42, "vel": 70, "len": 1}, {"step": 4, "note": 42, "vel": 75, "len": 1}, {"step": 5, "note": 42, "vel": 70, "len": 1}, {"step": 6, "note": 42, "vel": 75, "len": 1}, {"step": 7, "note": 42, "vel": 70, "len": 1}]}, {"bar": 25, "events": [{"step": 0, "note": 42, "vel": 75, "len": 1}, {"step": 1, "note": 42, "vel": 70, "len": 1}, {"step": 2, "note": 42, "vel": 75, "len": 1}, {"step": 3, "note": 42, "vel": 70, "len": 1}, {"step": 4, "note": 42, "vel": 75, "len": 1}, {"step": 5, "note": 42, "vel": 70, "len": 1}, {"step": 6, "note": 42, "vel": 75, "len": 1}, {"step": 7, "note": 42, "vel": 70, "len": 1}]}, {"bar": 26, "events": [{"step": 0, "note": 42, "vel": 75, "len": 1}, {"step": 1, "note": 42, "vel": 70, "len": 1}, {"step": 2, "note": 42, "vel": 75, "len": 1}, {"step": 3, "note": 42, "vel": 70, "len": 1}, {"step": 4, "note": 42, "vel": 75, "len": 1}, {"step": 5, "note": 42, "vel": 70, "len": 1}, {"step": 6, "note": 42, "vel": 75, "len": 1}, {"step": 7, "note": 42, "vel": 70, "len": 1}]}, {"bar": 27, "events": [{"step": 0, "note": 42, "vel": 75, "len": 1}, {"step": 1, "note": 42, "vel": 70, "len": 1}, {"step": 2, "note": 42, "vel": 75, "len": 1}, {"step": 3, "note": 42, "vel": 70, "len": 1}, {"step": 4, "note": 42, "vel": 75, "len": 1}, {"step": 5, "note": 42, "vel": 70, "len": 1}, {"step": 6, "note": 42, "vel": 75, "len": 1}, {"step": 7, "note": 42, "vel": 70, "len": 1}]}, {"bar": 28, "events": [{"step": 0, "note": 42, "vel": 75, "len": 1}, {"step": 1, "note": 42, "vel": 70, "len": 1}, {"step": 2, "note": 42, "vel": 75, "len": 1}, {"step": 3, "note": 42, "vel": 70, "len": 1}, {"step": 4, "note": 42, "vel": 75, "len": 1}, {"step": 5, "note": 42, "vel": 70, "len": 1}, {"step": 6, "note": 42, "vel": 75, "len": 1}, {"step": 7, "note": 42, "vel": 70, "len": 1}]}, {"bar": 29, "events": [{"step": 0, "note": 42, "vel": 75, "len": 1}, {"step": 1, "note": 42, "vel": 70, "len": 1}, {"step": 2, "note": 42, "vel": 75, "len": 1}, {"step": 3, "note": 42, "vel": 70, "len": 1}, {"step": 4, "note": 42, "vel": 75, "len": 1}, {"step": 5, "note": 42, "vel": 70, "len": 1}, {"step": 6, "note": 42, "vel": 75, "len": 1}, {"step": 7, "note": 42, "vel": 70, "len": 1}]}, {"bar": 30, "events": [{"step": 0, "note": 42, "vel": 75, "len": 1}, {"step": 1, "note": 42, "vel": 70, "len": 1}, {"step": 2, "note": 42, "vel": 75, "len": 1}, {"step": 3, "note": 42, "vel": 70, "len": 1}, {"step": 4, "note": 42, "vel": 75, "len": 1}, {"step": 5, "note": 42, "vel": 70, "len": 1}, {"step": 6, "note": 42, "vel": 75, "len": 1}, {"step": 7, "note": 42, "vel": 70, "len": 1}]}, {"bar": 31, "events": [{"step": 0, "note": 42, "vel": 75, "len": 1}, {"step": 1, "note": 42, "vel": 70, "len": 1}, {"step": 2, "note": 42, "vel": 75, "len": 1}, {"step": 3, "note": 42, "vel": 70, "len": 1}]}]}, "Ride": {"meta": {"style": "Rock", "mood": "Energetic", "tempo": 130, "key": "E Minor", "scale": "Natural Minor", "meter": "4/4", "bars": 32, "length_seconds": 60.0, "dynamic_profile": "Moderate to Intense", "arrangement_density": "Medium to High", "harmonic_color": "Distorted, Power Chords", "instruments": ["Bass Guitar", "Electric Guitar", "Kick", "Snare", "Hat", "Ride", "Crash"], "instrument_configs": [{"name": "Bass Guitar", "register": "Low", "role": "Bass", "articulation": "Sustain", "dynamic_range": "Moderate"}, {"name": "Electric Guitar", "register": "Full", "role": "Rhythm/Lead", "articulation": "Distorted, Sustained", "dynamic_range": "Intense"}, {"name": "Kick", "register": "Low", "role": "Percussion", "articulation": "Percussive", "dynamic_range": "Moderate"}, {"name": "Snare", "register": "Mid", "role": "Percussion", "articulation": "Percussive", "dynamic_range": "Moderate"}, {"name": "Hat", "register": "High", "role": "Percussion", "articulation": "Percussive", "dynamic_range": "Moderate"}, {"name": "Ride", "register": "High", "role": "Percussion", "articulation": "Sustain", "dynamic_range": "Moderate"}, {"name": "Crash", "register": "High", "role": "Percussion", "articulation": "Percussive", "dynamic_range": "Intense"}], "seed": null, "instrument": "Ride"}, "layers": {"Ride": [{"bar": 0, "events": []}, {"bar": 1, "events": []}, {"bar": 2, "events": []}, {"bar": 3, "events": []}, {"bar": 4, "events": []}, {"bar": 5, "events": []}, {"bar": 6, "events": []}, {"bar": 7, "events": []}, {"bar": 8, "events": []}, {"bar": 9, "events": []}, {"bar": 10, "events": []}, {"bar": 11, "events": []}, {"bar": 12, "events": []}, {"bar": 13, "events": []}, {"bar": 14, "events": []}, {"bar": 15, "events": []}, {"bar": 16, "events": [{"step": 0, "note": 51, "vel": 80, "len": 2}, {"step": 2, "note": 51, "vel": 75, "len": 2}, {"step": 4, "note": 51, "vel": 80, "len": 2}, {"step": 6, "note": 51, "vel": 75, "len": 2}]}, {"bar": 17, "events": [{"step": 0, "note": 51, "vel": 80, "len": 2}, {"step": 2, "note": 51, "vel": 75, "len": 2}, {"step": 4, "note": 51, "vel": 80, "len": 2}, {"step": 6, "note": 51, "vel": 75, "len": 2}]}, {"bar": 18, "events": [{"step": 0, "note": 51, "vel": 80, "len": 2}, {"step": 2, "note": 51, "vel": 75, "len": 2}, {"step": 4, "note": 51, "vel": 80, "len": 2}, {"step": 6, "note": 51, "vel": 75, "len": 2}]}, {"bar": 19, "events": [{"step": 0, "note": 51, "vel": 80, "len": 2}, {"step": 2, "note": 51, "vel": 75, "len": 2}, {"step": 4, "note": 51, "vel": 80, "len": 2}, {"step": 6, "note": 51, "vel": 75, "len": 2}]}, {"bar": 20, "events": [{"step": 0, "note": 51, "vel": 80, "len": 2}, {"step": 2, "note": 51, "vel": 75, "len": 2}, {"step": 4, "note": 51, "vel": 80, "len": 2}, {"step": 6, "note": 51, "vel": 75, "len": 2}]}, {"bar": 21, "events": [{"step": 0, "note": 51, "vel": 80, "len": 2}, {"step": 2, "note": 51, "vel": 75, "len": 2}, {"step": 4, "note": 51, "vel": 80, "len": 2}, {"step": 6, "note": 51, "vel": 75, "len": 2}]}, {"bar": 22, "events": [{"step": 0, "note": 51, "vel": 80, "len": 2}, {"step": 2, "note": 51, "vel": 75, "len": 2}, {"step": 4, "note": 51, "vel": 80, "len": 2}, {"step": 6, "note": 51, "vel": 75, "len": 2}]}, {"bar": 23, "events": [{"step": 0, "note": 51, "vel": 80, "len": 2}, {"step": 2, "note": 51, "vel": 75, "len": 2}]}, {"bar": 24, "events": []}, {"bar": 25, "events": []}, {"bar": 26, "events": []}, {"bar": 27, "events": []}, {"bar": 28, "events": []}, {"bar": 29, "events": []}, {"bar": 30, "events": []}, {"bar": 31, "events": []}]}, "pattern": [{"bar": 0, "events": []}, {"bar": 1, "events": []}, {"bar": 2, "events": []}, {"bar": 3, "events": []}, {"bar": 4, "events": []}, {"bar": 5, "events": []}, {"bar": 6, "events": []}, {"bar": 7, "events": []}, {"bar": 8, "events": []}, {"bar": 9, "events": []}, {"bar": 10, "events": []}, {"bar": 11, "events": []}, {"bar": 12, "events": []}, {"bar": 13, "events": []}, {"bar": 14, "events": []}, {"bar": 15, "events": []}, {"bar": 16, "events": [{"step": 0, "note": 51, "vel": 80, "len": 2}, {"step": 2, "note": 51, "vel": 75, "len": 2}, {"step": 4, "note": 51, "vel": 80, "len": 2}, {"step": 6, "note": 51, "vel": 75, "len": 2}]}, {"bar": 17, "events": [{"step": 0, "note": 51, "vel": 80, "len": 2}, {"step": 2, "note": 51, "vel": 75, "len": 2}, {"step": 4, "note": 51, "vel": 80, "len": 2}, {"step": 6, "note": 51, "vel": 75, "len": 2}]}, {"bar": 18, "events": [{"step": 0, "note": 51, "vel": 80, "len": 2}, {"step": 2, "note": 51, "vel": 75, "len": 2}, {"step": 4, "note": 51, "vel": 80, "len": 2}, {"step": 6, "note": 51, "vel": 75, "len": 2}]}, {"bar": 19, "events": [{"step": 0, "note": 51, "vel": 80, "len": 2}, {"step": 2, "note": 51, "vel": 75, "len": 2}, {"step": 4, "note": 51, "vel": 80, "len": 2}, {"step": 6, "note": 51, "vel": 75, "len": 2}]}, {"bar": 20, "events": [{"step": 0, "note": 51, "vel": 80, "len": 2}, {"step": 2, "note": 51, "vel": 75, "len": 2}, {"step": 4, "note": 51, "vel": 80, "len": 2}, {"step": 6, "note": 51, "vel": 75, "len": 2}]}, {"bar": 21, "events": [{"step": 0, "note": 51, "vel": 80, "len": 2}, {"step": 2, "note": 51, "vel": 75, "len": 2}, {"step": 4, "note": 51, "vel": 80, "len": 2}, {"step": 6, "note": 51, "vel": 75, "len": 2}]}, {"bar": 22, "events": [{"step": 0, "note": 51, "vel": 80, "len": 2}, {"step": 2, "note": 51, "vel": 75, "len": 2}, {"step": 4, "note": 51, "vel": 80, "len": 2}, {"step": 6, "note": 51, "vel": 75, "len": 2}]}, {"bar": 23, "events": [{"step": 0, "note": 51, "vel": 80, "len": 2}, {"step": 2, "note": 51, "vel": 75, "len": 2}]}, {"bar": 24, "events": []}, {"bar": 25, "events": []}, {"bar": 26, "events": []}, {"bar": 27, "events": []}, {"bar": 28, "events": []}, {"bar": 29, "events": []}, {"bar": 30, "events": []}, {"bar": 31, "events": []}]}, "Crash": {"meta": {"style": "Rock", "mood": "Energetic", "tempo": 130, "key": "E Minor", "scale": "Natural Minor", "meter": "4/4", "bars": 32, "length_seconds": 60.0, "dynamic_profile": "Moderate to Intense", "arrangement_density": "Medium to High", "harmonic_color": "Distorted, Power Chords", "instruments": ["Bass Guitar", "Electric Guitar", "Kick", "Snare", "Hat", "Ride", "Crash"], "instrument_configs": [{"name": "Bass Guitar", "register": "Low", "role": "Bass", "articulation": "Sustain", "dynamic_range": "Moderate"}, {"name": "Electric Guitar", "register": "Full", "role": "Rhythm/Lead", "articulation": "Distorted, Sustained", "dynamic_range": "Intense"}, {"name": "Kick", "register": "Low", "role": "Percussion", "articulation": "Percussive", "dynamic_range": "Moderate"}, {"name": "Snare", "register": "Mid", "role": "Percussion", "articulation": "Percussive", "dynamic_range": "Moderate"}, {"name": "Hat", "register": "High", "role": "Percussion", "articulation": "Percussive", "dynamic_range": "Moderate"}, {"name": "Ride", "register": "High", "role": "Percussion", "articulation": "Sustain", "dynamic_range": "Moderate"}, {"name": "Crash", "register": "High", "role": "Percussion", "articulation": "Percussive", "dynamic_range": "Intense"}], "seed": null, "instrument": "Crash"}, "layers": {"Crash": [{"bar": 0, "events": [{"step": 0, "note": 49, "vel": 110, "len": 8}]}, {"bar": 1, "events": []}, {"bar": 2, "events": []}, {"bar": 3, "events": []}, {"bar": 4, "events": []}, {"bar": 5, "events": []}, {"bar": 6, "events": []}, {"bar": 7, "events": []}, {"bar": 8, "events": [{"step": 0, "note": 49, "vel": 110, "len": 8}]}, {"bar": 9, "events": []}, {"bar": 10, "events": []}, {"bar": 11, "events": []}, {"bar": 12, "events": []}, {"bar": 13, "events": []}, {"bar": 14, "events": []}, {"bar": 15, "events": []}, {"bar": 16, "events": [{"step": 0, "note": 49, "vel": 115, "len": 8}]}, {"bar": 17, "events": []}, {"bar": 18, "events": []}, {"bar": 19, "events": []}, {"bar": 20, "events": []}, {"bar": 21, "events": []}, {"bar": 22, "events": []}, {"bar": 23, "events": []}, {"bar": 24, "events": [{"step": 0, "note": 49, "vel": 115, "len": 8}]}, {"bar": 25, "events": []}, {"bar": 26, "events": []}, {"bar": 27, "events": []}, {"bar": 28, "events": []}, {"bar": 29, "events": []}, {"bar": 30, "events": []}, {"bar": 31, "events": []}]}, "pattern": [{"bar": 0, "events": [{"step": 0, "note": 49, "vel": 110, "len": 8}]}, {"bar": 1, "events": []}, {"bar": 2, "events": []}, {"bar": 3, "events": []}, {"bar": 4, "events": []}, {"bar": 5, "events": []}, {"bar": 6, "events": []}, {"bar": 7, "events": []}, {"bar": 8, "events": [{"step": 0, "note": 49, "vel": 110, "len": 8}]}, {"bar": 9, "events": []}, {"bar": 10, "events": []}, {"bar": 11, "events": []}, {"bar": 12, "events": []}, {"bar": 13, "events": []}, {"bar": 14, "events": []}, {"bar": 15, "events": []}, {"bar": 16, "events": [{"step": 0, "note": 49, "vel": 115, "len": 8}]}, {"bar": 17, "events": []}, {"bar": 18, "events": []}, {"bar": 19, "events": []}, {"bar": 20, "events": []}, {"bar": 21, "events": []}, {"bar": 22, "events": []}, {"bar": 23, "events": []}, {"bar": 24, "events": [{"step": 0, "note": 49, "vel": 115, "len": 8}]}, {"bar": 25, "events": []}, {"bar": 26, "events": []}, {"bar": 27, "events": []}, {"bar": 28, "events": []}, {"bar": 29, "events": []}, {"bar": 30, "events": []}, {"bar": 31, "events": []}]}, "Bass Guitar": {"meta": {"style": "Rock", "mood": "Energetic", "tempo": 130, "key": "E Minor", "scale": "Natural Minor", "meter": "4/4", "bars": 32, "length_seconds": 60.0, "dynamic_profile": "Moderate to Intense", "arrangement_density": "Medium to High", "harmonic_color": "Distorted, Power Chords", "instruments": ["Bass Guitar", "Electric Guitar", "Kick", "Snare", "Hat", "Ride", "Crash"], "instrument_configs": [{"name": "Bass Guitar", "register": "Low", "role": "Bass", "articulation": "Sustain", "dynamic_range": "Moderate"}, {"name": "Electric Guitar", "register": "Full", "role": "Rhythm/Lead", "articulation": "Distorted, Sustained", "dynamic_range": "Intense"}, {"name": "Kick", "register": "Low", "role": "Percussion", "articulation": "Percussive", "dynamic_range": "Moderate"}, {"name": "Snare", "register": "Mid", "role": "Percussion", "articulation": "Percussive", "dynamic_range": "Moderate"}, {"name": "Hat", "register": "High", "role": "Percussion", "articulation": "Percussive", "dynamic_range": "Moderate"}, {"name": "Ride", "register": "High", "role": "Percussion", "articulation": "Sustain", "dynamic_range": "Moderate"}, {"name": "Crash", "register": "High", "role": "Percussion", "articulation": "Percussive", "dynamic_range": "Intense"}], "seed": null, "instrument": "Bass Guitar"}, "layers": {"Bass Guitar": [{"bar": 0, "events": [{"step": 0, "note": 40, "vel": 90, "len": 4}, {"step": 2, "note": 40, "vel": 85, "len": 2}, {"step": 4, "note": 40, "vel": 90, "len": 4}, {"step": 6, "note": 47, "vel": 85, "len": 2}]}, {"bar": 1, "events": [{"step": 0, "note": 48, "vel": 90, "len": 4}, {"step": 2, "note": 48, "vel": 85, "len": 2}, {"step": 4, "note": 48, "vel": 90, "len": 4}, {"step": 6, "note": 43, "vel": 85, "len": 2}]}, {"bar": 2, "events": [{"step": 0, "note": 43, "vel": 90, "len": 4}, {"step": 2, "note": 43, "vel": 85, "len": 2}, {"step": 4, "note": 43, "vel": 90, "len": 4}, {"step": 6, "note": 50, "vel": 85, "len": 2}]}, {"bar": 3, "events": [{"step": 0, "note": 50, "vel": 90, "len": 4}, {"step": 2, "note": 50, "vel": 85, "len": 2}, {"step": 4, "note": 50, "vel": 90, "len": 4}, {"step": 6, "note": 45, "vel": 85, "len": 2}]}, {"bar": 4, "events": [{"step": 0, "note": 40, "vel": 90, "len": 4}, {"step": 2, "note": 40, "vel": 85, "len": 2}, {"step": 4, "note": 40, "vel": 90, "len": 4}, {"step": 6, "note": 47, "vel": 85, "len": 2}]}, {"bar": 5, "events": [{"step": 0, "note": 48, "vel": 90, "len": 4}, {"step": 2, "note": 48, "vel": 85, "len": 2}, {"step": 4, "note": 48, "vel": 90, "len": 4}, {"step": 6, "note": 43, "vel": 85, "len": 2}]}, {"bar": 6, "events": [{"step": 0, "note": 43, "vel": 90, "len": 4}, {"step": 2, "note": 43, "vel": 85, "len": 2}, {"step": 4, "note": 43, "vel": 90, "len": 4}, {"step": 6, "note": 50, "vel": 85, "len": 2}]}, {"bar": 7, "events": [{"step": 0, "note": 50, "vel": 90, "len": 4}, {"step": 2, "note": 50, "vel": 85, "len": 2}, {"step": 4, "note": 50, "vel": 90, "len": 4}, {"step": 6, "note": 45, "vel": 85, "len": 2}]}, {"bar": 8, "events": [{"step": 0, "note": 40, "vel": 90, "len": 4}, {"step": 2, "note": 40, "vel": 85, "len": 2}, {"step": 4, "note": 40, "vel": 90, "len": 4}, {"step": 6, "note": 47, "vel": 85, "len": 2}]}, {"bar": 9, "events": [{"step": 0, "note": 48, "vel": 90, "len": 4}, {"step": 2, "note": 48, "vel": 85, "len": 2}, {"step": 4, "note": 48, "vel": 90, "len": 4}, {"step": 6, "note": 43, "vel": 85, "len": 2}]}, {"bar": 10, "events": [{"step": 0, "note": 43, "vel": 90, "len": 4}, {"step": 2, "note": 43, "vel": 85, "len": 2}, {"step": 4, "note": 43, "vel": 90, "len": 4}, {"step": 6, "note": 50, "vel": 85, "len": 2}]}, {"bar": 11, "events": [{"step": 0, "note": 50, "vel": 90, "len": 4}, {"step": 2, "note": 50, "vel": 85, "len": 2}, {"step": 4, "note": 50, "vel": 90, "len": 4}, {"step": 6, "note": 45, "vel": 85, "len": 2}]}, {"bar": 12, "events": [{"step": 0, "note": 40, "vel": 90, "len": 4}, {"step": 2, "note": 40, "vel": 85, "len": 2}, {"step": 4, "note": 40, "vel": 90, "len": 4}, {"step": 6, "note": 47, "vel": 85, "len": 2}]}, {"bar": 13, "events": [{"step": 0, "note": 48, "vel": 90, "len": 4}, {"step": 2, "note": 48, "vel": 85, "len": 2}, {"step": 4, "note": 48, "vel": 90, "len": 4}, {"step": 6, "note": 43, "vel": 85, "len": 2}]}, {"bar": 14, "events": [{"step": 0, "note": 43, "vel": 90, "len": 4}, {"step": 2, "note": 43, "vel": 85, "len": 2}, {"step": 4, "note": 43, "vel": 90, "len": 4}, {"step": 6, "note": 50, "vel": 85, "len": 2}]}, {"bar": 15, "events": [{"step": 0, "note": 50, "vel": 90, "len": 4}, {"step": 2, "note": 50, "vel": 85, "len": 2}, {"step": 4, "note": 50, "vel": 90, "len": 4}, {"step": 6, "note": 45, "vel": 85, "len": 2}]}, {"bar": 16, "events": [{"step": 0, "note": 40, "vel": 90, "len": 4}, {"step": 2, "note": 40, "vel": 85, "len": 2}, {"step": 4, "note": 40, "vel": 90, "len": 4}, {"step": 6, "note": 47, "vel": 85, "len": 2}]}, {"bar": 17, "events": [{"step": 0, "note": 48, "vel": 90, "len": 4}, {"step": 2, "note": 48, "vel": 85, "len": 2}, {"step": 4, "note": 48, "vel": 90, "len": 4}, {"step": 6, "note": 43, "vel": 85, "len": 2}]}, {"bar": 18, "events": [{"step": 0, "note": 43, "vel": 90, "len": 4}, {"step": 2, "note": 43, "vel": 85, "len": 2}, {"step": 4, "note": 43, "vel": 90, "len": 4}, {"step": 6, "note": 50, "vel": 85, "len": 2}]}, {"bar": 19, "events": [{"step": 0, "note": 50, "vel": 90, "len": 4}, {"step": 2, "note": 50, "vel": 85, "len": 2}, {"step": 4, "note": 50, "vel": 90, "len": 4}, {"step": 6, "note": 45, "vel": 85, "len": 2}]}, {"bar": 20, "events": [{"step": 0, "note": 40, "vel": 90, "len": 4}, {"step": 2, "note": 40, "vel": 85, "len": 2}, {"step": 4, "note": 40, "vel": 90, "len": 4}, {"step": 6, "note": 47, "vel": 85, "len": 2}]}, {"bar": 21, "events": [{"step": 0, "note": 48, "vel": 90, "len": 4}, {"step": 2, "note": 48, "vel": 85, "len": 2}, {"step": 4, "note": 48, "vel": 90, "len": 4}, {"step": 6, "note": 43, "vel": 85, "len": 2}]}, {"bar": 22, "events": [{"step": 0, "note": 43, "vel": 90, "len": 4}, {"step": 2, "note": 43, "vel": 85, "len": 2}, {"step": 4, "note": 43, "vel": 90, "len": 4}, {"step": 6, "note": 50, "vel": 85, "len": 2}]}, {"bar": 23, "events": [{"step": 0, "note": 50, "vel": 90, "len": 4}, {"step": 2, "note": 50, "vel": 85, "len": 2}, {"step": 4, "note": 50, "vel": 90, "len": 4}, {"step": 6, "note": 45, "vel": 85, "len": 2}]}, {"bar": 24, "events": [{"step": 0, "note": 40, "vel": 90, "len": 4}, {"step": 2, "note": 40, "vel": 85, "len": 2}, {"step": 4, "note": 40, "vel": 90, "len": 4}, {"step": 6, "note": 47, "vel": 85, "len": 2}]}, {"bar": 25, "events": [{"step": 0, "note": 48, "vel": 90, "len": 4}, {"step": 2, "note": 48, "vel": 85, "len": 2}, {"step": 4, "note": 48, "vel": 90, "len": 4}, {"step": 6, "note": 43, "vel": 85, "len": 2}]}, {"bar": 26, "events": [{"step": 0, "note": 43, "vel": 90, "len": 4}, {"step": 2, "note": 43, "vel": 85, "len": 2}, {"step": 4, "note": 43, "vel": 90, "len": 4}, {"step": 6, "note": 50, "vel": 85, "len": 2}]}, {"bar": 27, "events": [{"step": 0, "note": 50, "vel": 90, "len": 4}, {"step": 2, "note": 50, "vel": 85, "len": 2}, {"step": 4, "note": 50, "vel": 90, "len": 4}, {"step": 6, "note": 45, "vel": 85, "len": 2}]}, {"bar": 28, "events": [{"step": 0, "note": 40, "vel": 90, "len": 4}, {"step": 2, "note": 40, "vel": 85, "len": 2}, {"step": 4, "note": 40, "vel": 90, "len": 4}, {"step": 6, "note": 47, "vel": 85, "len": 2}]}, {"bar": 29, "events": [{"step": 0, "note": 48, "vel": 90, "len": 4}, {"step": 2, "note": 48, "vel": 85, "len": 2}, {"step": 4, "note": 48, "vel": 90, "len": 4}, {"step": 6, "note": 43, "vel": 85, "len": 2}]}, {"bar": 30, "events": [{"step": 0, "note": 43, "vel": 90, "len": 4}, {"step": 2, "note": 43, "vel": 85, "len": 2}, {"step": 4, "note": 43, "vel": 90, "len": 4}, {"step": 6, "note": 50, "vel": 85, "len": 2}]}, {"bar": 31, "events": [{"step": 0, "note": 50, "vel": 90, "len": 4}, {"step": 2, "note": 50, "vel": 85, "len": 2}, {"step": 4, "note": 50, "vel": 90, "len": 4}, {"step": 6, "note": 45, "vel": 85, "len": 2}]}]}, "pattern": [{"bar": 0, "events": [{"step": 0, "note": 40, "vel": 90, "len": 4}, {"step": 2, "note": 40, "vel": 85, "len": 2}, {"step": 4, "note": 40, "vel": 90, "len": 4}, {"step": 6, "note": 47, "vel": 85, "len": 2}]}, {"bar": 1, "events": [{"step": 0, "note": 48, "vel": 90, "len": 4}, {"step": 2, "note": 48, "vel": 85, "len": 2}, {"step": 4, "note": 48, "vel": 90, "len": 4}, {"step": 6, "note": 43, "vel": 85, "len": 2}]}, {"bar": 2, "events": [{"step": 0, "note": 43, "vel": 90, "len": 4}, {"step": 2, "note": 43, "vel": 85, "len": 2}, {"step": 4, "note": 43, "vel": 90, "len": 4}, {"step": 6, "note": 50, "vel": 85, "len": 2}]}, {"bar": 3, "events": [{"step": 0, "note": 50, "vel": 90, "len": 4}, {"step": 2, "note": 50, "vel": 85, "len": 2}, {"step": 4, "note": 50, "vel": 90, "len": 4}, {"step": 6, "note": 45, "vel": 85, "len": 2}]}, {"bar": 4, "events": [{"step": 0, "note": 40, "vel": 90, "len": 4}, {"step": 2, "note": 40, "vel": 85, "len": 2}, {"step": 4, "note": 40, "vel": 90, "len": 4}, {"step": 6, "note": 47, "vel": 85, "len": 2}]}, {"bar": 5, "events": [{"step": 0, "note": 48, "vel": 90, "len": 4}, {"step": 2, "note": 48, "vel": 85, "len": 2}, {"step": 4, "note": 48, "vel": 90, "len": 4}, {"step": 6, "note": 43, "vel": 85, "len": 2}]}, {"bar": 6, "events": [{"step": 0, "note": 43, "vel": 90, "len": 4}, {"step": 2, "note": 43, "vel": 85, "len": 2}, {"step": 4, "note": 43, "vel": 90, "len": 4}, {"step": 6, "note": 50, "vel": 85, "len": 2}]}, {"bar": 7, "events": [{"step": 0, "note": 50, "vel": 90, "len": 4}, {"step": 2, "note": 50, "vel": 85, "len": 2}, {"step": 4, "note": 50, "vel": 90, "len": 4}, {"step": 6, "note": 45, "vel": 85, "len": 2}]}, {"bar": 8, "events": [{"step": 0, "note": 40, "vel": 90, "len": 4}, {"step": 2, "note": 40, "vel": 85, "len": 2}, {"step": 4, "note": 40, "vel": 90, "len": 4}, {"step": 6, "note": 47, "vel": 85, "len": 2}]}, {"bar": 9, "events": [{"step": 0, "note": 48, "vel": 90, "len": 4}, {"step": 2, "note": 48, "vel": 85, "len": 2}, {"step": 4, "note": 48, "vel": 90, "len": 4}, {"step": 6, "note": 43, "vel": 85, "len": 2}]}, {"bar": 10, "events": [{"step": 0, "note": 43, "vel": 90, "len": 4}, {"step": 2, "note": 43, "vel": 85, "len": 2}, {"step": 4, "note": 43, "vel": 90, "len": 4}, {"step": 6, "note": 50, "vel": 85, "len": 2}]}, {"bar": 11, "events": [{"step": 0, "note": 50, "vel": 90, "len": 4}, {"step": 2, "note": 50, "vel": 85, "len": 2}, {"step": 4, "note": 50, "vel": 90, "len": 4}, {"step": 6, "note": 45, "vel": 85, "len": 2}]}, {"bar": 12, "events": [{"step": 0, "note": 40, "vel": 90, "len": 4}, {"step": 2, "note": 40, "vel": 85, "len": 2}, {"step": 4, "note": 40, "vel": 90, "len": 4}, {"step": 6, "note": 47, "vel": 85, "len": 2}]}, {"bar": 13, "events": [{"step": 0, "note": 48, "vel": 90, "len": 4}, {"step": 2, "note": 48, "vel": 85, "len": 2}, {"step": 4, "note": 48, "vel": 90, "len": 4}, {"step": 6, "note": 43, "vel": 85, "len": 2}]}, {"bar": 14, "events": [{"step": 0, "note": 43, "vel": 90, "len": 4}, {"step": 2, "note": 43, "vel": 85, "len": 2}, {"step": 4, "note": 43, "vel": 90, "len": 4}, {"step": 6, "note": 50, "vel": 85, "len": 2}]}, {"bar": 15, "events": [{"step": 0, "note": 50, "vel": 90, "len": 4}, {"step": 2, "note": 50, "vel": 85, "len": 2}, {"step": 4, "note": 50, "vel": 90, "len": 4}, {"step": 6, "note": 45, "vel": 85, "len": 2}]}, {"bar": 16, "events": [{"step": 0, "note": 40, "vel": 90, "len": 4}, {"step": 2, "note": 40, "vel": 85, "len": 2}, {"step": 4, "note": 40, "vel": 90, "len": 4}, {"step": 6, "note": 47, "vel": 85, "len": 2}]}, {"bar": 17, "events": [{"step": 0, "note": 48, "vel": 90, "len": 4}, {"step": 2, "note": 48, "vel": 85, "len": 2}, {"step": 4, "note": 48, "vel": 90, "len": 4}, {"step": 6, "note": 43, "vel": 85, "len": 2}]}, {"bar": 18, "events": [{"step": 0, "note": 43, "vel": 90, "len": 4}, {"step": 2, "note": 43, "vel": 85, "len": 2}, {"step": 4, "note": 43, "vel": 90, "len": 4}, {"step": 6, "note": 50, "vel": 85, "len": 2}]}, {"bar": 19, "events": [{"step": 0, "note": 50, "vel": 90, "len": 4}, {"step": 2, "note": 50, "vel": 85, "len": 2}, {"step": 4, "note": 50, "vel": 90, "len": 4}, {"step": 6, "note": 45, "vel": 85, "len": 2}]}, {"bar": 20, "events": [{"step": 0, "note": 40, "vel": 90, "len": 4}, {"step": 2, "note": 40, "vel": 85, "len": 2}, {"step": 4, "note": 40, "vel": 90, "len": 4}, {"step": 6, "note": 47, "vel": 85, "len": 2}]}, {"bar": 21, "events": [{"step": 0, "note": 48, "vel": 90, "len": 4}, {"step": 2, "note": 48, "vel": 85, "len": 2}, {"step": 4, "note": 48, "vel": 90, "len": 4}, {"step": 6, "note": 43, "vel": 85, "len": 2}]}, {"bar": 22, "events": [{"step": 0, "note": 43, "vel": 90, "len": 4}, {"step": 2, "note": 43, "vel": 85, "len": 2}, {"step": 4, "note": 43, "vel": 90, "len": 4}, {"step": 6, "note": 50, "vel": 85, "len": 2}]}, {"bar": 23, "events": [{"step": 0, "note": 50, "vel": 90, "len": 4}, {"step": 2, "note": 50, "vel": 85, "len": 2}, {"step": 4, "note": 50, "vel": 90, "len": 4}, {"step": 6, "note": 45, "vel": 85, "len": 2}]}, {"bar": 24, "events": [{"step": 0, "note": 40, "vel": 90, "len": 4}, {"step": 2, "note": 40, "vel": 85, "len": 2}, {"step": 4, "note": 40, "vel": 90, "len": 4}, {"step": 6, "note": 47, "vel": 85, "len": 2}]}, {"bar": 25, "events": [{"step": 0, "note": 48, "vel": 90, "len": 4}, {"step": 2, "note": 48, "vel": 85, "len": 2}, {"step": 4, "note": 48, "vel": 90, "len": 4}, {"step": 6, "note": 43, "vel": 85, "len": 2}]}, {"bar": 26, "events": [{"step": 0, "note": 43, "vel": 90, "len": 4}, {"step": 2, "note": 43, "vel": 85, "len": 2}, {"step": 4, "note": 43, "vel": 90, "len": 4}, {"step": 6, "note": 50, "vel": 85, "len": 2}]}, {"bar": 27, "events": [{"step": 0, "note": 50, "vel": 90, "len": 4}, {"step": 2, "note": 50, "vel": 85, "len": 2}, {"step": 4, "note": 50, "vel": 90, "len": 4}, {"step": 6, "note": 45, "vel": 85, "len": 2}]}, {"bar": 28, "events": [{"step": 0, "note": 40, "vel": 90, "len": 4}, {"step": 2, "note": 40, "vel": 85, "len": 2}, {"step": 4, "note": 40, "vel": 90, "len": 4}, {"step": 6, "note": 47, "vel": 85, "len": 2}]}, {"bar": 29, "events": [{"step": 0, "note": 48, "vel": 90, "len": 4}, {"step": 2, "note": 48, "vel": 85, "len": 2}, {"step": 4, "note": 48, "vel": 90, "len": 4}, {"step": 6, "note": 43, "vel": 85, "len": 2}]}, {"bar": 30, "events": [{"step": 0, "note": 43, "vel": 90, "len": 4}, {"step": 2, "note": 43, "vel": 85, "len": 2}, {"step": 4, "note": 43, "vel": 90, "len": 4}, {"step": 6, "note": 50, "vel": 85, "len": 2}]}, {"bar": 31, "events": [{"step": 0, "note": 50, "vel": 90, "len": 4}, {"step": 2, "note": 50, "vel": 85, "len": 2}, {"step": 4, "note": 50, "vel": 90, "len": 4}, {"step": 6, "note": 45, "vel": 85, "len": 2}]}]}, "Electric Guitar": {"meta": {"style": "Rock", "mood": "Energetic", "tempo": 130, "key": "E Minor", "scale": "Natural Minor", "meter": "4/4", "bars": 32, "length_seconds": 60.0, "dynamic_profile": "Moderate to Intense", "arrangement_density": "Medium to High", "harmonic_color": "Distorted, Power Chords", "instruments": ["Bass Guitar", "Electric Guitar", "Kick", "Snare", "Hat", "Ride", "Crash"], "instrument_configs": [{"name": "Bass Guitar", "register": "Low", "role": "Bass", "articulation": "Sustain", "dynamic_range": "Moderate"}, {"name": "Electric Guitar", "register": "Full", "role": "Rhythm/Lead", "articulation": "Distorted, Sustained", "dynamic_range": "Intense"}, {"name": "Kick", "register": "Low", "role": "Percussion", "articulation": "Percussive", "dynamic_range": "Moderate"}, {"name": "Snare", "register": "Mid", "role": "Percussion", "articulation": "Percussive", "dynamic_range": "Moderate"}, {"name": "Hat", "register": "High", "role": "Percussion", "articulation": "Percussive", "dynamic_range": "Moderate"}, {"name": "Ride", "register": "High", "role": "Percussion", "articulation": "Sustain", "dynamic_range": "Moderate"}, {"name": "Crash", "register": "High", "role": "Percussion", "articulation": "Percussive", "dynamic_range": "Intense"}], "seed": null, "instrument": "Electric Guitar"}, "layers": {"Electric Guitar": [{"bar": 0, "events": [{"step": 0, "note": 52, "vel": 110, "len": 4}, {"step": 4, "note": 52, "vel": 110, "len": 4}]}, {"bar": 1, "events": [{"step": 0, "note": 60, "vel": 110, "len": 4}, {"step": 4, "note": 60, "vel": 110, "len": 4}]}, {"bar": 2, "events": [{"step": 0, "note": 55, "vel": 110, "len": 4}, {"step": 4, "note": 55, "vel": 110, "len": 4}]}, {"bar": 3, "events": [{"step": 0, "note": 62, "vel": 110, "len": 4}, {"step": 4, "note": 62, "vel": 110, "len": 4}]}, {"bar": 4, "events": [{"step": 0, "note": 52, "vel": 110, "len": 4}, {"step": 4, "note": 52, "vel": 110, "len": 4}]}, {"bar": 5, "events": [{"step": 0, "note": 60, "vel": 110, "len": 4}, {"step": 4, "note": 60, "vel": 110, "len": 4}]}, {"bar": 6, "events": [{"step": 0, "note": 55, "vel": 110, "len": 4}, {"step": 4, "note": 55, "vel": 110, "len": 4}]}, {"bar": 7, "events": [{"step": 0, "note": 62, "vel": 110, "len": 4}, {"step": 4, "note": 62, "vel": 110, "len": 4}]}, {"bar": 8, "events": [{"step": 0, "note": 52, "vel": 110, "len": 4}, {"step": 4, "note": 52, "vel": 110, "len": 4}]}, {"bar": 9, "events": [{"step": 0, "note": 60, "vel": 110, "len": 4}, {"step": 4, "note": 60, "vel": 110, "len": 4}]}, {"bar": 10, "events": [{"step": 0, "note": 55, "vel": 110, "len": 4}, {"step": 4, "note": 55, "vel": 110, "len": 4}]}, {"bar": 11, "events": [{"step": 0, "note": 62, "vel": 110, "len": 4}, {"step": 4, "note": 62, "vel": 110, "len": 4}]}, {"bar": 12, "events": [{"step": 0, "note": 52, "vel": 110, "len": 4}, {"step": 4, "note": 52, "vel": 110, "len": 4}]}, {"bar": 13, "events": [{"step": 0, "note": 60, "vel": 110, "len": 4}, {"step": 4, "note": 60, "vel": 110, "len": 4}]}, {"bar": 14, "events": [{"step": 0, "note": 55, "vel": 110, "len": 4}, {"step": 4, "note": 55, "vel": 110, "len": 4}]}, {"bar": 15, "events": [{"step": 0, "note": 62, "vel": 110, "len": 4}, {"step": 4, "note": 62, "vel": 110, "len": 4}]}, {"bar": 16, "events": [{"step": 0, "note": 52, "vel": 110, "len": 4}, {"step": 4, "note": 52, "vel": 110, "len": 4}]}, {"bar": 17, "events": [{"step": 0, "note": 60, "vel": 110, "len": 4}, {"step": 4, "note": 60, "vel": 110, "len": 4}]}, {"bar": 18, "events": [{"step": 0, "note": 55, "vel": 110, "len": 4}, {"step": 4, "note": 55, "vel": 110, "len": 4}]}, {"bar": 19, "events": [{"step": 0, "note": 62, "vel": 110, "len": 4}, {"step": 4, "note": 62, "vel": 110, "len": 4}]}, {"bar": 20, "events": [{"step": 0, "note": 52, "vel": 110, "len": 4}, {"step": 4, "note": 52, "vel": 110, "len": 4}]}, {"bar": 21, "events": [{"step": 0, "note": 60, "vel": 110, "len": 4}, {"step": 4, "note": 60, "vel": 110, "len": 4}]}, {"bar": 22, "events": [{"step": 0, "note": 55, "vel": 110, "len": 4}, {"step": 4, "note": 55, "vel": 110, "len": 4}]}, {"bar": 23, "events": [{"step": 0, "note": 62, "vel": 110, "len": 4}, {"step": 4, "note": 62, "vel": 110, "len": 4}]}, {"bar": 24, "events": [{"step": 0, "note": 52, "vel": 110, "len": 4}, {"step": 4, "note": 52, "vel": 110, "len": 4}]}, {"bar": 25, "events": [{"step": 0, "note": 60, "vel": 110, "len": 4}, {"step": 4, "note": 60, "vel": 110, "len": 4}]}, {"bar": 26, "events": [{"step": 0, "note": 55, "vel": 110, "len": 4}, {"step": 4, "note": 55, "vel": 110, "len": 4}]}, {"bar": 27, "events": [{"step": 0, "note": 62, "vel": 110, "len": 4}, {"step": 4, "note": 62, "vel": 110, "len": 4}]}, {"bar": 28, "events": [{"step": 0, "note": 52, "vel": 110, "len": 4}, {"step": 4, "note": 52, "vel": 110, "len": 4}]}, {"bar": 29, "events": [{"step": 0, "note": 60, "vel": 110, "len": 4}, {"step": 4, "note": 60, "vel": 110, "len": 4}]}, {"bar": 30, "events": [{"step": 0, "note": 55, "vel": 110, "len": 4}, {"step": 4, "note": 55, "vel": 110, "len": 4}]}, {"bar": 31, "events": [{"step": 0, "note": 62, "vel": 110, "len": 4}, {"step": 4, "note": 62, "vel": 110, "len": 4}]}]}, "pattern": [{"bar": 0, "events": [{"step": 0, "note": 52, "vel": 110, "len": 4}, {"step": 4, "note": 52, "vel": 110, "len": 4}]}, {"bar": 1, "events": [{"step": 0, "note": 60, "vel": 110, "len": 4}, {"step": 4, "note": 60, "vel": 110, "len": 4}]}, {"bar": 2, "events": [{"step": 0, "note": 55, "vel": 110, "len": 4}, {"step": 4, "note": 55, "vel": 110, "len": 4}]}, {"bar": 3, "events": [{"step": 0, "note": 62, "vel": 110, "len": 4}, {"step": 4, "note": 62, "vel": 110, "len": 4}]}, {"bar": 4, "events": [{"step": 0, "note": 52, "vel": 110, "len": 4}, {"step": 4, "note": 52, "vel": 110, "len": 4}]}, {"bar": 5, "events": [{"step": 0, "note": 60, "vel": 110, "len": 4}, {"step": 4, "note": 60, "vel": 110, "len": 4}]}, {"bar": 6, "events": [{"step": 0, "note": 55, "vel": 110, "len": 4}, {"step": 4, "note": 55, "vel": 110, "len": 4}]}, {"bar": 7, "events": [{"step": 0, "note": 62, "vel": 110, "len": 4}, {"step": 4, "note": 62, "vel": 110, "len": 4}]}, {"bar": 8, "events": [{"step": 0, "note": 52, "vel": 110, "len": 4}, {"step": 4, "note": 52, "vel": 110, "len": 4}]}, {"bar": 9, "events": [{"step": 0, "note": 60, "vel": 110, "len": 4}, {"step": 4, "note": 60, "vel": 110, "len": 4}]}, {"bar": 10, "events": [{"step": 0, "note": 55, "vel": 110, "len": 4}, {"step": 4, "note": 55, "vel": 110, "len": 4}]}, {"bar": 11, "events": [{"step": 0, "note": 62, "vel": 110, "len": 4}, {"step": 4, "note": 62, "vel": 110, "len": 4}]}, {"bar": 12, "events": [{"step": 0, "note": 52, "vel": 110, "len": 4}, {"step": 4, "note": 52, "vel": 110, "len": 4}]}, {"bar": 13, "events": [{"step": 0, "note": 60, "vel": 110, "len": 4}, {"step": 4, "note": 60, "vel": 110, "len": 4}]}, {"bar": 14, "events": [{"step": 0, "note": 55, "vel": 110, "len": 4}, {"step": 4, "note": 55, "vel": 110, "len": 4}]}, {"bar": 15, "events": [{"step": 0, "note": 62, "vel": 110, "len": 4}, {"step": 4, "note": 62, "vel": 110, "len": 4}]}, {"bar": 16, "events": [{"step": 0, "note": 52, "vel": 110, "len": 4}, {"step": 4, "note": 52, "vel": 110, "len": 4}]}, {"bar": 17, "events": [{"step": 0, "note": 60, "vel": 110, "len": 4}, {"step": 4, "note": 60, "vel": 110, "len": 4}]}, {"bar": 18, "events": [{"step": 0, "note": 55, "vel": 110, "len": 4}, {"step": 4, "note": 55, "vel": 110, "len": 4}]}, {"bar": 19, "events": [{"step": 0, "note": 62, "vel": 110, "len": 4}, {"step": 4, "note": 62, "vel": 110, "len": 4}]}, {"bar": 20, "events": [{"step": 0, "note": 52, "vel": 110, "len": 4}, {"step": 4, "note": 52, "vel": 110, "len": 4}]}, {"bar": 21, "events": [{"step": 0, "note": 60, "vel": 110, "len": 4}, {"step": 4, "note": 60, "vel": 110, "len": 4}]}, {"bar": 22, "events": [{"step": 0, "note": 55, "vel": 110, "len": 4}, {"step": 4, "note": 55, "vel": 110, "len": 4}]}, {"bar": 23, "events": [{"step": 0, "note": 62, "vel": 110, "len": 4}, {"step": 4, "note": 62, "vel": 110, "len": 4}]}, {"bar": 24, "events": [{"step": 0, "note": 52, "vel": 110, "len": 4}, {"step": 4, "note": 52, "vel": 110, "len": 4}]}, {"bar": 25, "events": [{"step": 0, "note": 60, "vel": 110, "len": 4}, {"step": 4, "note": 60, "vel": 110, "len": 4}]}, {"bar": 26, "events": [{"step": 0, "note": 55, "vel": 110, "len": 4}, {"step": 4, "note": 55, "vel": 110, "len": 4}]}, {"bar": 27, "events": [{"step": 0, "note": 62, "vel": 110, "len": 4}, {"step": 4, "note": 62, "vel": 110, "len": 4}]}, {"bar": 28, "events": [{"step": 0, "note": 52, "vel": 110, "len": 4}, {"step": 4, "note": 52, "vel": 110, "len": 4}]}, {"bar": 29, "events": [{"step": 0, "note": 60, "vel": 110, "len": 4}, {"step": 4, "note": 60, "vel": 110, "len": 4}]}, {"bar": 30, "events": [{"step": 0, "note": 55, "vel": 110, "len": 4}, {"step": 4, "note": 55, "vel": 110, "len": 4}]}, {"bar": 31, "events": [{"step": 0, "note": 62, "vel": 110, "len": 4}, {"step": 4, "note": 62, "vel": 110, "len": 4}]}]}}