{"meta": {"status": "success", "tempo": 128, "key": "C Major", "scale": "Major", "style": "Electronic", "mood": "Energetic", "meter": "4/4", "dynamic_profile": "Intense", "arrangement_density": "High", "harmonic_color": "Bright", "length_seconds": 120.0, "bars": 16, "instrument_configs": [{"name": "Piano", "register": "High", "role": "Lead", "articulation": "Legato", "dynamic_range": "Moderate"}], "instruments": ["Piano"], "instrument": "Piano"}, "layers": {"Piano": [{"bar": 1, "events": [{"step": 0, "note": 60, "vel": 100, "len": 1}, {"step": 2, "note": 64, "vel": 100, "len": 1}, {"step": 4, "note": 67, "vel": 100, "len": 1}, {"step": 6, "note": 72, "vel": 100, "len": 1}]}, {"bar": 2, "events": [{"step": 0, "note": 72, "vel": 100, "len": 1}, {"step": 2, "note": 67, "vel": 100, "len": 1}, {"step": 4, "note": 64, "vel": 100, "len": 1}, {"step": 6, "note": 60, "vel": 100, "len": 1}]}, {"bar": 3, "events": [{"step": 0, "note": 60, "vel": 100, "len": 1}, {"step": 2, "note": 62, "vel": 100, "len": 1}, {"step": 4, "note": 65, "vel": 100, "len": 1}, {"step": 6, "note": 67, "vel": 100, "len": 1}]}, {"bar": 4, "events": [{"step": 0, "note": 67, "vel": 100, "len": 1}, {"step": 2, "note": 65, "vel": 100, "len": 1}, {"step": 4, "note": 62, "vel": 100, "len": 1}, {"step": 6, "note": 60, "vel": 100, "len": 1}]}, {"bar": 5, "events": [{"step": 0, "note": 60, "vel": 100, "len": 1}, {"step": 2, "note": 64, "vel": 100, "len": 1}, {"step": 4, "note": 67, "vel": 100, "len": 1}, {"step": 6, "note": 72, "vel": 100, "len": 1}]}, {"bar": 6, "events": [{"step": 0, "note": 72, "vel": 100, "len": 1}, {"step": 2, "note": 67, "vel": 100, "len": 1}, {"step": 4, "note": 64, "vel": 100, "len": 1}, {"step": 6, "note": 60, "vel": 100, "len": 1}]}, {"bar": 7, "events": [{"step": 0, "note": 60, "vel": 100, "len": 1}, {"step": 2, "note": 62, "vel": 100, "len": 1}, {"step": 4, "note": 65, "vel": 100, "len": 1}, {"step": 6, "note": 67, "vel": 100, "len": 1}]}, {"bar": 8, "events": [{"step": 0, "note": 67, "vel": 100, "len": 1}, {"step": 2, "note": 65, "vel": 100, "len": 1}, {"step": 4, "note": 62, "vel": 100, "len": 1}, {"step": 6, "note": 60, "vel": 100, "len": 1}]}, {"bar": 9, "events": [{"step": 0, "note": 60, "vel": 100, "len": 1}, {"step": 2, "note": 64, "vel": 100, "len": 1}, {"step": 4, "note": 67, "vel": 100, "len": 1}, {"step": 6, "note": 72, "vel": 100, "len": 1}]}, {"bar": 10, "events": [{"step": 0, "note": 72, "vel": 100, "len": 1}, {"step": 2, "note": 67, "vel": 100, "len": 1}, {"step": 4, "note": 64, "vel": 100, "len": 1}, {"step": 6, "note": 60, "vel": 100, "len": 1}]}, {"bar": 11, "events": [{"step": 0, "note": 60, "vel": 100, "len": 1}, {"step": 2, "note": 62, "vel": 100, "len": 1}, {"step": 4, "note": 65, "vel": 100, "len": 1}, {"step": 6, "note": 67, "vel": 100, "len": 1}]}, {"bar": 12, "events": [{"step": 0, "note": 67, "vel": 100, "len": 1}, {"step": 2, "note": 65, "vel": 100, "len": 1}, {"step": 4, "note": 62, "vel": 100, "len": 1}, {"step": 6, "note": 60, "vel": 100, "len": 1}]}, {"bar": 13, "events": [{"step": 0, "note": 60, "vel": 100, "len": 1}, {"step": 2, "note": 64, "vel": 100, "len": 1}, {"step": 4, "note": 67, "vel": 100, "len": 1}, {"step": 6, "note": 72, "vel": 100, "len": 1}]}, {"bar": 14, "events": [{"step": 0, "note": 72, "vel": 100, "len": 1}, {"step": 2, "note": 67, "vel": 100, "len": 1}, {"step": 4, "note": 64, "vel": 100, "len": 1}, {"step": 6, "note": 60, "vel": 100, "len": 1}]}, {"bar": 15, "events": [{"step": 0, "note": 60, "vel": 100, "len": 1}, {"step": 2, "note": 62, "vel": 100, "len": 1}, {"step": 4, "note": 65, "vel": 100, "len": 1}, {"step": 6, "note": 67, "vel": 100, "len": 1}]}, {"bar": 16, "events": [{"step": 0, "note": 67, "vel": 100, "len": 1}, {"step": 2, "note": 65, "vel": 100, "len": 1}, {"step": 4, "note": 62, "vel": 100, "len": 1}, {"step": 6, "note": 60, "vel": 100, "len": 1}]}]}, "pattern": [{"bar": 1, "events": [{"step": 0, "note": 60, "vel": 100, "len": 1}, {"step": 2, "note": 64, "vel": 100, "len": 1}, {"step": 4, "note": 67, "vel": 100, "len": 1}, {"step": 6, "note": 72, "vel": 100, "len": 1}]}, {"bar": 2, "events": [{"step": 0, "note": 72, "vel": 100, "len": 1}, {"step": 2, "note": 67, "vel": 100, "len": 1}, {"step": 4, "note": 64, "vel": 100, "len": 1}, {"step": 6, "note": 60, "vel": 100, "len": 1}]}, {"bar": 3, "events": [{"step": 0, "note": 60, "vel": 100, "len": 1}, {"step": 2, "note": 62, "vel": 100, "len": 1}, {"step": 4, "note": 65, "vel": 100, "len": 1}, {"step": 6, "note": 67, "vel": 100, "len": 1}]}, {"bar": 4, "events": [{"step": 0, "note": 67, "vel": 100, "len": 1}, {"step": 2, "note": 65, "vel": 100, "len": 1}, {"step": 4, "note": 62, "vel": 100, "len": 1}, {"step": 6, "note": 60, "vel": 100, "len": 1}]}, {"bar": 5, "events": [{"step": 0, "note": 60, "vel": 100, "len": 1}, {"step": 2, "note": 64, "vel": 100, "len": 1}, {"step": 4, "note": 67, "vel": 100, "len": 1}, {"step": 6, "note": 72, "vel": 100, "len": 1}]}, {"bar": 6, "events": [{"step": 0, "note": 72, "vel": 100, "len": 1}, {"step": 2, "note": 67, "vel": 100, "len": 1}, {"step": 4, "note": 64, "vel": 100, "len": 1}, {"step": 6, "note": 60, "vel": 100, "len": 1}]}, {"bar": 7, "events": [{"step": 0, "note": 60, "vel": 100, "len": 1}, {"step": 2, "note": 62, "vel": 100, "len": 1}, {"step": 4, "note": 65, "vel": 100, "len": 1}, {"step": 6, "note": 67, "vel": 100, "len": 1}]}, {"bar": 8, "events": [{"step": 0, "note": 67, "vel": 100, "len": 1}, {"step": 2, "note": 65, "vel": 100, "len": 1}, {"step": 4, "note": 62, "vel": 100, "len": 1}, {"step": 6, "note": 60, "vel": 100, "len": 1}]}, {"bar": 9, "events": [{"step": 0, "note": 60, "vel": 100, "len": 1}, {"step": 2, "note": 64, "vel": 100, "len": 1}, {"step": 4, "note": 67, "vel": 100, "len": 1}, {"step": 6, "note": 72, "vel": 100, "len": 1}]}, {"bar": 10, "events": [{"step": 0, "note": 72, "vel": 100, "len": 1}, {"step": 2, "note": 67, "vel": 100, "len": 1}, {"step": 4, "note": 64, "vel": 100, "len": 1}, {"step": 6, "note": 60, "vel": 100, "len": 1}]}, {"bar": 11, "events": [{"step": 0, "note": 60, "vel": 100, "len": 1}, {"step": 2, "note": 62, "vel": 100, "len": 1}, {"step": 4, "note": 65, "vel": 100, "len": 1}, {"step": 6, "note": 67, "vel": 100, "len": 1}]}, {"bar": 12, "events": [{"step": 0, "note": 67, "vel": 100, "len": 1}, {"step": 2, "note": 65, "vel": 100, "len": 1}, {"step": 4, "note": 62, "vel": 100, "len": 1}, {"step": 6, "note": 60, "vel": 100, "len": 1}]}, {"bar": 13, "events": [{"step": 0, "note": 60, "vel": 100, "len": 1}, {"step": 2, "note": 64, "vel": 100, "len": 1}, {"step": 4, "note": 67, "vel": 100, "len": 1}, {"step": 6, "note": 72, "vel": 100, "len": 1}]}, {"bar": 14, "events": [{"step": 0, "note": 72, "vel": 100, "len": 1}, {"step": 2, "note": 67, "vel": 100, "len": 1}, {"step": 4, "note": 64, "vel": 100, "len": 1}, {"step": 6, "note": 60, "vel": 100, "len": 1}]}, {"bar": 15, "events": [{"step": 0, "note": 60, "vel": 100, "len": 1}, {"step": 2, "note": 62, "vel": 100, "len": 1}, {"step": 4, "note": 65, "vel": 100, "len": 1}, {"step": 6, "note": 67, "vel": 100, "len": 1}]}, {"bar": 16, "events": [{"step": 0, "note": 67, "vel": 100, "len": 1}, {"step": 2, "note": 65, "vel": 100, "len": 1}, {"step": 4, "note": 62, "vel": 100, "len": 1}, {"step": 6, "note": 60, "vel": 100, "len": 1}]}]}