{"Electric Guitar": {"meta": {"style": "Rock", "mood": "Energetic", "tempo": 140, "key": "E Minor", "meter": "4/4", "bars": 8, "length_seconds": 13.7, "dynamic_profile": "High-contrast", "instrument_configs": [{"name": "Electric Guitar", "register": "Mid", "role": "Lead"}, {"name": "Bass Guitar", "register": "Low", "role": "Bass"}, {"name": "Kick", "register": "Low", "role": "Percussion"}, {"name": "Snare", "register": "Mid", "role": "Percussion"}, {"name": "Hat", "register": "High", "role": "Percussion"}, {"name": "Crash", "register": "High", "role": "Percussion"}], "scale": "Minor", "arrangement_density": "Dense", "harmonic_color": "Saturated", "instruments": ["Electric Guitar", "Bass Guitar", "Kick", "Snare", "Hat", "Crash"], "instrument": "Electric Guitar"}, "layers": {"Electric Guitar": [{"bar": 1, "events": [{"step": 0, "note": 40, "vel": 115, "len": 4}, {"step": 4, "note": 40, "vel": 110, "len": 4}]}, {"bar": 2, "events": [{"step": 0, "note": 43, "vel": 115, "len": 4}, {"step": 4, "note": 43, "vel": 110, "len": 4}]}, {"bar": 3, "events": [{"step": 0, "note": 45, "vel": 115, "len": 4}, {"step": 4, "note": 45, "vel": 110, "len": 4}]}, {"bar": 4, "events": [{"step": 0, "note": 47, "vel": 115, "len": 4}, {"step": 4, "note": 47, "vel": 110, "len": 4}]}, {"bar": 5, "events": [{"step": 0, "note": 40, "vel": 120, "len": 2}, {"step": 2, "note": 40, "vel": 110, "len": 2}, {"step": 4, "note": 40, "vel": 120, "len": 2}, {"step": 6, "note": 40, "vel": 110, "len": 2}]}, {"bar": 6, "events": [{"step": 0, "note": 43, "vel": 120, "len": 2}, {"step": 2, "note": 43, "vel": 110, "len": 2}, {"step": 4, "note": 43, "vel": 120, "len": 2}, {"step": 6, "note": 43, "vel": 110, "len": 2}]}, {"bar": 7, "events": [{"step": 0, "note": 45, "vel": 120, "len": 2}, {"step": 2, "note": 45, "vel": 110, "len": 2}, {"step": 4, "note": 45, "vel": 120, "len": 2}, {"step": 6, "note": 45, "vel": 110, "len": 2}]}, {"bar": 8, "events": [{"step": 0, "note": 47, "vel": 127, "len": 2}, {"step": 2, "note": 47, "vel": 127, "len": 2}, {"step": 4, "note": 47, "vel": 127, "len": 2}, {"step": 6, "note": 47, "vel": 127, "len": 2}]}]}, "pattern": [{"bar": 1, "events": [{"step": 0, "note": 40, "vel": 115, "len": 4}, {"step": 4, "note": 40, "vel": 110, "len": 4}]}, {"bar": 2, "events": [{"step": 0, "note": 43, "vel": 115, "len": 4}, {"step": 4, "note": 43, "vel": 110, "len": 4}]}, {"bar": 3, "events": [{"step": 0, "note": 45, "vel": 115, "len": 4}, {"step": 4, "note": 45, "vel": 110, "len": 4}]}, {"bar": 4, "events": [{"step": 0, "note": 47, "vel": 115, "len": 4}, {"step": 4, "note": 47, "vel": 110, "len": 4}]}, {"bar": 5, "events": [{"step": 0, "note": 40, "vel": 120, "len": 2}, {"step": 2, "note": 40, "vel": 110, "len": 2}, {"step": 4, "note": 40, "vel": 120, "len": 2}, {"step": 6, "note": 40, "vel": 110, "len": 2}]}, {"bar": 6, "events": [{"step": 0, "note": 43, "vel": 120, "len": 2}, {"step": 2, "note": 43, "vel": 110, "len": 2}, {"step": 4, "note": 43, "vel": 120, "len": 2}, {"step": 6, "note": 43, "vel": 110, "len": 2}]}, {"bar": 7, "events": [{"step": 0, "note": 45, "vel": 120, "len": 2}, {"step": 2, "note": 45, "vel": 110, "len": 2}, {"step": 4, "note": 45, "vel": 120, "len": 2}, {"step": 6, "note": 45, "vel": 110, "len": 2}]}, {"bar": 8, "events": [{"step": 0, "note": 47, "vel": 127, "len": 2}, {"step": 2, "note": 47, "vel": 127, "len": 2}, {"step": 4, "note": 47, "vel": 127, "len": 2}, {"step": 6, "note": 47, "vel": 127, "len": 2}]}]}, "Bass Guitar": {"meta": {"style": "Rock", "mood": "Energetic", "tempo": 140, "key": "E Minor", "meter": "4/4", "bars": 8, "length_seconds": 13.7, "dynamic_profile": "High-contrast", "instrument_configs": [{"name": "Electric Guitar", "register": "Mid", "role": "Lead"}, {"name": "Bass Guitar", "register": "Low", "role": "Bass"}, {"name": "Kick", "register": "Low", "role": "Percussion"}, {"name": "Snare", "register": "Mid", "role": "Percussion"}, {"name": "Hat", "register": "High", "role": "Percussion"}, {"name": "Crash", "register": "High", "role": "Percussion"}], "scale": "Minor", "arrangement_density": "Dense", "harmonic_color": "Saturated", "instruments": ["Electric Guitar", "Bass Guitar", "Kick", "Snare", "Hat", "Crash"], "instrument": "Bass Guitar"}, "layers": {"Bass Guitar": [{"bar": 1, "events": [{"step": 0, "note": 28, "vel": 115, "len": 2}, {"step": 2, "note": 28, "vel": 110, "len": 2}, {"step": 4, "note": 28, "vel": 115, "len": 2}, {"step": 6, "note": 28, "vel": 110, "len": 2}]}, {"bar": 2, "events": [{"step": 0, "note": 31, "vel": 115, "len": 2}, {"step": 2, "note": 31, "vel": 110, "len": 2}, {"step": 4, "note": 31, "vel": 115, "len": 2}, {"step": 6, "note": 31, "vel": 110, "len": 2}]}, {"bar": 3, "events": [{"step": 0, "note": 33, "vel": 115, "len": 2}, {"step": 2, "note": 33, "vel": 110, "len": 2}, {"step": 4, "note": 33, "vel": 115, "len": 2}, {"step": 6, "note": 33, "vel": 110, "len": 2}]}, {"bar": 4, "events": [{"step": 0, "note": 35, "vel": 115, "len": 2}, {"step": 2, "note": 35, "vel": 110, "len": 2}, {"step": 4, "note": 35, "vel": 115, "len": 2}, {"step": 6, "note": 35, "vel": 110, "len": 2}]}, {"bar": 5, "events": [{"step": 0, "note": 28, "vel": 120, "len": 1}, {"step": 1, "note": 28, "vel": 100, "len": 1}, {"step": 2, "note": 28, "vel": 110, "len": 1}, {"step": 3, "note": 28, "vel": 100, "len": 1}, {"step": 4, "note": 28, "vel": 120, "len": 1}, {"step": 5, "note": 28, "vel": 100, "len": 1}, {"step": 6, "note": 28, "vel": 110, "len": 1}, {"step": 7, "note": 28, "vel": 100, "len": 1}]}, {"bar": 6, "events": [{"step": 0, "note": 31, "vel": 120, "len": 1}, {"step": 1, "note": 31, "vel": 100, "len": 1}, {"step": 2, "note": 31, "vel": 110, "len": 1}, {"step": 3, "note": 31, "vel": 100, "len": 1}, {"step": 4, "note": 31, "vel": 120, "len": 1}, {"step": 5, "note": 31, "vel": 100, "len": 1}, {"step": 6, "note": 31, "vel": 110, "len": 1}, {"step": 7, "note": 31, "vel": 100, "len": 1}]}, {"bar": 7, "events": [{"step": 0, "note": 33, "vel": 120, "len": 1}, {"step": 1, "note": 33, "vel": 100, "len": 1}, {"step": 2, "note": 33, "vel": 110, "len": 1}, {"step": 3, "note": 33, "vel": 100, "len": 1}, {"step": 4, "note": 33, "vel": 120, "len": 1}, {"step": 5, "note": 33, "vel": 100, "len": 1}, {"step": 6, "note": 33, "vel": 110, "len": 1}, {"step": 7, "note": 33, "vel": 100, "len": 1}]}, {"bar": 8, "events": [{"step": 0, "note": 35, "vel": 127, "len": 1}, {"step": 2, "note": 35, "vel": 127, "len": 1}, {"step": 4, "note": 35, "vel": 127, "len": 1}, {"step": 6, "note": 35, "vel": 127, "len": 1}]}]}, "pattern": [{"bar": 1, "events": [{"step": 0, "note": 28, "vel": 115, "len": 2}, {"step": 2, "note": 28, "vel": 110, "len": 2}, {"step": 4, "note": 28, "vel": 115, "len": 2}, {"step": 6, "note": 28, "vel": 110, "len": 2}]}, {"bar": 2, "events": [{"step": 0, "note": 31, "vel": 115, "len": 2}, {"step": 2, "note": 31, "vel": 110, "len": 2}, {"step": 4, "note": 31, "vel": 115, "len": 2}, {"step": 6, "note": 31, "vel": 110, "len": 2}]}, {"bar": 3, "events": [{"step": 0, "note": 33, "vel": 115, "len": 2}, {"step": 2, "note": 33, "vel": 110, "len": 2}, {"step": 4, "note": 33, "vel": 115, "len": 2}, {"step": 6, "note": 33, "vel": 110, "len": 2}]}, {"bar": 4, "events": [{"step": 0, "note": 35, "vel": 115, "len": 2}, {"step": 2, "note": 35, "vel": 110, "len": 2}, {"step": 4, "note": 35, "vel": 115, "len": 2}, {"step": 6, "note": 35, "vel": 110, "len": 2}]}, {"bar": 5, "events": [{"step": 0, "note": 28, "vel": 120, "len": 1}, {"step": 1, "note": 28, "vel": 100, "len": 1}, {"step": 2, "note": 28, "vel": 110, "len": 1}, {"step": 3, "note": 28, "vel": 100, "len": 1}, {"step": 4, "note": 28, "vel": 120, "len": 1}, {"step": 5, "note": 28, "vel": 100, "len": 1}, {"step": 6, "note": 28, "vel": 110, "len": 1}, {"step": 7, "note": 28, "vel": 100, "len": 1}]}, {"bar": 6, "events": [{"step": 0, "note": 31, "vel": 120, "len": 1}, {"step": 1, "note": 31, "vel": 100, "len": 1}, {"step": 2, "note": 31, "vel": 110, "len": 1}, {"step": 3, "note": 31, "vel": 100, "len": 1}, {"step": 4, "note": 31, "vel": 120, "len": 1}, {"step": 5, "note": 31, "vel": 100, "len": 1}, {"step": 6, "note": 31, "vel": 110, "len": 1}, {"step": 7, "note": 31, "vel": 100, "len": 1}]}, {"bar": 7, "events": [{"step": 0, "note": 33, "vel": 120, "len": 1}, {"step": 1, "note": 33, "vel": 100, "len": 1}, {"step": 2, "note": 33, "vel": 110, "len": 1}, {"step": 3, "note": 33, "vel": 100, "len": 1}, {"step": 4, "note": 33, "vel": 120, "len": 1}, {"step": 5, "note": 33, "vel": 100, "len": 1}, {"step": 6, "note": 33, "vel": 110, "len": 1}, {"step": 7, "note": 33, "vel": 100, "len": 1}]}, {"bar": 8, "events": [{"step": 0, "note": 35, "vel": 127, "len": 1}, {"step": 2, "note": 35, "vel": 127, "len": 1}, {"step": 4, "note": 35, "vel": 127, "len": 1}, {"step": 6, "note": 35, "vel": 127, "len": 1}]}]}, "Kick": {"meta": {"style": "Rock", "mood": "Energetic", "tempo": 140, "key": "E Minor", "meter": "4/4", "bars": 8, "length_seconds": 13.7, "dynamic_profile": "High-contrast", "instrument_configs": [{"name": "Electric Guitar", "register": "Mid", "role": "Lead"}, {"name": "Bass Guitar", "register": "Low", "role": "Bass"}, {"name": "Kick", "register": "Low", "role": "Percussion"}, {"name": "Snare", "register": "Mid", "role": "Percussion"}, {"name": "Hat", "register": "High", "role": "Percussion"}, {"name": "Crash", "register": "High", "role": "Percussion"}], "scale": "Minor", "arrangement_density": "Dense", "harmonic_color": "Saturated", "instruments": ["Electric Guitar", "Bass Guitar", "Kick", "Snare", "Hat", "Crash"], "instrument": "Kick"}, "layers": {"Kick": [{"bar": 1, "events": [{"step": 0, "note": 36, "vel": 127, "len": 1}, {"step": 4, "note": 36, "vel": 120, "len": 1}]}, {"bar": 2, "events": [{"step": 0, "note": 36, "vel": 127, "len": 1}, {"step": 4, "note": 36, "vel": 120, "len": 1}, {"step": 5, "note": 36, "vel": 110, "len": 1}]}, {"bar": 3, "events": [{"step": 0, "note": 36, "vel": 127, "len": 1}, {"step": 4, "note": 36, "vel": 120, "len": 1}]}, {"bar": 4, "events": [{"step": 0, "note": 36, "vel": 127, "len": 1}, {"step": 2, "note": 36, "vel": 110, "len": 1}, {"step": 4, "note": 36, "vel": 120, "len": 1}]}, {"bar": 5, "events": [{"step": 0, "note": 36, "vel": 127, "len": 1}, {"step": 3, "note": 36, "vel": 115, "len": 1}, {"step": 4, "note": 36, "vel": 120, "len": 1}]}, {"bar": 6, "events": [{"step": 0, "note": 36, "vel": 127, "len": 1}, {"step": 3, "note": 36, "vel": 115, "len": 1}, {"step": 4, "note": 36, "vel": 120, "len": 1}]}, {"bar": 7, "events": [{"step": 0, "note": 36, "vel": 127, "len": 1}, {"step": 3, "note": 36, "vel": 115, "len": 1}, {"step": 4, "note": 36, "vel": 120, "len": 1}]}, {"bar": 8, "events": [{"step": 0, "note": 36, "vel": 127, "len": 1}, {"step": 1, "note": 36, "vel": 120, "len": 1}, {"step": 4, "note": 36, "vel": 127, "len": 1}]}]}, "pattern": [{"bar": 1, "events": [{"step": 0, "note": 36, "vel": 127, "len": 1}, {"step": 4, "note": 36, "vel": 120, "len": 1}]}, {"bar": 2, "events": [{"step": 0, "note": 36, "vel": 127, "len": 1}, {"step": 4, "note": 36, "vel": 120, "len": 1}, {"step": 5, "note": 36, "vel": 110, "len": 1}]}, {"bar": 3, "events": [{"step": 0, "note": 36, "vel": 127, "len": 1}, {"step": 4, "note": 36, "vel": 120, "len": 1}]}, {"bar": 4, "events": [{"step": 0, "note": 36, "vel": 127, "len": 1}, {"step": 2, "note": 36, "vel": 110, "len": 1}, {"step": 4, "note": 36, "vel": 120, "len": 1}]}, {"bar": 5, "events": [{"step": 0, "note": 36, "vel": 127, "len": 1}, {"step": 3, "note": 36, "vel": 115, "len": 1}, {"step": 4, "note": 36, "vel": 120, "len": 1}]}, {"bar": 6, "events": [{"step": 0, "note": 36, "vel": 127, "len": 1}, {"step": 3, "note": 36, "vel": 115, "len": 1}, {"step": 4, "note": 36, "vel": 120, "len": 1}]}, {"bar": 7, "events": [{"step": 0, "note": 36, "vel": 127, "len": 1}, {"step": 3, "note": 36, "vel": 115, "len": 1}, {"step": 4, "note": 36, "vel": 120, "len": 1}]}, {"bar": 8, "events": [{"step": 0, "note": 36, "vel": 127, "len": 1}, {"step": 1, "note": 36, "vel": 120, "len": 1}, {"step": 4, "note": 36, "vel": 127, "len": 1}]}]}, "Snare": {"meta": {"style": "Rock", "mood": "Energetic", "tempo": 140, "key": "E Minor", "meter": "4/4", "bars": 8, "length_seconds": 13.7, "dynamic_profile": "High-contrast", "instrument_configs": [{"name": "Electric Guitar", "register": "Mid", "role": "Lead"}, {"name": "Bass Guitar", "register": "Low", "role": "Bass"}, {"name": "Kick", "register": "Low", "role": "Percussion"}, {"name": "Snare", "register": "Mid", "role": "Percussion"}, {"name": "Hat", "register": "High", "role": "Percussion"}, {"name": "Crash", "register": "High", "role": "Percussion"}], "scale": "Minor", "arrangement_density": "Dense", "harmonic_color": "Saturated", "instruments": ["Electric Guitar", "Bass Guitar", "Kick", "Snare", "Hat", "Crash"], "instrument": "Snare"}, "layers": {"Snare": [{"bar": 1, "events": [{"step": 2, "note": 38, "vel": 120, "len": 1}, {"step": 6, "note": 38, "vel": 120, "len": 1}]}, {"bar": 2, "events": [{"step": 2, "note": 38, "vel": 120, "len": 1}, {"step": 6, "note": 38, "vel": 120, "len": 1}]}, {"bar": 3, "events": [{"step": 2, "note": 38, "vel": 120, "len": 1}, {"step": 6, "note": 38, "vel": 120, "len": 1}]}, {"bar": 4, "events": [{"step": 2, "note": 38, "vel": 120, "len": 1}, {"step": 4, "note": 38, "vel": 125, "len": 1}, {"step": 5, "note": 38, "vel": 125, "len": 1}, {"step": 6, "note": 38, "vel": 125, "len": 1}]}, {"bar": 5, "events": [{"step": 2, "note": 38, "vel": 127, "len": 1}, {"step": 6, "note": 38, "vel": 127, "len": 1}]}, {"bar": 6, "events": [{"step": 2, "note": 38, "vel": 127, "len": 1}, {"step": 6, "note": 38, "vel": 127, "len": 1}]}, {"bar": 7, "events": [{"step": 2, "note": 38, "vel": 127, "len": 1}, {"step": 6, "note": 38, "vel": 127, "len": 1}]}, {"bar": 8, "events": [{"step": 2, "note": 38, "vel": 127, "len": 1}, {"step": 6, "note": 38, "vel": 127, "len": 1}]}]}, "pattern": [{"bar": 1, "events": [{"step": 2, "note": 38, "vel": 120, "len": 1}, {"step": 6, "note": 38, "vel": 120, "len": 1}]}, {"bar": 2, "events": [{"step": 2, "note": 38, "vel": 120, "len": 1}, {"step": 6, "note": 38, "vel": 120, "len": 1}]}, {"bar": 3, "events": [{"step": 2, "note": 38, "vel": 120, "len": 1}, {"step": 6, "note": 38, "vel": 120, "len": 1}]}, {"bar": 4, "events": [{"step": 2, "note": 38, "vel": 120, "len": 1}, {"step": 4, "note": 38, "vel": 125, "len": 1}, {"step": 5, "note": 38, "vel": 125, "len": 1}, {"step": 6, "note": 38, "vel": 125, "len": 1}]}, {"bar": 5, "events": [{"step": 2, "note": 38, "vel": 127, "len": 1}, {"step": 6, "note": 38, "vel": 127, "len": 1}]}, {"bar": 6, "events": [{"step": 2, "note": 38, "vel": 127, "len": 1}, {"step": 6, "note": 38, "vel": 127, "len": 1}]}, {"bar": 7, "events": [{"step": 2, "note": 38, "vel": 127, "len": 1}, {"step": 6, "note": 38, "vel": 127, "len": 1}]}, {"bar": 8, "events": [{"step": 2, "note": 38, "vel": 127, "len": 1}, {"step": 6, "note": 38, "vel": 127, "len": 1}]}]}, "Hat": {"meta": {"style": "Rock", "mood": "Energetic", "tempo": 140, "key": "E Minor", "meter": "4/4", "bars": 8, "length_seconds": 13.7, "dynamic_profile": "High-contrast", "instrument_configs": [{"name": "Electric Guitar", "register": "Mid", "role": "Lead"}, {"name": "Bass Guitar", "register": "Low", "role": "Bass"}, {"name": "Kick", "register": "Low", "role": "Percussion"}, {"name": "Snare", "register": "Mid", "role": "Percussion"}, {"name": "Hat", "register": "High", "role": "Percussion"}, {"name": "Crash", "register": "High", "role": "Percussion"}], "scale": "Minor", "arrangement_density": "Dense", "harmonic_color": "Saturated", "instruments": ["Electric Guitar", "Bass Guitar", "Kick", "Snare", "Hat", "Crash"], "instrument": "Hat"}, "layers": {"Hat": [{"bar": 1, "events": [{"step": 0, "note": 42, "vel": 90, "len": 1}, {"step": 1, "note": 42, "vel": 70, "len": 1}, {"step": 2, "note": 42, "vel": 90, "len": 1}, {"step": 3, "note": 42, "vel": 70, "len": 1}, {"step": 4, "note": 42, "vel": 90, "len": 1}, {"step": 5, "note": 42, "vel": 70, "len": 1}, {"step": 6, "note": 42, "vel": 90, "len": 1}, {"step": 7, "note": 42, "vel": 70, "len": 1}]}, {"bar": 5, "events": [{"step": 0, "note": 42, "vel": 100, "len": 1}, {"step": 1, "note": 42, "vel": 80, "len": 1}, {"step": 2, "note": 42, "vel": 100, "len": 1}, {"step": 3, "note": 42, "vel": 80, "len": 1}, {"step": 4, "note": 42, "vel": 100, "len": 1}, {"step": 5, "note": 42, "vel": 80, "len": 1}, {"step": 6, "note": 42, "vel": 100, "len": 1}, {"step": 7, "note": 42, "vel": 80, "len": 1}]}]}, "pattern": [{"bar": 1, "events": [{"step": 0, "note": 42, "vel": 90, "len": 1}, {"step": 1, "note": 42, "vel": 70, "len": 1}, {"step": 2, "note": 42, "vel": 90, "len": 1}, {"step": 3, "note": 42, "vel": 70, "len": 1}, {"step": 4, "note": 42, "vel": 90, "len": 1}, {"step": 5, "note": 42, "vel": 70, "len": 1}, {"step": 6, "note": 42, "vel": 90, "len": 1}, {"step": 7, "note": 42, "vel": 70, "len": 1}]}, {"bar": 5, "events": [{"step": 0, "note": 42, "vel": 100, "len": 1}, {"step": 1, "note": 42, "vel": 80, "len": 1}, {"step": 2, "note": 42, "vel": 100, "len": 1}, {"step": 3, "note": 42, "vel": 80, "len": 1}, {"step": 4, "note": 42, "vel": 100, "len": 1}, {"step": 5, "note": 42, "vel": 80, "len": 1}, {"step": 6, "note": 42, "vel": 100, "len": 1}, {"step": 7, "note": 42, "vel": 80, "len": 1}]}]}, "Crash": {"meta": {"style": "Rock", "mood": "Energetic", "tempo": 140, "key": "E Minor", "meter": "4/4", "bars": 8, "length_seconds": 13.7, "dynamic_profile": "High-contrast", "instrument_configs": [{"name": "Electric Guitar", "register": "Mid", "role": "Lead"}, {"name": "Bass Guitar", "register": "Low", "role": "Bass"}, {"name": "Kick", "register": "Low", "role": "Percussion"}, {"name": "Snare", "register": "Mid", "role": "Percussion"}, {"name": "Hat", "register": "High", "role": "Percussion"}, {"name": "Crash", "register": "High", "role": "Percussion"}], "scale": "Minor", "arrangement_density": "Dense", "harmonic_color": "Saturated", "instruments": ["Electric Guitar", "Bass Guitar", "Kick", "Snare", "Hat", "Crash"], "instrument": "Crash"}, "layers": {"Crash": [{"bar": 1, "events": [{"step": 0, "note": 49, "vel": 127, "len": 2}]}, {"bar": 5, "events": [{"step": 0, "note": 49, "vel": 127, "len": 2}]}, {"bar": 8, "events": [{"step": 4, "note": 49, "vel": 127, "len": 2}]}]}, "pattern": [{"bar": 1, "events": [{"step": 0, "note": 49, "vel": 127, "len": 2}]}, {"bar": 5, "events": [{"step": 0, "note": 49, "vel": 127, "len": 2}]}, {"bar": 8, "events": [{"step": 4, "note": 49, "vel": 127, "len": 2}]}]}}