{"meta": {"style": "Rock", "mood": "Energetic", "tempo": 140, "key": "E Minor", "meter": "4/4", "bars": 8, "length_seconds": 13.7, "dynamic_profile": "High-contrast", "instrument_configs": [{"name": "Electric Guitar", "register": "Mid", "role": "Lead"}, {"name": "Bass Guitar", "register": "Low", "role": "Bass"}, {"name": "Kick", "register": "Low", "role": "Percussion"}, {"name": "Snare", "register": "Mid", "role": "Percussion"}, {"name": "Hat", "register": "High", "role": "Percussion"}, {"name": "Crash", "register": "High", "role": "Percussion"}], "scale": "Minor", "arrangement_density": "Dense", "harmonic_color": "Saturated", "instruments": ["Electric Guitar", "Bass Guitar", "Kick", "Snare", "Hat", "Crash"], "instrument": "Kick"}, "layers": {"Kick": [{"bar": 1, "events": [{"step": 0, "note": 36, "vel": 127, "len": 1}, {"step": 4, "note": 36, "vel": 120, "len": 1}]}, {"bar": 2, "events": [{"step": 0, "note": 36, "vel": 127, "len": 1}, {"step": 4, "note": 36, "vel": 120, "len": 1}, {"step": 5, "note": 36, "vel": 110, "len": 1}]}, {"bar": 3, "events": [{"step": 0, "note": 36, "vel": 127, "len": 1}, {"step": 4, "note": 36, "vel": 120, "len": 1}]}, {"bar": 4, "events": [{"step": 0, "note": 36, "vel": 127, "len": 1}, {"step": 2, "note": 36, "vel": 110, "len": 1}, {"step": 4, "note": 36, "vel": 120, "len": 1}]}, {"bar": 5, "events": [{"step": 0, "note": 36, "vel": 127, "len": 1}, {"step": 3, "note": 36, "vel": 115, "len": 1}, {"step": 4, "note": 36, "vel": 120, "len": 1}]}, {"bar": 6, "events": [{"step": 0, "note": 36, "vel": 127, "len": 1}, {"step": 3, "note": 36, "vel": 115, "len": 1}, {"step": 4, "note": 36, "vel": 120, "len": 1}]}, {"bar": 7, "events": [{"step": 0, "note": 36, "vel": 127, "len": 1}, {"step": 3, "note": 36, "vel": 115, "len": 1}, {"step": 4, "note": 36, "vel": 120, "len": 1}]}, {"bar": 8, "events": [{"step": 0, "note": 36, "vel": 127, "len": 1}, {"step": 1, "note": 36, "vel": 120, "len": 1}, {"step": 4, "note": 36, "vel": 127, "len": 1}]}]}, "pattern": [{"bar": 1, "events": [{"step": 0, "note": 36, "vel": 127, "len": 1}, {"step": 4, "note": 36, "vel": 120, "len": 1}]}, {"bar": 2, "events": [{"step": 0, "note": 36, "vel": 127, "len": 1}, {"step": 4, "note": 36, "vel": 120, "len": 1}, {"step": 5, "note": 36, "vel": 110, "len": 1}]}, {"bar": 3, "events": [{"step": 0, "note": 36, "vel": 127, "len": 1}, {"step": 4, "note": 36, "vel": 120, "len": 1}]}, {"bar": 4, "events": [{"step": 0, "note": 36, "vel": 127, "len": 1}, {"step": 2, "note": 36, "vel": 110, "len": 1}, {"step": 4, "note": 36, "vel": 120, "len": 1}]}, {"bar": 5, "events": [{"step": 0, "note": 36, "vel": 127, "len": 1}, {"step": 3, "note": 36, "vel": 115, "len": 1}, {"step": 4, "note": 36, "vel": 120, "len": 1}]}, {"bar": 6, "events": [{"step": 0, "note": 36, "vel": 127, "len": 1}, {"step": 3, "note": 36, "vel": 115, "len": 1}, {"step": 4, "note": 36, "vel": 120, "len": 1}]}, {"bar": 7, "events": [{"step": 0, "note": 36, "vel": 127, "len": 1}, {"step": 3, "note": 36, "vel": 115, "len": 1}, {"step": 4, "note": 36, "vel": 120, "len": 1}]}, {"bar": 8, "events": [{"step": 0, "note": 36, "vel": 127, "len": 1}, {"step": 1, "note": 36, "vel": 120, "len": 1}, {"step": 4, "note": 36, "vel": 127, "len": 1}]}]}