{"pattern": [], "layers": {"Kick": [{"bar": 1, "events": [{"step": 0, "note": 36, "vel": 90, "len": 1}, {"step": 4, "note": 36, "vel": 90, "len": 1}]}, {"bar": 2, "events": [{"step": 0, "note": 36, "vel": 90, "len": 1}, {"step": 4, "note": 36, "vel": 90, "len": 1}]}, {"bar": 3, "events": [{"step": 0, "note": 36, "vel": 90, "len": 1}, {"step": 4, "note": 36, "vel": 90, "len": 1}]}, {"bar": 4, "events": [{"step": 0, "note": 36, "vel": 90, "len": 1}, {"step": 4, "note": 36, "vel": 90, "len": 1}]}, {"bar": 5, "events": [{"step": 0, "note": 36, "vel": 90, "len": 1}, {"step": 4, "note": 36, "vel": 90, "len": 1}]}, {"bar": 6, "events": [{"step": 0, "note": 36, "vel": 90, "len": 1}, {"step": 4, "note": 36, "vel": 90, "len": 1}]}, {"bar": 7, "events": [{"step": 0, "note": 36, "vel": 90, "len": 1}, {"step": 4, "note": 36, "vel": 90, "len": 1}]}, {"bar": 8, "events": [{"step": 0, "note": 36, "vel": 90, "len": 1}, {"step": 4, "note": 36, "vel": 90, "len": 1}]}, {"bar": 9, "events": [{"step": 0, "note": 36, "vel": 100, "len": 1}, {"step": 4, "note": 36, "vel": 100, "len": 1}]}, {"bar": 10, "events": [{"step": 0, "note": 36, "vel": 100, "len": 1}, {"step": 4, "note": 36, "vel": 100, "len": 1}]}, {"bar": 11, "events": [{"step": 0, "note": 36, "vel": 100, "len": 1}, {"step": 4, "note": 36, "vel": 100, "len": 1}]}, {"bar": 12, "events": [{"step": 0, "note": 36, "vel": 100, "len": 1}, {"step": 4, "note": 36, "vel": 100, "len": 1}]}, {"bar": 13, "events": [{"step": 0, "note": 36, "vel": 100, "len": 1}, {"step": 4, "note": 36, "vel": 100, "len": 1}]}, {"bar": 14, "events": [{"step": 0, "note": 36, "vel": 100, "len": 1}, {"step": 4, "note": 36, "vel": 100, "len": 1}]}, {"bar": 15, "events": [{"step": 0, "note": 36, "vel": 100, "len": 1}, {"step": 4, "note": 36, "vel": 100, "len": 1}]}, {"bar": 16, "events": [{"step": 0, "note": 36, "vel": 105, "len": 1}, {"step": 4, "note": 36, "vel": 105, "len": 1}, {"step": 7, "note": 36, "vel": 105, "len": 1}]}, {"bar": 17, "events": [{"step": 0, "note": 36, "vel": 105, "len": 1}, {"step": 3, "note": 36, "vel": 95, "len": 1}, {"step": 4, "note": 36, "vel": 105, "len": 1}]}, {"bar": 18, "events": [{"step": 0, "note": 36, "vel": 105, "len": 1}, {"step": 3, "note": 36, "vel": 95, "len": 1}, {"step": 4, "note": 36, "vel": 105, "len": 1}]}, {"bar": 19, "events": [{"step": 0, "note": 36, "vel": 105, "len": 1}, {"step": 3, "note": 36, "vel": 95, "len": 1}, {"step": 4, "note": 36, "vel": 105, "len": 1}]}, {"bar": 20, "events": [{"step": 0, "note": 36, "vel": 105, "len": 1}, {"step": 3, "note": 36, "vel": 95, "len": 1}, {"step": 4, "note": 36, "vel": 105, "len": 1}]}, {"bar": 21, "events": [{"step": 0, "note": 36, "vel": 105, "len": 1}, {"step": 3, "note": 36, "vel": 95, "len": 1}, {"step": 4, "note": 36, "vel": 105, "len": 1}]}, {"bar": 22, "events": [{"step": 0, "note": 36, "vel": 105, "len": 1}, {"step": 3, "note": 36, "vel": 95, "len": 1}, {"step": 4, "note": 36, "vel": 105, "len": 1}]}, {"bar": 23, "events": [{"step": 0, "note": 36, "vel": 105, "len": 1}, {"step": 3, "note": 36, "vel": 95, "len": 1}, {"step": 4, "note": 36, "vel": 105, "len": 1}]}, {"bar": 24, "events": [{"step": 0, "note": 36, "vel": 105, "len": 1}, {"step": 3, "note": 36, "vel": 95, "len": 1}, {"step": 4, "note": 36, "vel": 105, "len": 1}]}, {"bar": 25, "events": [{"step": 0, "note": 36, "vel": 115, "len": 1}, {"step": 4, "note": 36, "vel": 115, "len": 1}]}, {"bar": 26, "events": [{"step": 0, "note": 36, "vel": 115, "len": 1}, {"step": 4, "note": 36, "vel": 115, "len": 1}]}, {"bar": 27, "events": [{"step": 0, "note": 36, "vel": 115, "len": 1}, {"step": 4, "note": 36, "vel": 115, "len": 1}]}, {"bar": 28, "events": [{"step": 0, "note": 36, "vel": 115, "len": 1}, {"step": 4, "note": 36, "vel": 115, "len": 1}]}, {"bar": 29, "events": [{"step": 0, "note": 36, "vel": 115, "len": 1}, {"step": 4, "note": 36, "vel": 115, "len": 1}]}, {"bar": 30, "events": [{"step": 0, "note": 36, "vel": 115, "len": 1}, {"step": 4, "note": 36, "vel": 115, "len": 1}]}, {"bar": 31, "events": [{"step": 0, "note": 36, "vel": 115, "len": 1}, {"step": 4, "note": 36, "vel": 115, "len": 1}]}, {"bar": 32, "events": [{"step": 0, "note": 36, "vel": 115, "len": 1}, {"step": 3, "note": 36, "vel": 100, "len": 1}, {"step": 4, "note": 36, "vel": 115, "len": 1}]}, {"bar": 33, "events": [{"step": 0, "note": 36, "vel": 105, "len": 1}, {"step": 4, "note": 36, "vel": 105, "len": 1}]}, {"bar": 34, "events": [{"step": 0, "note": 36, "vel": 105, "len": 1}, {"step": 4, "note": 36, "vel": 105, "len": 1}]}, {"bar": 35, "events": [{"step": 0, "note": 36, "vel": 105, "len": 1}, {"step": 4, "note": 36, "vel": 105, "len": 1}]}, {"bar": 36, "events": [{"step": 0, "note": 36, "vel": 105, "len": 1}, {"step": 4, "note": 36, "vel": 105, "len": 1}]}, {"bar": 37, "events": [{"step": 0, "note": 36, "vel": 105, "len": 1}, {"step": 4, "note": 36, "vel": 105, "len": 1}]}, {"bar": 38, "events": [{"step": 0, "note": 36, "vel": 105, "len": 1}, {"step": 4, "note": 36, "vel": 105, "len": 1}]}, {"bar": 39, "events": [{"step": 0, "note": 36, "vel": 105, "len": 1}, {"step": 4, "note": 36, "vel": 105, "len": 1}]}, {"bar": 40, "events": [{"step": 0, "note": 36, "vel": 110, "len": 1}]}, {"bar": 41, "events": [{"step": 0, "note": 36, "vel": 110, "len": 1}, {"step": 4, "note": 36, "vel": 110, "len": 1}]}, {"bar": 42, "events": [{"step": 0, "note": 36, "vel": 110, "len": 1}, {"step": 4, "note": 36, "vel": 110, "len": 1}]}, {"bar": 43, "events": [{"step": 0, "note": 36, "vel": 110, "len": 1}, {"step": 4, "note": 36, "vel": 110, "len": 1}]}, {"bar": 44, "events": [{"step": 0, "note": 36, "vel": 110, "len": 1}, {"step": 4, "note": 36, "vel": 110, "len": 1}]}, {"bar": 45, "events": [{"step": 0, "note": 36, "vel": 115, "len": 1}, {"step": 4, "note": 36, "vel": 115, "len": 1}]}, {"bar": 46, "events": [{"step": 0, "note": 36, "vel": 115, "len": 1}, {"step": 4, "note": 36, "vel": 115, "len": 1}]}, {"bar": 47, "events": [{"step": 0, "note": 36, "vel": 120, "len": 1}, {"step": 4, "note": 36, "vel": 120, "len": 1}]}, {"bar": 48, "events": [{"step": 0, "note": 36, "vel": 125, "len": 1}]}, {"bar": 49, "events": [{"step": 0, "note": 36, "vel": 127, "len": 1}, {"step": 1, "note": 36, "vel": 120, "len": 1}, {"step": 4, "note": 36, "vel": 127, "len": 1}, {"step": 5, "note": 36, "vel": 120, "len": 1}]}, {"bar": 50, "events": [{"step": 0, "note": 36, "vel": 127, "len": 1}, {"step": 1, "note": 36, "vel": 120, "len": 1}, {"step": 4, "note": 36, "vel": 127, "len": 1}, {"step": 5, "note": 36, "vel": 120, "len": 1}]}, {"bar": 51, "events": [{"step": 0, "note": 36, "vel": 127, "len": 1}, {"step": 1, "note": 36, "vel": 120, "len": 1}, {"step": 4, "note": 36, "vel": 127, "len": 1}, {"step": 5, "note": 36, "vel": 120, "len": 1}]}, {"bar": 52, "events": [{"step": 0, "note": 36, "vel": 127, "len": 1}, {"step": 1, "note": 36, "vel": 120, "len": 1}, {"step": 4, "note": 36, "vel": 127, "len": 1}, {"step": 5, "note": 36, "vel": 120, "len": 1}]}, {"bar": 53, "events": [{"step": 0, "note": 36, "vel": 127, "len": 1}, {"step": 1, "note": 36, "vel": 120, "len": 1}, {"step": 4, "note": 36, "vel": 127, "len": 1}, {"step": 5, "note": 36, "vel": 120, "len": 1}]}, {"bar": 54, "events": [{"step": 0, "note": 36, "vel": 127, "len": 1}, {"step": 1, "note": 36, "vel": 120, "len": 1}, {"step": 4, "note": 36, "vel": 127, "len": 1}, {"step": 5, "note": 36, "vel": 120, "len": 1}]}, {"bar": 55, "events": [{"step": 0, "note": 36, "vel": 127, "len": 1}, {"step": 1, "note": 36, "vel": 120, "len": 1}, {"step": 4, "note": 36, "vel": 127, "len": 1}, {"step": 5, "note": 36, "vel": 120, "len": 1}]}, {"bar": 56, "events": [{"step": 0, "note": 36, "vel": 127, "len": 1}, {"step": 1, "note": 36, "vel": 120, "len": 1}, {"step": 4, "note": 36, "vel": 127, "len": 1}, {"step": 7, "note": 36, "vel": 120, "len": 1}]}, {"bar": 57, "events": [{"step": 0, "note": 36, "vel": 127, "len": 1}, {"step": 1, "note": 36, "vel": 120, "len": 1}, {"step": 4, "note": 36, "vel": 127, "len": 1}, {"step": 5, "note": 36, "vel": 120, "len": 1}]}, {"bar": 58, "events": [{"step": 0, "note": 36, "vel": 127, "len": 1}, {"step": 1, "note": 36, "vel": 120, "len": 1}, {"step": 4, "note": 36, "vel": 127, "len": 1}, {"step": 5, "note": 36, "vel": 120, "len": 1}]}, {"bar": 59, "events": [{"step": 0, "note": 36, "vel": 127, "len": 1}, {"step": 1, "note": 36, "vel": 120, "len": 1}, {"step": 4, "note": 36, "vel": 127, "len": 1}, {"step": 5, "note": 36, "vel": 120, "len": 1}]}, {"bar": 60, "events": [{"step": 0, "note": 36, "vel": 127, "len": 1}, {"step": 1, "note": 36, "vel": 120, "len": 1}, {"step": 4, "note": 36, "vel": 127, "len": 1}, {"step": 5, "note": 36, "vel": 120, "len": 1}]}, {"bar": 61, "events": [{"step": 0, "note": 36, "vel": 127, "len": 1}, {"step": 1, "note": 36, "vel": 120, "len": 1}, {"step": 4, "note": 36, "vel": 127, "len": 1}, {"step": 5, "note": 36, "vel": 120, "len": 1}]}, {"bar": 62, "events": [{"step": 0, "note": 36, "vel": 127, "len": 1}, {"step": 1, "note": 36, "vel": 120, "len": 1}, {"step": 4, "note": 36, "vel": 127, "len": 1}, {"step": 5, "note": 36, "vel": 120, "len": 1}]}, {"bar": 63, "events": [{"step": 0, "note": 36, "vel": 127, "len": 1}, {"step": 1, "note": 36, "vel": 120, "len": 1}, {"step": 4, "note": 36, "vel": 127, "len": 1}, {"step": 5, "note": 36, "vel": 120, "len": 1}]}, {"bar": 64, "events": [{"step": 0, "note": 36, "vel": 127, "len": 1}]}], "Snare": [{"bar": 9, "events": [{"step": 2, "note": 38, "vel": 100, "len": 1}, {"step": 6, "note": 38, "vel": 100, "len": 1}]}, {"bar": 10, "events": [{"step": 2, "note": 38, "vel": 100, "len": 1}, {"step": 6, "note": 38, "vel": 100, "len": 1}]}, {"bar": 11, "events": [{"step": 2, "note": 38, "vel": 100, "len": 1}, {"step": 6, "note": 38, "vel": 100, "len": 1}]}, {"bar": 12, "events": [{"step": 2, "note": 38, "vel": 100, "len": 1}, {"step": 6, "note": 38, "vel": 100, "len": 1}]}, {"bar": 13, "events": [{"step": 2, "note": 38, "vel": 100, "len": 1}, {"step": 6, "note": 38, "vel": 100, "len": 1}]}, {"bar": 14, "events": [{"step": 2, "note": 38, "vel": 100, "len": 1}, {"step": 6, "note": 38, "vel": 100, "len": 1}]}, {"bar": 15, "events": [{"step": 2, "note": 38, "vel": 100, "len": 1}, {"step": 6, "note": 38, "vel": 100, "len": 1}]}, {"bar": 16, "events": [{"step": 2, "note": 38, "vel": 105, "len": 1}, {"step": 6, "note": 38, "vel": 105, "len": 1}]}, {"bar": 17, "events": [{"step": 2, "note": 38, "vel": 105, "len": 1}, {"step": 6, "note": 38, "vel": 105, "len": 1}]}, {"bar": 18, "events": [{"step": 2, "note": 38, "vel": 105, "len": 1}, {"step": 6, "note": 38, "vel": 105, "len": 1}]}, {"bar": 19, "events": [{"step": 2, "note": 38, "vel": 105, "len": 1}, {"step": 6, "note": 38, "vel": 105, "len": 1}]}, {"bar": 20, "events": [{"step": 2, "note": 38, "vel": 105, "len": 1}, {"step": 6, "note": 38, "vel": 105, "len": 1}]}, {"bar": 21, "events": [{"step": 2, "note": 38, "vel": 105, "len": 1}, {"step": 6, "note": 38, "vel": 105, "len": 1}]}, {"bar": 22, "events": [{"step": 2, "note": 38, "vel": 105, "len": 1}, {"step": 6, "note": 38, "vel": 105, "len": 1}]}, {"bar": 23, "events": [{"step": 2, "note": 38, "vel": 105, "len": 1}, {"step": 6, "note": 38, "vel": 105, "len": 1}]}, {"bar": 24, "events": [{"step": 2, "note": 38, "vel": 105, "len": 1}, {"step": 5, "note": 38, "vel": 90, "len": 1}, {"step": 6, "note": 38, "vel": 105, "len": 1}, {"step": 7, "note": 38, "vel": 95, "len": 1}]}, {"bar": 25, "events": [{"step": 2, "note": 38, "vel": 115, "len": 1}, {"step": 6, "note": 38, "vel": 115, "len": 1}]}, {"bar": 26, "events": [{"step": 2, "note": 38, "vel": 115, "len": 1}, {"step": 6, "note": 38, "vel": 115, "len": 1}]}, {"bar": 27, "events": [{"step": 2, "note": 38, "vel": 115, "len": 1}, {"step": 6, "note": 38, "vel": 115, "len": 1}]}, {"bar": 28, "events": [{"step": 2, "note": 38, "vel": 115, "len": 1}, {"step": 6, "note": 38, "vel": 115, "len": 1}]}, {"bar": 29, "events": [{"step": 2, "note": 38, "vel": 115, "len": 1}, {"step": 6, "note": 38, "vel": 115, "len": 1}]}, {"bar": 30, "events": [{"step": 2, "note": 38, "vel": 115, "len": 1}, {"step": 6, "note": 38, "vel": 115, "len": 1}]}, {"bar": 31, "events": [{"step": 2, "note": 38, "vel": 115, "len": 1}, {"step": 6, "note": 38, "vel": 115, "len": 1}]}, {"bar": 32, "events": [{"step": 2, "note": 38, "vel": 115, "len": 1}, {"step": 6, "note": 38, "vel": 115, "len": 1}]}, {"bar": 33, "events": [{"step": 2, "note": 38, "vel": 105, "len": 1}, {"step": 6, "note": 38, "vel": 105, "len": 1}]}, {"bar": 34, "events": [{"step": 2, "note": 38, "vel": 105, "len": 1}, {"step": 6, "note": 38, "vel": 105, "len": 1}]}, {"bar": 35, "events": [{"step": 2, "note": 38, "vel": 105, "len": 1}, {"step": 6, "note": 38, "vel": 105, "len": 1}]}, {"bar": 36, "events": [{"step": 2, "note": 38, "vel": 105, "len": 1}, {"step": 6, "note": 38, "vel": 105, "len": 1}]}, {"bar": 37, "events": [{"step": 2, "note": 38, "vel": 105, "len": 1}, {"step": 6, "note": 38, "vel": 105, "len": 1}]}, {"bar": 38, "events": [{"step": 2, "note": 38, "vel": 105, "len": 1}, {"step": 6, "note": 38, "vel": 105, "len": 1}]}, {"bar": 39, "events": [{"step": 2, "note": 38, "vel": 105, "len": 1}, {"step": 6, "note": 38, "vel": 105, "len": 1}]}, {"bar": 40, "events": [{"step": 2, "note": 38, "vel": 110, "len": 1}, {"step": 4, "note": 38, "vel": 90, "len": 1}, {"step": 5, "note": 38, "vel": 95, "len": 1}, {"step": 6, "note": 38, "vel": 100, "len": 1}, {"step": 7, "note": 38, "vel": 105, "len": 1}]}, {"bar": 41, "events": [{"step": 2, "note": 38, "vel": 110, "len": 1}, {"step": 6, "note": 38, "vel": 110, "len": 1}]}, {"bar": 42, "events": [{"step": 2, "note": 38, "vel": 110, "len": 1}, {"step": 6, "note": 38, "vel": 110, "len": 1}]}, {"bar": 43, "events": [{"step": 2, "note": 38, "vel": 110, "len": 1}, {"step": 6, "note": 38, "vel": 110, "len": 1}]}, {"bar": 44, "events": [{"step": 2, "note": 38, "vel": 110, "len": 1}, {"step": 6, "note": 38, "vel": 110, "len": 1}]}, {"bar": 45, "events": [{"step": 2, "note": 38, "vel": 115, "len": 1}, {"step": 6, "note": 38, "vel": 115, "len": 1}]}, {"bar": 46, "events": [{"step": 2, "note": 38, "vel": 115, "len": 1}, {"step": 6, "note": 38, "vel": 115, "len": 1}]}, {"bar": 47, "events": [{"step": 2, "note": 38, "vel": 120, "len": 1}, {"step": 4, "note": 38, "vel": 110, "len": 1}, {"step": 6, "note": 38, "vel": 120, "len": 1}, {"step": 7, "note": 38, "vel": 115, "len": 1}]}, {"bar": 48, "events": [{"step": 0, "note": 38, "vel": 115, "len": 1}, {"step": 1, "note": 38, "vel": 117, "len": 1}, {"step": 2, "note": 38, "vel": 119, "len": 1}, {"step": 3, "note": 38, "vel": 121, "len": 1}, {"step": 4, "note": 38, "vel": 123, "len": 1}, {"step": 5, "note": 38, "vel": 125, "len": 1}, {"step": 6, "note": 38, "vel": 126, "len": 1}, {"step": 7, "note": 38, "vel": 127, "len": 1}]}, {"bar": 49, "events": [{"step": 2, "note": 38, "vel": 127, "len": 1}, {"step": 6, "note": 38, "vel": 127, "len": 1}]}, {"bar": 50, "events": [{"step": 2, "note": 38, "vel": 127, "len": 1}, {"step": 6, "note": 38, "vel": 127, "len": 1}]}, {"bar": 51, "events": [{"step": 2, "note": 38, "vel": 127, "len": 1}, {"step": 6, "note": 38, "vel": 127, "len": 1}]}, {"bar": 52, "events": [{"step": 2, "note": 38, "vel": 127, "len": 1}, {"step": 6, "note": 38, "vel": 127, "len": 1}]}, {"bar": 53, "events": [{"step": 2, "note": 38, "vel": 127, "len": 1}, {"step": 6, "note": 38, "vel": 127, "len": 1}]}, {"bar": 54, "events": [{"step": 2, "note": 38, "vel": 127, "len": 1}, {"step": 6, "note": 38, "vel": 127, "len": 1}]}, {"bar": 55, "events": [{"step": 2, "note": 38, "vel": 127, "len": 1}, {"step": 6, "note": 38, "vel": 127, "len": 1}]}, {"bar": 56, "events": [{"step": 2, "note": 38, "vel": 127, "len": 1}, {"step": 6, "note": 38, "vel": 127, "len": 1}]}, {"bar": 57, "events": [{"step": 2, "note": 38, "vel": 127, "len": 1}, {"step": 6, "note": 38, "vel": 127, "len": 1}]}, {"bar": 58, "events": [{"step": 2, "note": 38, "vel": 127, "len": 1}, {"step": 6, "note": 38, "vel": 127, "len": 1}]}, {"bar": 59, "events": [{"step": 2, "note": 38, "vel": 127, "len": 1}, {"step": 6, "note": 38, "vel": 127, "len": 1}]}, {"bar": 60, "events": [{"step": 2, "note": 38, "vel": 127, "len": 1}, {"step": 6, "note": 38, "vel": 127, "len": 1}]}, {"bar": 61, "events": [{"step": 2, "note": 38, "vel": 127, "len": 1}, {"step": 6, "note": 38, "vel": 127, "len": 1}]}, {"bar": 62, "events": [{"step": 2, "note": 38, "vel": 127, "len": 1}, {"step": 6, "note": 38, "vel": 127, "len": 1}]}, {"bar": 63, "events": [{"step": 2, "note": 38, "vel": 127, "len": 1}, {"step": 6, "note": 38, "vel": 127, "len": 1}]}, {"bar": 64, "events": []}], "Hat": [{"bar": 1, "events": [{"step": 0, "note": 42, "vel": 85, "len": 1}, {"step": 2, "note": 42, "vel": 85, "len": 1}, {"step": 4, "note": 42, "vel": 85, "len": 1}, {"step": 6, "note": 42, "vel": 85, "len": 1}]}, {"bar": 2, "events": [{"step": 0, "note": 42, "vel": 85, "len": 1}, {"step": 2, "note": 42, "vel": 85, "len": 1}, {"step": 4, "note": 42, "vel": 85, "len": 1}, {"step": 6, "note": 42, "vel": 85, "len": 1}]}, {"bar": 3, "events": [{"step": 0, "note": 42, "vel": 85, "len": 1}, {"step": 2, "note": 42, "vel": 85, "len": 1}, {"step": 4, "note": 42, "vel": 85, "len": 1}, {"step": 6, "note": 42, "vel": 85, "len": 1}]}, {"bar": 4, "events": [{"step": 0, "note": 42, "vel": 85, "len": 1}, {"step": 2, "note": 42, "vel": 85, "len": 1}, {"step": 4, "note": 42, "vel": 85, "len": 1}, {"step": 6, "note": 42, "vel": 85, "len": 1}]}, {"bar": 5, "events": [{"step": 0, "note": 42, "vel": 85, "len": 1}, {"step": 2, "note": 42, "vel": 85, "len": 1}, {"step": 4, "note": 42, "vel": 85, "len": 1}, {"step": 6, "note": 42, "vel": 85, "len": 1}]}, {"bar": 6, "events": [{"step": 0, "note": 42, "vel": 85, "len": 1}, {"step": 2, "note": 42, "vel": 85, "len": 1}, {"step": 4, "note": 42, "vel": 85, "len": 1}, {"step": 6, "note": 42, "vel": 85, "len": 1}]}, {"bar": 7, "events": [{"step": 0, "note": 42, "vel": 85, "len": 1}, {"step": 2, "note": 42, "vel": 85, "len": 1}, {"step": 4, "note": 42, "vel": 85, "len": 1}, {"step": 6, "note": 42, "vel": 85, "len": 1}]}, {"bar": 8, "events": [{"step": 0, "note": 42, "vel": 85, "len": 1}, {"step": 2, "note": 42, "vel": 85, "len": 1}, {"step": 4, "note": 42, "vel": 85, "len": 1}, {"step": 6, "note": 42, "vel": 85, "len": 1}]}, {"bar": 9, "events": [{"step": 0, "note": 42, "vel": 95, "len": 1}, {"step": 2, "note": 42, "vel": 95, "len": 1}, {"step": 4, "note": 42, "vel": 95, "len": 1}, {"step": 6, "note": 42, "vel": 95, "len": 1}]}, {"bar": 10, "events": [{"step": 0, "note": 42, "vel": 95, "len": 1}, {"step": 2, "note": 42, "vel": 95, "len": 1}, {"step": 4, "note": 42, "vel": 95, "len": 1}, {"step": 6, "note": 42, "vel": 95, "len": 1}]}, {"bar": 11, "events": [{"step": 0, "note": 42, "vel": 95, "len": 1}, {"step": 2, "note": 42, "vel": 95, "len": 1}, {"step": 4, "note": 42, "vel": 95, "len": 1}, {"step": 6, "note": 42, "vel": 95, "len": 1}]}, {"bar": 12, "events": [{"step": 0, "note": 42, "vel": 95, "len": 1}, {"step": 2, "note": 42, "vel": 95, "len": 1}, {"step": 4, "note": 42, "vel": 95, "len": 1}, {"step": 6, "note": 42, "vel": 95, "len": 1}]}, {"bar": 13, "events": [{"step": 0, "note": 42, "vel": 95, "len": 1}, {"step": 2, "note": 42, "vel": 95, "len": 1}, {"step": 4, "note": 42, "vel": 95, "len": 1}, {"step": 6, "note": 42, "vel": 95, "len": 1}]}, {"bar": 14, "events": [{"step": 0, "note": 42, "vel": 95, "len": 1}, {"step": 2, "note": 42, "vel": 95, "len": 1}, {"step": 4, "note": 42, "vel": 95, "len": 1}, {"step": 6, "note": 42, "vel": 95, "len": 1}]}, {"bar": 15, "events": [{"step": 0, "note": 42, "vel": 95, "len": 1}, {"step": 2, "note": 42, "vel": 95, "len": 1}, {"step": 4, "note": 42, "vel": 95, "len": 1}, {"step": 6, "note": 42, "vel": 95, "len": 1}]}, {"bar": 16, "events": [{"step": 0, "note": 42, "vel": 95, "len": 1}, {"step": 2, "note": 42, "vel": 95, "len": 1}, {"step": 4, "note": 42, "vel": 95, "len": 1}, {"step": 6, "note": 42, "vel": 95, "len": 1}]}, {"bar": 17, "events": [{"step": 0, "note": 42, "vel": 100, "len": 1}, {"step": 2, "note": 42, "vel": 100, "len": 1}, {"step": 4, "note": 42, "vel": 100, "len": 1}, {"step": 6, "note": 42, "vel": 100, "len": 1}]}, {"bar": 18, "events": [{"step": 0, "note": 42, "vel": 100, "len": 1}, {"step": 2, "note": 42, "vel": 100, "len": 1}, {"step": 4, "note": 42, "vel": 100, "len": 1}, {"step": 6, "note": 42, "vel": 100, "len": 1}]}, {"bar": 19, "events": [{"step": 0, "note": 42, "vel": 100, "len": 1}, {"step": 2, "note": 42, "vel": 100, "len": 1}, {"step": 4, "note": 42, "vel": 100, "len": 1}, {"step": 6, "note": 42, "vel": 100, "len": 1}]}, {"bar": 20, "events": [{"step": 0, "note": 42, "vel": 100, "len": 1}, {"step": 2, "note": 42, "vel": 100, "len": 1}, {"step": 4, "note": 42, "vel": 100, "len": 1}, {"step": 6, "note": 42, "vel": 100, "len": 1}]}, {"bar": 21, "events": [{"step": 0, "note": 42, "vel": 100, "len": 1}, {"step": 2, "note": 42, "vel": 100, "len": 1}, {"step": 4, "note": 42, "vel": 100, "len": 1}, {"step": 6, "note": 42, "vel": 100, "len": 1}]}, {"bar": 22, "events": [{"step": 0, "note": 42, "vel": 100, "len": 1}, {"step": 2, "note": 42, "vel": 100, "len": 1}, {"step": 4, "note": 42, "vel": 100, "len": 1}, {"step": 6, "note": 42, "vel": 100, "len": 1}]}, {"bar": 23, "events": [{"step": 0, "note": 42, "vel": 100, "len": 1}, {"step": 2, "note": 42, "vel": 100, "len": 1}, {"step": 4, "note": 42, "vel": 100, "len": 1}, {"step": 6, "note": 42, "vel": 100, "len": 1}]}, {"bar": 24, "events": [{"step": 0, "note": 42, "vel": 100, "len": 1}, {"step": 2, "note": 42, "vel": 100, "len": 1}, {"step": 4, "note": 42, "vel": 100, "len": 1}]}, {"bar": 25, "events": [{"step": 0, "note": 42, "vel": 110, "len": 1}, {"step": 1, "note": 42, "vel": 100, "len": 1}, {"step": 2, "note": 42, "vel": 110, "len": 1}, {"step": 3, "note": 42, "vel": 100, "len": 1}, {"step": 4, "note": 42, "vel": 110, "len": 1}, {"step": 5, "note": 42, "vel": 100, "len": 1}, {"step": 6, "note": 42, "vel": 110, "len": 1}, {"step": 7, "note": 42, "vel": 100, "len": 1}]}, {"bar": 26, "events": [{"step": 0, "note": 42, "vel": 110, "len": 1}, {"step": 1, "note": 42, "vel": 100, "len": 1}, {"step": 2, "note": 42, "vel": 110, "len": 1}, {"step": 3, "note": 42, "vel": 100, "len": 1}, {"step": 4, "note": 42, "vel": 110, "len": 1}, {"step": 5, "note": 42, "vel": 100, "len": 1}, {"step": 6, "note": 42, "vel": 110, "len": 1}, {"step": 7, "note": 42, "vel": 100, "len": 1}]}, {"bar": 27, "events": [{"step": 0, "note": 42, "vel": 110, "len": 1}, {"step": 1, "note": 42, "vel": 100, "len": 1}, {"step": 2, "note": 42, "vel": 110, "len": 1}, {"step": 3, "note": 42, "vel": 100, "len": 1}, {"step": 4, "note": 42, "vel": 110, "len": 1}, {"step": 5, "note": 42, "vel": 100, "len": 1}, {"step": 6, "note": 42, "vel": 110, "len": 1}, {"step": 7, "note": 42, "vel": 100, "len": 1}]}, {"bar": 28, "events": [{"step": 0, "note": 42, "vel": 110, "len": 1}, {"step": 1, "note": 42, "vel": 100, "len": 1}, {"step": 2, "note": 42, "vel": 110, "len": 1}, {"step": 3, "note": 42, "vel": 100, "len": 1}, {"step": 4, "note": 42, "vel": 110, "len": 1}, {"step": 5, "note": 42, "vel": 100, "len": 1}, {"step": 6, "note": 42, "vel": 110, "len": 1}, {"step": 7, "note": 42, "vel": 100, "len": 1}]}, {"bar": 29, "events": [{"step": 0, "note": 42, "vel": 110, "len": 1}, {"step": 1, "note": 42, "vel": 100, "len": 1}, {"step": 2, "note": 42, "vel": 110, "len": 1}, {"step": 3, "note": 42, "vel": 100, "len": 1}, {"step": 4, "note": 42, "vel": 110, "len": 1}, {"step": 5, "note": 42, "vel": 100, "len": 1}, {"step": 6, "note": 42, "vel": 110, "len": 1}, {"step": 7, "note": 42, "vel": 100, "len": 1}]}, {"bar": 30, "events": [{"step": 0, "note": 42, "vel": 110, "len": 1}, {"step": 1, "note": 42, "vel": 100, "len": 1}, {"step": 2, "note": 42, "vel": 110, "len": 1}, {"step": 3, "note": 42, "vel": 100, "len": 1}, {"step": 4, "note": 42, "vel": 110, "len": 1}, {"step": 5, "note": 42, "vel": 100, "len": 1}, {"step": 6, "note": 42, "vel": 110, "len": 1}, {"step": 7, "note": 42, "vel": 100, "len": 1}]}, {"bar": 31, "events": [{"step": 0, "note": 42, "vel": 110, "len": 1}, {"step": 1, "note": 42, "vel": 100, "len": 1}, {"step": 2, "note": 42, "vel": 110, "len": 1}, {"step": 3, "note": 42, "vel": 100, "len": 1}, {"step": 4, "note": 42, "vel": 110, "len": 1}, {"step": 5, "note": 42, "vel": 100, "len": 1}, {"step": 6, "note": 42, "vel": 110, "len": 1}, {"step": 7, "note": 42, "vel": 100, "len": 1}]}, {"bar": 32, "events": [{"step": 0, "note": 42, "vel": 110, "len": 1}, {"step": 1, "note": 42, "vel": 100, "len": 1}, {"step": 2, "note": 42, "vel": 110, "len": 1}, {"step": 3, "note": 42, "vel": 100, "len": 1}, {"step": 4, "note": 42, "vel": 110, "len": 1}, {"step": 5, "note": 42, "vel": 100, "len": 1}, {"step": 6, "note": 42, "vel": 110, "len": 1}, {"step": 7, "note": 42, "vel": 100, "len": 1}]}, {"bar": 33, "events": [{"step": 0, "note": 42, "vel": 100, "len": 1}, {"step": 2, "note": 42, "vel": 100, "len": 1}, {"step": 4, "note": 42, "vel": 100, "len": 1}, {"step": 6, "note": 42, "vel": 100, "len": 1}]}, {"bar": 34, "events": [{"step": 0, "note": 42, "vel": 100, "len": 1}, {"step": 2, "note": 42, "vel": 100, "len": 1}, {"step": 4, "note": 42, "vel": 100, "len": 1}, {"step": 6, "note": 42, "vel": 100, "len": 1}]}, {"bar": 35, "events": [{"step": 0, "note": 42, "vel": 100, "len": 1}, {"step": 2, "note": 42, "vel": 100, "len": 1}, {"step": 4, "note": 42, "vel": 100, "len": 1}, {"step": 6, "note": 42, "vel": 100, "len": 1}]}, {"bar": 36, "events": [{"step": 0, "note": 42, "vel": 100, "len": 1}, {"step": 2, "note": 42, "vel": 100, "len": 1}, {"step": 4, "note": 42, "vel": 100, "len": 1}, {"step": 6, "note": 42, "vel": 100, "len": 1}]}, {"bar": 37, "events": [{"step": 0, "note": 42, "vel": 100, "len": 1}, {"step": 2, "note": 42, "vel": 100, "len": 1}, {"step": 4, "note": 42, "vel": 100, "len": 1}, {"step": 6, "note": 42, "vel": 100, "len": 1}]}, {"bar": 38, "events": [{"step": 0, "note": 42, "vel": 100, "len": 1}, {"step": 2, "note": 42, "vel": 100, "len": 1}, {"step": 4, "note": 42, "vel": 100, "len": 1}, {"step": 6, "note": 42, "vel": 100, "len": 1}]}, {"bar": 39, "events": [{"step": 0, "note": 42, "vel": 100, "len": 1}, {"step": 2, "note": 42, "vel": 100, "len": 1}, {"step": 4, "note": 42, "vel": 100, "len": 1}, {"step": 6, "note": 42, "vel": 100, "len": 1}]}, {"bar": 40, "events": [{"step": 0, "note": 42, "vel": 100, "len": 1}, {"step": 2, "note": 42, "vel": 100, "len": 1}]}, {"bar": 41, "events": [{"step": 0, "note": 42, "vel": 105, "len": 1}, {"step": 2, "note": 42, "vel": 105, "len": 1}, {"step": 4, "note": 42, "vel": 105, "len": 1}, {"step": 6, "note": 42, "vel": 105, "len": 1}]}, {"bar": 42, "events": [{"step": 0, "note": 42, "vel": 105, "len": 1}, {"step": 2, "note": 42, "vel": 105, "len": 1}, {"step": 4, "note": 42, "vel": 105, "len": 1}, {"step": 6, "note": 42, "vel": 105, "len": 1}]}, {"bar": 43, "events": [{"step": 0, "note": 42, "vel": 105, "len": 1}, {"step": 2, "note": 42, "vel": 105, "len": 1}, {"step": 4, "note": 42, "vel": 105, "len": 1}, {"step": 6, "note": 42, "vel": 105, "len": 1}]}, {"bar": 44, "events": [{"step": 0, "note": 42, "vel": 105, "len": 1}, {"step": 2, "note": 42, "vel": 105, "len": 1}, {"step": 4, "note": 42, "vel": 105, "len": 1}, {"step": 6, "note": 42, "vel": 105, "len": 1}]}, {"bar": 45, "events": [{"step": 0, "note": 42, "vel": 110, "len": 1}, {"step": 1, "note": 42, "vel": 100, "len": 1}, {"step": 2, "note": 42, "vel": 110, "len": 1}, {"step": 3, "note": 42, "vel": 100, "len": 1}, {"step": 4, "note": 42, "vel": 110, "len": 1}, {"step": 5, "note": 42, "vel": 100, "len": 1}, {"step": 6, "note": 42, "vel": 110, "len": 1}, {"step": 7, "note": 42, "vel": 100, "len": 1}]}, {"bar": 46, "events": [{"step": 0, "note": 42, "vel": 110, "len": 1}, {"step": 1, "note": 42, "vel": 100, "len": 1}, {"step": 2, "note": 42, "vel": 110, "len": 1}, {"step": 3, "note": 42, "vel": 100, "len": 1}, {"step": 4, "note": 42, "vel": 110, "len": 1}, {"step": 5, "note": 42, "vel": 100, "len": 1}, {"step": 6, "note": 42, "vel": 110, "len": 1}, {"step": 7, "note": 42, "vel": 100, "len": 1}]}, {"bar": 47, "events": [{"step": 0, "note": 42, "vel": 115, "len": 1}, {"step": 1, "note": 42, "vel": 105, "len": 1}, {"step": 2, "note": 42, "vel": 115, "len": 1}, {"step": 3, "note": 42, "vel": 105, "len": 1}, {"step": 4, "note": 42, "vel": 115, "len": 1}, {"step": 5, "note": 42, "vel": 105, "len": 1}, {"step": 6, "note": 42, "vel": 115, "len": 1}, {"step": 7, "note": 42, "vel": 105, "len": 1}]}, {"bar": 48, "events": []}, {"bar": 49, "events": [{"step": 0, "note": 42, "vel": 120, "len": 1}, {"step": 1, "note": 42, "vel": 110, "len": 1}, {"step": 2, "note": 42, "vel": 120, "len": 1}, {"step": 3, "note": 42, "vel": 110, "len": 1}, {"step": 4, "note": 42, "vel": 120, "len": 1}, {"step": 5, "note": 42, "vel": 110, "len": 1}, {"step": 6, "note": 42, "vel": 120, "len": 1}, {"step": 7, "note": 42, "vel": 110, "len": 1}]}, {"bar": 50, "events": [{"step": 0, "note": 42, "vel": 120, "len": 1}, {"step": 1, "note": 42, "vel": 110, "len": 1}, {"step": 2, "note": 42, "vel": 120, "len": 1}, {"step": 3, "note": 42, "vel": 110, "len": 1}, {"step": 4, "note": 42, "vel": 120, "len": 1}, {"step": 5, "note": 42, "vel": 110, "len": 1}, {"step": 6, "note": 42, "vel": 120, "len": 1}, {"step": 7, "note": 42, "vel": 110, "len": 1}]}, {"bar": 51, "events": [{"step": 0, "note": 42, "vel": 120, "len": 1}, {"step": 1, "note": 42, "vel": 110, "len": 1}, {"step": 2, "note": 42, "vel": 120, "len": 1}, {"step": 3, "note": 42, "vel": 110, "len": 1}, {"step": 4, "note": 42, "vel": 120, "len": 1}, {"step": 5, "note": 42, "vel": 110, "len": 1}, {"step": 6, "note": 42, "vel": 120, "len": 1}, {"step": 7, "note": 42, "vel": 110, "len": 1}]}, {"bar": 52, "events": [{"step": 0, "note": 42, "vel": 120, "len": 1}, {"step": 1, "note": 42, "vel": 110, "len": 1}, {"step": 2, "note": 42, "vel": 120, "len": 1}, {"step": 3, "note": 42, "vel": 110, "len": 1}, {"step": 4, "note": 42, "vel": 120, "len": 1}, {"step": 5, "note": 42, "vel": 110, "len": 1}, {"step": 6, "note": 42, "vel": 120, "len": 1}, {"step": 7, "note": 42, "vel": 110, "len": 1}]}, {"bar": 53, "events": [{"step": 0, "note": 42, "vel": 120, "len": 1}, {"step": 1, "note": 42, "vel": 110, "len": 1}, {"step": 2, "note": 42, "vel": 120, "len": 1}, {"step": 3, "note": 42, "vel": 110, "len": 1}, {"step": 4, "note": 42, "vel": 120, "len": 1}, {"step": 5, "note": 42, "vel": 110, "len": 1}, {"step": 6, "note": 42, "vel": 120, "len": 1}, {"step": 7, "note": 42, "vel": 110, "len": 1}]}, {"bar": 54, "events": [{"step": 0, "note": 42, "vel": 120, "len": 1}, {"step": 1, "note": 42, "vel": 110, "len": 1}, {"step": 2, "note": 42, "vel": 120, "len": 1}, {"step": 3, "note": 42, "vel": 110, "len": 1}, {"step": 4, "note": 42, "vel": 120, "len": 1}, {"step": 5, "note": 42, "vel": 110, "len": 1}, {"step": 6, "note": 42, "vel": 120, "len": 1}, {"step": 7, "note": 42, "vel": 110, "len": 1}]}, {"bar": 55, "events": [{"step": 0, "note": 42, "vel": 120, "len": 1}, {"step": 1, "note": 42, "vel": 110, "len": 1}, {"step": 2, "note": 42, "vel": 120, "len": 1}, {"step": 3, "note": 42, "vel": 110, "len": 1}, {"step": 4, "note": 42, "vel": 120, "len": 1}, {"step": 5, "note": 42, "vel": 110, "len": 1}, {"step": 6, "note": 42, "vel": 120, "len": 1}, {"step": 7, "note": 42, "vel": 110, "len": 1}]}, {"bar": 56, "events": [{"step": 0, "note": 42, "vel": 120, "len": 1}, {"step": 1, "note": 42, "vel": 110, "len": 1}, {"step": 2, "note": 42, "vel": 120, "len": 1}, {"step": 3, "note": 42, "vel": 110, "len": 1}, {"step": 4, "note": 42, "vel": 120, "len": 1}, {"step": 5, "note": 42, "vel": 110, "len": 1}, {"step": 6, "note": 42, "vel": 120, "len": 1}, {"step": 7, "note": 42, "vel": 110, "len": 1}]}, {"bar": 57, "events": [{"step": 0, "note": 42, "vel": 120, "len": 1}, {"step": 1, "note": 42, "vel": 110, "len": 1}, {"step": 2, "note": 42, "vel": 120, "len": 1}, {"step": 3, "note": 42, "vel": 110, "len": 1}, {"step": 4, "note": 42, "vel": 120, "len": 1}, {"step": 5, "note": 42, "vel": 110, "len": 1}, {"step": 6, "note": 42, "vel": 120, "len": 1}, {"step": 7, "note": 42, "vel": 110, "len": 1}]}, {"bar": 58, "events": [{"step": 0, "note": 42, "vel": 120, "len": 1}, {"step": 1, "note": 42, "vel": 110, "len": 1}, {"step": 2, "note": 42, "vel": 120, "len": 1}, {"step": 3, "note": 42, "vel": 110, "len": 1}, {"step": 4, "note": 42, "vel": 120, "len": 1}, {"step": 5, "note": 42, "vel": 110, "len": 1}, {"step": 6, "note": 42, "vel": 120, "len": 1}, {"step": 7, "note": 42, "vel": 110, "len": 1}]}, {"bar": 59, "events": [{"step": 0, "note": 42, "vel": 120, "len": 1}, {"step": 1, "note": 42, "vel": 110, "len": 1}, {"step": 2, "note": 42, "vel": 120, "len": 1}, {"step": 3, "note": 42, "vel": 110, "len": 1}, {"step": 4, "note": 42, "vel": 120, "len": 1}, {"step": 5, "note": 42, "vel": 110, "len": 1}, {"step": 6, "note": 42, "vel": 120, "len": 1}, {"step": 7, "note": 42, "vel": 110, "len": 1}]}, {"bar": 60, "events": [{"step": 0, "note": 42, "vel": 120, "len": 1}, {"step": 1, "note": 42, "vel": 110, "len": 1}, {"step": 2, "note": 42, "vel": 120, "len": 1}, {"step": 3, "note": 42, "vel": 110, "len": 1}, {"step": 4, "note": 42, "vel": 120, "len": 1}, {"step": 5, "note": 42, "vel": 110, "len": 1}, {"step": 6, "note": 42, "vel": 120, "len": 1}, {"step": 7, "note": 42, "vel": 110, "len": 1}]}, {"bar": 61, "events": [{"step": 0, "note": 42, "vel": 120, "len": 1}, {"step": 1, "note": 42, "vel": 110, "len": 1}, {"step": 2, "note": 42, "vel": 120, "len": 1}, {"step": 3, "note": 42, "vel": 110, "len": 1}, {"step": 4, "note": 42, "vel": 120, "len": 1}, {"step": 5, "note": 42, "vel": 110, "len": 1}, {"step": 6, "note": 42, "vel": 120, "len": 1}, {"step": 7, "note": 42, "vel": 110, "len": 1}]}, {"bar": 62, "events": [{"step": 0, "note": 42, "vel": 120, "len": 1}, {"step": 1, "note": 42, "vel": 110, "len": 1}, {"step": 2, "note": 42, "vel": 120, "len": 1}, {"step": 3, "note": 42, "vel": 110, "len": 1}, {"step": 4, "note": 42, "vel": 120, "len": 1}, {"step": 5, "note": 42, "vel": 110, "len": 1}, {"step": 6, "note": 42, "vel": 120, "len": 1}, {"step": 7, "note": 42, "vel": 110, "len": 1}]}, {"bar": 63, "events": [{"step": 0, "note": 42, "vel": 120, "len": 1}, {"step": 1, "note": 42, "vel": 110, "len": 1}, {"step": 2, "note": 42, "vel": 120, "len": 1}, {"step": 3, "note": 42, "vel": 110, "len": 1}, {"step": 4, "note": 42, "vel": 120, "len": 1}, {"step": 5, "note": 42, "vel": 110, "len": 1}, {"step": 6, "note": 42, "vel": 120, "len": 1}, {"step": 7, "note": 42, "vel": 110, "len": 1}]}, {"bar": 64, "events": []}], "Crash": [{"bar": 25, "events": [{"step": 0, "note": 49, "vel": 115, "len": 4}]}, {"bar": 49, "events": [{"step": 0, "note": 49, "vel": 127, "len": 4}]}, {"bar": 57, "events": [{"step": 0, "note": 49, "vel": 127, "len": 4}]}, {"bar": 64, "events": [{"step": 0, "note": 49, "vel": 127, "len": 8}]}]}, "meta": {"style": "Rock", "mood": "Energetic", "tempo": 140, "key": "E", "scale": "Minor", "meter": "4/4", "bars": 64, "length_seconds": 110, "dynamic_profile": "Dynamic Build", "arrangement_density": "Moderate", "harmonic_color": "Powerful", "instruments": ["Electric Guitar", "Bass Guitar", "Kick", "Snare", "Hat", "Crash"], "instrument_configs": [{"name": "Electric Guitar", "register": "Mid", "role": "Accompaniment", "articulation": "Sustain", "dynamic_range": "Moderate"}, {"name": "Bass Guitar", "register": "Low", "role": "Bass", "articulation": "Sustain", "dynamic_range": "Moderate"}, {"name": "Kick", "register": "Low", "role": "Percussion", "articulation": "Percussive", "dynamic_range": "Intense"}, {"name": "Snare", "register": "Mid", "role": "Percussion", "articulation": "Percussive", "dynamic_range": "Intense"}, {"name": "Hat", "register": "High", "role": "Percussion", "articulation": "Percussive", "dynamic_range": "Moderate"}, {"name": "Crash", "register": "High", "role": "Percussion", "articulation": "Percussive", "dynamic_range": "Intense"}], "seed": null}}