{"meta": {"style": "Jazz", "mood": "Vivid, Energetic, Bright", "tempo": 132, "key": "Bb", "scale": "Mixolydian", "meter": "4/4", "bars": 32, "length_seconds": 58.18, "dynamic_profile": "Evolving, Punchy", "arrangement_density": "Medium-High", "harmonic_color": "Extended Jazz Harmony", "instrument_configs": [{"name": "Sax", "register": "High", "role": "Lead", "articulation": "Legato/Staccato", "dynamic_range": "Expressive"}, {"name": "Trombone", "register": "Mid-Low", "role": "Counter-Melody", "articulation": "Swells/Stabs", "dynamic_range": "Moderate"}, {"name": "Piano", "register": "Mid", "role": "Harmonic Support", "articulation": "Staccato/Chordal", "dynamic_range": "Moderate-Intense"}, {"name": "Bass", "register": "Low", "role": "Bass", "articulation": "Pizzicato", "dynamic_range": "Consistent"}, {"name": "Kick", "register": "Low", "role": "Percussion", "articulation": "Percussive", "dynamic_range": "Soft-Moderate"}, {"name": "Snare", "register": "Mid", "role": "Percussion", "articulation": "Percussive", "dynamic_range": "Dynamic"}, {"name": "Hat", "register": "High", "role": "Percussion", "articulation": "Percussive", "dynamic_range": "Crisp"}, {"name": "Ride", "register": "High", "role": "Percussion", "articulation": "Sustain", "dynamic_range": "Shimmering"}], "instruments": ["Sax", "Trombone", "Piano", "Bass", "Kick", "Snare", "Hat", "Ride"], "instrument": "Bass"}, "layers": {"Bass": [{"bar": 1, "events": [{"step": 0, "note": 34, "vel": 90, "len": 1}, {"step": 2, "note": 38, "vel": 85, "len": 1}, {"step": 4, "note": 41, "vel": 88, "len": 1}, {"step": 6, "note": 43, "vel": 85, "len": 1}]}, {"bar": 2, "events": [{"step": 0, "note": 31, "vel": 90, "len": 1}, {"step": 2, "note": 35, "vel": 85, "len": 1}, {"step": 4, "note": 38, "vel": 88, "len": 1}, {"step": 6, "note": 40, "vel": 85, "len": 1}]}, {"bar": 3, "events": [{"step": 0, "note": 36, "vel": 90, "len": 1}, {"step": 2, "note": 39, "vel": 85, "len": 1}, {"step": 4, "note": 43, "vel": 88, "len": 1}, {"step": 6, "note": 45, "vel": 85, "len": 1}]}, {"bar": 4, "events": [{"step": 0, "note": 29, "vel": 90, "len": 1}, {"step": 2, "note": 33, "vel": 85, "len": 1}, {"step": 4, "note": 36, "vel": 88, "len": 1}, {"step": 6, "note": 41, "vel": 85, "len": 1}]}, {"bar": 9, "events": [{"step": 0, "note": 34, "vel": 95, "len": 1}, {"step": 2, "note": 38, "vel": 90, "len": 1}, {"step": 4, "note": 41, "vel": 92, "len": 1}, {"step": 6, "note": 34, "vel": 90, "len": 1}]}, {"bar": 17, "events": [{"step": 0, "note": 38, "vel": 95, "len": 1}, {"step": 2, "note": 42, "vel": 90, "len": 1}, {"step": 4, "note": 45, "vel": 92, "len": 1}, {"step": 6, "note": 47, "vel": 90, "len": 1}]}, {"bar": 32, "events": [{"step": 0, "note": 34, "vel": 80, "len": 4}]}]}, "pattern": [{"bar": 1, "events": [{"step": 0, "note": 34, "vel": 90, "len": 1}, {"step": 2, "note": 38, "vel": 85, "len": 1}, {"step": 4, "note": 41, "vel": 88, "len": 1}, {"step": 6, "note": 43, "vel": 85, "len": 1}]}, {"bar": 2, "events": [{"step": 0, "note": 31, "vel": 90, "len": 1}, {"step": 2, "note": 35, "vel": 85, "len": 1}, {"step": 4, "note": 38, "vel": 88, "len": 1}, {"step": 6, "note": 40, "vel": 85, "len": 1}]}, {"bar": 3, "events": [{"step": 0, "note": 36, "vel": 90, "len": 1}, {"step": 2, "note": 39, "vel": 85, "len": 1}, {"step": 4, "note": 43, "vel": 88, "len": 1}, {"step": 6, "note": 45, "vel": 85, "len": 1}]}, {"bar": 4, "events": [{"step": 0, "note": 29, "vel": 90, "len": 1}, {"step": 2, "note": 33, "vel": 85, "len": 1}, {"step": 4, "note": 36, "vel": 88, "len": 1}, {"step": 6, "note": 41, "vel": 85, "len": 1}]}, {"bar": 9, "events": [{"step": 0, "note": 34, "vel": 95, "len": 1}, {"step": 2, "note": 38, "vel": 90, "len": 1}, {"step": 4, "note": 41, "vel": 92, "len": 1}, {"step": 6, "note": 34, "vel": 90, "len": 1}]}, {"bar": 17, "events": [{"step": 0, "note": 38, "vel": 95, "len": 1}, {"step": 2, "note": 42, "vel": 90, "len": 1}, {"step": 4, "note": 45, "vel": 92, "len": 1}, {"step": 6, "note": 47, "vel": 90, "len": 1}]}, {"bar": 32, "events": [{"step": 0, "note": 34, "vel": 80, "len": 4}]}]}