{"meta": {"style": "Jazz", "mood": "Vivid, Energetic, Bright", "tempo": 132, "key": "Bb", "scale": "Mixolydian", "meter": "4/4", "bars": 32, "length_seconds": 58.18, "dynamic_profile": "Evolving, Punchy", "arrangement_density": "Medium-High", "harmonic_color": "Extended Jazz Harmony", "instrument_configs": [{"name": "Sax", "register": "High", "role": "Lead", "articulation": "Legato/Staccato", "dynamic_range": "Expressive"}, {"name": "Trombone", "register": "Mid-Low", "role": "Counter-Melody", "articulation": "Swells/Stabs", "dynamic_range": "Moderate"}, {"name": "Piano", "register": "Mid", "role": "Harmonic Support", "articulation": "Staccato/Chordal", "dynamic_range": "Moderate-Intense"}, {"name": "Bass", "register": "Low", "role": "Bass", "articulation": "Pizzicato", "dynamic_range": "Consistent"}, {"name": "Kick", "register": "Low", "role": "Percussion", "articulation": "Percussive", "dynamic_range": "Soft-Moderate"}, {"name": "Snare", "register": "Mid", "role": "Percussion", "articulation": "Percussive", "dynamic_range": "Dynamic"}, {"name": "Hat", "register": "High", "role": "Percussion", "articulation": "Percussive", "dynamic_range": "Crisp"}, {"name": "Ride", "register": "High", "role": "Percussion", "articulation": "Sustain", "dynamic_range": "Shimmering"}], "instruments": ["Sax", "Trombone", "Piano", "Bass", "Kick", "Snare", "Hat", "Ride"], "instrument": "Sax"}, "layers": {"Sax": [{"bar": 9, "events": [{"step": 0, "note": 70, "vel": 90, "len": 2}, {"step": 2, "note": 67, "vel": 85, "len": 1}, {"step": 3, "note": 65, "vel": 80, "len": 1}, {"step": 5, "note": 62, "vel": 85, "len": 2}]}, {"bar": 10, "events": [{"step": 0, "note": 60, "vel": 80, "len": 2}, {"step": 2, "note": 62, "vel": 85, "len": 1}, {"step": 4, "note": 65, "vel": 90, "len": 2}]}, {"bar": 11, "events": [{"step": 0, "note": 67, "vel": 95, "len": 1}, {"step": 1, "note": 70, "vel": 90, "len": 1}, {"step": 2, "note": 72, "vel": 100, "len": 2}, {"step": 5, "note": 67, "vel": 85, "len": 1}]}, {"bar": 13, "events": [{"step": 0, "note": 74, "vel": 105, "len": 2}, {"step": 3, "note": 70, "vel": 95, "len": 1}, {"step": 5, "note": 67, "vel": 90, "len": 2}]}, {"bar": 17, "events": [{"step": 0, "note": 72, "vel": 95, "len": 2}, {"step": 2, "note": 74, "vel": 90, "len": 1}, {"step": 4, "note": 76, "vel": 95, "len": 2}]}, {"bar": 25, "events": [{"step": 0, "note": 82, "vel": 110, "len": 1}, {"step": 1, "note": 79, "vel": 100, "len": 1}, {"step": 2, "note": 77, "vel": 95, "len": 1}, {"step": 4, "note": 74, "vel": 90, "len": 2}]}]}, "pattern": [{"bar": 9, "events": [{"step": 0, "note": 70, "vel": 90, "len": 2}, {"step": 2, "note": 67, "vel": 85, "len": 1}, {"step": 3, "note": 65, "vel": 80, "len": 1}, {"step": 5, "note": 62, "vel": 85, "len": 2}]}, {"bar": 10, "events": [{"step": 0, "note": 60, "vel": 80, "len": 2}, {"step": 2, "note": 62, "vel": 85, "len": 1}, {"step": 4, "note": 65, "vel": 90, "len": 2}]}, {"bar": 11, "events": [{"step": 0, "note": 67, "vel": 95, "len": 1}, {"step": 1, "note": 70, "vel": 90, "len": 1}, {"step": 2, "note": 72, "vel": 100, "len": 2}, {"step": 5, "note": 67, "vel": 85, "len": 1}]}, {"bar": 13, "events": [{"step": 0, "note": 74, "vel": 105, "len": 2}, {"step": 3, "note": 70, "vel": 95, "len": 1}, {"step": 5, "note": 67, "vel": 90, "len": 2}]}, {"bar": 17, "events": [{"step": 0, "note": 72, "vel": 95, "len": 2}, {"step": 2, "note": 74, "vel": 90, "len": 1}, {"step": 4, "note": 76, "vel": 95, "len": 2}]}, {"bar": 25, "events": [{"step": 0, "note": 82, "vel": 110, "len": 1}, {"step": 1, "note": 79, "vel": 100, "len": 1}, {"step": 2, "note": 77, "vel": 95, "len": 1}, {"step": 4, "note": 74, "vel": 90, "len": 2}]}]}