{"request": {"project_name": "gitara gra dsfksjbfhksjdvbcodsfbhjiovbjfdgdfg", "run_id": "b1f0a99f019a", "user_id": 2, "midi": {"pattern": [{"bar": 1, "events": [{"step": 0, "note": 36, "vel": 100, "len": 1}, {"step": 2, "note": 42, "vel": 50, "len": 1}, {"step": 4, "note": 38, "vel": 80, "len": 1}, {"step": 6, "note": 42, "vel": 50, "len": 1}]}, {"bar": 2, "events": [{"step": 0, "note": 36, "vel": 100, "len": 1}, {"step": 2, "note": 42, "vel": 50, "len": 1}, {"step": 4, "note": 38, "vel": 80, "len": 1}, {"step": 6, "note": 42, "vel": 50, "len": 1}]}, {"bar": 3, "events": [{"step": 0, "note": 36, "vel": 100, "len": 1}, {"step": 2, "note": 42, "vel": 50, "len": 1}, {"step": 4, "note": 60, "vel": 60, "len": 2}, {"step": 6, "note": 42, "vel": 50, "len": 1}]}, {"bar": 4, "events": [{"step": 0, "note": 36, "vel": 100, "len": 1}, {"step": 2, "note": 42, "vel": 50, "len": 1}, {"step": 4, "note": 38, "vel": 80, "len": 1}, {"step": 6, "note": 42, "vel": 50, "len": 1}]}, {"bar": 5, "events": [{"step": 0, "note": 36, "vel": 100, "len": 1}, {"step": 2, "note": 42, "vel": 50, "len": 1}, {"step": 4, "note": 60, "vel": 60, "len": 2}, {"step": 6, "note": 42, "vel": 50, "len": 1}]}, {"bar": 6, "events": [{"step": 0, "note": 36, "vel": 100, "len": 1}, {"step": 2, "note": 42, "vel": 50, "len": 1}, {"step": 4, "note": 38, "vel": 80, "len": 1}, {"step": 6, "note": 42, "vel": 50, "len": 1}]}, {"bar": 7, "events": [{"step": 0, "note": 36, "vel": 100, "len": 1}, {"step": 2, "note": 42, "vel": 50, "len": 1}, {"step": 4, "note": 60, "vel": 60, "len": 2}, {"step": 6, "note": 42, "vel": 50, "len": 1}]}, {"bar": 8, "events": [{"step": 0, "note": 36, "vel": 100, "len": 1}, {"step": 2, "note": 42, "vel": 50, "len": 1}, {"step": 4, "note": 38, "vel": 80, "len": 1}, {"step": 6, "note": 42, "vel": 50, "len": 1}]}, {"bar": 9, "events": [{"step": 0, "note": 36, "vel": 100, "len": 1}, {"step": 2, "note": 42, "vel": 50, "len": 1}, {"step": 4, "note": 60, "vel": 60, "len": 2}, {"step": 6, "note": 42, "vel": 50, "len": 1}]}, {"bar": 10, "events": [{"step": 0, "note": 36, "vel": 100, "len": 1}, {"step": 2, "note": 42, "vel": 50, "len": 1}, {"step": 4, "note": 38, "vel": 80, "len": 1}, {"step": 6, "note": 42, "vel": 50, "len": 1}]}, {"bar": 11, "events": [{"step": 0, "note": 36, "vel": 100, "len": 1}, {"step": 2, "note": 42, "vel": 50, "len": 1}, {"step": 4, "note": 60, "vel": 60, "len": 2}, {"step": 6, "note": 42, "vel": 50, "len": 1}]}, {"bar": 12, "events": [{"step": 0, "note": 36, "vel": 100, "len": 1}, {"step": 2, "note": 42, "vel": 50, "len": 1}, {"step": 4, "note": 38, "vel": 80, "len": 1}, {"step": 6, "note": 42, "vel": 50, "len": 1}]}, {"bar": 13, "events": [{"step": 0, "note": 36, "vel": 100, "len": 1}, {"step": 2, "note": 42, "vel": 50, "len": 1}, {"step": 4, "note": 60, "vel": 60, "len": 2}, {"step": 6, "note": 42, "vel": 50, "len": 1}]}, {"bar": 14, "events": [{"step": 0, "note": 36, "vel": 100, "len": 1}, {"step": 2, "note": 42, "vel": 50, "len": 1}, {"step": 4, "note": 38, "vel": 80, "len": 1}, {"step": 6, "note": 42, "vel": 50, "len": 1}]}, {"bar": 15, "events": [{"step": 0, "note": 36, "vel": 100, "len": 1}, {"step": 2, "note": 42, "vel": 50, "len": 1}, {"step": 4, "note": 60, "vel": 60, "len": 2}, {"step": 6, "note": 42, "vel": 50, "len": 1}]}, {"bar": 16, "events": [{"step": 0, "note": 36, "vel": 100, "len": 1}, {"step": 2, "note": 42, "vel": 50, "len": 1}, {"step": 4, "note": 38, "vel": 80, "len": 1}, {"step": 6, "note": 42, "vel": 50, "len": 1}]}], "layers": {"Piano": [{"bar": 1, "events": [{"step": 0, "note": 60, "vel": 60, "len": 2}, {"step": 2, "note": 64, "vel": 60, "len": 2}, {"step": 4, "note": 67, "vel": 60, "len": 2}, {"step": 6, "note": 72, "vel": 60, "len": 2}]}, {"bar": 2, "events": [{"step": 0, "note": 60, "vel": 60, "len": 2}, {"step": 2, "note": 64, "vel": 60, "len": 2}, {"step": 4, "note": 67, "vel": 60, "len": 2}, {"step": 6, "note": 72, "vel": 60, "len": 2}]}, {"bar": 3, "events": [{"step": 0, "note": 60, "vel": 60, "len": 2}, {"step": 2, "note": 64, "vel": 60, "len": 2}, {"step": 4, "note": 67, "vel": 60, "len": 2}, {"step": 6, "note": 72, "vel": 60, "len": 2}]}, {"bar": 4, "events": [{"step": 0, "note": 60, "vel": 60, "len": 2}, {"step": 2, "note": 64, "vel": 60, "len": 2}, {"step": 4, "note": 67, "vel": 60, "len": 2}, {"step": 6, "note": 72, "vel": 60, "len": 2}]}, {"bar": 5, "events": [{"step": 0, "note": 60, "vel": 60, "len": 2}, {"step": 2, "note": 64, "vel": 60, "len": 2}, {"step": 4, "note": 67, "vel": 60, "len": 2}, {"step": 6, "note": 72, "vel": 60, "len": 2}]}, {"bar": 6, "events": [{"step": 0, "note": 60, "vel": 60, "len": 2}, {"step": 2, "note": 64, "vel": 60, "len": 2}, {"step": 4, "note": 67, "vel": 60, "len": 2}, {"step": 6, "note": 72, "vel": 60, "len": 2}]}, {"bar": 7, "events": [{"step": 0, "note": 60, "vel": 60, "len": 2}, {"step": 2, "note": 64, "vel": 60, "len": 2}, {"step": 4, "note": 67, "vel": 60, "len": 2}, {"step": 6, "note": 72, "vel": 60, "len": 2}]}, {"bar": 8, "events": [{"step": 0, "note": 60, "vel": 60, "len": 2}, {"step": 2, "note": 64, "vel": 60, "len": 2}, {"step": 4, "note": 67, "vel": 60, "len": 2}, {"step": 6, "note": 72, "vel": 60, "len": 2}]}, {"bar": 9, "events": [{"step": 0, "note": 60, "vel": 60, "len": 2}, {"step": 2, "note": 64, "vel": 60, "len": 2}, {"step": 4, "note": 67, "vel": 60, "len": 2}, {"step": 6, "note": 72, "vel": 60, "len": 2}]}, {"bar": 10, "events": [{"step": 0, "note": 60, "vel": 60, "len": 2}, {"step": 2, "note": 64, "vel": 60, "len": 2}, {"step": 4, "note": 67, "vel": 60, "len": 2}, {"step": 6, "note": 72, "vel": 60, "len": 2}]}, {"bar": 11, "events": [{"step": 0, "note": 60, "vel": 60, "len": 2}, {"step": 2, "note": 64, "vel": 60, "len": 2}, {"step": 4, "note": 67, "vel": 60, "len": 2}, {"step": 6, "note": 72, "vel": 60, "len": 2}]}, {"bar": 12, "events": [{"step": 0, "note": 60, "vel": 60, "len": 2}, {"step": 2, "note": 64, "vel": 60, "len": 2}, {"step": 4, "note": 67, "vel": 60, "len": 2}, {"step": 6, "note": 72, "vel": 60, "len": 2}]}, {"bar": 13, "events": [{"step": 0, "note": 60, "vel": 60, "len": 2}, {"step": 2, "note": 64, "vel": 60, "len": 2}, {"step": 4, "note": 67, "vel": 60, "len": 2}, {"step": 6, "note": 72, "vel": 60, "len": 2}]}, {"bar": 14, "events": [{"step": 0, "note": 60, "vel": 60, "len": 2}, {"step": 2, "note": 64, "vel": 60, "len": 2}, {"step": 4, "note": 67, "vel": 60, "len": 2}, {"step": 6, "note": 72, "vel": 60, "len": 2}]}, {"bar": 15, "events": [{"step": 0, "note": 60, "vel": 60, "len": 2}, {"step": 2, "note": 64, "vel": 60, "len": 2}, {"step": 4, "note": 67, "vel": 60, "len": 2}, {"step": 6, "note": 72, "vel": 60, "len": 2}]}, {"bar": 16, "events": [{"step": 0, "note": 60, "vel": 60, "len": 2}, {"step": 2, "note": 64, "vel": 60, "len": 2}, {"step": 4, "note": 67, "vel": 60, "len": 2}, {"step": 6, "note": 72, "vel": 60, "len": 2}]}], "Acoustic Guitar": [{"bar": 1, "events": [{"step": 0, "note": 48, "vel": 40, "len": 4}]}, {"bar": 2, "events": [{"step": 0, "note": 48, "vel": 40, "len": 4}]}, {"bar": 3, "events": [{"step": 0, "note": 50, "vel": 40, "len": 4}]}, {"bar": 4, "events": [{"step": 0, "note": 48, "vel": 40, "len": 4}]}, {"bar": 5, "events": [{"step": 0, "note": 50, "vel": 40, "len": 4}]}, {"bar": 6, "events": [{"step": 0, "note": 48, "vel": 40, "len": 4}]}, {"bar": 7, "events": [{"step": 0, "note": 50, "vel": 40, "len": 4}]}, {"bar": 8, "events": [{"step": 0, "note": 48, "vel": 40, "len": 4}]}, {"bar": 9, "events": [{"step": 0, "note": 50, "vel": 40, "len": 4}]}, {"bar": 10, "events": [{"step": 0, "note": 48, "vel": 40, "len": 4}]}, {"bar": 11, "events": [{"step": 0, "note": 50, "vel": 40, "len": 4}]}, {"bar": 12, "events": [{"step": 0, "note": 48, "vel": 40, "len": 4}]}, {"bar": 13, "events": [{"step": 0, "note": 50, "vel": 40, "len": 4}]}, {"bar": 14, "events": [{"step": 0, "note": 48, "vel": 40, "len": 4}]}, {"bar": 15, "events": [{"step": 0, "note": 50, "vel": 40, "len": 4}]}, {"bar": 16, "events": [{"step": 0, "note": 48, "vel": 40, "len": 4}]}], "Strings": [{"bar": 1, "events": [{"step": 0, "note": 72, "vel": 20, "len": 8}]}, {"bar": 2, "events": [{"step": 0, "note": 72, "vel": 20, "len": 8}]}, {"bar": 3, "events": [{"step": 0, "note": 74, "vel": 20, "len": 8}]}, {"bar": 4, "events": [{"step": 0, "note": 72, "vel": 20, "len": 8}]}, {"bar": 5, "events": [{"step": 0, "note": 74, "vel": 20, "len": 8}]}, {"bar": 6, "events": [{"step": 0, "note": 72, "vel": 20, "len": 8}]}, {"bar": 7, "events": [{"step": 0, "note": 74, "vel": 20, "len": 8}]}, {"bar": 8, "events": [{"step": 0, "note": 72, "vel": 20, "len": 8}]}, {"bar": 9, "events": [{"step": 0, "note": 74, "vel": 20, "len": 8}]}, {"bar": 10, "events": [{"step": 0, "note": 72, "vel": 20, "len": 8}]}, {"bar": 11, "events": [{"step": 0, "note": 74, "vel": 20, "len": 8}]}, {"bar": 12, "events": [{"step": 0, "note": 72, "vel": 20, "len": 8}]}, {"bar": 13, "events": [{"step": 0, "note": 74, "vel": 20, "len": 8}]}, {"bar": 14, "events": [{"step": 0, "note": 72, "vel": 20, "len": 8}]}, {"bar": 15, "events": [{"step": 0, "note": 74, "vel": 20, "len": 8}]}, {"bar": 16, "events": [{"step": 0, "note": 72, "vel": 20, "len": 8}]}], "Kick": [{"bar": 1, "events": [{"step": 0, "note": 36, "vel": 100, "len": 1}]}, {"bar": 2, "events": [{"step": 0, "note": 36, "vel": 100, "len": 1}]}, {"bar": 3, "events": [{"step": 0, "note": 36, "vel": 100, "len": 1}]}, {"bar": 4, "events": [{"step": 0, "note": 36, "vel": 100, "len": 1}]}, {"bar": 5, "events": [{"step": 0, "note": 36, "vel": 100, "len": 1}]}, {"bar": 6, "events": [{"step": 0, "note": 36, "vel": 100, "len": 1}]}, {"bar": 7, "events": [{"step": 0, "note": 36, "vel": 100, "len": 1}]}, {"bar": 8, "events": [{"step": 0, "note": 36, "vel": 100, "len": 1}]}, {"bar": 9, "events": [{"step": 0, "note": 36, "vel": 100, "len": 1}]}, {"bar": 10, "events": [{"step": 0, "note": 36, "vel": 100, "len": 1}]}, {"bar": 11, "events": [{"step": 0, "note": 36, "vel": 100, "len": 1}]}, {"bar": 12, "events": [{"step": 0, "note": 36, "vel": 100, "len": 1}]}, {"bar": 13, "events": [{"step": 0, "note": 36, "vel": 100, "len": 1}]}, {"bar": 14, "events": [{"step": 0, "note": 36, "vel": 100, "len": 1}]}, {"bar": 15, "events": [{"step": 0, "note": 36, "vel": 100, "len": 1}]}, {"bar": 16, "events": [{"step": 0, "note": 36, "vel": 100, "len": 1}]}], "Snare": [{"bar": 1, "events": [{"step": 4, "note": 38, "vel": 80, "len": 1}]}, {"bar": 2, "events": [{"step": 4, "note": 38, "vel": 80, "len": 1}]}, {"bar": 3, "events": [{"step": 4, "note": 38, "vel": 80, "len": 1}]}, {"bar": 4, "events": [{"step": 4, "note": 38, "vel": 80, "len": 1}]}, {"bar": 5, "events": [{"step": 4, "note": 38, "vel": 80, "len": 1}]}, {"bar": 6, "events": [{"step": 4, "note": 38, "vel": 80, "len": 1}]}, {"bar": 7, "events": [{"step": 4, "note": 38, "vel": 80, "len": 1}]}, {"bar": 8, "events": [{"step": 4, "note": 38, "vel": 80, "len": 1}]}, {"bar": 9, "events": [{"step": 4, "note": 38, "vel": 80, "len": 1}]}, {"bar": 10, "events": [{"step": 4, "note": 38, "vel": 80, "len": 1}]}, {"bar": 11, "events": [{"step": 4, "note": 38, "vel": 80, "len": 1}]}, {"bar": 12, "events": [{"step": 4, "note": 38, "vel": 80, "len": 1}]}, {"bar": 13, "events": [{"step": 4, "note": 38, "vel": 80, "len": 1}]}, {"bar": 14, "events": [{"step": 4, "note": 38, "vel": 80, "len": 1}]}, {"bar": 15, "events": [{"step": 4, "note": 38, "vel": 80, "len": 1}]}, {"bar": 16, "events": [{"step": 4, "note": 38, "vel": 80, "len": 1}]}], "Hat": [{"bar": 1, "events": [{"step": 2, "note": 42, "vel": 50, "len": 1}]}, {"bar": 2, "events": [{"step": 2, "note": 42, "vel": 50, "len": 1}]}, {"bar": 3, "events": [{"step": 2, "note": 42, "vel": 50, "len": 1}]}, {"bar": 4, "events": [{"step": 2, "note": 42, "vel": 50, "len": 1}]}, {"bar": 5, "events": [{"step": 2, "note": 42, "vel": 50, "len": 1}]}, {"bar": 6, "events": [{"step": 2, "note": 42, "vel": 50, "len": 1}]}, {"bar": 7, "events": [{"step": 2, "note": 42, "vel": 50, "len": 1}]}, {"bar": 8, "events": [{"step": 2, "note": 42, "vel": 50, "len": 1}]}, {"bar": 9, "events": [{"step": 2, "note": 42, "vel": 50, "len": 1}]}, {"bar": 10, "events": [{"step": 2, "note": 42, "vel": 50, "len": 1}]}, {"bar": 11, "events": [{"step": 2, "note": 42, "vel": 50, "len": 1}]}, {"bar": 12, "events": [{"step": 2, "note": 42, "vel": 50, "len": 1}]}, {"bar": 13, "events": [{"step": 2, "note": 42, "vel": 50, "len": 1}]}, {"bar": 14, "events": [{"step": 2, "note": 42, "vel": 50, "len": 1}]}, {"bar": 15, "events": [{"step": 2, "note": 42, "vel": 50, "len": 1}]}, {"bar": 16, "events": [{"step": 2, "note": 42, "vel": 50, "len": 1}]}]}, "meta": {"tempo": 120, "key": "C Major", "scale": "Major", "style": "Experimental", "mood": "Neutral", "meter": "4/4", "dynamic_profile": "Moderate", "arrangement_density": "Medium", "harmonic_color": "Bright", "length_seconds": 128, "bars": 16, "instrument_configs": [{"name": "Piano", "register": "Mid", "role": "Lead", "articulation": "Legato", "dynamic_range": "Delicate"}, {"name": "Acoustic Guitar", "register": "Full", "role": "Accompaniment", "articulation": "Sustain", "dynamic_range": "Moderate"}, {"name": "Strings", "register": "High", "role": "Pad", "articulation": "Sustain", "dynamic_range": "Intense"}, {"name": "Kick", "register": "Low", "role": "Percussion", "articulation": "Percussive", "dynamic_range": "Intense"}, {"name": "Snare", "register": "Mid", "role": "Percussion", "articulation": "Percussive", "dynamic_range": "Moderate"}, {"name": "Hat", "register": "High", "role": "Percussion", "articulation": "Percussive", "dynamic_range": "Delicate"}], "instruments": ["Piano", "Acoustic Guitar", "Strings", "Kick", "Snare", "Hat"]}}, "midi_per_instrument": null, "tracks": [{"instrument": "Piano", "enabled": true, "volume_db": 0.0, "pan": 0.0}, {"instrument": "Acoustic Guitar", "enabled": true, "volume_db": -3.0, "pan": -0.3}, {"instrument": "Strings", "enabled": true, "volume_db": -3.0, "pan": 0.0}, {"instrument": "Kick", "enabled": true, "volume_db": -3.0, "pan": 0.0}, {"instrument": "Snare", "enabled": true, "volume_db": -3.0, "pan": 0.0}, {"instrument": "Hat", "enabled": true, "volume_db": -3.0, "pan": 0.0}], "selected_samples": {"Hat": "Drums/RealDrumkits/RD_Hat_1.wav", "Snare": "Drums/Kits/Drum Kit 07/FLS_Snare 07a.wav", "Kick": "Drums/Kits/Drum Kit 01/FLS_Kick 01.wav", "Strings": "Instruments/Strings/STR_Harpsy_C4.wav", "Acoustic Guitar": "Instruments/Guitar/Guitar/Acoustic Guitar 01/ACOUSTICG 1_C3.wav", "Piano": "Instruments/Piano/Piano 1/CHANGPIANOHARD_F#5OGG.WAV"}, "fadeout_seconds": 0.01}, "response": {"project_name": "gitara gra dsfksjbfhksjdvbcodsfbhjiovbjfdgdfg", "run_id": "b1f0a99f019a", "mix_wav_rel": "output\\b1f0a99f019a\\gitara gra dsfksjbfhksjdvbcodsfbhjiovbjfdgdfg_mix_1764887588.wav", "stems": [{"instrument": "Piano", "audio_rel": "output\\b1f0a99f019a\\gitara gra dsfksjbfhksjdvbcodsfbhjiovbjfdgdfg_Piano_1764887588.wav"}, {"instrument": "Acoustic Guitar", "audio_rel": "output\\b1f0a99f019a\\gitara gra dsfksjbfhksjdvbcodsfbhjiovbjfdgdfg_Acoustic Guitar_1764887588.wav"}, {"instrument": "Strings", "audio_rel": "output\\b1f0a99f019a\\gitara gra dsfksjbfhksjdvbcodsfbhjiovbjfdgdfg_Strings_1764887588.wav"}, {"instrument": "Kick", "audio_rel": "output\\b1f0a99f019a\\gitara gra dsfksjbfhksjdvbcodsfbhjiovbjfdgdfg_Kick_1764887588.wav"}, {"instrument": "Snare", "audio_rel": "output\\b1f0a99f019a\\gitara gra dsfksjbfhksjdvbcodsfbhjiovbjfdgdfg_Snare_1764887588.wav"}, {"instrument": "Hat", "audio_rel": "output\\b1f0a99f019a\\gitara gra dsfksjbfhksjdvbcodsfbhjiovbjfdgdfg_Hat_1764887588.wav"}], "sample_rate": 44100, "duration_seconds": 128.0}}