{"meta": {"tempo": 90, "key": "C minor", "scale": "Natural minor", "style": "Experimental", "mood": "Melancholic", "meter": "4/4", "dynamic_profile": "Contrasting", "arrangement_density": "Medium", "harmonic_color": "Dissonant", "length_seconds": 120.0, "bars": 16, "instrument_configs": [{"name": "Piano", "register": "Mid", "role": "Lead", "articulation": "Legato", "dynamic_range": "Moderate"}, {"name": "Bass Guitar", "register": "Low", "role": "Bass", "articulation": "Sustain", "dynamic_range": "Delicate"}, {"name": "Strings", "register": "High", "role": "Pad", "articulation": "Sustain", "dynamic_range": "Intense"}], "instruments": ["Piano", "Bass Guitar", "Strings"], "instrument": "Piano"}, "layers": {"Piano": [{"bar": 1, "events": [{"step": 0, "note": 60, "vel": 80, "len": 4}, {"step": 4, "note": 64, "vel": 60, "len": 2}]}, {"bar": 2, "events": [{"step": 0, "note": 62, "vel": 80, "len": 4}, {"step": 4, "note": 65, "vel": 60, "len": 2}]}, {"bar": 3, "events": [{"step": 0, "note": 60, "vel": 80, "len": 4}, {"step": 4, "note": 67, "vel": 60, "len": 2}]}, {"bar": 4, "events": [{"step": 0, "note": 62, "vel": 80, "len": 4}, {"step": 4, "note": 64, "vel": 60, "len": 2}]}, {"bar": 5, "events": [{"step": 0, "note": 65, "vel": 80, "len": 4}, {"step": 4, "note": 67, "vel": 60, "len": 2}]}, {"bar": 6, "events": [{"step": 0, "note": 60, "vel": 80, "len": 4}, {"step": 4, "note": 65, "vel": 60, "len": 2}]}, {"bar": 7, "events": [{"step": 0, "note": 62, "vel": 80, "len": 4}, {"step": 4, "note": 64, "vel": 60, "len": 2}]}, {"bar": 8, "events": [{"step": 0, "note": 67, "vel": 80, "len": 4}, {"step": 4, "note": 65, "vel": 60, "len": 2}]}, {"bar": 9, "events": [{"step": 0, "note": 60, "vel": 80, "len": 4}, {"step": 4, "note": 67, "vel": 60, "len": 2}]}, {"bar": 10, "events": [{"step": 0, "note": 62, "vel": 80, "len": 4}, {"step": 4, "note": 64, "vel": 60, "len": 2}]}, {"bar": 11, "events": [{"step": 0, "note": 65, "vel": 80, "len": 4}, {"step": 4, "note": 67, "vel": 60, "len": 2}]}, {"bar": 12, "events": [{"step": 0, "note": 60, "vel": 80, "len": 4}, {"step": 4, "note": 65, "vel": 60, "len": 2}]}, {"bar": 13, "events": [{"step": 0, "note": 62, "vel": 80, "len": 4}, {"step": 4, "note": 64, "vel": 60, "len": 2}]}, {"bar": 14, "events": [{"step": 0, "note": 67, "vel": 80, "len": 4}, {"step": 4, "note": 65, "vel": 60, "len": 2}]}, {"bar": 15, "events": [{"step": 0, "note": 60, "vel": 80, "len": 4}, {"step": 4, "note": 67, "vel": 60, "len": 2}]}, {"bar": 16, "events": [{"step": 0, "note": 62, "vel": 80, "len": 4}, {"step": 4, "note": 64, "vel": 60, "len": 2}]}]}, "pattern": [{"bar": 1, "events": [{"step": 0, "note": 60, "vel": 80, "len": 4}, {"step": 4, "note": 64, "vel": 60, "len": 2}]}, {"bar": 2, "events": [{"step": 0, "note": 62, "vel": 80, "len": 4}, {"step": 4, "note": 65, "vel": 60, "len": 2}]}, {"bar": 3, "events": [{"step": 0, "note": 60, "vel": 80, "len": 4}, {"step": 4, "note": 67, "vel": 60, "len": 2}]}, {"bar": 4, "events": [{"step": 0, "note": 62, "vel": 80, "len": 4}, {"step": 4, "note": 64, "vel": 60, "len": 2}]}, {"bar": 5, "events": [{"step": 0, "note": 65, "vel": 80, "len": 4}, {"step": 4, "note": 67, "vel": 60, "len": 2}]}, {"bar": 6, "events": [{"step": 0, "note": 60, "vel": 80, "len": 4}, {"step": 4, "note": 65, "vel": 60, "len": 2}]}, {"bar": 7, "events": [{"step": 0, "note": 62, "vel": 80, "len": 4}, {"step": 4, "note": 64, "vel": 60, "len": 2}]}, {"bar": 8, "events": [{"step": 0, "note": 67, "vel": 80, "len": 4}, {"step": 4, "note": 65, "vel": 60, "len": 2}]}, {"bar": 9, "events": [{"step": 0, "note": 60, "vel": 80, "len": 4}, {"step": 4, "note": 67, "vel": 60, "len": 2}]}, {"bar": 10, "events": [{"step": 0, "note": 62, "vel": 80, "len": 4}, {"step": 4, "note": 64, "vel": 60, "len": 2}]}, {"bar": 11, "events": [{"step": 0, "note": 65, "vel": 80, "len": 4}, {"step": 4, "note": 67, "vel": 60, "len": 2}]}, {"bar": 12, "events": [{"step": 0, "note": 60, "vel": 80, "len": 4}, {"step": 4, "note": 65, "vel": 60, "len": 2}]}, {"bar": 13, "events": [{"step": 0, "note": 62, "vel": 80, "len": 4}, {"step": 4, "note": 64, "vel": 60, "len": 2}]}, {"bar": 14, "events": [{"step": 0, "note": 67, "vel": 80, "len": 4}, {"step": 4, "note": 65, "vel": 60, "len": 2}]}, {"bar": 15, "events": [{"step": 0, "note": 60, "vel": 80, "len": 4}, {"step": 4, "note": 67, "vel": 60, "len": 2}]}, {"bar": 16, "events": [{"step": 0, "note": 62, "vel": 80, "len": 4}, {"step": 4, "note": 64, "vel": 60, "len": 2}]}]}