{"request": {"project_name": "oldschool rap v2", "run_id": "6d223c52ffdf", "user_id": 2, "midi": {"pattern": [{"bar": 0, "events": [{"step": 0, "note": 36, "vel": 120, "len": 1}, {"step": 0, "note": 42, "vel": 100, "len": 1}, {"step": 0, "note": 36, "vel": 100, "len": 4}, {"step": 0, "note": 60, "vel": 90, "len": 2}, {"step": 0, "note": 63, "vel": 90, "len": 2}, {"step": 0, "note": 67, "vel": 90, "len": 2}, {"step": 0, "note": 72, "vel": 75, "len": 8}, {"step": 1, "note": 42, "vel": 85, "len": 1}, {"step": 2, "note": 38, "vel": 115, "len": 1}, {"step": 2, "note": 42, "vel": 100, "len": 1}, {"step": 3, "note": 36, "vel": 110, "len": 1}, {"step": 3, "note": 42, "vel": 85, "len": 1}, {"step": 3, "note": 39, "vel": 95, "len": 2}, {"step": 3, "note": 60, "vel": 85, "len": 1}, {"step": 3, "note": 63, "vel": 85, "len": 1}, {"step": 3, "note": 67, "vel": 85, "len": 1}, {"step": 4, "note": 42, "vel": 100, "len": 1}, {"step": 5, "note": 36, "vel": 110, "len": 1}, {"step": 5, "note": 42, "vel": 85, "len": 1}, {"step": 5, "note": 41, "vel": 95, "len": 2}, {"step": 6, "note": 38, "vel": 115, "len": 1}, {"step": 6, "note": 42, "vel": 100, "len": 1}, {"step": 6, "note": 65, "vel": 90, "len": 1}, {"step": 6, "note": 69, "vel": 90, "len": 1}, {"step": 6, "note": 72, "vel": 90, "len": 1}, {"step": 7, "note": 42, "vel": 85, "len": 1}]}, {"bar": 1, "events": [{"step": 0, "note": 36, "vel": 120, "len": 1}, {"step": 0, "note": 42, "vel": 100, "len": 1}, {"step": 0, "note": 36, "vel": 100, "len": 4}, {"step": 0, "note": 60, "vel": 90, "len": 2}, {"step": 0, "note": 63, "vel": 90, "len": 2}, {"step": 0, "note": 67, "vel": 90, "len": 2}, {"step": 0, "note": 72, "vel": 75, "len": 8}, {"step": 1, "note": 42, "vel": 85, "len": 1}, {"step": 2, "note": 38, "vel": 115, "len": 1}, {"step": 2, "note": 42, "vel": 100, "len": 1}, {"step": 3, "note": 42, "vel": 85, "len": 1}, {"step": 4, "note": 36, "vel": 110, "len": 1}, {"step": 4, "note": 42, "vel": 100, "len": 1}, {"step": 4, "note": 43, "vel": 95, "len": 2}, {"step": 5, "note": 42, "vel": 85, "len": 1}, {"step": 6, "note": 38, "vel": 115, "len": 1}, {"step": 6, "note": 42, "vel": 100, "len": 1}, {"step": 6, "note": 65, "vel": 90, "len": 1}, {"step": 6, "note": 69, "vel": 90, "len": 1}, {"step": 6, "note": 72, "vel": 90, "len": 1}, {"step": 7, "note": 36, "vel": 105, "len": 1}, {"step": 7, "note": 42, "vel": 85, "len": 1}, {"step": 7, "note": 46, "vel": 95, "len": 1}]}, {"bar": 2, "events": [{"step": 0, "note": 36, "vel": 120, "len": 1}, {"step": 0, "note": 42, "vel": 100, "len": 1}, {"step": 0, "note": 36, "vel": 100, "len": 4}, {"step": 0, "note": 60, "vel": 90, "len": 2}, {"step": 0, "note": 63, "vel": 90, "len": 2}, {"step": 0, "note": 67, "vel": 90, "len": 2}, {"step": 1, "note": 42, "vel": 85, "len": 1}, {"step": 2, "note": 38, "vel": 115, "len": 1}, {"step": 2, "note": 42, "vel": 100, "len": 1}, {"step": 3, "note": 36, "vel": 110, "len": 1}, {"step": 3, "note": 42, "vel": 85, "len": 1}, {"step": 3, "note": 39, "vel": 95, "len": 2}, {"step": 3, "note": 60, "vel": 85, "len": 1}, {"step": 3, "note": 63, "vel": 85, "len": 1}, {"step": 3, "note": 67, "vel": 85, "len": 1}, {"step": 4, "note": 42, "vel": 100, "len": 1}, {"step": 5, "note": 36, "vel": 110, "len": 1}, {"step": 5, "note": 42, "vel": 85, "len": 1}, {"step": 5, "note": 41, "vel": 95, "len": 2}, {"step": 6, "note": 38, "vel": 115, "len": 1}, {"step": 6, "note": 42, "vel": 100, "len": 1}, {"step": 7, "note": 42, "vel": 85, "len": 1}]}, {"bar": 3, "events": [{"step": 0, "note": 36, "vel": 120, "len": 1}, {"step": 0, "note": 42, "vel": 100, "len": 1}, {"step": 0, "note": 36, "vel": 100, "len": 4}, {"step": 1, "note": 42, "vel": 85, "len": 1}, {"step": 1, "note": 38, "vel": 60, "len": 1}, {"step": 2, "note": 38, "vel": 115, "len": 1}, {"step": 2, "note": 42, "vel": 100, "len": 1}, {"step": 3, "note": 42, "vel": 85, "len": 1}, {"step": 4, "note": 36, "vel": 110, "len": 1}, {"step": 4, "note": 42, "vel": 100, "len": 1}, {"step": 4, "note": 43, "vel": 95, "len": 2}, {"step": 5, "note": 42, "vel": 85, "len": 1}, {"step": 6, "note": 38, "vel": 115, "len": 1}, {"step": 6, "note": 42, "vel": 100, "len": 1}, {"step": 7, "note": 42, "vel": 85, "len": 1}, {"step": 7, "note": 46, "vel": 95, "len": 1}]}], "layers": {"Kick": [{"bar": 0, "events": [{"step": 0, "note": 36, "vel": 120, "len": 1}, {"step": 3, "note": 36, "vel": 110, "len": 1}, {"step": 5, "note": 36, "vel": 110, "len": 1}]}, {"bar": 1, "events": [{"step": 0, "note": 36, "vel": 120, "len": 1}, {"step": 4, "note": 36, "vel": 110, "len": 1}, {"step": 7, "note": 36, "vel": 105, "len": 1}]}, {"bar": 2, "events": [{"step": 0, "note": 36, "vel": 120, "len": 1}, {"step": 3, "note": 36, "vel": 110, "len": 1}, {"step": 5, "note": 36, "vel": 110, "len": 1}]}, {"bar": 3, "events": [{"step": 0, "note": 36, "vel": 120, "len": 1}, {"step": 4, "note": 36, "vel": 110, "len": 1}]}], "Snare": [{"bar": 0, "events": [{"step": 2, "note": 38, "vel": 115, "len": 1}, {"step": 6, "note": 38, "vel": 115, "len": 1}]}, {"bar": 1, "events": [{"step": 2, "note": 38, "vel": 115, "len": 1}, {"step": 6, "note": 38, "vel": 115, "len": 1}]}, {"bar": 2, "events": [{"step": 2, "note": 38, "vel": 115, "len": 1}, {"step": 6, "note": 38, "vel": 115, "len": 1}]}, {"bar": 3, "events": [{"step": 1, "note": 38, "vel": 60, "len": 1}, {"step": 2, "note": 38, "vel": 115, "len": 1}, {"step": 6, "note": 38, "vel": 115, "len": 1}]}], "Hat": [{"bar": 0, "events": [{"step": 0, "note": 42, "vel": 100, "len": 1}, {"step": 1, "note": 42, "vel": 85, "len": 1}, {"step": 2, "note": 42, "vel": 100, "len": 1}, {"step": 3, "note": 42, "vel": 85, "len": 1}, {"step": 4, "note": 42, "vel": 100, "len": 1}, {"step": 5, "note": 42, "vel": 85, "len": 1}, {"step": 6, "note": 42, "vel": 100, "len": 1}, {"step": 7, "note": 42, "vel": 85, "len": 1}]}, {"bar": 1, "events": [{"step": 0, "note": 42, "vel": 100, "len": 1}, {"step": 1, "note": 42, "vel": 85, "len": 1}, {"step": 2, "note": 42, "vel": 100, "len": 1}, {"step": 3, "note": 42, "vel": 85, "len": 1}, {"step": 4, "note": 42, "vel": 100, "len": 1}, {"step": 5, "note": 42, "vel": 85, "len": 1}, {"step": 6, "note": 42, "vel": 100, "len": 1}, {"step": 7, "note": 42, "vel": 85, "len": 1}]}, {"bar": 2, "events": [{"step": 0, "note": 42, "vel": 100, "len": 1}, {"step": 1, "note": 42, "vel": 85, "len": 1}, {"step": 2, "note": 42, "vel": 100, "len": 1}, {"step": 3, "note": 42, "vel": 85, "len": 1}, {"step": 4, "note": 42, "vel": 100, "len": 1}, {"step": 5, "note": 42, "vel": 85, "len": 1}, {"step": 6, "note": 42, "vel": 100, "len": 1}, {"step": 7, "note": 42, "vel": 85, "len": 1}]}, {"bar": 3, "events": [{"step": 0, "note": 42, "vel": 100, "len": 1}, {"step": 1, "note": 42, "vel": 85, "len": 1}, {"step": 2, "note": 42, "vel": 100, "len": 1}, {"step": 3, "note": 42, "vel": 85, "len": 1}, {"step": 4, "note": 42, "vel": 100, "len": 1}, {"step": 5, "note": 42, "vel": 85, "len": 1}, {"step": 6, "note": 42, "vel": 100, "len": 1}, {"step": 7, "note": 42, "vel": 85, "len": 1}]}], "Bass": [{"bar": 0, "events": [{"step": 0, "note": 36, "vel": 100, "len": 4}, {"step": 3, "note": 39, "vel": 95, "len": 2}, {"step": 5, "note": 41, "vel": 95, "len": 2}]}, {"bar": 1, "events": [{"step": 0, "note": 36, "vel": 100, "len": 4}, {"step": 4, "note": 43, "vel": 95, "len": 2}, {"step": 7, "note": 46, "vel": 95, "len": 1}]}, {"bar": 2, "events": [{"step": 0, "note": 36, "vel": 100, "len": 4}, {"step": 3, "note": 39, "vel": 95, "len": 2}, {"step": 5, "note": 41, "vel": 95, "len": 2}]}, {"bar": 3, "events": [{"step": 0, "note": 36, "vel": 100, "len": 4}, {"step": 4, "note": 43, "vel": 95, "len": 2}, {"step": 7, "note": 46, "vel": 95, "len": 1}]}], "Piano": [{"bar": 0, "events": [{"step": 0, "note": 60, "vel": 90, "len": 2}, {"step": 0, "note": 63, "vel": 90, "len": 2}, {"step": 0, "note": 67, "vel": 90, "len": 2}, {"step": 3, "note": 60, "vel": 85, "len": 1}, {"step": 3, "note": 63, "vel": 85, "len": 1}, {"step": 3, "note": 67, "vel": 85, "len": 1}, {"step": 6, "note": 65, "vel": 90, "len": 1}, {"step": 6, "note": 69, "vel": 90, "len": 1}, {"step": 6, "note": 72, "vel": 90, "len": 1}]}, {"bar": 1, "events": [{"step": 0, "note": 60, "vel": 90, "len": 2}, {"step": 0, "note": 63, "vel": 90, "len": 2}, {"step": 0, "note": 67, "vel": 90, "len": 2}, {"step": 6, "note": 65, "vel": 90, "len": 1}, {"step": 6, "note": 69, "vel": 90, "len": 1}, {"step": 6, "note": 72, "vel": 90, "len": 1}]}, {"bar": 2, "events": [{"step": 0, "note": 60, "vel": 90, "len": 2}, {"step": 0, "note": 63, "vel": 90, "len": 2}, {"step": 0, "note": 67, "vel": 90, "len": 2}, {"step": 3, "note": 60, "vel": 85, "len": 1}, {"step": 3, "note": 63, "vel": 85, "len": 1}, {"step": 3, "note": 67, "vel": 85, "len": 1}]}, {"bar": 3, "events": []}], "Sax": [{"bar": 4, "events": [{"step": 0, "note": 60, "vel": 100, "len": 2}, {"step": 2, "note": 63, "vel": 100, "len": 1}, {"step": 4, "note": 67, "vel": 100, "len": 2}, {"step": 7, "note": 70, "vel": 95, "len": 1}]}, {"bar": 5, "events": [{"step": 0, "note": 72, "vel": 100, "len": 2}, {"step": 3, "note": 70, "vel": 95, "len": 1}, {"step": 5, "note": 67, "vel": 95, "len": 2}]}], "Strings": [{"bar": 0, "events": [{"step": 0, "note": 72, "vel": 75, "len": 8}]}, {"bar": 1, "events": [{"step": 0, "note": 72, "vel": 75, "len": 8}]}, {"bar": 4, "events": [{"step": 0, "note": 79, "vel": 80, "len": 8}]}]}, "meta": {"style": "Old School Hip Hop", "mood": "Gritty, Nostalgic, Groovy", "tempo": 90, "key": "C Minor", "scale": "Dorian", "bars": 16, "meter": "4/4", "dynamic_profile": "Punchy and Compressed", "arrangement_density": "Sparse", "harmonic_color": "Jazz-Funk Samples", "length_seconds": 42, "instrument_configs": [{"name": "Kick", "register": "Low", "role": "Percussion", "articulation": "Percussive", "dynamic_range": "Intense"}, {"name": "Snare", "register": "Mid", "role": "Percussion", "articulation": "Percussive", "dynamic_range": "Intense"}, {"name": "Hat", "register": "High", "role": "Percussion", "articulation": "Percussive", "dynamic_range": "Moderate"}, {"name": "Bass", "register": "Low", "role": "Bass", "articulation": "Legato", "dynamic_range": "Consistent"}, {"name": "Piano", "register": "Mid", "role": "Accompaniment", "articulation": "Staccato", "dynamic_range": "Moderate"}, {"name": "Sax", "register": "Mid-High", "role": "Lead", "articulation": "Staccato", "dynamic_range": "High"}, {"name": "Strings", "register": "High", "role": "Pad", "articulation": "Sustain", "dynamic_range": "Delicate"}], "instruments": ["Kick", "Snare", "Hat", "Bass", "Piano", "Sax", "Strings"]}}, "midi_per_instrument": null, "tracks": [{"instrument": "Kick", "enabled": true, "volume_db": 0.0, "pan": 0.0}, {"instrument": "Snare", "enabled": true, "volume_db": -3.0, "pan": 0.0}, {"instrument": "Hat", "enabled": true, "volume_db": -3.0, "pan": 0.0}, {"instrument": "Bass", "enabled": true, "volume_db": -3.0, "pan": 0.0}, {"instrument": "Piano", "enabled": true, "volume_db": -3.0, "pan": 0.0}, {"instrument": "Sax", "enabled": true, "volume_db": -3.0, "pan": 0.0}, {"instrument": "Strings", "enabled": true, "volume_db": -3.0, "pan": 0.0}], "selected_samples": {"Strings": "Instruments/Strings/STR_Harpsy_C4.wav", "Sax": "Instruments/Orchestral/Tenor Sax/12_TSAX_LONG G2ogg.wav", "Piano": "Instruments/Piano/Piano 1/CHANGPIANOHARD_F5OGG.WAV", "Bass": "Instruments/Bass/BASS_EfEm_C2.wav", "Hat": "Drums/RealDrumkits/RD_Hat_1.wav", "Snare": "Drums/Kits/Drum Kit 07/FLS_Snare 07a.wav", "Kick": "Drums/Kits/Drum Kit 01/FLS_Kick 01.wav"}, "fadeout_seconds": 0.01}, "response": {"project_name": "oldschool rap v2", "run_id": "6d223c52ffdf", "mix_wav_rel": "output\\6d223c52ffdf\\oldschool rap v2_mix_1764895479.wav", "stems": [{"instrument": "Kick", "audio_rel": "output\\6d223c52ffdf\\oldschool rap v2_Kick_1764895479.wav"}, {"instrument": "Snare", "audio_rel": "output\\6d223c52ffdf\\oldschool rap v2_Snare_1764895479.wav"}, {"instrument": "Hat", "audio_rel": "output\\6d223c52ffdf\\oldschool rap v2_Hat_1764895479.wav"}, {"instrument": "Bass", "audio_rel": "output\\6d223c52ffdf\\oldschool rap v2_Bass_1764895479.wav"}, {"instrument": "Piano", "audio_rel": "output\\6d223c52ffdf\\oldschool rap v2_Piano_1764895479.wav"}, {"instrument": "Sax", "audio_rel": "output\\6d223c52ffdf\\oldschool rap v2_Sax_1764895479.wav"}, {"instrument": "Strings", "audio_rel": "output\\6d223c52ffdf\\oldschool rap v2_Strings_1764895479.wav"}], "sample_rate": 44100, "duration_seconds": 42.0}}