{"pattern": [{"bar": 1, "events": [{"step": 0, "note": 36, "vel": 100, "len": 1}, {"step": 2, "note": 42, "vel": 80, "len": 1}, {"step": 4, "note": 38, "vel": 120, "len": 1}, {"step": 6, "note": 42, "vel": 80, "len": 1}]}, {"bar": 2, "events": [{"step": 0, "note": 36, "vel": 100, "len": 1}, {"step": 3, "note": 42, "vel": 80, "len": 1}, {"step": 5, "note": 38, "vel": 120, "len": 1}, {"step": 7, "note": 42, "vel": 80, "len": 1}]}, {"bar": 3, "events": [{"step": 1, "note": 42, "vel": 80, "len": 1}, {"step": 3, "note": 36, "vel": 100, "len": 1}, {"step": 5, "note": 42, "vel": 80, "len": 1}, {"step": 7, "note": 38, "vel": 120, "len": 1}]}, {"bar": 4, "events": [{"step": 0, "note": 38, "vel": 120, "len": 1}, {"step": 2, "note": 42, "vel": 80, "len": 1}, {"step": 4, "note": 36, "vel": 100, "len": 1}, {"step": 6, "note": 42, "vel": 80, "len": 1}]}, {"bar": 5, "events": [{"step": 0, "note": 36, "vel": 100, "len": 1}, {"step": 2, "note": 42, "vel": 80, "len": 1}, {"step": 4, "note": 38, "vel": 120, "len": 1}, {"step": 6, "note": 42, "vel": 80, "len": 1}]}, {"bar": 6, "events": [{"step": 1, "note": 42, "vel": 80, "len": 1}, {"step": 3, "note": 36, "vel": 100, "len": 1}, {"step": 5, "note": 42, "vel": 80, "len": 1}, {"step": 7, "note": 38, "vel": 120, "len": 1}]}, {"bar": 7, "events": [{"step": 0, "note": 38, "vel": 120, "len": 1}, {"step": 2, "note": 42, "vel": 80, "len": 1}, {"step": 4, "note": 36, "vel": 100, "len": 1}, {"step": 6, "note": 42, "vel": 80, "len": 1}]}, {"bar": 8, "events": [{"step": 0, "note": 36, "vel": 100, "len": 1}, {"step": 3, "note": 42, "vel": 80, "len": 1}, {"step": 5, "note": 38, "vel": 120, "len": 1}, {"step": 7, "note": 42, "vel": 80, "len": 1}]}, {"bar": 9, "events": [{"step": 1, "note": 42, "vel": 80, "len": 1}, {"step": 3, "note": 36, "vel": 100, "len": 1}, {"step": 5, "note": 42, "vel": 80, "len": 1}, {"step": 7, "note": 38, "vel": 120, "len": 1}]}, {"bar": 10, "events": [{"step": 0, "note": 38, "vel": 120, "len": 1}, {"step": 2, "note": 42, "vel": 80, "len": 1}, {"step": 4, "note": 36, "vel": 100, "len": 1}, {"step": 6, "note": 42, "vel": 80, "len": 1}]}, {"bar": 11, "events": [{"step": 0, "note": 36, "vel": 100, "len": 1}, {"step": 2, "note": 42, "vel": 80, "len": 1}, {"step": 4, "note": 38, "vel": 120, "len": 1}, {"step": 6, "note": 42, "vel": 80, "len": 1}]}, {"bar": 12, "events": [{"step": 1, "note": 42, "vel": 80, "len": 1}, {"step": 3, "note": 36, "vel": 100, "len": 1}, {"step": 5, "note": 42, "vel": 80, "len": 1}, {"step": 7, "note": 38, "vel": 120, "len": 1}]}, {"bar": 13, "events": [{"step": 0, "note": 38, "vel": 120, "len": 1}, {"step": 2, "note": 42, "vel": 80, "len": 1}, {"step": 4, "note": 36, "vel": 100, "len": 1}, {"step": 6, "note": 42, "vel": 80, "len": 1}]}, {"bar": 14, "events": [{"step": 0, "note": 36, "vel": 100, "len": 1}, {"step": 3, "note": 42, "vel": 80, "len": 1}, {"step": 5, "note": 38, "vel": 120, "len": 1}, {"step": 7, "note": 42, "vel": 80, "len": 1}]}, {"bar": 15, "events": [{"step": 1, "note": 42, "vel": 80, "len": 1}, {"step": 3, "note": 36, "vel": 100, "len": 1}, {"step": 5, "note": 42, "vel": 80, "len": 1}, {"step": 7, "note": 38, "vel": 120, "len": 1}]}, {"bar": 16, "events": [{"step": 0, "note": 38, "vel": 120, "len": 1}, {"step": 2, "note": 42, "vel": 80, "len": 1}, {"step": 4, "note": 36, "vel": 100, "len": 1}, {"step": 6, "note": 42, "vel": 80, "len": 1}]}], "layers": {"Drums": [{"bar": 1, "events": [{"step": 0, "note": 36, "vel": 100, "len": 1}, {"step": 2, "note": 42, "vel": 80, "len": 1}, {"step": 4, "note": 38, "vel": 120, "len": 1}, {"step": 6, "note": 42, "vel": 80, "len": 1}]}, {"bar": 2, "events": [{"step": 0, "note": 36, "vel": 100, "len": 1}, {"step": 3, "note": 42, "vel": 80, "len": 1}, {"step": 5, "note": 38, "vel": 120, "len": 1}, {"step": 7, "note": 42, "vel": 80, "len": 1}]}, {"bar": 3, "events": [{"step": 1, "note": 42, "vel": 80, "len": 1}, {"step": 3, "note": 36, "vel": 100, "len": 1}, {"step": 5, "note": 42, "vel": 80, "len": 1}, {"step": 7, "note": 38, "vel": 120, "len": 1}]}, {"bar": 4, "events": [{"step": 0, "note": 38, "vel": 120, "len": 1}, {"step": 2, "note": 42, "vel": 80, "len": 1}, {"step": 4, "note": 36, "vel": 100, "len": 1}, {"step": 6, "note": 42, "vel": 80, "len": 1}]}, {"bar": 5, "events": [{"step": 0, "note": 36, "vel": 100, "len": 1}, {"step": 2, "note": 42, "vel": 80, "len": 1}, {"step": 4, "note": 38, "vel": 120, "len": 1}, {"step": 6, "note": 42, "vel": 80, "len": 1}]}, {"bar": 6, "events": [{"step": 1, "note": 42, "vel": 80, "len": 1}, {"step": 3, "note": 36, "vel": 100, "len": 1}, {"step": 5, "note": 42, "vel": 80, "len": 1}, {"step": 7, "note": 38, "vel": 120, "len": 1}]}, {"bar": 7, "events": [{"step": 0, "note": 38, "vel": 120, "len": 1}, {"step": 2, "note": 42, "vel": 80, "len": 1}, {"step": 4, "note": 36, "vel": 100, "len": 1}, {"step": 6, "note": 42, "vel": 80, "len": 1}]}, {"bar": 8, "events": [{"step": 0, "note": 36, "vel": 100, "len": 1}, {"step": 3, "note": 42, "vel": 80, "len": 1}, {"step": 5, "note": 38, "vel": 120, "len": 1}, {"step": 7, "note": 42, "vel": 80, "len": 1}]}, {"bar": 9, "events": [{"step": 1, "note": 42, "vel": 80, "len": 1}, {"step": 3, "note": 36, "vel": 100, "len": 1}, {"step": 5, "note": 42, "vel": 80, "len": 1}, {"step": 7, "note": 38, "vel": 120, "len": 1}]}, {"bar": 10, "events": [{"step": 0, "note": 38, "vel": 120, "len": 1}, {"step": 2, "note": 42, "vel": 80, "len": 1}, {"step": 4, "note": 36, "vel": 100, "len": 1}, {"step": 6, "note": 42, "vel": 80, "len": 1}]}, {"bar": 11, "events": [{"step": 0, "note": 36, "vel": 100, "len": 1}, {"step": 2, "note": 42, "vel": 80, "len": 1}, {"step": 4, "note": 38, "vel": 120, "len": 1}, {"step": 6, "note": 42, "vel": 80, "len": 1}]}, {"bar": 12, "events": [{"step": 1, "note": 42, "vel": 80, "len": 1}, {"step": 3, "note": 36, "vel": 100, "len": 1}, {"step": 5, "note": 42, "vel": 80, "len": 1}, {"step": 7, "note": 38, "vel": 120, "len": 1}]}, {"bar": 13, "events": [{"step": 0, "note": 38, "vel": 120, "len": 1}, {"step": 2, "note": 42, "vel": 80, "len": 1}, {"step": 4, "note": 36, "vel": 100, "len": 1}, {"step": 6, "note": 42, "vel": 80, "len": 1}]}, {"bar": 14, "events": [{"step": 0, "note": 36, "vel": 100, "len": 1}, {"step": 3, "note": 42, "vel": 80, "len": 1}, {"step": 5, "note": 38, "vel": 120, "len": 1}, {"step": 7, "note": 42, "vel": 80, "len": 1}]}, {"bar": 15, "events": [{"step": 1, "note": 42, "vel": 80, "len": 1}, {"step": 3, "note": 36, "vel": 100, "len": 1}, {"step": 5, "note": 42, "vel": 80, "len": 1}, {"step": 7, "note": 38, "vel": 120, "len": 1}]}, {"bar": 16, "events": [{"step": 0, "note": 38, "vel": 120, "len": 1}, {"step": 2, "note": 42, "vel": 80, "len": 1}, {"step": 4, "note": 36, "vel": 100, "len": 1}, {"step": 6, "note": 42, "vel": 80, "len": 1}]}], "meta": {}}, "meta": {"tempo": 90, "key": "C", "scale": "Chromatic", "style": "Experimental", "mood": "Uncertain", "meter": "4/4", "dynamic_profile": "Contrasting", "arrangement_density": "Medium", "harmonic_color": "Dissonant", "length_seconds": 120.0, "bars": 16, "instrument_configs": [{"name": "Piano", "register": "Mid", "role": "Lead", "articulation": "Staccato", "dynamic_range": "Moderate"}, {"name": "Electric Guitar", "register": "High", "role": "Accompaniment", "articulation": "Legato", "dynamic_range": "Intense"}, {"name": "Bass Guitar", "register": "Low", "role": "Bass", "articulation": "Sustain", "dynamic_range": "Delicate"}, {"name": "Drums", "register": "Full", "role": "Percussion", "articulation": "Percussive", "dynamic_range": "Intense"}], "instruments": ["Piano", "Electric Guitar", "Bass Guitar", "Drums"]}}