{"meta": {"style": "Alternative Rock", "tempo": 126, "key": "E Minor", "bars": 84, "sections": {"intro": [1, 8], "verse_1": [9, 24], "chorus_1": [25, 32], "verse_2": [33, 40], "chorus_2": [41, 48], "bridge_breakdown": [49, 64], "solo": [65, 72], "finale": [73, 84]}, "scale": "Minor", "mood": "Energetic, Raw, Driving", "meter": "4/4", "dynamic_profile": "Dynamic build-up: moderate verses, intense choruses, quiet breakdown, explosive finale", "arrangement_density": "Medium-High", "harmonic_color": "Distorted, Power Chords", "length_seconds": 160.0, "instrument_configs": [{"name": "Electric Guitar", "register": "Full", "role": "Lead", "articulation": "Distorted Sustain", "dynamic_range": "Intense"}, {"name": "Bass Guitar", "register": "Low", "role": "Bass", "articulation": "Legato", "dynamic_range": "Consistent"}, {"name": "Kick", "register": "Low", "role": "Percussion", "articulation": "Percussive", "dynamic_range": "Intense"}, {"name": "Snare", "register": "Mid", "role": "Percussion", "articulation": "Percussive", "dynamic_range": "Intense"}, {"name": "Hat", "register": "High", "role": "Percussion", "articulation": "Staccato", "dynamic_range": "Moderate"}, {"name": "Crash", "register": "High", "role": "Percussion", "articulation": "Sustain", "dynamic_range": "Loud"}, {"name": "Ride", "register": "High", "role": "Percussion", "articulation": "Sustain", "dynamic_range": "Moderate"}, {"name": "Tom", "register": "Low-Mid", "role": "Percussion", "articulation": "Percussive", "dynamic_range": "High"}], "instruments": ["Electric Guitar", "Bass Guitar", "Kick", "Snare", "Hat", "Crash", "Ride", "Tom"], "instrument": "Electric Guitar"}, "layers": {"Electric Guitar": [{"bar": 1, "events": [{"step": 0, "note": 40, "vel": 110, "len": 2}, {"step": 2, "note": 40, "vel": 90, "len": 1}, {"step": 3, "note": 43, "vel": 100, "len": 1}, {"step": 4, "note": 45, "vel": 100, "len": 1}, {"step": 6, "note": 43, "vel": 95, "len": 1}]}, {"bar": 2, "events": [{"step": 0, "note": 40, "vel": 110, "len": 2}, {"step": 2, "note": 40, "vel": 90, "len": 1}, {"step": 3, "note": 47, "vel": 100, "len": 1}, {"step": 4, "note": 45, "vel": 100, "len": 1}, {"step": 6, "note": 43, "vel": 95, "len": 1}]}, {"bar": 3, "events": [{"step": 0, "note": 40, "vel": 110, "len": 2}, {"step": 2, "note": 40, "vel": 90, "len": 1}, {"step": 3, "note": 43, "vel": 100, "len": 1}, {"step": 4, "note": 45, "vel": 100, "len": 1}, {"step": 6, "note": 43, "vel": 95, "len": 1}]}, {"bar": 4, "events": [{"step": 0, "note": 40, "vel": 110, "len": 2}, {"step": 2, "note": 40, "vel": 90, "len": 1}, {"step": 3, "note": 47, "vel": 110, "len": 1}, {"step": 5, "note": 50, "vel": 115, "len": 1}, {"step": 7, "note": 52, "vel": 120, "len": 1}]}, {"bar": 5, "events": [{"step": 0, "note": 40, "vel": 127, "len": 1}, {"step": 0, "note": 47, "vel": 127, "len": 1}, {"step": 2, "note": 40, "vel": 100, "len": 1}, {"step": 4, "note": 40, "vel": 110, "len": 1}, {"step": 6, "note": 43, "vel": 115, "len": 2}]}, {"bar": 9, "events": [{"step": 0, "note": 40, "vel": 80, "len": 1}, {"step": 1, "note": 40, "vel": 70, "len": 1}, {"step": 2, "note": 40, "vel": 80, "len": 1}, {"step": 3, "note": 40, "vel": 70, "len": 1}, {"step": 4, "note": 43, "vel": 85, "len": 1}, {"step": 6, "note": 45, "vel": 85, "len": 1}]}, {"bar": 10, "events": [{"step": 0, "note": 40, "vel": 80, "len": 1}, {"step": 2, "note": 40, "vel": 80, "len": 1}, {"step": 4, "note": 47, "vel": 85, "len": 1}, {"step": 6, "note": 45, "vel": 85, "len": 1}]}, {"bar": 25, "events": [{"step": 0, "note": 36, "vel": 120, "len": 4}, {"step": 0, "note": 43, "vel": 120, "len": 4}, {"step": 4, "note": 38, "vel": 120, "len": 4}, {"step": 4, "note": 45, "vel": 120, "len": 4}]}, {"bar": 26, "events": [{"step": 0, "note": 40, "vel": 120, "len": 8}, {"step": 0, "note": 47, "vel": 120, "len": 8}]}, {"bar": 27, "events": [{"step": 0, "note": 36, "vel": 120, "len": 4}, {"step": 0, "note": 43, "vel": 120, "len": 4}, {"step": 4, "note": 38, "vel": 120, "len": 4}, {"step": 4, "note": 45, "vel": 120, "len": 4}]}, {"bar": 28, "events": [{"step": 0, "note": 40, "vel": 120, "len": 8}, {"step": 0, "note": 47, "vel": 120, "len": 8}]}, {"bar": 49, "events": [{"step": 0, "note": 52, "vel": 60, "len": 2}, {"step": 4, "note": 55, "vel": 60, "len": 2}]}, {"bar": 65, "events": [{"step": 0, "note": 64, "vel": 115, "len": 2}, {"step": 2, "note": 67, "vel": 110, "len": 1}, {"step": 3, "note": 69, "vel": 115, "len": 1}, {"step": 4, "note": 72, "vel": 120, "len": 2}, {"step": 6, "note": 71, "vel": 110, "len": 2}]}, {"bar": 73, "events": [{"step": 0, "note": 40, "vel": 127, "len": 2}, {"step": 0, "note": 47, "vel": 127, "len": 2}, {"step": 2, "note": 40, "vel": 120, "len": 1}, {"step": 3, "note": 40, "vel": 120, "len": 1}, {"step": 4, "note": 40, "vel": 120, "len": 1}, {"step": 6, "note": 40, "vel": 120, "len": 1}]}]}, "pattern": [{"bar": 1, "events": [{"step": 0, "note": 40, "vel": 110, "len": 2}, {"step": 2, "note": 40, "vel": 90, "len": 1}, {"step": 3, "note": 43, "vel": 100, "len": 1}, {"step": 4, "note": 45, "vel": 100, "len": 1}, {"step": 6, "note": 43, "vel": 95, "len": 1}]}, {"bar": 2, "events": [{"step": 0, "note": 40, "vel": 110, "len": 2}, {"step": 2, "note": 40, "vel": 90, "len": 1}, {"step": 3, "note": 47, "vel": 100, "len": 1}, {"step": 4, "note": 45, "vel": 100, "len": 1}, {"step": 6, "note": 43, "vel": 95, "len": 1}]}, {"bar": 3, "events": [{"step": 0, "note": 40, "vel": 110, "len": 2}, {"step": 2, "note": 40, "vel": 90, "len": 1}, {"step": 3, "note": 43, "vel": 100, "len": 1}, {"step": 4, "note": 45, "vel": 100, "len": 1}, {"step": 6, "note": 43, "vel": 95, "len": 1}]}, {"bar": 4, "events": [{"step": 0, "note": 40, "vel": 110, "len": 2}, {"step": 2, "note": 40, "vel": 90, "len": 1}, {"step": 3, "note": 47, "vel": 110, "len": 1}, {"step": 5, "note": 50, "vel": 115, "len": 1}, {"step": 7, "note": 52, "vel": 120, "len": 1}]}, {"bar": 5, "events": [{"step": 0, "note": 40, "vel": 127, "len": 1}, {"step": 0, "note": 47, "vel": 127, "len": 1}, {"step": 2, "note": 40, "vel": 100, "len": 1}, {"step": 4, "note": 40, "vel": 110, "len": 1}, {"step": 6, "note": 43, "vel": 115, "len": 2}]}, {"bar": 9, "events": [{"step": 0, "note": 40, "vel": 80, "len": 1}, {"step": 1, "note": 40, "vel": 70, "len": 1}, {"step": 2, "note": 40, "vel": 80, "len": 1}, {"step": 3, "note": 40, "vel": 70, "len": 1}, {"step": 4, "note": 43, "vel": 85, "len": 1}, {"step": 6, "note": 45, "vel": 85, "len": 1}]}, {"bar": 10, "events": [{"step": 0, "note": 40, "vel": 80, "len": 1}, {"step": 2, "note": 40, "vel": 80, "len": 1}, {"step": 4, "note": 47, "vel": 85, "len": 1}, {"step": 6, "note": 45, "vel": 85, "len": 1}]}, {"bar": 25, "events": [{"step": 0, "note": 36, "vel": 120, "len": 4}, {"step": 0, "note": 43, "vel": 120, "len": 4}, {"step": 4, "note": 38, "vel": 120, "len": 4}, {"step": 4, "note": 45, "vel": 120, "len": 4}]}, {"bar": 26, "events": [{"step": 0, "note": 40, "vel": 120, "len": 8}, {"step": 0, "note": 47, "vel": 120, "len": 8}]}, {"bar": 27, "events": [{"step": 0, "note": 36, "vel": 120, "len": 4}, {"step": 0, "note": 43, "vel": 120, "len": 4}, {"step": 4, "note": 38, "vel": 120, "len": 4}, {"step": 4, "note": 45, "vel": 120, "len": 4}]}, {"bar": 28, "events": [{"step": 0, "note": 40, "vel": 120, "len": 8}, {"step": 0, "note": 47, "vel": 120, "len": 8}]}, {"bar": 49, "events": [{"step": 0, "note": 52, "vel": 60, "len": 2}, {"step": 4, "note": 55, "vel": 60, "len": 2}]}, {"bar": 65, "events": [{"step": 0, "note": 64, "vel": 115, "len": 2}, {"step": 2, "note": 67, "vel": 110, "len": 1}, {"step": 3, "note": 69, "vel": 115, "len": 1}, {"step": 4, "note": 72, "vel": 120, "len": 2}, {"step": 6, "note": 71, "vel": 110, "len": 2}]}, {"bar": 73, "events": [{"step": 0, "note": 40, "vel": 127, "len": 2}, {"step": 0, "note": 47, "vel": 127, "len": 2}, {"step": 2, "note": 40, "vel": 120, "len": 1}, {"step": 3, "note": 40, "vel": 120, "len": 1}, {"step": 4, "note": 40, "vel": 120, "len": 1}, {"step": 6, "note": 40, "vel": 120, "len": 1}]}]}