{"pattern": [{"bar": 0, "events": [{"step": 0, "note": 36, "vel": 60, "len": 1}, {"step": 2, "note": 42, "vel": 40, "len": 1}, {"step": 4, "note": 36, "vel": 55, "len": 1}, {"step": 6, "note": 38, "vel": 50, "len": 1}, {"step": 6, "note": 42, "vel": 35, "len": 1}]}, {"bar": 1, "events": [{"step": 0, "note": 36, "vel": 58, "len": 1}, {"step": 2, "note": 42, "vel": 45, "len": 1}, {"step": 4, "note": 38, "vel": 52, "len": 1}, {"step": 6, "note": 42, "vel": 40, "len": 1}]}, {"bar": 2, "events": [{"step": 0, "note": 36, "vel": 62, "len": 1}, {"step": 2, "note": 42, "vel": 38, "len": 1}, {"step": 4, "note": 36, "vel": 57, "len": 1}, {"step": 6, "note": 38, "vel": 48, "len": 1}, {"step": 6, "note": 42, "vel": 35, "len": 1}]}, {"bar": 3, "events": [{"step": 0, "note": 36, "vel": 60, "len": 1}, {"step": 2, "note": 42, "vel": 42, "len": 1}, {"step": 4, "note": 38, "vel": 50, "len": 1}, {"step": 6, "note": 42, "vel": 38, "len": 1}]}], "layers": {"Piano": [{"bar": 0, "events": [{"step": 0, "note": 60, "vel": 45, "len": 2}, {"step": 2, "note": 63, "vel": 42, "len": 2}, {"step": 4, "note": 67, "vel": 40, "len": 2}]}, {"bar": 1, "events": [{"step": 0, "note": 58, "vel": 43, "len": 2}, {"step": 2, "note": 62, "vel": 40, "len": 2}, {"step": 4, "note": 65, "vel": 38, "len": 2}]}, {"bar": 2, "events": [{"step": 0, "note": 57, "vel": 44, "len": 2}, {"step": 2, "note": 60, "vel": 41, "len": 2}, {"step": 4, "note": 64, "vel": 39, "len": 2}]}, {"bar": 3, "events": [{"step": 0, "note": 55, "vel": 42, "len": 2}, {"step": 2, "note": 58, "vel": 39, "len": 2}, {"step": 4, "note": 62, "vel": 37, "len": 2}]}], "Bass Guitar": [{"bar": 0, "events": [{"step": 0, "note": 48, "vel": 55, "len": 2}, {"step": 4, "note": 43, "vel": 52, "len": 2}]}, {"bar": 1, "events": [{"step": 0, "note": 46, "vel": 53, "len": 2}, {"step": 4, "note": 41, "vel": 50, "len": 2}]}, {"bar": 2, "events": [{"step": 0, "note": 45, "vel": 54, "len": 2}, {"step": 4, "note": 40, "vel": 51, "len": 2}]}, {"bar": 3, "events": [{"step": 0, "note": 43, "vel": 52, "len": 2}, {"step": 4, "note": 38, "vel": 49, "len": 2}]}]}, "meta": {"status": "success", "tempo": 85, "key": "C Minor", "scale": "Natural Minor", "style": "Lo-Fi", "mood": "Relaxed", "meter": "4/4", "dynamic_profile": "Soft", "arrangement_density": "Sparse", "harmonic_color": "Mellow", "length_seconds": 180.0, "bars": 32, "instrument_configs": [{"name": "Piano", "register": "Mid", "role": "Accompaniment", "articulation": "Legato", "dynamic_range": "Delicate"}, {"name": "Bass Guitar", "register": "Low", "role": "Bass", "articulation": "Sustain", "dynamic_range": "Moderate"}, {"name": "Kick", "register": "Sub", "role": "Percussion", "articulation": "Percussive", "dynamic_range": "Moderate"}, {"name": "Hat", "register": "High", "role": "Percussion", "articulation": "Staccato", "dynamic_range": "Delicate"}, {"name": "Snare", "register": "Mid", "role": "Percussion", "articulation": "Percussive", "dynamic_range": "Moderate"}], "instruments": ["Piano", "Bass Guitar", "Kick", "Hat", "Snare"]}}