{"meta": {"style": "Rock", "mood": "Energetic", "tempo": 140, "key": "E", "scale": "Minor", "meter": "4/4", "bars": 32, "length_seconds": 55, "dynamic_profile": "Energetic", "arrangement_density": "Sparse", "harmonic_color": "Gritty", "instruments": ["Electric Guitar", "Bass Guitar"], "instrument_configs": [{"name": "Electric Guitar", "register": "Mid", "role": "Lead", "articulation": "Driven", "dynamic_range": "Intense"}, {"name": "Bass Guitar", "register": "Low", "role": "Bass", "articulation": "Sustain", "dynamic_range": "Intense"}], "seed": null, "instrument": "ride_cymbal"}, "layers": {"ride_cymbal": [{"bar": 17, "events": [{"step": 0, "note": 51, "vel": 115, "len": 1}, {"step": 2, "note": 51, "vel": 115, "len": 1}, {"step": 4, "note": 51, "vel": 115, "len": 1}, {"step": 6, "note": 51, "vel": 115, "len": 1}]}, {"bar": 18, "events": [{"step": 0, "note": 51, "vel": 115, "len": 1}, {"step": 2, "note": 51, "vel": 115, "len": 1}, {"step": 4, "note": 51, "vel": 115, "len": 1}, {"step": 6, "note": 51, "vel": 115, "len": 1}]}, {"bar": 19, "events": [{"step": 0, "note": 51, "vel": 115, "len": 1}, {"step": 2, "note": 51, "vel": 115, "len": 1}, {"step": 4, "note": 51, "vel": 115, "len": 1}, {"step": 6, "note": 51, "vel": 115, "len": 1}]}, {"bar": 21, "events": [{"step": 0, "note": 51, "vel": 115, "len": 1}, {"step": 2, "note": 51, "vel": 115, "len": 1}, {"step": 4, "note": 51, "vel": 115, "len": 1}, {"step": 6, "note": 51, "vel": 115, "len": 1}]}, {"bar": 22, "events": [{"step": 0, "note": 51, "vel": 115, "len": 1}, {"step": 2, "note": 51, "vel": 115, "len": 1}, {"step": 4, "note": 51, "vel": 115, "len": 1}, {"step": 6, "note": 51, "vel": 115, "len": 1}]}, {"bar": 23, "events": [{"step": 0, "note": 51, "vel": 115, "len": 1}, {"step": 2, "note": 51, "vel": 115, "len": 1}, {"step": 4, "note": 51, "vel": 115, "len": 1}, {"step": 6, "note": 51, "vel": 115, "len": 1}]}]}, "pattern": [{"bar": 17, "events": [{"step": 0, "note": 51, "vel": 115, "len": 1}, {"step": 2, "note": 51, "vel": 115, "len": 1}, {"step": 4, "note": 51, "vel": 115, "len": 1}, {"step": 6, "note": 51, "vel": 115, "len": 1}]}, {"bar": 18, "events": [{"step": 0, "note": 51, "vel": 115, "len": 1}, {"step": 2, "note": 51, "vel": 115, "len": 1}, {"step": 4, "note": 51, "vel": 115, "len": 1}, {"step": 6, "note": 51, "vel": 115, "len": 1}]}, {"bar": 19, "events": [{"step": 0, "note": 51, "vel": 115, "len": 1}, {"step": 2, "note": 51, "vel": 115, "len": 1}, {"step": 4, "note": 51, "vel": 115, "len": 1}, {"step": 6, "note": 51, "vel": 115, "len": 1}]}, {"bar": 21, "events": [{"step": 0, "note": 51, "vel": 115, "len": 1}, {"step": 2, "note": 51, "vel": 115, "len": 1}, {"step": 4, "note": 51, "vel": 115, "len": 1}, {"step": 6, "note": 51, "vel": 115, "len": 1}]}, {"bar": 22, "events": [{"step": 0, "note": 51, "vel": 115, "len": 1}, {"step": 2, "note": 51, "vel": 115, "len": 1}, {"step": 4, "note": 51, "vel": 115, "len": 1}, {"step": 6, "note": 51, "vel": 115, "len": 1}]}, {"bar": 23, "events": [{"step": 0, "note": 51, "vel": 115, "len": 1}, {"step": 2, "note": 51, "vel": 115, "len": 1}, {"step": 4, "note": 51, "vel": 115, "len": 1}, {"step": 6, "note": 51, "vel": 115, "len": 1}]}]}