{"meta": {"style": "Rock", "mood": "Energetic", "tempo": 140, "key": "E", "scale": "Minor", "meter": "4/4", "bars": 32, "length_seconds": 55, "dynamic_profile": "Energetic", "arrangement_density": "Sparse", "harmonic_color": "Gritty", "instruments": ["Electric Guitar", "Bass Guitar"], "instrument_configs": [{"name": "Electric Guitar", "register": "Mid", "role": "Lead", "articulation": "Driven", "dynamic_range": "Intense"}, {"name": "Bass Guitar", "register": "Low", "role": "Bass", "articulation": "Sustain", "dynamic_range": "Intense"}], "seed": null, "instrument": "snare"}, "layers": {"snare": [{"bar": 1, "events": [{"step": 2, "note": 38, "vel": 127, "len": 1}, {"step": 6, "note": 38, "vel": 127, "len": 1}]}, {"bar": 2, "events": [{"step": 2, "note": 38, "vel": 127, "len": 1}, {"step": 6, "note": 38, "vel": 127, "len": 1}]}, {"bar": 3, "events": [{"step": 2, "note": 38, "vel": 127, "len": 1}, {"step": 6, "note": 38, "vel": 127, "len": 1}]}, {"bar": 4, "events": [{"step": 2, "note": 38, "vel": 127, "len": 1}, {"step": 6, "note": 38, "vel": 120, "len": 1}, {"step": 7, "note": 38, "vel": 120, "len": 1}]}, {"bar": 5, "events": [{"step": 2, "note": 38, "vel": 127, "len": 1}, {"step": 6, "note": 38, "vel": 127, "len": 1}]}, {"bar": 6, "events": [{"step": 2, "note": 38, "vel": 127, "len": 1}, {"step": 6, "note": 38, "vel": 127, "len": 1}]}, {"bar": 7, "events": [{"step": 2, "note": 38, "vel": 127, "len": 1}, {"step": 6, "note": 38, "vel": 127, "len": 1}]}, {"bar": 8, "events": [{"step": 2, "note": 38, "vel": 127, "len": 1}, {"step": 5, "note": 38, "vel": 115, "len": 1}, {"step": 6, "note": 38, "vel": 127, "len": 1}, {"step": 7, "note": 38, "vel": 115, "len": 1}]}, {"bar": 9, "events": [{"step": 2, "note": 38, "vel": 127, "len": 1}, {"step": 6, "note": 38, "vel": 127, "len": 1}]}, {"bar": 10, "events": [{"step": 2, "note": 38, "vel": 127, "len": 1}, {"step": 6, "note": 38, "vel": 127, "len": 1}]}, {"bar": 11, "events": [{"step": 2, "note": 38, "vel": 127, "len": 1}, {"step": 6, "note": 38, "vel": 127, "len": 1}]}, {"bar": 12, "events": [{"step": 2, "note": 38, "vel": 127, "len": 1}, {"step": 6, "note": 38, "vel": 120, "len": 1}, {"step": 7, "note": 38, "vel": 120, "len": 1}]}, {"bar": 13, "events": [{"step": 2, "note": 38, "vel": 127, "len": 1}, {"step": 6, "note": 38, "vel": 127, "len": 1}]}, {"bar": 14, "events": [{"step": 2, "note": 38, "vel": 127, "len": 1}, {"step": 6, "note": 38, "vel": 127, "len": 1}]}, {"bar": 15, "events": [{"step": 2, "note": 38, "vel": 127, "len": 1}, {"step": 6, "note": 38, "vel": 127, "len": 1}]}, {"bar": 16, "events": [{"step": 2, "note": 38, "vel": 127, "len": 1}, {"step": 5, "note": 38, "vel": 115, "len": 1}, {"step": 6, "note": 38, "vel": 127, "len": 1}, {"step": 7, "note": 38, "vel": 115, "len": 1}]}, {"bar": 17, "events": [{"step": 2, "note": 38, "vel": 127, "len": 1}, {"step": 6, "note": 38, "vel": 127, "len": 1}]}, {"bar": 18, "events": [{"step": 2, "note": 38, "vel": 127, "len": 1}, {"step": 6, "note": 38, "vel": 127, "len": 1}]}, {"bar": 19, "events": [{"step": 2, "note": 38, "vel": 127, "len": 1}, {"step": 6, "note": 38, "vel": 127, "len": 1}]}, {"bar": 20, "events": [{"step": 2, "note": 38, "vel": 127, "len": 1}, {"step": 6, "note": 38, "vel": 120, "len": 1}, {"step": 7, "note": 38, "vel": 120, "len": 1}]}, {"bar": 21, "events": [{"step": 2, "note": 38, "vel": 127, "len": 1}, {"step": 6, "note": 38, "vel": 127, "len": 1}]}, {"bar": 22, "events": [{"step": 2, "note": 38, "vel": 127, "len": 1}, {"step": 6, "note": 38, "vel": 127, "len": 1}]}, {"bar": 23, "events": [{"step": 2, "note": 38, "vel": 127, "len": 1}, {"step": 6, "note": 38, "vel": 127, "len": 1}]}, {"bar": 24, "events": [{"step": 2, "note": 38, "vel": 127, "len": 1}, {"step": 5, "note": 38, "vel": 115, "len": 1}, {"step": 6, "note": 38, "vel": 127, "len": 1}, {"step": 7, "note": 38, "vel": 115, "len": 1}]}, {"bar": 25, "events": [{"step": 2, "note": 38, "vel": 127, "len": 1}, {"step": 6, "note": 38, "vel": 127, "len": 1}]}, {"bar": 26, "events": [{"step": 2, "note": 38, "vel": 127, "len": 1}, {"step": 6, "note": 38, "vel": 127, "len": 1}]}, {"bar": 27, "events": [{"step": 2, "note": 38, "vel": 127, "len": 1}, {"step": 6, "note": 38, "vel": 127, "len": 1}]}, {"bar": 28, "events": [{"step": 3, "note": 38, "vel": 110, "len": 1}, {"step": 5, "note": 38, "vel": 115, "len": 1}, {"step": 6, "note": 38, "vel": 127, "len": 1}, {"step": 7, "note": 38, "vel": 127, "len": 1}]}, {"bar": 29, "events": [{"step": 2, "note": 38, "vel": 127, "len": 1}, {"step": 6, "note": 38, "vel": 127, "len": 1}]}, {"bar": 30, "events": [{"step": 2, "note": 38, "vel": 127, "len": 1}, {"step": 6, "note": 38, "vel": 127, "len": 1}]}, {"bar": 31, "events": [{"step": 2, "note": 38, "vel": 127, "len": 1}, {"step": 6, "note": 38, "vel": 127, "len": 1}]}, {"bar": 32, "events": [{"step": 4, "note": 38, "vel": 110, "len": 1}, {"step": 5, "note": 38, "vel": 115, "len": 1}, {"step": 6, "note": 38, "vel": 120, "len": 1}, {"step": 7, "note": 38, "vel": 127, "len": 1}]}]}, "pattern": [{"bar": 1, "events": [{"step": 2, "note": 38, "vel": 127, "len": 1}, {"step": 6, "note": 38, "vel": 127, "len": 1}]}, {"bar": 2, "events": [{"step": 2, "note": 38, "vel": 127, "len": 1}, {"step": 6, "note": 38, "vel": 127, "len": 1}]}, {"bar": 3, "events": [{"step": 2, "note": 38, "vel": 127, "len": 1}, {"step": 6, "note": 38, "vel": 127, "len": 1}]}, {"bar": 4, "events": [{"step": 2, "note": 38, "vel": 127, "len": 1}, {"step": 6, "note": 38, "vel": 120, "len": 1}, {"step": 7, "note": 38, "vel": 120, "len": 1}]}, {"bar": 5, "events": [{"step": 2, "note": 38, "vel": 127, "len": 1}, {"step": 6, "note": 38, "vel": 127, "len": 1}]}, {"bar": 6, "events": [{"step": 2, "note": 38, "vel": 127, "len": 1}, {"step": 6, "note": 38, "vel": 127, "len": 1}]}, {"bar": 7, "events": [{"step": 2, "note": 38, "vel": 127, "len": 1}, {"step": 6, "note": 38, "vel": 127, "len": 1}]}, {"bar": 8, "events": [{"step": 2, "note": 38, "vel": 127, "len": 1}, {"step": 5, "note": 38, "vel": 115, "len": 1}, {"step": 6, "note": 38, "vel": 127, "len": 1}, {"step": 7, "note": 38, "vel": 115, "len": 1}]}, {"bar": 9, "events": [{"step": 2, "note": 38, "vel": 127, "len": 1}, {"step": 6, "note": 38, "vel": 127, "len": 1}]}, {"bar": 10, "events": [{"step": 2, "note": 38, "vel": 127, "len": 1}, {"step": 6, "note": 38, "vel": 127, "len": 1}]}, {"bar": 11, "events": [{"step": 2, "note": 38, "vel": 127, "len": 1}, {"step": 6, "note": 38, "vel": 127, "len": 1}]}, {"bar": 12, "events": [{"step": 2, "note": 38, "vel": 127, "len": 1}, {"step": 6, "note": 38, "vel": 120, "len": 1}, {"step": 7, "note": 38, "vel": 120, "len": 1}]}, {"bar": 13, "events": [{"step": 2, "note": 38, "vel": 127, "len": 1}, {"step": 6, "note": 38, "vel": 127, "len": 1}]}, {"bar": 14, "events": [{"step": 2, "note": 38, "vel": 127, "len": 1}, {"step": 6, "note": 38, "vel": 127, "len": 1}]}, {"bar": 15, "events": [{"step": 2, "note": 38, "vel": 127, "len": 1}, {"step": 6, "note": 38, "vel": 127, "len": 1}]}, {"bar": 16, "events": [{"step": 2, "note": 38, "vel": 127, "len": 1}, {"step": 5, "note": 38, "vel": 115, "len": 1}, {"step": 6, "note": 38, "vel": 127, "len": 1}, {"step": 7, "note": 38, "vel": 115, "len": 1}]}, {"bar": 17, "events": [{"step": 2, "note": 38, "vel": 127, "len": 1}, {"step": 6, "note": 38, "vel": 127, "len": 1}]}, {"bar": 18, "events": [{"step": 2, "note": 38, "vel": 127, "len": 1}, {"step": 6, "note": 38, "vel": 127, "len": 1}]}, {"bar": 19, "events": [{"step": 2, "note": 38, "vel": 127, "len": 1}, {"step": 6, "note": 38, "vel": 127, "len": 1}]}, {"bar": 20, "events": [{"step": 2, "note": 38, "vel": 127, "len": 1}, {"step": 6, "note": 38, "vel": 120, "len": 1}, {"step": 7, "note": 38, "vel": 120, "len": 1}]}, {"bar": 21, "events": [{"step": 2, "note": 38, "vel": 127, "len": 1}, {"step": 6, "note": 38, "vel": 127, "len": 1}]}, {"bar": 22, "events": [{"step": 2, "note": 38, "vel": 127, "len": 1}, {"step": 6, "note": 38, "vel": 127, "len": 1}]}, {"bar": 23, "events": [{"step": 2, "note": 38, "vel": 127, "len": 1}, {"step": 6, "note": 38, "vel": 127, "len": 1}]}, {"bar": 24, "events": [{"step": 2, "note": 38, "vel": 127, "len": 1}, {"step": 5, "note": 38, "vel": 115, "len": 1}, {"step": 6, "note": 38, "vel": 127, "len": 1}, {"step": 7, "note": 38, "vel": 115, "len": 1}]}, {"bar": 25, "events": [{"step": 2, "note": 38, "vel": 127, "len": 1}, {"step": 6, "note": 38, "vel": 127, "len": 1}]}, {"bar": 26, "events": [{"step": 2, "note": 38, "vel": 127, "len": 1}, {"step": 6, "note": 38, "vel": 127, "len": 1}]}, {"bar": 27, "events": [{"step": 2, "note": 38, "vel": 127, "len": 1}, {"step": 6, "note": 38, "vel": 127, "len": 1}]}, {"bar": 28, "events": [{"step": 3, "note": 38, "vel": 110, "len": 1}, {"step": 5, "note": 38, "vel": 115, "len": 1}, {"step": 6, "note": 38, "vel": 127, "len": 1}, {"step": 7, "note": 38, "vel": 127, "len": 1}]}, {"bar": 29, "events": [{"step": 2, "note": 38, "vel": 127, "len": 1}, {"step": 6, "note": 38, "vel": 127, "len": 1}]}, {"bar": 30, "events": [{"step": 2, "note": 38, "vel": 127, "len": 1}, {"step": 6, "note": 38, "vel": 127, "len": 1}]}, {"bar": 31, "events": [{"step": 2, "note": 38, "vel": 127, "len": 1}, {"step": 6, "note": 38, "vel": 127, "len": 1}]}, {"bar": 32, "events": [{"step": 4, "note": 38, "vel": 110, "len": 1}, {"step": 5, "note": 38, "vel": 115, "len": 1}, {"step": 6, "note": 38, "vel": 120, "len": 1}, {"step": 7, "note": 38, "vel": 127, "len": 1}]}]}