{"request": {"project_name": "vivid rock 2", "run_id": "d82cd2c0f6d1", "user_id": 2, "midi": {"pattern": [{"bar": 1, "events": [{"step": 0, "note": 36, "vel": 120, "len": 1}, {"step": 2, "note": 38, "vel": 120, "len": 1}, {"step": 4, "note": 36, "vel": 110, "len": 1}, {"step": 6, "note": 38, "vel": 120, "len": 1}]}, {"bar": 2, "events": [{"step": 0, "note": 36, "vel": 120, "len": 1}, {"step": 2, "note": 38, "vel": 120, "len": 1}, {"step": 4, "note": 36, "vel": 110, "len": 1}, {"step": 5, "note": 36, "vel": 100, "len": 1}, {"step": 6, "note": 38, "vel": 120, "len": 1}]}, {"bar": 3, "events": [{"step": 0, "note": 36, "vel": 120, "len": 1}, {"step": 2, "note": 38, "vel": 120, "len": 1}, {"step": 4, "note": 36, "vel": 110, "len": 1}, {"step": 6, "note": 38, "vel": 120, "len": 1}]}, {"bar": 4, "events": [{"step": 0, "note": 36, "vel": 120, "len": 1}, {"step": 2, "note": 38, "vel": 120, "len": 1}, {"step": 4, "note": 38, "vel": 125, "len": 1}, {"step": 5, "note": 38, "vel": 125, "len": 1}, {"step": 6, "note": 49, "vel": 127, "len": 2}]}, {"bar": 5, "events": [{"step": 0, "note": 36, "vel": 120, "len": 1}, {"step": 2, "note": 38, "vel": 120, "len": 1}, {"step": 4, "note": 36, "vel": 110, "len": 1}, {"step": 6, "note": 38, "vel": 120, "len": 1}]}, {"bar": 6, "events": [{"step": 0, "note": 36, "vel": 120, "len": 1}, {"step": 2, "note": 38, "vel": 120, "len": 1}, {"step": 4, "note": 36, "vel": 110, "len": 1}, {"step": 6, "note": 38, "vel": 120, "len": 1}]}, {"bar": 7, "events": [{"step": 0, "note": 36, "vel": 120, "len": 1}, {"step": 2, "note": 38, "vel": 120, "len": 1}, {"step": 4, "note": 36, "vel": 110, "len": 1}, {"step": 6, "note": 38, "vel": 120, "len": 1}]}, {"bar": 8, "events": [{"step": 0, "note": 36, "vel": 120, "len": 1}, {"step": 1, "note": 36, "vel": 110, "len": 1}, {"step": 2, "note": 38, "vel": 127, "len": 1}, {"step": 4, "note": 49, "vel": 127, "len": 1}, {"step": 6, "note": 38, "vel": 127, "len": 1}]}], "layers": {"Electric Guitar": [{"bar": 1, "events": [{"step": 0, "note": 40, "vel": 115, "len": 4}, {"step": 4, "note": 40, "vel": 110, "len": 4}]}, {"bar": 2, "events": [{"step": 0, "note": 43, "vel": 115, "len": 4}, {"step": 4, "note": 43, "vel": 110, "len": 4}]}, {"bar": 3, "events": [{"step": 0, "note": 45, "vel": 115, "len": 4}, {"step": 4, "note": 45, "vel": 110, "len": 4}]}, {"bar": 4, "events": [{"step": 0, "note": 47, "vel": 115, "len": 4}, {"step": 4, "note": 47, "vel": 110, "len": 4}]}, {"bar": 5, "events": [{"step": 0, "note": 40, "vel": 120, "len": 2}, {"step": 2, "note": 40, "vel": 110, "len": 2}, {"step": 4, "note": 40, "vel": 120, "len": 2}, {"step": 6, "note": 40, "vel": 110, "len": 2}]}, {"bar": 6, "events": [{"step": 0, "note": 43, "vel": 120, "len": 2}, {"step": 2, "note": 43, "vel": 110, "len": 2}, {"step": 4, "note": 43, "vel": 120, "len": 2}, {"step": 6, "note": 43, "vel": 110, "len": 2}]}, {"bar": 7, "events": [{"step": 0, "note": 45, "vel": 120, "len": 2}, {"step": 2, "note": 45, "vel": 110, "len": 2}, {"step": 4, "note": 45, "vel": 120, "len": 2}, {"step": 6, "note": 45, "vel": 110, "len": 2}]}, {"bar": 8, "events": [{"step": 0, "note": 47, "vel": 127, "len": 2}, {"step": 2, "note": 47, "vel": 127, "len": 2}, {"step": 4, "note": 47, "vel": 127, "len": 2}, {"step": 6, "note": 47, "vel": 127, "len": 2}]}], "Bass Guitar": [{"bar": 1, "events": [{"step": 0, "note": 28, "vel": 115, "len": 2}, {"step": 2, "note": 28, "vel": 110, "len": 2}, {"step": 4, "note": 28, "vel": 115, "len": 2}, {"step": 6, "note": 28, "vel": 110, "len": 2}]}, {"bar": 2, "events": [{"step": 0, "note": 31, "vel": 115, "len": 2}, {"step": 2, "note": 31, "vel": 110, "len": 2}, {"step": 4, "note": 31, "vel": 115, "len": 2}, {"step": 6, "note": 31, "vel": 110, "len": 2}]}, {"bar": 3, "events": [{"step": 0, "note": 33, "vel": 115, "len": 2}, {"step": 2, "note": 33, "vel": 110, "len": 2}, {"step": 4, "note": 33, "vel": 115, "len": 2}, {"step": 6, "note": 33, "vel": 110, "len": 2}]}, {"bar": 4, "events": [{"step": 0, "note": 35, "vel": 115, "len": 2}, {"step": 2, "note": 35, "vel": 110, "len": 2}, {"step": 4, "note": 35, "vel": 115, "len": 2}, {"step": 6, "note": 35, "vel": 110, "len": 2}]}, {"bar": 5, "events": [{"step": 0, "note": 28, "vel": 120, "len": 1}, {"step": 1, "note": 28, "vel": 100, "len": 1}, {"step": 2, "note": 28, "vel": 110, "len": 1}, {"step": 3, "note": 28, "vel": 100, "len": 1}, {"step": 4, "note": 28, "vel": 120, "len": 1}, {"step": 5, "note": 28, "vel": 100, "len": 1}, {"step": 6, "note": 28, "vel": 110, "len": 1}, {"step": 7, "note": 28, "vel": 100, "len": 1}]}, {"bar": 6, "events": [{"step": 0, "note": 31, "vel": 120, "len": 1}, {"step": 1, "note": 31, "vel": 100, "len": 1}, {"step": 2, "note": 31, "vel": 110, "len": 1}, {"step": 3, "note": 31, "vel": 100, "len": 1}, {"step": 4, "note": 31, "vel": 120, "len": 1}, {"step": 5, "note": 31, "vel": 100, "len": 1}, {"step": 6, "note": 31, "vel": 110, "len": 1}, {"step": 7, "note": 31, "vel": 100, "len": 1}]}, {"bar": 7, "events": [{"step": 0, "note": 33, "vel": 120, "len": 1}, {"step": 1, "note": 33, "vel": 100, "len": 1}, {"step": 2, "note": 33, "vel": 110, "len": 1}, {"step": 3, "note": 33, "vel": 100, "len": 1}, {"step": 4, "note": 33, "vel": 120, "len": 1}, {"step": 5, "note": 33, "vel": 100, "len": 1}, {"step": 6, "note": 33, "vel": 110, "len": 1}, {"step": 7, "note": 33, "vel": 100, "len": 1}]}, {"bar": 8, "events": [{"step": 0, "note": 35, "vel": 127, "len": 1}, {"step": 2, "note": 35, "vel": 127, "len": 1}, {"step": 4, "note": 35, "vel": 127, "len": 1}, {"step": 6, "note": 35, "vel": 127, "len": 1}]}], "Kick": [{"bar": 1, "events": [{"step": 0, "note": 36, "vel": 127, "len": 1}, {"step": 4, "note": 36, "vel": 120, "len": 1}]}, {"bar": 2, "events": [{"step": 0, "note": 36, "vel": 127, "len": 1}, {"step": 4, "note": 36, "vel": 120, "len": 1}, {"step": 5, "note": 36, "vel": 110, "len": 1}]}, {"bar": 3, "events": [{"step": 0, "note": 36, "vel": 127, "len": 1}, {"step": 4, "note": 36, "vel": 120, "len": 1}]}, {"bar": 4, "events": [{"step": 0, "note": 36, "vel": 127, "len": 1}, {"step": 2, "note": 36, "vel": 110, "len": 1}, {"step": 4, "note": 36, "vel": 120, "len": 1}]}, {"bar": 5, "events": [{"step": 0, "note": 36, "vel": 127, "len": 1}, {"step": 3, "note": 36, "vel": 115, "len": 1}, {"step": 4, "note": 36, "vel": 120, "len": 1}]}, {"bar": 6, "events": [{"step": 0, "note": 36, "vel": 127, "len": 1}, {"step": 3, "note": 36, "vel": 115, "len": 1}, {"step": 4, "note": 36, "vel": 120, "len": 1}]}, {"bar": 7, "events": [{"step": 0, "note": 36, "vel": 127, "len": 1}, {"step": 3, "note": 36, "vel": 115, "len": 1}, {"step": 4, "note": 36, "vel": 120, "len": 1}]}, {"bar": 8, "events": [{"step": 0, "note": 36, "vel": 127, "len": 1}, {"step": 1, "note": 36, "vel": 120, "len": 1}, {"step": 4, "note": 36, "vel": 127, "len": 1}]}], "Snare": [{"bar": 1, "events": [{"step": 2, "note": 38, "vel": 120, "len": 1}, {"step": 6, "note": 38, "vel": 120, "len": 1}]}, {"bar": 2, "events": [{"step": 2, "note": 38, "vel": 120, "len": 1}, {"step": 6, "note": 38, "vel": 120, "len": 1}]}, {"bar": 3, "events": [{"step": 2, "note": 38, "vel": 120, "len": 1}, {"step": 6, "note": 38, "vel": 120, "len": 1}]}, {"bar": 4, "events": [{"step": 2, "note": 38, "vel": 120, "len": 1}, {"step": 4, "note": 38, "vel": 125, "len": 1}, {"step": 5, "note": 38, "vel": 125, "len": 1}, {"step": 6, "note": 38, "vel": 125, "len": 1}]}, {"bar": 5, "events": [{"step": 2, "note": 38, "vel": 127, "len": 1}, {"step": 6, "note": 38, "vel": 127, "len": 1}]}, {"bar": 6, "events": [{"step": 2, "note": 38, "vel": 127, "len": 1}, {"step": 6, "note": 38, "vel": 127, "len": 1}]}, {"bar": 7, "events": [{"step": 2, "note": 38, "vel": 127, "len": 1}, {"step": 6, "note": 38, "vel": 127, "len": 1}]}, {"bar": 8, "events": [{"step": 2, "note": 38, "vel": 127, "len": 1}, {"step": 6, "note": 38, "vel": 127, "len": 1}]}], "Hat": [{"bar": 1, "events": [{"step": 0, "note": 42, "vel": 90, "len": 1}, {"step": 1, "note": 42, "vel": 70, "len": 1}, {"step": 2, "note": 42, "vel": 90, "len": 1}, {"step": 3, "note": 42, "vel": 70, "len": 1}, {"step": 4, "note": 42, "vel": 90, "len": 1}, {"step": 5, "note": 42, "vel": 70, "len": 1}, {"step": 6, "note": 42, "vel": 90, "len": 1}, {"step": 7, "note": 42, "vel": 70, "len": 1}]}, {"bar": 5, "events": [{"step": 0, "note": 42, "vel": 100, "len": 1}, {"step": 1, "note": 42, "vel": 80, "len": 1}, {"step": 2, "note": 42, "vel": 100, "len": 1}, {"step": 3, "note": 42, "vel": 80, "len": 1}, {"step": 4, "note": 42, "vel": 100, "len": 1}, {"step": 5, "note": 42, "vel": 80, "len": 1}, {"step": 6, "note": 42, "vel": 100, "len": 1}, {"step": 7, "note": 42, "vel": 80, "len": 1}]}], "Crash": [{"bar": 1, "events": [{"step": 0, "note": 49, "vel": 127, "len": 2}]}, {"bar": 5, "events": [{"step": 0, "note": 49, "vel": 127, "len": 2}]}, {"bar": 8, "events": [{"step": 4, "note": 49, "vel": 127, "len": 2}]}]}, "meta": {"style": "Rock", "mood": "Energetic", "tempo": 140, "key": "E Minor", "meter": "4/4", "bars": 8, "length_seconds": 13.7, "dynamic_profile": "High-contrast", "instrument_configs": [{"name": "Electric Guitar", "register": "Mid", "role": "Lead"}, {"name": "Bass Guitar", "register": "Low", "role": "Bass"}, {"name": "Kick", "register": "Low", "role": "Percussion"}, {"name": "Snare", "register": "Mid", "role": "Percussion"}, {"name": "Hat", "register": "High", "role": "Percussion"}, {"name": "Crash", "register": "High", "role": "Percussion"}], "scale": "Minor", "arrangement_density": "Dense", "harmonic_color": "Saturated", "instruments": ["Electric Guitar", "Bass Guitar", "Kick", "Snare", "Hat", "Crash"]}}, "midi_per_instrument": null, "tracks": [{"instrument": "Electric Guitar", "enabled": true, "volume_db": 0.0, "pan": 0.0}, {"instrument": "Bass Guitar", "enabled": true, "volume_db": -3.0, "pan": 0.0}, {"instrument": "Kick", "enabled": true, "volume_db": -3.0, "pan": 0.0}, {"instrument": "Snare", "enabled": true, "volume_db": -3.0, "pan": 0.0}, {"instrument": "Hat", "enabled": true, "volume_db": -3.0, "pan": 0.0}, {"instrument": "Crash", "enabled": true, "volume_db": -3.0, "pan": 0.0}], "selected_samples": {"Crash": "Drums/Kits/Drum Kit 03/OverH_Crash_003cogg.wav", "Hat": "Drums/RealDrumkits/RD_Hat_1.wav", "Snare": "Drums/Kits/Drum Kit 07/FLS_Snare 07a.wav", "Kick": "Drums/Kits/Drum Kit 01/FLS_Kick 01.wav", "Bass Guitar": "Instruments/Guitar/Bass/FLStudio Bass 02/09 DEEPER PURPLE_PLUCK G1ogg.wav", "Electric Guitar": "Instruments/Guitar/Guitar/Electric Guitar 01/20 DARK STAR METAL_C4OGG.wav"}, "fadeout_seconds": 0.01}, "response": {"project_name": "rocky handicap", "run_id": "d82cd2c0f6d1", "mix_wav_rel": "output\\d82cd2c0f6d1\\vivid rock 2_mix_1764973984.wav", "stems": [{"instrument": "Electric Guitar", "audio_rel": "output\\d82cd2c0f6d1\\vivid rock 2_Electric Guitar_1764973984.wav"}, {"instrument": "Bass Guitar", "audio_rel": "output\\d82cd2c0f6d1\\vivid rock 2_Bass Guitar_1764973984.wav"}, {"instrument": "Kick", "audio_rel": "output\\d82cd2c0f6d1\\vivid rock 2_Kick_1764973984.wav"}, {"instrument": "Snare", "audio_rel": "output\\d82cd2c0f6d1\\vivid rock 2_Snare_1764973984.wav"}, {"instrument": "Hat", "audio_rel": "output\\d82cd2c0f6d1\\vivid rock 2_Hat_1764973984.wav"}, {"instrument": "Crash", "audio_rel": "output\\d82cd2c0f6d1\\vivid rock 2_Crash_1764973984.wav"}], "sample_rate": 44100, "duration_seconds": 13.7}}