{"Piano": {"meta": {"status": "success", "tempo": 85, "key": "C Minor", "scale": "Natural Minor", "style": "Lo-Fi Hip Hop", "mood": "Relaxed", "meter": "4/4", "dynamic_profile": "Soft", "arrangement_density": "Sparse", "harmonic_color": "Mellow", "length_seconds": 180.0, "bars": 32, "instrument_configs": [{"name": "Piano", "register": "Mid", "role": "Harmony", "articulation": "Legato", "dynamic_range": "Delicate"}], "instruments": ["Piano"], "instrument": "Piano"}, "layers": {"Piano": [{"bar": 0, "events": [{"step": 0, "note": 60, "vel": 55, "len": 2}, {"step": 2, "note": 63, "vel": 50, "len": 2}, {"step": 4, "note": 67, "vel": 45, "len": 2}, {"step": 6, "note": 70, "vel": 40, "len": 2}]}, {"bar": 1, "events": [{"step": 0, "note": 58, "vel": 52, "len": 2}, {"step": 2, "note": 62, "vel": 48, "len": 2}, {"step": 4, "note": 65, "vel": 42, "len": 2}, {"step": 6, "note": 69, "vel": 38, "len": 2}]}, {"bar": 2, "events": [{"step": 0, "note": 57, "vel": 50, "len": 2}, {"step": 2, "note": 60, "vel": 45, "len": 2}, {"step": 4, "note": 64, "vel": 40, "len": 2}, {"step": 6, "note": 67, "vel": 35, "len": 2}]}, {"bar": 3, "events": [{"step": 0, "note": 55, "vel": 48, "len": 2}, {"step": 2, "note": 58, "vel": 42, "len": 2}, {"step": 4, "note": 62, "vel": 38, "len": 2}, {"step": 6, "note": 65, "vel": 33, "len": 2}]}]}, "pattern": [{"bar": 0, "events": [{"step": 0, "note": 60, "vel": 55, "len": 2}, {"step": 2, "note": 63, "vel": 50, "len": 2}, {"step": 4, "note": 67, "vel": 45, "len": 2}, {"step": 6, "note": 70, "vel": 40, "len": 2}]}, {"bar": 1, "events": [{"step": 0, "note": 58, "vel": 52, "len": 2}, {"step": 2, "note": 62, "vel": 48, "len": 2}, {"step": 4, "note": 65, "vel": 42, "len": 2}, {"step": 6, "note": 69, "vel": 38, "len": 2}]}, {"bar": 2, "events": [{"step": 0, "note": 57, "vel": 50, "len": 2}, {"step": 2, "note": 60, "vel": 45, "len": 2}, {"step": 4, "note": 64, "vel": 40, "len": 2}, {"step": 6, "note": 67, "vel": 35, "len": 2}]}, {"bar": 3, "events": [{"step": 0, "note": 55, "vel": 48, "len": 2}, {"step": 2, "note": 58, "vel": 42, "len": 2}, {"step": 4, "note": 62, "vel": 38, "len": 2}, {"step": 6, "note": 65, "vel": 33, "len": 2}]}]}}