{"request": {"project_name": "jhfj", "run_id": "7c9bd048-1fd3-4a33-93f6-dedc510b8539", "midi": {"pattern": [{"bar": 1, "events": [{"step": 0, "note": 36, "vel": 80, "len": 1}, {"step": 2, "note": 42, "vel": 60, "len": 1}, {"step": 4, "note": 36, "vel": 80, "len": 1}, {"step": 6, "note": 42, "vel": 60, "len": 1}]}, {"bar": 2, "events": [{"step": 0, "note": 36, "vel": 80, "len": 1}, {"step": 2, "note": 42, "vel": 60, "len": 1}, {"step": 4, "note": 38, "vel": 100, "len": 1}, {"step": 6, "note": 42, "vel": 60, "len": 1}]}, {"bar": 3, "events": [{"step": 0, "note": 36, "vel": 80, "len": 1}, {"step": 2, "note": 42, "vel": 60, "len": 1}, {"step": 4, "note": 36, "vel": 80, "len": 1}, {"step": 6, "note": 42, "vel": 60, "len": 1}]}, {"bar": 4, "events": [{"step": 0, "note": 36, "vel": 80, "len": 1}, {"step": 2, "note": 42, "vel": 60, "len": 1}, {"step": 4, "note": 38, "vel": 100, "len": 1}, {"step": 6, "note": 42, "vel": 60, "len": 1}]}, {"bar": 5, "events": [{"step": 0, "note": 36, "vel": 80, "len": 1}, {"step": 2, "note": 42, "vel": 60, "len": 1}, {"step": 4, "note": 36, "vel": 80, "len": 1}, {"step": 6, "note": 42, "vel": 60, "len": 1}]}, {"bar": 6, "events": [{"step": 0, "note": 36, "vel": 80, "len": 1}, {"step": 2, "note": 42, "vel": 60, "len": 1}, {"step": 4, "note": 38, "vel": 100, "len": 1}, {"step": 6, "note": 42, "vel": 60, "len": 1}]}, {"bar": 7, "events": [{"step": 0, "note": 36, "vel": 80, "len": 1}, {"step": 2, "note": 42, "vel": 60, "len": 1}, {"step": 4, "note": 36, "vel": 80, "len": 1}, {"step": 6, "note": 42, "vel": 60, "len": 1}]}, {"bar": 8, "events": [{"step": 0, "note": 36, "vel": 80, "len": 1}, {"step": 2, "note": 42, "vel": 60, "len": 1}, {"step": 4, "note": 38, "vel": 100, "len": 1}, {"step": 6, "note": 42, "vel": 60, "len": 1}]}, {"bar": 9, "events": [{"step": 0, "note": 36, "vel": 80, "len": 1}, {"step": 2, "note": 42, "vel": 60, "len": 1}, {"step": 4, "note": 36, "vel": 80, "len": 1}, {"step": 6, "note": 42, "vel": 60, "len": 1}]}, {"bar": 10, "events": [{"step": 0, "note": 36, "vel": 80, "len": 1}, {"step": 2, "note": 42, "vel": 60, "len": 1}, {"step": 4, "note": 38, "vel": 100, "len": 1}, {"step": 6, "note": 42, "vel": 60, "len": 1}]}, {"bar": 11, "events": [{"step": 0, "note": 36, "vel": 80, "len": 1}, {"step": 2, "note": 42, "vel": 60, "len": 1}, {"step": 4, "note": 36, "vel": 80, "len": 1}, {"step": 6, "note": 42, "vel": 60, "len": 1}]}, {"bar": 12, "events": [{"step": 0, "note": 36, "vel": 80, "len": 1}, {"step": 2, "note": 42, "vel": 60, "len": 1}, {"step": 4, "note": 38, "vel": 100, "len": 1}, {"step": 6, "note": 42, "vel": 60, "len": 1}]}, {"bar": 13, "events": [{"step": 0, "note": 36, "vel": 80, "len": 1}, {"step": 2, "note": 42, "vel": 60, "len": 1}, {"step": 4, "note": 36, "vel": 80, "len": 1}, {"step": 6, "note": 42, "vel": 60, "len": 1}]}, {"bar": 14, "events": [{"step": 0, "note": 36, "vel": 80, "len": 1}, {"step": 2, "note": 42, "vel": 60, "len": 1}, {"step": 4, "note": 38, "vel": 100, "len": 1}, {"step": 6, "note": 42, "vel": 60, "len": 1}]}, {"bar": 15, "events": [{"step": 0, "note": 36, "vel": 80, "len": 1}, {"step": 2, "note": 42, "vel": 60, "len": 1}, {"step": 4, "note": 36, "vel": 80, "len": 1}, {"step": 6, "note": 42, "vel": 60, "len": 1}]}, {"bar": 16, "events": [{"step": 0, "note": 36, "vel": 80, "len": 1}, {"step": 2, "note": 42, "vel": 60, "len": 1}, {"step": 4, "note": 38, "vel": 100, "len": 1}, {"step": 6, "note": 42, "vel": 60, "len": 1}]}], "layers": {"Piano": [{"bar": 1, "events": [{"step": 0, "note": 60, "vel": 40, "len": 2}, {"step": 2, "note": 64, "vel": 40, "len": 2}, {"step": 4, "note": 67, "vel": 40, "len": 2}, {"step": 6, "note": 72, "vel": 40, "len": 2}]}, {"bar": 2, "events": [{"step": 0, "note": 60, "vel": 40, "len": 2}, {"step": 2, "note": 64, "vel": 40, "len": 2}, {"step": 4, "note": 67, "vel": 40, "len": 2}, {"step": 6, "note": 72, "vel": 40, "len": 2}]}, {"bar": 3, "events": [{"step": 0, "note": 60, "vel": 40, "len": 2}, {"step": 2, "note": 64, "vel": 40, "len": 2}, {"step": 4, "note": 67, "vel": 40, "len": 2}, {"step": 6, "note": 72, "vel": 40, "len": 2}]}, {"bar": 4, "events": [{"step": 0, "note": 60, "vel": 40, "len": 2}, {"step": 2, "note": 64, "vel": 40, "len": 2}, {"step": 4, "note": 67, "vel": 40, "len": 2}, {"step": 6, "note": 72, "vel": 40, "len": 2}]}, {"bar": 5, "events": [{"step": 0, "note": 60, "vel": 40, "len": 2}, {"step": 2, "note": 64, "vel": 40, "len": 2}, {"step": 4, "note": 67, "vel": 40, "len": 2}, {"step": 6, "note": 72, "vel": 40, "len": 2}]}, {"bar": 6, "events": [{"step": 0, "note": 60, "vel": 40, "len": 2}, {"step": 2, "note": 64, "vel": 40, "len": 2}, {"step": 4, "note": 67, "vel": 40, "len": 2}, {"step": 6, "note": 72, "vel": 40, "len": 2}]}, {"bar": 7, "events": [{"step": 0, "note": 60, "vel": 40, "len": 2}, {"step": 2, "note": 64, "vel": 40, "len": 2}, {"step": 4, "note": 67, "vel": 40, "len": 2}, {"step": 6, "note": 72, "vel": 40, "len": 2}]}, {"bar": 8, "events": [{"step": 0, "note": 60, "vel": 40, "len": 2}, {"step": 2, "note": 64, "vel": 40, "len": 2}, {"step": 4, "note": 67, "vel": 40, "len": 2}, {"step": 6, "note": 72, "vel": 40, "len": 2}]}, {"bar": 9, "events": [{"step": 0, "note": 60, "vel": 40, "len": 2}, {"step": 2, "note": 64, "vel": 40, "len": 2}, {"step": 4, "note": 67, "vel": 40, "len": 2}, {"step": 6, "note": 72, "vel": 40, "len": 2}]}, {"bar": 10, "events": [{"step": 0, "note": 60, "vel": 40, "len": 2}, {"step": 2, "note": 64, "vel": 40, "len": 2}, {"step": 4, "note": 67, "vel": 40, "len": 2}, {"step": 6, "note": 72, "vel": 40, "len": 2}]}, {"bar": 11, "events": [{"step": 0, "note": 60, "vel": 40, "len": 2}, {"step": 2, "note": 64, "vel": 40, "len": 2}, {"step": 4, "note": 67, "vel": 40, "len": 2}, {"step": 6, "note": 72, "vel": 40, "len": 2}]}, {"bar": 12, "events": [{"step": 0, "note": 60, "vel": 40, "len": 2}, {"step": 2, "note": 64, "vel": 40, "len": 2}, {"step": 4, "note": 67, "vel": 40, "len": 2}, {"step": 6, "note": 72, "vel": 40, "len": 2}]}, {"bar": 13, "events": [{"step": 0, "note": 60, "vel": 40, "len": 2}, {"step": 2, "note": 64, "vel": 40, "len": 2}, {"step": 4, "note": 67, "vel": 40, "len": 2}, {"step": 6, "note": 72, "vel": 40, "len": 2}]}, {"bar": 14, "events": [{"step": 0, "note": 60, "vel": 40, "len": 2}, {"step": 2, "note": 64, "vel": 40, "len": 2}, {"step": 4, "note": 67, "vel": 40, "len": 2}, {"step": 6, "note": 72, "vel": 40, "len": 2}]}, {"bar": 15, "events": [{"step": 0, "note": 60, "vel": 40, "len": 2}, {"step": 2, "note": 64, "vel": 40, "len": 2}, {"step": 4, "note": 67, "vel": 40, "len": 2}, {"step": 6, "note": 72, "vel": 40, "len": 2}]}, {"bar": 16, "events": [{"step": 0, "note": 60, "vel": 40, "len": 2}, {"step": 2, "note": 64, "vel": 40, "len": 2}, {"step": 4, "note": 67, "vel": 40, "len": 2}, {"step": 6, "note": 72, "vel": 40, "len": 2}]}], "Bass Guitar": [{"bar": 1, "events": [{"step": 0, "note": 48, "vel": 80, "len": 1}, {"step": 4, "note": 48, "vel": 80, "len": 1}]}, {"bar": 2, "events": [{"step": 0, "note": 48, "vel": 80, "len": 1}, {"step": 4, "note": 48, "vel": 80, "len": 1}]}, {"bar": 3, "events": [{"step": 0, "note": 48, "vel": 80, "len": 1}, {"step": 4, "note": 48, "vel": 80, "len": 1}]}, {"bar": 4, "events": [{"step": 0, "note": 48, "vel": 80, "len": 1}, {"step": 4, "note": 48, "vel": 80, "len": 1}]}, {"bar": 5, "events": [{"step": 0, "note": 48, "vel": 80, "len": 1}, {"step": 4, "note": 48, "vel": 80, "len": 1}]}, {"bar": 6, "events": [{"step": 0, "note": 48, "vel": 80, "len": 1}, {"step": 4, "note": 48, "vel": 80, "len": 1}]}, {"bar": 7, "events": [{"step": 0, "note": 48, "vel": 80, "len": 1}, {"step": 4, "note": 48, "vel": 80, "len": 1}]}, {"bar": 8, "events": [{"step": 0, "note": 48, "vel": 80, "len": 1}, {"step": 4, "note": 48, "vel": 80, "len": 1}]}, {"bar": 9, "events": [{"step": 0, "note": 48, "vel": 80, "len": 1}, {"step": 4, "note": 48, "vel": 80, "len": 1}]}, {"bar": 10, "events": [{"step": 0, "note": 48, "vel": 80, "len": 1}, {"step": 4, "note": 48, "vel": 80, "len": 1}]}, {"bar": 11, "events": [{"step": 0, "note": 48, "vel": 80, "len": 1}, {"step": 4, "note": 48, "vel": 80, "len": 1}]}, {"bar": 12, "events": [{"step": 0, "note": 48, "vel": 80, "len": 1}, {"step": 4, "note": 48, "vel": 80, "len": 1}]}, {"bar": 13, "events": [{"step": 0, "note": 48, "vel": 80, "len": 1}, {"step": 4, "note": 48, "vel": 80, "len": 1}]}, {"bar": 14, "events": [{"step": 0, "note": 48, "vel": 80, "len": 1}, {"step": 4, "note": 48, "vel": 80, "len": 1}]}, {"bar": 15, "events": [{"step": 0, "note": 48, "vel": 80, "len": 1}, {"step": 4, "note": 48, "vel": 80, "len": 1}]}, {"bar": 16, "events": [{"step": 0, "note": 48, "vel": 80, "len": 1}, {"step": 4, "note": 48, "vel": 80, "len": 1}]}], "Pads": [{"bar": 1, "events": [{"step": 0, "note": 72, "vel": 20, "len": 8}]}, {"bar": 2, "events": [{"step": 0, "note": 72, "vel": 20, "len": 8}]}, {"bar": 3, "events": [{"step": 0, "note": 72, "vel": 20, "len": 8}]}, {"bar": 4, "events": [{"step": 0, "note": 72, "vel": 20, "len": 8}]}, {"bar": 5, "events": [{"step": 0, "note": 72, "vel": 20, "len": 8}]}, {"bar": 6, "events": [{"step": 0, "note": 72, "vel": 20, "len": 8}]}, {"bar": 7, "events": [{"step": 0, "note": 72, "vel": 20, "len": 8}]}, {"bar": 8, "events": [{"step": 0, "note": 72, "vel": 20, "len": 8}]}, {"bar": 9, "events": [{"step": 0, "note": 72, "vel": 20, "len": 8}]}, {"bar": 10, "events": [{"step": 0, "note": 72, "vel": 20, "len": 8}]}, {"bar": 11, "events": [{"step": 0, "note": 72, "vel": 20, "len": 8}]}, {"bar": 12, "events": [{"step": 0, "note": 72, "vel": 20, "len": 8}]}, {"bar": 13, "events": [{"step": 0, "note": 72, "vel": 20, "len": 8}]}, {"bar": 14, "events": [{"step": 0, "note": 72, "vel": 20, "len": 8}]}, {"bar": 15, "events": [{"step": 0, "note": 72, "vel": 20, "len": 8}]}, {"bar": 16, "events": [{"step": 0, "note": 72, "vel": 20, "len": 8}]}], "Snare": [{"bar": 1, "events": []}, {"bar": 2, "events": [{"step": 4, "note": 38, "vel": 100, "len": 1}]}, {"bar": 3, "events": []}, {"bar": 4, "events": [{"step": 4, "note": 38, "vel": 100, "len": 1}]}, {"bar": 5, "events": []}, {"bar": 6, "events": [{"step": 4, "note": 38, "vel": 100, "len": 1}]}, {"bar": 7, "events": []}, {"bar": 8, "events": [{"step": 4, "note": 38, "vel": 100, "len": 1}]}, {"bar": 9, "events": []}, {"bar": 10, "events": [{"step": 4, "note": 38, "vel": 100, "len": 1}]}, {"bar": 11, "events": []}, {"bar": 12, "events": [{"step": 4, "note": 38, "vel": 100, "len": 1}]}, {"bar": 13, "events": []}, {"bar": 14, "events": [{"step": 4, "note": 38, "vel": 100, "len": 1}]}, {"bar": 15, "events": []}, {"bar": 16, "events": [{"step": 4, "note": 38, "vel": 100, "len": 1}]}], "Hat": [{"bar": 1, "events": [{"step": 0, "note": 42, "vel": 60, "len": 1}, {"step": 2, "note": 42, "vel": 60, "len": 1}, {"step": 4, "note": 42, "vel": 60, "len": 1}, {"step": 6, "note": 42, "vel": 60, "len": 1}]}, {"bar": 2, "events": [{"step": 0, "note": 42, "vel": 60, "len": 1}, {"step": 2, "note": 42, "vel": 60, "len": 1}, {"step": 4, "note": 42, "vel": 60, "len": 1}, {"step": 6, "note": 42, "vel": 60, "len": 1}]}, {"bar": 3, "events": [{"step": 0, "note": 42, "vel": 60, "len": 1}, {"step": 2, "note": 42, "vel": 60, "len": 1}, {"step": 4, "note": 42, "vel": 60, "len": 1}, {"step": 6, "note": 42, "vel": 60, "len": 1}]}, {"bar": 4, "events": [{"step": 0, "note": 42, "vel": 60, "len": 1}, {"step": 2, "note": 42, "vel": 60, "len": 1}, {"step": 4, "note": 42, "vel": 60, "len": 1}, {"step": 6, "note": 42, "vel": 60, "len": 1}]}, {"bar": 5, "events": [{"step": 0, "note": 42, "vel": 60, "len": 1}, {"step": 2, "note": 42, "vel": 60, "len": 1}, {"step": 4, "note": 42, "vel": 60, "len": 1}, {"step": 6, "note": 42, "vel": 60, "len": 1}]}, {"bar": 6, "events": [{"step": 0, "note": 42, "vel": 60, "len": 1}, {"step": 2, "note": 42, "vel": 60, "len": 1}, {"step": 4, "note": 42, "vel": 60, "len": 1}, {"step": 6, "note": 42, "vel": 60, "len": 1}]}, {"bar": 7, "events": [{"step": 0, "note": 42, "vel": 60, "len": 1}, {"step": 2, "note": 42, "vel": 60, "len": 1}, {"step": 4, "note": 42, "vel": 60, "len": 1}, {"step": 6, "note": 42, "vel": 60, "len": 1}]}, {"bar": 8, "events": [{"step": 0, "note": 42, "vel": 60, "len": 1}, {"step": 2, "note": 42, "vel": 60, "len": 1}, {"step": 4, "note": 42, "vel": 60, "len": 1}, {"step": 6, "note": 42, "vel": 60, "len": 1}]}, {"bar": 9, "events": [{"step": 0, "note": 42, "vel": 60, "len": 1}, {"step": 2, "note": 42, "vel": 60, "len": 1}, {"step": 4, "note": 42, "vel": 60, "len": 1}, {"step": 6, "note": 42, "vel": 60, "len": 1}]}, {"bar": 10, "events": [{"step": 0, "note": 42, "vel": 60, "len": 1}, {"step": 2, "note": 42, "vel": 60, "len": 1}, {"step": 4, "note": 42, "vel": 60, "len": 1}, {"step": 6, "note": 42, "vel": 60, "len": 1}]}, {"bar": 11, "events": [{"step": 0, "note": 42, "vel": 60, "len": 1}, {"step": 2, "note": 42, "vel": 60, "len": 1}, {"step": 4, "note": 42, "vel": 60, "len": 1}, {"step": 6, "note": 42, "vel": 60, "len": 1}]}, {"bar": 12, "events": [{"step": 0, "note": 42, "vel": 60, "len": 1}, {"step": 2, "note": 42, "vel": 60, "len": 1}, {"step": 4, "note": 42, "vel": 60, "len": 1}, {"step": 6, "note": 42, "vel": 60, "len": 1}]}, {"bar": 13, "events": [{"step": 0, "note": 42, "vel": 60, "len": 1}, {"step": 2, "note": 42, "vel": 60, "len": 1}, {"step": 4, "note": 42, "vel": 60, "len": 1}, {"step": 6, "note": 42, "vel": 60, "len": 1}]}, {"bar": 14, "events": [{"step": 0, "note": 42, "vel": 60, "len": 1}, {"step": 2, "note": 42, "vel": 60, "len": 1}, {"step": 4, "note": 42, "vel": 60, "len": 1}, {"step": 6, "note": 42, "vel": 60, "len": 1}]}, {"bar": 15, "events": [{"step": 0, "note": 42, "vel": 60, "len": 1}, {"step": 2, "note": 42, "vel": 60, "len": 1}, {"step": 4, "note": 42, "vel": 60, "len": 1}, {"step": 6, "note": 42, "vel": 60, "len": 1}]}, {"bar": 16, "events": [{"step": 0, "note": 42, "vel": 60, "len": 1}, {"step": 2, "note": 42, "vel": 60, "len": 1}, {"step": 4, "note": 42, "vel": 60, "len": 1}, {"step": 6, "note": 42, "vel": 60, "len": 1}]}], "meta": {}}, "meta": {"tempo": 90, "key": "C minor", "scale": "Natural minor", "style": "Electronic", "mood": "Melancholic", "meter": "4/4", "dynamic_profile": "Crescendo", "arrangement_density": "Medium", "harmonic_color": "Minor", "length_seconds": 107, "bars": 16, "instrument_configs": [{"name": "Piano", "register": "Mid", "role": "Lead", "articulation": "Legato", "dynamic_range": "Moderate"}, {"name": "Pads", "register": "Full", "role": "Pad", "articulation": "Sustain", "dynamic_range": "Delicate"}, {"name": "Bass Guitar", "register": "Low", "role": "Bass", "articulation": "Percussive", "dynamic_range": "Intense"}, {"name": "Snare", "register": "High", "role": "Percussion", "articulation": "Staccato", "dynamic_range": "Intense"}, {"name": "Hat", "register": "High", "role": "Percussion", "articulation": "Staccato", "dynamic_range": "Moderate"}], "instruments": ["Piano", "Pads", "Bass Guitar", "Snare", "Hat"]}}, "midi_per_instrument": null, "tracks": [{"instrument": "Piano", "enabled": true, "volume_db": 0.0, "pan": 0.0}, {"instrument": "Pads", "enabled": true, "volume_db": -3.0, "pan": 0.0}, {"instrument": "Bass Guitar", "enabled": true, "volume_db": -3.0, "pan": 0.0}, {"instrument": "Snare", "enabled": true, "volume_db": -3.0, "pan": 0.0}, {"instrument": "Hat", "enabled": true, "volume_db": -3.0, "pan": 0.0}], "selected_samples": {"Hat": "Drums/RealDrumkits/RD_Hat_1.wav", "Snare": "Drums/Kits/Drum Kit 07/FLS_Snare 07a.wav", "Bass Guitar": "Instruments/Guitar/Bass/FLStudio Bass 02/30 DEEPER PURPLE_PLUCK E3ogg.wav", "Pads": "Drums/Kits/Drum Kit 01/FLS_Hatpd 01.wav", "Piano": "Instruments/Piano/Piano 1/CHANGPIANOHARD_F#5OGG.WAV"}, "fadeout_seconds": 0.01}, "response": {"project_name": "jhfj", "run_id": "7c9bd048-1fd3-4a33-93f6-dedc510b8539", "mix_wav_rel": "output\\7c9bd048-1fd3-4a33-93f6-dedc510b8539\\jhfj_mix_1764814906.wav", "stems": [{"instrument": "Piano", "audio_rel": "output\\7c9bd048-1fd3-4a33-93f6-dedc510b8539\\jhfj_Piano_1764814906.wav"}, {"instrument": "Pads", "audio_rel": "output\\7c9bd048-1fd3-4a33-93f6-dedc510b8539\\jhfj_Pads_1764814906.wav"}, {"instrument": "Bass Guitar", "audio_rel": "output\\7c9bd048-1fd3-4a33-93f6-dedc510b8539\\jhfj_Bass Guitar_1764814906.wav"}, {"instrument": "Snare", "audio_rel": "output\\7c9bd048-1fd3-4a33-93f6-dedc510b8539\\jhfj_Snare_1764814906.wav"}, {"instrument": "Hat", "audio_rel": "output\\7c9bd048-1fd3-4a33-93f6-dedc510b8539\\jhfj_Hat_1764814906.wav"}], "sample_rate": 44100, "duration_seconds": 107.0}}