{"request": {"project_name": "test-rock", "run_id": "30481adcff52", "user_id": 2, "midi": {"pattern": [{"bar": 5, "events": [{"step": 0, "note": 36, "vel": 110, "len": 1}, {"step": 2, "note": 38, "vel": 100, "len": 1}, {"step": 4, "note": 36, "vel": 110, "len": 1}, {"step": 6, "note": 38, "vel": 100, "len": 1}, {"step": 0, "note": 42, "vel": 90, "len": 1}, {"step": 2, "note": 42, "vel": 90, "len": 1}, {"step": 4, "note": 42, "vel": 90, "len": 1}, {"step": 6, "note": 42, "vel": 90, "len": 1}]}, {"bar": 6, "events": [{"step": 0, "note": 36, "vel": 110, "len": 1}, {"step": 2, "note": 38, "vel": 100, "len": 1}, {"step": 4, "note": 36, "vel": 110, "len": 1}, {"step": 6, "note": 38, "vel": 100, "len": 1}, {"step": 0, "note": 42, "vel": 90, "len": 1}, {"step": 2, "note": 42, "vel": 90, "len": 1}, {"step": 4, "note": 42, "vel": 90, "len": 1}, {"step": 6, "note": 42, "vel": 90, "len": 1}]}, {"bar": 7, "events": [{"step": 0, "note": 36, "vel": 110, "len": 1}, {"step": 2, "note": 38, "vel": 100, "len": 1}, {"step": 4, "note": 36, "vel": 110, "len": 1}, {"step": 6, "note": 38, "vel": 100, "len": 1}, {"step": 0, "note": 42, "vel": 90, "len": 1}, {"step": 2, "note": 42, "vel": 90, "len": 1}, {"step": 4, "note": 42, "vel": 90, "len": 1}, {"step": 6, "note": 42, "vel": 90, "len": 1}]}, {"bar": 8, "events": [{"step": 0, "note": 36, "vel": 110, "len": 1}, {"step": 2, "note": 38, "vel": 100, "len": 1}, {"step": 4, "note": 45, "vel": 110, "len": 1}, {"step": 5, "note": 47, "vel": 110, "len": 1}, {"step": 6, "note": 50, "vel": 115, "len": 1}, {"step": 7, "note": 49, "vel": 120, "len": 1}]}, {"bar": 24, "events": [{"step": 0, "note": 36, "vel": 110, "len": 1}, {"step": 2, "note": 38, "vel": 100, "len": 1}, {"step": 4, "note": 47, "vel": 110, "len": 1}, {"step": 6, "note": 50, "vel": 110, "len": 1}]}, {"bar": 25, "events": [{"step": 0, "note": 49, "vel": 127, "len": 1}, {"step": 0, "note": 36, "vel": 120, "len": 1}, {"step": 2, "note": 38, "vel": 120, "len": 1}, {"step": 4, "note": 36, "vel": 115, "len": 1}, {"step": 5, "note": 36, "vel": 110, "len": 1}, {"step": 6, "note": 38, "vel": 120, "len": 1}, {"step": 0, "note": 51, "vel": 100, "len": 1}, {"step": 2, "note": 51, "vel": 100, "len": 1}, {"step": 4, "note": 51, "vel": 100, "len": 1}, {"step": 6, "note": 51, "vel": 100, "len": 1}]}, {"bar": 40, "events": [{"step": 0, "note": 36, "vel": 110, "len": 1}, {"step": 2, "note": 38, "vel": 110, "len": 1}, {"step": 4, "note": 45, "vel": 115, "len": 1}, {"step": 5, "note": 45, "vel": 115, "len": 1}, {"step": 6, "note": 47, "vel": 120, "len": 1}, {"step": 7, "note": 50, "vel": 120, "len": 1}]}, {"bar": 57, "events": [{"step": 0, "note": 49, "vel": 127, "len": 1}, {"step": 0, "note": 36, "vel": 120, "len": 1}, {"step": 2, "note": 38, "vel": 120, "len": 1}, {"step": 4, "note": 36, "vel": 115, "len": 1}, {"step": 6, "note": 38, "vel": 120, "len": 1}, {"step": 0, "note": 51, "vel": 100, "len": 1}, {"step": 2, "note": 51, "vel": 100, "len": 1}, {"step": 4, "note": 51, "vel": 100, "len": 1}, {"step": 6, "note": 51, "vel": 100, "len": 1}]}, {"bar": 73, "events": [{"step": 0, "note": 45, "vel": 100, "len": 1}, {"step": 1, "note": 45, "vel": 90, "len": 1}, {"step": 2, "note": 47, "vel": 100, "len": 1}, {"step": 3, "note": 47, "vel": 90, "len": 1}, {"step": 4, "note": 36, "vel": 110, "len": 1}, {"step": 6, "note": 38, "vel": 80, "len": 1}]}, {"bar": 80, "events": [{"step": 0, "note": 50, "vel": 115, "len": 1}, {"step": 2, "note": 50, "vel": 115, "len": 1}, {"step": 4, "note": 50, "vel": 120, "len": 1}, {"step": 6, "note": 38, "vel": 127, "len": 1}, {"step": 7, "note": 38, "vel": 127, "len": 1}]}, {"bar": 81, "events": [{"step": 0, "note": 49, "vel": 127, "len": 1}, {"step": 0, "note": 36, "vel": 127, "len": 1}, {"step": 2, "note": 38, "vel": 127, "len": 1}, {"step": 4, "note": 36, "vel": 120, "len": 1}, {"step": 5, "note": 36, "vel": 115, "len": 1}, {"step": 6, "note": 38, "vel": 127, "len": 1}, {"step": 0, "note": 51, "vel": 110, "len": 1}, {"step": 2, "note": 51, "vel": 110, "len": 1}, {"step": 4, "note": 51, "vel": 110, "len": 1}, {"step": 6, "note": 51, "vel": 110, "len": 1}]}, {"bar": 96, "events": [{"step": 0, "note": 49, "vel": 127, "len": 4}, {"step": 0, "note": 36, "vel": 127, "len": 4}]}], "layers": {"Electric Guitar": [{"bar": 1, "events": [{"step": 0, "note": 52, "vel": 100, "len": 1}, {"step": 2, "note": 55, "vel": 95, "len": 1}, {"step": 4, "note": 57, "vel": 105, "len": 1}, {"step": 6, "note": 59, "vel": 100, "len": 1}]}, {"bar": 2, "events": [{"step": 0, "note": 52, "vel": 100, "len": 1}, {"step": 2, "note": 50, "vel": 95, "len": 1}, {"step": 4, "note": 48, "vel": 100, "len": 1}, {"step": 6, "note": 47, "vel": 100, "len": 1}]}, {"bar": 5, "events": [{"step": 0, "note": 52, "vel": 110, "len": 1}, {"step": 2, "note": 55, "vel": 105, "len": 1}, {"step": 4, "note": 57, "vel": 110, "len": 1}, {"step": 6, "note": 59, "vel": 110, "len": 1}]}, {"bar": 9, "events": [{"step": 0, "note": 52, "vel": 80, "len": 1}, {"step": 2, "note": 52, "vel": 80, "len": 1}, {"step": 4, "note": 55, "vel": 85, "len": 1}, {"step": 6, "note": 52, "vel": 80, "len": 1}]}, {"bar": 25, "events": [{"step": 0, "note": 52, "vel": 120, "len": 4}, {"step": 0, "note": 59, "vel": 115, "len": 4}, {"step": 4, "note": 52, "vel": 120, "len": 4}, {"step": 4, "note": 59, "vel": 115, "len": 4}]}, {"bar": 26, "events": [{"step": 0, "note": 60, "vel": 120, "len": 4}, {"step": 0, "note": 67, "vel": 115, "len": 4}, {"step": 4, "note": 60, "vel": 120, "len": 4}, {"step": 4, "note": 67, "vel": 115, "len": 4}]}, {"bar": 27, "events": [{"step": 0, "note": 55, "vel": 120, "len": 4}, {"step": 0, "note": 62, "vel": 115, "len": 4}, {"step": 4, "note": 55, "vel": 120, "len": 4}, {"step": 4, "note": 62, "vel": 115, "len": 4}]}, {"bar": 28, "events": [{"step": 0, "note": 50, "vel": 120, "len": 4}, {"step": 0, "note": 57, "vel": 115, "len": 4}, {"step": 4, "note": 50, "vel": 120, "len": 4}, {"step": 4, "note": 57, "vel": 115, "len": 4}]}, {"bar": 73, "events": [{"step": 0, "note": 52, "vel": 90, "len": 8}]}, {"bar": 81, "events": [{"step": 0, "note": 64, "vel": 127, "len": 1}, {"step": 1, "note": 67, "vel": 120, "len": 1}, {"step": 2, "note": 71, "vel": 125, "len": 1}, {"step": 3, "note": 69, "vel": 120, "len": 1}, {"step": 4, "note": 67, "vel": 120, "len": 1}, {"step": 5, "note": 64, "vel": 120, "len": 1}, {"step": 6, "note": 62, "vel": 115, "len": 1}, {"step": 7, "note": 59, "vel": 115, "len": 1}]}], "Bass Guitar": [{"bar": 5, "events": [{"step": 0, "note": 40, "vel": 110, "len": 1}, {"step": 1, "note": 40, "vel": 100, "len": 1}, {"step": 2, "note": 40, "vel": 110, "len": 1}, {"step": 3, "note": 40, "vel": 100, "len": 1}, {"step": 4, "note": 40, "vel": 110, "len": 1}, {"step": 5, "note": 40, "vel": 100, "len": 1}, {"step": 6, "note": 40, "vel": 110, "len": 1}, {"step": 7, "note": 40, "vel": 100, "len": 1}]}, {"bar": 25, "events": [{"step": 0, "note": 40, "vel": 120, "len": 2}, {"step": 2, "note": 40, "vel": 115, "len": 2}, {"step": 4, "note": 40, "vel": 120, "len": 2}, {"step": 6, "note": 40, "vel": 115, "len": 2}]}, {"bar": 26, "events": [{"step": 0, "note": 48, "vel": 120, "len": 2}, {"step": 2, "note": 48, "vel": 115, "len": 2}, {"step": 4, "note": 48, "vel": 120, "len": 2}, {"step": 6, "note": 48, "vel": 115, "len": 2}]}, {"bar": 27, "events": [{"step": 0, "note": 43, "vel": 120, "len": 2}, {"step": 2, "note": 43, "vel": 115, "len": 2}, {"step": 4, "note": 43, "vel": 120, "len": 2}, {"step": 6, "note": 43, "vel": 115, "len": 2}]}, {"bar": 28, "events": [{"step": 0, "note": 38, "vel": 120, "len": 2}, {"step": 2, "note": 38, "vel": 115, "len": 2}, {"step": 4, "note": 38, "vel": 120, "len": 2}, {"step": 6, "note": 38, "vel": 115, "len": 2}]}, {"bar": 73, "events": [{"step": 0, "note": 40, "vel": 100, "len": 8}]}, {"bar": 81, "events": [{"step": 0, "note": 40, "vel": 127, "len": 1}, {"step": 2, "note": 40, "vel": 120, "len": 1}, {"step": 4, "note": 40, "vel": 127, "len": 1}, {"step": 6, "note": 43, "vel": 125, "len": 1}]}]}, "meta": {"status": "success", "tempo": 125, "key": "E", "scale": "Minor", "style": "Alternative Rock", "mood": "Energetic", "meter": "4/4", "dynamic_profile": "Building", "arrangement_density": "High", "harmonic_color": "Raw", "length_seconds": 185, "bars": 96, "instrument_configs": [{"name": "Electric Guitar", "register": "High", "role": "Lead", "articulation": "Legato", "dynamic_range": "Intense"}, {"name": "Bass Guitar", "register": "Low", "role": "Bass", "articulation": "Sustain", "dynamic_range": "Moderate"}, {"name": "Kick", "register": "Sub", "role": "Percussion", "articulation": "Percussive", "dynamic_range": "Intense"}, {"name": "Snare", "register": "Mid", "role": "Percussion", "articulation": "Percussive", "dynamic_range": "Intense"}, {"name": "Hat", "register": "High", "role": "Percussion", "articulation": "Percussive", "dynamic_range": "Moderate"}, {"name": "Crash", "register": "Very High", "role": "Percussion", "articulation": "Percussive", "dynamic_range": "Fortissimo"}, {"name": "Ride", "register": "High", "role": "Percussion", "articulation": "Percussive", "dynamic_range": "Moderate"}, {"name": "Tom", "register": "Low", "role": "Percussion", "articulation": "Percussive", "dynamic_range": "Moderate"}], "instruments": ["Electric Guitar", "Bass Guitar", "Kick", "Snare", "Hat", "Crash", "Ride", "Tom"]}}, "midi_per_instrument": null, "tracks": [{"instrument": "Electric Guitar", "enabled": true, "volume_db": 0.0, "pan": 0.0}, {"instrument": "Bass Guitar", "enabled": true, "volume_db": -3.0, "pan": 0.0}, {"instrument": "Kick", "enabled": true, "volume_db": -3.0, "pan": 0.0}, {"instrument": "Snare", "enabled": true, "volume_db": -3.0, "pan": 0.0}, {"instrument": "Hat", "enabled": true, "volume_db": -3.0, "pan": 0.0}, {"instrument": "Crash", "enabled": true, "volume_db": -3.0, "pan": 0.0}, {"instrument": "Ride", "enabled": true, "volume_db": -3.0, "pan": 0.0}, {"instrument": "Tom", "enabled": true, "volume_db": -3.0, "pan": 0.0}], "selected_samples": {"Tom": "Drums/RealDrumkits/RD_Tom.wav", "Ride": "Drums/Kits/Drum Kit 04/FLS_Ride 04a.wav", "Crash": "Drums/Vintage/VT_Crash.wav", "Hat": "Drums/Dance/Hat Basic.wav", "Snare": "Drums/RealDrumkits/RD_Snare_11.wav", "Kick": "Drums/Kits/Drum Kit 02/FLS_Kick 02.wav", "Bass Guitar": "Instruments/Guitar/Bass/FLStudio Bass 02/18 DEEPER PURPLE_PLUCK E2ogg.wav", "Electric Guitar": "Instruments/Guitar/Guitar/Electric Guitar 01/03 DARK STAR METAL_F#2OGG.wav"}, "fadeout_seconds": 0.01}, "response": {"project_name": "test-rock", "run_id": "30481adcff52", "mix_wav_rel": "output\\30481adcff52\\test-rock_mix_1766687019.wav", "stems": [{"instrument": "Electric Guitar", "audio_rel": "output\\30481adcff52\\test-rock_Electric Guitar_1766687019.wav"}, {"instrument": "Bass Guitar", "audio_rel": "output\\30481adcff52\\test-rock_Bass Guitar_1766687019.wav"}, {"instrument": "Kick", "audio_rel": "output\\30481adcff52\\test-rock_Kick_1766687019.wav"}, {"instrument": "Snare", "audio_rel": "output\\30481adcff52\\test-rock_Snare_1766687019.wav"}, {"instrument": "Hat", "audio_rel": "output\\30481adcff52\\test-rock_Hat_1766687019.wav"}, {"instrument": "Crash", "audio_rel": "output\\30481adcff52\\test-rock_Crash_1766687019.wav"}, {"instrument": "Ride", "audio_rel": "output\\30481adcff52\\test-rock_Ride_1766687019.wav"}, {"instrument": "Tom", "audio_rel": "output\\30481adcff52\\test-rock_Tom_1766687019.wav"}], "sample_rate": 44100, "duration_seconds": 185.0}}