{"request": {"project_name": "rocky roccky", "run_id": "a9d0e02a8c24", "user_id": 2, "midi": {"pattern": [{"bar": 1, "events": [{"step": 0, "note": 36, "vel": 85, "len": 1}, {"step": 2, "note": 38, "vel": 90, "len": 1}, {"step": 4, "note": 36, "vel": 85, "len": 1}, {"step": 6, "note": 38, "vel": 90, "len": 1}]}, {"bar": 2, "events": [{"step": 0, "note": 36, "vel": 85, "len": 1}, {"step": 2, "note": 38, "vel": 90, "len": 1}, {"step": 4, "note": 36, "vel": 85, "len": 1}, {"step": 6, "note": 38, "vel": 90, "len": 1}]}, {"bar": 3, "events": [{"step": 0, "note": 36, "vel": 85, "len": 1}, {"step": 2, "note": 38, "vel": 90, "len": 1}, {"step": 4, "note": 36, "vel": 85, "len": 1}, {"step": 6, "note": 38, "vel": 90, "len": 1}]}, {"bar": 4, "events": [{"step": 0, "note": 36, "vel": 85, "len": 1}, {"step": 2, "note": 38, "vel": 90, "len": 1}, {"step": 4, "note": 38, "vel": 95, "len": 1}, {"step": 5, "note": 38, "vel": 85, "len": 1}, {"step": 6, "note": 38, "vel": 100, "len": 1}, {"step": 7, "note": 36, "vel": 90, "len": 1}]}, {"bar": 5, "events": [{"step": 0, "note": 36, "vel": 100, "len": 1}, {"step": 2, "note": 38, "vel": 105, "len": 1}, {"step": 3, "note": 36, "vel": 95, "len": 1}, {"step": 4, "note": 36, "vel": 100, "len": 1}, {"step": 6, "note": 38, "vel": 105, "len": 1}]}, {"bar": 6, "events": [{"step": 0, "note": 36, "vel": 100, "len": 1}, {"step": 2, "note": 38, "vel": 105, "len": 1}, {"step": 3, "note": 36, "vel": 95, "len": 1}, {"step": 4, "note": 36, "vel": 100, "len": 1}, {"step": 6, "note": 38, "vel": 105, "len": 1}]}, {"bar": 7, "events": [{"step": 0, "note": 36, "vel": 100, "len": 1}, {"step": 2, "note": 38, "vel": 105, "len": 1}, {"step": 3, "note": 36, "vel": 95, "len": 1}, {"step": 4, "note": 36, "vel": 100, "len": 1}, {"step": 6, "note": 38, "vel": 105, "len": 1}]}, {"bar": 8, "events": [{"step": 0, "note": 36, "vel": 100, "len": 1}, {"step": 2, "note": 38, "vel": 105, "len": 1}, {"step": 4, "note": 36, "vel": 100, "len": 1}, {"step": 6, "note": 38, "vel": 110, "len": 1}, {"step": 7, "note": 38, "vel": 95, "len": 1}]}, {"bar": 9, "events": [{"step": 0, "note": 36, "vel": 115, "len": 1}, {"step": 2, "note": 38, "vel": 120, "len": 1}, {"step": 3, "note": 36, "vel": 110, "len": 1}, {"step": 4, "note": 36, "vel": 115, "len": 1}, {"step": 6, "note": 38, "vel": 120, "len": 1}]}, {"bar": 10, "events": [{"step": 0, "note": 36, "vel": 115, "len": 1}, {"step": 2, "note": 38, "vel": 120, "len": 1}, {"step": 3, "note": 36, "vel": 110, "len": 1}, {"step": 4, "note": 36, "vel": 115, "len": 1}, {"step": 6, "note": 38, "vel": 120, "len": 1}]}, {"bar": 11, "events": [{"step": 0, "note": 36, "vel": 115, "len": 1}, {"step": 2, "note": 38, "vel": 120, "len": 1}, {"step": 3, "note": 36, "vel": 110, "len": 1}, {"step": 4, "note": 36, "vel": 115, "len": 1}, {"step": 6, "note": 38, "vel": 120, "len": 1}]}, {"bar": 12, "events": [{"step": 0, "note": 36, "vel": 115, "len": 1}, {"step": 2, "note": 38, "vel": 120, "len": 1}, {"step": 4, "note": 36, "vel": 115, "len": 1}, {"step": 5, "note": 36, "vel": 110, "len": 1}, {"step": 6, "note": 38, "vel": 127, "len": 1}, {"step": 7, "note": 38, "vel": 115, "len": 1}]}, {"bar": 13, "events": [{"step": 0, "note": 36, "vel": 120, "len": 1}, {"step": 2, "note": 38, "vel": 125, "len": 1}, {"step": 3, "note": 36, "vel": 115, "len": 1}, {"step": 4, "note": 36, "vel": 120, "len": 1}, {"step": 6, "note": 38, "vel": 125, "len": 1}]}, {"bar": 14, "events": [{"step": 0, "note": 36, "vel": 120, "len": 1}, {"step": 2, "note": 38, "vel": 125, "len": 1}, {"step": 3, "note": 36, "vel": 115, "len": 1}, {"step": 4, "note": 36, "vel": 120, "len": 1}, {"step": 6, "note": 38, "vel": 125, "len": 1}]}, {"bar": 15, "events": [{"step": 0, "note": 36, "vel": 120, "len": 1}, {"step": 2, "note": 38, "vel": 125, "len": 1}, {"step": 3, "note": 36, "vel": 115, "len": 1}, {"step": 4, "note": 36, "vel": 120, "len": 1}, {"step": 6, "note": 38, "vel": 125, "len": 1}]}, {"bar": 16, "events": [{"step": 0, "note": 36, "vel": 127, "len": 1}, {"step": 1, "note": 38, "vel": 115, "len": 1}, {"step": 2, "note": 36, "vel": 120, "len": 1}, {"step": 3, "note": 38, "vel": 127, "len": 1}, {"step": 4, "note": 49, "vel": 127, "len": 4}]}], "layers": {"Electric Guitar": [{"bar": 1, "events": [{"step": 0, "note": 40, "vel": 90, "len": 4}, {"step": 4, "note": 40, "vel": 90, "len": 4}]}, {"bar": 2, "events": [{"step": 0, "note": 40, "vel": 90, "len": 4}, {"step": 4, "note": 43, "vel": 95, "len": 2}, {"step": 6, "note": 45, "vel": 95, "len": 2}]}, {"bar": 3, "events": [{"step": 0, "note": 40, "vel": 90, "len": 4}, {"step": 4, "note": 40, "vel": 90, "len": 4}]}, {"bar": 4, "events": [{"step": 0, "note": 40, "vel": 90, "len": 2}, {"step": 2, "note": 43, "vel": 95, "len": 2}, {"step": 4, "note": 45, "vel": 100, "len": 2}, {"step": 6, "note": 50, "vel": 105, "len": 2}]}, {"bar": 5, "events": [{"step": 0, "note": 40, "vel": 100, "len": 2}, {"step": 2, "note": 40, "vel": 95, "len": 1}, {"step": 3, "note": 43, "vel": 105, "len": 1}, {"step": 4, "note": 45, "vel": 105, "len": 2}, {"step": 6, "note": 40, "vel": 100, "len": 2}]}, {"bar": 6, "events": [{"step": 0, "note": 40, "vel": 100, "len": 2}, {"step": 2, "note": 40, "vel": 95, "len": 1}, {"step": 3, "note": 43, "vel": 105, "len": 1}, {"step": 4, "note": 45, "vel": 105, "len": 2}, {"step": 6, "note": 50, "vel": 105, "len": 2}]}, {"bar": 7, "events": [{"step": 0, "note": 40, "vel": 100, "len": 2}, {"step": 2, "note": 40, "vel": 95, "len": 1}, {"step": 3, "note": 43, "vel": 105, "len": 1}, {"step": 4, "note": 45, "vel": 105, "len": 2}, {"step": 6, "note": 40, "vel": 100, "len": 2}]}, {"bar": 8, "events": [{"step": 0, "note": 40, "vel": 100, "len": 2}, {"step": 2, "note": 50, "vel": 105, "len": 2}, {"step": 4, "note": 47, "vel": 105, "len": 2}, {"step": 6, "note": 45, "vel": 105, "len": 2}]}, {"bar": 9, "events": [{"step": 0, "note": 40, "vel": 115, "len": 2}, {"step": 2, "note": 43, "vel": 120, "len": 1}, {"step": 3, "note": 45, "vel": 120, "len": 1}, {"step": 4, "note": 40, "vel": 115, "len": 2}, {"step": 6, "note": 50, "vel": 125, "len": 2}]}, {"bar": 10, "events": [{"step": 0, "note": 40, "vel": 115, "len": 2}, {"step": 2, "note": 43, "vel": 120, "len": 1}, {"step": 3, "note": 45, "vel": 120, "len": 1}, {"step": 4, "note": 40, "vel": 115, "len": 2}, {"step": 6, "note": 50, "vel": 125, "len": 2}]}, {"bar": 11, "events": [{"step": 0, "note": 40, "vel": 115, "len": 2}, {"step": 2, "note": 43, "vel": 120, "len": 1}, {"step": 3, "note": 45, "vel": 120, "len": 1}, {"step": 4, "note": 40, "vel": 115, "len": 2}, {"step": 6, "note": 50, "vel": 125, "len": 2}]}, {"bar": 12, "events": [{"step": 0, "note": 50, "vel": 120, "len": 2}, {"step": 2, "note": 47, "vel": 120, "len": 2}, {"step": 4, "note": 45, "vel": 120, "len": 2}, {"step": 6, "note": 43, "vel": 120, "len": 2}]}, {"bar": 13, "events": [{"step": 0, "note": 40, "vel": 127, "len": 1}, {"step": 1, "note": 43, "vel": 120, "len": 1}, {"step": 2, "note": 45, "vel": 127, "len": 1}, {"step": 3, "note": 40, "vel": 120, "len": 1}, {"step": 4, "note": 40, "vel": 127, "len": 2}, {"step": 6, "note": 50, "vel": 127, "len": 2}]}, {"bar": 14, "events": [{"step": 0, "note": 40, "vel": 127, "len": 1}, {"step": 1, "note": 43, "vel": 120, "len": 1}, {"step": 2, "note": 45, "vel": 127, "len": 1}, {"step": 3, "note": 40, "vel": 120, "len": 1}, {"step": 4, "note": 40, "vel": 127, "len": 2}, {"step": 6, "note": 50, "vel": 127, "len": 2}]}, {"bar": 15, "events": [{"step": 0, "note": 40, "vel": 127, "len": 1}, {"step": 1, "note": 43, "vel": 120, "len": 1}, {"step": 2, "note": 45, "vel": 127, "len": 1}, {"step": 3, "note": 40, "vel": 120, "len": 1}, {"step": 4, "note": 40, "vel": 127, "len": 2}, {"step": 6, "note": 50, "vel": 127, "len": 2}]}, {"bar": 16, "events": [{"step": 0, "note": 40, "vel": 127, "len": 1}, {"step": 1, "note": 43, "vel": 120, "len": 1}, {"step": 2, "note": 45, "vel": 120, "len": 1}, {"step": 3, "note": 47, "vel": 127, "len": 1}, {"step": 4, "note": 40, "vel": 127, "len": 4}]}], "Bass Guitar": [{"bar": 1, "events": [{"step": 0, "note": 28, "vel": 85, "len": 1}, {"step": 2, "note": 28, "vel": 80, "len": 1}, {"step": 4, "note": 28, "vel": 85, "len": 1}, {"step": 6, "note": 28, "vel": 80, "len": 1}]}, {"bar": 2, "events": [{"step": 0, "note": 28, "vel": 85, "len": 1}, {"step": 2, "note": 28, "vel": 80, "len": 1}, {"step": 4, "note": 31, "vel": 90, "len": 1}, {"step": 6, "note": 33, "vel": 90, "len": 1}]}, {"bar": 3, "events": [{"step": 0, "note": 28, "vel": 85, "len": 1}, {"step": 2, "note": 28, "vel": 80, "len": 1}, {"step": 4, "note": 28, "vel": 85, "len": 1}, {"step": 6, "note": 28, "vel": 80, "len": 1}]}, {"bar": 4, "events": [{"step": 0, "note": 28, "vel": 85, "len": 2}, {"step": 2, "note": 31, "vel": 90, "len": 2}, {"step": 4, "note": 33, "vel": 95, "len": 2}, {"step": 6, "note": 38, "vel": 100, "len": 2}]}, {"bar": 5, "events": [{"step": 0, "note": 28, "vel": 100, "len": 1}, {"step": 2, "note": 28, "vel": 95, "len": 1}, {"step": 3, "note": 31, "vel": 100, "len": 1}, {"step": 4, "note": 33, "vel": 100, "len": 1}, {"step": 6, "note": 28, "vel": 100, "len": 1}]}, {"bar": 6, "events": [{"step": 0, "note": 28, "vel": 100, "len": 1}, {"step": 2, "note": 28, "vel": 95, "len": 1}, {"step": 3, "note": 31, "vel": 100, "len": 1}, {"step": 4, "note": 33, "vel": 100, "len": 1}, {"step": 6, "note": 38, "vel": 100, "len": 1}]}, {"bar": 7, "events": [{"step": 0, "note": 28, "vel": 100, "len": 1}, {"step": 2, "note": 28, "vel": 95, "len": 1}, {"step": 3, "note": 31, "vel": 100, "len": 1}, {"step": 4, "note": 33, "vel": 100, "len": 1}, {"step": 6, "note": 28, "vel": 100, "len": 1}]}, {"bar": 8, "events": [{"step": 0, "note": 28, "vel": 100, "len": 1}, {"step": 2, "note": 38, "vel": 105, "len": 1}, {"step": 4, "note": 35, "vel": 105, "len": 1}, {"step": 6, "note": 33, "vel": 105, "len": 1}]}, {"bar": 9, "events": [{"step": 0, "note": 28, "vel": 115, "len": 1}, {"step": 2, "note": 31, "vel": 115, "len": 1}, {"step": 3, "note": 33, "vel": 115, "len": 1}, {"step": 4, "note": 28, "vel": 115, "len": 1}, {"step": 6, "note": 38, "vel": 115, "len": 1}]}, {"bar": 10, "events": [{"step": 0, "note": 28, "vel": 115, "len": 1}, {"step": 2, "note": 31, "vel": 115, "len": 1}, {"step": 3, "note": 33, "vel": 115, "len": 1}, {"step": 4, "note": 28, "vel": 115, "len": 1}, {"step": 6, "note": 38, "vel": 115, "len": 1}]}, {"bar": 11, "events": [{"step": 0, "note": 28, "vel": 115, "len": 1}, {"step": 2, "note": 31, "vel": 115, "len": 1}, {"step": 3, "note": 33, "vel": 115, "len": 1}, {"step": 4, "note": 28, "vel": 115, "len": 1}, {"step": 6, "note": 38, "vel": 115, "len": 1}]}, {"bar": 12, "events": [{"step": 0, "note": 38, "vel": 120, "len": 1}, {"step": 2, "note": 35, "vel": 120, "len": 1}, {"step": 4, "note": 33, "vel": 120, "len": 1}, {"step": 6, "note": 31, "vel": 120, "len": 1}]}, {"bar": 13, "events": [{"step": 0, "note": 28, "vel": 120, "len": 1}, {"step": 1, "note": 31, "vel": 120, "len": 1}, {"step": 2, "note": 33, "vel": 120, "len": 1}, {"step": 3, "note": 28, "vel": 120, "len": 1}, {"step": 4, "note": 28, "vel": 125, "len": 1}, {"step": 6, "note": 38, "vel": 125, "len": 1}]}, {"bar": 14, "events": [{"step": 0, "note": 28, "vel": 120, "len": 1}, {"step": 1, "note": 31, "vel": 120, "len": 1}, {"step": 2, "note": 33, "vel": 120, "len": 1}, {"step": 3, "note": 28, "vel": 120, "len": 1}, {"step": 4, "note": 28, "vel": 125, "len": 1}, {"step": 6, "note": 38, "vel": 125, "len": 1}]}, {"bar": 15, "events": [{"step": 0, "note": 28, "vel": 120, "len": 1}, {"step": 1, "note": 31, "vel": 120, "len": 1}, {"step": 2, "note": 33, "vel": 120, "len": 1}, {"step": 3, "note": 28, "vel": 120, "len": 1}, {"step": 4, "note": 28, "vel": 125, "len": 1}, {"step": 6, "note": 38, "vel": 125, "len": 1}]}, {"bar": 16, "events": [{"step": 0, "note": 28, "vel": 127, "len": 1}, {"step": 1, "note": 31, "vel": 127, "len": 1}, {"step": 2, "note": 33, "vel": 127, "len": 1}, {"step": 3, "note": 35, "vel": 127, "len": 1}, {"step": 4, "note": 28, "vel": 127, "len": 4}]}], "Kick": [{"bar": 1, "events": [{"step": 0, "note": 36, "vel": 85, "len": 1}, {"step": 4, "note": 36, "vel": 85, "len": 1}]}, {"bar": 2, "events": [{"step": 0, "note": 36, "vel": 85, "len": 1}, {"step": 4, "note": 36, "vel": 85, "len": 1}]}, {"bar": 3, "events": [{"step": 0, "note": 36, "vel": 85, "len": 1}, {"step": 4, "note": 36, "vel": 85, "len": 1}]}, {"bar": 4, "events": [{"step": 0, "note": 36, "vel": 85, "len": 1}, {"step": 7, "note": 36, "vel": 90, "len": 1}]}, {"bar": 5, "events": [{"step": 0, "note": 36, "vel": 100, "len": 1}, {"step": 3, "note": 36, "vel": 95, "len": 1}, {"step": 4, "note": 36, "vel": 100, "len": 1}]}, {"bar": 6, "events": [{"step": 0, "note": 36, "vel": 100, "len": 1}, {"step": 3, "note": 36, "vel": 95, "len": 1}, {"step": 4, "note": 36, "vel": 100, "len": 1}]}, {"bar": 7, "events": [{"step": 0, "note": 36, "vel": 100, "len": 1}, {"step": 3, "note": 36, "vel": 95, "len": 1}, {"step": 4, "note": 36, "vel": 100, "len": 1}]}, {"bar": 8, "events": [{"step": 0, "note": 36, "vel": 100, "len": 1}, {"step": 4, "note": 36, "vel": 100, "len": 1}]}, {"bar": 9, "events": [{"step": 0, "note": 36, "vel": 115, "len": 1}, {"step": 3, "note": 36, "vel": 110, "len": 1}, {"step": 4, "note": 36, "vel": 115, "len": 1}]}, {"bar": 10, "events": [{"step": 0, "note": 36, "vel": 115, "len": 1}, {"step": 3, "note": 36, "vel": 110, "len": 1}, {"step": 4, "note": 36, "vel": 115, "len": 1}]}, {"bar": 11, "events": [{"step": 0, "note": 36, "vel": 115, "len": 1}, {"step": 3, "note": 36, "vel": 110, "len": 1}, {"step": 4, "note": 36, "vel": 115, "len": 1}]}, {"bar": 12, "events": [{"step": 0, "note": 36, "vel": 115, "len": 1}, {"step": 4, "note": 36, "vel": 115, "len": 1}, {"step": 5, "note": 36, "vel": 110, "len": 1}]}, {"bar": 13, "events": [{"step": 0, "note": 36, "vel": 120, "len": 1}, {"step": 3, "note": 36, "vel": 115, "len": 1}, {"step": 4, "note": 36, "vel": 120, "len": 1}]}, {"bar": 14, "events": [{"step": 0, "note": 36, "vel": 120, "len": 1}, {"step": 3, "note": 36, "vel": 115, "len": 1}, {"step": 4, "note": 36, "vel": 120, "len": 1}]}, {"bar": 15, "events": [{"step": 0, "note": 36, "vel": 120, "len": 1}, {"step": 3, "note": 36, "vel": 115, "len": 1}, {"step": 4, "note": 36, "vel": 120, "len": 1}]}, {"bar": 16, "events": [{"step": 0, "note": 36, "vel": 127, "len": 1}, {"step": 2, "note": 36, "vel": 120, "len": 1}, {"step": 4, "note": 36, "vel": 127, "len": 1}]}], "Snare": [{"bar": 1, "events": [{"step": 2, "note": 38, "vel": 90, "len": 1}, {"step": 6, "note": 38, "vel": 90, "len": 1}]}, {"bar": 2, "events": [{"step": 2, "note": 38, "vel": 90, "len": 1}, {"step": 6, "note": 38, "vel": 90, "len": 1}]}, {"bar": 3, "events": [{"step": 2, "note": 38, "vel": 90, "len": 1}, {"step": 6, "note": 38, "vel": 90, "len": 1}]}, {"bar": 4, "events": [{"step": 2, "note": 38, "vel": 90, "len": 1}, {"step": 4, "note": 38, "vel": 95, "len": 1}, {"step": 5, "note": 38, "vel": 85, "len": 1}, {"step": 6, "note": 38, "vel": 100, "len": 1}]}, {"bar": 5, "events": [{"step": 2, "note": 38, "vel": 105, "len": 1}, {"step": 6, "note": 38, "vel": 105, "len": 1}]}, {"bar": 6, "events": [{"step": 2, "note": 38, "vel": 105, "len": 1}, {"step": 6, "note": 38, "vel": 105, "len": 1}]}, {"bar": 7, "events": [{"step": 2, "note": 38, "vel": 105, "len": 1}, {"step": 6, "note": 38, "vel": 105, "len": 1}]}, {"bar": 8, "events": [{"step": 2, "note": 38, "vel": 105, "len": 1}, {"step": 6, "note": 38, "vel": 110, "len": 1}, {"step": 7, "note": 38, "vel": 95, "len": 1}]}, {"bar": 9, "events": [{"step": 2, "note": 38, "vel": 120, "len": 1}, {"step": 6, "note": 38, "vel": 120, "len": 1}]}, {"bar": 10, "events": [{"step": 2, "note": 38, "vel": 120, "len": 1}, {"step": 6, "note": 38, "vel": 120, "len": 1}]}, {"bar": 11, "events": [{"step": 2, "note": 38, "vel": 120, "len": 1}, {"step": 6, "note": 38, "vel": 120, "len": 1}]}, {"bar": 12, "events": [{"step": 2, "note": 38, "vel": 120, "len": 1}, {"step": 6, "note": 38, "vel": 127, "len": 1}, {"step": 7, "note": 38, "vel": 115, "len": 1}]}, {"bar": 13, "events": [{"step": 2, "note": 38, "vel": 125, "len": 1}, {"step": 6, "note": 38, "vel": 125, "len": 1}]}, {"bar": 14, "events": [{"step": 2, "note": 38, "vel": 125, "len": 1}, {"step": 6, "note": 38, "vel": 125, "len": 1}]}, {"bar": 15, "events": [{"step": 2, "note": 38, "vel": 125, "len": 1}, {"step": 6, "note": 38, "vel": 125, "len": 1}]}, {"bar": 16, "events": [{"step": 1, "note": 38, "vel": 115, "len": 1}, {"step": 3, "note": 38, "vel": 127, "len": 1}]}], "Hat": [{"bar": 1, "events": [{"step": 0, "note": 42, "vel": 70, "len": 1}, {"step": 1, "note": 42, "vel": 60, "len": 1}, {"step": 2, "note": 42, "vel": 70, "len": 1}, {"step": 3, "note": 42, "vel": 60, "len": 1}, {"step": 4, "note": 42, "vel": 70, "len": 1}, {"step": 5, "note": 42, "vel": 60, "len": 1}, {"step": 6, "note": 42, "vel": 70, "len": 1}, {"step": 7, "note": 42, "vel": 60, "len": 1}]}, {"bar": 2, "events": [{"step": 0, "note": 42, "vel": 70, "len": 1}, {"step": 1, "note": 42, "vel": 60, "len": 1}, {"step": 2, "note": 42, "vel": 70, "len": 1}, {"step": 3, "note": 42, "vel": 60, "len": 1}, {"step": 4, "note": 42, "vel": 70, "len": 1}, {"step": 5, "note": 42, "vel": 60, "len": 1}, {"step": 6, "note": 42, "vel": 70, "len": 1}, {"step": 7, "note": 42, "vel": 60, "len": 1}]}, {"bar": 3, "events": [{"step": 0, "note": 42, "vel": 70, "len": 1}, {"step": 1, "note": 42, "vel": 60, "len": 1}, {"step": 2, "note": 42, "vel": 70, "len": 1}, {"step": 3, "note": 42, "vel": 60, "len": 1}, {"step": 4, "note": 42, "vel": 70, "len": 1}, {"step": 5, "note": 42, "vel": 60, "len": 1}, {"step": 6, "note": 42, "vel": 70, "len": 1}, {"step": 7, "note": 42, "vel": 60, "len": 1}]}, {"bar": 4, "events": [{"step": 0, "note": 42, "vel": 70, "len": 1}, {"step": 1, "note": 42, "vel": 60, "len": 1}, {"step": 2, "note": 42, "vel": 70, "len": 1}, {"step": 3, "note": 42, "vel": 60, "len": 1}, {"step": 4, "note": 46, "vel": 85, "len": 1}]}, {"bar": 5, "events": [{"step": 0, "note": 42, "vel": 80, "len": 1}, {"step": 1, "note": 42, "vel": 70, "len": 1}, {"step": 2, "note": 46, "vel": 90, "len": 1}, {"step": 3, "note": 42, "vel": 70, "len": 1}, {"step": 4, "note": 42, "vel": 80, "len": 1}, {"step": 5, "note": 42, "vel": 70, "len": 1}, {"step": 6, "note": 46, "vel": 90, "len": 1}, {"step": 7, "note": 42, "vel": 70, "len": 1}]}, {"bar": 6, "events": [{"step": 0, "note": 42, "vel": 80, "len": 1}, {"step": 1, "note": 42, "vel": 70, "len": 1}, {"step": 2, "note": 46, "vel": 90, "len": 1}, {"step": 3, "note": 42, "vel": 70, "len": 1}, {"step": 4, "note": 42, "vel": 80, "len": 1}, {"step": 5, "note": 42, "vel": 70, "len": 1}, {"step": 6, "note": 46, "vel": 90, "len": 1}, {"step": 7, "note": 42, "vel": 70, "len": 1}]}, {"bar": 7, "events": [{"step": 0, "note": 42, "vel": 80, "len": 1}, {"step": 1, "note": 42, "vel": 70, "len": 1}, {"step": 2, "note": 46, "vel": 90, "len": 1}, {"step": 3, "note": 42, "vel": 70, "len": 1}, {"step": 4, "note": 42, "vel": 80, "len": 1}, {"step": 5, "note": 42, "vel": 70, "len": 1}, {"step": 6, "note": 46, "vel": 90, "len": 1}, {"step": 7, "note": 42, "vel": 70, "len": 1}]}, {"bar": 8, "events": [{"step": 0, "note": 46, "vel": 95, "len": 1}, {"step": 2, "note": 46, "vel": 95, "len": 1}, {"step": 4, "note": 46, "vel": 95, "len": 1}, {"step": 6, "note": 46, "vel": 95, "len": 1}]}], "Ride": [{"bar": 9, "events": [{"step": 0, "note": 51, "vel": 100, "len": 1}, {"step": 1, "note": 51, "vel": 85, "len": 1}, {"step": 2, "note": 51, "vel": 100, "len": 1}, {"step": 3, "note": 51, "vel": 85, "len": 1}, {"step": 4, "note": 51, "vel": 100, "len": 1}, {"step": 5, "note": 51, "vel": 85, "len": 1}, {"step": 6, "note": 51, "vel": 100, "len": 1}, {"step": 7, "note": 51, "vel": 85, "len": 1}]}, {"bar": 10, "events": [{"step": 0, "note": 51, "vel": 100, "len": 1}, {"step": 1, "note": 51, "vel": 85, "len": 1}, {"step": 2, "note": 51, "vel": 100, "len": 1}, {"step": 3, "note": 51, "vel": 85, "len": 1}, {"step": 4, "note": 51, "vel": 100, "len": 1}, {"step": 5, "note": 51, "vel": 85, "len": 1}, {"step": 6, "note": 51, "vel": 100, "len": 1}, {"step": 7, "note": 51, "vel": 85, "len": 1}]}, {"bar": 11, "events": [{"step": 0, "note": 51, "vel": 100, "len": 1}, {"step": 1, "note": 51, "vel": 85, "len": 1}, {"step": 2, "note": 51, "vel": 100, "len": 1}, {"step": 3, "note": 51, "vel": 85, "len": 1}, {"step": 4, "note": 51, "vel": 100, "len": 1}, {"step": 5, "note": 51, "vel": 85, "len": 1}, {"step": 6, "note": 51, "vel": 100, "len": 1}, {"step": 7, "note": 51, "vel": 85, "len": 1}]}, {"bar": 12, "events": [{"step": 0, "note": 51, "vel": 100, "len": 1}, {"step": 1, "note": 51, "vel": 85, "len": 1}, {"step": 2, "note": 51, "vel": 100, "len": 1}, {"step": 3, "note": 51, "vel": 85, "len": 1}, {"step": 4, "note": 51, "vel": 100, "len": 1}]}], "Crash": [{"bar": 5, "events": [{"step": 0, "note": 49, "vel": 110, "len": 1}]}, {"bar": 9, "events": [{"step": 0, "note": 49, "vel": 120, "len": 1}]}, {"bar": 13, "events": [{"step": 0, "note": 49, "vel": 127, "len": 1}]}, {"bar": 16, "events": [{"step": 4, "note": 49, "vel": 127, "len": 1}]}], "HiHat": []}, "meta": {"style": "Hard Rock", "tempo": 128, "bars": 16, "resolution": 8, "key": "E", "scale": "Minor Pentatonic", "mood": "Energetic", "meter": "4/4", "dynamic_profile": "Crescendo", "arrangement_density": "Focused", "harmonic_color": "Distorted", "length_seconds": 30, "instrument_configs": [{"name": "Electric Guitar", "register": "Mid", "role": "Accompaniment", "articulation": "Sustain", "dynamic_range": "Moderate"}, {"name": "Bass Guitar", "register": "Low", "role": "Bass", "articulation": "Sustain", "dynamic_range": "Consistent"}, {"name": "Kick", "register": "Low", "role": "Percussion", "articulation": "Percussive", "dynamic_range": "High"}, {"name": "Snare", "register": "Mid", "role": "Percussion", "articulation": "Percussive", "dynamic_range": "High"}, {"name": "Hat", "register": "High", "role": "Percussion", "articulation": "Percussive", "dynamic_range": "Moderate"}, {"name": "Crash", "register": "High", "role": "Percussion", "articulation": "Percussive", "dynamic_range": "High"}, {"name": "Ride", "register": "High", "role": "Percussion", "articulation": "Percussive", "dynamic_range": "Moderate"}], "instruments": ["Electric Guitar", "Bass Guitar", "Kick", "Snare", "Hat", "Crash", "Ride"]}}, "midi_per_instrument": null, "tracks": [{"instrument": "Electric Guitar", "enabled": true, "volume_db": 0.0, "pan": 0.0}, {"instrument": "Bass Guitar", "enabled": true, "volume_db": -3.0, "pan": 0.0}, {"instrument": "Kick", "enabled": true, "volume_db": -3.0, "pan": 0.0}, {"instrument": "Snare", "enabled": true, "volume_db": -3.0, "pan": 0.0}, {"instrument": "Hat", "enabled": true, "volume_db": -3.0, "pan": 0.0}, {"instrument": "Crash", "enabled": true, "volume_db": -3.0, "pan": 0.0}, {"instrument": "Ride", "enabled": true, "volume_db": -3.0, "pan": 0.0}], "selected_samples": {"Ride": "Drums/Dance/DNC_Ride.wav", "Crash": "Drums/Kits/Drum Kit 03/OverH_Crash_003cogg.wav", "Hat": "Drums/RealDrumkits/RD_Hat_1.wav", "Snare": "Drums/Kits/Drum Kit 07/FLS_Snare 07a.wav", "Kick": "Drums/Kits/Drum Kit 01/FLS_Kick 01.wav", "Bass Guitar": "Instruments/Guitar/Bass/FLStudio Bass 02/09 DEEPER PURPLE_PLUCK G1ogg.wav", "Electric Guitar": "Instruments/Guitar/Guitar/Electric Guitar 01/04 DARK STAR METAL_G2OGG.wav"}, "fadeout_seconds": 0.01}, "response": {"project_name": "rocky roccky", "run_id": "a9d0e02a8c24", "mix_wav_rel": "output\\a9d0e02a8c24\\rocky roccky_mix_1766675592.wav", "stems": [{"instrument": "Electric Guitar", "audio_rel": "output\\a9d0e02a8c24\\rocky roccky_Electric Guitar_1766675592.wav"}, {"instrument": "Bass Guitar", "audio_rel": "output\\a9d0e02a8c24\\rocky roccky_Bass Guitar_1766675592.wav"}, {"instrument": "Kick", "audio_rel": "output\\a9d0e02a8c24\\rocky roccky_Kick_1766675592.wav"}, {"instrument": "Snare", "audio_rel": "output\\a9d0e02a8c24\\rocky roccky_Snare_1766675592.wav"}, {"instrument": "Hat", "audio_rel": "output\\a9d0e02a8c24\\rocky roccky_Hat_1766675592.wav"}, {"instrument": "Crash", "audio_rel": "output\\a9d0e02a8c24\\rocky roccky_Crash_1766675592.wav"}, {"instrument": "Ride", "audio_rel": "output\\a9d0e02a8c24\\rocky roccky_Ride_1766675592.wav"}], "sample_rate": 44100, "duration_seconds": 30.0}}