{"pattern": [{"bar": 0, "events": [{"step": 0, "note": 36, "vel": 120, "len": 1}, {"step": 0, "note": 49, "vel": 115, "len": 4}, {"step": 1, "note": 42, "vel": 85, "len": 1}, {"step": 2, "note": 36, "vel": 110, "len": 1}, {"step": 2, "note": 42, "vel": 95, "len": 1}, {"step": 3, "note": 42, "vel": 85, "len": 1}, {"step": 4, "note": 38, "vel": 125, "len": 1}, {"step": 4, "note": 42, "vel": 95, "len": 1}, {"step": 5, "note": 42, "vel": 85, "len": 1}, {"step": 6, "note": 36, "vel": 110, "len": 1}, {"step": 6, "note": 42, "vel": 95, "len": 1}, {"step": 7, "note": 42, "vel": 85, "len": 1}]}, {"bar": 1, "events": [{"step": 0, "note": 36, "vel": 120, "len": 1}, {"step": 0, "note": 42, "vel": 95, "len": 1}, {"step": 1, "note": 42, "vel": 85, "len": 1}, {"step": 2, "note": 36, "vel": 105, "len": 1}, {"step": 2, "note": 42, "vel": 95, "len": 1}, {"step": 3, "note": 42, "vel": 85, "len": 1}, {"step": 4, "note": 38, "vel": 125, "len": 1}, {"step": 4, "note": 46, "vel": 100, "len": 1}, {"step": 5, "note": 36, "vel": 100, "len": 1}, {"step": 6, "note": 42, "vel": 95, "len": 1}, {"step": 7, "note": 38, "vel": 80, "len": 1}]}], "layers": {"Electric Guitar": [{"bar": 0, "events": [{"step": 0, "note": 52, "vel": 120, "len": 2}, {"step": 0, "note": 59, "vel": 115, "len": 2}, {"step": 2, "note": 52, "vel": 100, "len": 1}, {"step": 3, "note": 55, "vel": 105, "len": 1}, {"step": 4, "note": 57, "vel": 120, "len": 2}, {"step": 4, "note": 64, "vel": 110, "len": 2}, {"step": 6, "note": 55, "vel": 100, "len": 1}, {"step": 7, "note": 50, "vel": 95, "len": 1}]}, {"bar": 1, "events": [{"step": 0, "note": 52, "vel": 120, "len": 2}, {"step": 0, "note": 59, "vel": 115, "len": 2}, {"step": 2, "note": 50, "vel": 100, "len": 1}, {"step": 3, "note": 52, "vel": 105, "len": 1}, {"step": 4, "note": 48, "vel": 115, "len": 2}, {"step": 4, "note": 55, "vel": 110, "len": 2}, {"step": 6, "note": 50, "vel": 110, "len": 2}, {"step": 6, "note": 57, "vel": 105, "len": 2}]}], "Bass Guitar": [{"bar": 0, "events": [{"step": 0, "note": 40, "vel": 120, "len": 2}, {"step": 2, "note": 40, "vel": 105, "len": 1}, {"step": 3, "note": 43, "vel": 110, "len": 1}, {"step": 4, "note": 45, "vel": 120, "len": 2}, {"step": 6, "note": 43, "vel": 105, "len": 1}, {"step": 7, "note": 38, "vel": 100, "len": 1}]}, {"bar": 1, "events": [{"step": 0, "note": 40, "vel": 120, "len": 2}, {"step": 2, "note": 38, "vel": 105, "len": 1}, {"step": 3, "note": 40, "vel": 110, "len": 1}, {"step": 4, "note": 36, "vel": 120, "len": 2}, {"step": 6, "note": 38, "vel": 115, "len": 2}]}]}, "meta": {"status": "success", "tempo": 125, "key": "E", "scale": "Minor", "style": "Alternative Rock", "mood": "Energetic", "meter": "4/4", "dynamic_profile": "High Contrast", "arrangement_density": "Dense", "harmonic_color": "Distorted", "length_seconds": 165.0, "bars": 86, "instrument_configs": [{"name": "Electric Guitar", "register": "High", "role": "Lead", "articulation": "Legato", "dynamic_range": "Intense"}, {"name": "Bass Guitar", "register": "Low", "role": "Bass", "articulation": "Pizzicato", "dynamic_range": "Moderate"}, {"name": "Kick", "register": "Sub", "role": "Percussion", "articulation": "Percussive", "dynamic_range": "Intense"}, {"name": "Snare", "register": "Mid", "role": "Percussion", "articulation": "Percussive", "dynamic_range": "Intense"}, {"name": "Hat", "register": "High", "role": "Percussion", "articulation": "Percussive", "dynamic_range": "Moderate"}, {"name": "Crash", "register": "Very High", "role": "Percussion", "articulation": "Sustain", "dynamic_range": "Fortissimo"}, {"name": "Ride", "register": "High", "role": "Percussion", "articulation": "Sustain", "dynamic_range": "Moderate"}, {"name": "Tom", "register": "Low", "role": "Percussion", "articulation": "Percussive", "dynamic_range": "Intense"}], "instruments": ["Electric Guitar", "Bass Guitar", "Kick", "Snare", "Hat", "Crash", "Ride", "Tom"]}}