{"pattern": [{"bar": 1, "events": [{"step": 0, "note": 36, "vel": 100, "len": 2}, {"step": 2, "note": 42, "vel": 80, "len": 1}, {"step": 4, "note": 38, "vel": 120, "len": 1}, {"step": 6, "note": 42, "vel": 80, "len": 1}]}, {"bar": 2, "events": [{"step": 0, "note": 36, "vel": 100, "len": 2}, {"step": 3, "note": 42, "vel": 80, "len": 1}, {"step": 5, "note": 38, "vel": 120, "len": 1}, {"step": 7, "note": 42, "vel": 80, "len": 1}]}, {"bar": 3, "events": [{"step": 1, "note": 42, "vel": 80, "len": 1}, {"step": 3, "note": 38, "vel": 120, "len": 1}, {"step": 5, "note": 42, "vel": 80, "len": 1}, {"step": 7, "note": 36, "vel": 100, "len": 2}]}, {"bar": 4, "events": [{"step": 0, "note": 36, "vel": 100, "len": 2}, {"step": 2, "note": 42, "vel": 80, "len": 1}, {"step": 4, "note": 38, "vel": 120, "len": 1}, {"step": 6, "note": 42, "vel": 80, "len": 1}]}, {"bar": 5, "events": [{"step": 0, "note": 42, "vel": 80, "len": 1}, {"step": 2, "note": 38, "vel": 120, "len": 1}, {"step": 4, "note": 42, "vel": 80, "len": 1}, {"step": 6, "note": 36, "vel": 100, "len": 2}]}, {"bar": 6, "events": [{"step": 1, "note": 36, "vel": 100, "len": 2}, {"step": 3, "note": 42, "vel": 80, "len": 1}, {"step": 5, "note": 38, "vel": 120, "len": 1}, {"step": 7, "note": 42, "vel": 80, "len": 1}]}, {"bar": 7, "events": [{"step": 0, "note": 38, "vel": 120, "len": 1}, {"step": 2, "note": 42, "vel": 80, "len": 1}, {"step": 4, "note": 36, "vel": 100, "len": 2}, {"step": 6, "note": 42, "vel": 80, "len": 1}]}, {"bar": 8, "events": [{"step": 0, "note": 36, "vel": 100, "len": 2}, {"step": 2, "note": 42, "vel": 80, "len": 1}, {"step": 4, "note": 38, "vel": 120, "len": 1}, {"step": 6, "note": 42, "vel": 80, "len": 1}]}, {"bar": 9, "events": [{"step": 1, "note": 42, "vel": 80, "len": 1}, {"step": 3, "note": 38, "vel": 120, "len": 1}, {"step": 5, "note": 42, "vel": 80, "len": 1}, {"step": 7, "note": 36, "vel": 100, "len": 2}]}, {"bar": 10, "events": [{"step": 0, "note": 42, "vel": 80, "len": 1}, {"step": 2, "note": 38, "vel": 120, "len": 1}, {"step": 4, "note": 42, "vel": 80, "len": 1}, {"step": 6, "note": 36, "vel": 100, "len": 2}]}, {"bar": 11, "events": [{"step": 0, "note": 36, "vel": 100, "len": 2}, {"step": 2, "note": 42, "vel": 80, "len": 1}, {"step": 4, "note": 38, "vel": 120, "len": 1}, {"step": 6, "note": 42, "vel": 80, "len": 1}]}, {"bar": 12, "events": [{"step": 1, "note": 36, "vel": 100, "len": 2}, {"step": 3, "note": 42, "vel": 80, "len": 1}, {"step": 5, "note": 38, "vel": 120, "len": 1}, {"step": 7, "note": 42, "vel": 80, "len": 1}]}, {"bar": 13, "events": [{"step": 0, "note": 38, "vel": 120, "len": 1}, {"step": 2, "note": 42, "vel": 80, "len": 1}, {"step": 4, "note": 36, "vel": 100, "len": 2}, {"step": 6, "note": 42, "vel": 80, "len": 1}]}, {"bar": 14, "events": [{"step": 0, "note": 36, "vel": 100, "len": 2}, {"step": 2, "note": 42, "vel": 80, "len": 1}, {"step": 4, "note": 38, "vel": 120, "len": 1}, {"step": 6, "note": 42, "vel": 80, "len": 1}]}, {"bar": 15, "events": [{"step": 1, "note": 42, "vel": 80, "len": 1}, {"step": 3, "note": 38, "vel": 120, "len": 1}, {"step": 5, "note": 42, "vel": 80, "len": 1}, {"step": 7, "note": 36, "vel": 100, "len": 2}]}, {"bar": 16, "events": [{"step": 0, "note": 42, "vel": 80, "len": 1}, {"step": 2, "note": 38, "vel": 120, "len": 1}, {"step": 4, "note": 42, "vel": 80, "len": 1}, {"step": 6, "note": 36, "vel": 100, "len": 2}]}], "layers": {"Piano": [{"bar": 1, "events": [{"step": 0, "note": 60, "vel": 80, "len": 4}]}, {"bar": 2, "events": [{"step": 2, "note": 64, "vel": 80, "len": 2}]}, {"bar": 3, "events": [{"step": 0, "note": 67, "vel": 80, "len": 4}]}, {"bar": 4, "events": [{"step": 2, "note": 71, "vel": 80, "len": 2}]}, {"bar": 5, "events": [{"step": 0, "note": 60, "vel": 80, "len": 4}]}, {"bar": 6, "events": [{"step": 2, "note": 64, "vel": 80, "len": 2}]}, {"bar": 7, "events": [{"step": 0, "note": 67, "vel": 80, "len": 4}]}, {"bar": 8, "events": [{"step": 2, "note": 71, "vel": 80, "len": 2}]}, {"bar": 9, "events": [{"step": 0, "note": 60, "vel": 80, "len": 4}]}, {"bar": 10, "events": [{"step": 2, "note": 64, "vel": 80, "len": 2}]}, {"bar": 11, "events": [{"step": 0, "note": 67, "vel": 80, "len": 4}]}, {"bar": 12, "events": [{"step": 2, "note": 71, "vel": 80, "len": 2}]}, {"bar": 13, "events": [{"step": 0, "note": 60, "vel": 80, "len": 4}]}, {"bar": 14, "events": [{"step": 2, "note": 64, "vel": 80, "len": 2}]}, {"bar": 15, "events": [{"step": 0, "note": 67, "vel": 80, "len": 4}]}, {"bar": 16, "events": [{"step": 2, "note": 71, "vel": 80, "len": 2}]}], "Sax": [{"bar": 1, "events": [{"step": 4, "note": 72, "vel": 100, "len": 1}]}, {"bar": 2, "events": [{"step": 6, "note": 76, "vel": 100, "len": 1}]}, {"bar": 3, "events": [{"step": 4, "note": 72, "vel": 100, "len": 1}]}, {"bar": 4, "events": [{"step": 6, "note": 76, "vel": 100, "len": 1}]}, {"bar": 5, "events": [{"step": 4, "note": 72, "vel": 100, "len": 1}]}, {"bar": 6, "events": [{"step": 6, "note": 76, "vel": 100, "len": 1}]}, {"bar": 7, "events": [{"step": 4, "note": 72, "vel": 100, "len": 1}]}, {"bar": 8, "events": [{"step": 6, "note": 76, "vel": 100, "len": 1}]}, {"bar": 9, "events": [{"step": 4, "note": 72, "vel": 100, "len": 1}]}, {"bar": 10, "events": [{"step": 6, "note": 76, "vel": 100, "len": 1}]}, {"bar": 11, "events": [{"step": 4, "note": 72, "vel": 100, "len": 1}]}, {"bar": 12, "events": [{"step": 6, "note": 76, "vel": 100, "len": 1}]}, {"bar": 13, "events": [{"step": 4, "note": 72, "vel": 100, "len": 1}]}, {"bar": 14, "events": [{"step": 6, "note": 76, "vel": 100, "len": 1}]}, {"bar": 15, "events": [{"step": 4, "note": 72, "vel": 100, "len": 1}]}, {"bar": 16, "events": [{"step": 6, "note": 76, "vel": 100, "len": 1}]}], "Strings": [{"bar": 1, "events": [{"step": 0, "note": 48, "vel": 60, "len": 8}]}, {"bar": 2, "events": [{"step": 0, "note": 48, "vel": 60, "len": 8}]}, {"bar": 3, "events": [{"step": 0, "note": 48, "vel": 60, "len": 8}]}, {"bar": 4, "events": [{"step": 0, "note": 48, "vel": 60, "len": 8}]}, {"bar": 5, "events": [{"step": 0, "note": 48, "vel": 60, "len": 8}]}, {"bar": 6, "events": [{"step": 0, "note": 48, "vel": 60, "len": 8}]}, {"bar": 7, "events": [{"step": 0, "note": 48, "vel": 60, "len": 8}]}, {"bar": 8, "events": [{"step": 0, "note": 48, "vel": 60, "len": 8}]}, {"bar": 9, "events": [{"step": 0, "note": 48, "vel": 60, "len": 8}]}, {"bar": 10, "events": [{"step": 0, "note": 48, "vel": 60, "len": 8}]}, {"bar": 11, "events": [{"step": 0, "note": 48, "vel": 60, "len": 8}]}, {"bar": 12, "events": [{"step": 0, "note": 48, "vel": 60, "len": 8}]}, {"bar": 13, "events": [{"step": 0, "note": 48, "vel": 60, "len": 8}]}, {"bar": 14, "events": [{"step": 0, "note": 48, "vel": 60, "len": 8}]}, {"bar": 15, "events": [{"step": 0, "note": 48, "vel": 60, "len": 8}]}, {"bar": 16, "events": [{"step": 0, "note": 48, "vel": 60, "len": 8}]}]}, "meta": {"tempo": 90, "key": "C minor", "scale": "Natural minor", "style": "Experimental", "mood": "Melancholic", "meter": "4/4", "dynamic_profile": "Contrasting", "arrangement_density": "Moderate", "harmonic_color": "Dissonant", "length_seconds": 107.0, "bars": 16, "instrument_configs": [{"name": "Piano", "register": "Mid", "role": "Lead", "articulation": "Legato", "dynamic_range": "Moderate"}, {"name": "Sax", "register": "High", "role": "Accompaniment", "articulation": "Staccato", "dynamic_range": "Intense"}, {"name": "Strings", "register": "Full", "role": "Pad", "articulation": "Sustain", "dynamic_range": "Delicate"}], "instruments": ["Piano", "Sax", "Strings"]}}