{"meta": {"status": "success", "tempo": 90, "key": "C Major", "scale": "Major", "style": "Ambient", "mood": "Relaxed", "meter": "4/4", "dynamic_profile": "Crescendo-Decrescendo", "arrangement_density": "Sparse", "harmonic_color": "Bright", "length_seconds": 160.0, "bars": 16, "instrument_configs": [{"name": "Piano", "register": "Mid", "role": "Lead", "articulation": "Legato", "dynamic_range": "Delicate"}], "instruments": ["Piano"], "instrument": "Piano"}, "layers": {"Piano": [{"bar": 1, "events": [{"step": 0, "note": 60, "vel": 40, "len": 2}, {"step": 2, "note": 64, "vel": 30, "len": 2}, {"step": 4, "note": 67, "vel": 20, "len": 2}, {"step": 6, "note": 72, "vel": 40, "len": 2}]}, {"bar": 2, "events": [{"step": 0, "note": 65, "vel": 30, "len": 2}, {"step": 2, "note": 69, "vel": 20, "len": 2}, {"step": 4, "note": 73, "vel": 40, "len": 2}, {"step": 6, "note": 76, "vel": 30, "len": 2}]}, {"bar": 3, "events": [{"step": 0, "note": 60, "vel": 40, "len": 2}, {"step": 2, "note": 64, "vel": 30, "len": 2}, {"step": 4, "note": 67, "vel": 20, "len": 2}, {"step": 6, "note": 72, "vel": 40, "len": 2}]}, {"bar": 4, "events": [{"step": 0, "note": 65, "vel": 30, "len": 2}, {"step": 2, "note": 69, "vel": 20, "len": 2}, {"step": 4, "note": 73, "vel": 40, "len": 2}, {"step": 6, "note": 76, "vel": 30, "len": 2}]}, {"bar": 5, "events": [{"step": 0, "note": 62, "vel": 40, "len": 2}, {"step": 2, "note": 66, "vel": 30, "len": 2}, {"step": 4, "note": 70, "vel": 20, "len": 2}, {"step": 6, "note": 74, "vel": 40, "len": 2}]}, {"bar": 6, "events": [{"step": 0, "note": 67, "vel": 30, "len": 2}, {"step": 2, "note": 71, "vel": 20, "len": 2}, {"step": 4, "note": 75, "vel": 40, "len": 2}, {"step": 6, "note": 78, "vel": 30, "len": 2}]}, {"bar": 7, "events": [{"step": 0, "note": 60, "vel": 40, "len": 2}, {"step": 2, "note": 64, "vel": 30, "len": 2}, {"step": 4, "note": 67, "vel": 20, "len": 2}, {"step": 6, "note": 72, "vel": 40, "len": 2}]}, {"bar": 8, "events": [{"step": 0, "note": 65, "vel": 30, "len": 2}, {"step": 2, "note": 69, "vel": 20, "len": 2}, {"step": 4, "note": 73, "vel": 40, "len": 2}, {"step": 6, "note": 76, "vel": 30, "len": 2}]}, {"bar": 9, "events": [{"step": 0, "note": 62, "vel": 40, "len": 2}, {"step": 2, "note": 66, "vel": 30, "len": 2}, {"step": 4, "note": 70, "vel": 20, "len": 2}, {"step": 6, "note": 74, "vel": 40, "len": 2}]}, {"bar": 10, "events": [{"step": 0, "note": 67, "vel": 30, "len": 2}, {"step": 2, "note": 71, "vel": 20, "len": 2}, {"step": 4, "note": 75, "vel": 40, "len": 2}, {"step": 6, "note": 78, "vel": 30, "len": 2}]}, {"bar": 11, "events": [{"step": 0, "note": 60, "vel": 40, "len": 2}, {"step": 2, "note": 64, "vel": 30, "len": 2}, {"step": 4, "note": 67, "vel": 20, "len": 2}, {"step": 6, "note": 72, "vel": 40, "len": 2}]}, {"bar": 12, "events": [{"step": 0, "note": 65, "vel": 30, "len": 2}, {"step": 2, "note": 69, "vel": 20, "len": 2}, {"step": 4, "note": 73, "vel": 40, "len": 2}, {"step": 6, "note": 76, "vel": 30, "len": 2}]}, {"bar": 13, "events": [{"step": 0, "note": 62, "vel": 40, "len": 2}, {"step": 2, "note": 66, "vel": 30, "len": 2}, {"step": 4, "note": 70, "vel": 20, "len": 2}, {"step": 6, "note": 74, "vel": 40, "len": 2}]}, {"bar": 14, "events": [{"step": 0, "note": 67, "vel": 30, "len": 2}, {"step": 2, "note": 71, "vel": 20, "len": 2}, {"step": 4, "note": 75, "vel": 40, "len": 2}, {"step": 6, "note": 78, "vel": 30, "len": 2}]}, {"bar": 15, "events": [{"step": 0, "note": 60, "vel": 40, "len": 2}, {"step": 2, "note": 64, "vel": 30, "len": 2}, {"step": 4, "note": 67, "vel": 20, "len": 2}, {"step": 6, "note": 72, "vel": 40, "len": 2}]}, {"bar": 16, "events": [{"step": 0, "note": 65, "vel": 30, "len": 2}, {"step": 2, "note": 69, "vel": 20, "len": 2}, {"step": 4, "note": 73, "vel": 40, "len": 2}, {"step": 6, "note": 76, "vel": 30, "len": 2}]}]}, "pattern": [{"bar": 1, "events": [{"step": 0, "note": 60, "vel": 40, "len": 2}, {"step": 2, "note": 64, "vel": 30, "len": 2}, {"step": 4, "note": 67, "vel": 20, "len": 2}, {"step": 6, "note": 72, "vel": 40, "len": 2}]}, {"bar": 2, "events": [{"step": 0, "note": 65, "vel": 30, "len": 2}, {"step": 2, "note": 69, "vel": 20, "len": 2}, {"step": 4, "note": 73, "vel": 40, "len": 2}, {"step": 6, "note": 76, "vel": 30, "len": 2}]}, {"bar": 3, "events": [{"step": 0, "note": 60, "vel": 40, "len": 2}, {"step": 2, "note": 64, "vel": 30, "len": 2}, {"step": 4, "note": 67, "vel": 20, "len": 2}, {"step": 6, "note": 72, "vel": 40, "len": 2}]}, {"bar": 4, "events": [{"step": 0, "note": 65, "vel": 30, "len": 2}, {"step": 2, "note": 69, "vel": 20, "len": 2}, {"step": 4, "note": 73, "vel": 40, "len": 2}, {"step": 6, "note": 76, "vel": 30, "len": 2}]}, {"bar": 5, "events": [{"step": 0, "note": 62, "vel": 40, "len": 2}, {"step": 2, "note": 66, "vel": 30, "len": 2}, {"step": 4, "note": 70, "vel": 20, "len": 2}, {"step": 6, "note": 74, "vel": 40, "len": 2}]}, {"bar": 6, "events": [{"step": 0, "note": 67, "vel": 30, "len": 2}, {"step": 2, "note": 71, "vel": 20, "len": 2}, {"step": 4, "note": 75, "vel": 40, "len": 2}, {"step": 6, "note": 78, "vel": 30, "len": 2}]}, {"bar": 7, "events": [{"step": 0, "note": 60, "vel": 40, "len": 2}, {"step": 2, "note": 64, "vel": 30, "len": 2}, {"step": 4, "note": 67, "vel": 20, "len": 2}, {"step": 6, "note": 72, "vel": 40, "len": 2}]}, {"bar": 8, "events": [{"step": 0, "note": 65, "vel": 30, "len": 2}, {"step": 2, "note": 69, "vel": 20, "len": 2}, {"step": 4, "note": 73, "vel": 40, "len": 2}, {"step": 6, "note": 76, "vel": 30, "len": 2}]}, {"bar": 9, "events": [{"step": 0, "note": 62, "vel": 40, "len": 2}, {"step": 2, "note": 66, "vel": 30, "len": 2}, {"step": 4, "note": 70, "vel": 20, "len": 2}, {"step": 6, "note": 74, "vel": 40, "len": 2}]}, {"bar": 10, "events": [{"step": 0, "note": 67, "vel": 30, "len": 2}, {"step": 2, "note": 71, "vel": 20, "len": 2}, {"step": 4, "note": 75, "vel": 40, "len": 2}, {"step": 6, "note": 78, "vel": 30, "len": 2}]}, {"bar": 11, "events": [{"step": 0, "note": 60, "vel": 40, "len": 2}, {"step": 2, "note": 64, "vel": 30, "len": 2}, {"step": 4, "note": 67, "vel": 20, "len": 2}, {"step": 6, "note": 72, "vel": 40, "len": 2}]}, {"bar": 12, "events": [{"step": 0, "note": 65, "vel": 30, "len": 2}, {"step": 2, "note": 69, "vel": 20, "len": 2}, {"step": 4, "note": 73, "vel": 40, "len": 2}, {"step": 6, "note": 76, "vel": 30, "len": 2}]}, {"bar": 13, "events": [{"step": 0, "note": 62, "vel": 40, "len": 2}, {"step": 2, "note": 66, "vel": 30, "len": 2}, {"step": 4, "note": 70, "vel": 20, "len": 2}, {"step": 6, "note": 74, "vel": 40, "len": 2}]}, {"bar": 14, "events": [{"step": 0, "note": 67, "vel": 30, "len": 2}, {"step": 2, "note": 71, "vel": 20, "len": 2}, {"step": 4, "note": 75, "vel": 40, "len": 2}, {"step": 6, "note": 78, "vel": 30, "len": 2}]}, {"bar": 15, "events": [{"step": 0, "note": 60, "vel": 40, "len": 2}, {"step": 2, "note": 64, "vel": 30, "len": 2}, {"step": 4, "note": 67, "vel": 20, "len": 2}, {"step": 6, "note": 72, "vel": 40, "len": 2}]}, {"bar": 16, "events": [{"step": 0, "note": 65, "vel": 30, "len": 2}, {"step": 2, "note": 69, "vel": 20, "len": 2}, {"step": 4, "note": 73, "vel": 40, "len": 2}, {"step": 6, "note": 76, "vel": 30, "len": 2}]}]}