{"meta": {"tempo": 90, "key": "C minor", "scale": "Natural minor", "style": "Experimental", "mood": "Melancholic", "meter": "4/4", "dynamic_profile": "Contrasting", "arrangement_density": "Medium", "harmonic_color": "Dissonant", "length_seconds": 107.0, "bars": 16, "instrument_configs": [{"name": "Piano", "register": "Mid", "role": "Lead", "articulation": "Legato", "dynamic_range": "Moderate"}, {"name": "Sax", "register": "High", "role": "Accompaniment", "articulation": "Staccato", "dynamic_range": "Intense"}, {"name": "Strings", "register": "Full", "role": "Pad", "articulation": "Sustain", "dynamic_range": "Delicate"}], "instruments": ["Piano", "Sax", "Strings"], "instrument": "Strings"}, "layers": {"Strings": [{"bar": 1, "events": [{"step": 0, "note": 48, "vel": 50, "len": 4}, {"step": 4, "note": 52, "vel": 50, "len": 4}]}, {"bar": 2, "events": [{"step": 0, "note": 48, "vel": 50, "len": 4}, {"step": 4, "note": 55, "vel": 50, "len": 4}]}, {"bar": 3, "events": [{"step": 0, "note": 50, "vel": 50, "len": 4}, {"step": 4, "note": 53, "vel": 50, "len": 4}]}, {"bar": 4, "events": [{"step": 0, "note": 48, "vel": 50, "len": 4}, {"step": 4, "note": 52, "vel": 50, "len": 4}]}, {"bar": 5, "events": [{"step": 0, "note": 50, "vel": 50, "len": 4}, {"step": 4, "note": 55, "vel": 50, "len": 4}]}, {"bar": 6, "events": [{"step": 0, "note": 48, "vel": 50, "len": 4}, {"step": 4, "note": 53, "vel": 50, "len": 4}]}, {"bar": 7, "events": [{"step": 0, "note": 50, "vel": 50, "len": 4}, {"step": 4, "note": 52, "vel": 50, "len": 4}]}, {"bar": 8, "events": [{"step": 0, "note": 48, "vel": 50, "len": 4}, {"step": 4, "note": 55, "vel": 50, "len": 4}]}, {"bar": 9, "events": [{"step": 0, "note": 50, "vel": 50, "len": 4}, {"step": 4, "note": 53, "vel": 50, "len": 4}]}, {"bar": 10, "events": [{"step": 0, "note": 48, "vel": 50, "len": 4}, {"step": 4, "note": 52, "vel": 50, "len": 4}]}, {"bar": 11, "events": [{"step": 0, "note": 50, "vel": 50, "len": 4}, {"step": 4, "note": 55, "vel": 50, "len": 4}]}, {"bar": 12, "events": [{"step": 0, "note": 48, "vel": 50, "len": 4}, {"step": 4, "note": 53, "vel": 50, "len": 4}]}, {"bar": 13, "events": [{"step": 0, "note": 50, "vel": 50, "len": 4}, {"step": 4, "note": 52, "vel": 50, "len": 4}]}, {"bar": 14, "events": [{"step": 0, "note": 48, "vel": 50, "len": 4}, {"step": 4, "note": 55, "vel": 50, "len": 4}]}, {"bar": 15, "events": [{"step": 0, "note": 50, "vel": 50, "len": 4}, {"step": 4, "note": 53, "vel": 50, "len": 4}]}, {"bar": 16, "events": [{"step": 0, "note": 48, "vel": 50, "len": 4}, {"step": 4, "note": 52, "vel": 50, "len": 4}]}]}, "pattern": [{"bar": 1, "events": [{"step": 0, "note": 48, "vel": 50, "len": 4}, {"step": 4, "note": 52, "vel": 50, "len": 4}]}, {"bar": 2, "events": [{"step": 0, "note": 48, "vel": 50, "len": 4}, {"step": 4, "note": 55, "vel": 50, "len": 4}]}, {"bar": 3, "events": [{"step": 0, "note": 50, "vel": 50, "len": 4}, {"step": 4, "note": 53, "vel": 50, "len": 4}]}, {"bar": 4, "events": [{"step": 0, "note": 48, "vel": 50, "len": 4}, {"step": 4, "note": 52, "vel": 50, "len": 4}]}, {"bar": 5, "events": [{"step": 0, "note": 50, "vel": 50, "len": 4}, {"step": 4, "note": 55, "vel": 50, "len": 4}]}, {"bar": 6, "events": [{"step": 0, "note": 48, "vel": 50, "len": 4}, {"step": 4, "note": 53, "vel": 50, "len": 4}]}, {"bar": 7, "events": [{"step": 0, "note": 50, "vel": 50, "len": 4}, {"step": 4, "note": 52, "vel": 50, "len": 4}]}, {"bar": 8, "events": [{"step": 0, "note": 48, "vel": 50, "len": 4}, {"step": 4, "note": 55, "vel": 50, "len": 4}]}, {"bar": 9, "events": [{"step": 0, "note": 50, "vel": 50, "len": 4}, {"step": 4, "note": 53, "vel": 50, "len": 4}]}, {"bar": 10, "events": [{"step": 0, "note": 48, "vel": 50, "len": 4}, {"step": 4, "note": 52, "vel": 50, "len": 4}]}, {"bar": 11, "events": [{"step": 0, "note": 50, "vel": 50, "len": 4}, {"step": 4, "note": 55, "vel": 50, "len": 4}]}, {"bar": 12, "events": [{"step": 0, "note": 48, "vel": 50, "len": 4}, {"step": 4, "note": 53, "vel": 50, "len": 4}]}, {"bar": 13, "events": [{"step": 0, "note": 50, "vel": 50, "len": 4}, {"step": 4, "note": 52, "vel": 50, "len": 4}]}, {"bar": 14, "events": [{"step": 0, "note": 48, "vel": 50, "len": 4}, {"step": 4, "note": 55, "vel": 50, "len": 4}]}, {"bar": 15, "events": [{"step": 0, "note": 50, "vel": 50, "len": 4}, {"step": 4, "note": 53, "vel": 50, "len": 4}]}, {"bar": 16, "events": [{"step": 0, "note": 48, "vel": 50, "len": 4}, {"step": 4, "note": 52, "vel": 50, "len": 4}]}]}