{"meta": {"tempo": 90, "key": "C minor", "scale": "Natural minor", "style": "Experimental", "mood": "Melancholic", "meter": "4/4", "dynamic_profile": "Contrasting", "arrangement_density": "Medium", "harmonic_color": "Dissonant", "length_seconds": 107.0, "bars": 16, "instrument_configs": [{"name": "Piano", "register": "Mid", "role": "Lead", "articulation": "Legato", "dynamic_range": "Moderate"}, {"name": "Sax", "register": "High", "role": "Accompaniment", "articulation": "Staccato", "dynamic_range": "Intense"}, {"name": "Strings", "register": "Full", "role": "Pad", "articulation": "Sustain", "dynamic_range": "Delicate"}], "instruments": ["Piano", "Sax", "Strings"], "instrument": "Piano"}, "layers": {"Piano": [{"bar": 1, "events": [{"step": 0, "note": 60, "vel": 70, "len": 2}, {"step": 2, "note": 64, "vel": 60, "len": 2}, {"step": 4, "note": 67, "vel": 70, "len": 2}, {"step": 6, "note": 71, "vel": 60, "len": 2}]}, {"bar": 2, "events": [{"step": 0, "note": 60, "vel": 70, "len": 2}, {"step": 3, "note": 65, "vel": 60, "len": 2}, {"step": 5, "note": 68, "vel": 70, "len": 2}, {"step": 7, "note": 72, "vel": 60, "len": 2}]}, {"bar": 3, "events": [{"step": 1, "note": 62, "vel": 60, "len": 2}, {"step": 3, "note": 66, "vel": 70, "len": 2}, {"step": 5, "note": 69, "vel": 60, "len": 2}, {"step": 7, "note": 73, "vel": 70, "len": 2}]}, {"bar": 4, "events": [{"step": 0, "note": 60, "vel": 70, "len": 2}, {"step": 2, "note": 63, "vel": 60, "len": 2}, {"step": 4, "note": 67, "vel": 70, "len": 2}, {"step": 6, "note": 70, "vel": 60, "len": 2}]}, {"bar": 5, "events": [{"step": 0, "note": 61, "vel": 60, "len": 2}, {"step": 2, "note": 65, "vel": 70, "len": 2}, {"step": 4, "note": 68, "vel": 60, "len": 2}, {"step": 6, "note": 72, "vel": 70, "len": 2}]}, {"bar": 6, "events": [{"step": 1, "note": 60, "vel": 70, "len": 2}, {"step": 3, "note": 64, "vel": 60, "len": 2}, {"step": 5, "note": 67, "vel": 70, "len": 2}, {"step": 7, "note": 71, "vel": 60, "len": 2}]}, {"bar": 7, "events": [{"step": 0, "note": 62, "vel": 60, "len": 2}, {"step": 2, "note": 66, "vel": 70, "len": 2}, {"step": 4, "note": 69, "vel": 60, "len": 2}, {"step": 6, "note": 73, "vel": 70, "len": 2}]}, {"bar": 8, "events": [{"step": 0, "note": 61, "vel": 60, "len": 2}, {"step": 2, "note": 63, "vel": 70, "len": 2}, {"step": 4, "note": 68, "vel": 60, "len": 2}, {"step": 6, "note": 70, "vel": 70, "len": 2}]}, {"bar": 9, "events": [{"step": 1, "note": 60, "vel": 70, "len": 2}, {"step": 3, "note": 65, "vel": 60, "len": 2}, {"step": 5, "note": 67, "vel": 70, "len": 2}, {"step": 7, "note": 72, "vel": 60, "len": 2}]}, {"bar": 10, "events": [{"step": 0, "note": 62, "vel": 60, "len": 2}, {"step": 2, "note": 66, "vel": 70, "len": 2}, {"step": 4, "note": 69, "vel": 60, "len": 2}, {"step": 6, "note": 73, "vel": 70, "len": 2}]}, {"bar": 11, "events": [{"step": 0, "note": 61, "vel": 60, "len": 2}, {"step": 2, "note": 64, "vel": 70, "len": 2}, {"step": 4, "note": 68, "vel": 60, "len": 2}, {"step": 6, "note": 71, "vel": 70, "len": 2}]}, {"bar": 12, "events": [{"step": 1, "note": 60, "vel": 70, "len": 2}, {"step": 3, "note": 63, "vel": 60, "len": 2}, {"step": 5, "note": 67, "vel": 70, "len": 2}, {"step": 7, "note": 70, "vel": 60, "len": 2}]}, {"bar": 13, "events": [{"step": 0, "note": 62, "vel": 60, "len": 2}, {"step": 2, "note": 65, "vel": 70, "len": 2}, {"step": 4, "note": 69, "vel": 60, "len": 2}, {"step": 6, "note": 72, "vel": 70, "len": 2}]}, {"bar": 14, "events": [{"step": 0, "note": 61, "vel": 60, "len": 2}, {"step": 2, "note": 66, "vel": 70, "len": 2}, {"step": 4, "note": 68, "vel": 60, "len": 2}, {"step": 6, "note": 73, "vel": 70, "len": 2}]}, {"bar": 15, "events": [{"step": 1, "note": 60, "vel": 70, "len": 2}, {"step": 3, "note": 64, "vel": 60, "len": 2}, {"step": 5, "note": 67, "vel": 70, "len": 2}, {"step": 7, "note": 71, "vel": 60, "len": 2}]}, {"bar": 16, "events": [{"step": 0, "note": 62, "vel": 60, "len": 2}, {"step": 2, "note": 63, "vel": 70, "len": 2}, {"step": 4, "note": 69, "vel": 60, "len": 2}, {"step": 6, "note": 70, "vel": 70, "len": 2}]}]}, "pattern": [{"bar": 1, "events": [{"step": 0, "note": 60, "vel": 70, "len": 2}, {"step": 2, "note": 64, "vel": 60, "len": 2}, {"step": 4, "note": 67, "vel": 70, "len": 2}, {"step": 6, "note": 71, "vel": 60, "len": 2}]}, {"bar": 2, "events": [{"step": 0, "note": 60, "vel": 70, "len": 2}, {"step": 3, "note": 65, "vel": 60, "len": 2}, {"step": 5, "note": 68, "vel": 70, "len": 2}, {"step": 7, "note": 72, "vel": 60, "len": 2}]}, {"bar": 3, "events": [{"step": 1, "note": 62, "vel": 60, "len": 2}, {"step": 3, "note": 66, "vel": 70, "len": 2}, {"step": 5, "note": 69, "vel": 60, "len": 2}, {"step": 7, "note": 73, "vel": 70, "len": 2}]}, {"bar": 4, "events": [{"step": 0, "note": 60, "vel": 70, "len": 2}, {"step": 2, "note": 63, "vel": 60, "len": 2}, {"step": 4, "note": 67, "vel": 70, "len": 2}, {"step": 6, "note": 70, "vel": 60, "len": 2}]}, {"bar": 5, "events": [{"step": 0, "note": 61, "vel": 60, "len": 2}, {"step": 2, "note": 65, "vel": 70, "len": 2}, {"step": 4, "note": 68, "vel": 60, "len": 2}, {"step": 6, "note": 72, "vel": 70, "len": 2}]}, {"bar": 6, "events": [{"step": 1, "note": 60, "vel": 70, "len": 2}, {"step": 3, "note": 64, "vel": 60, "len": 2}, {"step": 5, "note": 67, "vel": 70, "len": 2}, {"step": 7, "note": 71, "vel": 60, "len": 2}]}, {"bar": 7, "events": [{"step": 0, "note": 62, "vel": 60, "len": 2}, {"step": 2, "note": 66, "vel": 70, "len": 2}, {"step": 4, "note": 69, "vel": 60, "len": 2}, {"step": 6, "note": 73, "vel": 70, "len": 2}]}, {"bar": 8, "events": [{"step": 0, "note": 61, "vel": 60, "len": 2}, {"step": 2, "note": 63, "vel": 70, "len": 2}, {"step": 4, "note": 68, "vel": 60, "len": 2}, {"step": 6, "note": 70, "vel": 70, "len": 2}]}, {"bar": 9, "events": [{"step": 1, "note": 60, "vel": 70, "len": 2}, {"step": 3, "note": 65, "vel": 60, "len": 2}, {"step": 5, "note": 67, "vel": 70, "len": 2}, {"step": 7, "note": 72, "vel": 60, "len": 2}]}, {"bar": 10, "events": [{"step": 0, "note": 62, "vel": 60, "len": 2}, {"step": 2, "note": 66, "vel": 70, "len": 2}, {"step": 4, "note": 69, "vel": 60, "len": 2}, {"step": 6, "note": 73, "vel": 70, "len": 2}]}, {"bar": 11, "events": [{"step": 0, "note": 61, "vel": 60, "len": 2}, {"step": 2, "note": 64, "vel": 70, "len": 2}, {"step": 4, "note": 68, "vel": 60, "len": 2}, {"step": 6, "note": 71, "vel": 70, "len": 2}]}, {"bar": 12, "events": [{"step": 1, "note": 60, "vel": 70, "len": 2}, {"step": 3, "note": 63, "vel": 60, "len": 2}, {"step": 5, "note": 67, "vel": 70, "len": 2}, {"step": 7, "note": 70, "vel": 60, "len": 2}]}, {"bar": 13, "events": [{"step": 0, "note": 62, "vel": 60, "len": 2}, {"step": 2, "note": 65, "vel": 70, "len": 2}, {"step": 4, "note": 69, "vel": 60, "len": 2}, {"step": 6, "note": 72, "vel": 70, "len": 2}]}, {"bar": 14, "events": [{"step": 0, "note": 61, "vel": 60, "len": 2}, {"step": 2, "note": 66, "vel": 70, "len": 2}, {"step": 4, "note": 68, "vel": 60, "len": 2}, {"step": 6, "note": 73, "vel": 70, "len": 2}]}, {"bar": 15, "events": [{"step": 1, "note": 60, "vel": 70, "len": 2}, {"step": 3, "note": 64, "vel": 60, "len": 2}, {"step": 5, "note": 67, "vel": 70, "len": 2}, {"step": 7, "note": 71, "vel": 60, "len": 2}]}, {"bar": 16, "events": [{"step": 0, "note": 62, "vel": 60, "len": 2}, {"step": 2, "note": 63, "vel": 70, "len": 2}, {"step": 4, "note": 69, "vel": 60, "len": 2}, {"step": 6, "note": 70, "vel": 70, "len": 2}]}]}