{"request": {"project_name": "lofi cinematic 2", "run_id": "3d4ade3eeac3", "user_id": 2, "midi": {"pattern": [{"bar": 0, "events": [{"step": 0, "note": 36, "vel": 75, "len": 2}, {"step": 0, "note": 42, "vel": 50, "len": 1}, {"step": 1, "note": 42, "vel": 35, "len": 1}, {"step": 2, "note": 42, "vel": 45, "len": 1}, {"step": 3, "note": 42, "vel": 30, "len": 1}, {"step": 4, "note": 37, "vel": 70, "len": 2}, {"step": 4, "note": 42, "vel": 55, "len": 1}, {"step": 5, "note": 42, "vel": 35, "len": 1}, {"step": 6, "note": 36, "vel": 65, "len": 2}, {"step": 6, "note": 42, "vel": 40, "len": 1}, {"step": 7, "note": 42, "vel": 30, "len": 1}]}, {"bar": 1, "events": [{"step": 0, "note": 36, "vel": 72, "len": 2}, {"step": 0, "note": 42, "vel": 52, "len": 1}, {"step": 2, "note": 42, "vel": 44, "len": 1}, {"step": 4, "note": 37, "vel": 72, "len": 2}, {"step": 4, "note": 42, "vel": 58, "len": 1}, {"step": 5, "note": 36, "vel": 55, "len": 1}, {"step": 6, "note": 42, "vel": 42, "len": 1}]}, {"bar": 2, "events": [{"step": 0, "note": 36, "vel": 75, "len": 2}, {"step": 0, "note": 42, "vel": 50, "len": 1}, {"step": 2, "note": 42, "vel": 45, "len": 1}, {"step": 4, "note": 37, "vel": 70, "len": 2}, {"step": 4, "note": 42, "vel": 55, "len": 1}, {"step": 6, "note": 36, "vel": 68, "len": 2}, {"step": 7, "note": 36, "vel": 50, "len": 1}]}, {"bar": 3, "events": [{"step": 0, "note": 36, "vel": 70, "len": 2}, {"step": 0, "note": 42, "vel": 50, "len": 1}, {"step": 4, "note": 37, "vel": 68, "len": 2}, {"step": 4, "note": 42, "vel": 55, "len": 1}, {"step": 6, "note": 42, "vel": 40, "len": 1}]}], "layers": {"Piano": [{"bar": 0, "events": [{"step": 0, "note": 48, "vel": 55, "len": 8}, {"step": 0, "note": 51, "vel": 52, "len": 8}, {"step": 0, "note": 55, "vel": 50, "len": 8}, {"step": 0, "note": 62, "vel": 60, "len": 3}, {"step": 3, "note": 60, "vel": 55, "len": 2}, {"step": 6, "note": 63, "vel": 58, "len": 2}]}, {"bar": 1, "events": [{"step": 0, "note": 48, "vel": 53, "len": 8}, {"step": 0, "note": 51, "vel": 50, "len": 8}, {"step": 0, "note": 55, "vel": 48, "len": 8}, {"step": 2, "note": 67, "vel": 55, "len": 2}, {"step": 5, "note": 65, "vel": 52, "len": 3}]}, {"bar": 2, "events": [{"step": 0, "note": 44, "vel": 56, "len": 8}, {"step": 0, "note": 48, "vel": 54, "len": 8}, {"step": 0, "note": 51, "vel": 52, "len": 8}, {"step": 0, "note": 60, "vel": 62, "len": 4}, {"step": 4, "note": 58, "vel": 55, "len": 4}]}, {"bar": 3, "events": [{"step": 0, "note": 46, "vel": 55, "len": 8}, {"step": 0, "note": 50, "vel": 53, "len": 8}, {"step": 0, "note": 53, "vel": 50, "len": 8}, {"step": 0, "note": 65, "vel": 60, "len": 2}, {"step": 2, "note": 62, "vel": 58, "len": 2}, {"step": 6, "note": 58, "vel": 52, "len": 2}]}, {"bar": 4, "events": [{"step": 0, "note": 48, "vel": 60, "len": 8}, {"step": 0, "note": 51, "vel": 58, "len": 8}, {"step": 0, "note": 55, "vel": 55, "len": 8}, {"step": 0, "note": 72, "vel": 65, "len": 2}, {"step": 3, "note": 70, "vel": 60, "len": 2}]}, {"bar": 8, "events": [{"step": 0, "note": 41, "vel": 52, "len": 8}, {"step": 0, "note": 44, "vel": 50, "len": 8}, {"step": 0, "note": 48, "vel": 48, "len": 8}, {"step": 2, "note": 60, "vel": 55, "len": 2}, {"step": 6, "note": 65, "vel": 58, "len": 2}]}], "Bass Guitar": [{"bar": 4, "events": [{"step": 0, "note": 36, "vel": 70, "len": 4}, {"step": 5, "note": 36, "vel": 60, "len": 1}, {"step": 7, "note": 43, "vel": 65, "len": 1}]}, {"bar": 5, "events": [{"step": 0, "note": 36, "vel": 72, "len": 4}, {"step": 4, "note": 36, "vel": 65, "len": 2}, {"step": 7, "note": 36, "vel": 55, "len": 1}]}, {"bar": 6, "events": [{"step": 0, "note": 32, "vel": 70, "len": 6}, {"step": 6, "note": 39, "vel": 60, "len": 2}]}, {"bar": 7, "events": [{"step": 0, "note": 31, "vel": 75, "len": 8}]}], "Strings": [{"bar": 8, "events": [{"step": 0, "note": 60, "vel": 30, "len": 8}, {"step": 0, "note": 67, "vel": 30, "len": 8}]}, {"bar": 9, "events": [{"step": 0, "note": 63, "vel": 40, "len": 8}, {"step": 0, "note": 70, "vel": 35, "len": 8}]}, {"bar": 10, "events": [{"step": 0, "note": 60, "vel": 45, "len": 8}, {"step": 0, "note": 68, "vel": 40, "len": 8}]}, {"bar": 11, "events": [{"step": 0, "note": 58, "vel": 50, "len": 8}, {"step": 0, "note": 65, "vel": 45, "len": 8}]}], "Pads": [{"bar": 0, "events": [{"step": 0, "note": 48, "vel": 40, "len": 8}, {"step": 0, "note": 55, "vel": 40, "len": 8}]}, {"bar": 2, "events": [{"step": 0, "note": 44, "vel": 42, "len": 8}, {"step": 0, "note": 51, "vel": 40, "len": 8}]}, {"bar": 4, "events": [{"step": 0, "note": 36, "vel": 45, "len": 8}, {"step": 0, "note": 43, "vel": 42, "len": 8}]}], "Kick": [{"bar": 0, "events": [{"step": 0, "note": 36, "vel": 75, "len": 1}, {"step": 6, "note": 36, "vel": 65, "len": 1}]}, {"bar": 1, "events": [{"step": 0, "note": 36, "vel": 75, "len": 1}, {"step": 5, "note": 36, "vel": 55, "len": 1}]}, {"bar": 4, "events": [{"step": 0, "note": 36, "vel": 80, "len": 1}, {"step": 3, "note": 36, "vel": 50, "len": 1}, {"step": 6, "note": 36, "vel": 70, "len": 1}]}], "Snare": [{"bar": 0, "events": [{"step": 4, "note": 37, "vel": 65, "len": 1}]}, {"bar": 1, "events": [{"step": 4, "note": 37, "vel": 68, "len": 1}]}, {"bar": 5, "events": [{"step": 4, "note": 38, "vel": 75, "len": 1}]}], "Hat": [{"bar": 0, "events": [{"step": 0, "note": 42, "vel": 50, "len": 1}, {"step": 1, "note": 42, "vel": 35, "len": 1}, {"step": 2, "note": 42, "vel": 45, "len": 1}, {"step": 3, "note": 42, "vel": 30, "len": 1}, {"step": 4, "note": 42, "vel": 55, "len": 1}, {"step": 5, "note": 42, "vel": 35, "len": 1}, {"step": 6, "note": 42, "vel": 45, "len": 1}, {"step": 7, "note": 42, "vel": 30, "len": 1}]}]}, "meta": {"style": "Cinematic Lofi", "mood": "Nostalgic, Atmospheric, Relaxed", "tempo": 78, "key": "C Minor", "meter": "4/4", "bars": 16, "length_seconds": 49.2, "dynamic_profile": "Mellow with Swells", "arrangement_density": "Medium", "scale": "Minor", "harmonic_color": "Melancholic", "instrument_configs": [{"name": "Piano", "register": "Mid", "role": "Lead", "articulation": "Legato", "dynamic_range": "Delicate"}, {"name": "Bass Guitar", "register": "Low", "role": "Bass", "articulation": "Sustain", "dynamic_range": "Moderate"}, {"name": "Kick", "register": "Low", "role": "Percussion", "articulation": "Percussive", "dynamic_range": "Moderate"}, {"name": "Snare", "register": "Mid", "role": "Percussion", "articulation": "Percussive", "dynamic_range": "Moderate"}, {"name": "Hat", "register": "High", "role": "Percussion", "articulation": "Percussive", "dynamic_range": "Soft"}, {"name": "Strings", "register": "Mid-High", "role": "Accompaniment", "articulation": "Legato", "dynamic_range": "Swelling"}, {"name": "Pads", "register": "Full", "role": "Pad", "articulation": "Sustain", "dynamic_range": "Static"}], "instruments": ["Piano", "Bass Guitar", "Kick", "Snare", "Hat", "Strings", "Pads"]}}, "midi_per_instrument": null, "tracks": [{"instrument": "Piano", "enabled": true, "volume_db": 0.0, "pan": 0.0}, {"instrument": "Bass Guitar", "enabled": true, "volume_db": -3.0, "pan": 0.0}, {"instrument": "Kick", "enabled": true, "volume_db": -3.0, "pan": 0.0}, {"instrument": "Snare", "enabled": true, "volume_db": -3.0, "pan": 0.0}, {"instrument": "Hat", "enabled": true, "volume_db": -3.0, "pan": 0.0}, {"instrument": "Strings", "enabled": true, "volume_db": -3.0, "pan": 0.0}, {"instrument": "Pads", "enabled": true, "volume_db": -3.0, "pan": 0.0}], "selected_samples": {"Snare": "Drums/RealDrumkits/RD_Snare_8.wav", "Piano": "Instruments/Piano/Piano 1/CHANGPIANOHARD_C8OGG.WAV", "Strings": "Instruments/Strings/STR_Silk_C3.wav", "Pads": "Instruments/Pads/PAD_BellAir.wav", "Hat": "Drums/RealDrumkits/RD_Hat_1.wav", "Kick": "Drums/HipHop/HIP_Kick.wav", "Bass Guitar": "Instruments/Guitar/Bass/FLStudio Bass 02/14 DEEPER PURPLE_PLUCK C2ogg.wav"}, "fadeout_seconds": 0.01}, "response": {"project_name": "lofi cinematic 2", "run_id": "3d4ade3eeac3", "mix_wav_rel": "output\\3d4ade3eeac3\\lofi cinematic 2_mix_1764894447.wav", "stems": [{"instrument": "Piano", "audio_rel": "output\\3d4ade3eeac3\\lofi cinematic 2_Piano_1764894447.wav"}, {"instrument": "Bass Guitar", "audio_rel": "output\\3d4ade3eeac3\\lofi cinematic 2_Bass Guitar_1764894447.wav"}, {"instrument": "Kick", "audio_rel": "output\\3d4ade3eeac3\\lofi cinematic 2_Kick_1764894447.wav"}, {"instrument": "Snare", "audio_rel": "output\\3d4ade3eeac3\\lofi cinematic 2_Snare_1764894447.wav"}, {"instrument": "Hat", "audio_rel": "output\\3d4ade3eeac3\\lofi cinematic 2_Hat_1764894447.wav"}, {"instrument": "Strings", "audio_rel": "output\\3d4ade3eeac3\\lofi cinematic 2_Strings_1764894447.wav"}, {"instrument": "Pads", "audio_rel": "output\\3d4ade3eeac3\\lofi cinematic 2_Pads_1764894447.wav"}], "sample_rate": 44100, "duration_seconds": 49.2}}