{"meta": {"style": "Trap", "mood": "Energetic", "tempo": 140, "key": "C Minor", "bars": 16, "scale": "Minor", "meter": "4/4", "dynamic_profile": "Driving", "arrangement_density": "Sparse", "harmonic_color": "Dark", "length_seconds": 30.0, "instrument_configs": [{"name": "Kick", "register": "Low", "role": "Percussion", "articulation": "Percussive", "dynamic_range": "Intense"}, {"name": "Snare", "register": "Mid", "role": "Percussion", "articulation": "Percussive", "dynamic_range": "Intense"}, {"name": "Hat", "register": "High", "role": "Percussion", "articulation": "Percussive", "dynamic_range": "Moderate"}, {"name": "Clap", "register": "Mid", "role": "Percussion", "articulation": "Percussive", "dynamic_range": "Moderate"}, {"name": "Bass", "register": "Low", "role": "Bass", "articulation": "Sustain", "dynamic_range": "Intense"}, {"name": "Piano", "register": "Mid-High", "role": "Lead", "articulation": "Staccato", "dynamic_range": "Moderate"}, {"name": "Pads", "register": "Mid", "role": "Pad", "articulation": "Sustain", "dynamic_range": "Delicate"}], "instruments": ["Kick", "Snare", "Hat", "Clap", "Bass", "Piano", "Pads"], "instrument": "Piano"}, "layers": {"Piano": [{"bar": 0, "events": [{"step": 0, "note": 72, "vel": 90, "len": 1}, {"step": 1, "note": 75, "vel": 85, "len": 1}, {"step": 2, "note": 79, "vel": 95, "len": 1}, {"step": 3, "note": 75, "vel": 85, "len": 1}, {"step": 4, "note": 72, "vel": 90, "len": 1}, {"step": 5, "note": 74, "vel": 85, "len": 1}, {"step": 6, "note": 70, "vel": 80, "len": 1}, {"step": 7, "note": 67, "vel": 75, "len": 1}]}, {"bar": 1, "events": [{"step": 0, "note": 72, "vel": 90, "len": 1}, {"step": 1, "note": 75, "vel": 85, "len": 1}, {"step": 2, "note": 79, "vel": 95, "len": 1}, {"step": 3, "note": 75, "vel": 85, "len": 1}, {"step": 4, "note": 72, "vel": 90, "len": 1}, {"step": 5, "note": 74, "vel": 85, "len": 1}, {"step": 6, "note": 70, "vel": 80, "len": 1}, {"step": 7, "note": 67, "vel": 75, "len": 1}]}, {"bar": 2, "events": [{"step": 0, "note": 68, "vel": 90, "len": 1}, {"step": 1, "note": 72, "vel": 85, "len": 1}, {"step": 2, "note": 75, "vel": 95, "len": 1}, {"step": 3, "note": 72, "vel": 85, "len": 1}, {"step": 4, "note": 68, "vel": 90, "len": 1}, {"step": 5, "note": 70, "vel": 85, "len": 1}, {"step": 6, "note": 67, "vel": 80, "len": 1}, {"step": 7, "note": 65, "vel": 75, "len": 1}]}, {"bar": 3, "events": [{"step": 0, "note": 67, "vel": 90, "len": 1}, {"step": 1, "note": 70, "vel": 85, "len": 1}, {"step": 2, "note": 74, "vel": 95, "len": 1}, {"step": 3, "note": 70, "vel": 85, "len": 1}, {"step": 4, "note": 67, "vel": 90, "len": 1}, {"step": 5, "note": 65, "vel": 85, "len": 1}, {"step": 6, "note": 63, "vel": 80, "len": 1}, {"step": 7, "note": 62, "vel": 75, "len": 1}]}]}, "pattern": [{"bar": 0, "events": [{"step": 0, "note": 72, "vel": 90, "len": 1}, {"step": 1, "note": 75, "vel": 85, "len": 1}, {"step": 2, "note": 79, "vel": 95, "len": 1}, {"step": 3, "note": 75, "vel": 85, "len": 1}, {"step": 4, "note": 72, "vel": 90, "len": 1}, {"step": 5, "note": 74, "vel": 85, "len": 1}, {"step": 6, "note": 70, "vel": 80, "len": 1}, {"step": 7, "note": 67, "vel": 75, "len": 1}]}, {"bar": 1, "events": [{"step": 0, "note": 72, "vel": 90, "len": 1}, {"step": 1, "note": 75, "vel": 85, "len": 1}, {"step": 2, "note": 79, "vel": 95, "len": 1}, {"step": 3, "note": 75, "vel": 85, "len": 1}, {"step": 4, "note": 72, "vel": 90, "len": 1}, {"step": 5, "note": 74, "vel": 85, "len": 1}, {"step": 6, "note": 70, "vel": 80, "len": 1}, {"step": 7, "note": 67, "vel": 75, "len": 1}]}, {"bar": 2, "events": [{"step": 0, "note": 68, "vel": 90, "len": 1}, {"step": 1, "note": 72, "vel": 85, "len": 1}, {"step": 2, "note": 75, "vel": 95, "len": 1}, {"step": 3, "note": 72, "vel": 85, "len": 1}, {"step": 4, "note": 68, "vel": 90, "len": 1}, {"step": 5, "note": 70, "vel": 85, "len": 1}, {"step": 6, "note": 67, "vel": 80, "len": 1}, {"step": 7, "note": 65, "vel": 75, "len": 1}]}, {"bar": 3, "events": [{"step": 0, "note": 67, "vel": 90, "len": 1}, {"step": 1, "note": 70, "vel": 85, "len": 1}, {"step": 2, "note": 74, "vel": 95, "len": 1}, {"step": 3, "note": 70, "vel": 85, "len": 1}, {"step": 4, "note": 67, "vel": 90, "len": 1}, {"step": 5, "note": 65, "vel": 85, "len": 1}, {"step": 6, "note": 63, "vel": 80, "len": 1}, {"step": 7, "note": 62, "vel": 75, "len": 1}]}]}