{"meta": {"style": "Experimental", "mood": "Melancholic", "tempo": 90, "key": "C minor", "scale": "Natural minor", "meter": "4/4", "bars": 4, "dynamic_profile": "Contrasting", "arrangement_density": "Medium", "harmonic_color": "Dissonant", "length_seconds": 107.0, "instrument_configs": [{"name": "Piano", "register": "Mid", "role": "Lead", "articulation": "Legato", "dynamic_range": "Moderate"}, {"name": "Sax", "register": "High", "role": "Accompaniment", "articulation": "Staccato", "dynamic_range": "Intense"}, {"name": "Pads", "register": "Full", "role": "Pad", "articulation": "Sustain", "dynamic_range": "Delicate"}], "instruments": ["Piano", "Sax", "Pads"], "instrument": "hihat"}, "layers": {"hihat": [{"bar": 0, "events": [{"step": 1, "note": 42, "vel": 70, "len": 1}, {"step": 3, "note": 42, "vel": 65, "len": 1}, {"step": 5, "note": 42, "vel": 60, "len": 1}, {"step": 7, "note": 42, "vel": 55, "len": 1}]}, {"bar": 1, "events": [{"step": 1, "note": 42, "vel": 65, "len": 1}, {"step": 3, "note": 42, "vel": 60, "len": 1}, {"step": 5, "note": 42, "vel": 55, "len": 1}, {"step": 7, "note": 42, "vel": 50, "len": 1}]}, {"bar": 2, "events": [{"step": 1, "note": 42, "vel": 75, "len": 1}, {"step": 3, "note": 42, "vel": 70, "len": 1}, {"step": 5, "note": 42, "vel": 65, "len": 1}, {"step": 7, "note": 42, "vel": 60, "len": 1}]}, {"bar": 3, "events": [{"step": 1, "note": 42, "vel": 80, "len": 1}, {"step": 3, "note": 42, "vel": 75, "len": 1}, {"step": 5, "note": 42, "vel": 70, "len": 1}, {"step": 7, "note": 42, "vel": 65, "len": 1}]}]}, "pattern": [{"bar": 0, "events": [{"step": 1, "note": 42, "vel": 70, "len": 1}, {"step": 3, "note": 42, "vel": 65, "len": 1}, {"step": 5, "note": 42, "vel": 60, "len": 1}, {"step": 7, "note": 42, "vel": 55, "len": 1}]}, {"bar": 1, "events": [{"step": 1, "note": 42, "vel": 65, "len": 1}, {"step": 3, "note": 42, "vel": 60, "len": 1}, {"step": 5, "note": 42, "vel": 55, "len": 1}, {"step": 7, "note": 42, "vel": 50, "len": 1}]}, {"bar": 2, "events": [{"step": 1, "note": 42, "vel": 75, "len": 1}, {"step": 3, "note": 42, "vel": 70, "len": 1}, {"step": 5, "note": 42, "vel": 65, "len": 1}, {"step": 7, "note": 42, "vel": 60, "len": 1}]}, {"bar": 3, "events": [{"step": 1, "note": 42, "vel": 80, "len": 1}, {"step": 3, "note": 42, "vel": 75, "len": 1}, {"step": 5, "note": 42, "vel": 70, "len": 1}, {"step": 7, "note": 42, "vel": 65, "len": 1}]}]}