{"meta": {"status": "success", "tempo": 130, "key": "E", "scale": "Minor", "style": "Modern Rock", "mood": "Energetic", "meter": "4/4", "dynamic_profile": "High Impact", "arrangement_density": "Thick", "harmonic_color": "Distorted", "length_seconds": 30.0, "bars": 8, "instrument_configs": [{"name": "Electric Guitar", "register": "High", "role": "Lead", "articulation": "Legato", "dynamic_range": "Fortissimo"}, {"name": "Bass Guitar", "register": "Low", "role": "Bass", "articulation": "Staccato", "dynamic_range": "Intense"}, {"name": "Kick", "register": "Low", "role": "Percussion", "articulation": "Percussive", "dynamic_range": "Fortissimo"}, {"name": "Snare", "register": "Mid", "role": "Percussion", "articulation": "Percussive", "dynamic_range": "Fortissimo"}, {"name": "Crash", "register": "High", "role": "Percussion", "articulation": "Percussive", "dynamic_range": "Fortissimo"}, {"name": "Hat", "register": "High", "role": "Percussion", "articulation": "Percussive", "dynamic_range": "Intense"}], "instruments": ["Electric Guitar", "Bass Guitar", "Kick", "Snare", "Crash", "Hat"], "instrument": "Electric Guitar"}, "layers": {"Electric Guitar": [{"bar": 1, "events": [{"step": 0, "note": 76, "vel": 115, "len": 3}, {"step": 3, "note": 74, "vel": 110, "len": 1}, {"step": 4, "note": 71, "vel": 112, "len": 2}, {"step": 6, "note": 67, "vel": 105, "len": 2}]}, {"bar": 2, "events": [{"step": 0, "note": 79, "vel": 115, "len": 2}, {"step": 2, "note": 76, "vel": 110, "len": 2}, {"step": 4, "note": 74, "vel": 112, "len": 4}]}, {"bar": 3, "events": [{"step": 0, "note": 83, "vel": 120, "len": 2}, {"step": 2, "note": 81, "vel": 115, "len": 1}, {"step": 3, "note": 79, "vel": 110, "len": 1}, {"step": 4, "note": 76, "vel": 115, "len": 2}, {"step": 6, "note": 71, "vel": 110, "len": 2}]}, {"bar": 4, "events": [{"step": 0, "note": 72, "vel": 115, "len": 2}, {"step": 2, "note": 74, "vel": 110, "len": 2}, {"step": 4, "note": 76, "vel": 118, "len": 4}]}, {"bar": 5, "events": [{"step": 0, "note": 88, "vel": 125, "len": 3}, {"step": 3, "note": 86, "vel": 115, "len": 1}, {"step": 4, "note": 83, "vel": 120, "len": 2}, {"step": 6, "note": 79, "vel": 115, "len": 2}]}, {"bar": 6, "events": [{"step": 0, "note": 76, "vel": 120, "len": 2}, {"step": 2, "note": 79, "vel": 115, "len": 2}, {"step": 4, "note": 81, "vel": 118, "len": 2}, {"step": 6, "note": 83, "vel": 120, "len": 2}]}, {"bar": 7, "events": [{"step": 0, "note": 88, "vel": 127, "len": 2}, {"step": 2, "note": 86, "vel": 120, "len": 1}, {"step": 3, "note": 83, "vel": 115, "len": 1}, {"step": 4, "note": 79, "vel": 118, "len": 2}, {"step": 6, "note": 76, "vel": 115, "len": 2}]}, {"bar": 8, "events": [{"step": 0, "note": 72, "vel": 120, "len": 2}, {"step": 2, "note": 74, "vel": 115, "len": 2}, {"step": 4, "note": 76, "vel": 127, "len": 4}]}]}, "pattern": [{"bar": 1, "events": [{"step": 0, "note": 76, "vel": 115, "len": 3}, {"step": 3, "note": 74, "vel": 110, "len": 1}, {"step": 4, "note": 71, "vel": 112, "len": 2}, {"step": 6, "note": 67, "vel": 105, "len": 2}]}, {"bar": 2, "events": [{"step": 0, "note": 79, "vel": 115, "len": 2}, {"step": 2, "note": 76, "vel": 110, "len": 2}, {"step": 4, "note": 74, "vel": 112, "len": 4}]}, {"bar": 3, "events": [{"step": 0, "note": 83, "vel": 120, "len": 2}, {"step": 2, "note": 81, "vel": 115, "len": 1}, {"step": 3, "note": 79, "vel": 110, "len": 1}, {"step": 4, "note": 76, "vel": 115, "len": 2}, {"step": 6, "note": 71, "vel": 110, "len": 2}]}, {"bar": 4, "events": [{"step": 0, "note": 72, "vel": 115, "len": 2}, {"step": 2, "note": 74, "vel": 110, "len": 2}, {"step": 4, "note": 76, "vel": 118, "len": 4}]}, {"bar": 5, "events": [{"step": 0, "note": 88, "vel": 125, "len": 3}, {"step": 3, "note": 86, "vel": 115, "len": 1}, {"step": 4, "note": 83, "vel": 120, "len": 2}, {"step": 6, "note": 79, "vel": 115, "len": 2}]}, {"bar": 6, "events": [{"step": 0, "note": 76, "vel": 120, "len": 2}, {"step": 2, "note": 79, "vel": 115, "len": 2}, {"step": 4, "note": 81, "vel": 118, "len": 2}, {"step": 6, "note": 83, "vel": 120, "len": 2}]}, {"bar": 7, "events": [{"step": 0, "note": 88, "vel": 127, "len": 2}, {"step": 2, "note": 86, "vel": 120, "len": 1}, {"step": 3, "note": 83, "vel": 115, "len": 1}, {"step": 4, "note": 79, "vel": 118, "len": 2}, {"step": 6, "note": 76, "vel": 115, "len": 2}]}, {"bar": 8, "events": [{"step": 0, "note": 72, "vel": 120, "len": 2}, {"step": 2, "note": 74, "vel": 115, "len": 2}, {"step": 4, "note": 76, "vel": 127, "len": 4}]}]}