{"meta": {"status": "success", "tempo": 130, "key": "E", "scale": "Minor", "style": "Modern Rock", "mood": "Energetic", "meter": "4/4", "dynamic_profile": "High Impact", "arrangement_density": "Thick", "harmonic_color": "Distorted", "length_seconds": 30.0, "bars": 8, "instrument_configs": [{"name": "Electric Guitar", "register": "High", "role": "Lead", "articulation": "Legato", "dynamic_range": "Fortissimo"}, {"name": "Bass Guitar", "register": "Low", "role": "Bass", "articulation": "Staccato", "dynamic_range": "Intense"}, {"name": "Kick", "register": "Low", "role": "Percussion", "articulation": "Percussive", "dynamic_range": "Fortissimo"}, {"name": "Snare", "register": "Mid", "role": "Percussion", "articulation": "Percussive", "dynamic_range": "Fortissimo"}, {"name": "Crash", "register": "High", "role": "Percussion", "articulation": "Percussive", "dynamic_range": "Fortissimo"}, {"name": "Hat", "register": "High", "role": "Percussion", "articulation": "Percussive", "dynamic_range": "Intense"}], "instruments": ["Electric Guitar", "Bass Guitar", "Kick", "Snare", "Crash", "Hat"], "instrument": "Bass Guitar"}, "layers": {"Bass Guitar": [{"bar": 1, "events": [{"step": 0, "note": 28, "vel": 120, "len": 1}, {"step": 1, "note": 28, "vel": 110, "len": 1}, {"step": 3, "note": 28, "vel": 115, "len": 1}, {"step": 4, "note": 28, "vel": 120, "len": 2}, {"step": 6, "note": 28, "vel": 120, "len": 1}, {"step": 7, "note": 28, "vel": 110, "len": 1}]}, {"bar": 2, "events": [{"step": 0, "note": 31, "vel": 120, "len": 2}, {"step": 2, "note": 31, "vel": 115, "len": 2}, {"step": 4, "note": 33, "vel": 120, "len": 2}, {"step": 6, "note": 33, "vel": 115, "len": 2}]}, {"bar": 3, "events": [{"step": 0, "note": 28, "vel": 120, "len": 1}, {"step": 1, "note": 28, "vel": 110, "len": 1}, {"step": 3, "note": 28, "vel": 115, "len": 1}, {"step": 4, "note": 28, "vel": 120, "len": 2}, {"step": 6, "note": 35, "vel": 120, "len": 2}]}, {"bar": 4, "events": [{"step": 0, "note": 36, "vel": 120, "len": 2}, {"step": 2, "note": 36, "vel": 115, "len": 2}, {"step": 4, "note": 38, "vel": 120, "len": 2}, {"step": 6, "note": 38, "vel": 115, "len": 2}]}, {"bar": 5, "events": [{"step": 0, "note": 28, "vel": 127, "len": 1}, {"step": 1, "note": 28, "vel": 115, "len": 1}, {"step": 3, "note": 28, "vel": 120, "len": 1}, {"step": 4, "note": 28, "vel": 125, "len": 2}, {"step": 6, "note": 28, "vel": 120, "len": 2}]}, {"bar": 6, "events": [{"step": 0, "note": 31, "vel": 125, "len": 2}, {"step": 2, "note": 31, "vel": 120, "len": 2}, {"step": 4, "note": 33, "vel": 125, "len": 2}, {"step": 6, "note": 33, "vel": 120, "len": 2}]}, {"bar": 7, "events": [{"step": 0, "note": 28, "vel": 127, "len": 1}, {"step": 1, "note": 28, "vel": 115, "len": 1}, {"step": 3, "note": 28, "vel": 120, "len": 1}, {"step": 4, "note": 28, "vel": 125, "len": 2}, {"step": 6, "note": 35, "vel": 120, "len": 2}]}, {"bar": 8, "events": [{"step": 0, "note": 36, "vel": 125, "len": 2}, {"step": 2, "note": 36, "vel": 120, "len": 2}, {"step": 4, "note": 38, "vel": 127, "len": 2}, {"step": 6, "note": 28, "vel": 127, "len": 2}]}]}, "pattern": [{"bar": 1, "events": [{"step": 0, "note": 28, "vel": 120, "len": 1}, {"step": 1, "note": 28, "vel": 110, "len": 1}, {"step": 3, "note": 28, "vel": 115, "len": 1}, {"step": 4, "note": 28, "vel": 120, "len": 2}, {"step": 6, "note": 28, "vel": 120, "len": 1}, {"step": 7, "note": 28, "vel": 110, "len": 1}]}, {"bar": 2, "events": [{"step": 0, "note": 31, "vel": 120, "len": 2}, {"step": 2, "note": 31, "vel": 115, "len": 2}, {"step": 4, "note": 33, "vel": 120, "len": 2}, {"step": 6, "note": 33, "vel": 115, "len": 2}]}, {"bar": 3, "events": [{"step": 0, "note": 28, "vel": 120, "len": 1}, {"step": 1, "note": 28, "vel": 110, "len": 1}, {"step": 3, "note": 28, "vel": 115, "len": 1}, {"step": 4, "note": 28, "vel": 120, "len": 2}, {"step": 6, "note": 35, "vel": 120, "len": 2}]}, {"bar": 4, "events": [{"step": 0, "note": 36, "vel": 120, "len": 2}, {"step": 2, "note": 36, "vel": 115, "len": 2}, {"step": 4, "note": 38, "vel": 120, "len": 2}, {"step": 6, "note": 38, "vel": 115, "len": 2}]}, {"bar": 5, "events": [{"step": 0, "note": 28, "vel": 127, "len": 1}, {"step": 1, "note": 28, "vel": 115, "len": 1}, {"step": 3, "note": 28, "vel": 120, "len": 1}, {"step": 4, "note": 28, "vel": 125, "len": 2}, {"step": 6, "note": 28, "vel": 120, "len": 2}]}, {"bar": 6, "events": [{"step": 0, "note": 31, "vel": 125, "len": 2}, {"step": 2, "note": 31, "vel": 120, "len": 2}, {"step": 4, "note": 33, "vel": 125, "len": 2}, {"step": 6, "note": 33, "vel": 120, "len": 2}]}, {"bar": 7, "events": [{"step": 0, "note": 28, "vel": 127, "len": 1}, {"step": 1, "note": 28, "vel": 115, "len": 1}, {"step": 3, "note": 28, "vel": 120, "len": 1}, {"step": 4, "note": 28, "vel": 125, "len": 2}, {"step": 6, "note": 35, "vel": 120, "len": 2}]}, {"bar": 8, "events": [{"step": 0, "note": 36, "vel": 125, "len": 2}, {"step": 2, "note": 36, "vel": 120, "len": 2}, {"step": 4, "note": 38, "vel": 127, "len": 2}, {"step": 6, "note": 28, "vel": 127, "len": 2}]}]}