{"meta": {"status": "success", "tempo": 130, "key": "E", "scale": "Minor", "style": "Modern Rock", "mood": "High Energy", "meter": "4/4", "dynamic_profile": "Constant High", "arrangement_density": "Dense", "harmonic_color": "Distorted Power Chords", "length_seconds": 30.0, "bars": 8, "instrument_configs": [{"name": "Electric Guitar", "register": "High", "role": "Lead", "articulation": "Legato", "dynamic_range": "Fortissimo"}, {"name": "Bass Guitar", "register": "Low", "role": "Bass", "articulation": "Pizzicato", "dynamic_range": "Intense"}, {"name": "Kick", "register": "Sub", "role": "Percussion", "articulation": "Percussive", "dynamic_range": "Intense"}, {"name": "Snare", "register": "Mid", "role": "Percussion", "articulation": "Percussive", "dynamic_range": "Fortissimo"}, {"name": "Crash", "register": "High", "role": "Percussion", "articulation": "Percussive", "dynamic_range": "Intense"}, {"name": "Hat", "register": "High", "role": "Percussion", "articulation": "Percussive", "dynamic_range": "Moderate"}], "instruments": ["Electric Guitar", "Bass Guitar", "Kick", "Snare", "Crash", "Hat"], "instrument": "Hat"}, "layers": {}, "pattern": [{"bar": 1, "events": [{"step": 0, "note": 46, "vel": 100, "len": 1}, {"step": 1, "note": 46, "vel": 90, "len": 1}, {"step": 2, "note": 46, "vel": 100, "len": 1}, {"step": 3, "note": 46, "vel": 90, "len": 1}, {"step": 4, "note": 46, "vel": 100, "len": 1}, {"step": 5, "note": 46, "vel": 90, "len": 1}, {"step": 6, "note": 46, "vel": 100, "len": 1}, {"step": 7, "note": 46, "vel": 90, "len": 1}]}, {"bar": 2, "events": [{"step": 0, "note": 46, "vel": 100, "len": 1}, {"step": 1, "note": 46, "vel": 90, "len": 1}, {"step": 2, "note": 46, "vel": 100, "len": 1}, {"step": 3, "note": 46, "vel": 90, "len": 1}, {"step": 4, "note": 46, "vel": 100, "len": 1}, {"step": 5, "note": 46, "vel": 90, "len": 1}, {"step": 6, "note": 46, "vel": 100, "len": 1}, {"step": 7, "note": 46, "vel": 90, "len": 1}]}, {"bar": 3, "events": [{"step": 0, "note": 46, "vel": 100, "len": 1}, {"step": 1, "note": 46, "vel": 90, "len": 1}, {"step": 2, "note": 46, "vel": 100, "len": 1}, {"step": 3, "note": 46, "vel": 90, "len": 1}, {"step": 4, "note": 46, "vel": 100, "len": 1}, {"step": 5, "note": 46, "vel": 90, "len": 1}, {"step": 6, "note": 46, "vel": 100, "len": 1}, {"step": 7, "note": 46, "vel": 90, "len": 1}]}, {"bar": 4, "events": [{"step": 0, "note": 46, "vel": 100, "len": 1}, {"step": 1, "note": 46, "vel": 90, "len": 1}, {"step": 2, "note": 46, "vel": 100, "len": 1}]}, {"bar": 5, "events": [{"step": 0, "note": 46, "vel": 100, "len": 1}, {"step": 1, "note": 46, "vel": 90, "len": 1}, {"step": 2, "note": 46, "vel": 100, "len": 1}, {"step": 3, "note": 46, "vel": 90, "len": 1}, {"step": 4, "note": 46, "vel": 100, "len": 1}, {"step": 5, "note": 46, "vel": 90, "len": 1}, {"step": 6, "note": 46, "vel": 100, "len": 1}, {"step": 7, "note": 46, "vel": 90, "len": 1}]}, {"bar": 6, "events": [{"step": 0, "note": 46, "vel": 100, "len": 1}, {"step": 1, "note": 46, "vel": 90, "len": 1}, {"step": 2, "note": 46, "vel": 100, "len": 1}, {"step": 3, "note": 46, "vel": 90, "len": 1}, {"step": 4, "note": 46, "vel": 100, "len": 1}, {"step": 5, "note": 46, "vel": 90, "len": 1}, {"step": 6, "note": 46, "vel": 100, "len": 1}, {"step": 7, "note": 46, "vel": 90, "len": 1}]}, {"bar": 7, "events": []}, {"bar": 8, "events": []}]}