{"request": {"project_name": "efsdfs", "run_id": "dc36274d-2c74-449f-9079-0e38ea5dc03e", "midi": {"pattern": [{"bar": 1, "events": [{"step": 0, "note": 36, "vel": 127, "len": 2}, {"step": 0, "note": 42, "vel": 90, "len": 1}, {"step": 1, "note": 42, "vel": 75, "len": 1}, {"step": 2, "note": 42, "vel": 90, "len": 1}, {"step": 3, "note": 42, "vel": 75, "len": 1}, {"step": 4, "note": 38, "vel": 120, "len": 1}, {"step": 4, "note": 42, "vel": 95, "len": 1}, {"step": 5, "note": 36, "vel": 115, "len": 2}, {"step": 5, "note": 42, "vel": 75, "len": 1}, {"step": 6, "note": 42, "vel": 90, "len": 1}, {"step": 7, "note": 42, "vel": 75, "len": 1}]}, {"bar": 2, "events": [{"step": 0, "note": 36, "vel": 127, "len": 2}, {"step": 0, "note": 42, "vel": 90, "len": 1}, {"step": 1, "note": 42, "vel": 75, "len": 1}, {"step": 2, "note": 42, "vel": 90, "len": 1}, {"step": 3, "note": 36, "vel": 110, "len": 2}, {"step": 3, "note": 42, "vel": 75, "len": 1}, {"step": 4, "note": 38, "vel": 120, "len": 1}, {"step": 4, "note": 42, "vel": 95, "len": 1}, {"step": 5, "note": 36, "vel": 115, "len": 2}, {"step": 5, "note": 42, "vel": 75, "len": 1}, {"step": 6, "note": 42, "vel": 90, "len": 1}, {"step": 7, "note": 42, "vel": 75, "len": 1}]}, {"bar": 3, "events": [{"step": 0, "note": 36, "vel": 127, "len": 2}, {"step": 0, "note": 42, "vel": 90, "len": 1}, {"step": 1, "note": 42, "vel": 75, "len": 1}, {"step": 2, "note": 42, "vel": 90, "len": 1}, {"step": 3, "note": 42, "vel": 75, "len": 1}, {"step": 4, "note": 38, "vel": 120, "len": 1}, {"step": 4, "note": 42, "vel": 95, "len": 1}, {"step": 5, "note": 36, "vel": 115, "len": 2}, {"step": 5, "note": 42, "vel": 75, "len": 1}, {"step": 6, "note": 42, "vel": 90, "len": 1}, {"step": 7, "note": 42, "vel": 75, "len": 1}]}, {"bar": 4, "events": [{"step": 0, "note": 36, "vel": 127, "len": 2}, {"step": 0, "note": 42, "vel": 90, "len": 1}, {"step": 1, "note": 42, "vel": 75, "len": 1}, {"step": 2, "note": 42, "vel": 90, "len": 1}, {"step": 3, "note": 42, "vel": 75, "len": 1}, {"step": 4, "note": 38, "vel": 120, "len": 1}, {"step": 4, "note": 39, "vel": 95, "len": 1}, {"step": 4, "note": 42, "vel": 95, "len": 1}, {"step": 5, "note": 42, "vel": 75, "len": 1}, {"step": 6, "note": 36, "vel": 120, "len": 2}, {"step": 6, "note": 42, "vel": 90, "len": 1}, {"step": 7, "note": 42, "vel": 75, "len": 1}]}, {"bar": 5, "events": [{"step": 0, "note": 36, "vel": 127, "len": 2}, {"step": 0, "note": 42, "vel": 90, "len": 1}, {"step": 2, "note": 42, "vel": 90, "len": 1}, {"step": 3, "note": 42, "vel": 80, "len": 1}, {"step": 4, "note": 38, "vel": 120, "len": 1}, {"step": 4, "note": 42, "vel": 95, "len": 1}, {"step": 5, "note": 36, "vel": 115, "len": 2}, {"step": 6, "note": 42, "vel": 90, "len": 1}, {"step": 7, "note": 42, "vel": 80, "len": 1}]}, {"bar": 6, "events": [{"step": 0, "note": 36, "vel": 127, "len": 2}, {"step": 0, "note": 42, "vel": 90, "len": 1}, {"step": 2, "note": 42, "vel": 90, "len": 1}, {"step": 3, "note": 36, "vel": 110, "len": 2}, {"step": 3, "note": 42, "vel": 80, "len": 1}, {"step": 4, "note": 38, "vel": 120, "len": 1}, {"step": 4, "note": 42, "vel": 95, "len": 1}, {"step": 5, "note": 36, "vel": 115, "len": 2}, {"step": 6, "note": 42, "vel": 90, "len": 1}, {"step": 7, "note": 42, "vel": 80, "len": 1}]}, {"bar": 7, "events": [{"step": 0, "note": 36, "vel": 127, "len": 2}, {"step": 0, "note": 42, "vel": 90, "len": 1}, {"step": 2, "note": 42, "vel": 90, "len": 1}, {"step": 3, "note": 42, "vel": 80, "len": 1}, {"step": 4, "note": 38, "vel": 120, "len": 1}, {"step": 4, "note": 42, "vel": 95, "len": 1}, {"step": 5, "note": 36, "vel": 115, "len": 2}, {"step": 6, "note": 42, "vel": 90, "len": 1}, {"step": 7, "note": 42, "vel": 80, "len": 1}]}, {"bar": 8, "events": [{"step": 0, "note": 36, "vel": 127, "len": 2}, {"step": 0, "note": 42, "vel": 90, "len": 1}, {"step": 2, "note": 42, "vel": 90, "len": 1}, {"step": 3, "note": 42, "vel": 80, "len": 1}, {"step": 4, "note": 38, "vel": 120, "len": 1}, {"step": 4, "note": 39, "vel": 95, "len": 1}, {"step": 4, "note": 42, "vel": 95, "len": 1}, {"step": 6, "note": 36, "vel": 120, "len": 2}, {"step": 6, "note": 42, "vel": 90, "len": 1}, {"step": 7, "note": 42, "vel": 80, "len": 1}]}, {"bar": 9, "events": [{"step": 0, "note": 36, "vel": 127, "len": 2}, {"step": 0, "note": 42, "vel": 90, "len": 1}, {"step": 1, "note": 42, "vel": 70, "len": 1}, {"step": 3, "note": 42, "vel": 80, "len": 1}, {"step": 4, "note": 38, "vel": 120, "len": 1}, {"step": 4, "note": 42, "vel": 95, "len": 1}, {"step": 5, "note": 36, "vel": 115, "len": 2}, {"step": 5, "note": 42, "vel": 70, "len": 1}, {"step": 6, "note": 42, "vel": 90, "len": 1}]}, {"bar": 10, "events": [{"step": 0, "note": 36, "vel": 127, "len": 2}, {"step": 0, "note": 42, "vel": 90, "len": 1}, {"step": 1, "note": 42, "vel": 70, "len": 1}, {"step": 3, "note": 36, "vel": 110, "len": 2}, {"step": 3, "note": 42, "vel": 80, "len": 1}, {"step": 4, "note": 38, "vel": 120, "len": 1}, {"step": 4, "note": 42, "vel": 95, "len": 1}, {"step": 5, "note": 36, "vel": 115, "len": 2}, {"step": 5, "note": 42, "vel": 70, "len": 1}, {"step": 6, "note": 42, "vel": 90, "len": 1}]}, {"bar": 11, "events": [{"step": 0, "note": 36, "vel": 127, "len": 2}, {"step": 0, "note": 42, "vel": 90, "len": 1}, {"step": 1, "note": 42, "vel": 70, "len": 1}, {"step": 3, "note": 42, "vel": 80, "len": 1}, {"step": 4, "note": 38, "vel": 120, "len": 1}, {"step": 4, "note": 42, "vel": 95, "len": 1}, {"step": 5, "note": 36, "vel": 115, "len": 2}, {"step": 5, "note": 42, "vel": 70, "len": 1}, {"step": 6, "note": 42, "vel": 90, "len": 1}]}, {"bar": 12, "events": [{"step": 0, "note": 36, "vel": 127, "len": 2}, {"step": 0, "note": 42, "vel": 90, "len": 1}, {"step": 1, "note": 42, "vel": 70, "len": 1}, {"step": 3, "note": 42, "vel": 80, "len": 1}, {"step": 4, "note": 38, "vel": 120, "len": 1}, {"step": 4, "note": 39, "vel": 95, "len": 1}, {"step": 4, "note": 42, "vel": 95, "len": 1}, {"step": 5, "note": 42, "vel": 70, "len": 1}, {"step": 6, "note": 36, "vel": 120, "len": 2}, {"step": 6, "note": 42, "vel": 90, "len": 1}]}, {"bar": 13, "events": [{"step": 0, "note": 36, "vel": 127, "len": 2}, {"step": 0, "note": 42, "vel": 90, "len": 1}, {"step": 1, "note": 42, "vel": 70, "len": 1}, {"step": 3, "note": 42, "vel": 80, "len": 1}, {"step": 4, "note": 38, "vel": 120, "len": 1}, {"step": 4, "note": 42, "vel": 95, "len": 1}, {"step": 5, "note": 36, "vel": 115, "len": 2}, {"step": 5, "note": 42, "vel": 70, "len": 1}, {"step": 6, "note": 42, "vel": 90, "len": 1}]}, {"bar": 14, "events": [{"step": 0, "note": 36, "vel": 127, "len": 2}, {"step": 0, "note": 42, "vel": 90, "len": 1}, {"step": 1, "note": 42, "vel": 70, "len": 1}, {"step": 3, "note": 36, "vel": 110, "len": 2}, {"step": 3, "note": 42, "vel": 80, "len": 1}, {"step": 4, "note": 38, "vel": 120, "len": 1}, {"step": 4, "note": 42, "vel": 95, "len": 1}, {"step": 5, "note": 36, "vel": 115, "len": 2}, {"step": 5, "note": 42, "vel": 70, "len": 1}, {"step": 6, "note": 42, "vel": 90, "len": 1}]}, {"bar": 15, "events": [{"step": 0, "note": 36, "vel": 127, "len": 2}, {"step": 0, "note": 42, "vel": 90, "len": 1}, {"step": 1, "note": 42, "vel": 70, "len": 1}, {"step": 3, "note": 42, "vel": 80, "len": 1}, {"step": 4, "note": 38, "vel": 120, "len": 1}, {"step": 4, "note": 39, "vel": 95, "len": 1}, {"step": 4, "note": 42, "vel": 95, "len": 1}, {"step": 5, "note": 36, "vel": 115, "len": 2}, {"step": 5, "note": 42, "vel": 70, "len": 1}, {"step": 6, "note": 42, "vel": 90, "len": 1}]}, {"bar": 16, "events": [{"step": 0, "note": 36, "vel": 127, "len": 2}]}], "layers": {"Kick": [{"bar": 1, "events": [{"step": 0, "note": 36, "vel": 127, "len": 2}, {"step": 5, "note": 36, "vel": 115, "len": 2}]}, {"bar": 2, "events": [{"step": 0, "note": 36, "vel": 127, "len": 2}, {"step": 3, "note": 36, "vel": 110, "len": 2}, {"step": 5, "note": 36, "vel": 115, "len": 2}]}, {"bar": 3, "events": [{"step": 0, "note": 36, "vel": 127, "len": 2}, {"step": 5, "note": 36, "vel": 115, "len": 2}]}, {"bar": 4, "events": [{"step": 0, "note": 36, "vel": 127, "len": 2}, {"step": 6, "note": 36, "vel": 120, "len": 2}]}, {"bar": 5, "events": [{"step": 0, "note": 36, "vel": 127, "len": 2}, {"step": 5, "note": 36, "vel": 115, "len": 2}]}, {"bar": 6, "events": [{"step": 0, "note": 36, "vel": 127, "len": 2}, {"step": 3, "note": 36, "vel": 110, "len": 2}, {"step": 5, "note": 36, "vel": 115, "len": 2}]}, {"bar": 7, "events": [{"step": 0, "note": 36, "vel": 127, "len": 2}, {"step": 5, "note": 36, "vel": 115, "len": 2}]}, {"bar": 8, "events": [{"step": 0, "note": 36, "vel": 127, "len": 2}, {"step": 6, "note": 36, "vel": 120, "len": 2}]}, {"bar": 9, "events": [{"step": 0, "note": 36, "vel": 127, "len": 2}, {"step": 5, "note": 36, "vel": 115, "len": 2}]}, {"bar": 10, "events": [{"step": 0, "note": 36, "vel": 127, "len": 2}, {"step": 3, "note": 36, "vel": 110, "len": 2}, {"step": 5, "note": 36, "vel": 115, "len": 2}]}, {"bar": 11, "events": [{"step": 0, "note": 36, "vel": 127, "len": 2}, {"step": 5, "note": 36, "vel": 115, "len": 2}]}, {"bar": 12, "events": [{"step": 0, "note": 36, "vel": 127, "len": 2}, {"step": 6, "note": 36, "vel": 120, "len": 2}]}, {"bar": 13, "events": [{"step": 0, "note": 36, "vel": 127, "len": 2}, {"step": 5, "note": 36, "vel": 115, "len": 2}]}, {"bar": 14, "events": [{"step": 0, "note": 36, "vel": 127, "len": 2}, {"step": 3, "note": 36, "vel": 110, "len": 2}, {"step": 5, "note": 36, "vel": 115, "len": 2}]}, {"bar": 15, "events": [{"step": 0, "note": 36, "vel": 127, "len": 2}, {"step": 5, "note": 36, "vel": 115, "len": 2}]}, {"bar": 16, "events": [{"step": 0, "note": 36, "vel": 127, "len": 2}]}], "Snare": [{"bar": 1, "events": [{"step": 4, "note": 38, "vel": 120, "len": 1}]}, {"bar": 2, "events": [{"step": 4, "note": 38, "vel": 120, "len": 1}]}, {"bar": 3, "events": [{"step": 4, "note": 38, "vel": 120, "len": 1}]}, {"bar": 4, "events": [{"step": 4, "note": 38, "vel": 120, "len": 1}]}, {"bar": 5, "events": [{"step": 4, "note": 38, "vel": 120, "len": 1}]}, {"bar": 6, "events": [{"step": 4, "note": 38, "vel": 120, "len": 1}]}, {"bar": 7, "events": [{"step": 4, "note": 38, "vel": 120, "len": 1}]}, {"bar": 8, "events": [{"step": 4, "note": 38, "vel": 120, "len": 1}]}, {"bar": 9, "events": [{"step": 4, "note": 38, "vel": 120, "len": 1}]}, {"bar": 10, "events": [{"step": 4, "note": 38, "vel": 120, "len": 1}]}, {"bar": 11, "events": [{"step": 4, "note": 38, "vel": 120, "len": 1}]}, {"bar": 12, "events": [{"step": 4, "note": 38, "vel": 120, "len": 1}]}, {"bar": 13, "events": [{"step": 4, "note": 38, "vel": 120, "len": 1}]}, {"bar": 14, "events": [{"step": 4, "note": 38, "vel": 120, "len": 1}]}, {"bar": 15, "events": [{"step": 4, "note": 38, "vel": 120, "len": 1}]}], "Clap": [{"bar": 4, "events": [{"step": 4, "note": 39, "vel": 95, "len": 1}]}, {"bar": 8, "events": [{"step": 4, "note": 39, "vel": 95, "len": 1}]}, {"bar": 12, "events": [{"step": 4, "note": 39, "vel": 95, "len": 1}]}, {"bar": 15, "events": [{"step": 4, "note": 39, "vel": 95, "len": 1}]}], "Hat": [{"bar": 1, "events": [{"step": 0, "note": 42, "vel": 90, "len": 1}, {"step": 1, "note": 42, "vel": 75, "len": 1}, {"step": 2, "note": 42, "vel": 90, "len": 1}, {"step": 3, "note": 42, "vel": 75, "len": 1}, {"step": 4, "note": 42, "vel": 95, "len": 1}, {"step": 5, "note": 42, "vel": 75, "len": 1}, {"step": 6, "note": 42, "vel": 90, "len": 1}, {"step": 7, "note": 42, "vel": 75, "len": 1}]}, {"bar": 2, "events": [{"step": 0, "note": 42, "vel": 90, "len": 1}, {"step": 1, "note": 42, "vel": 75, "len": 1}, {"step": 2, "note": 42, "vel": 90, "len": 1}, {"step": 3, "note": 42, "vel": 75, "len": 1}, {"step": 4, "note": 42, "vel": 95, "len": 1}, {"step": 5, "note": 42, "vel": 75, "len": 1}, {"step": 6, "note": 42, "vel": 90, "len": 1}, {"step": 7, "note": 42, "vel": 75, "len": 1}]}, {"bar": 3, "events": [{"step": 0, "note": 42, "vel": 90, "len": 1}, {"step": 1, "note": 42, "vel": 75, "len": 1}, {"step": 2, "note": 42, "vel": 90, "len": 1}, {"step": 3, "note": 42, "vel": 75, "len": 1}, {"step": 4, "note": 42, "vel": 95, "len": 1}, {"step": 5, "note": 42, "vel": 75, "len": 1}, {"step": 6, "note": 42, "vel": 90, "len": 1}, {"step": 7, "note": 42, "vel": 75, "len": 1}]}, {"bar": 4, "events": [{"step": 0, "note": 42, "vel": 90, "len": 1}, {"step": 1, "note": 42, "vel": 75, "len": 1}, {"step": 2, "note": 42, "vel": 90, "len": 1}, {"step": 3, "note": 42, "vel": 75, "len": 1}, {"step": 4, "note": 42, "vel": 95, "len": 1}, {"step": 5, "note": 42, "vel": 75, "len": 1}, {"step": 6, "note": 42, "vel": 90, "len": 1}, {"step": 7, "note": 42, "vel": 75, "len": 1}]}, {"bar": 5, "events": [{"step": 0, "note": 42, "vel": 90, "len": 1}, {"step": 2, "note": 42, "vel": 90, "len": 1}, {"step": 3, "note": 42, "vel": 80, "len": 1}, {"step": 4, "note": 42, "vel": 95, "len": 1}, {"step": 6, "note": 42, "vel": 90, "len": 1}, {"step": 7, "note": 42, "vel": 80, "len": 1}]}, {"bar": 6, "events": [{"step": 0, "note": 42, "vel": 90, "len": 1}, {"step": 2, "note": 42, "vel": 90, "len": 1}, {"step": 3, "note": 42, "vel": 80, "len": 1}, {"step": 4, "note": 42, "vel": 95, "len": 1}, {"step": 6, "note": 42, "vel": 90, "len": 1}, {"step": 7, "note": 42, "vel": 80, "len": 1}]}, {"bar": 7, "events": [{"step": 0, "note": 42, "vel": 90, "len": 1}, {"step": 2, "note": 42, "vel": 90, "len": 1}, {"step": 3, "note": 42, "vel": 80, "len": 1}, {"step": 4, "note": 42, "vel": 95, "len": 1}, {"step": 6, "note": 42, "vel": 90, "len": 1}, {"step": 7, "note": 42, "vel": 80, "len": 1}]}, {"bar": 8, "events": [{"step": 0, "note": 42, "vel": 90, "len": 1}, {"step": 2, "note": 42, "vel": 90, "len": 1}, {"step": 3, "note": 42, "vel": 80, "len": 1}, {"step": 4, "note": 42, "vel": 95, "len": 1}, {"step": 6, "note": 42, "vel": 90, "len": 1}, {"step": 7, "note": 42, "vel": 80, "len": 1}]}, {"bar": 9, "events": [{"step": 0, "note": 42, "vel": 90, "len": 1}, {"step": 1, "note": 42, "vel": 70, "len": 1}, {"step": 3, "note": 42, "vel": 80, "len": 1}, {"step": 4, "note": 42, "vel": 95, "len": 1}, {"step": 5, "note": 42, "vel": 70, "len": 1}, {"step": 6, "note": 42, "vel": 90, "len": 1}]}, {"bar": 10, "events": [{"step": 0, "note": 42, "vel": 90, "len": 1}, {"step": 1, "note": 42, "vel": 70, "len": 1}, {"step": 3, "note": 42, "vel": 80, "len": 1}, {"step": 4, "note": 42, "vel": 95, "len": 1}, {"step": 5, "note": 42, "vel": 70, "len": 1}, {"step": 6, "note": 42, "vel": 90, "len": 1}]}, {"bar": 11, "events": [{"step": 0, "note": 42, "vel": 90, "len": 1}, {"step": 1, "note": 42, "vel": 70, "len": 1}, {"step": 3, "note": 42, "vel": 80, "len": 1}, {"step": 4, "note": 42, "vel": 95, "len": 1}, {"step": 5, "note": 42, "vel": 70, "len": 1}, {"step": 6, "note": 42, "vel": 90, "len": 1}]}, {"bar": 12, "events": [{"step": 0, "note": 42, "vel": 90, "len": 1}, {"step": 1, "note": 42, "vel": 70, "len": 1}, {"step": 3, "note": 42, "vel": 80, "len": 1}, {"step": 4, "note": 42, "vel": 95, "len": 1}, {"step": 5, "note": 42, "vel": 70, "len": 1}, {"step": 6, "note": 42, "vel": 90, "len": 1}]}, {"bar": 13, "events": [{"step": 0, "note": 42, "vel": 90, "len": 1}, {"step": 1, "note": 42, "vel": 70, "len": 1}, {"step": 3, "note": 42, "vel": 80, "len": 1}, {"step": 4, "note": 42, "vel": 95, "len": 1}, {"step": 5, "note": 42, "vel": 70, "len": 1}, {"step": 6, "note": 42, "vel": 90, "len": 1}]}, {"bar": 14, "events": [{"step": 0, "note": 42, "vel": 90, "len": 1}, {"step": 1, "note": 42, "vel": 70, "len": 1}, {"step": 3, "note": 42, "vel": 80, "len": 1}, {"step": 4, "note": 42, "vel": 95, "len": 1}, {"step": 5, "note": 42, "vel": 70, "len": 1}, {"step": 6, "note": 42, "vel": 90, "len": 1}]}, {"bar": 15, "events": [{"step": 0, "note": 42, "vel": 90, "len": 1}, {"step": 1, "note": 42, "vel": 70, "len": 1}, {"step": 3, "note": 42, "vel": 80, "len": 1}, {"step": 4, "note": 42, "vel": 95, "len": 1}, {"step": 5, "note": 42, "vel": 70, "len": 1}, {"step": 6, "note": 42, "vel": 90, "len": 1}]}], "Bass": [{"bar": 5, "events": [{"step": 0, "note": 29, "vel": 120, "len": 8}]}, {"bar": 6, "events": [{"step": 0, "note": 37, "vel": 120, "len": 8}]}, {"bar": 7, "events": [{"step": 0, "note": 32, "vel": 120, "len": 8}]}, {"bar": 8, "events": [{"step": 0, "note": 36, "vel": 120, "len": 8}]}, {"bar": 9, "events": [{"step": 0, "note": 29, "vel": 120, "len": 8}]}, {"bar": 10, "events": [{"step": 0, "note": 37, "vel": 120, "len": 8}]}, {"bar": 11, "events": [{"step": 0, "note": 32, "vel": 120, "len": 8}]}, {"bar": 12, "events": [{"step": 0, "note": 36, "vel": 120, "len": 8}]}, {"bar": 13, "events": [{"step": 0, "note": 29, "vel": 120, "len": 8}]}, {"bar": 14, "events": [{"step": 0, "note": 37, "vel": 120, "len": 8}]}, {"bar": 15, "events": [{"step": 0, "note": 32, "vel": 120, "len": 8}]}, {"bar": 16, "events": [{"step": 0, "note": 36, "vel": 120, "len": 8}]}], "Piano": [{"bar": 1, "events": [{"step": 2, "note": 60, "vel": 80, "len": 2}, {"step": 5, "note": 68, "vel": 70, "len": 2}]}, {"bar": 2, "events": [{"step": 2, "note": 60, "vel": 80, "len": 2}, {"step": 5, "note": 57, "vel": 70, "len": 2}]}, {"bar": 3, "events": [{"step": 2, "note": 60, "vel": 80, "len": 2}, {"step": 5, "note": 63, "vel": 70, "len": 2}]}, {"bar": 4, "events": [{"step": 2, "note": 63, "vel": 80, "len": 2}, {"step": 5, "note": 67, "vel": 70, "len": 2}]}, {"bar": 5, "events": [{"step": 2, "note": 60, "vel": 80, "len": 2}, {"step": 5, "note": 68, "vel": 70, "len": 2}]}, {"bar": 6, "events": [{"step": 2, "note": 60, "vel": 80, "len": 2}, {"step": 5, "note": 57, "vel": 70, "len": 2}]}, {"bar": 7, "events": [{"step": 2, "note": 60, "vel": 80, "len": 2}, {"step": 5, "note": 63, "vel": 70, "len": 2}]}, {"bar": 8, "events": [{"step": 2, "note": 63, "vel": 80, "len": 2}, {"step": 5, "note": 67, "vel": 70, "len": 2}]}, {"bar": 9, "events": [{"step": 2, "note": 60, "vel": 80, "len": 2}, {"step": 5, "note": 68, "vel": 70, "len": 2}]}, {"bar": 10, "events": [{"step": 2, "note": 60, "vel": 80, "len": 2}, {"step": 5, "note": 57, "vel": 70, "len": 2}]}, {"bar": 11, "events": [{"step": 2, "note": 60, "vel": 80, "len": 2}, {"step": 5, "note": 63, "vel": 70, "len": 2}]}, {"bar": 12, "events": [{"step": 2, "note": 63, "vel": 80, "len": 2}, {"step": 5, "note": 67, "vel": 70, "len": 2}]}, {"bar": 13, "events": [{"step": 2, "note": 60, "vel": 80, "len": 2}, {"step": 5, "note": 68, "vel": 70, "len": 2}]}, {"bar": 14, "events": [{"step": 2, "note": 60, "vel": 80, "len": 2}, {"step": 5, "note": 57, "vel": 70, "len": 2}]}, {"bar": 15, "events": [{"step": 2, "note": 60, "vel": 80, "len": 2}, {"step": 5, "note": 63, "vel": 70, "len": 2}]}, {"bar": 16, "events": [{"step": 2, "note": 63, "vel": 80, "len": 2}, {"step": 5, "note": 67, "vel": 70, "len": 2}]}], "Pads": [{"bar": 9, "events": [{"step": 0, "note": 53, "vel": 45, "len": 8}, {"step": 0, "note": 55, "vel": 45, "len": 8}]}, {"bar": 10, "events": [{"step": 0, "note": 57, "vel": 45, "len": 8}, {"step": 0, "note": 59, "vel": 45, "len": 8}]}, {"bar": 11, "events": [{"step": 0, "note": 56, "vel": 45, "len": 8}, {"step": 0, "note": 58, "vel": 45, "len": 8}]}, {"bar": 12, "events": [{"step": 0, "note": 60, "vel": 45, "len": 8}, {"step": 0, "note": 61, "vel": 45, "len": 8}]}, {"bar": 13, "events": [{"step": 0, "note": 53, "vel": 45, "len": 8}, {"step": 0, "note": 55, "vel": 45, "len": 8}]}, {"bar": 14, "events": [{"step": 0, "note": 57, "vel": 45, "len": 8}, {"step": 0, "note": 59, "vel": 45, "len": 8}]}, {"bar": 15, "events": [{"step": 0, "note": 56, "vel": 45, "len": 8}, {"step": 0, "note": 58, "vel": 45, "len": 8}]}, {"bar": 16, "events": [{"step": 0, "note": 60, "vel": 45, "len": 8}, {"step": 0, "note": 61, "vel": 45, "len": 8}]}]}, "meta": {"style": "Trap", "mood": "Dark", "tempo": 140, "key": "Fm", "scale": "Minor", "meter": "4/4", "bars": 16, "length_seconds": 30, "dynamic_profile": "Compressed", "arrangement_density": "Sparse", "harmonic_color": "Dissonant", "instruments": ["Kick", "Snare", "Clap", "Hat", "Bass", "Piano", "Pads"], "instrument_configs": [{"name": "Kick", "register": "Low", "role": "Percussion", "articulation": "Percussive", "dynamic_range": "Intense"}, {"name": "Snare", "register": "Mid", "role": "Percussion", "articulation": "Percussive", "dynamic_range": "Intense"}, {"name": "Clap", "register": "Mid", "role": "Percussion", "articulation": "Percussive", "dynamic_range": "Moderate"}, {"name": "Hat", "register": "High", "role": "Percussion", "articulation": "Staccato", "dynamic_range": "Moderate"}, {"name": "Bass", "register": "Low", "role": "Bass", "articulation": "Legato", "dynamic_range": "Intense"}, {"name": "Piano", "register": "Mid", "role": "Accompaniment", "articulation": "Sustain", "dynamic_range": "Moderate"}, {"name": "Pads", "register": "Mid", "role": "Pad", "articulation": "Sustain", "dynamic_range": "Delicate"}], "seed": null}}, "midi_per_instrument": null, "tracks": [{"instrument": "Kick", "enabled": true, "volume_db": 0.0, "pan": 0.0}, {"instrument": "Snare", "enabled": true, "volume_db": -3.0, "pan": 0.0}, {"instrument": "Clap", "enabled": true, "volume_db": -3.0, "pan": 0.0}, {"instrument": "Hat", "enabled": true, "volume_db": -3.0, "pan": 0.0}, {"instrument": "Bass", "enabled": true, "volume_db": -3.0, "pan": 0.0}, {"instrument": "Piano", "enabled": true, "volume_db": -3.0, "pan": 0.0}, {"instrument": "Pads", "enabled": true, "volume_db": -3.0, "pan": 0.0}], "selected_samples": {"Pads": "Instruments/Pads/PAD_ResoHum.wav", "Piano": "Instruments/Piano/Piano 1/CHANGPIANOHARD_D#2OGG.WAV", "Bass": "Instruments/Bass/HIP_Bass.wav", "Hat": "Drums/HipHop/HIP_Hat_3.wav", "Clap": "Drums/Kits/Drum Kit 06/FLS_Clap 06.wav", "Snare": "Drums/HipHop/HIP_Snare_3.wav", "Kick": "Drums/Dance/Kick Basic.wav"}, "fadeout_seconds": 0.01}, "response": {"project_name": "efsdfs", "run_id": "dc36274d-2c74-449f-9079-0e38ea5dc03e", "mix_wav_rel": "output\\dc36274d-2c74-449f-9079-0e38ea5dc03e\\efsdfs_mix_1764807781.wav", "stems": [{"instrument": "Kick", "audio_rel": "output\\dc36274d-2c74-449f-9079-0e38ea5dc03e\\efsdfs_Kick_1764807781.wav"}, {"instrument": "Snare", "audio_rel": "output\\dc36274d-2c74-449f-9079-0e38ea5dc03e\\efsdfs_Snare_1764807781.wav"}, {"instrument": "Clap", "audio_rel": "output\\dc36274d-2c74-449f-9079-0e38ea5dc03e\\efsdfs_Clap_1764807781.wav"}, {"instrument": "Hat", "audio_rel": "output\\dc36274d-2c74-449f-9079-0e38ea5dc03e\\efsdfs_Hat_1764807781.wav"}, {"instrument": "Bass", "audio_rel": "output\\dc36274d-2c74-449f-9079-0e38ea5dc03e\\efsdfs_Bass_1764807781.wav"}, {"instrument": "Piano", "audio_rel": "output\\dc36274d-2c74-449f-9079-0e38ea5dc03e\\efsdfs_Piano_1764807781.wav"}, {"instrument": "Pads", "audio_rel": "output\\dc36274d-2c74-449f-9079-0e38ea5dc03e\\efsdfs_Pads_1764807781.wav"}], "sample_rate": 44100, "duration_seconds": 30.0}}