{"Electric Guitar": {"meta": {"style": "Rock", "tempo": 128, "key": "E Minor", "meter": "4/4", "instrumentation": ["Electric Guitar", "Bass Guitar", "Kick", "Snare", "Hat", "Crash"], "scale": "Minor", "mood": "Vivid", "dynamic_profile": "Driving", "arrangement_density": "Medium-High", "harmonic_color": "Bright", "length_seconds": 30.0, "bars": 16, "instrument_configs": [{"name": "Electric Guitar", "register": "Mid-High", "role": "Lead", "articulation": "Sustain", "dynamic_range": "Intense"}, {"name": "Bass Guitar", "register": "Low", "role": "Bass", "articulation": "Legato", "dynamic_range": "Moderate"}, {"name": "Kick", "register": "Low", "role": "Percussion", "articulation": "Percussive", "dynamic_range": "Intense"}, {"name": "Snare", "register": "Mid", "role": "Percussion", "articulation": "Percussive", "dynamic_range": "Intense"}, {"name": "Hat", "register": "High", "role": "Percussion", "articulation": "Percussive", "dynamic_range": "Moderate"}, {"name": "Crash", "register": "High", "role": "Percussion", "articulation": "Percussive", "dynamic_range": "High"}], "instruments": ["Electric Guitar", "Bass Guitar", "Kick", "Snare", "Hat", "Crash"], "instrument": "Electric Guitar"}, "layers": {"Electric Guitar": [{"bar": 1, "events": [{"step": 0, "note": 64, "vel": 105, "len": 2}, {"step": 2, "note": 67, "vel": 100, "len": 2}, {"step": 3, "note": 69, "vel": 100, "len": 2}, {"step": 4, "note": 64, "vel": 105, "len": 2}, {"step": 6, "note": 62, "vel": 95, "len": 2}, {"step": 7, "note": 59, "vel": 90, "len": 2}]}, {"bar": 2, "events": [{"step": 0, "note": 64, "vel": 105, "len": 2}, {"step": 2, "note": 67, "vel": 100, "len": 2}, {"step": 3, "note": 69, "vel": 100, "len": 2}, {"step": 4, "note": 64, "vel": 105, "len": 2}, {"step": 6, "note": 62, "vel": 95, "len": 2}, {"step": 7, "note": 71, "vel": 90, "len": 2}]}, {"bar": 3, "events": [{"step": 0, "note": 72, "vel": 105, "len": 2}, {"step": 2, "note": 71, "vel": 100, "len": 2}, {"step": 3, "note": 69, "vel": 100, "len": 2}, {"step": 4, "note": 64, "vel": 105, "len": 2}, {"step": 6, "note": 62, "vel": 95, "len": 2}, {"step": 7, "note": 59, "vel": 90, "len": 2}]}, {"bar": 4, "events": [{"step": 0, "note": 64, "vel": 105, "len": 2}, {"step": 4, "note": 64, "vel": 105, "len": 2}]}]}, "pattern": [{"bar": 1, "events": [{"step": 0, "note": 64, "vel": 105, "len": 2}, {"step": 2, "note": 67, "vel": 100, "len": 2}, {"step": 3, "note": 69, "vel": 100, "len": 2}, {"step": 4, "note": 64, "vel": 105, "len": 2}, {"step": 6, "note": 62, "vel": 95, "len": 2}, {"step": 7, "note": 59, "vel": 90, "len": 2}]}, {"bar": 2, "events": [{"step": 0, "note": 64, "vel": 105, "len": 2}, {"step": 2, "note": 67, "vel": 100, "len": 2}, {"step": 3, "note": 69, "vel": 100, "len": 2}, {"step": 4, "note": 64, "vel": 105, "len": 2}, {"step": 6, "note": 62, "vel": 95, "len": 2}, {"step": 7, "note": 71, "vel": 90, "len": 2}]}, {"bar": 3, "events": [{"step": 0, "note": 72, "vel": 105, "len": 2}, {"step": 2, "note": 71, "vel": 100, "len": 2}, {"step": 3, "note": 69, "vel": 100, "len": 2}, {"step": 4, "note": 64, "vel": 105, "len": 2}, {"step": 6, "note": 62, "vel": 95, "len": 2}, {"step": 7, "note": 59, "vel": 90, "len": 2}]}, {"bar": 4, "events": [{"step": 0, "note": 64, "vel": 105, "len": 2}, {"step": 4, "note": 64, "vel": 105, "len": 2}]}]}, "Bass Guitar": {"meta": {"style": "Rock", "tempo": 128, "key": "E Minor", "meter": "4/4", "instrumentation": ["Electric Guitar", "Bass Guitar", "Kick", "Snare", "Hat", "Crash"], "scale": "Minor", "mood": "Vivid", "dynamic_profile": "Driving", "arrangement_density": "Medium-High", "harmonic_color": "Bright", "length_seconds": 30.0, "bars": 16, "instrument_configs": [{"name": "Electric Guitar", "register": "Mid-High", "role": "Lead", "articulation": "Sustain", "dynamic_range": "Intense"}, {"name": "Bass Guitar", "register": "Low", "role": "Bass", "articulation": "Legato", "dynamic_range": "Moderate"}, {"name": "Kick", "register": "Low", "role": "Percussion", "articulation": "Percussive", "dynamic_range": "Intense"}, {"name": "Snare", "register": "Mid", "role": "Percussion", "articulation": "Percussive", "dynamic_range": "Intense"}, {"name": "Hat", "register": "High", "role": "Percussion", "articulation": "Percussive", "dynamic_range": "Moderate"}, {"name": "Crash", "register": "High", "role": "Percussion", "articulation": "Percussive", "dynamic_range": "High"}], "instruments": ["Electric Guitar", "Bass Guitar", "Kick", "Snare", "Hat", "Crash"], "instrument": "Bass Guitar"}, "layers": {"Bass Guitar": [{"bar": 1, "events": [{"step": 0, "note": 28, "vel": 100, "len": 1}, {"step": 1, "note": 28, "vel": 95, "len": 1}, {"step": 2, "note": 28, "vel": 100, "len": 1}, {"step": 3, "note": 28, "vel": 95, "len": 1}, {"step": 4, "note": 28, "vel": 100, "len": 1}, {"step": 5, "note": 28, "vel": 95, "len": 1}, {"step": 6, "note": 28, "vel": 100, "len": 1}, {"step": 7, "note": 28, "vel": 95, "len": 1}]}, {"bar": 2, "events": [{"step": 0, "note": 28, "vel": 100, "len": 1}, {"step": 1, "note": 28, "vel": 95, "len": 1}, {"step": 2, "note": 28, "vel": 100, "len": 1}, {"step": 3, "note": 28, "vel": 95, "len": 1}, {"step": 4, "note": 28, "vel": 100, "len": 1}, {"step": 5, "note": 28, "vel": 95, "len": 1}, {"step": 6, "note": 28, "vel": 100, "len": 1}, {"step": 7, "note": 28, "vel": 95, "len": 1}]}, {"bar": 3, "events": [{"step": 0, "note": 28, "vel": 100, "len": 1}, {"step": 1, "note": 28, "vel": 95, "len": 1}, {"step": 2, "note": 28, "vel": 100, "len": 1}, {"step": 3, "note": 28, "vel": 95, "len": 1}, {"step": 4, "note": 28, "vel": 100, "len": 1}, {"step": 5, "note": 28, "vel": 95, "len": 1}, {"step": 6, "note": 28, "vel": 100, "len": 1}, {"step": 7, "note": 28, "vel": 95, "len": 1}]}, {"bar": 4, "events": [{"step": 0, "note": 28, "vel": 100, "len": 1}, {"step": 1, "note": 28, "vel": 95, "len": 1}, {"step": 2, "note": 28, "vel": 100, "len": 1}, {"step": 3, "note": 28, "vel": 95, "len": 1}, {"step": 4, "note": 28, "vel": 100, "len": 1}, {"step": 5, "note": 28, "vel": 95, "len": 1}, {"step": 6, "note": 28, "vel": 100, "len": 1}, {"step": 7, "note": 28, "vel": 95, "len": 1}]}, {"bar": 5, "events": [{"step": 0, "note": 36, "vel": 100, "len": 1}, {"step": 1, "note": 36, "vel": 95, "len": 1}, {"step": 2, "note": 36, "vel": 100, "len": 1}, {"step": 3, "note": 36, "vel": 95, "len": 1}, {"step": 4, "note": 36, "vel": 100, "len": 1}, {"step": 5, "note": 36, "vel": 95, "len": 1}, {"step": 6, "note": 36, "vel": 100, "len": 1}, {"step": 7, "note": 36, "vel": 95, "len": 1}]}, {"bar": 6, "events": [{"step": 0, "note": 31, "vel": 100, "len": 1}, {"step": 1, "note": 31, "vel": 95, "len": 1}, {"step": 2, "note": 31, "vel": 100, "len": 1}, {"step": 3, "note": 31, "vel": 95, "len": 1}, {"step": 4, "note": 31, "vel": 100, "len": 1}, {"step": 5, "note": 31, "vel": 95, "len": 1}, {"step": 6, "note": 31, "vel": 100, "len": 1}, {"step": 7, "note": 31, "vel": 95, "len": 1}]}]}, "pattern": [{"bar": 1, "events": [{"step": 0, "note": 28, "vel": 100, "len": 1}, {"step": 1, "note": 28, "vel": 95, "len": 1}, {"step": 2, "note": 28, "vel": 100, "len": 1}, {"step": 3, "note": 28, "vel": 95, "len": 1}, {"step": 4, "note": 28, "vel": 100, "len": 1}, {"step": 5, "note": 28, "vel": 95, "len": 1}, {"step": 6, "note": 28, "vel": 100, "len": 1}, {"step": 7, "note": 28, "vel": 95, "len": 1}]}, {"bar": 2, "events": [{"step": 0, "note": 28, "vel": 100, "len": 1}, {"step": 1, "note": 28, "vel": 95, "len": 1}, {"step": 2, "note": 28, "vel": 100, "len": 1}, {"step": 3, "note": 28, "vel": 95, "len": 1}, {"step": 4, "note": 28, "vel": 100, "len": 1}, {"step": 5, "note": 28, "vel": 95, "len": 1}, {"step": 6, "note": 28, "vel": 100, "len": 1}, {"step": 7, "note": 28, "vel": 95, "len": 1}]}, {"bar": 3, "events": [{"step": 0, "note": 28, "vel": 100, "len": 1}, {"step": 1, "note": 28, "vel": 95, "len": 1}, {"step": 2, "note": 28, "vel": 100, "len": 1}, {"step": 3, "note": 28, "vel": 95, "len": 1}, {"step": 4, "note": 28, "vel": 100, "len": 1}, {"step": 5, "note": 28, "vel": 95, "len": 1}, {"step": 6, "note": 28, "vel": 100, "len": 1}, {"step": 7, "note": 28, "vel": 95, "len": 1}]}, {"bar": 4, "events": [{"step": 0, "note": 28, "vel": 100, "len": 1}, {"step": 1, "note": 28, "vel": 95, "len": 1}, {"step": 2, "note": 28, "vel": 100, "len": 1}, {"step": 3, "note": 28, "vel": 95, "len": 1}, {"step": 4, "note": 28, "vel": 100, "len": 1}, {"step": 5, "note": 28, "vel": 95, "len": 1}, {"step": 6, "note": 28, "vel": 100, "len": 1}, {"step": 7, "note": 28, "vel": 95, "len": 1}]}, {"bar": 5, "events": [{"step": 0, "note": 36, "vel": 100, "len": 1}, {"step": 1, "note": 36, "vel": 95, "len": 1}, {"step": 2, "note": 36, "vel": 100, "len": 1}, {"step": 3, "note": 36, "vel": 95, "len": 1}, {"step": 4, "note": 36, "vel": 100, "len": 1}, {"step": 5, "note": 36, "vel": 95, "len": 1}, {"step": 6, "note": 36, "vel": 100, "len": 1}, {"step": 7, "note": 36, "vel": 95, "len": 1}]}, {"bar": 6, "events": [{"step": 0, "note": 31, "vel": 100, "len": 1}, {"step": 1, "note": 31, "vel": 95, "len": 1}, {"step": 2, "note": 31, "vel": 100, "len": 1}, {"step": 3, "note": 31, "vel": 95, "len": 1}, {"step": 4, "note": 31, "vel": 100, "len": 1}, {"step": 5, "note": 31, "vel": 95, "len": 1}, {"step": 6, "note": 31, "vel": 100, "len": 1}, {"step": 7, "note": 31, "vel": 95, "len": 1}]}]}, "Kick": {"meta": {"style": "Rock", "tempo": 128, "key": "E Minor", "meter": "4/4", "instrumentation": ["Electric Guitar", "Bass Guitar", "Kick", "Snare", "Hat", "Crash"], "scale": "Minor", "mood": "Vivid", "dynamic_profile": "Driving", "arrangement_density": "Medium-High", "harmonic_color": "Bright", "length_seconds": 30.0, "bars": 16, "instrument_configs": [{"name": "Electric Guitar", "register": "Mid-High", "role": "Lead", "articulation": "Sustain", "dynamic_range": "Intense"}, {"name": "Bass Guitar", "register": "Low", "role": "Bass", "articulation": "Legato", "dynamic_range": "Moderate"}, {"name": "Kick", "register": "Low", "role": "Percussion", "articulation": "Percussive", "dynamic_range": "Intense"}, {"name": "Snare", "register": "Mid", "role": "Percussion", "articulation": "Percussive", "dynamic_range": "Intense"}, {"name": "Hat", "register": "High", "role": "Percussion", "articulation": "Percussive", "dynamic_range": "Moderate"}, {"name": "Crash", "register": "High", "role": "Percussion", "articulation": "Percussive", "dynamic_range": "High"}], "instruments": ["Electric Guitar", "Bass Guitar", "Kick", "Snare", "Hat", "Crash"], "instrument": "Kick"}, "layers": {"Kick": [{"bar": 1, "events": [{"step": 0, "note": 36, "vel": 110, "len": 1}, {"step": 3, "note": 36, "vel": 100, "len": 1}, {"step": 5, "note": 36, "vel": 110, "len": 1}]}, {"bar": 2, "events": [{"step": 0, "note": 36, "vel": 110, "len": 1}, {"step": 3, "note": 36, "vel": 100, "len": 1}, {"step": 5, "note": 36, "vel": 110, "len": 1}]}, {"bar": 3, "events": [{"step": 0, "note": 36, "vel": 110, "len": 1}, {"step": 3, "note": 36, "vel": 100, "len": 1}, {"step": 5, "note": 36, "vel": 110, "len": 1}]}, {"bar": 4, "events": [{"step": 0, "note": 36, "vel": 110, "len": 1}, {"step": 3, "note": 36, "vel": 100, "len": 1}, {"step": 5, "note": 36, "vel": 110, "len": 1}, {"step": 6, "note": 36, "vel": 110, "len": 1}]}]}, "pattern": [{"bar": 1, "events": [{"step": 0, "note": 36, "vel": 110, "len": 1}, {"step": 3, "note": 36, "vel": 100, "len": 1}, {"step": 5, "note": 36, "vel": 110, "len": 1}]}, {"bar": 2, "events": [{"step": 0, "note": 36, "vel": 110, "len": 1}, {"step": 3, "note": 36, "vel": 100, "len": 1}, {"step": 5, "note": 36, "vel": 110, "len": 1}]}, {"bar": 3, "events": [{"step": 0, "note": 36, "vel": 110, "len": 1}, {"step": 3, "note": 36, "vel": 100, "len": 1}, {"step": 5, "note": 36, "vel": 110, "len": 1}]}, {"bar": 4, "events": [{"step": 0, "note": 36, "vel": 110, "len": 1}, {"step": 3, "note": 36, "vel": 100, "len": 1}, {"step": 5, "note": 36, "vel": 110, "len": 1}, {"step": 6, "note": 36, "vel": 110, "len": 1}]}]}, "Snare": {"meta": {"style": "Rock", "tempo": 128, "key": "E Minor", "meter": "4/4", "instrumentation": ["Electric Guitar", "Bass Guitar", "Kick", "Snare", "Hat", "Crash"], "scale": "Minor", "mood": "Vivid", "dynamic_profile": "Driving", "arrangement_density": "Medium-High", "harmonic_color": "Bright", "length_seconds": 30.0, "bars": 16, "instrument_configs": [{"name": "Electric Guitar", "register": "Mid-High", "role": "Lead", "articulation": "Sustain", "dynamic_range": "Intense"}, {"name": "Bass Guitar", "register": "Low", "role": "Bass", "articulation": "Legato", "dynamic_range": "Moderate"}, {"name": "Kick", "register": "Low", "role": "Percussion", "articulation": "Percussive", "dynamic_range": "Intense"}, {"name": "Snare", "register": "Mid", "role": "Percussion", "articulation": "Percussive", "dynamic_range": "Intense"}, {"name": "Hat", "register": "High", "role": "Percussion", "articulation": "Percussive", "dynamic_range": "Moderate"}, {"name": "Crash", "register": "High", "role": "Percussion", "articulation": "Percussive", "dynamic_range": "High"}], "instruments": ["Electric Guitar", "Bass Guitar", "Kick", "Snare", "Hat", "Crash"], "instrument": "Snare"}, "layers": {"Snare": [{"bar": 1, "events": [{"step": 2, "note": 38, "vel": 115, "len": 1}, {"step": 6, "note": 38, "vel": 115, "len": 1}]}, {"bar": 2, "events": [{"step": 2, "note": 38, "vel": 115, "len": 1}, {"step": 6, "note": 38, "vel": 115, "len": 1}]}, {"bar": 3, "events": [{"step": 2, "note": 38, "vel": 115, "len": 1}, {"step": 6, "note": 38, "vel": 115, "len": 1}]}, {"bar": 4, "events": [{"step": 2, "note": 38, "vel": 115, "len": 1}, {"step": 6, "note": 38, "vel": 115, "len": 1}, {"step": 7, "note": 38, "vel": 110, "len": 1}]}]}, "pattern": [{"bar": 1, "events": [{"step": 2, "note": 38, "vel": 115, "len": 1}, {"step": 6, "note": 38, "vel": 115, "len": 1}]}, {"bar": 2, "events": [{"step": 2, "note": 38, "vel": 115, "len": 1}, {"step": 6, "note": 38, "vel": 115, "len": 1}]}, {"bar": 3, "events": [{"step": 2, "note": 38, "vel": 115, "len": 1}, {"step": 6, "note": 38, "vel": 115, "len": 1}]}, {"bar": 4, "events": [{"step": 2, "note": 38, "vel": 115, "len": 1}, {"step": 6, "note": 38, "vel": 115, "len": 1}, {"step": 7, "note": 38, "vel": 110, "len": 1}]}]}, "Hat": {"meta": {"style": "Rock", "tempo": 128, "key": "E Minor", "meter": "4/4", "instrumentation": ["Electric Guitar", "Bass Guitar", "Kick", "Snare", "Hat", "Crash"], "scale": "Minor", "mood": "Vivid", "dynamic_profile": "Driving", "arrangement_density": "Medium-High", "harmonic_color": "Bright", "length_seconds": 30.0, "bars": 16, "instrument_configs": [{"name": "Electric Guitar", "register": "Mid-High", "role": "Lead", "articulation": "Sustain", "dynamic_range": "Intense"}, {"name": "Bass Guitar", "register": "Low", "role": "Bass", "articulation": "Legato", "dynamic_range": "Moderate"}, {"name": "Kick", "register": "Low", "role": "Percussion", "articulation": "Percussive", "dynamic_range": "Intense"}, {"name": "Snare", "register": "Mid", "role": "Percussion", "articulation": "Percussive", "dynamic_range": "Intense"}, {"name": "Hat", "register": "High", "role": "Percussion", "articulation": "Percussive", "dynamic_range": "Moderate"}, {"name": "Crash", "register": "High", "role": "Percussion", "articulation": "Percussive", "dynamic_range": "High"}], "instruments": ["Electric Guitar", "Bass Guitar", "Kick", "Snare", "Hat", "Crash"], "instrument": "Hat"}, "layers": {"Hat": [{"bar": 1, "events": [{"step": 0, "note": 42, "vel": 90, "len": 1}, {"step": 1, "note": 42, "vel": 80, "len": 1}, {"step": 2, "note": 42, "vel": 95, "len": 1}, {"step": 3, "note": 42, "vel": 80, "len": 1}, {"step": 4, "note": 42, "vel": 95, "len": 1}, {"step": 5, "note": 42, "vel": 85, "len": 1}, {"step": 6, "note": 42, "vel": 95, "len": 1}, {"step": 7, "note": 42, "vel": 85, "len": 1}]}, {"bar": 2, "events": [{"step": 0, "note": 42, "vel": 90, "len": 1}, {"step": 1, "note": 42, "vel": 80, "len": 1}, {"step": 2, "note": 42, "vel": 95, "len": 1}, {"step": 3, "note": 42, "vel": 80, "len": 1}, {"step": 4, "note": 42, "vel": 95, "len": 1}, {"step": 5, "note": 42, "vel": 85, "len": 1}, {"step": 6, "note": 42, "vel": 95, "len": 1}, {"step": 7, "note": 42, "vel": 85, "len": 1}]}, {"bar": 3, "events": [{"step": 0, "note": 42, "vel": 90, "len": 1}, {"step": 1, "note": 42, "vel": 80, "len": 1}, {"step": 2, "note": 42, "vel": 95, "len": 1}, {"step": 3, "note": 42, "vel": 80, "len": 1}, {"step": 4, "note": 42, "vel": 95, "len": 1}, {"step": 5, "note": 42, "vel": 85, "len": 1}, {"step": 6, "note": 42, "vel": 95, "len": 1}, {"step": 7, "note": 42, "vel": 85, "len": 1}]}, {"bar": 4, "events": [{"step": 0, "note": 42, "vel": 90, "len": 1}, {"step": 1, "note": 42, "vel": 80, "len": 1}, {"step": 2, "note": 42, "vel": 95, "len": 1}, {"step": 3, "note": 42, "vel": 80, "len": 1}, {"step": 4, "note": 42, "vel": 95, "len": 1}, {"step": 5, "note": 42, "vel": 85, "len": 1}]}]}, "pattern": [{"bar": 1, "events": [{"step": 0, "note": 42, "vel": 90, "len": 1}, {"step": 1, "note": 42, "vel": 80, "len": 1}, {"step": 2, "note": 42, "vel": 95, "len": 1}, {"step": 3, "note": 42, "vel": 80, "len": 1}, {"step": 4, "note": 42, "vel": 95, "len": 1}, {"step": 5, "note": 42, "vel": 85, "len": 1}, {"step": 6, "note": 42, "vel": 95, "len": 1}, {"step": 7, "note": 42, "vel": 85, "len": 1}]}, {"bar": 2, "events": [{"step": 0, "note": 42, "vel": 90, "len": 1}, {"step": 1, "note": 42, "vel": 80, "len": 1}, {"step": 2, "note": 42, "vel": 95, "len": 1}, {"step": 3, "note": 42, "vel": 80, "len": 1}, {"step": 4, "note": 42, "vel": 95, "len": 1}, {"step": 5, "note": 42, "vel": 85, "len": 1}, {"step": 6, "note": 42, "vel": 95, "len": 1}, {"step": 7, "note": 42, "vel": 85, "len": 1}]}, {"bar": 3, "events": [{"step": 0, "note": 42, "vel": 90, "len": 1}, {"step": 1, "note": 42, "vel": 80, "len": 1}, {"step": 2, "note": 42, "vel": 95, "len": 1}, {"step": 3, "note": 42, "vel": 80, "len": 1}, {"step": 4, "note": 42, "vel": 95, "len": 1}, {"step": 5, "note": 42, "vel": 85, "len": 1}, {"step": 6, "note": 42, "vel": 95, "len": 1}, {"step": 7, "note": 42, "vel": 85, "len": 1}]}, {"bar": 4, "events": [{"step": 0, "note": 42, "vel": 90, "len": 1}, {"step": 1, "note": 42, "vel": 80, "len": 1}, {"step": 2, "note": 42, "vel": 95, "len": 1}, {"step": 3, "note": 42, "vel": 80, "len": 1}, {"step": 4, "note": 42, "vel": 95, "len": 1}, {"step": 5, "note": 42, "vel": 85, "len": 1}]}]}, "Crash": {"meta": {"style": "Rock", "tempo": 128, "key": "E Minor", "meter": "4/4", "instrumentation": ["Electric Guitar", "Bass Guitar", "Kick", "Snare", "Hat", "Crash"], "scale": "Minor", "mood": "Vivid", "dynamic_profile": "Driving", "arrangement_density": "Medium-High", "harmonic_color": "Bright", "length_seconds": 30.0, "bars": 16, "instrument_configs": [{"name": "Electric Guitar", "register": "Mid-High", "role": "Lead", "articulation": "Sustain", "dynamic_range": "Intense"}, {"name": "Bass Guitar", "register": "Low", "role": "Bass", "articulation": "Legato", "dynamic_range": "Moderate"}, {"name": "Kick", "register": "Low", "role": "Percussion", "articulation": "Percussive", "dynamic_range": "Intense"}, {"name": "Snare", "register": "Mid", "role": "Percussion", "articulation": "Percussive", "dynamic_range": "Intense"}, {"name": "Hat", "register": "High", "role": "Percussion", "articulation": "Percussive", "dynamic_range": "Moderate"}, {"name": "Crash", "register": "High", "role": "Percussion", "articulation": "Percussive", "dynamic_range": "High"}], "instruments": ["Electric Guitar", "Bass Guitar", "Kick", "Snare", "Hat", "Crash"], "instrument": "Crash"}, "layers": {"Crash": [{"bar": 1, "events": [{"step": 0, "note": 49, "vel": 115, "len": 2}]}, {"bar": 4, "events": [{"step": 7, "note": 49, "vel": 110, "len": 1}]}, {"bar": 5, "events": [{"step": 0, "note": 49, "vel": 120, "len": 2}]}]}, "pattern": [{"bar": 1, "events": [{"step": 0, "note": 49, "vel": 115, "len": 2}]}, {"bar": 4, "events": [{"step": 7, "note": 49, "vel": 110, "len": 1}]}, {"bar": 5, "events": [{"step": 0, "note": 49, "vel": 120, "len": 2}]}]}}