{"Acoustic Guitar": {"meta": {"status": "success", "tempo": 120, "key": "C Major", "scale": "Major", "style": "Pop", "mood": "Happy", "meter": "4/4", "dynamic_profile": "Moderate to Intense", "arrangement_density": "Medium", "harmonic_color": "Bright", "length_seconds": 128.0, "bars": 16, "instrument_configs": [{"name": "Acoustic Guitar", "register": "Mid", "role": "Accompaniment", "articulation": "Legato", "dynamic_range": "Moderate"}, {"name": "Snare", "register": "Mid", "role": "Percussion", "articulation": "Percussive", "dynamic_range": "Intense"}], "instruments": ["Acoustic Guitar", "Snare"], "instrument": "Acoustic Guitar"}, "layers": {"Acoustic Guitar": [{"bar": 1, "events": [{"step": 0, "note": 60, "vel": 80, "len": 2}, {"step": 2, "note": 64, "vel": 80, "len": 2}, {"step": 4, "note": 67, "vel": 80, "len": 2}, {"step": 6, "note": 60, "vel": 80, "len": 2}]}, {"bar": 2, "events": [{"step": 0, "note": 60, "vel": 80, "len": 2}, {"step": 2, "note": 64, "vel": 80, "len": 2}, {"step": 4, "note": 67, "vel": 80, "len": 2}, {"step": 6, "note": 60, "vel": 80, "len": 2}]}, {"bar": 3, "events": [{"step": 0, "note": 60, "vel": 80, "len": 2}, {"step": 2, "note": 64, "vel": 80, "len": 2}, {"step": 4, "note": 67, "vel": 80, "len": 2}, {"step": 6, "note": 60, "vel": 80, "len": 2}]}, {"bar": 4, "events": [{"step": 0, "note": 60, "vel": 80, "len": 2}, {"step": 2, "note": 64, "vel": 80, "len": 2}, {"step": 4, "note": 67, "vel": 80, "len": 2}, {"step": 6, "note": 60, "vel": 80, "len": 2}]}, {"bar": 5, "events": [{"step": 0, "note": 60, "vel": 80, "len": 2}, {"step": 2, "note": 64, "vel": 80, "len": 2}, {"step": 4, "note": 67, "vel": 80, "len": 2}, {"step": 6, "note": 60, "vel": 80, "len": 2}]}, {"bar": 6, "events": [{"step": 0, "note": 60, "vel": 80, "len": 2}, {"step": 2, "note": 64, "vel": 80, "len": 2}, {"step": 4, "note": 67, "vel": 80, "len": 2}, {"step": 6, "note": 60, "vel": 80, "len": 2}]}, {"bar": 7, "events": [{"step": 0, "note": 60, "vel": 80, "len": 2}, {"step": 2, "note": 64, "vel": 80, "len": 2}, {"step": 4, "note": 67, "vel": 80, "len": 2}, {"step": 6, "note": 60, "vel": 80, "len": 2}]}, {"bar": 8, "events": [{"step": 0, "note": 60, "vel": 80, "len": 2}, {"step": 2, "note": 64, "vel": 80, "len": 2}, {"step": 4, "note": 67, "vel": 80, "len": 2}, {"step": 6, "note": 60, "vel": 80, "len": 2}]}, {"bar": 9, "events": [{"step": 0, "note": 60, "vel": 80, "len": 2}, {"step": 2, "note": 64, "vel": 80, "len": 2}, {"step": 4, "note": 67, "vel": 80, "len": 2}, {"step": 6, "note": 60, "vel": 80, "len": 2}]}, {"bar": 10, "events": [{"step": 0, "note": 60, "vel": 80, "len": 2}, {"step": 2, "note": 64, "vel": 80, "len": 2}, {"step": 4, "note": 67, "vel": 80, "len": 2}, {"step": 6, "note": 60, "vel": 80, "len": 2}]}, {"bar": 11, "events": [{"step": 0, "note": 60, "vel": 80, "len": 2}, {"step": 2, "note": 64, "vel": 80, "len": 2}, {"step": 4, "note": 67, "vel": 80, "len": 2}, {"step": 6, "note": 60, "vel": 80, "len": 2}]}, {"bar": 12, "events": [{"step": 0, "note": 60, "vel": 80, "len": 2}, {"step": 2, "note": 64, "vel": 80, "len": 2}, {"step": 4, "note": 67, "vel": 80, "len": 2}, {"step": 6, "note": 60, "vel": 80, "len": 2}]}, {"bar": 13, "events": [{"step": 0, "note": 60, "vel": 80, "len": 2}, {"step": 2, "note": 64, "vel": 80, "len": 2}, {"step": 4, "note": 67, "vel": 80, "len": 2}, {"step": 6, "note": 60, "vel": 80, "len": 2}]}, {"bar": 14, "events": [{"step": 0, "note": 60, "vel": 80, "len": 2}, {"step": 2, "note": 64, "vel": 80, "len": 2}, {"step": 4, "note": 67, "vel": 80, "len": 2}, {"step": 6, "note": 60, "vel": 80, "len": 2}]}, {"bar": 15, "events": [{"step": 0, "note": 60, "vel": 80, "len": 2}, {"step": 2, "note": 64, "vel": 80, "len": 2}, {"step": 4, "note": 67, "vel": 80, "len": 2}, {"step": 6, "note": 60, "vel": 80, "len": 2}]}, {"bar": 16, "events": [{"step": 0, "note": 60, "vel": 80, "len": 2}, {"step": 2, "note": 64, "vel": 80, "len": 2}, {"step": 4, "note": 67, "vel": 80, "len": 2}, {"step": 6, "note": 60, "vel": 80, "len": 2}]}]}, "pattern": [{"bar": 1, "events": [{"step": 0, "note": 60, "vel": 80, "len": 2}, {"step": 2, "note": 64, "vel": 80, "len": 2}, {"step": 4, "note": 67, "vel": 80, "len": 2}, {"step": 6, "note": 60, "vel": 80, "len": 2}]}, {"bar": 2, "events": [{"step": 0, "note": 60, "vel": 80, "len": 2}, {"step": 2, "note": 64, "vel": 80, "len": 2}, {"step": 4, "note": 67, "vel": 80, "len": 2}, {"step": 6, "note": 60, "vel": 80, "len": 2}]}, {"bar": 3, "events": [{"step": 0, "note": 60, "vel": 80, "len": 2}, {"step": 2, "note": 64, "vel": 80, "len": 2}, {"step": 4, "note": 67, "vel": 80, "len": 2}, {"step": 6, "note": 60, "vel": 80, "len": 2}]}, {"bar": 4, "events": [{"step": 0, "note": 60, "vel": 80, "len": 2}, {"step": 2, "note": 64, "vel": 80, "len": 2}, {"step": 4, "note": 67, "vel": 80, "len": 2}, {"step": 6, "note": 60, "vel": 80, "len": 2}]}, {"bar": 5, "events": [{"step": 0, "note": 60, "vel": 80, "len": 2}, {"step": 2, "note": 64, "vel": 80, "len": 2}, {"step": 4, "note": 67, "vel": 80, "len": 2}, {"step": 6, "note": 60, "vel": 80, "len": 2}]}, {"bar": 6, "events": [{"step": 0, "note": 60, "vel": 80, "len": 2}, {"step": 2, "note": 64, "vel": 80, "len": 2}, {"step": 4, "note": 67, "vel": 80, "len": 2}, {"step": 6, "note": 60, "vel": 80, "len": 2}]}, {"bar": 7, "events": [{"step": 0, "note": 60, "vel": 80, "len": 2}, {"step": 2, "note": 64, "vel": 80, "len": 2}, {"step": 4, "note": 67, "vel": 80, "len": 2}, {"step": 6, "note": 60, "vel": 80, "len": 2}]}, {"bar": 8, "events": [{"step": 0, "note": 60, "vel": 80, "len": 2}, {"step": 2, "note": 64, "vel": 80, "len": 2}, {"step": 4, "note": 67, "vel": 80, "len": 2}, {"step": 6, "note": 60, "vel": 80, "len": 2}]}, {"bar": 9, "events": [{"step": 0, "note": 60, "vel": 80, "len": 2}, {"step": 2, "note": 64, "vel": 80, "len": 2}, {"step": 4, "note": 67, "vel": 80, "len": 2}, {"step": 6, "note": 60, "vel": 80, "len": 2}]}, {"bar": 10, "events": [{"step": 0, "note": 60, "vel": 80, "len": 2}, {"step": 2, "note": 64, "vel": 80, "len": 2}, {"step": 4, "note": 67, "vel": 80, "len": 2}, {"step": 6, "note": 60, "vel": 80, "len": 2}]}, {"bar": 11, "events": [{"step": 0, "note": 60, "vel": 80, "len": 2}, {"step": 2, "note": 64, "vel": 80, "len": 2}, {"step": 4, "note": 67, "vel": 80, "len": 2}, {"step": 6, "note": 60, "vel": 80, "len": 2}]}, {"bar": 12, "events": [{"step": 0, "note": 60, "vel": 80, "len": 2}, {"step": 2, "note": 64, "vel": 80, "len": 2}, {"step": 4, "note": 67, "vel": 80, "len": 2}, {"step": 6, "note": 60, "vel": 80, "len": 2}]}, {"bar": 13, "events": [{"step": 0, "note": 60, "vel": 80, "len": 2}, {"step": 2, "note": 64, "vel": 80, "len": 2}, {"step": 4, "note": 67, "vel": 80, "len": 2}, {"step": 6, "note": 60, "vel": 80, "len": 2}]}, {"bar": 14, "events": [{"step": 0, "note": 60, "vel": 80, "len": 2}, {"step": 2, "note": 64, "vel": 80, "len": 2}, {"step": 4, "note": 67, "vel": 80, "len": 2}, {"step": 6, "note": 60, "vel": 80, "len": 2}]}, {"bar": 15, "events": [{"step": 0, "note": 60, "vel": 80, "len": 2}, {"step": 2, "note": 64, "vel": 80, "len": 2}, {"step": 4, "note": 67, "vel": 80, "len": 2}, {"step": 6, "note": 60, "vel": 80, "len": 2}]}, {"bar": 16, "events": [{"step": 0, "note": 60, "vel": 80, "len": 2}, {"step": 2, "note": 64, "vel": 80, "len": 2}, {"step": 4, "note": 67, "vel": 80, "len": 2}, {"step": 6, "note": 60, "vel": 80, "len": 2}]}]}, "Snare": {"meta": {"status": "success", "tempo": 120, "key": "C Major", "scale": "Major", "style": "Pop", "mood": "Happy", "meter": "4/4", "dynamic_profile": "Moderate to Intense", "arrangement_density": "Medium", "harmonic_color": "Bright", "length_seconds": 128.0, "bars": 16, "instrument_configs": [{"name": "Acoustic Guitar", "register": "Mid", "role": "Accompaniment", "articulation": "Legato", "dynamic_range": "Moderate"}, {"name": "Snare", "register": "Mid", "role": "Percussion", "articulation": "Percussive", "dynamic_range": "Intense"}], "instruments": ["Acoustic Guitar", "Snare"], "instrument": "Snare"}, "layers": {}, "pattern": [{"bar": 1, "events": [{"step": 0, "note": 38, "vel": 100, "len": 1}, {"step": 4, "note": 38, "vel": 100, "len": 1}]}, {"bar": 2, "events": [{"step": 0, "note": 38, "vel": 100, "len": 1}, {"step": 4, "note": 38, "vel": 100, "len": 1}]}, {"bar": 3, "events": [{"step": 0, "note": 38, "vel": 100, "len": 1}, {"step": 4, "note": 38, "vel": 100, "len": 1}]}, {"bar": 4, "events": [{"step": 0, "note": 38, "vel": 100, "len": 1}, {"step": 4, "note": 38, "vel": 100, "len": 1}]}, {"bar": 5, "events": [{"step": 0, "note": 38, "vel": 100, "len": 1}, {"step": 4, "note": 38, "vel": 100, "len": 1}]}, {"bar": 6, "events": [{"step": 0, "note": 38, "vel": 100, "len": 1}, {"step": 4, "note": 38, "vel": 100, "len": 1}]}, {"bar": 7, "events": [{"step": 0, "note": 38, "vel": 100, "len": 1}, {"step": 4, "note": 38, "vel": 100, "len": 1}]}, {"bar": 8, "events": [{"step": 0, "note": 38, "vel": 100, "len": 1}, {"step": 4, "note": 38, "vel": 100, "len": 1}]}, {"bar": 9, "events": [{"step": 0, "note": 38, "vel": 100, "len": 1}, {"step": 4, "note": 38, "vel": 100, "len": 1}]}, {"bar": 10, "events": [{"step": 0, "note": 38, "vel": 100, "len": 1}, {"step": 4, "note": 38, "vel": 100, "len": 1}]}, {"bar": 11, "events": [{"step": 0, "note": 38, "vel": 100, "len": 1}, {"step": 4, "note": 38, "vel": 100, "len": 1}]}, {"bar": 12, "events": [{"step": 0, "note": 38, "vel": 100, "len": 1}, {"step": 4, "note": 38, "vel": 100, "len": 1}]}, {"bar": 13, "events": [{"step": 0, "note": 38, "vel": 100, "len": 1}, {"step": 4, "note": 38, "vel": 100, "len": 1}]}, {"bar": 14, "events": [{"step": 0, "note": 38, "vel": 100, "len": 1}, {"step": 4, "note": 38, "vel": 100, "len": 1}]}, {"bar": 15, "events": [{"step": 0, "note": 38, "vel": 100, "len": 1}, {"step": 4, "note": 38, "vel": 100, "len": 1}]}, {"bar": 16, "events": [{"step": 0, "note": 38, "vel": 100, "len": 1}, {"step": 4, "note": 38, "vel": 100, "len": 1}]}]}}