{"meta": {"style": "Rock", "mood": "Energetic", "tempo": 138, "key": "E", "scale": "Minor", "meter": "4/4", "dynamic_profile": "High Energy", "arrangement_density": "Dense", "harmonic_color": "Distorted", "length_seconds": 30.0, "bars": 16, "instrument_configs": [{"name": "Electric Guitar", "register": "Mid-High", "role": "Lead", "articulation": "Sustain", "dynamic_range": "Intense"}, {"name": "Bass Guitar", "register": "Low", "role": "Bass", "articulation": "Picked", "dynamic_range": "Steady"}, {"name": "Kick", "register": "Low", "role": "Percussion", "articulation": "Percussive", "dynamic_range": "Punchy"}, {"name": "Snare", "register": "Mid", "role": "Percussion", "articulation": "Percussive", "dynamic_range": "Punchy"}, {"name": "Hat", "register": "High", "role": "Percussion", "articulation": "Percussive", "dynamic_range": "Moderate"}, {"name": "Crash", "register": "High", "role": "Percussion", "articulation": "Percussive", "dynamic_range": "Loud"}], "instruments": ["Electric Guitar", "Bass Guitar", "Kick", "Snare", "Hat", "Crash"], "instrument": "Bass Guitar"}, "layers": {"Bass Guitar": [{"bar": 1, "events": [{"step": 0, "note": 28, "vel": 110, "len": 1}, {"step": 1, "note": 28, "vel": 100, "len": 1}, {"step": 2, "note": 28, "vel": 100, "len": 1}, {"step": 3, "note": 28, "vel": 100, "len": 1}, {"step": 4, "note": 28, "vel": 110, "len": 1}, {"step": 5, "note": 28, "vel": 100, "len": 1}, {"step": 6, "note": 28, "vel": 100, "len": 1}, {"step": 7, "note": 28, "vel": 100, "len": 1}]}, {"bar": 5, "events": [{"step": 0, "note": 24, "vel": 110, "len": 1}, {"step": 2, "note": 24, "vel": 100, "len": 1}, {"step": 4, "note": 24, "vel": 110, "len": 1}, {"step": 6, "note": 24, "vel": 100, "len": 1}]}, {"bar": 6, "events": [{"step": 0, "note": 26, "vel": 110, "len": 1}, {"step": 2, "note": 26, "vel": 100, "len": 1}, {"step": 4, "note": 26, "vel": 110, "len": 1}, {"step": 6, "note": 26, "vel": 100, "len": 1}]}, {"bar": 9, "events": [{"step": 0, "note": 31, "vel": 110, "len": 1}, {"step": 2, "note": 31, "vel": 100, "len": 1}, {"step": 4, "note": 26, "vel": 110, "len": 1}, {"step": 6, "note": 26, "vel": 100, "len": 1}]}]}, "pattern": [{"bar": 1, "events": [{"step": 0, "note": 28, "vel": 110, "len": 1}, {"step": 1, "note": 28, "vel": 100, "len": 1}, {"step": 2, "note": 28, "vel": 100, "len": 1}, {"step": 3, "note": 28, "vel": 100, "len": 1}, {"step": 4, "note": 28, "vel": 110, "len": 1}, {"step": 5, "note": 28, "vel": 100, "len": 1}, {"step": 6, "note": 28, "vel": 100, "len": 1}, {"step": 7, "note": 28, "vel": 100, "len": 1}]}, {"bar": 5, "events": [{"step": 0, "note": 24, "vel": 110, "len": 1}, {"step": 2, "note": 24, "vel": 100, "len": 1}, {"step": 4, "note": 24, "vel": 110, "len": 1}, {"step": 6, "note": 24, "vel": 100, "len": 1}]}, {"bar": 6, "events": [{"step": 0, "note": 26, "vel": 110, "len": 1}, {"step": 2, "note": 26, "vel": 100, "len": 1}, {"step": 4, "note": 26, "vel": 110, "len": 1}, {"step": 6, "note": 26, "vel": 100, "len": 1}]}, {"bar": 9, "events": [{"step": 0, "note": 31, "vel": 110, "len": 1}, {"step": 2, "note": 31, "vel": 100, "len": 1}, {"step": 4, "note": 26, "vel": 110, "len": 1}, {"step": 6, "note": 26, "vel": 100, "len": 1}]}]}