{"pattern": [{"bar": 1, "events": [{"step": 0, "note": 36, "vel": 120, "len": 1}, {"step": 0, "note": 49, "vel": 127, "len": 1}, {"step": 0, "note": 40, "vel": 110, "len": 1}, {"step": 0, "note": 28, "vel": 110, "len": 1}, {"step": 1, "note": 42, "vel": 90, "len": 1}, {"step": 1, "note": 40, "vel": 100, "len": 1}, {"step": 1, "note": 28, "vel": 100, "len": 1}, {"step": 2, "note": 38, "vel": 120, "len": 1}, {"step": 2, "note": 42, "vel": 90, "len": 1}, {"step": 2, "note": 40, "vel": 100, "len": 1}, {"step": 2, "note": 28, "vel": 100, "len": 1}, {"step": 3, "note": 36, "vel": 110, "len": 1}, {"step": 3, "note": 42, "vel": 90, "len": 1}, {"step": 3, "note": 40, "vel": 100, "len": 1}, {"step": 3, "note": 28, "vel": 100, "len": 1}, {"step": 4, "note": 36, "vel": 120, "len": 1}, {"step": 4, "note": 42, "vel": 90, "len": 1}, {"step": 4, "note": 40, "vel": 110, "len": 1}, {"step": 4, "note": 28, "vel": 110, "len": 1}, {"step": 5, "note": 36, "vel": 100, "len": 1}, {"step": 5, "note": 42, "vel": 90, "len": 1}, {"step": 5, "note": 28, "vel": 100, "len": 1}, {"step": 6, "note": 38, "vel": 120, "len": 1}, {"step": 6, "note": 42, "vel": 90, "len": 1}, {"step": 6, "note": 40, "vel": 100, "len": 1}, {"step": 6, "note": 28, "vel": 100, "len": 1}, {"step": 7, "note": 42, "vel": 90, "len": 1}, {"step": 7, "note": 40, "vel": 100, "len": 1}, {"step": 7, "note": 28, "vel": 100, "len": 1}]}, {"bar": 2, "events": [{"step": 0, "note": 36, "vel": 120, "len": 1}, {"step": 0, "note": 42, "vel": 90, "len": 1}, {"step": 0, "note": 40, "vel": 110, "len": 1}, {"step": 0, "note": 28, "vel": 110, "len": 1}, {"step": 1, "note": 42, "vel": 90, "len": 1}, {"step": 1, "note": 28, "vel": 100, "len": 1}, {"step": 2, "note": 38, "vel": 120, "len": 1}, {"step": 2, "note": 42, "vel": 90, "len": 1}, {"step": 2, "note": 40, "vel": 100, "len": 1}, {"step": 2, "note": 28, "vel": 100, "len": 1}, {"step": 3, "note": 36, "vel": 110, "len": 1}, {"step": 3, "note": 42, "vel": 90, "len": 1}, {"step": 3, "note": 40, "vel": 100, "len": 1}, {"step": 3, "note": 28, "vel": 100, "len": 1}, {"step": 4, "note": 36, "vel": 120, "len": 1}, {"step": 4, "note": 42, "vel": 90, "len": 1}, {"step": 4, "note": 40, "vel": 110, "len": 1}, {"step": 4, "note": 28, "vel": 110, "len": 1}, {"step": 5, "note": 42, "vel": 90, "len": 1}, {"step": 5, "note": 28, "vel": 100, "len": 1}, {"step": 6, "note": 38, "vel": 120, "len": 1}, {"step": 6, "note": 42, "vel": 90, "len": 1}, {"step": 6, "note": 40, "vel": 100, "len": 1}, {"step": 6, "note": 28, "vel": 100, "len": 1}, {"step": 7, "note": 36, "vel": 100, "len": 1}, {"step": 7, "note": 42, "vel": 90, "len": 1}, {"step": 7, "note": 40, "vel": 100, "len": 1}, {"step": 7, "note": 28, "vel": 100, "len": 1}]}, {"bar": 5, "events": [{"step": 0, "note": 36, "vel": 120, "len": 1}, {"step": 0, "note": 49, "vel": 127, "len": 1}, {"step": 0, "note": 36, "vel": 110, "len": 1}, {"step": 0, "note": 24, "vel": 110, "len": 1}, {"step": 2, "note": 38, "vel": 120, "len": 1}, {"step": 2, "note": 36, "vel": 100, "len": 1}, {"step": 2, "note": 24, "vel": 100, "len": 1}, {"step": 4, "note": 36, "vel": 120, "len": 1}, {"step": 4, "note": 36, "vel": 110, "len": 1}, {"step": 4, "note": 24, "vel": 110, "len": 1}, {"step": 6, "note": 38, "vel": 120, "len": 1}, {"step": 6, "note": 36, "vel": 100, "len": 1}, {"step": 6, "note": 24, "vel": 100, "len": 1}]}, {"bar": 6, "events": [{"step": 0, "note": 36, "vel": 120, "len": 1}, {"step": 0, "note": 38, "vel": 110, "len": 1}, {"step": 0, "note": 26, "vel": 110, "len": 1}, {"step": 2, "note": 38, "vel": 120, "len": 1}, {"step": 2, "note": 38, "vel": 100, "len": 1}, {"step": 2, "note": 26, "vel": 100, "len": 1}, {"step": 4, "note": 36, "vel": 120, "len": 1}, {"step": 4, "note": 38, "vel": 110, "len": 1}, {"step": 4, "note": 26, "vel": 110, "len": 1}, {"step": 6, "note": 38, "vel": 120, "len": 1}, {"step": 6, "note": 38, "vel": 100, "len": 1}, {"step": 6, "note": 26, "vel": 100, "len": 1}]}], "layers": {"Electric Guitar": [{"bar": 1, "events": [{"step": 0, "note": 40, "vel": 110, "len": 1}, {"step": 0, "note": 47, "vel": 110, "len": 1}, {"step": 1, "note": 40, "vel": 100, "len": 1}, {"step": 1, "note": 47, "vel": 100, "len": 1}, {"step": 2, "note": 40, "vel": 100, "len": 1}, {"step": 2, "note": 47, "vel": 100, "len": 1}, {"step": 3, "note": 40, "vel": 100, "len": 1}, {"step": 3, "note": 47, "vel": 100, "len": 1}, {"step": 4, "note": 40, "vel": 110, "len": 1}, {"step": 4, "note": 47, "vel": 110, "len": 1}, {"step": 6, "note": 40, "vel": 100, "len": 1}, {"step": 6, "note": 47, "vel": 100, "len": 1}, {"step": 7, "note": 40, "vel": 100, "len": 1}, {"step": 7, "note": 47, "vel": 100, "len": 1}]}, {"bar": 2, "events": [{"step": 0, "note": 40, "vel": 110, "len": 1}, {"step": 0, "note": 47, "vel": 110, "len": 1}, {"step": 2, "note": 40, "vel": 100, "len": 1}, {"step": 2, "note": 47, "vel": 100, "len": 1}, {"step": 3, "note": 40, "vel": 100, "len": 1}, {"step": 3, "note": 47, "vel": 100, "len": 1}, {"step": 4, "note": 40, "vel": 110, "len": 1}, {"step": 4, "note": 47, "vel": 110, "len": 1}, {"step": 6, "note": 40, "vel": 100, "len": 1}, {"step": 6, "note": 47, "vel": 100, "len": 1}, {"step": 7, "note": 40, "vel": 100, "len": 1}, {"step": 7, "note": 47, "vel": 100, "len": 1}]}, {"bar": 5, "events": [{"step": 0, "note": 36, "vel": 110, "len": 1}, {"step": 0, "note": 43, "vel": 110, "len": 1}, {"step": 2, "note": 36, "vel": 100, "len": 1}, {"step": 2, "note": 43, "vel": 100, "len": 1}, {"step": 4, "note": 36, "vel": 110, "len": 1}, {"step": 4, "note": 43, "vel": 110, "len": 1}, {"step": 6, "note": 36, "vel": 100, "len": 1}, {"step": 6, "note": 43, "vel": 100, "len": 1}]}, {"bar": 6, "events": [{"step": 0, "note": 38, "vel": 110, "len": 1}, {"step": 0, "note": 45, "vel": 110, "len": 1}, {"step": 2, "note": 38, "vel": 100, "len": 1}, {"step": 2, "note": 45, "vel": 100, "len": 1}, {"step": 4, "note": 38, "vel": 110, "len": 1}, {"step": 4, "note": 45, "vel": 110, "len": 1}, {"step": 6, "note": 38, "vel": 100, "len": 1}, {"step": 6, "note": 45, "vel": 100, "len": 1}]}, {"bar": 9, "events": [{"step": 0, "note": 43, "vel": 115, "len": 2}, {"step": 0, "note": 50, "vel": 115, "len": 2}, {"step": 4, "note": 38, "vel": 115, "len": 2}, {"step": 4, "note": 45, "vel": 115, "len": 2}]}, {"bar": 13, "events": [{"step": 0, "note": 40, "vel": 120, "len": 1}, {"step": 1, "note": 40, "vel": 110, "len": 1}, {"step": 2, "note": 40, "vel": 120, "len": 1}, {"step": 3, "note": 40, "vel": 110, "len": 1}, {"step": 4, "note": 40, "vel": 120, "len": 1}, {"step": 5, "note": 40, "vel": 110, "len": 1}, {"step": 6, "note": 40, "vel": 120, "len": 1}, {"step": 7, "note": 40, "vel": 110, "len": 1}]}], "Bass Guitar": [{"bar": 1, "events": [{"step": 0, "note": 28, "vel": 110, "len": 1}, {"step": 1, "note": 28, "vel": 100, "len": 1}, {"step": 2, "note": 28, "vel": 100, "len": 1}, {"step": 3, "note": 28, "vel": 100, "len": 1}, {"step": 4, "note": 28, "vel": 110, "len": 1}, {"step": 5, "note": 28, "vel": 100, "len": 1}, {"step": 6, "note": 28, "vel": 100, "len": 1}, {"step": 7, "note": 28, "vel": 100, "len": 1}]}, {"bar": 5, "events": [{"step": 0, "note": 24, "vel": 110, "len": 1}, {"step": 2, "note": 24, "vel": 100, "len": 1}, {"step": 4, "note": 24, "vel": 110, "len": 1}, {"step": 6, "note": 24, "vel": 100, "len": 1}]}, {"bar": 6, "events": [{"step": 0, "note": 26, "vel": 110, "len": 1}, {"step": 2, "note": 26, "vel": 100, "len": 1}, {"step": 4, "note": 26, "vel": 110, "len": 1}, {"step": 6, "note": 26, "vel": 100, "len": 1}]}, {"bar": 9, "events": [{"step": 0, "note": 31, "vel": 110, "len": 1}, {"step": 2, "note": 31, "vel": 100, "len": 1}, {"step": 4, "note": 26, "vel": 110, "len": 1}, {"step": 6, "note": 26, "vel": 100, "len": 1}]}], "Kick": [{"bar": 1, "events": [{"step": 0, "note": 36, "vel": 120, "len": 1}, {"step": 3, "note": 36, "vel": 110, "len": 1}, {"step": 4, "note": 36, "vel": 120, "len": 1}, {"step": 5, "note": 36, "vel": 100, "len": 1}]}, {"bar": 2, "events": [{"step": 0, "note": 36, "vel": 120, "len": 1}, {"step": 3, "note": 36, "vel": 110, "len": 1}, {"step": 4, "note": 36, "vel": 120, "len": 1}, {"step": 7, "note": 36, "vel": 100, "len": 1}]}, {"bar": 9, "events": [{"step": 0, "note": 36, "vel": 120, "len": 1}, {"step": 2, "note": 36, "vel": 110, "len": 1}, {"step": 4, "note": 36, "vel": 120, "len": 1}, {"step": 6, "note": 36, "vel": 110, "len": 1}]}], "Snare": [{"bar": 1, "events": [{"step": 2, "note": 38, "vel": 120, "len": 1}, {"step": 6, "note": 38, "vel": 120, "len": 1}]}, {"bar": 2, "events": [{"step": 2, "note": 38, "vel": 120, "len": 1}, {"step": 6, "note": 38, "vel": 120, "len": 1}]}, {"bar": 13, "events": [{"step": 0, "note": 38, "vel": 100, "len": 1}, {"step": 1, "note": 38, "vel": 110, "len": 1}, {"step": 2, "note": 38, "vel": 120, "len": 1}, {"step": 3, "note": 38, "vel": 127, "len": 1}, {"step": 4, "note": 38, "vel": 127, "len": 1}, {"step": 5, "note": 38, "vel": 127, "len": 1}, {"step": 6, "note": 38, "vel": 127, "len": 1}, {"step": 7, "note": 38, "vel": 127, "len": 1}]}], "Hat": [{"bar": 1, "events": [{"step": 0, "note": 42, "vel": 90, "len": 1}, {"step": 1, "note": 42, "vel": 90, "len": 1}, {"step": 2, "note": 42, "vel": 90, "len": 1}, {"step": 3, "note": 42, "vel": 90, "len": 1}, {"step": 4, "note": 42, "vel": 90, "len": 1}, {"step": 5, "note": 42, "vel": 90, "len": 1}, {"step": 6, "note": 42, "vel": 90, "len": 1}, {"step": 7, "note": 42, "vel": 90, "len": 1}]}], "Crash": [{"bar": 1, "events": [{"step": 0, "note": 49, "vel": 127, "len": 1}]}, {"bar": 5, "events": [{"step": 0, "note": 49, "vel": 127, "len": 1}]}, {"bar": 9, "events": [{"step": 0, "note": 49, "vel": 127, "len": 1}]}, {"bar": 13, "events": [{"step": 0, "note": 49, "vel": 127, "len": 1}]}]}, "meta": {"style": "Rock", "mood": "Energetic", "tempo": 138, "key": "E", "scale": "Minor", "meter": "4/4", "dynamic_profile": "High Energy", "arrangement_density": "Dense", "harmonic_color": "Distorted", "length_seconds": 30.0, "bars": 16, "instrument_configs": [{"name": "Electric Guitar", "register": "Mid-High", "role": "Lead", "articulation": "Sustain", "dynamic_range": "Intense"}, {"name": "Bass Guitar", "register": "Low", "role": "Bass", "articulation": "Picked", "dynamic_range": "Steady"}, {"name": "Kick", "register": "Low", "role": "Percussion", "articulation": "Percussive", "dynamic_range": "Punchy"}, {"name": "Snare", "register": "Mid", "role": "Percussion", "articulation": "Percussive", "dynamic_range": "Punchy"}, {"name": "Hat", "register": "High", "role": "Percussion", "articulation": "Percussive", "dynamic_range": "Moderate"}, {"name": "Crash", "register": "High", "role": "Percussion", "articulation": "Percussive", "dynamic_range": "Loud"}], "instruments": ["Electric Guitar", "Bass Guitar", "Kick", "Snare", "Hat", "Crash"]}}