{"request": {"project_name": "test-delete-this", "run_id": "860dccf78baa", "user_id": 2, "midi": {"pattern": [{"bar": 1, "events": [{"step": 0, "note": 38, "vel": 100, "len": 1}, {"step": 4, "note": 38, "vel": 100, "len": 1}]}, {"bar": 2, "events": [{"step": 0, "note": 38, "vel": 100, "len": 1}, {"step": 4, "note": 38, "vel": 100, "len": 1}]}, {"bar": 3, "events": [{"step": 0, "note": 38, "vel": 100, "len": 1}, {"step": 4, "note": 38, "vel": 100, "len": 1}]}, {"bar": 4, "events": [{"step": 0, "note": 38, "vel": 100, "len": 1}, {"step": 4, "note": 38, "vel": 100, "len": 1}]}, {"bar": 5, "events": [{"step": 0, "note": 38, "vel": 100, "len": 1}, {"step": 4, "note": 38, "vel": 100, "len": 1}]}, {"bar": 6, "events": [{"step": 0, "note": 38, "vel": 100, "len": 1}, {"step": 4, "note": 38, "vel": 100, "len": 1}]}, {"bar": 7, "events": [{"step": 0, "note": 38, "vel": 100, "len": 1}, {"step": 4, "note": 38, "vel": 100, "len": 1}]}, {"bar": 8, "events": [{"step": 0, "note": 38, "vel": 100, "len": 1}, {"step": 4, "note": 38, "vel": 100, "len": 1}]}, {"bar": 9, "events": [{"step": 0, "note": 38, "vel": 100, "len": 1}, {"step": 4, "note": 38, "vel": 100, "len": 1}]}, {"bar": 10, "events": [{"step": 0, "note": 38, "vel": 100, "len": 1}, {"step": 4, "note": 38, "vel": 100, "len": 1}]}, {"bar": 11, "events": [{"step": 0, "note": 38, "vel": 100, "len": 1}, {"step": 4, "note": 38, "vel": 100, "len": 1}]}, {"bar": 12, "events": [{"step": 0, "note": 38, "vel": 100, "len": 1}, {"step": 4, "note": 38, "vel": 100, "len": 1}]}, {"bar": 13, "events": [{"step": 0, "note": 38, "vel": 100, "len": 1}, {"step": 4, "note": 38, "vel": 100, "len": 1}]}, {"bar": 14, "events": [{"step": 0, "note": 38, "vel": 100, "len": 1}, {"step": 4, "note": 38, "vel": 100, "len": 1}]}, {"bar": 15, "events": [{"step": 0, "note": 38, "vel": 100, "len": 1}, {"step": 4, "note": 38, "vel": 100, "len": 1}]}, {"bar": 16, "events": [{"step": 0, "note": 38, "vel": 100, "len": 1}, {"step": 4, "note": 38, "vel": 100, "len": 1}]}], "layers": {"Acoustic Guitar": [{"bar": 1, "events": [{"step": 0, "note": 60, "vel": 80, "len": 2}, {"step": 2, "note": 64, "vel": 80, "len": 2}, {"step": 4, "note": 67, "vel": 80, "len": 2}, {"step": 6, "note": 60, "vel": 80, "len": 2}]}, {"bar": 2, "events": [{"step": 0, "note": 60, "vel": 80, "len": 2}, {"step": 2, "note": 64, "vel": 80, "len": 2}, {"step": 4, "note": 67, "vel": 80, "len": 2}, {"step": 6, "note": 60, "vel": 80, "len": 2}]}, {"bar": 3, "events": [{"step": 0, "note": 60, "vel": 80, "len": 2}, {"step": 2, "note": 64, "vel": 80, "len": 2}, {"step": 4, "note": 67, "vel": 80, "len": 2}, {"step": 6, "note": 60, "vel": 80, "len": 2}]}, {"bar": 4, "events": [{"step": 0, "note": 60, "vel": 80, "len": 2}, {"step": 2, "note": 64, "vel": 80, "len": 2}, {"step": 4, "note": 67, "vel": 80, "len": 2}, {"step": 6, "note": 60, "vel": 80, "len": 2}]}, {"bar": 5, "events": [{"step": 0, "note": 60, "vel": 80, "len": 2}, {"step": 2, "note": 64, "vel": 80, "len": 2}, {"step": 4, "note": 67, "vel": 80, "len": 2}, {"step": 6, "note": 60, "vel": 80, "len": 2}]}, {"bar": 6, "events": [{"step": 0, "note": 60, "vel": 80, "len": 2}, {"step": 2, "note": 64, "vel": 80, "len": 2}, {"step": 4, "note": 67, "vel": 80, "len": 2}, {"step": 6, "note": 60, "vel": 80, "len": 2}]}, {"bar": 7, "events": [{"step": 0, "note": 60, "vel": 80, "len": 2}, {"step": 2, "note": 64, "vel": 80, "len": 2}, {"step": 4, "note": 67, "vel": 80, "len": 2}, {"step": 6, "note": 60, "vel": 80, "len": 2}]}, {"bar": 8, "events": [{"step": 0, "note": 60, "vel": 80, "len": 2}, {"step": 2, "note": 64, "vel": 80, "len": 2}, {"step": 4, "note": 67, "vel": 80, "len": 2}, {"step": 6, "note": 60, "vel": 80, "len": 2}]}, {"bar": 9, "events": [{"step": 0, "note": 60, "vel": 80, "len": 2}, {"step": 2, "note": 64, "vel": 80, "len": 2}, {"step": 4, "note": 67, "vel": 80, "len": 2}, {"step": 6, "note": 60, "vel": 80, "len": 2}]}, {"bar": 10, "events": [{"step": 0, "note": 60, "vel": 80, "len": 2}, {"step": 2, "note": 64, "vel": 80, "len": 2}, {"step": 4, "note": 67, "vel": 80, "len": 2}, {"step": 6, "note": 60, "vel": 80, "len": 2}]}, {"bar": 11, "events": [{"step": 0, "note": 60, "vel": 80, "len": 2}, {"step": 2, "note": 64, "vel": 80, "len": 2}, {"step": 4, "note": 67, "vel": 80, "len": 2}, {"step": 6, "note": 60, "vel": 80, "len": 2}]}, {"bar": 12, "events": [{"step": 0, "note": 60, "vel": 80, "len": 2}, {"step": 2, "note": 64, "vel": 80, "len": 2}, {"step": 4, "note": 67, "vel": 80, "len": 2}, {"step": 6, "note": 60, "vel": 80, "len": 2}]}, {"bar": 13, "events": [{"step": 0, "note": 60, "vel": 80, "len": 2}, {"step": 2, "note": 64, "vel": 80, "len": 2}, {"step": 4, "note": 67, "vel": 80, "len": 2}, {"step": 6, "note": 60, "vel": 80, "len": 2}]}, {"bar": 14, "events": [{"step": 0, "note": 60, "vel": 80, "len": 2}, {"step": 2, "note": 64, "vel": 80, "len": 2}, {"step": 4, "note": 67, "vel": 80, "len": 2}, {"step": 6, "note": 60, "vel": 80, "len": 2}]}, {"bar": 15, "events": [{"step": 0, "note": 60, "vel": 80, "len": 2}, {"step": 2, "note": 64, "vel": 80, "len": 2}, {"step": 4, "note": 67, "vel": 80, "len": 2}, {"step": 6, "note": 60, "vel": 80, "len": 2}]}, {"bar": 16, "events": [{"step": 0, "note": 60, "vel": 80, "len": 2}, {"step": 2, "note": 64, "vel": 80, "len": 2}, {"step": 4, "note": 67, "vel": 80, "len": 2}, {"step": 6, "note": 60, "vel": 80, "len": 2}]}]}, "meta": {"status": "success", "tempo": 120, "key": "C Major", "scale": "Major", "style": "Pop", "mood": "Happy", "meter": "4/4", "dynamic_profile": "Moderate to Intense", "arrangement_density": "Medium", "harmonic_color": "Bright", "length_seconds": 128, "bars": 16, "instrument_configs": [{"name": "Acoustic Guitar", "register": "Mid", "role": "Accompaniment", "articulation": "Legato", "dynamic_range": "Moderate"}, {"name": "Snare", "register": "Mid", "role": "Percussion", "articulation": "Percussive", "dynamic_range": "Intense"}], "instruments": ["Acoustic Guitar", "Snare"]}}, "midi_per_instrument": {"Acoustic Guitar": {"meta": {"status": "success", "tempo": 120, "key": "C Major", "scale": "Major", "style": "Pop", "mood": "Happy", "meter": "4/4", "dynamic_profile": "Moderate to Intense", "arrangement_density": "Medium", "harmonic_color": "Bright", "length_seconds": 128, "bars": 16, "instrument_configs": [{"name": "Acoustic Guitar", "register": "Mid", "role": "Accompaniment", "articulation": "Legato", "dynamic_range": "Moderate"}, {"name": "Snare", "register": "Mid", "role": "Percussion", "articulation": "Percussive", "dynamic_range": "Intense"}], "instruments": ["Acoustic Guitar", "Snare"], "instrument": "Acoustic Guitar"}, "layers": {"Acoustic Guitar": [{"bar": 1, "events": [{"step": 0, "note": 60, "vel": 80, "len": 2}, {"step": 2, "note": 64, "vel": 80, "len": 2}, {"step": 4, "note": 67, "vel": 80, "len": 2}, {"step": 6, "note": 60, "vel": 80, "len": 2}]}, {"bar": 2, "events": [{"step": 0, "note": 60, "vel": 80, "len": 2}, {"step": 2, "note": 64, "vel": 80, "len": 2}, {"step": 4, "note": 67, "vel": 80, "len": 2}, {"step": 6, "note": 60, "vel": 80, "len": 2}]}, {"bar": 3, "events": [{"step": 0, "note": 60, "vel": 80, "len": 2}, {"step": 2, "note": 64, "vel": 80, "len": 2}, {"step": 4, "note": 67, "vel": 80, "len": 2}, {"step": 6, "note": 60, "vel": 80, "len": 2}]}, {"bar": 4, "events": [{"step": 0, "note": 60, "vel": 80, "len": 2}, {"step": 2, "note": 64, "vel": 80, "len": 2}, {"step": 4, "note": 67, "vel": 80, "len": 2}, {"step": 6, "note": 60, "vel": 80, "len": 2}]}, {"bar": 5, "events": [{"step": 0, "note": 60, "vel": 80, "len": 2}, {"step": 2, "note": 64, "vel": 80, "len": 2}, {"step": 4, "note": 67, "vel": 80, "len": 2}, {"step": 6, "note": 60, "vel": 80, "len": 2}]}, {"bar": 6, "events": [{"step": 0, "note": 60, "vel": 80, "len": 2}, {"step": 2, "note": 64, "vel": 80, "len": 2}, {"step": 4, "note": 67, "vel": 80, "len": 2}, {"step": 6, "note": 60, "vel": 80, "len": 2}]}, {"bar": 7, "events": [{"step": 0, "note": 60, "vel": 80, "len": 2}, {"step": 2, "note": 64, "vel": 80, "len": 2}, {"step": 4, "note": 67, "vel": 80, "len": 2}, {"step": 6, "note": 60, "vel": 80, "len": 2}]}, {"bar": 8, "events": [{"step": 0, "note": 60, "vel": 80, "len": 2}, {"step": 2, "note": 64, "vel": 80, "len": 2}, {"step": 4, "note": 67, "vel": 80, "len": 2}, {"step": 6, "note": 60, "vel": 80, "len": 2}]}, {"bar": 9, "events": [{"step": 0, "note": 60, "vel": 80, "len": 2}, {"step": 2, "note": 64, "vel": 80, "len": 2}, {"step": 4, "note": 67, "vel": 80, "len": 2}, {"step": 6, "note": 60, "vel": 80, "len": 2}]}, {"bar": 10, "events": [{"step": 0, "note": 60, "vel": 80, "len": 2}, {"step": 2, "note": 64, "vel": 80, "len": 2}, {"step": 4, "note": 67, "vel": 80, "len": 2}, {"step": 6, "note": 60, "vel": 80, "len": 2}]}, {"bar": 11, "events": [{"step": 0, "note": 60, "vel": 80, "len": 2}, {"step": 2, "note": 64, "vel": 80, "len": 2}, {"step": 4, "note": 67, "vel": 80, "len": 2}, {"step": 6, "note": 60, "vel": 80, "len": 2}]}, {"bar": 12, "events": [{"step": 0, "note": 60, "vel": 80, "len": 2}, {"step": 2, "note": 64, "vel": 80, "len": 2}, {"step": 4, "note": 67, "vel": 80, "len": 2}, {"step": 6, "note": 60, "vel": 80, "len": 2}]}, {"bar": 13, "events": [{"step": 0, "note": 60, "vel": 80, "len": 2}, {"step": 2, "note": 64, "vel": 80, "len": 2}, {"step": 4, "note": 67, "vel": 80, "len": 2}, {"step": 6, "note": 60, "vel": 80, "len": 2}]}, {"bar": 14, "events": [{"step": 0, "note": 60, "vel": 80, "len": 2}, {"step": 2, "note": 64, "vel": 80, "len": 2}, {"step": 4, "note": 67, "vel": 80, "len": 2}, {"step": 6, "note": 60, "vel": 80, "len": 2}]}, {"bar": 15, "events": [{"step": 0, "note": 60, "vel": 80, "len": 2}, {"step": 2, "note": 64, "vel": 80, "len": 2}, {"step": 4, "note": 67, "vel": 80, "len": 2}, {"step": 6, "note": 60, "vel": 80, "len": 2}]}, {"bar": 16, "events": [{"step": 0, "note": 60, "vel": 80, "len": 2}, {"step": 2, "note": 64, "vel": 80, "len": 2}, {"step": 4, "note": 67, "vel": 80, "len": 2}, {"step": 6, "note": 60, "vel": 80, "len": 2}]}]}, "pattern": [{"bar": 1, "events": [{"step": 0, "note": 60, "vel": 80, "len": 2}, {"step": 2, "note": 64, "vel": 80, "len": 2}, {"step": 4, "note": 67, "vel": 80, "len": 2}, {"step": 6, "note": 60, "vel": 80, "len": 2}]}, {"bar": 2, "events": [{"step": 0, "note": 60, "vel": 80, "len": 2}, {"step": 2, "note": 64, "vel": 80, "len": 2}, {"step": 4, "note": 67, "vel": 80, "len": 2}, {"step": 6, "note": 60, "vel": 80, "len": 2}]}, {"bar": 3, "events": [{"step": 0, "note": 60, "vel": 80, "len": 2}, {"step": 2, "note": 64, "vel": 80, "len": 2}, {"step": 4, "note": 67, "vel": 80, "len": 2}, {"step": 6, "note": 60, "vel": 80, "len": 2}]}, {"bar": 4, "events": [{"step": 0, "note": 60, "vel": 80, "len": 2}, {"step": 2, "note": 64, "vel": 80, "len": 2}, {"step": 4, "note": 67, "vel": 80, "len": 2}, {"step": 6, "note": 60, "vel": 80, "len": 2}]}, {"bar": 5, "events": [{"step": 0, "note": 60, "vel": 80, "len": 2}, {"step": 2, "note": 64, "vel": 80, "len": 2}, {"step": 4, "note": 67, "vel": 80, "len": 2}, {"step": 6, "note": 60, "vel": 80, "len": 2}]}, {"bar": 6, "events": [{"step": 0, "note": 60, "vel": 80, "len": 2}, {"step": 2, "note": 64, "vel": 80, "len": 2}, {"step": 4, "note": 67, "vel": 80, "len": 2}, {"step": 6, "note": 60, "vel": 80, "len": 2}]}, {"bar": 7, "events": [{"step": 0, "note": 60, "vel": 80, "len": 2}, {"step": 2, "note": 64, "vel": 80, "len": 2}, {"step": 4, "note": 67, "vel": 80, "len": 2}, {"step": 6, "note": 60, "vel": 80, "len": 2}]}, {"bar": 8, "events": [{"step": 0, "note": 60, "vel": 80, "len": 2}, {"step": 2, "note": 64, "vel": 80, "len": 2}, {"step": 4, "note": 67, "vel": 80, "len": 2}, {"step": 6, "note": 60, "vel": 80, "len": 2}]}, {"bar": 9, "events": [{"step": 0, "note": 60, "vel": 80, "len": 2}, {"step": 2, "note": 64, "vel": 80, "len": 2}, {"step": 4, "note": 67, "vel": 80, "len": 2}, {"step": 6, "note": 60, "vel": 80, "len": 2}]}, {"bar": 10, "events": [{"step": 0, "note": 60, "vel": 80, "len": 2}, {"step": 2, "note": 64, "vel": 80, "len": 2}, {"step": 4, "note": 67, "vel": 80, "len": 2}, {"step": 6, "note": 60, "vel": 80, "len": 2}]}, {"bar": 11, "events": [{"step": 0, "note": 60, "vel": 80, "len": 2}, {"step": 2, "note": 64, "vel": 80, "len": 2}, {"step": 4, "note": 67, "vel": 80, "len": 2}, {"step": 6, "note": 60, "vel": 80, "len": 2}]}, {"bar": 12, "events": [{"step": 0, "note": 60, "vel": 80, "len": 2}, {"step": 2, "note": 64, "vel": 80, "len": 2}, {"step": 4, "note": 67, "vel": 80, "len": 2}, {"step": 6, "note": 60, "vel": 80, "len": 2}]}, {"bar": 13, "events": [{"step": 0, "note": 60, "vel": 80, "len": 2}, {"step": 2, "note": 64, "vel": 80, "len": 2}, {"step": 4, "note": 67, "vel": 80, "len": 2}, {"step": 6, "note": 60, "vel": 80, "len": 2}]}, {"bar": 14, "events": [{"step": 0, "note": 60, "vel": 80, "len": 2}, {"step": 2, "note": 64, "vel": 80, "len": 2}, {"step": 4, "note": 67, "vel": 80, "len": 2}, {"step": 6, "note": 60, "vel": 80, "len": 2}]}, {"bar": 15, "events": [{"step": 0, "note": 60, "vel": 80, "len": 2}, {"step": 2, "note": 64, "vel": 80, "len": 2}, {"step": 4, "note": 67, "vel": 80, "len": 2}, {"step": 6, "note": 60, "vel": 80, "len": 2}]}, {"bar": 16, "events": [{"step": 0, "note": 60, "vel": 80, "len": 2}, {"step": 2, "note": 64, "vel": 80, "len": 2}, {"step": 4, "note": 67, "vel": 80, "len": 2}, {"step": 6, "note": 60, "vel": 80, "len": 2}]}]}, "Snare": {"meta": {"status": "success", "tempo": 120, "key": "C Major", "scale": "Major", "style": "Pop", "mood": "Happy", "meter": "4/4", "dynamic_profile": "Moderate to Intense", "arrangement_density": "Medium", "harmonic_color": "Bright", "length_seconds": 128, "bars": 16, "instrument_configs": [{"name": "Acoustic Guitar", "register": "Mid", "role": "Accompaniment", "articulation": "Legato", "dynamic_range": "Moderate"}, {"name": "Snare", "register": "Mid", "role": "Percussion", "articulation": "Percussive", "dynamic_range": "Intense"}], "instruments": ["Acoustic Guitar", "Snare"], "instrument": "Snare"}, "layers": {}, "pattern": [{"bar": 1, "events": [{"step": 0, "note": 38, "vel": 100, "len": 1}, {"step": 4, "note": 38, "vel": 100, "len": 1}]}, {"bar": 2, "events": [{"step": 0, "note": 38, "vel": 100, "len": 1}, {"step": 4, "note": 38, "vel": 100, "len": 1}]}, {"bar": 3, "events": [{"step": 0, "note": 38, "vel": 100, "len": 1}, {"step": 4, "note": 38, "vel": 100, "len": 1}]}, {"bar": 4, "events": [{"step": 0, "note": 38, "vel": 100, "len": 1}, {"step": 4, "note": 38, "vel": 100, "len": 1}]}, {"bar": 5, "events": [{"step": 0, "note": 38, "vel": 100, "len": 1}, {"step": 4, "note": 38, "vel": 100, "len": 1}]}, {"bar": 6, "events": [{"step": 0, "note": 38, "vel": 100, "len": 1}, {"step": 4, "note": 38, "vel": 100, "len": 1}]}, {"bar": 7, "events": [{"step": 0, "note": 38, "vel": 100, "len": 1}, {"step": 4, "note": 38, "vel": 100, "len": 1}]}, {"bar": 8, "events": [{"step": 0, "note": 38, "vel": 100, "len": 1}, {"step": 4, "note": 38, "vel": 100, "len": 1}]}, {"bar": 9, "events": [{"step": 0, "note": 38, "vel": 100, "len": 1}, {"step": 4, "note": 38, "vel": 100, "len": 1}]}, {"bar": 10, "events": [{"step": 0, "note": 38, "vel": 100, "len": 1}, {"step": 4, "note": 38, "vel": 100, "len": 1}]}, {"bar": 11, "events": [{"step": 0, "note": 38, "vel": 100, "len": 1}, {"step": 4, "note": 38, "vel": 100, "len": 1}]}, {"bar": 12, "events": [{"step": 0, "note": 38, "vel": 100, "len": 1}, {"step": 4, "note": 38, "vel": 100, "len": 1}]}, {"bar": 13, "events": [{"step": 0, "note": 38, "vel": 100, "len": 1}, {"step": 4, "note": 38, "vel": 100, "len": 1}]}, {"bar": 14, "events": [{"step": 0, "note": 38, "vel": 100, "len": 1}, {"step": 4, "note": 38, "vel": 100, "len": 1}]}, {"bar": 15, "events": [{"step": 0, "note": 38, "vel": 100, "len": 1}, {"step": 4, "note": 38, "vel": 100, "len": 1}]}, {"bar": 16, "events": [{"step": 0, "note": 38, "vel": 100, "len": 1}, {"step": 4, "note": 38, "vel": 100, "len": 1}]}]}}, "tracks": [{"instrument": "Acoustic Guitar", "enabled": true, "volume_db": 0.0, "pan": 0.0}, {"instrument": "Snare", "enabled": true, "volume_db": -3.0, "pan": 0.0}], "selected_samples": {"Snare": "Drums/RealDrumkits/RD_Snare_5.wav", "Acoustic Guitar": "Instruments/Guitar/Guitar/Acoustic Guitar 01/ACOUSTICG 1_G3.wav"}, "fadeout_seconds": 0.01}, "response": {"project_name": "test-delete-this", "run_id": "860dccf78baa", "mix_wav_rel": "output\\860dccf78baa\\test-delete-this_mix_1767459731.wav", "stems": [{"instrument": "Acoustic Guitar", "audio_rel": "output\\860dccf78baa\\test-delete-this_Acoustic Guitar_1767459731.wav"}, {"instrument": "Snare", "audio_rel": "output\\860dccf78baa\\test-delete-this_Snare_1767459731.wav"}], "sample_rate": 44100, "duration_seconds": 128.0}}