{"request": {"project_name": "jgcghx", "run_id": "b5fc9cafda47", "midi": {"pattern": [{"bar": 1, "events": [{"step": 0, "note": 36, "vel": 80, "len": 2}, {"step": 2, "note": 42, "vel": 60, "len": 1}, {"step": 4, "note": 38, "vel": 100, "len": 1}, {"step": 6, "note": 42, "vel": 60, "len": 1}]}, {"bar": 2, "events": [{"step": 0, "note": 36, "vel": 80, "len": 2}, {"step": 3, "note": 42, "vel": 60, "len": 1}, {"step": 5, "note": 38, "vel": 100, "len": 1}, {"step": 7, "note": 42, "vel": 60, "len": 1}]}, {"bar": 3, "events": [{"step": 1, "note": 42, "vel": 60, "len": 1}, {"step": 3, "note": 38, "vel": 100, "len": 1}, {"step": 5, "note": 42, "vel": 60, "len": 1}, {"step": 6, "note": 36, "vel": 80, "len": 2}]}, {"bar": 4, "events": [{"step": 0, "note": 36, "vel": 80, "len": 2}, {"step": 2, "note": 42, "vel": 60, "len": 1}, {"step": 4, "note": 38, "vel": 100, "len": 1}, {"step": 6, "note": 42, "vel": 60, "len": 1}]}, {"bar": 5, "events": [{"step": 0, "note": 42, "vel": 60, "len": 1}, {"step": 2, "note": 38, "vel": 100, "len": 1}, {"step": 4, "note": 42, "vel": 60, "len": 1}, {"step": 6, "note": 36, "vel": 80, "len": 2}]}, {"bar": 6, "events": [{"step": 1, "note": 36, "vel": 80, "len": 2}, {"step": 3, "note": 42, "vel": 60, "len": 1}, {"step": 5, "note": 38, "vel": 100, "len": 1}, {"step": 7, "note": 42, "vel": 60, "len": 1}]}, {"bar": 7, "events": [{"step": 0, "note": 38, "vel": 100, "len": 1}, {"step": 2, "note": 42, "vel": 60, "len": 1}, {"step": 4, "note": 36, "vel": 80, "len": 2}, {"step": 6, "note": 42, "vel": 60, "len": 1}]}, {"bar": 8, "events": [{"step": 0, "note": 36, "vel": 80, "len": 2}, {"step": 2, "note": 42, "vel": 60, "len": 1}, {"step": 4, "note": 38, "vel": 100, "len": 1}, {"step": 6, "note": 42, "vel": 60, "len": 1}]}, {"bar": 9, "events": [{"step": 1, "note": 42, "vel": 60, "len": 1}, {"step": 3, "note": 38, "vel": 100, "len": 1}, {"step": 5, "note": 42, "vel": 60, "len": 1}, {"step": 6, "note": 36, "vel": 80, "len": 2}]}, {"bar": 10, "events": [{"step": 0, "note": 36, "vel": 80, "len": 2}, {"step": 3, "note": 42, "vel": 60, "len": 1}, {"step": 5, "note": 38, "vel": 100, "len": 1}, {"step": 7, "note": 42, "vel": 60, "len": 1}]}, {"bar": 11, "events": [{"step": 0, "note": 42, "vel": 60, "len": 1}, {"step": 2, "note": 38, "vel": 100, "len": 1}, {"step": 4, "note": 42, "vel": 60, "len": 1}, {"step": 6, "note": 36, "vel": 80, "len": 2}]}, {"bar": 12, "events": [{"step": 1, "note": 36, "vel": 80, "len": 2}, {"step": 3, "note": 42, "vel": 60, "len": 1}, {"step": 5, "note": 38, "vel": 100, "len": 1}, {"step": 7, "note": 42, "vel": 60, "len": 1}]}, {"bar": 13, "events": [{"step": 0, "note": 38, "vel": 100, "len": 1}, {"step": 2, "note": 42, "vel": 60, "len": 1}, {"step": 4, "note": 36, "vel": 80, "len": 2}, {"step": 6, "note": 42, "vel": 60, "len": 1}]}, {"bar": 14, "events": [{"step": 0, "note": 36, "vel": 80, "len": 2}, {"step": 2, "note": 42, "vel": 60, "len": 1}, {"step": 4, "note": 38, "vel": 100, "len": 1}, {"step": 6, "note": 42, "vel": 60, "len": 1}]}, {"bar": 15, "events": [{"step": 1, "note": 42, "vel": 60, "len": 1}, {"step": 3, "note": 38, "vel": 100, "len": 1}, {"step": 5, "note": 42, "vel": 60, "len": 1}, {"step": 6, "note": 36, "vel": 80, "len": 2}]}, {"bar": 16, "events": [{"step": 0, "note": 36, "vel": 80, "len": 2}, {"step": 3, "note": 42, "vel": 60, "len": 1}, {"step": 5, "note": 38, "vel": 100, "len": 1}, {"step": 7, "note": 42, "vel": 60, "len": 1}]}], "layers": {"Piano": [{"bar": 1, "events": [{"step": 0, "note": 60, "vel": 80, "len": 4}]}, {"bar": 2, "events": [{"step": 2, "note": 64, "vel": 80, "len": 2}]}, {"bar": 3, "events": [{"step": 0, "note": 67, "vel": 80, "len": 2}]}, {"bar": 4, "events": [{"step": 1, "note": 72, "vel": 80, "len": 3}]}, {"bar": 5, "events": [{"step": 3, "note": 76, "vel": 80, "len": 2}]}, {"bar": 6, "events": [{"step": 0, "note": 60, "vel": 80, "len": 4}]}, {"bar": 7, "events": [{"step": 2, "note": 64, "vel": 80, "len": 2}]}, {"bar": 8, "events": [{"step": 0, "note": 67, "vel": 80, "len": 2}]}, {"bar": 9, "events": [{"step": 1, "note": 72, "vel": 80, "len": 3}]}, {"bar": 10, "events": [{"step": 3, "note": 76, "vel": 80, "len": 2}]}, {"bar": 11, "events": [{"step": 0, "note": 60, "vel": 80, "len": 4}]}, {"bar": 12, "events": [{"step": 2, "note": 64, "vel": 80, "len": 2}]}, {"bar": 13, "events": [{"step": 0, "note": 67, "vel": 80, "len": 2}]}, {"bar": 14, "events": [{"step": 1, "note": 72, "vel": 80, "len": 3}]}, {"bar": 15, "events": [{"step": 3, "note": 76, "vel": 80, "len": 2}]}, {"bar": 16, "events": [{"step": 0, "note": 60, "vel": 80, "len": 4}]}], "Sax": [{"bar": 1, "events": [{"step": 4, "note": 72, "vel": 100, "len": 1}]}, {"bar": 2, "events": [{"step": 6, "note": 76, "vel": 100, "len": 1}]}, {"bar": 3, "events": [{"step": 1, "note": 79, "vel": 100, "len": 1}]}, {"bar": 4, "events": [{"step": 3, "note": 81, "vel": 100, "len": 1}]}, {"bar": 5, "events": [{"step": 5, "note": 72, "vel": 100, "len": 1}]}, {"bar": 6, "events": [{"step": 0, "note": 76, "vel": 100, "len": 1}]}, {"bar": 7, "events": [{"step": 2, "note": 79, "vel": 100, "len": 1}]}, {"bar": 8, "events": [{"step": 4, "note": 81, "vel": 100, "len": 1}]}, {"bar": 9, "events": [{"step": 6, "note": 72, "vel": 100, "len": 1}]}, {"bar": 10, "events": [{"step": 1, "note": 76, "vel": 100, "len": 1}]}, {"bar": 11, "events": [{"step": 3, "note": 79, "vel": 100, "len": 1}]}, {"bar": 12, "events": [{"step": 5, "note": 81, "vel": 100, "len": 1}]}, {"bar": 13, "events": [{"step": 0, "note": 72, "vel": 100, "len": 1}]}, {"bar": 14, "events": [{"step": 2, "note": 76, "vel": 100, "len": 1}]}, {"bar": 15, "events": [{"step": 4, "note": 79, "vel": 100, "len": 1}]}, {"bar": 16, "events": [{"step": 6, "note": 81, "vel": 100, "len": 1}]}], "Strings": [{"bar": 1, "events": [{"step": 0, "note": 48, "vel": 40, "len": 8}]}, {"bar": 2, "events": [{"step": 0, "note": 52, "vel": 40, "len": 8}]}, {"bar": 3, "events": [{"step": 0, "note": 55, "vel": 40, "len": 8}]}, {"bar": 4, "events": [{"step": 0, "note": 60, "vel": 40, "len": 8}]}, {"bar": 5, "events": [{"step": 0, "note": 48, "vel": 40, "len": 8}]}, {"bar": 6, "events": [{"step": 0, "note": 52, "vel": 40, "len": 8}]}, {"bar": 7, "events": [{"step": 0, "note": 55, "vel": 40, "len": 8}]}, {"bar": 8, "events": [{"step": 0, "note": 60, "vel": 40, "len": 8}]}, {"bar": 9, "events": [{"step": 0, "note": 48, "vel": 40, "len": 8}]}, {"bar": 10, "events": [{"step": 0, "note": 52, "vel": 40, "len": 8}]}, {"bar": 11, "events": [{"step": 0, "note": 55, "vel": 40, "len": 8}]}, {"bar": 12, "events": [{"step": 0, "note": 60, "vel": 40, "len": 8}]}, {"bar": 13, "events": [{"step": 0, "note": 48, "vel": 40, "len": 8}]}, {"bar": 14, "events": [{"step": 0, "note": 52, "vel": 40, "len": 8}]}, {"bar": 15, "events": [{"step": 0, "note": 55, "vel": 40, "len": 8}]}, {"bar": 16, "events": [{"step": 0, "note": 60, "vel": 40, "len": 8}]}]}, "meta": {"tempo": 90, "key": "C minor", "scale": "Natural minor", "style": "Experimental", "mood": "Melancholic", "meter": "4/4", "dynamic_profile": "Crescendo", "arrangement_density": "Medium", "harmonic_color": "Dissonant", "length_seconds": 107, "bars": 16, "instrument_configs": [{"name": "Piano", "register": "Mid", "role": "Lead", "articulation": "Legato", "dynamic_range": "Moderate"}, {"name": "Sax", "register": "High", "role": "Accompaniment", "articulation": "Staccato", "dynamic_range": "Intense"}, {"name": "Strings", "register": "Full", "role": "Pad", "articulation": "Sustain", "dynamic_range": "Delicate"}], "instruments": ["Piano", "Sax", "Strings"]}}, "midi_per_instrument": null, "tracks": [{"instrument": "Piano", "enabled": true, "volume_db": 0.0, "pan": 0.0}, {"instrument": "Sax", "enabled": true, "volume_db": -3.0, "pan": 0.0}, {"instrument": "Strings", "enabled": true, "volume_db": -3.0, "pan": 0.0}], "selected_samples": {"Strings": "Instruments/Orchestral/Strings/MIXO_F3(L)ogg.wav", "Sax": "Instruments/Orchestral/Tenor Sax/01_TSAX_LONG G#1ogg.wav", "Piano": "Instruments/Piano/Piano 1/CHANGPIANOHARD_G5OGG.WAV"}, "fadeout_seconds": 0.01}, "response": {"project_name": "jgcghx", "run_id": "b5fc9cafda47", "mix_wav_rel": "output\\b5fc9cafda47\\jgcghx_mix_1764868649.wav", "stems": [{"instrument": "Piano", "audio_rel": "output\\b5fc9cafda47\\jgcghx_Piano_1764868649.wav"}, {"instrument": "Sax", "audio_rel": "output\\b5fc9cafda47\\jgcghx_Sax_1764868649.wav"}, {"instrument": "Strings", "audio_rel": "output\\b5fc9cafda47\\jgcghx_Strings_1764868649.wav"}], "sample_rate": 44100, "duration_seconds": 107.0}}